<?xml version="1.0" encoding="UTF-8" standalone="no"?>
<!DOCTYPE svg  PUBLIC '-//W3C//DTD SVG 1.1//EN'  'http://www.w3.org/Graphics/SVG/1.1/DTD/svg11.dtd'>
<svg xmlns="http://www.w3.org/2000/svg">
<defs>
<font id="CenturionOldBold-Regular" horiz-adv-x="1348">
<font-face underline-position="-75" font-weight="700" descent="-410" panose-1="2 11 8 0 0 0 0 0 0 0" units-per-em="2048" unicode-range="U+0020-203A" bbox="-109 -512 2296 2099" x-height="987" underline-thickness="50" font-family="CenturionOldBold" ascent="1638" cap-height="1499"/>
<missing-glyph horiz-adv-x="2048"/>
<glyph glyph-name=".notdef" horiz-adv-x="2048"/>
<glyph glyph-name=".null" horiz-adv-x="0"/>
<glyph glyph-name="nonmarkingreturn" horiz-adv-x="0"/>
<glyph glyph-name="space" horiz-adv-x="672" unicode=" "/>
<glyph glyph-name="exclam" horiz-adv-x="696" unicode="!" d="M391 492h-88q-3 151 -30 315.5t-72 316.5q-13 55 -25.5 103.5t-18 77.5t-5.5 47q0 80 57 132t139 52q83 0 140 -52t57 -132q0 -36 -13 -88t-49 -189q-82 -340 -92 -583zM348 -37q-78 0 -133 55t-55 134q0 78 55 133t133 55q79 0 134 -55t55 -133q0 -79 -55 -134t-134 -55 z"/>
<glyph glyph-name="quotedbl" horiz-adv-x="819" unicode='&quot;' d="M528 1028l-45 356q0 13 -4 25q17 127 109 127q30 0 53.5 -16.5t35 -44t11.5 -56.5q0 -13 -2 -33t-2 -22l-51 -324q-5 -41 -14 -64.5t-39 -23.5q-27 0 -37.5 19.5t-14.5 56.5zM176 1028l-45 356q0 13 -2 25q5 52 30.5 89.5t76.5 37.5q30 0 53.5 -16.5t35 -44t11.5 -56.5 q0 -13 -2 -33t-2 -22l-51 -324q-5 -37 -14.5 -62.5t-39.5 -25.5q-28 0 -37.5 19.5t-13.5 56.5z"/>
<glyph glyph-name="numbersign" horiz-adv-x="1149" unicode="#" d="M705 889h-201l-43 -264h203zM1024 625v-160h-213l-63 -465h-168l67 465h-203l-63 -465h-168l63 465h-213v160h230l39 264h-201v160h221l60 440h168l-60 -440h201l63 440h164l-59 -440h194v-160h-211l-41 -264h193z"/>
<glyph glyph-name="dollar" d="M717 -25v-239h-109v239q-87 13 -167.5 47t-147.5 90.5t-106.5 132t-39.5 163.5q0 63 33.5 105t95.5 42q52 0 83.5 -42t31.5 -93q0 -32 -21.5 -90.5t-21.5 -85.5q0 -57 49.5 -100t118.5 -66t125 -23q110 0 196.5 65t86.5 173q0 67 -23.5 109.5t-88.5 86.5t-196 107 q-86 42 -141 72.5t-107.5 70t-91.5 88.5q-75 95 -75 238q0 121 52.5 213.5t145.5 149t209 71.5v230h109v-230q73 -1 147.5 -32.5t132.5 -83.5t92.5 -121t34.5 -146q0 -56 -31 -94.5t-89 -38.5q-51 0 -85 43t-34 98q0 24 13 77t13 83q0 72 -70.5 103.5t-156.5 31.5 q-108 0 -188 -58.5t-80 -160.5q0 -67 43.5 -119.5t102 -86.5t186.5 -97q115 -54 202.5 -114.5t146 -147t58.5 -195.5q0 -96 -32 -175.5t-91.5 -141t-138.5 -99t-176 -49.5z" unicode="$"/>
<glyph glyph-name="percent" horiz-adv-x="1624" unicode="%" d="M1229 47q81 0 114 121q13 36 19 93.5t6 115.5q0 123 -27 221t-116 98q-87 -8 -116.5 -105t-29.5 -210q0 -136 26.5 -235t123.5 -99zM1233 -12q-77 0 -142 32t-111.5 87t-70.5 122.5t-24 139.5q5 96 48.5 184t121 143.5t178.5 55.5q76 0 135 -32t102 -87.5t66 -121.5 t25 -138q0 -102 -43 -188.5t-118 -139.5t-167 -57zM403 805q93 0 117.5 99t24.5 229q0 156 -29 235q-30 80 -113 80q-75 0 -114 -109q-16 -40 -24.5 -99t-8.5 -103q6 -149 29.5 -240.5t117.5 -91.5zM412 743q-73 0 -139 29.5t-117 83.5q-42 51 -67.5 119t-25.5 149 q0 93 43.5 181t122 145t179.5 57q74 0 135 -31.5t104.5 -87t66.5 -122t25 -138.5q0 -98 -42.5 -185.5t-118.5 -141.5t-166 -58zM1124 1499h156l-780 -1499h-156z"/>
<glyph glyph-name="ampersand" horiz-adv-x="1720" unicode="&amp;" d="M815 973q92 54 143.5 135.5t57.5 183.5q0 78 -38 127t-114 49q-75 0 -117 -47t-47 -121q4 -2 4.5 -4.5t0.5 -3.5q0 -68 31 -148t79 -171zM1176 827v70h512v-70q-100 -18 -146 -75t-90 -172q-62 -179 -192 -320q48 -72 98.5 -105.5t114.5 -33.5q35 0 67 11.5t63 31.5 t64 45l37 -37q-73 -99 -169.5 -154t-211.5 -55q-85 0 -147.5 24t-139.5 81q-175 -105 -436 -105q-279 5 -401.5 127t-122.5 279q0 97 54 189t150 166t216 124q-46 97 -65 166t-19 145q4 108 66 194t164.5 134.5t225.5 48.5q81 0 164 -33t136 -96.5t53 -151.5q0 -66 -34 -119 t-92.5 -98t-129.5 -84t-105 -57q41 -92 132 -245t208 -320q86 76 125 162t39 165q0 87 -48 127.5t-140 40.5zM541 764q-153 -57 -156 -223q0 -111 45.5 -219.5t129 -177t188.5 -72.5q61 0 119 18.5t85 40.5q-90 104 -160.5 203.5t-134 209.5t-116.5 220z"/>
<glyph glyph-name="quotesingle" horiz-adv-x="571" unicode="&apos;" d="M113 831l-37 72q85 44 127.5 78.5t57.5 73.5t15 98q-47 3 -88 30t-64.5 69t-23.5 91q0 55 28 99.5t74.5 69t100.5 24.5q93 -3 143 -71.5t50 -172.5q0 -161 -113.5 -282t-269.5 -179z"/>
<glyph glyph-name="parenleft" horiz-adv-x="797" unicode="(" d="M721 1536l43 -51q-109 -78 -182 -186.5t-114.5 -235t-59 -259.5t-17.5 -267q0 -127 19 -255.5t62.5 -248.5t115 -222t172.5 -180l-39 -59q-189 102 -330.5 247.5t-220 329.5t-78.5 396q0 331 163 577.5t466 413.5z"/>
<glyph glyph-name="parenright" horiz-adv-x="797" unicode=")" d="M72 -428l-43 51q140 100 223 254.5t115 330t32 363.5q0 138 -20 266t-61 242.5t-114 219.5t-171 178l39 59q140 -75 257 -176.5t200 -225.5t127 -267t44 -304q0 -644 -628 -991z"/>
<glyph glyph-name="asterisk" horiz-adv-x="1141" unicode="*" d="M516 1188q-2 13 -19.5 95.5t-17.5 131.5q0 54 22.5 87.5t65.5 33.5q44 0 66 -31t22 -82q0 -92 -30 -235q36 22 62.5 38.5t65.5 35.5t70 28.5t62 9.5q44 0 68 -23t24 -52q0 -66 -84 -101q-24 -8 -48 -12.5t-43 -7t-60 -6.5t-87 -11q24 -20 63 -53.5t66 -61.5t47.5 -63.5 t20.5 -72.5q0 -23 -12 -42t-30.5 -28.5t-37.5 -9.5q-53 0 -88 42.5t-70 124t-47 101.5q-17 -44 -32 -81t-40 -82t-56 -73t-70 -32q-4 4 -17 4q-56 12 -63 76q9 70 57.5 123.5t136.5 127.5q-23 3 -76.5 8.5t-89.5 11.5t-73 21q-80 28 -80 105q3 28 30.5 47.5t57.5 19.5 q33 0 66.5 -10t70 -28.5t70.5 -39.5t57 -34z"/>
<glyph glyph-name="plus" horiz-adv-x="1149" unicode="+" d="M121 641h371v371h163v-371h373v-166h-373v-371h-163v371h-371v166z"/>
<glyph glyph-name="comma" horiz-adv-x="672" unicode="," d="M164 -369l-35 72q83 41 125.5 75.5t58 73.5t15.5 101q-71 4 -123.5 59t-52.5 127q0 86 58 139.5t142 53.5q93 0 145 -67.5t52 -172.5q0 -160 -114.5 -281t-270.5 -180z"/>
<glyph glyph-name="hyphen" horiz-adv-x="659" unicode="-" d="M92 428v197h475v-197h-475z"/>
<glyph glyph-name="period" horiz-adv-x="672" unicode="." d="M147 147q0 79 55 134t134 55q78 0 133 -55t55 -134q0 -76 -55 -130t-133 -54q-79 0 -134 54t-55 130z"/>
<glyph glyph-name="slash" horiz-adv-x="1044" unicode="/" d="M-59 -213l868 1712h182l-866 -1712h-184z"/>
<glyph glyph-name="zero" d="M676 55q146 0 217 189q22 56 35.5 123.5t20.5 141.5t8 108.5t4 117.5q0 182 -22 314.5t-54 218.5q-64 159 -201 159q-87 0 -146 -70t-89 -181q-30 -99 -44 -216t-14 -208q0 -185 22.5 -321t61.5 -222q38 -76 87.5 -115t113.5 -39zM684 1507q187 0 321.5 -120 t202.5 -303.5t68 -366.5q-4 -172 -56 -310.5t-134.5 -232.5t-187 -145t-218.5 -54q-130 0 -255 64.5t-206 179.5q-71 109 -107 229t-36 265q3 154 44 300t120 255q86 112 203.5 175.5t240.5 63.5z" unicode="0"/>
<glyph glyph-name="one" d="M848 1503v-1231q0 -82 19.5 -124t88.5 -60q58 -14 189 -25v-63h-909v63q114 10 160 19t80.5 39t49.5 92.5t15 173.5v596q0 133 -71 202.5t-234 69.5v66q106 10 210.5 35.5t205.5 62.5t196 84z" unicode="1"/>
<glyph glyph-name="two" d="M332 256h461q106 0 168 17t107 65.5t95 144.5l80 -18l-115 -465h-1069v100q84 115 188.5 215.5t301.5 264.5q99 82 168 164t110 181t41 212q0 87 -28 151.5t-86 99.5t-146 35q-74 0 -125 -44t-51 -115q4 -13 4 -43q13 -73 13 -105q0 -45 -27 -81t-71 -55t-87 -19 q-64 6 -107.5 52t-43.5 120q0 129 90 213t221 122.5t252 38.5q154 0 259 -40t164 -103t82 -133.5t23 -138.5q0 -69 -9.5 -117.5t-55.5 -113t-147.5 -145.5t-278.5 -184q-131 -70 -222 -131.5t-159 -144.5z" unicode="2"/>
<glyph glyph-name="three" d="M856 797q113 -43 195.5 -89.5t137 -118.5t54.5 -177q0 -92 -60 -193.5t-195 -172.5t-341 -71q-83 0 -189.5 19.5t-193.5 56.5q-201 95 -201 246q0 65 43.5 108.5t108.5 43.5q76 0 127 -48t57 -137q7 -110 41 -151q24 -29 62 -43.5t106 -14.5q93 0 160.5 44t101 120.5 t33.5 167.5q0 111 -38.5 193t-116.5 129q-85 39 -177 39q-24 0 -59.5 -6.5t-54.5 -6.5q-22 0 -40 16t-18 37q0 29 20 44.5t50 15.5q15 0 47 -4t47 -4q118 0 193 53q57 42 84.5 111t27.5 163q0 75 -24.5 133t-74.5 92.5t-126 34.5q-83 0 -134.5 -41t-51.5 -122 q0 -95 -43 -149t-117 -54q-58 0 -104 43.5t-46 103.5q0 83 50.5 142.5t128 93.5t162 48.5t159.5 14.5q89 0 184.5 -17.5t180 -58t138.5 -108.5t54 -164q0 -135 -98.5 -221t-249.5 -141z" unicode="3"/>
<glyph glyph-name="four" d="M705 461v698l-529 -698h529zM1024 1489v-1028h281v-113h-281v-155q0 -56 20.5 -82.5t56.5 -34t120 -13.5v-63h-725v63q107 13 138.5 19.5t51 29.5t19.5 76v160h-662v113l776 1028h205z" unicode="4"/>
<glyph glyph-name="five" d="M303 811q94 70 202 103.5t222 33.5q138 0 265 -53t207 -156.5t81 -246.5q0 -172 -98 -288.5t-250 -172.5t-316 -56q-210 0 -335 68q-83 43 -134 101.5t-51 131.5q3 75 58.5 121.5t130.5 46.5q85 0 113.5 -49.5t49 -149t48.5 -136.5q44 -51 145 -58q10 4 27 4 q78 9 137.5 58.5t91 136.5t31.5 203q-3 166 -82.5 265.5t-220.5 108.5q-205 0 -365 -159l-76 28l76 793h911l-63 -268h-760z" unicode="5"/>
<glyph glyph-name="six" d="M436 604q7 -76 15.5 -172t33 -178.5t79.5 -139t145 -63.5q99 6 160 68t86.5 156.5t25.5 193.5q-1 108 -33 185t-88 116t-129 39q-81 -6 -153 -58.5t-142 -146.5zM436 735q104 111 221.5 166t231.5 55q86 0 160.5 -31t130 -90.5t86 -143t30.5 -183.5q-1 -155 -83.5 -277.5 t-216.5 -189t-287 -66.5q-129 0 -251.5 54.5t-217.5 167.5q-75 88 -117.5 214.5t-42.5 268.5q5 155 61 302t157 266t236.5 187t292.5 68q129 0 243 -52.5t122 -166.5q0 -60 -38.5 -98.5t-88.5 -44.5q-21 0 -33 -4q-63 6 -101 37t-59 94q-18 63 -50 102t-87 39 q-83 0 -143 -58.5t-92 -146.5q-39 -97 -50.5 -202.5t-17.5 -241.5q4 -8 4 -25z" unicode="6"/>
<glyph glyph-name="seven" d="M1284 1489v-92q-106 -157 -184 -287t-145.5 -273t-111.5 -292.5t-59 -308.5q-16 -115 -62 -188t-151 -73q-81 7 -126.5 66.5t-45.5 138.5q0 133 105 326t253.5 383.5t282.5 331.5h-481q-115 0 -188 -36t-111 -88.5t-72 -131.5h-79l131 524h1044z" unicode="7"/>
<glyph glyph-name="eight" d="M936 860q125 -58 202 -121t113.5 -141t36.5 -178q-7 -106 -73.5 -205.5t-207 -166.5t-348.5 -73q-225 0 -409 83t-191 286q0 66 25 119.5t70 98.5t98.5 81t132.5 82q-109 70 -171 151t-62 191q0 141 82 241t211 149.5t260 49.5q89 0 180 -18.5t167 -58.5t122 -101 t47 -145q0 -217 -285 -324zM805 555l-305 117q-144 -128 -144 -281q0 -165 95.5 -250.5t261.5 -85.5q72 0 146 28t123 85.5t50 134.5q0 164 -227 252zM811 903q84 60 121.5 121t40.5 135q0 73 -36 129.5t-106.5 89t-171.5 33.5q-94 0 -175.5 -47t-84.5 -131q0 -96 65 -159.5 t145.5 -98t201.5 -72.5z" unicode="8"/>
<glyph glyph-name="nine" d="M920 881q0 83 -15.5 200.5t-64.5 214.5q-30 66 -82 98.5t-117 32.5q-142 0 -203 -125.5t-61 -285.5q3 -165 69 -252.5t179 -87.5q57 4 106 29.5t93 67t96 108.5zM920 743q-208 -212 -451 -219q-113 1 -207.5 58.5t-148.5 160t-54 234.5q1 116 50 216t130 169t186 107 t218 38q136 0 251.5 -54.5t201 -151t133 -224.5t47.5 -272q-5 -158 -62 -307t-159 -267.5t-239.5 -187t-295.5 -68.5q-78 0 -157.5 22t-135 72t-59.5 128q0 73 48 108t116 35q56 0 98.5 -35t52.5 -92q22 -69 45.5 -100t79.5 -45q132 12 201.5 118t90 241t20.5 290v26z" unicode="9"/>
<glyph glyph-name="colon" horiz-adv-x="672" unicode=":" d="M147 823q0 79 55 134t134 55q78 0 133 -55t55 -134q0 -76 -55 -131t-133 -55q-79 0 -134 55t-55 131zM147 147q0 79 55 134t134 55q78 0 133 -55t55 -134q0 -76 -55 -130t-133 -54q-79 0 -134 54t-55 130z"/>
<glyph glyph-name="semicolon" horiz-adv-x="672" unicode=";" d="M164 -369l-35 72q83 41 125.5 75.5t58 73.5t15.5 101q-71 4 -123.5 59t-52.5 127q0 86 58 139.5t142 53.5q93 0 145 -67.5t52 -172.5q0 -160 -114.5 -281t-270.5 -180zM147 823q0 79 55 134t134 55q78 0 133 -55t55 -134q0 -76 -55 -131t-133 -55q-79 0 -134 55t-55 131z "/>
<glyph glyph-name="less" horiz-adv-x="1149" unicode="&lt;" d="M1057 201v-160l-965 438v162l965 442v-163l-805 -365z"/>
<glyph glyph-name="equal" horiz-adv-x="1149" unicode="=" d="M121 504h907v-168h-907v168zM121 780h907v-164h-907v164z"/>
<glyph glyph-name="greater" horiz-adv-x="1149" unicode="&gt;" d="M92 201l805 354l-805 365v163l965 -442v-162l-965 -438v160z"/>
<glyph glyph-name="question" horiz-adv-x="969" unicode="?" d="M152 147q0 79 55 134t133 55t133 -55t55 -134q0 -76 -55 -130t-133 -54t-133 54t-55 130zM293 469v430q69 0 130.5 21.5t107.5 61.5t72 94t26 124q0 83 -30 149t-99 66q-41 0 -61 -22t-42.5 -68t-40.5 -65q-36 -40 -104 -48q-65 8 -107.5 45.5t-48.5 102.5 q10 92 89.5 134t183.5 42q127 0 245.5 -58t192.5 -164t74 -235q0 -138 -60.5 -238.5t-170 -154t-255.5 -53.5v-164h-102z"/>
<glyph glyph-name="at" horiz-adv-x="1477" unicode="@" d="M596 475q4 0 4 -4q37 5 80 53q53 60 125 215q63 175 63 242q0 36 -37 43q-37 0 -83 -41q-44 -41 -88.5 -126.5t-74 -179t-30.5 -145.5q0 -23 13 -38t28 -19zM797 436q-103 -101 -238 -108q-10 2 -30 4t-29 4q-66 16 -105.5 77.5t-42.5 166.5q28 192 90.5 333.5 t194.5 219.5q75 38 147 38q99 0 160 -67l12 33h215l-198 -529q-26 -60 -29 -88q0 -42 64 -49q5 2 8 3t4 1q69 15 126.5 57t97 101t61.5 127t22 137q0 143 -77 254.5t-207 172t-283 60.5q-123 -3 -235 -55t-193.5 -138.5t-129 -199.5t-50.5 -235q4 -21 4 -51 q16 -147 73 -256.5t147.5 -184.5t199 -112t221.5 -39q109 1 216 36t191 99.5t139 159.5h138q-53 -144 -159.5 -244.5t-245.5 -150.5t-288 -50q-153 0 -295.5 57.5t-255 163.5t-175.5 244.5t-66 296.5q0 175 60.5 324.5t168 258t250 168.5t301.5 60q146 0 273.5 -45 t224.5 -126.5t153.5 -199.5t57.5 -258q0 -110 -39.5 -213t-112 -184.5t-170 -130.5t-207.5 -55q-73 3 -116 32.5t-43 79.5z"/>
<glyph glyph-name="A" horiz-adv-x="1411" unicode="A" d="M831 616l-202 656l-244 -656h446zM893 1552l328 -1073q5 -13 39.5 -133t66.5 -174q27 -55 72.5 -78t120.5 -26v-68h-719v68q91 0 127.5 20.5t36.5 67.5q0 15 -2 28.5t-7.5 34.5t-10.5 38t-9 36l-72 231h-520l-55 -164q-28 -87 -33 -145q3 -65 45.5 -100t138.5 -47v-68 h-544v68q114 35 169.5 87t102.5 177l420 1124z"/>
<glyph glyph-name="B" horiz-adv-x="1548" unicode="B" d="M571 852h121q164 0 244 45q129 63 129 252q0 179 -121 244q-82 39 -201 39q-109 0 -143 -35q-29 -33 -29 -117v-428zM911 0h-870v68q72 0 115.5 15.5t61.5 51.5t18 101v1003q0 108 -43.5 152.5t-151.5 44.5v63h743q154 0 292 -22.5t240.5 -99t102.5 -222.5 q0 -145 -112 -226.5t-279 -119.5v-4q194 -35 327.5 -133t133.5 -273q0 -199 -158 -303q-153 -96 -420 -96zM575 752l-4 -433q0 -82 5 -124t23 -70t62.5 -42.5t118.5 -14.5q104 0 183.5 36.5t124.5 118t45 209.5q0 60 -11.5 110t-42.5 91t-84 67q-101 56 -303 56z"/>
<glyph glyph-name="C" horiz-adv-x="1440" unicode="C" d="M1352 416l57 -39q-56 -103 -122.5 -179t-143.5 -128t-163 -78.5t-183 -28.5q-140 0 -268.5 51.5t-229 148t-159.5 234.5t-60 308q4 12 4 22q3 148 53.5 290t142 259t220 187t280.5 73q52 0 99 -10t124 -31t109 -27q57 7 172 60l125 -453l-92 -31q-54 112 -124.5 203 t-167 150t-210.5 59q-30 0 -72 -8q-69 -17 -125.5 -67.5t-96 -130t-61.5 -191.5t-22 -246q1 -17 1.5 -31t0.5 -39q6 -156 55 -285t128.5 -210t173.5 -109q35 -9 123 -18q246 6 432 295z"/>
<glyph glyph-name="D" horiz-adv-x="1645" unicode="D" d="M584 276q0 -70 9.5 -110.5t27.5 -56.5t51 -21q10 0 88 -8q97 7 156 22.5t116 61.5q62 55 100 131.5t55 162t21 165t4 192.5q0 339 -133 481q-106 123 -319 123q-106 0 -144 -30q-22 -22 -27 -58t-5 -135v-920zM51 68q72 0 114 14.5t62.5 55t20.5 118.5v999 q0 96 -45.5 136.5t-151.5 40.5l-8 67h766q214 0 389 -96.5t275 -276t100 -417.5q-6 -210 -106 -372t-269.5 -249.5t-374.5 -87.5h-772v68z"/>
<glyph glyph-name="E" horiz-adv-x="1448" unicode="E" d="M43 0v68q126 0 163.5 51t37.5 157v895v54q0 74 -12 115.5t-55 66.5t-134 25v67h1237l131 -383l-63 -24q-70 89 -164.5 163.5t-207.5 119t-237 44.5q-99 -3 -129 -33.5t-35 -105.5q5 -29 5 -96v-375q110 0 170 7.5t110 35.5q78 57 127 197h80v-592h-80q-30 119 -98 184 q-50 43 -120 57.5t-189 14.5v-406q0 -26 -5 -47q4 -61 13.5 -95t40 -57.5t92.5 -27.5q193 0 365 92.5t294 235.5l56 -27l-156 -381h-1237z"/>
<glyph glyph-name="F" horiz-adv-x="1305" unicode="F" d="M47 0v68q71 0 111.5 14.5t58.5 41.5t22.5 61.5t4.5 95.5v895v53q0 106 -36.5 154.5t-164.5 48.5v67h1221l116 -399l-67 -29q-102 151 -251 249.5t-323 98.5q-69 0 -98.5 -9.5t-40.5 -33.5q-16 -24 -25 -133q5 -14 5 -51l4 -377q57 0 80 -4q140 6 196 49q78 57 113 197h80 v-596h-80q-3 51 -24 106.5t-52 79.5q-50 44 -95 57t-134 13h-88v-406q0 -22 -5 -39q4 -70 17 -110.5t57.5 -67t134.5 -26.5v-68h-737z"/>
<glyph glyph-name="G" horiz-adv-x="1599" unicode="G" d="M889 672h694l4 -80q-78 -6 -119 -28.5t-54 -59t-13 -101.5v-340q-19 3 -53 3q-69 0 -121 -12.5t-138 -39.5t-148 -39t-140 -12q-85 0 -166 17t-159 52t-144 89q-54 45 -99 103.5t-77 130t-50 155t-18 182.5q0 203 93 399t262.5 320.5t383.5 124.5q47 0 90 -9t91 -24.5 t75 -21.5q17 0 29 -4q91 9 176 59l127 -432l-72 -25q-65 87 -116.5 149t-110.5 113.5t-130 83t-150 31.5q-168 -6 -271.5 -171t-115.5 -425q0 -67 -5 -104q5 -192 30.5 -331t84.5 -228q86 -138 229 -154q27 0 43 -2q88 2 148 37.5t86 109.5q27 84 27 203v58 q-6 82 -45.5 109.5t-153.5 33.5z"/>
<glyph glyph-name="H" horiz-adv-x="1700" unicode="H" d="M575 815h549v418q0 109 -43 154t-153 45v67h733v-67q-110 0 -153.5 -45t-43.5 -150l-4 -977q0 -104 44.5 -148t156.5 -44v-68h-733v68q74 0 116.5 19t61 60t18.5 113v461h-549v-461q0 -103 45 -147.5t156 -44.5v-68h-735v68q110 0 154.5 44t44.5 148v977q0 105 -45 150 t-154 45v67h735v-67q-111 0 -156 -44.5t-45 -150.5v-422z"/>
<glyph glyph-name="I" horiz-adv-x="836" unicode="I" d="M588 260q0 -79 34 -135.5t162 -56.5v-68h-733v68q111 0 154 43.5t43 148.5l4 977q0 105 -45 150t-156 45v67h733v-67q-109 0 -152.5 -43.5t-43.5 -151.5v-321v-155v-161v-340z"/>
<glyph glyph-name="J" horiz-adv-x="977" unicode="J" d="M743 1239v-731q0 -320 -143 -440q-130 -105 -387 -105q-77 0 -149.5 22.5t-120 72.5t-47.5 126q0 48 24 87t64 60t92 21q72 -4 99.5 -42.5t44 -116t36.5 -109.5q13 -41 55 -41q24 0 42.5 16.5t27.5 44.5q22 59 22 181v71v883q0 75 -16.5 115t-62 57.5t-136.5 20.5v67h756 v-67q-79 -7 -119 -20t-61 -52t-21 -121z"/>
<glyph glyph-name="K" horiz-adv-x="1556" unicode="K" d="M983 999l414 -700q59 -98 82 -130t73 -60t140 -41v-68h-748v68q143 5 143 63q0 27 -38 109l-297 520l-164 -168v-344q0 -74 18.5 -111.5t61 -53t120.5 -15.5v-68h-737v68q73 0 115.5 17t60 46.5t21.5 68.5t4 107v922q0 76 -17 119t-60.5 63.5t-123.5 20.5v67h733v-67 q-109 0 -152.5 -43.5t-43.5 -151.5v-506l395 410q77 80 109 120t32 95q0 76 -155 76v67h630v-67q-109 -14 -183 -47t-124.5 -76.5t-149.5 -147.5t-159 -162z"/>
<glyph glyph-name="L" horiz-adv-x="1288" unicode="L" d="M47 0v68q111 0 154 44.5t43 151.5v975q0 109 -42.5 151t-154.5 42v67h733v-67q-110 0 -155 -42t-45 -151v-975q0 -76 8 -111t41.5 -54t105.5 -19q120 0 232 46.5t207.5 123.5t181.5 178l53 -20l-125 -408h-1237z"/>
<glyph glyph-name="M" horiz-adv-x="1931" unicode="M" d="M1700 1225v-981q0 -69 20 -108t63 -53.5t113 -14.5v-68h-733v68q67 0 111.5 15t67 53.5t22.5 107.5v1087h-4l-463 -1331h-74l-463 1288h-8v-844q0 -134 7 -200.5t26.5 -102t58 -50.5t111.5 -23v-68h-518v68q80 16 117 30.5t58.5 48.5t30.5 100t9 197l-4 795 q0 112 -44.5 152.5t-156.5 40.5v67h600l330 -940l336 940h583v-67q-86 -5 -127.5 -24t-55 -60.5t-13.5 -122.5z"/>
<glyph glyph-name="N" horiz-adv-x="1632" unicode="N" d="M555 1499l725 -1042v696q0 96 -13.5 151t-61 87t-144.5 41v67h538v-67q-95 -15 -139.5 -46.5t-57.5 -83.5t-13 -149l-5 -1153h-184l-823 1167v-790q0 -122 15 -176t62 -82t158 -51v-68h-579v68q102 17 151 45t66.5 80.5t17.5 150.5v948q-88 108 -235 140v67h522z"/>
<glyph glyph-name="O" horiz-adv-x="1665" unicode="O" d="M823 43q245 6 336 260q14 38 26 95t19 119.5t10 121t3 121.5q0 147 -17.5 265t-62.5 230q-88 201 -310 201q-112 -3 -183 -53t-124 -174q-46 -121 -58.5 -233t-12.5 -240q0 -31 -5 -56q6 -167 34 -308t110 -245t235 -104zM852 -37q-185 0 -325 55t-242 166 q-97 114 -145 243t-48 316q0 106 18 201t62 184.5t121 176.5q91 106 238 168.5t317 62.5q304 0 500 -193q75 -72 124 -154t74.5 -181.5t26.5 -227.5q0 -216 -92.5 -400.5t-257.5 -296t-371 -120.5z"/>
<glyph glyph-name="P" horiz-adv-x="1481" unicode="P" d="M584 688v-440q0 -106 44 -143t156 -37v-68h-737v68q78 0 120.5 15.5t61.5 54t19 110.5v919v66q0 101 -37 150t-164 49v67h733q103 0 214 -18.5t206 -62t157 -121.5t62 -193q0 -268 -243 -361q-61 -22 -135.5 -34t-158.5 -17.5t-177 -7.5q-41 4 -121 4zM584 1217v-449 q37 1 107.5 2t116 6.5t89.5 21t80 46.5q88 79 88 256q0 142 -61 217q-42 53 -104.5 77.5t-147.5 24.5q-65 0 -98.5 -11.5t-49.5 -35.5q-14 -22 -17 -55.5t-3 -99.5z"/>
<glyph glyph-name="Q" horiz-adv-x="1667" unicode="Q" d="M528 260q13 58 49 98t88 61t111 21q101 0 189.5 -55t171.5 -145q34 77 54.5 166.5t29 174t8.5 175.5q0 106 -6 187t-22.5 154.5t-47.5 139.5q-33 71 -84 119.5t-114 74t-128 25.5q-160 -4 -243.5 -115t-109 -261t-25.5 -324q0 -31 -5 -51q6 -136 23.5 -246.5t60.5 -198.5 zM973 -25q-79 -12 -154 -12q-152 0 -286.5 63t-234 175t-153 252.5t-53.5 289.5q0 328 197 549q67 72 149 125.5t186 86t224 32.5q145 -3 271 -47.5t229 -145.5q50 -44 93 -106.5t75.5 -136.5t49.5 -159.5t17 -184.5q0 -131 -34.5 -242t-85.5 -189.5t-103 -131.5t-100 -89 q6 -9 49 -76.5t80.5 -102t83.5 -34.5q56 0 110 62l45 -45q-60 -90 -143.5 -147.5t-175.5 -57.5q-121 0 -204 74.5t-132 197.5zM659 100q58 -57 168 -57q55 6 129 41q-9 71 -26 132t-57.5 102.5t-108.5 41.5q-43 0 -76.5 -23t-52 -59t-23.5 -77q6 -62 47 -101z"/>
<glyph glyph-name="R" horiz-adv-x="1481" unicode="R" d="M1128 567l111 -219q40 -81 82 -137.5t102.5 -96t137.5 -46.5v-68h-504q-16 23 -30.5 50.5t-28.5 58.5t-29 63l-121 256q-59 126 -108 188.5t-91.5 81.5t-93.5 19v-473q0 -105 43.5 -140.5t157.5 -35.5v-68h-731v68q73 0 115 14.5t60.5 53t18.5 108.5v1011 q0 106 -42 141.5t-152 35.5v67h878q119 0 233 -42.5t187.5 -128.5t73.5 -208q0 -156 -114 -246.5t-284 -121.5q40 -27 69 -72t60 -113zM555 811q52 2 89.5 3t75 4t68 8.5t68.5 17.5q83 31 131.5 96t48.5 201q0 83 -24.5 137t-79.5 90q-68 51 -236 51q-16 0 -38 -2t-25 -2 q-46 -10 -62 -43t-16 -108v-453z"/>
<glyph glyph-name="S" horiz-adv-x="1251" unicode="S" d="M41 440l76 29q61 -94 114.5 -162t122.5 -128.5t151 -97t175 -40.5q88 1 157.5 39t107.5 96t38 117q0 86 -45 139.5t-118 86t-192 68t-192 64.5q-105 48 -186.5 107.5t-129.5 145.5t-48 204q0 165 118 293.5t330 134.5q77 0 127.5 -10.5t102 -27.5t73.5 -21q91 0 181 71 l137 -440l-80 -25q-66 102 -144.5 184t-177.5 135.5t-202 53.5q-68 0 -123.5 -26.5t-87.5 -73t-33 -101.5q0 -77 38 -129.5t101.5 -84t190 -70.5t137.5 -43q208 -72 331 -179.5t126 -291.5q0 -167 -80 -279t-191.5 -163.5t-206.5 -51.5q-63 0 -192 33t-199 33 q-34 0 -68.5 -13.5t-107.5 -48.5z"/>
<glyph glyph-name="T" horiz-adv-x="1225" unicode="T" d="M-4 1499h1225l110 -407l-76 -21q-86 138 -212.5 241.5t-262.5 106.5v-1167q0 -70 18.5 -110.5t62.5 -57t116 -16.5v-68h-733v68q73 0 117 16t63.5 56t19.5 112v1167q-259 -27 -477 -348l-76 21z"/>
<glyph glyph-name="U" horiz-adv-x="1608" unicode="U" d="M559 1251v-735q0 -111 12.5 -187t49.5 -145q67 -141 272 -141q103 0 181 28.5t130 100.5q80 114 80 344v735q0 72 -18.5 111.5t-61.5 54.5t-117 15v67h504v-67q-75 0 -117.5 -15t-61.5 -54t-19 -112v-751q0 -255 -117 -383q-76 -85 -176.5 -118t-239.5 -36 q-117 0 -237.5 24t-198.5 72q-100 70 -150.5 166t-50.5 232v794q0 107 -41 144t-153 37v67h731v-67q-113 0 -157 -37t-44 -144z"/>
<glyph glyph-name="V" horiz-adv-x="1317" unicode="V" d="M-92 1499h684v-67q-83 -6 -123.5 -18t-40.5 -66q0 -34 25 -88l315 -887l272 776q35 89 35 139q0 126 -176 144v67h506v-67q-76 -17 -115.5 -40t-77 -86.5t-84.5 -197.5l-389 -1133h-172l-415 1158q-14 38 -35.5 96.5t-47 100t-65.5 69t-96 33.5v67z"/>
<glyph glyph-name="W" horiz-adv-x="1989" unicode="W" d="M-80 1499h635v-67q-49 0 -86 -21.5t-37 -67.5q0 -32 10 -86t19 -90l235 -723l224 672l-43 164q-18 76 -58 111t-119 41v67h643v-67q-58 0 -92 -19.5t-34 -73.5q0 -22 -5 -43q3 -10 6.5 -27.5t6.5 -29.5l264 -807l244 735q2 6 17 41t20.5 52t5.5 36q0 36 -16.5 62.5 t-43 42t-57 23.5t-64.5 8v67h494v-67q-70 -13 -108.5 -34t-79 -92t-93.5 -231l-364 -1100h-139l-336 977l-326 -977h-143l-396 1246q-15 47 -26 84.5t-27 64t-46.5 43t-84.5 19.5v67z"/>
<glyph glyph-name="X" horiz-adv-x="1393" unicode="X" d="M-92 1503h704v-67q-78 -6 -102 -20t-27 -44q0 -19 8.5 -38t27.5 -45.5t40 -59.5l180 -268l172 235q72 95 72 139q0 46 -31 73.5t-116 27.5v67h540v-67q-67 -4 -122 -29t-96 -63.5t-83 -96.5l-278 -370l379 -549q12 -16 55.5 -77.5t79 -98.5t80 -60.5t94.5 -23.5v-68h-729 v68q57 5 97 19t40 52q0 29 -15.5 56.5t-50.5 72.5l-235 344l-184 -231q-69 -91 -87 -119.5t-18 -73.5q0 -102 162 -120v-68h-557v68q80 13 143 52t109 89.5t104 130.5l268 360l-376 547q-65 98 -111 139.5t-137 49.5v67z"/>
<glyph glyph-name="Y" horiz-adv-x="1368" unicode="Y" d="M-92 1499h713v-67q-54 -4 -96 -20t-42 -56q0 -30 33 -88l272 -457l236 381q11 20 23.5 43t20 43.5t7.5 44.5q-5 61 -49.5 81t-118.5 28v67h553v-67q-103 -8 -160 -53t-124 -146l-332 -516v-465q0 -66 18 -106.5t61.5 -59t120.5 -18.5v-68h-741v68q91 5 134 23.5t57 63 t14 134.5v358l-395 641q-45 75 -82.5 102.5t-122.5 41.5v67z"/>
<glyph glyph-name="Z" horiz-adv-x="1212" unicode="Z" d="M1120 0h-1095l-50 68l826 1351q-25 2 -74 2q-133 0 -229.5 -25t-166 -71t-116.5 -94t-143 -160l-60 37l117 391h1051l32 -67l-835 -1352q22 0 35 -0.5t28 -1.5q148 0 255 26.5t185 74t161 128t139 137.5l63 -49z"/>
<glyph glyph-name="bracketleft" horiz-adv-x="797" unicode="[" d="M152 1499h507v-123h-231v-1464h231v-125h-507v1712z"/>
<glyph glyph-name="backslash" horiz-adv-x="571" unicode="\" d="M469 0l-545 1499h180l543 -1499h-178z"/>
<glyph glyph-name="bracketright" horiz-adv-x="797" unicode="]" d="M643 1499v-1712h-508v125h234v1464h-234v123h508z"/>
<glyph glyph-name="asciicircum" horiz-adv-x="1149" unicode="^" d="M940 532l-356 807l-365 -807h-164l449 967h155l445 -967h-164z"/>
<glyph glyph-name="underscore" horiz-adv-x="1024" unicode="_" d="M1024 -129v-156h-1024v156h1024z"/>
<glyph glyph-name="grave" horiz-adv-x="688" unicode="`" d="M520 1104l-104 -21l-119 164q-44 58 -73.5 98.5t-54 84t-40.5 90.5q2 63 111 63q75 0 107 -36t56 -111z"/>
<glyph glyph-name="a" horiz-adv-x="1092" unicode="a" d="M680 545q-144 -18 -242 -86t-98 -199q0 -75 39 -118t100 -46q118 7 201 117v332zM680 100q-71 -59 -161.5 -92t-190.5 -33q-83 0 -149 27.5t-106 84.5t-40 144q0 200 274 310q160 62 373 92v110q0 50 -11.5 96.5t-42 75.5t-81.5 29q-60 0 -90.5 -36t-61 -108.5 t-62 -112.5t-91.5 -44q-59 10 -92.5 37t-38.5 84q10 95 87 150.5t179 76.5t205 21q225 -3 311 -83t86 -229v-460q0 -57 10.5 -84.5t52.5 -34.5q35 7 56 14l16 -39q-40 -53 -102.5 -87t-124.5 -34t-115 33t-90 92z"/>
<glyph glyph-name="b" horiz-adv-x="1229" unicode="b" d="M408 96l-211 -133l-50 57v1108q0 104 -29.5 158t-117.5 62v63l440 125v-639q149 115 308 115q101 0 181 -41.5t135 -112.5t83.5 -161t28.5 -185q0 -140 -56.5 -263.5t-163.5 -198.5t-247 -75q-149 0 -301 121zM440 793v-609q36 -46 91 -71t120 -25q86 0 137.5 65.5 t72 161t20.5 181.5q0 157 -47.5 275t-178.5 118q-110 0 -215 -96z"/>
<glyph glyph-name="c" horiz-adv-x="1057" unicode="c" d="M987 293l53 -41q-59 -87 -140.5 -149.5t-180.5 -95t-211 -32.5q-91 8 -169.5 45t-140 104t-96 160.5t-34.5 207.5q10 146 86.5 265t200.5 187t270 68q76 0 164.5 -22t151.5 -72.5t63 -133.5q0 -63 -45 -102t-107 -41q-68 4 -97.5 45.5t-41.5 114.5q-9 54 -48.5 92.5 t-93.5 38.5q-187 0 -198 -357q4 -20 4 -63q7 -123 43 -210t91 -136.5t122 -61.5q7 -2 26 -4t29 -4q81 3 151.5 49.5t147.5 147.5z"/>
<glyph glyph-name="d" horiz-adv-x="1276" unicode="d" d="M815 899v238q0 78 -12.5 124t-46.5 70.5t-97 28.5v63l453 113v-1255q0 -77 13 -121t45 -66t94 -31v-63q-63 -3 -127 -5t-118 -6t-106.5 -10t-97.5 -16v133q-53 -59 -125.5 -87.5t-157.5 -28.5q-142 0 -246.5 65.5t-159 180.5t-54.5 253t43 241t113.5 168.5t148.5 96.5 t155 31q141 0 283 -117zM815 213v580q-37 39 -100 71.5t-111 32.5q-122 0 -172.5 -124t-50.5 -261q0 -89 22 -182t77 -159.5t145 -66.5q64 0 106.5 27.5t83.5 81.5z"/>
<glyph glyph-name="e" horiz-adv-x="1096" unicode="e" d="M356 588h432q0 336 -213 336q-112 -8 -163.5 -108t-55.5 -228zM360 500q0 -103 42.5 -194t120.5 -147.5t182 -62.5q163 7 303 152l49 -43q-101 -119 -215.5 -172t-245.5 -53q-142 0 -264 60t-195.5 175t-73.5 268q9 146 75.5 267t179.5 191.5t253 70.5q145 0 254.5 -68.5 t166.5 -185.5t57 -258h-689z"/>
<glyph glyph-name="f" horiz-adv-x="621" unicode="f" d="M444 995h220v-96h-224v-706q0 -54 16 -81.5t50.5 -38t97.5 -10.5v-63h-624v63q66 0 101.5 15t48.5 48.5t13 92.5v680h-184v96h180q0 94 27.5 187.5t82.5 174t132.5 128.5t177.5 51q125 0 192.5 -49.5t67.5 -126.5q0 -57 -39.5 -96.5t-99.5 -42.5q-78 7 -131 79 q-22 29 -41.5 46.5t-42.5 17.5q-42 0 -49 -64q2 -2 3 -4.5t1 -3.5q3 -33 6.5 -89.5t8.5 -117t9 -90.5z"/>
<glyph glyph-name="g" horiz-adv-x="1057" unicode="g" d="M377 315q-62 -30 -62 -55q0 -48 76 -59q112 -17 164 -21q116 -11 205.5 -21t159 -30.5t119.5 -67t61 -124.5q0 -71 -23 -124t-64 -89.5t-102 -63.5q-157 -68 -440 -68q-191 0 -314 34t-157 165q3 56 52.5 102.5t148.5 73.5q-79 40 -115 77.5t-39 94.5q8 34 8 45 q10 43 58 81.5t151 86.5q-78 33 -127 79t-71.5 99t-24.5 113q4 114 75 198.5t179 127.5t225 43q87 0 201 -31q40 82 106.5 139t141.5 60q61 0 96 -36t35 -87q0 -54 -31.5 -80.5t-87.5 -40.5q-16 1 -38.5 8t-39 14.5t-31.5 14.5h-24q-22 0 -43 -25q94 -57 140 -132t46 -157 q0 -114 -71 -195.5t-181 -123t-223 -43.5q-55 2 -139 18zM336 651q15 -270 192 -270q85 0 137 71t52 189q0 105 -49 198t-152 93q-89 -8 -134.5 -93.5t-45.5 -187.5zM311 -55q-64 -47 -75 -113q0 -12 -5 -20q6 -66 55 -100t111 -43t135 -9q164 0 244 41q72 30 72 98 q0 47 -37 63t-102 25z"/>
<glyph glyph-name="h" horiz-adv-x="1268" unicode="h" d="M469 1536v-684q183 156 340 156q81 0 150 -36t109 -100t40 -145v-514q0 -88 29.5 -119.5t101.5 -34.5v-63h-563v63q72 0 103.5 37.5t31.5 147.5v452q-1 64 -44 102t-108 38q-30 0 -61.5 -12t-75 -36t-53.5 -28v-541q0 -68 14.5 -101t40 -43.5t72.5 -15.5v-63h-559v63 q74 0 104.5 41t30.5 156v864q0 111 -31 163.5t-116 64.5v63z"/>
<glyph glyph-name="i" horiz-adv-x="633" unicode="i" d="M311 1192q-72 0 -124 50t-52 122q0 47 23.5 86.5t64 62.5t88.5 23q49 0 88 -23t61.5 -61.5t22.5 -87.5q0 -72 -49 -122t-123 -50zM600 0h-559v63q79 0 107 38t28 155v369q0 100 -26.5 154t-116.5 65v63l438 125v-809q0 -65 13.5 -100t41.5 -47.5t74 -12.5v-63z"/>
<glyph glyph-name="j" horiz-adv-x="553" unicode="j" d="M332 1192q-72 0 -122 50t-50 122t50 122t122 50q49 0 87.5 -23t61.5 -61.5t23 -87.5q0 -72 -50 -122t-122 -50zM33 907l438 125v-1003q0 -107 -46 -202t-131.5 -151.5t-197.5 -56.5q-69 0 -116.5 37t-47.5 108q0 54 36.5 91.5t90.5 40.5q72 -8 121 -60q27 -33 35 -33 q21 0 21 29q0 26 -22.5 78t-25.5 65q-8 34 -8 93v548q0 105 -25.5 161t-121.5 67v63z"/>
<glyph glyph-name="k" horiz-adv-x="1225" unicode="k" d="M475 1536v-1036l205 196q16 13 39 33.5t39.5 38t27.5 38.5t11 42q0 66 -117 76v63h541v-59q-78 -9 -159.5 -54.5t-148 -102.5t-129.5 -120l324 -458q39 -58 80 -86t100 -44v-63h-571v63q32 0 56 15.5t24 46.5q0 21 -9.5 36t-31.5 48l-185 260l-96 -84v-137q0 -55 5.5 -87 t20 -54t38 -31.5t69.5 -12.5v-63h-565v63q71 0 104 28.5t33 127.5v914q0 98 -27.5 152.5t-115.5 62.5v63z"/>
<glyph glyph-name="l" horiz-adv-x="616" unicode="l" d="M33 1411l438 125v-1309q0 -59 11 -95.5t39.5 -52.5t82.5 -16v-63h-563v63q71 0 105 29.5t34 130.5v918q0 93 -30.5 146t-116.5 61v63z"/>
<glyph glyph-name="m" horiz-adv-x="1892" unicode="m" d="M471 735v-504q0 -60 8.5 -94t37.5 -54t87 -20v-63h-563v63q55 0 83 16t40 57.5t12 123.5v381q0 58 -13 100.5t-44.5 69.5t-85.5 33v63l438 125v-192q99 82 176.5 127t163.5 45q58 0 110 -22.5t93 -61t73 -88.5q95 82 174.5 127t170.5 45q92 0 161 -51t106.5 -133 t37.5 -173v-428q0 -91 26 -127.5t101 -36.5v-63h-559v63q81 0 108 41t27 160v387q0 74 -38 129.5t-110 55.5q-50 0 -100.5 -28.5t-87.5 -72.5v-504q0 -62 9 -97t37 -51.5t83 -19.5v-63h-561v63q54 0 84 17t41.5 58.5t11.5 121.5v391q0 72 -31.5 128.5t-97.5 56.5 q-55 0 -113 -28.5t-96 -72.5z"/>
<glyph glyph-name="n" horiz-adv-x="1264" unicode="n" d="M469 731v-543q0 -125 127 -125v-63h-559v63q55 0 83 16t40 57.5t12 123.5v381q0 58 -13 100.5t-45 69.5t-89 33v63l444 125v-188q93 76 178 122t172 46q59 0 112.5 -24t94 -66t63.5 -93t27 -108v-494q0 -63 10 -96.5t37.5 -49t83.5 -18.5v-63h-563v63q56 0 85 16.5 t39.5 57.5t10.5 127v357q0 54 -14.5 103t-50 80.5t-90.5 31.5t-108 -29t-87 -76z"/>
<glyph glyph-name="o" horiz-adv-x="1163" unicode="o" d="M592 55q130 0 188 172q35 106 35 269q0 97 -11.5 172.5t-39.5 136.5q-51 127 -176 127q-134 -5 -180.5 -130.5t-55.5 -305.5q0 -170 50 -305.5t190 -135.5zM612 -25q-156 0 -283.5 67t-200.5 184t-73 261q3 114 47.5 210t124 167.5t181.5 109.5t213 38q136 0 248.5 -68.5 t177.5 -184.5t65 -251q-3 -110 -40 -210.5t-116 -176.5q-67 -67 -152.5 -102.5t-191.5 -43.5z"/>
<glyph glyph-name="p" horiz-adv-x="1251" unicode="p" d="M457 88v-276q3 -79 38 -105t93 -26v-66h-559v66q51 0 78.5 15.5t39.5 57.5t13 121v750q0 103 -24 154.5t-120 64.5v63l441 125v-151q43 44 91 72.5t102.5 43.5t113.5 15q126 0 222.5 -72t149 -188.5t52.5 -239.5q0 -122 -55 -249t-155.5 -207.5t-229.5 -80.5 q-75 0 -143 28.5t-148 84.5zM457 768v-571q53 -55 97.5 -82t104.5 -27q92 0 144.5 72.5t71 172.5t18.5 191q0 80 -18.5 163t-66 142.5t-128.5 59.5q-125 0 -223 -121z"/>
<glyph glyph-name="q" horiz-adv-x="1229" unicode="q" d="M788 809q-83 80 -180 80q-85 0 -139.5 -57.5t-79 -143t-24.5 -164.5q0 -41 -5 -67q8 -103 24.5 -176.5t63 -127t136.5 -57.5q110 6 204 88v625zM788 84q-59 -49 -140.5 -79t-164.5 -30q-100 0 -182 43.5t-137 118.5t-84 170t-29 189q5 132 63.5 251.5t162.5 192t239 72.5 q174 0 307 -127l226 139l34 -29v-1171q0 -82 29.5 -112.5t104.5 -30.5v-66h-562v66q65 0 99 28.5t34 110.5v264z"/>
<glyph glyph-name="r" horiz-adv-x="893" unicode="r" d="M475 651v-428q0 -71 17 -105.5t46.5 -44.5t82.5 -10v-63h-584v63q49 0 77.5 7.5t47 41.5t18.5 107v385q0 74 -7 118t-38.5 76t-97.5 38v63l438 129v-235q32 39 68 82t72 77t80 57t93 23q37 0 70 -24.5t51.5 -63.5t18.5 -76q0 -56 -37.5 -91t-93.5 -38q-24 4 -83 26.5 t-89 22.5q-42 0 -76 -37.5t-74 -99.5z"/>
<glyph glyph-name="s" horiz-adv-x="1028" unicode="s" d="M68 315l71 25q106 -132 211 -207t238 -86q37 11 77.5 23t63.5 36t23 74q-3 55 -43 91t-121 61q-22 7 -197 45q-87 23 -150 56t-106 97t-43 158q4 114 89.5 215t250.5 109q37 0 65.5 -5.5t82.5 -17.5t79 -16q107 0 177 59l100 -332l-80 -28q-96 112 -195.5 186t-207.5 74 q-68 0 -114 -35.5t-46 -85.5q0 -51 35.5 -81t93.5 -45.5t146 -29.5t132 -26q116 -28 199.5 -100t83.5 -197q0 -101 -48.5 -184t-133 -130t-185.5 -47q-46 2 -134.5 15.5t-141.5 13.5q-89 0 -172 -41z"/>
<glyph glyph-name="t" horiz-adv-x="680" unicode="t" d="M147 899h-143v96q97 10 158 38.5t97 73.5t58 100.5t52 148.5h80v-361h282v-96h-287v-635q0 -69 33 -104.5t86 -38.5q95 6 168 76l49 -45q-40 -53 -97.5 -92t-125 -59.5t-133.5 -20.5q-115 0 -194 70.5t-83 209.5v639z"/>
<glyph glyph-name="u" horiz-adv-x="1296" unicode="u" d="M819 0v139q-80 -77 -180.5 -120.5t-194.5 -43.5q-76 0 -139.5 34t-100 103.5t-36.5 168.5v340q0 72 -8 113.5t-39 71.5t-96 38v63l440 125v-725q0 -71 24.5 -108.5t90.5 -46.5q16 0 24 -5q111 9 215 113v356q0 107 -24 162t-119 66v63l440 125v-743q0 -109 24.5 -164 t123.5 -62v-63h-445z"/>
<glyph glyph-name="v" horiz-adv-x="1032" unicode="v" d="M-76 987h555v-63q-91 0 -94 -76q4 -34 14 -60l209 -495l164 383q29 82 29 121q0 55 -32.5 88t-96.5 39v63h436v-63q-74 -28 -111 -58.5t-57 -67.5t-55 -122l-301 -692h-152l-323 747q-37 89 -71 131t-114 62v63z"/>
<glyph glyph-name="w" horiz-adv-x="1520" unicode="w" d="M528 987h537v-63q-49 0 -69 -15t-23 -49q8 -39 18 -67l168 -453l146 352q26 81 26 117q0 34 -15 60t-42 42t-62 17v59h387v-63q-72 -20 -107.5 -72.5t-82.5 -171.5l-281 -692h-137l-227 579l-248 -579h-131l-301 737q-12 34 -25 70t-27 60t-37.5 43.5t-62.5 29.5v59h521 v-63q-91 -12 -97 -68q2 -17 15 -51.5t16 -44.5l162 -420l164 369q-43 113 -80 157.5t-105 61.5v59z"/>
<glyph glyph-name="x" horiz-adv-x="1075" unicode="x" d="M-41 987h557v-63q-34 -6 -48 -15t-24 -37q9 -28 31.5 -61.5t28.5 -46.5l84 -109l108 113q43 43 43 88q0 59 -98 68v63h434v-63q-57 -4 -101 -23t-93 -74l-230 -252l238 -303q27 -34 55.5 -67t57.5 -58.5t62 -46.5t73 -37v-63h-582v63q9 2 27 5.5t29 8t18.5 13t7.5 23.5 q0 35 -66 114l-110 138l-105 -109q-35 -47 -47 -67.5t-12 -45.5q0 -69 102 -80v-63h-450v63q91 25 139 61.5t127 119.5l184 200l-239 308q-54 69 -99 114t-102 58v63z"/>
<glyph glyph-name="y" horiz-adv-x="1008" unicode="y" d="M449 4l-369 780q-31 76 -62.5 106.5t-93.5 33.5v63h541v-63q-86 -5 -92 -80q8 -56 35 -109l184 -391l168 365q24 51 24 100q0 101 -137 115v63h432v-63q-77 -16 -122.5 -64.5t-71.5 -107.5l-361 -799q-148 -338 -385 -338q-70 0 -125 39t-55 106q0 57 40 95t97 41 q13 -5 33 -5q22 -4 38 -17t36.5 -35.5t40 -35t41.5 -12.5t45.5 20t38.5 42q38 46 80 151z"/>
<glyph glyph-name="z" horiz-adv-x="907" unicode="z" d="M332 80q185 0 313.5 64.5t226.5 224.5l60 -25l-96 -344h-844l-25 63l592 844h-47q-79 0 -145 -17t-138.5 -71.5t-152.5 -159.5l-68 29l109 299h786l29 -55z"/>
<glyph glyph-name="braceleft" horiz-adv-x="797" unicode="{" d="M340 668v-4q81 -15 124.5 -47.5t62 -91t18.5 -152.5v-348q0 -70 16.5 -114.5t53 -70.5t110.5 -49v-4h-88q-102 0 -168.5 8.5t-116.5 36.5t-77 85.5t-27 154.5v381q0 97 -40.5 144.5t-144.5 66.5v4q185 25 185 204v420q0 141 90.5 192.5t232.5 51.5h156l-2 -4 q-70 -17 -108.5 -44t-55 -70t-16.5 -105v-420q0 -106 -51.5 -156t-153.5 -69z"/>
<glyph glyph-name="bar" horiz-adv-x="571" unicode="|" d="M205 0v1499h164v-1499h-164z"/>
<glyph glyph-name="braceright" horiz-adv-x="797" unicode="}" d="M457 668q-103 20 -154 69.5t-51 155.5v420q0 62 -16.5 105t-56.5 70t-111 44v8l155 -4q145 0 235.5 -51.5t90.5 -192.5v-420q0 -179 182 -204v-4q-103 -19 -142.5 -66.5t-39.5 -144.5v-381q0 -97 -27.5 -155t-77 -85.5t-116 -36t-168.5 -8.5h-92v4q105 32 144.5 82 t39.5 152v348q0 94 17.5 153t61.5 91t126 47v4z"/>
<glyph glyph-name="asciitilde" horiz-adv-x="1149" unicode="~" d="M63 471q58 99 133 162t173 63q49 0 99.5 -14.5t119.5 -43t111.5 -43t93.5 -20.5q47 4 82.5 35.5t80.5 102.5l127 -80q-73 -110 -137.5 -161.5t-140.5 -51.5q-56 0 -98 12t-121 44.5t-124 46.5t-97 14q-58 0 -94 -38.5t-78 -111.5z"/>
<glyph glyph-name="nonbreakingspace" horiz-adv-x="1536" unicode=" "/>
<glyph glyph-name="exclamdown" horiz-adv-x="696" unicode="¡" d="M395 508q5 -117 25 -224t59 -280q28 -99 40.5 -149.5t12.5 -73.5q0 -78 -50.5 -140t-133.5 -65q-49 0 -92 28t-67.5 74.5t-24.5 98.5q0 18 4 37t16.5 66t20.5 79q41 128 63.5 269t30.5 280h96zM348 1012q79 0 134 -55t55 -134q0 -76 -55 -131t-134 -55q-78 0 -133 55 t-55 131q0 79 55 134t133 55z"/>
<glyph glyph-name="cent" d="M1145 571l51 -39q-78 -112 -181 -179.5t-239 -96.5v-219h-112l4 223q-121 7 -226 72t-167 179.5t-62 264.5q8 138 78 247t171.5 174.5t201.5 82.5v209h112v-197q76 0 164 -21.5t154 -70.5t73 -125q0 -72 -48.5 -113.5t-114.5 -46.5q-9 5 -21 5q-54 8 -75.5 42.5t-43 104 t-49.5 105.5t-90 36q-185 0 -197 -352q4 -20 4 -63q8 -95 28.5 -164.5t54 -117t76 -74.5t93.5 -38q12 -2 33 -4t31 -4q78 3 151 47t146 133z" unicode="¢"/>
<glyph glyph-name="sterling" d="M596 121q-171 -133 -340 -133q-95 0 -165.5 51t-70.5 129q0 62 40 115.5t115 84.5t173 31q107 0 211 -30q4 12 4 39q0 43 -24.5 112t-69.5 172h-305v96h252q-28 81 -35 193q4 143 78 264.5t197 191.5t268 70q95 0 181.5 -30.5t140.5 -87.5t54 -134q0 -71 -43.5 -107.5 t-111.5 -39.5q-12 4 -37 4q-125 21 -125 193q0 55 -26 88.5t-76 33.5q-96 0 -133 -78t-48 -196q3 -60 14.5 -122t30 -136t23.5 -107h348v-96h-340q4 -33 4 -104q0 -146 -55 -264q25 -9 68 -25t82 -28t97 -23t99 -12q74 3 132 23t97 65l48 -21q-19 -93 -75 -168 t-137.5 -117.5t-174.5 -42.5q-79 0 -165.5 34.5t-199.5 111.5zM504 176q-83 67 -134.5 94.5t-105.5 28.5q-67 0 -116 -30.5t-52 -88.5l4 -4v0q0 -52 45 -80t115 -28q69 0 137.5 27t106.5 81z" unicode="£"/>
<glyph glyph-name="currency" d="M680 395q101 0 186 53.5t136 142.5t51 185t-50 183.5t-135.5 140.5t-183.5 53q-109 0 -197.5 -51t-139 -140.5t-50.5 -197.5q0 -76 30.5 -144t83 -117.5t124 -78.5t145.5 -29zM104 348l97 101q-98 123 -105 323q3 96 30 186.5t75 157.5l-97 96l132 136l100 -97 q67 51 157 78t179 27q194 0 340 -105l100 97l135 -136l-98 -96q102 -162 102 -340q0 -83 -25.5 -165t-76.5 -162l98 -101l-135 -135l-100 94q-150 -100 -344 -106q-189 6 -332 106l-100 -94z" unicode="¤"/>
<glyph glyph-name="yen" d="M940 924h289v-97h-336l-78 -172h414v-96h-414v-295q0 -115 48 -155.5t153 -40.5v-68h-705v68q77 5 118.5 19t62 55t20.5 122v295h-391v96h375l-76 172h-299v97h252q-11 21 -34 67t-43 86.5t-41.5 85t-39.5 76.5q-40 83 -81.5 128.5t-104.5 51.5v70h612v-70q-42 0 -69 -25 t-27 -59q0 -39 26 -98l205 -432q96 214 172 379q35 83 35 129q0 92 -119 106v70h457v-70q-72 -4 -129.5 -56.5t-101 -129t-87.5 -176t-63 -133.5z" unicode="¥"/>
<glyph glyph-name="brokenbar" horiz-adv-x="385" unicode="¦" d="M205 0v1499h164v-1499h-164z"/>
<glyph glyph-name="section" horiz-adv-x="1149" unicode="§" d="M868 303q66 -42 110.5 -96t66.5 -114t22 -122q0 -127 -78 -215.5t-198 -132t-246 -43.5q-107 0 -215.5 43.5t-181 128.5t-72.5 201q10 164 147 164q32 -6 61.5 -26.5t48.5 -48t19 -58.5q0 -37 -25.5 -103t-29.5 -90q7 -73 86 -102t170 -29q69 0 133.5 23.5t107 71.5 t42.5 120q0 50 -27 100q-30 46 -134 110.5t-226 119.5q-129 59 -202 115.5t-101.5 117.5t-28.5 137q3 112 51.5 178t142.5 128q-76 53 -116 126t-43 156q2 96 53.5 181t150.5 138t232 54q106 0 216 -41t181.5 -119t71.5 -180q0 -63 -37.5 -105t-91.5 -47q0 4 -1.5 4.5 t-2.5 0.5q-49 4 -88.5 36t-42.5 95q6 30 10 48.5t8 43.5t4 41q0 52 -36.5 84t-89 45.5t-101.5 13.5q-93 0 -159.5 -47t-76.5 -137q7 -60 42 -106.5t86 -81.5t118 -69.5t107 -58.5q91 -53 134.5 -79t93.5 -69.5t80.5 -99t30.5 -124.5q0 -91 -49.5 -165.5t-126.5 -115.5z M369 840q-55 -70 -62 -144q6 -85 96 -133l385 -215q48 69 48 127q0 94 -101 150z"/>
<glyph glyph-name="dieresis" horiz-adv-x="1049" unicode="¨" d="M600 1276q0 43 21 77.5t55 54t76 19.5q41 0 74.5 -20t53 -55t19.5 -76t-19 -76t-52.5 -55.5t-75.5 -20.5q-43 0 -77 20.5t-54.5 54.5t-20.5 77zM147 1276q0 43 21 77.5t55 54t76 19.5q43 0 77.5 -19.5t55.5 -54t21 -77.5t-20.5 -77t-55 -54.5t-78.5 -20.5q-43 0 -77 20.5 t-54.5 54.5t-20.5 77z"/>
<glyph glyph-name="copyright" horiz-adv-x="1556" unicode="©" d="M1049 920q0 101 -69.5 165t-170.5 64q-49 0 -70 -4q-66 -12 -123 -58t-90.5 -128.5t-33.5 -198.5q0 -91 33 -173.5t90 -137t128 -68.5q23 -3 49 -6.5t39 -5.5q174 6 256 155l54 -20q-40 -103 -146.5 -166.5t-234.5 -63.5q-29 0 -43 2q-166 16 -273 123q-35 35 -66 91 t-48.5 120.5t-18.5 132.5q0 100 34 198t113 174t206 106q54 12 124 12q151 0 328 -62v-251h-67zM147 748q3 -135 49.5 -250.5t132.5 -203.5t202.5 -136.5t248.5 -48.5q121 0 236 49t203 137t137 204t49 249q0 140 -52.5 258.5t-143.5 204.5t-205.5 132t-235.5 46 q-112 0 -223 -47t-202 -135.5t-143.5 -206t-52.5 -252.5zM768 1536q163 0 306 -60t249.5 -168t165.5 -251.5t59 -308.5q0 -164 -60 -308t-169 -253t-251.5 -168.5t-299.5 -59.5q-155 0 -295.5 62.5t-246 172.5t-164 252.5t-58.5 301.5q0 211 101.5 393t277.5 288.5 t385 106.5z"/>
<glyph glyph-name="ordfeminine" horiz-adv-x="809" unicode="ª" d="M475 1229q-92 -11 -157.5 -55t-65.5 -125q0 -51 25 -78.5t63 -30.5q46 13 76 30.5t59 49.5v209zM475 940q-103 -73 -231 -80q-90 3 -145.5 48.5t-55.5 123.5q0 63 47 114.5t125 82.5q88 36 260 63q0 119 -18 164q-20 33 -70 33q-39 0 -58.5 -23t-40 -71t-38 -73 t-53.5 -30q-38 0 -68 21.5t-33 58.5q0 50 44.5 88.5t114 57t144.5 18.5h17q106 0 160 -23.5t71 -71.5t17 -136v-261q0 -38 6.5 -56.5t34.5 -26.5q8 2 38 12l25 -29q-25 -35 -64.5 -58t-74.5 -26q-47 0 -88 21.5t-66 58.5zM55 616v115h701v-115h-701z"/>
<glyph glyph-name="guillemotleft" horiz-adv-x="1192" unicode="«" d="M641 944l31 -37l-273 -387l273 -381l-31 -30l-549 411zM1071 944l33 -37l-273 -387l273 -381l-33 -30l-551 411z"/>
<glyph glyph-name="logicalnot" horiz-adv-x="1149" unicode="¬" d="M864 227v389h-743v164h911v-553h-168z"/>
<glyph glyph-name="registered" horiz-adv-x="1556" unicode="®" d="M768 1393q-113 0 -224 -48t-202 -137.5t-143 -206t-52 -249.5q4 -136 51 -252t133 -205.5t202 -137.5t247 -48q164 0 308 85.5t230.5 233t86.5 324.5q0 140 -52.5 258.5t-143.5 204.5t-205.5 132t-235.5 46zM768 1536q164 0 306.5 -60t250 -167.5t167.5 -252.5t60 -308 q0 -215 -105.5 -395.5t-287 -285t-391.5 -104.5q-155 0 -294 61t-246 172t-165.5 252.5t-58.5 299.5q0 211 101.5 393t277.5 288.5t385 106.5zM616 735v-291q0 -54 13.5 -67t75.5 -17v-45h-318v45q40 0 53 13t13 39v28v684q0 35 -13 48.5t-45 19.5v45h406q157 0 242 -57.5 t85 -167.5q0 -63 -38.5 -119.5t-101.5 -90t-128 -34.5v-4q74 -16 119 -74t92 -153q42 -77 59.5 -109t27.5 -46t19.5 -18t26.5 -4v-45h-71q-67 0 -97 11t-54 47t-79 147q-10 20 -26 60t-29 65.5t-33 46.5q-53 43 -156 43h-43zM616 809q74 0 117.5 2.5t81.5 11.5 q57 20 89 59.5t32 121.5q0 94 -58.5 135t-152.5 41q-47 0 -66 -2.5t-26 -14.5q-17 -11 -17 -63v-291z"/>
<glyph glyph-name="plusminus" horiz-adv-x="1149" unicode="±" d="M121 0v164h907v-164h-907zM121 731h371v281h163v-281h373v-164h-373v-278h-163v278h-371v164z"/>
<glyph glyph-name="twosuperior" horiz-adv-x="809" unicode="²" d="M209 756h287q72 0 111 10t67 38t61 89l53 -12l-71 -281h-697v76q50 56 95 99.5t79.5 71t145.5 114.5q97 72 147 147.5t50 175.5q0 83 -36 123.5t-120 40.5q-117 0 -117 -76q0 -16 4 -48t4 -48q0 -43 -34 -68t-82 -32q-56 19 -80 37.5t-29 70.5q4 8 4 21q7 45 46 91.5 t121 78.5t202 32q194 0 271 -75.5t77 -171.5q0 -84 -50.5 -151t-252.5 -181q-49 -27 -92.5 -51.5t-85 -54t-78.5 -66.5z"/>
<glyph glyph-name="threesuperior" horiz-adv-x="809" unicode="³" d="M537 1083q71 -26 125 -54.5t90 -72t36 -104.5q0 -54 -38.5 -115.5t-126.5 -105t-220 -43.5q-69 0 -158 19t-154.5 63t-65.5 110q0 42 27 67t73 25q47 0 78 -28t37 -76q3 -12 5.5 -34t5 -32.5t9.5 -21.5q25 -33 109 -33q94 0 140 50.5t46 138.5q0 91 -55.5 149.5 t-143.5 58.5h-20q-11 0 -28 -2t-27 -2q-14 0 -21.5 5.5t-11.5 14t-8 15.5q0 18 14.5 29.5t34.5 15.5q4 0 27 -4t36 -4q85 0 132.5 52t47.5 141q0 69 -29.5 106t-103.5 37q-118 0 -118 -88q0 -57 -30 -90t-75 -33q-38 1 -69 28.5t-31 61.5q0 63 80 121.5t243 58.5 q80 0 165 -21t142.5 -68.5t57.5 -121.5q-3 -82 -66 -131.5t-161 -81.5z"/>
<glyph glyph-name="acute" horiz-adv-x="688" unicode="´" d="M193 1104l114 332q20 53 35.5 81.5t45.5 47t83 18.5q109 0 109 -63q0 -17 -13 -43q-18 -37 -47.5 -81t-61.5 -89t-42 -60l-119 -164z"/>
<glyph glyph-name="mu" horiz-adv-x="1296" unicode="µ" d="M819 0v139q-198 -164 -362 -164l22 -114q8 -42 8 -70q0 -77 -47.5 -138.5t-124.5 -64.5q-86 0 -137 56.5t-57 142.5q1 16 7.5 57.5t10.5 67.5l58 213q-29 73 -29 156v340q0 72 -8 113.5t-39 71.5t-96 38v63l440 125v-747q0 -57 36 -95t99 -43q115 9 219 113v356 q0 107 -24 162t-119 66v63l440 125v-743q0 -109 24.5 -164t123.5 -62v-63h-445z"/>
<glyph glyph-name="paragraph" horiz-adv-x="1268" unicode="¶" d="M496 713v719q-96 0 -152 -48t-76 -127q-20 -80 -20 -192q4 -163 56 -257t192 -95zM877 1432h-142v-1725h142v1725zM496 -80v723q-153 0 -273 42q-119 42 -193 136t-77 240q-1 125 57 224t168 157t258 57h881v-67q-87 0 -131 -25t-54 -69q-12 -44 -12 -130v-1288 q0 -80 14 -124t56 -66t127 -23v-67h-1020v67q88 -1 131 23q44 24 56 68t12 122z"/>
<glyph glyph-name="cedilla" horiz-adv-x="756" unicode="¸" d="M412 0h75l-96 -113q92 0 152.5 -42.5t60.5 -129.5q0 -106 -89.5 -166.5t-203.5 -60.5q-34 0 -60.5 2.5t-53 12.5t-41.5 32q0 2 -9 25q4 18 12 27t23 15.5t23 10.5q24 -4 68 -35t67 -31q44 0 68 37.5t24 83.5q0 36 -15.5 64t-42.5 43t-63 20q-55 -10 -80 -22l-18 26z"/>
<glyph glyph-name="onesuperior" horiz-adv-x="809" unicode="¹" d="M516 1507v-739q0 -49 13.5 -74.5t58.5 -38.5q42 -10 121 -14v-37h-605v37q87 3 124 14.5t54 52.5t17 132v364q0 75 -51.5 113.5t-143.5 38.5v41q225 22 412 110z"/>
<glyph glyph-name="ordmasculine" horiz-adv-x="809" unicode="º" d="M408 920q84 0 115.5 86.5t31.5 193.5q0 104 -30.5 192.5t-116.5 88.5q-71 0 -100 -50t-40.5 -145.5t-15.5 -114.5q7 -74 18 -123t44 -88.5t94 -39.5zM424 860q-80 0 -152.5 27t-119.5 74q-97 95 -97 235q0 98 51.5 177t137.5 123t184 44q88 -5 163 -47t120 -116.5 t45 -168.5t-43.5 -172.5t-119.5 -124.5t-169 -51zM55 731h701v-115h-701v115z"/>
<glyph glyph-name="guillemotright" horiz-adv-x="1192" unicode="»" d="M553 944l551 -424l-551 -411l-33 30l273 381l-273 387zM121 944l551 -424l-551 -411l-29 30l273 381l-273 387z"/>
<glyph glyph-name="onequarter" horiz-adv-x="2023" unicode="¼" d="M1772 893v-617h180v-75h-180v-80q0 -48 23.5 -64t105.5 -16v-41h-490v41q92 4 114.5 19t22.5 61v80h-428v75l504 617h148zM1548 276v408l-331 -408h331zM567 0l785 1499h147l-778 -1499h-154zM524 1503v-743q0 -50 13.5 -75t58.5 -38q55 -10 121 -10v-41h-604v41 q86 3 123.5 14t54 50.5t16.5 129.5v365q0 152 -194 152v41q106 12 210 40.5t201 73.5z"/>
<glyph glyph-name="onehalf" horiz-adv-x="2023" unicode="½" d="M1372 152h289q68 0 109 11t71 40.5t64 89.5l47 -12l-72 -281h-696v72q38 45 67.5 75t69 64.5t86.5 70.5t96 74q98 73 147.5 149t49.5 179q0 164 -156 164q-51 0 -84 -19.5t-33 -60.5q0 -16 4.5 -43.5t4.5 -48.5q0 -41 -33 -71t-76 -30q-48 0 -79 32t-31 77q0 43 36 94.5 t118 88t212 36.5q194 0 271 -75.5t77 -172.5q0 -54 -14.5 -93t-81 -98t-207.5 -140q-112 -61 -155.5 -88t-100.5 -84zM520 1507v-739q0 -47 15 -75t57 -38q43 -10 125 -14v-41h-608v41q86 3 123.5 15t54 52.5t16.5 131.5v364q0 75 -50.5 113.5t-143.5 38.5v41 q225 22 411 110zM575 0l781 1499h151l-780 -1499h-152z"/>
<glyph glyph-name="threequarters" horiz-adv-x="2023" unicode="¾" d="M575 1083q114 -42 181 -92.5t67 -138.5q0 -56 -38 -117t-124 -104t-217 -43q-73 0 -162.5 19t-156 62.5t-66.5 110.5q0 41 29.5 66.5t71.5 25.5q48 0 81.5 -28.5t39.5 -75.5q2 -24 3 -38.5t3.5 -26t11.5 -23.5q25 -33 109 -33q89 0 136.5 47t47.5 129q0 53 -14 94 t-42 69.5t-68 43t-91 14.5q-14 0 -32 -2t-26 -2q-16 0 -27 10t-11 25q0 18 12.5 29.5t30.5 15.5q6 0 29 -4t38 -4q87 0 131.5 51.5t44.5 141.5q0 72 -27.5 107.5t-103.5 35.5q-52 0 -86.5 -20.5t-34.5 -67.5q0 -57 -27.5 -90t-74.5 -33q-38 1 -67 28.5t-29 61.5 q0 27 17.5 59t54.5 59t100 44.5t151 17.5q78 0 162 -21t141.5 -68.5t57.5 -121.5q0 -145 -226 -213zM600 0l784 1499h148l-780 -1499h-152zM1556 276v408l-335 -408h335zM1776 893v-617h184v-75h-184v-80q0 -48 24.5 -64t104.5 -16v-41h-486v41q89 4 111 19t22 61v80h-428 v75l504 617h148z"/>
<glyph glyph-name="questiondown" horiz-adv-x="969" unicode="¿" d="M827 823q0 -76 -55 -131t-135 -55q-76 0 -130 55t-54 131q0 79 54 134t130 55q80 0 135 -55t55 -134zM688 541v-326q-95 0 -173 -35.5t-122.5 -105t-44.5 -166.5q0 -82 28 -146.5t99 -64.5q37 0 59 24t47 71.5t40 64.5q43 43 106 43q62 0 108 -43.5t46 -100.5 q0 -94 -85 -137t-188 -43q-128 0 -246.5 59t-190 164.5t-71.5 237.5q0 133 59 234t168.5 154.5t252.5 53.5v62h108z"/>
<glyph glyph-name="Agrave" horiz-adv-x="1411" unicode="À" d="M881 1616l-105 -21l-119 164q-37 50 -69 92.5t-57.5 88t-41.5 92.5q3 63 111 63q77 0 108.5 -36t55.5 -111zM831 616l-202 656l-244 -656h446zM893 1552l328 -1073q5 -13 39.5 -133t66.5 -174q27 -55 72.5 -78t120.5 -26v-68h-719v68q91 0 127.5 20.5t36.5 67.5 q0 15 -2 28.5t-7.5 34.5t-10.5 38t-9 36l-72 231h-520l-55 -164q-28 -87 -33 -145q3 -65 45.5 -100t138.5 -47v-68h-544v68q114 35 169.5 87t102.5 177l420 1124z"/>
<glyph glyph-name="Aacute" horiz-adv-x="1411" unicode="Á" d="M553 1620l115 332q27 77 57.5 112t105.5 35q109 0 109 -63q0 -19 -12 -43q-23 -48 -152 -230l-119 -164zM831 616l-202 656l-244 -656h446zM893 1552l328 -1073q5 -13 39.5 -133t66.5 -174q27 -55 72.5 -78t120.5 -26v-68h-719v68q91 0 127.5 20.5t36.5 67.5 q0 15 -2 28.5t-7.5 34.5t-10.5 38t-9 36l-72 231h-520l-55 -164q-28 -87 -33 -145q3 -65 45.5 -100t138.5 -47v-68h-544v68q114 35 169.5 87t102.5 177l420 1124z"/>
<glyph glyph-name="Acircumflex" horiz-adv-x="1411" unicode="Â" d="M705 1901l-209 -318l-105 37l156 340q35 70 67 100.5t95 30.5q54 0 88.5 -32t58.5 -91l164 -348l-109 -37zM831 616l-202 656l-244 -656h446zM893 1552l328 -1073q5 -13 39.5 -133t66.5 -174q27 -55 72.5 -78t120.5 -26v-68h-719v68q91 0 127.5 20.5t36.5 67.5 q0 15 -2 28.5t-7.5 34.5t-10.5 38t-9 36l-72 231h-520l-55 -164q-28 -87 -33 -145q3 -65 45.5 -100t138.5 -47v-68h-544v68q114 35 169.5 87t102.5 177l420 1124z"/>
<glyph glyph-name="Atilde" horiz-adv-x="1411" unicode="Ã" d="M328 1645q29 109 95.5 197.5t164.5 88.5q44 0 100.5 -14t130 -39t109.5 -35q7 0 16.5 -2t18.5 -4q35 1 61.5 24t50.5 70h96q-18 -70 -53.5 -132.5t-90.5 -105t-124 -48.5q-48 5 -142 37.5t-137.5 45.5t-103.5 13q-65 -9 -88 -96h-104zM831 616l-202 656l-244 -656h446z M893 1552l328 -1073q5 -13 39.5 -133t66.5 -174q27 -55 72.5 -78t120.5 -26v-68h-719v68q91 0 127.5 20.5t36.5 67.5q0 15 -2 28.5t-7.5 34.5t-10.5 38t-9 36l-72 231h-520l-55 -164q-28 -87 -33 -145q3 -65 45.5 -100t138.5 -47v-68h-544v68q114 35 169.5 87t102.5 177 l420 1124z"/>
<glyph glyph-name="Adieresis" horiz-adv-x="1411" unicode="Ä" d="M784 1792q0 43 20.5 77t54.5 54.5t77 20.5q42 0 75.5 -20.5t52.5 -55.5t19 -76t-19 -76t-52.5 -55.5t-75.5 -20.5q-43 0 -77 20.5t-54.5 54.5t-20.5 77zM332 1792q0 62 44 107t107 45q43 0 78 -20.5t55.5 -54.5t20.5 -77t-20.5 -77t-55 -54.5t-78.5 -20.5q-43 0 -77.5 21 t-54 55t-19.5 76zM831 616l-202 656l-244 -656h446zM893 1552l328 -1073q5 -13 39.5 -133t66.5 -174q27 -55 72.5 -78t120.5 -26v-68h-719v68q91 0 127.5 20.5t36.5 67.5q0 15 -2 28.5t-7.5 34.5t-10.5 38t-9 36l-72 231h-520l-55 -164q-28 -87 -33 -145q3 -65 45.5 -100 t138.5 -47v-68h-544v68q114 35 169.5 87t102.5 177l420 1124z"/>
<glyph glyph-name="Aring" horiz-adv-x="1411" unicode="Å" d="M739 1624q-84 0 -144 58t-60 143q0 54 27 100.5t74.5 74.5t102.5 28q57 0 103.5 -28t73 -75t26.5 -100q0 -86 -59.5 -143.5t-143.5 -57.5zM739 1720q44 0 74.5 30.5t30.5 74.5q0 29 -14 53t-38.5 36.5t-52.5 12.5q-41 0 -72.5 -29t-31.5 -73q0 -43 32 -74t72 -31z M831 616l-202 656l-244 -656h446zM893 1552l328 -1073q5 -13 39.5 -133t66.5 -174q27 -55 72.5 -78t120.5 -26v-68h-719v68q91 0 127.5 20.5t36.5 67.5q0 15 -2 28.5t-7.5 34.5t-10.5 38t-9 36l-72 231h-520l-55 -164q-28 -87 -33 -145q3 -65 45.5 -100t138.5 -47v-68h-544 v68q114 35 169.5 87t102.5 177l420 1124z"/>
<glyph glyph-name="AE" horiz-adv-x="2224" unicode="Æ" d="M1343 1208v-403q149 0 208.5 14.5t105.5 57.5q37 32 54 71t38 101h80v-596h-80q-34 148 -125 206q-52 33 -111 41.5t-170 8.5v-357q0 -110 8 -162t44.5 -81t120.5 -29q117 0 229 42.5t210 114t185 166.5l55 -26l-151 -377h-1235v68q90 0 132.5 24t54.5 68t12 129v223 h-576l-121 -188q-42 -69 -52.5 -90t-10.5 -50q3 -63 60 -84.5t145 -31.5v-68h-557v68q68 18 113.5 46t85.5 76.5t106 149.5l551 864q7 11 19 28t24 36.5t20 41t8 38.5q0 55 -49 69.5t-123 14.5v67h1393l133 -387l-66 -25q-110 148 -269.5 240t-330.5 92q-108 0 -147 -51 q-21 -37 -21 -160zM1008 608v811h-4l-512 -811h516z"/>
<glyph glyph-name="Ccedilla" horiz-adv-x="1440" unicode="Ç" d="M801 -37l-66 -76q82 0 140 -34l111 110q-18 2 -37 4q-69 -3 -148 -4zM949 -33q-105 15 -202 63q-114 56 -204.5 155t-142 236.5t-51.5 305.5q3 148 53.5 290t142 259t220 187t280.5 73q52 0 99 -10t124 -31t109 -27q57 7 172 60l125 -453l-96 -26q-77 170 -204.5 288.5 t-293.5 118.5q-30 0 -72 -8q-91 -23 -160.5 -104.5t-107 -218.5t-37.5 -312q1 -17 1.5 -31t0.5 -39q9 -159 58 -287t126.5 -208.5t172.5 -108.5q35 -9 123 -18q246 6 432 295l57 -39q-106 -199 -264 -305q-130 -88 -461 -105zM944 -453h5q42 0 67 37.5t25 83.5q0 53 -34 87 q-30 30 -75 38q16 -33 16 -78q0 -103 -4 -165v-3zM944 -453q-4 -59 -28 -59q-124 0 -155 47q0 2 -9 25q4 19 11.5 25t23 13t23.5 15q24 -4 70 -35q41 -28 64 -31zM932 -207l-12 2q-55 -10 -80 -22l-20 26l55 54q7 -5 13 -9q30 -20 44 -51z"/>
<glyph glyph-name="Egrave" horiz-adv-x="1448" unicode="È" d="M901 1616l-104 -21l-119 164q-44 58 -73.5 98.5t-54 84t-40.5 90.5q2 63 111 63q75 0 107 -36t56 -111zM43 0v68q126 0 163.5 51t37.5 157v895v54q0 74 -12 115.5t-55 66.5t-134 25v67h1237l131 -383l-63 -24q-70 89 -164.5 163.5t-207.5 119t-237 44.5 q-99 -3 -129 -33.5t-35 -105.5q5 -29 5 -96v-375q110 0 170 7.5t110 35.5q78 57 127 197h80v-592h-80q-30 119 -98 184q-50 43 -120 57.5t-189 14.5v-406q0 -26 -5 -47q4 -61 13.5 -95t40 -57.5t92.5 -27.5q193 0 365 92.5t294 235.5l56 -27l-156 -381h-1237z"/>
<glyph glyph-name="Eacute" horiz-adv-x="1448" unicode="É" d="M573 1620l115 332q20 53 35.5 81.5t45.5 47t83 18.5q109 0 109 -63q0 -17 -13 -43q-18 -37 -47.5 -81t-61.5 -89t-42 -60l-119 -164zM43 0v68q126 0 163.5 51t37.5 157v895v54q0 74 -12 115.5t-55 66.5t-134 25v67h1237l131 -383l-63 -24q-70 89 -164.5 163.5t-207.5 119 t-237 44.5q-99 -3 -129 -33.5t-35 -105.5q5 -29 5 -96v-375q110 0 170 7.5t110 35.5q78 57 127 197h80v-592h-80q-30 119 -98 184q-50 43 -120 57.5t-189 14.5v-406q0 -26 -5 -47q4 -61 13.5 -95t40 -57.5t92.5 -27.5q193 0 365 92.5t294 235.5l56 -27l-156 -381h-1237z"/>
<glyph glyph-name="Ecircumflex" horiz-adv-x="1448" unicode="Ê" d="M721 1901l-209 -318l-104 37l155 340q35 70 67.5 100.5t94.5 30.5q55 0 89 -32.5t58 -90.5l164 -348l-108 -37zM43 0v68q126 0 163.5 51t37.5 157v895v54q0 74 -12 115.5t-55 66.5t-134 25v67h1237l131 -383l-63 -24q-70 89 -164.5 163.5t-207.5 119t-237 44.5 q-99 -3 -129 -33.5t-35 -105.5q5 -29 5 -96v-375q110 0 170 7.5t110 35.5q78 57 127 197h80v-592h-80q-30 119 -98 184q-50 43 -120 57.5t-189 14.5v-406q0 -26 -5 -47q4 -61 13.5 -95t40 -57.5t92.5 -27.5q193 0 365 92.5t294 235.5l56 -27l-156 -381h-1237z"/>
<glyph glyph-name="Edieresis" horiz-adv-x="1448" unicode="Ë" d="M805 1788q0 42 20 76.5t54.5 54.5t76.5 20q43 0 75.5 -20t52.5 -54.5t20 -76.5t-19.5 -76.5t-52 -55t-76.5 -20.5q-43 0 -77.5 21t-54 55t-19.5 76zM352 1788q0 43 21 77.5t55 54t76 19.5q43 0 77.5 -19.5t55 -54.5t20.5 -77t-20.5 -76.5t-54.5 -55t-78 -20.5 q-43 0 -77 20.5t-54.5 54.5t-20.5 77zM43 0v68q126 0 163.5 51t37.5 157v895v54q0 74 -12 115.5t-55 66.5t-134 25v67h1237l131 -383l-63 -24q-70 89 -164.5 163.5t-207.5 119t-237 44.5q-99 -3 -129 -33.5t-35 -105.5q5 -29 5 -96v-375q110 0 170 7.5t110 35.5 q78 57 127 197h80v-592h-80q-30 119 -98 184q-50 43 -120 57.5t-189 14.5v-406q0 -26 -5 -47q4 -61 13.5 -95t40 -57.5t92.5 -27.5q193 0 365 92.5t294 235.5l56 -27l-156 -381h-1237z"/>
<glyph glyph-name="Igrave" horiz-adv-x="836" unicode="Ì" d="M592 1616l-105 -21l-118 164q-44 58 -73.5 98.5t-54 84t-40.5 90.5q2 63 110 63q76 0 108 -36t56 -111zM588 260q0 -79 34 -135.5t162 -56.5v-68h-733v68q111 0 154 43.5t43 148.5l4 977q0 105 -45 150t-156 45v67h733v-67q-109 0 -152.5 -43.5t-43.5 -151.5v-321v-155 v-161v-340z"/>
<glyph glyph-name="Iacute" horiz-adv-x="836" unicode="Í" d="M348 1616l115 332q20 53 35.5 81.5t45.5 47t83 18.5q108 0 108 -63q0 -19 -12 -43q-23 -48 -152 -230l-118 -164zM588 260q0 -79 34 -135.5t162 -56.5v-68h-733v68q111 0 154 43.5t43 148.5l4 977q0 105 -45 150t-156 45v67h733v-67q-109 0 -152.5 -43.5t-43.5 -151.5 v-321v-155v-161v-340z"/>
<glyph glyph-name="Icircumflex" horiz-adv-x="836" unicode="Î" d="M418 1896l-209 -317l-105 37l156 340q35 70 67.5 100.5t94.5 30.5q55 0 89 -32.5t58 -90.5l164 -348l-108 -37zM588 260q0 -79 34 -135.5t162 -56.5v-68h-733v68q111 0 154 43.5t43 148.5l4 977q0 105 -45 150t-156 45v67h733v-67q-109 0 -152.5 -43.5t-43.5 -151.5v-321 v-155v-161v-340z"/>
<glyph glyph-name="Idieresis" horiz-adv-x="836" unicode="Ï" d="M492 1788q0 42 20 76.5t54.5 54.5t76.5 20q43 0 75.5 -20t52.5 -54.5t20 -76.5t-19.5 -76.5t-52 -55t-76.5 -20.5q-43 0 -77.5 21t-54 55t-19.5 76zM39 1788q0 42 20 76.5t54.5 54.5t76.5 20q43 0 77.5 -19.5t55.5 -54t21 -77.5t-20.5 -77t-55 -54.5t-78.5 -20.5 q-43 0 -77.5 21t-54 55t-19.5 76zM588 260q0 -79 34 -135.5t162 -56.5v-68h-733v68q111 0 154 43.5t43 148.5l4 977q0 105 -45 150t-156 45v67h733v-67q-109 0 -152.5 -43.5t-43.5 -151.5v-321v-155v-161v-340z"/>
<glyph glyph-name="Ntilde" horiz-adv-x="1632" unicode="Ñ" d="M440 1645q32 113 97 199.5t163 86.5q45 0 101.5 -14t132 -39.5t106.5 -34.5q6 0 16.5 -2t18.5 -4q36 1 62.5 24t50.5 70h96q-27 -108 -98 -193t-170 -93q-48 5 -142 37.5t-137.5 45.5t-103.5 13q-28 -4 -52 -25.5t-36 -70.5h-105zM555 1499l725 -1042v696q0 96 -13.5 151 t-61 87t-144.5 41v67h538v-67q-95 -15 -139.5 -46.5t-57.5 -83.5t-13 -149l-5 -1153h-184l-823 1167v-790q0 -122 15 -176t62 -82t158 -51v-68h-579v68q102 17 151 45t66.5 80.5t17.5 150.5v948q-88 108 -235 140v67h522z"/>
<glyph glyph-name="Ograve" horiz-adv-x="1665" unicode="Ò" d="M928 1616l-105 -21l-118 164q-44 58 -73.5 98.5t-54.5 83.5t-40 91q2 63 110 63q77 0 108.5 -36t55.5 -111zM823 43q245 6 336 260q14 38 26 95t19 119.5t10 121t3 121.5q0 147 -17.5 265t-62.5 230q-88 201 -310 201q-112 -3 -183 -53t-124 -174q-46 -121 -58.5 -233 t-12.5 -240q0 -31 -5 -56q6 -167 34 -308t110 -245t235 -104zM852 -37q-185 0 -325 55t-242 166q-97 114 -145 243t-48 316q0 106 18 201t62 184.5t121 176.5q91 106 238 168.5t317 62.5q304 0 500 -193q75 -72 124 -154t74.5 -181.5t26.5 -227.5q0 -216 -92.5 -400.5 t-257.5 -296t-371 -120.5z"/>
<glyph glyph-name="Oacute" horiz-adv-x="1665" unicode="Ó" d="M684 1616l115 332q16 49 33 79t47.5 49t83.5 19q108 0 108 -63q0 -19 -12 -43q-23 -48 -152 -230l-119 -164zM823 43q245 6 336 260q14 38 26 95t19 119.5t10 121t3 121.5q0 147 -17.5 265t-62.5 230q-88 201 -310 201q-112 -3 -183 -53t-124 -174q-46 -121 -58.5 -233 t-12.5 -240q0 -31 -5 -56q6 -167 34 -308t110 -245t235 -104zM852 -37q-185 0 -325 55t-242 166q-97 114 -145 243t-48 316q0 106 18 201t62 184.5t121 176.5q91 106 238 168.5t317 62.5q304 0 500 -193q75 -72 124 -154t74.5 -181.5t26.5 -227.5q0 -216 -92.5 -400.5 t-257.5 -296t-371 -120.5z"/>
<glyph glyph-name="Ocircumflex" horiz-adv-x="1665" unicode="Ô" d="M834 1905l-209 -318l-105 37l156 340q35 70 67 100.5t95 30.5q55 0 89 -32.5t58 -90.5l164 -348l-109 -37zM823 43q245 6 336 260q14 38 26 95t19 119.5t10 121t3 121.5q0 147 -17.5 265t-62.5 230q-88 201 -310 201q-112 -3 -183 -53t-124 -174q-46 -121 -58.5 -233 t-12.5 -240q0 -31 -5 -56q6 -167 34 -308t110 -245t235 -104zM852 -37q-185 0 -325 55t-242 166q-97 114 -145 243t-48 316q0 106 18 201t62 184.5t121 176.5q91 106 238 168.5t317 62.5q304 0 500 -193q75 -72 124 -154t74.5 -181.5t26.5 -227.5q0 -216 -92.5 -400.5 t-257.5 -296t-371 -120.5z"/>
<glyph glyph-name="Otilde" horiz-adv-x="1665" unicode="Õ" d="M457 1640q28 107 95 197t165 90q44 0 100.5 -14t130 -39t109.5 -35q7 0 16.5 -2t18.5 -4q35 1 61.5 24t50.5 70h96q-18 -70 -53.5 -132.5t-91 -105.5t-123.5 -49q-51 5 -143.5 38t-136 46t-103.5 13q-65 -9 -88 -97h-104zM823 43q245 6 336 260q14 38 26 95t19 119.5 t10 121t3 121.5q0 147 -17.5 265t-62.5 230q-88 201 -310 201q-112 -3 -183 -53t-124 -174q-46 -121 -58.5 -233t-12.5 -240q0 -31 -5 -56q6 -167 34 -308t110 -245t235 -104zM852 -37q-185 0 -325 55t-242 166q-97 114 -145 243t-48 316q0 106 18 201t62 184.5t121 176.5 q91 106 238 168.5t317 62.5q304 0 500 -193q75 -72 124 -154t74.5 -181.5t26.5 -227.5q0 -216 -92.5 -400.5t-257.5 -296t-371 -120.5z"/>
<glyph glyph-name="Odieresis" horiz-adv-x="1665" unicode="Ö" d="M907 1784q0 43 21 77.5t55 54t76 19.5q41 0 74.5 -20t53 -55t19.5 -76t-19 -76t-52.5 -55.5t-75.5 -20.5q-43 0 -77 20.5t-54.5 54.5t-20.5 77zM455 1784q0 42 20 76.5t54.5 54.5t76.5 20q43 0 77.5 -19.5t55.5 -54t21 -77.5t-20.5 -77t-55 -54.5t-78.5 -20.5 q-43 0 -77.5 21t-54 55t-19.5 76zM823 43q245 6 336 260q14 38 26 95t19 119.5t10 121t3 121.5q0 147 -17.5 265t-62.5 230q-88 201 -310 201q-112 -3 -183 -53t-124 -174q-46 -121 -58.5 -233t-12.5 -240q0 -31 -5 -56q6 -167 34 -308t110 -245t235 -104zM852 -37 q-185 0 -325 55t-242 166q-97 114 -145 243t-48 316q0 106 18 201t62 184.5t121 176.5q91 106 238 168.5t317 62.5q304 0 500 -193q75 -72 124 -154t74.5 -181.5t26.5 -227.5q0 -216 -92.5 -400.5t-257.5 -296t-371 -120.5z"/>
<glyph glyph-name="Oslash" horiz-adv-x="1667" unicode="Ø" d="M541 215q62 -103 126.5 -137.5t168.5 -34.5q169 0 260.5 132.5t115.5 404.5q5 57 5 184q0 207 -37 377zM492 336l645 924q-34 64 -74 106t-98 66t-138 24q-113 0 -195 -73.5t-126 -199t-53 -284.5q0 -52 -9 -156q8 -254 48 -407zM344 129q-56 45 -102.5 107.5t-77 131.5 t-49.5 149t-23 159q0 16 -0.5 26t-1.5 21q0 150 47 296.5t140 263t229 184.5t309 69q81 0 154 -8.5t142.5 -31.5t139.5 -64l113 155l88 -59l-117 -164q111 -99 170 -233.5t68 -290.5q2 -23 2 -70q0 -153 -47.5 -296.5t-140.5 -256t-230 -180t-309 -74.5q-114 0 -205 19.5 t-211 85.5l-113 -164l-88 59z"/>
<glyph glyph-name="Ugrave" horiz-adv-x="1608" unicode="Ù" d="M989 1620l-104 -21l-119 164q-44 58 -73.5 98.5t-54 84t-40.5 90.5q2 63 111 63q75 0 107 -36t56 -111zM559 1251v-735q0 -111 12.5 -187t49.5 -145q67 -141 272 -141q103 0 181 28.5t130 100.5q80 114 80 344v735q0 72 -18.5 111.5t-61.5 54.5t-117 15v67h504v-67 q-75 0 -117.5 -15t-61.5 -54t-19 -112v-751q0 -255 -117 -383q-76 -85 -176.5 -118t-239.5 -36q-117 0 -237.5 24t-198.5 72q-100 70 -150.5 166t-50.5 232v794q0 107 -41 144t-153 37v67h731v-67q-113 0 -157 -37t-44 -144z"/>
<glyph glyph-name="Uacute" horiz-adv-x="1608" unicode="Ú" d="M748 1616l114 332q20 53 35.5 81.5t45.5 47t83 18.5q109 0 109 -63q0 -17 -13 -43q-18 -37 -47.5 -81t-61.5 -89t-42 -60l-119 -164zM559 1251v-735q0 -111 12.5 -187t49.5 -145q67 -141 272 -141q103 0 181 28.5t130 100.5q80 114 80 344v735q0 72 -18.5 111.5 t-61.5 54.5t-117 15v67h504v-67q-75 0 -117.5 -15t-61.5 -54t-19 -112v-751q0 -255 -117 -383q-76 -85 -176.5 -118t-239.5 -36q-117 0 -237.5 24t-198.5 72q-100 70 -150.5 166t-50.5 232v794q0 107 -41 144t-153 37v67h731v-67q-113 0 -157 -37t-44 -144z"/>
<glyph glyph-name="Ucircumflex" horiz-adv-x="1608" unicode="Û" d="M805 1901l-209 -318l-104 37l155 340q35 70 67.5 100.5t94.5 30.5q55 0 89 -32.5t58 -90.5l164 -348l-108 -37zM559 1251v-735q0 -111 12.5 -187t49.5 -145q67 -141 272 -141q103 0 181 28.5t130 100.5q80 114 80 344v735q0 72 -18.5 111.5t-61.5 54.5t-117 15v67h504 v-67q-75 0 -117.5 -15t-61.5 -54t-19 -112v-751q0 -255 -117 -383q-76 -85 -176.5 -118t-239.5 -36q-117 0 -237.5 24t-198.5 72q-100 70 -150.5 166t-50.5 232v794q0 107 -41 144t-153 37v67h731v-67q-113 0 -157 -37t-44 -144z"/>
<glyph glyph-name="Udieresis" horiz-adv-x="1608" unicode="Ü" d="M885 1788q0 42 20 76.5t54.5 54.5t76.5 20q43 0 75.5 -20t52.5 -54.5t20 -76.5t-19.5 -76.5t-52 -55t-76.5 -20.5q-43 0 -77.5 21t-54 55t-19.5 76zM432 1788q0 43 21 77.5t55 54t76 19.5q43 0 77.5 -19.5t55 -54.5t20.5 -77t-20.5 -76.5t-54.5 -55t-78 -20.5 q-43 0 -77 20.5t-54.5 54.5t-20.5 77zM559 1251v-735q0 -111 12.5 -187t49.5 -145q67 -141 272 -141q103 0 181 28.5t130 100.5q80 114 80 344v735q0 72 -18.5 111.5t-61.5 54.5t-117 15v67h504v-67q-75 0 -117.5 -15t-61.5 -54t-19 -112v-751q0 -255 -117 -383 q-76 -85 -176.5 -118t-239.5 -36q-117 0 -237.5 24t-198.5 72q-100 70 -150.5 166t-50.5 232v794q0 107 -41 144t-153 37v67h731v-67q-113 0 -157 -37t-44 -144z"/>
<glyph glyph-name="germandbls" horiz-adv-x="1200" unicode="ß" d="M-8 63q58 0 88 19.5t39.5 58t9.5 103.5v800q0 111 31.5 200.5t96 154.5t164.5 101t230 36q192 0 287.5 -60.5t105.5 -162.5q0 -97 -32.5 -149.5t-118.5 -123.5q-66 -50 -66 -96q0 -35 54 -100q16 -22 92.5 -115t121 -156.5t75 -140t30.5 -156.5q-6 -138 -111.5 -219.5 t-257.5 -81.5q-63 0 -138.5 28t-130 85t-54.5 139q0 73 33.5 113.5t87.5 40.5q59 0 95 -37t36 -96q0 -16 -6 -51t-6 -54q0 -79 92 -92q54 9 88 43t37 90q0 62 -51.5 141.5t-155.5 212.5t-154 214q-28 50 -33 84q4 12 4 20q3 38 23.5 59t69 56.5t80.5 68.5q31 34 47 82t16 99 q0 93 -53.5 164t-145.5 71q-81 0 -122.5 -53t-54.5 -128t-15 -155q4 -24 4 -71v-1049h-432v63z"/>
<glyph glyph-name="agrave" horiz-adv-x="1092" unicode="à" d="M721 1104l-105 -21l-118 164q-44 58 -73.5 98.5t-54 84t-40.5 90.5q2 63 110 63q76 0 108 -36t56 -111zM680 545q-144 -18 -242 -86t-98 -199q0 -75 39 -118t100 -46q118 7 201 117v332zM680 100q-71 -59 -161.5 -92t-190.5 -33q-83 0 -149 27.5t-106 84.5t-40 144 q0 200 274 310q160 62 373 92v110q0 50 -11.5 96.5t-42 75.5t-81.5 29q-60 0 -90.5 -36t-61 -108.5t-62 -112.5t-91.5 -44q-59 10 -92.5 37t-38.5 84q10 95 87 150.5t179 76.5t205 21q225 -3 311 -83t86 -229v-460q0 -57 10.5 -84.5t52.5 -34.5q35 7 56 14l16 -39 q-40 -53 -102.5 -87t-124.5 -34t-115 33t-90 92z"/>
<glyph glyph-name="aacute" horiz-adv-x="1092" unicode="á" d="M457 1104l114 332q29 79 59 113t105 34q109 0 109 -63q0 -20 -13 -43q-13 -29 -41 -71.5t-51.5 -76t-58.5 -82.5l-119 -164zM680 545q-144 -18 -242 -86t-98 -199q0 -75 39 -118t100 -46q118 7 201 117v332zM680 100q-71 -59 -161.5 -92t-190.5 -33q-83 0 -149 27.5 t-106 84.5t-40 144q0 200 274 310q160 62 373 92v110q0 50 -11.5 96.5t-42 75.5t-81.5 29q-60 0 -90.5 -36t-61 -108.5t-62 -112.5t-91.5 -44q-59 10 -92.5 37t-38.5 84q10 95 87 150.5t179 76.5t205 21q225 -3 311 -83t86 -229v-460q0 -57 10.5 -84.5t52.5 -34.5 q35 7 56 14l16 -39q-40 -53 -102.5 -87t-124.5 -34t-115 33t-90 92z"/>
<glyph glyph-name="acircumflex" horiz-adv-x="1092" unicode="â" d="M545 1389l-209 -318l-105 37l156 340q35 70 67.5 100.5t94.5 30.5q55 0 89 -32.5t58 -90.5l164 -348l-108 -37zM680 545q-144 -18 -242 -86t-98 -199q0 -75 39 -118t100 -46q118 7 201 117v332zM680 100q-71 -59 -161.5 -92t-190.5 -33q-83 0 -149 27.5t-106 84.5 t-40 144q0 200 274 310q160 62 373 92v110q0 50 -11.5 96.5t-42 75.5t-81.5 29q-60 0 -90.5 -36t-61 -108.5t-62 -112.5t-91.5 -44q-59 10 -92.5 37t-38.5 84q10 95 87 150.5t179 76.5t205 21q225 -3 311 -83t86 -229v-460q0 -57 10.5 -84.5t52.5 -34.5q35 7 56 14l16 -39 q-40 -53 -102.5 -87t-124.5 -34t-115 33t-90 92z"/>
<glyph glyph-name="atilde" horiz-adv-x="1092" unicode="ã" d="M129 1128q31 111 96.5 199t163.5 88q45 0 101.5 -14t132 -39.5t106.5 -34.5q7 0 16.5 -2t18.5 -4q36 1 62.5 24t50.5 70h96q-27 -108 -98 -192.5t-170 -94.5q-51 5 -143.5 38t-136 46t-103.5 13q-66 -9 -89 -97h-104zM680 545q-144 -18 -242 -86t-98 -199q0 -75 39 -118 t100 -46q118 7 201 117v332zM680 100q-71 -59 -161.5 -92t-190.5 -33q-83 0 -149 27.5t-106 84.5t-40 144q0 200 274 310q160 62 373 92v110q0 50 -11.5 96.5t-42 75.5t-81.5 29q-60 0 -90.5 -36t-61 -108.5t-62 -112.5t-91.5 -44q-59 10 -92.5 37t-38.5 84q10 95 87 150.5 t179 76.5t205 21q225 -3 311 -83t86 -229v-460q0 -57 10.5 -84.5t52.5 -34.5q35 7 56 14l16 -39q-40 -53 -102.5 -87t-124.5 -34t-115 33t-90 92z"/>
<glyph glyph-name="adieresis" horiz-adv-x="1092" unicode="ä" d="M625 1276q0 42 20 76.5t54.5 54.5t76.5 20q43 0 75.5 -20t52.5 -54.5t20 -76.5t-19.5 -76.5t-52 -55t-76.5 -20.5q-43 0 -77.5 21t-54 55t-19.5 76zM172 1276q0 43 21 77.5t55 54t76 19.5q43 0 77.5 -19.5t55 -54.5t20.5 -77t-20.5 -76.5t-54.5 -55t-78 -20.5 q-43 0 -77 20.5t-54.5 54.5t-20.5 77zM680 545q-144 -18 -242 -86t-98 -199q0 -75 39 -118t100 -46q118 7 201 117v332zM680 100q-71 -59 -161.5 -92t-190.5 -33q-83 0 -149 27.5t-106 84.5t-40 144q0 200 274 310q160 62 373 92v110q0 50 -11.5 96.5t-42 75.5t-81.5 29 q-60 0 -90.5 -36t-61 -108.5t-62 -112.5t-91.5 -44q-59 10 -92.5 37t-38.5 84q10 95 87 150.5t179 76.5t205 21q225 -3 311 -83t86 -229v-460q0 -57 10.5 -84.5t52.5 -34.5q35 7 56 14l16 -39q-40 -53 -102.5 -87t-124.5 -34t-115 33t-90 92z"/>
<glyph glyph-name="aring" horiz-adv-x="1092" unicode="å" d="M549 1112q-55 0 -102.5 26.5t-75 73t-27.5 101.5q0 54 27 100.5t74.5 74.5t103.5 28q57 0 103.5 -28t73 -75t26.5 -100q0 -86 -59.5 -143.5t-143.5 -57.5zM549 1208q45 0 74.5 30.5t29.5 74.5q0 29 -13.5 52.5t-37.5 36.5t-53 13q-42 0 -73.5 -29.5t-31.5 -72.5 q0 -42 31.5 -73.5t73.5 -31.5zM680 545q-144 -18 -242 -86t-98 -199q0 -75 39 -118t100 -46q118 7 201 117v332zM680 100q-71 -59 -161.5 -92t-190.5 -33q-83 0 -149 27.5t-106 84.5t-40 144q0 200 274 310q160 62 373 92v110q0 50 -11.5 96.5t-42 75.5t-81.5 29 q-60 0 -90.5 -36t-61 -108.5t-62 -112.5t-91.5 -44q-59 10 -92.5 37t-38.5 84q10 95 87 150.5t179 76.5t205 21q225 -3 311 -83t86 -229v-460q0 -57 10.5 -84.5t52.5 -34.5q35 7 56 14l16 -39q-40 -53 -102.5 -87t-124.5 -34t-115 33t-90 92z"/>
<glyph glyph-name="ae" horiz-adv-x="1692" unicode="æ" d="M961 596h428q-4 138 -42 233t-151 95q-119 0 -173.5 -97.5t-61.5 -230.5zM680 516q-86 -12 -165 -46.5t-131 -97t-52 -149.5q0 -131 143 -139q17 4 41 4q101 13 211 113q-47 117 -51 256q4 22 4 59zM772 129q-79 -66 -173 -108t-218 -46q-152 0 -246.5 47t-97.5 183 q2 2 3 4.5t1 3.5q0 113 61.5 185t157.5 111t185 54.5t235 32.5v143q0 78 -32 135.5t-103 57.5q-60 0 -89.5 -32.5t-57 -101t-52 -105.5t-78.5 -50q-15 0 -41 -6q-51 5 -81.5 35.5t-36.5 83.5q4 12 4 28q6 76 86 132t217 79q77 13 164 13q222 0 305 -105q125 105 295 105 q237 0 368 -168q99 -136 105 -332h-692q0 -147 68.5 -250.5t166.5 -136.5q68 -20 121 -25q55 1 106 20t98 53.5t83 78.5l53 -47q-95 -108 -201 -160t-231 -66q-19 -2 -54 -2q-123 0 -228 40t-171 116z"/>
<glyph glyph-name="ccedilla" horiz-adv-x="1057" unicode="ç" d="M625 -20l-80 -93q90 0 150.5 -42.5t60.5 -129.5q0 -102 -93.5 -164.5t-201.5 -62.5q-126 0 -158 47q0 2 -0.5 4.5l-1 5t-2 7t-2.5 8.5q3 20 10.5 28.5t22 14.5t22.5 10q22 -4 68 -35t67 -31q45 0 69 37.5t24 83.5q0 36 -15.5 64t-41.5 43t-62 20q-53 -10 -76 -22l-20 26 l172 176q-140 3 -247 71.5t-164.5 186t-57.5 259.5q10 144 86.5 263.5t199.5 188t267 68.5q54 0 117.5 -11t121.5 -35t98 -65.5t46 -99.5q0 -76 -43 -117t-105 -43q-8 2 -20 2q-56 4 -79 39t-44.5 107t-49.5 107.5t-92 35.5q-187 0 -198 -357q4 -20 4 -63q7 -123 43 -210 t91 -136.5t122 -61.5q7 -2 26 -4t29 -4q160 6 299 197l53 -41q-74 -112 -184 -183t-231 -89z"/>
<glyph glyph-name="egrave" horiz-adv-x="1096" unicode="è" d="M725 1104l-104 -21l-119 164q-44 58 -73.5 98.5t-54 84t-40.5 90.5q2 63 110 63q76 0 108 -36t56 -111zM356 588h432q0 336 -213 336q-112 -8 -163.5 -108t-55.5 -228zM360 500q0 -103 42.5 -194t120.5 -147.5t182 -62.5q163 7 303 152l49 -43q-101 -119 -215.5 -172 t-245.5 -53q-142 0 -264 60t-195.5 175t-73.5 268q9 146 75.5 267t179.5 191.5t253 70.5q145 0 254.5 -68.5t166.5 -185.5t57 -258h-689z"/>
<glyph glyph-name="eacute" horiz-adv-x="1096" unicode="é" d="M461 1104l114 332q29 79 59 113t105 34q109 0 109 -63q0 -19 -12 -43q-23 -48 -152 -230l-119 -164zM356 588h432q0 336 -213 336q-112 -8 -163.5 -108t-55.5 -228zM360 500q0 -103 42.5 -194t120.5 -147.5t182 -62.5q163 7 303 152l49 -43q-101 -119 -215.5 -172 t-245.5 -53q-142 0 -264 60t-195.5 175t-73.5 268q9 146 75.5 267t179.5 191.5t253 70.5q145 0 254.5 -68.5t166.5 -185.5t57 -258h-689z"/>
<glyph glyph-name="ecircumflex" horiz-adv-x="1096" unicode="ê" d="M545 1389l-209 -318l-105 37l156 340q35 70 67.5 100.5t94.5 30.5q55 0 89 -32.5t58 -90.5l164 -348l-108 -37zM356 588h432q0 336 -213 336q-112 -8 -163.5 -108t-55.5 -228zM360 500q0 -103 42.5 -194t120.5 -147.5t182 -62.5q163 7 303 152l49 -43 q-101 -119 -215.5 -172t-245.5 -53q-142 0 -264 60t-195.5 175t-73.5 268q9 146 75.5 267t179.5 191.5t253 70.5q145 0 254.5 -68.5t166.5 -185.5t57 -258h-689z"/>
<glyph glyph-name="edieresis" horiz-adv-x="1096" unicode="ë" d="M625 1276q0 42 20 76.5t54.5 54.5t76.5 20q43 0 75.5 -20t52.5 -54.5t20 -76.5t-19.5 -76.5t-52 -55t-76.5 -20.5q-43 0 -77.5 21t-54 55t-19.5 76zM172 1276q0 43 21 77.5t55 54t76 19.5q43 0 77.5 -19.5t55 -54.5t20.5 -77t-20.5 -76.5t-54.5 -55t-78 -20.5 q-43 0 -77 20.5t-54.5 54.5t-20.5 77zM356 588h432q0 336 -213 336q-112 -8 -163.5 -108t-55.5 -228zM360 500q0 -103 42.5 -194t120.5 -147.5t182 -62.5q163 7 303 152l49 -43q-101 -119 -215.5 -172t-245.5 -53q-142 0 -264 60t-195.5 175t-73.5 268q9 146 75.5 267 t179.5 191.5t253 70.5q145 0 254.5 -68.5t166.5 -185.5t57 -258h-689z"/>
<glyph glyph-name="igrave" horiz-adv-x="633" unicode="ì" d="M487 1108l-104 -21l-119 164q-37 50 -69 92.5t-57.5 88t-41.5 92.5q2 63 111 63q75 0 107.5 -36t56.5 -111zM604 0h-563v63q79 0 107 38t28 155v369q0 100 -26.5 154t-116.5 65v63l438 125v-809q0 -95 31 -127.5t102 -32.5v-63z"/>
<glyph glyph-name="iacute" horiz-adv-x="633" unicode="í" d="M168 1104l115 332q27 77 57.5 112t105.5 35q109 0 109 -63q0 -19 -12 -43q-23 -48 -152 -230l-119 -164zM604 0h-563v63q79 0 107 38t28 155v369q0 100 -26.5 154t-116.5 65v63l438 125v-809q0 -95 31 -127.5t102 -32.5v-63z"/>
<glyph glyph-name="icircumflex" horiz-adv-x="633" unicode="î" d="M313 1389l-209 -318l-104 37l156 340q35 70 67 100.5t94 30.5q55 0 89.5 -32t58.5 -91l164 -348l-109 -37zM604 0h-563v63q79 0 107 38t28 155v369q0 100 -26.5 154t-116.5 65v63l438 125v-809q0 -95 31 -127.5t102 -32.5v-63z"/>
<glyph glyph-name="idieresis" horiz-adv-x="633" unicode="ï" d="M391 1276q0 43 21 77.5t55 54t76 19.5q41 0 74.5 -20t53 -55t19.5 -76t-19 -76t-52.5 -55.5t-75.5 -20.5q-43 0 -77 20.5t-54.5 54.5t-20.5 77zM-61 1276q0 42 20 76.5t54.5 54.5t76.5 20q43 0 77.5 -19.5t55.5 -54t21 -77.5t-20.5 -77t-55 -54.5t-78.5 -20.5 q-43 0 -77.5 21t-54 55t-19.5 76zM604 0h-563v63q79 0 107 38t28 155v369q0 100 -26.5 154t-116.5 65v63l438 125v-809q0 -95 31 -127.5t102 -32.5v-63z"/>
<glyph glyph-name="ntilde" horiz-adv-x="1264" unicode="ñ" d="M193 1133q29 109 95.5 197.5t164.5 88.5q44 0 100.5 -14t130 -39t109.5 -35q7 0 16.5 -2t17.5 -4q36 1 62.5 24t50.5 70h96q-18 -71 -53.5 -133t-91 -104.5t-123.5 -48.5q-48 5 -142 37.5t-137.5 45.5t-103.5 13q-28 -4 -52 -25.5t-36 -70.5h-104zM469 731v-543 q0 -125 127 -125v-63h-559v63q55 0 83 16t40 57.5t12 123.5v381q0 58 -13 100.5t-45 69.5t-89 33v63l444 125v-188q93 76 178 122t172 46q59 0 112.5 -24t94 -66t63.5 -93t27 -108v-494q0 -63 10 -96.5t37.5 -49t83.5 -18.5v-63h-563v63q56 0 85 16.5t39.5 57.5t10.5 127 v357q0 54 -14.5 103t-50 80.5t-90.5 31.5t-108 -29t-87 -76z"/>
<glyph glyph-name="ograve" horiz-adv-x="1163" unicode="ò" d="M760 1104l-105 -21l-118 164q-44 58 -73.5 98.5t-54.5 83.5t-40 91q2 63 110 63q77 0 108.5 -36t55.5 -111zM592 55q130 0 188 172q35 106 35 269q0 97 -11.5 172.5t-39.5 136.5q-51 127 -176 127q-134 -5 -180.5 -130.5t-55.5 -305.5q0 -170 50 -305.5t190 -135.5z M612 -25q-156 0 -283.5 67t-200.5 184t-73 261q3 114 47.5 210t124 167.5t181.5 109.5t213 38q136 0 248.5 -68.5t177.5 -184.5t65 -251q-3 -110 -40 -210.5t-116 -176.5q-67 -67 -152.5 -102.5t-191.5 -43.5z"/>
<glyph glyph-name="oacute" horiz-adv-x="1163" unicode="ó" d="M453 1112l114 332q29 79 59 113t105 34q109 0 109 -63q0 -20 -13 -43q-13 -29 -41 -71.5t-51.5 -76t-58.5 -82.5l-119 -163zM592 55q130 0 188 172q35 106 35 269q0 97 -11.5 172.5t-39.5 136.5q-51 127 -176 127q-134 -5 -180.5 -130.5t-55.5 -305.5q0 -170 50 -305.5 t190 -135.5zM612 -25q-156 0 -283.5 67t-200.5 184t-73 261q3 114 47.5 210t124 167.5t181.5 109.5t213 38q136 0 248.5 -68.5t177.5 -184.5t65 -251q-3 -110 -40 -210.5t-116 -176.5q-67 -67 -152.5 -102.5t-191.5 -43.5z"/>
<glyph glyph-name="ocircumflex" horiz-adv-x="1163" unicode="ô" d="M578 1393l-209 -318l-105 37l156 340q35 70 67 100.5t95 30.5q55 0 89 -32.5t58 -90.5l164 -348l-109 -37zM592 55q130 0 188 172q35 106 35 269q0 97 -11.5 172.5t-39.5 136.5q-51 127 -176 127q-134 -5 -180.5 -130.5t-55.5 -305.5q0 -170 50 -305.5t190 -135.5z M612 -25q-156 0 -283.5 67t-200.5 184t-73 261q3 114 47.5 210t124 167.5t181.5 109.5t213 38q136 0 248.5 -68.5t177.5 -184.5t65 -251q-3 -110 -40 -210.5t-116 -176.5q-67 -67 -152.5 -102.5t-191.5 -43.5z"/>
<glyph glyph-name="otilde" horiz-adv-x="1163" unicode="õ" d="M168 1133q32 113 97 199.5t163 86.5q45 0 100.5 -13.5t127 -38.5t112.5 -36q7 0 16.5 -2t18.5 -4q36 1 62 24t50 70h97q-27 -108 -98 -193t-171 -93q-47 5 -138 36.5t-138 45.5t-107 14q-65 -9 -88 -96h-104zM592 55q130 0 188 172q35 106 35 269q0 97 -11.5 172.5 t-39.5 136.5q-51 127 -176 127q-134 -5 -180.5 -130.5t-55.5 -305.5q0 -170 50 -305.5t190 -135.5zM612 -25q-156 0 -283.5 67t-200.5 184t-73 261q3 114 47.5 210t124 167.5t181.5 109.5t213 38q136 0 248.5 -68.5t177.5 -184.5t65 -251q-3 -110 -40 -210.5t-116 -176.5 q-67 -67 -152.5 -102.5t-191.5 -43.5z"/>
<glyph glyph-name="odieresis" horiz-adv-x="1163" unicode="ö" d="M659 1280q0 43 20.5 77t54.5 54.5t77 20.5q42 0 75.5 -20.5t52.5 -55.5t19 -76t-19 -76t-52.5 -55.5t-75.5 -20.5q-43 0 -77 20.5t-54.5 54.5t-20.5 77zM207 1280q0 62 44 107t107 45q43 0 78 -20.5t55.5 -54.5t20.5 -77t-20.5 -77t-55 -54.5t-78.5 -20.5q-43 0 -77.5 21 t-54 55t-19.5 76zM592 55q130 0 188 172q35 106 35 269q0 97 -11.5 172.5t-39.5 136.5q-51 127 -176 127q-134 -5 -180.5 -130.5t-55.5 -305.5q0 -170 50 -305.5t190 -135.5zM612 -25q-156 0 -283.5 67t-200.5 184t-73 261q3 114 47.5 210t124 167.5t181.5 109.5t213 38 q136 0 248.5 -68.5t177.5 -184.5t65 -251q-3 -110 -40 -210.5t-116 -176.5q-67 -67 -152.5 -102.5t-191.5 -43.5z"/>
<glyph glyph-name="oslash" horiz-adv-x="1163" unicode="ø" d="M416 160q30 -51 69.5 -78t102.5 -27q135 0 181 130t46 298q0 86 -18 226zM385 260l383 559q-58 113 -164 113q-80 0 -128.5 -44.5t-70 -109t-31.5 -146t-18 -157.5q4 -71 29 -215zM252 80q-82 62 -131.5 162t-52.5 207q0 154 68 281.5t187 202.5t261 79q142 0 272 -60 l80 115l76 -55l-76 -105q164 -140 176 -336q0 -170 -66.5 -305t-187.5 -213t-278 -78q-114 0 -252 62l-76 -113l-72 51z"/>
<glyph glyph-name="ugrave" horiz-adv-x="1296" unicode="ù" d="M823 1104l-104 -21l-119 164q-37 50 -69 92.5t-57.5 88t-41.5 92.5q2 63 111 63q75 0 107.5 -36t56.5 -111zM819 0v139q-80 -77 -180.5 -120.5t-194.5 -43.5q-76 0 -139.5 34t-100 103.5t-36.5 168.5v340q0 72 -8 113.5t-39 71.5t-96 38v63l440 125v-725 q0 -71 24.5 -108.5t90.5 -46.5q16 0 24 -5q111 9 215 113v356q0 107 -24 162t-119 66v63l440 125v-743q0 -109 24.5 -164t123.5 -62v-63h-445z"/>
<glyph glyph-name="uacute" horiz-adv-x="1296" unicode="ú" d="M580 1108l114 332q29 79 59 113t105 34q109 0 109 -63q0 -20 -13 -43q-13 -29 -41 -71.5t-64 -93t-46 -65.5l-119 -164zM819 0v139q-80 -77 -180.5 -120.5t-194.5 -43.5q-76 0 -139.5 34t-100 103.5t-36.5 168.5v340q0 72 -8 113.5t-39 71.5t-96 38v63l440 125v-725 q0 -71 24.5 -108.5t90.5 -46.5q16 0 24 -5q111 9 215 113v356q0 107 -24 162t-119 66v63l440 125v-743q0 -109 24.5 -164t123.5 -62v-63h-445z"/>
<glyph glyph-name="ucircumflex" horiz-adv-x="1296" unicode="û" d="M649 1389l-209 -318l-104 37l156 340q32 69 65.5 100t95.5 31q55 0 89.5 -32t58.5 -91l164 -348l-109 -37zM819 0v139q-80 -77 -180.5 -120.5t-194.5 -43.5q-76 0 -139.5 34t-100 103.5t-36.5 168.5v340q0 72 -8 113.5t-39 71.5t-96 38v63l440 125v-725 q0 -71 24.5 -108.5t90.5 -46.5q16 0 24 -5q111 9 215 113v356q0 107 -24 162t-119 66v63l440 125v-743q0 -109 24.5 -164t123.5 -62v-63h-445z"/>
<glyph glyph-name="udieresis" horiz-adv-x="1296" unicode="ü" d="M725 1276q0 43 21 77.5t55 54t76 19.5q41 0 74.5 -20t53 -55t19.5 -76t-19 -76t-52.5 -55.5t-75.5 -20.5q-43 0 -77 20.5t-54.5 54.5t-20.5 77zM272 1276q0 43 21 77.5t55 54t76 19.5q43 0 77.5 -19.5t55.5 -54t21 -77.5t-20.5 -77t-55 -54.5t-78.5 -20.5q-43 0 -77 20.5 t-54.5 54.5t-20.5 77zM819 0v139q-80 -77 -180.5 -120.5t-194.5 -43.5q-76 0 -139.5 34t-100 103.5t-36.5 168.5v340q0 72 -8 113.5t-39 71.5t-96 38v63l440 125v-725q0 -71 24.5 -108.5t90.5 -46.5q16 0 24 -5q111 9 215 113v356q0 107 -24 162t-119 66v63l440 125v-743 q0 -109 24.5 -164t123.5 -62v-63h-445z"/>
<glyph glyph-name="ydieresis" horiz-adv-x="1008" unicode="ÿ" d="M584 1280q0 62 44 107t107 45q43 0 76 -20.5t52.5 -55t19.5 -76.5t-19.5 -76.5t-52 -55t-76.5 -20.5q-43 0 -77.5 21t-54 55t-19.5 76zM131 1280q0 43 20.5 77t54.5 54.5t77 20.5q63 0 108 -45t45 -107q0 -42 -20.5 -76.5t-54.5 -55t-78 -20.5q-43 0 -77 20.5t-54.5 54.5 t-20.5 77zM449 4l-369 780q-31 76 -62.5 106.5t-93.5 33.5v63h541v-63q-86 -5 -92 -80q8 -56 35 -109l184 -391l168 365q24 51 24 100q0 101 -137 115v63h432v-63q-77 -16 -122.5 -64.5t-71.5 -107.5l-361 -799q-148 -338 -385 -338q-70 0 -125 39t-55 106q0 57 40 95t97 41 q13 -5 33 -5q22 -4 38 -17t36.5 -35.5t40 -35t41.5 -12.5t45.5 20t38.5 42q38 46 80 151z"/>
<glyph glyph-name="Gbreve" horiz-adv-x="1599" unicode="Ğ" d="M406 2023l83 48q148 -153 336 -160q200 6 340 160l80 -48q-32 -93 -96.5 -162.5t-150 -107.5t-173.5 -39q-129 3 -242.5 82t-176.5 227zM889 672h694l4 -80q-78 -6 -119 -28.5t-54 -59t-13 -101.5v-340q-19 3 -53 3q-69 0 -121 -12.5t-138 -39.5t-148 -39t-140 -12 q-85 0 -166 17t-159 52t-144 89q-54 45 -99 103.5t-77 130t-50 155t-18 182.5q0 203 93 399t262.5 320.5t383.5 124.5q47 0 90 -9t91 -24.5t75 -21.5q17 0 29 -4q91 9 176 59l127 -432l-72 -25q-65 87 -116.5 149t-110.5 113.5t-130 83t-150 31.5q-168 -6 -271.5 -171 t-115.5 -425q0 -67 -5 -104q5 -192 30.5 -331t84.5 -228q86 -138 229 -154q27 0 43 -2q88 2 148 37.5t86 109.5q27 84 27 203v58q-6 82 -45.5 109.5t-153.5 33.5z"/>
<glyph glyph-name="gbreve" horiz-adv-x="1057" unicode="ğ" d="M119 1511l84 48q146 -153 336 -160q198 6 340 160l79 -48q-22 -67 -65 -124.5t-101.5 -99.5t-121.5 -62.5t-131 -22.5q-131 3 -244 81.5t-176 227.5zM377 315q-62 -30 -62 -55q0 -48 76 -59q112 -17 164 -21q116 -11 205.5 -21t159 -30.5t119.5 -67t61 -124.5 q0 -71 -23 -124t-64 -89.5t-102 -63.5q-157 -68 -440 -68q-191 0 -314 34t-157 165q3 56 52.5 102.5t148.5 73.5q-79 40 -115 77.5t-39 94.5q8 34 8 45q10 43 58 81.5t151 86.5q-78 33 -127 79t-71.5 99t-24.5 113q4 114 75 198.5t179 127.5t225 43q87 0 201 -31 q40 82 106.5 139t141.5 60q61 0 96 -36t35 -87q0 -54 -31.5 -80.5t-87.5 -40.5q-16 1 -38.5 8t-39 14.5t-31.5 14.5h-24q-22 0 -43 -25q94 -57 140 -132t46 -157q0 -114 -71 -195.5t-181 -123t-223 -43.5q-55 2 -139 18zM336 651q15 -270 192 -270q85 0 137 71t52 189 q0 105 -49 198t-152 93q-89 -8 -134.5 -93.5t-45.5 -187.5zM311 -55q-64 -47 -75 -113q0 -12 -5 -20q6 -66 55 -100t111 -43t135 -9q164 0 244 41q72 30 72 98q0 47 -37 63t-102 25z"/>
<glyph glyph-name="Idotaccent" horiz-adv-x="836" unicode="İ" d="M266 1788q0 43 21 77.5t55 54t76 19.5q43 0 77.5 -19.5t55 -54.5t20.5 -77t-20.5 -76.5t-54.5 -55t-78 -20.5q-43 0 -77 20.5t-54.5 54.5t-20.5 77zM588 260q0 -79 34 -135.5t162 -56.5v-68h-733v68q111 0 154 43.5t43 148.5l4 977q0 105 -45 150t-156 45v67h733v-67 q-109 0 -152.5 -43.5t-43.5 -151.5v-321v-155v-161v-340z"/>
<glyph glyph-name="dotlessi" horiz-adv-x="633" unicode="ı" d="M604 0h-563v63q79 0 107 38t28 155v369q0 100 -26.5 154t-116.5 65v63l438 125v-809q0 -95 31 -127.5t102 -32.5v-63z"/>
<glyph glyph-name="OE" horiz-adv-x="2329" unicode="Œ" d="M1108 420v776v33q0 91 -29 139q-45 88 -248 88q-159 -6 -245.5 -118.5t-116 -265.5t-29.5 -320q0 -332 80 -508q34 -74 81 -119t100 -63.5t108 -18.5q209 0 266 113q33 67 33 264zM2296 381l-148 -381h-944q-60 0 -130.5 -9t-141 -18.5t-131.5 -9.5q-113 0 -215.5 28.5 t-184 82t-145.5 131.5q-85 103 -128.5 237t-43.5 289q0 122 30.5 239.5t89.5 216.5t140 173q195 176 479 176q57 0 124 -9t133.5 -18.5t123.5 -9.5h944l127 -383l-63 -24q-66 89 -162 164t-208.5 119t-217.5 44q-58 0 -91.5 -8.5t-53 -28t-27.5 -53.5t-8 -90v-430 q29 0 41 -4q162 6 239 51q42 26 72.5 68.5t50.5 124.5h80v-592h-80q-30 145 -118 202q-54 36 -113 45t-172 9v-381q0 -83 5 -129t28 -74q33 -49 122 -49q125 0 244 42.5t219.5 116.5t178.5 169z"/>
<glyph glyph-name="oe" horiz-adv-x="1851" unicode="œ" d="M1112 608h432q0 56 -8 109.5t-29.5 100.5t-61 76.5t-97.5 29.5q-112 0 -170.5 -95.5t-65.5 -220.5zM961 125q-163 -150 -377 -150q-104 0 -199.5 39t-169 112.5t-115 173t-41.5 216.5q12 140 89.5 254t202 178t265.5 64q67 0 131.5 -16.5t124 -51t109.5 -84.5 q144 148 354 148q130 0 238.5 -64t171.5 -176t63 -248h-692q9 -162 78 -267.5t174 -139.5q33 -10 88 -17q167 6 311 152l50 -43q-58 -78 -133.5 -129.5t-160 -76t-175.5 -24.5q-109 0 -212 40.5t-175 109.5zM356 520q0 -28 -4 -49q4 -42 14 -126t32.5 -145.5t67.5 -103 t118 -45.5q139 17 189 145t50 304q0 160 -49 296t-178 136q-131 0 -183.5 -128t-56.5 -284z"/>
<glyph glyph-name="Scedilla" horiz-adv-x="1251" unicode="Ş" d="M657 -29q-43 6 -110.5 23.5t-110.5 26t-88 8.5q-34 0 -68.5 -13.5t-107.5 -48.5l-131 473l76 29q61 -94 114.5 -162t122.5 -128.5t151 -97t175 -40.5q88 1 157.5 39t107.5 96t38 117q0 86 -45 139.5t-118 86t-192 68t-192 64.5q-105 48 -186.5 107.5t-129.5 145.5 t-48 204q0 165 118 293.5t330 134.5q77 0 127.5 -10.5t102 -27.5t73.5 -21q91 0 181 71l137 -440l-80 -25q-66 102 -144.5 184t-177.5 135.5t-202 53.5q-68 0 -123.5 -26.5t-87.5 -73t-33 -101.5q0 -77 38 -129.5t101.5 -84t190 -70.5t137.5 -43q208 -72 331 -179.5 t126 -291.5q0 -167 -80 -279t-191.5 -163.5t-206.5 -51.5l-69 -76q90 0 150.5 -42.5t60.5 -129.5q0 -102 -93.5 -164.5t-201.5 -62.5q-126 0 -158 47q0 2 -0.5 4.5l-1 5t-2 7t-2.5 8.5q3 20 10.5 28.5t22 14.5t22.5 10q22 -4 68 -35t67 -31q45 0 69 37.5t24 83.5 q0 36 -15.5 64t-41.5 43t-62 20q-53 -10 -76 -22l-21 26z"/>
<glyph glyph-name="scedilla" horiz-adv-x="1028" unicode="ş" d="M616 -29l-67 -84q90 0 150.5 -42.5t60.5 -129.5q0 -102 -93.5 -164.5t-201.5 -62.5q-126 0 -158 47q0 2 -0.5 4.5l-1 5t-2 7t-2.5 8.5q3 20 10.5 28.5t22 14.5t22.5 10q22 -4 68 -35t68 -31q31 0 52 18.5t30.5 46.5t9.5 56q0 36 -15.5 64t-41.5 43t-62 20 q-53 -10 -76 -22l-20 26l174 178q-51 8 -103 15.5t-100 7.5q-89 0 -172 -41l-100 356l71 25q106 -132 211 -207t238 -86q37 11 77.5 23t63.5 36t23 74q-3 55 -43 91t-121 61q-22 7 -197 45q-87 23 -150 56t-106 97t-43 158q4 114 89.5 215t250.5 109q37 0 65.5 -5.5 t82.5 -17.5t79 -16q107 0 177 59l100 -332l-80 -28q-96 112 -195.5 186t-207.5 74q-68 0 -114 -35.5t-46 -85.5q0 -51 35.5 -81t93.5 -45.5t146 -29.5t132 -26q116 -28 199.5 -100t83.5 -197q0 -101 -48.5 -184t-133 -130t-185.5 -47z"/>
<glyph glyph-name="florin" d="M915 965h160l-14 -97h-158l-178 -684q-43 -162 -121 -323q-78 -142 -160.5 -194t-154.5 -52q-92 3 -149 45.5t-60 116.5q0 43 34.5 74.5t78.5 31.5q33 0 62 -24l58 -48t60 -24q39 0 67 57q21 44 41 129t43 224l56 358l49 313h-158l12 97h172q22 89 69.5 192t111.5 182 q154 197 313 197q71 0 134 -39t69 -108q0 -57 -30.5 -89.5t-82.5 -35.5q-33 0 -59 25t-51.5 50t-57.5 25q-48 0 -80 -88q-33 -84 -76 -311z" unicode="ƒ"/>
<glyph glyph-name="circumflex" horiz-adv-x="924" unicode="ˆ" d="M461 1389l-209 -318l-105 37l156 340q35 70 67.5 100.5t94.5 30.5q55 0 89 -32.5t58 -90.5l164 -348l-108 -37z"/>
<glyph glyph-name="breve" horiz-adv-x="1141" unicode="˘" d="M147 1409l84 47q149 -153 336 -160q198 6 340 160l80 -47q-32 -93 -96.5 -162.5t-150 -107.5t-173.5 -39q-82 2 -163 36.5t-147.5 103.5t-109.5 169z"/>
<glyph glyph-name="ring" horiz-adv-x="705" unicode="˚" d="M352 1112q-84 0 -144.5 58t-60.5 143q0 54 27.5 101t75 74.5t102.5 27.5q57 0 103.5 -28t73 -75t26.5 -100q0 -86 -59.5 -143.5t-143.5 -57.5zM352 1208q44 0 74.5 30.5t30.5 74.5q0 29 -14 53t-38.5 36.5t-52.5 12.5q-41 0 -72.5 -29t-31.5 -73q0 -43 32 -74t72 -31z "/>
<glyph glyph-name="tilde" horiz-adv-x="1145" unicode="˜" d="M193 1128q28 107 95 197t165 90q44 0 100.5 -14t130 -39t109.5 -35q7 0 16.5 -2t17.5 -4q36 1 62.5 24t50.5 70h96q-18 -71 -53.5 -133t-91.5 -105t-123 -49q-51 5 -143.5 38t-136 46t-103.5 13q-66 -9 -88 -97h-104z"/>
<glyph glyph-name="emdash" horiz-adv-x="1024" unicode="–" d="M0 428v197h1024v-197h-1024z"/>
<glyph glyph-name="endash" horiz-adv-x="2048" unicode="—" d="M0 428v197h2044h4v-197h-2044h-4z"/>
<glyph glyph-name="quoteleft" horiz-adv-x="571" unicode="‘" d="M461 1536l39 -72q-125 -62 -164 -111t-39 -136q73 -6 124 -61t54 -128q0 -87 -59.5 -142t-143.5 -55q-62 3 -106.5 35.5t-67 87t-22.5 121.5q3 161 117.5 282t267.5 179z"/>
<glyph glyph-name="quoteright" horiz-adv-x="571" unicode="’" d="M113 831l-37 72q85 44 127.5 78.5t57.5 73.5t15 98q-47 3 -88 30t-64.5 69t-23.5 91q0 55 28 99.5t74.5 69t100.5 24.5q93 -3 143 -71.5t50 -172.5q0 -161 -113.5 -282t-269.5 -179z"/>
<glyph glyph-name="quotedblleft" horiz-adv-x="1057" unicode="“" d="M940 1536l37 -72q-86 -43 -128 -77t-57.5 -72.5t-15.5 -97.5q47 -4 87.5 -31t64.5 -69.5t24 -88.5q0 -87 -59 -142t-145 -55q-90 4 -141.5 74t-51.5 170q0 162 114.5 282.5t270.5 178.5zM461 1536l39 -72q-125 -62 -164 -111t-39 -136q73 -6 124 -61t54 -128 q0 -87 -59.5 -142t-143.5 -55q-62 3 -106.5 35.5t-67 87t-22.5 121.5q3 161 117.5 282t267.5 179z"/>
<glyph glyph-name="quotedblright" horiz-adv-x="1057" unicode="”" d="M113 831l-37 72q85 44 127.5 78.5t57.5 73.5t15 98q-47 3 -88 30t-64.5 69t-23.5 91q0 84 60.5 138.5t142.5 54.5q48 -1 85.5 -21t62 -52.5t37 -75t12.5 -95.5q-3 -160 -117.5 -282t-269.5 -179zM592 831l-39 72q84 43 128 78.5t59.5 73.5t15.5 98q-74 4 -125 59.5 t-51 130.5q0 55 27.5 99t73.5 69t99 25q93 -3 145 -71.5t52 -172.5q-3 -161 -118 -282t-267 -179z"/>
<glyph glyph-name="quotedblbase" horiz-adv-x="1057" unicode="„" d="M117 -369l-37 72q85 44 127.5 78.5t58 73t15.5 98.5q-73 5 -125 60t-52 130q0 55 28 99.5t74.5 69t100.5 24.5q93 -3 143 -71.5t50 -172.5q0 -160 -113.5 -280.5t-269.5 -180.5zM596 -369l-41 72q86 45 130 79.5t59.5 72.5t15.5 98q-74 4 -125.5 59t-54.5 131 q0 84 60.5 138.5t143.5 54.5q93 -3 145 -71.5t52 -172.5q-3 -160 -117.5 -280.5t-267.5 -180.5z"/>
<glyph glyph-name="bullet" horiz-adv-x="1268" unicode="•" d="M1012 752q0 -101 -51.5 -187.5t-138.5 -137t-185 -50.5q-99 0 -187 50.5t-139 137t-51 187.5q0 99 51 185t139 136.5t187 50.5q98 0 185 -50.5t138.5 -136.5t51.5 -185z"/>
<glyph glyph-name="guilsinglleft" horiz-adv-x="760" unicode="‹" d="M641 944l31 -37l-273 -387l273 -381l-31 -30l-549 411z"/>
<glyph glyph-name="guilsinglright" horiz-adv-x="760" unicode="›" d="M121 944l551 -424l-551 -411l-29 30l273 381l-273 387z"/>
</font>
</defs>
</svg>
