<?xml version="1.0" encoding="UTF-8" standalone="no"?>
<!DOCTYPE svg  PUBLIC '-//W3C//DTD SVG 1.1//EN'  'http://www.w3.org/Graphics/SVG/1.1/DTD/svg11.dtd'>
<svg xmlns="http://www.w3.org/2000/svg">
<defs>
<font id="ComicSansMS-Regular" horiz-adv-x="1139">
<font-face underline-position="-185" font-weight="400" descent="-410" panose-1="3 15 7 2 3 3 2 2 2 4" units-per-em="2048" unicode-range="U+0020-F005" bbox="-190 -639 2430 2257" x-height="1037" underline-thickness="175" font-family="ComicSansMS" ascent="1638" cap-height="1494"/>
<missing-glyph horiz-adv-x="2048"/>
<glyph glyph-name=".notdef" horiz-adv-x="2048"/>
<glyph glyph-name=".null" horiz-adv-x="0"/>
<glyph glyph-name="nonmarkingreturn" horiz-adv-x="2048"/>
<glyph glyph-name="space" horiz-adv-x="612" unicode=" "/>
<glyph glyph-name="exclam" horiz-adv-x="487" unicode="!" d="M332 23q0 -36 -28.5 -62.5t-64.5 -26.5q-40 0 -80 52q-39 49 -39 90q0 36 28.5 62t65.5 26q39 0 80 -52q38 -49 38 -89zM331 1516v-1113q0 -89 -89 -89t-89 89q0 41 -2.5 122.5t-2.5 121.5q0 145 2.5 434.5t2.5 434.5q0 89 89 89t89 -89z"/>
<glyph glyph-name="quotedbl" horiz-adv-x="869" unicode='&quot;' d="M687 1495q0 -16 -3 -45t-3 -42l-9 -390q-2 -90 -89 -90q-38 0 -64 25t-25 63l9 397q2 79 13 111q21 60 82 60q39 0 64 -25.5t25 -63.5zM294 1116q0 -17 5 -49.5t5 -48.5q0 -37 -27 -61.5t-65 -24.5q-96 0 -96 171q0 66 3 198t3 198q0 39 25 64t64 25t64 -25t25 -64 q0 -64 -3 -191.5t-3 -191.5z"/>
<glyph glyph-name="numbersign" horiz-adv-x="1726" unicode="#" d="M365 577l122 415h-267q-95 0 -95 100q0 76 148 76h264q26 116 79 316q29 92 117 92q33 0 54.5 -26.5t21.5 -58.5q0 -40 -26 -132q-44 -159 -51 -191h485q34 121 93 323q26 85 98 85q84 0 84 -78q0 -68 -83 -330h195q102 0 102 -75q0 -105 -113 -105q-15 0 -46.5 2 t-46.5 2h-146l-106 -415h204q73 0 103 -11q52 -20 52 -80q0 -92 -87 -92h-322l-90 -325q-27 -97 -112 -97q-82 0 -82 79q0 59 33 172q46 157 49 171h-500q-30 -117 -105 -344q-29 -71 -98 -71q-80 0 -80 79q0 39 23 113q35 112 70 223h-191q-83 0 -83 99q0 39 34 63 q29 21 70 21h229zM552 577h500l113 415h-488z"/>
<glyph glyph-name="dollar" horiz-adv-x="1420" unicode="$" d="M766 1636v-169h4q96 0 219 -33q161 -43 161 -110q0 -88 -89 -88q-40 0 -138.5 21t-151.5 21h-5v-407q221 -20 346 -145q114 -116 114 -280q0 -201 -139 -333q-123 -116 -321 -153v-266q0 -39 -25.5 -64.5t-64.5 -25.5q-88 0 -88 88v255q-488 7 -488 253q0 90 83 90 q47 0 90 -37q64 -55 97 -72q80 -40 218 -46v567h-8q-155 6 -268 76q-140 86 -140 239q0 137 128 258q118 112 288 163v192q0 39 26.5 65t65.5 26q86 0 86 -85zM766 676v-520q106 36 177 106q79 80 79 173q0 174 -256 241zM588 887v359q-199 -75 -199 -232q0 -97 199 -127z "/>
<glyph glyph-name="percent" horiz-adv-x="1680" unicode="%" d="M1258 464q-72 0 -113 -54q-37 -50 -37 -127q0 -67 43.5 -101t130.5 -34q80 0 119.5 47.5t39.5 142.5q0 58 -62 95q-54 31 -121 31zM443 1474q-46 0 -86 -30q-43 -33 -43 -74q0 -80 32.5 -120.5t96.5 -40.5q54 0 98 24q50 28 50 74q0 84 -37 125.5t-111 41.5zM1260 -19 q-136 0 -226 81q-94 85 -94 221q0 148 84 245q88 104 234 104q136 0 238 -76q113 -85 113 -218q0 -153 -98 -255t-251 -102zM1234 1468q-37 -60 -79 -159l-71 -162l-198 -425l-224 -472q-31 -77 -101 -227q-28 -53 -75 -53q-33 0 -59.5 23.5t-26.5 58.5q0 15 6 33 q49 135 158 353q129 257 168 349l270 600q54 133 99 182q31 34 64 34q34 0 60.5 -25.5t26.5 -59.5q0 -22 -18 -50zM443 1041q-140 0 -221 97q-75 91 -75 232q0 98 102 187q98 85 197 85q145 0 231 -96q82 -93 82 -239q0 -122 -102 -197q-91 -69 -214 -69z"/>
<glyph glyph-name="ampersand" horiz-adv-x="1340" unicode="&amp;" d="M481 1237q0 100 83 210q89 117 186 117q114 0 179 -80q61 -73 61 -190q0 -203 -241 -384q77 -169 237 -425q20 55 30 114q16 102 23 127q26 82 80 82q42 0 66 -45q20 -37 20 -83q0 -203 -104 -376q167 -262 167 -311q0 -36 -28.5 -61.5t-64.5 -25.5q-45 0 -77 51 l-115 199q-201 -196 -450 -196q-187 0 -319 115q-139 120 -139 304q0 194 147 353q85 92 310 242q-51 135 -51 263zM608 811q-172 -115 -234 -177q-121 -121 -121 -255q0 -109 87 -178q81 -63 193 -63q202 0 349 171q-76 113 -274 502zM684 1084q128 106 128 210 q0 46 -15.5 68.5t-46.5 22.5q-18 0 -54.5 -63.5t-36.5 -84.5q0 -67 25 -153z"/>
<glyph glyph-name="quotesingle" horiz-adv-x="795" unicode="&apos;" d="M462 1446q0 -30 5 -89t5 -89q0 -128 -90 -128q-62 0 -79 44q-8 23 -8 95q0 28 -5.5 83.5t-5.5 83.5q0 100 8 135q20 79 88 79q38 0 64 -24.5t26 -62.5q0 -21 -4 -63.5t-4 -63.5z"/>
<glyph glyph-name="parenleft" horiz-adv-x="750" unicode="(" d="M696 1513q0 -35 -62 -102q-46 -46 -91 -92q-111 -126 -174 -360q-55 -204 -55 -401q0 -508 230 -745q46 -36 93 -72q58 -46 58 -91q0 -33 -26 -57.5t-60 -24.5q-30 0 -72 23q-423 237 -423 990q0 271 109 549q122 309 320 448q40 28 63 28q36 0 63 -28.5t27 -64.5z"/>
<glyph glyph-name="parenright" horiz-adv-x="750" unicode=")" d="M696 581q0 -753 -424 -990q-41 -23 -71 -23q-34 0 -60 24.5t-26 57.5q0 45 58 91q46 36 93 72q230 237 230 745q0 197 -55 401q-64 234 -174 360q-46 46 -91 92q-62 67 -62 102q0 36 26.5 64.5t62.5 28.5q23 0 64 -28q198 -139 320 -448q109 -278 109 -549z"/>
<glyph glyph-name="asterisk" horiz-adv-x="1085" unicode="*" d="M47 1315q0 37 26 66t62 29q24 0 271 -97q-8 139 -8 192q0 39 25.5 64t63.5 25q39 0 64.5 -25t25.5 -64q0 -55 6 -169q240 36 294 36q37 0 61.5 -26.5t24.5 -64.5q0 -70 -75 -86q-70 -15 -247 -36q58 -53 126 -136q89 -110 89 -153q0 -36 -28 -62.5t-64 -26.5 q-38 0 -69 36q-61 82 -199 235q-206 -233 -279 -233q-36 0 -63.5 28t-27.5 64q0 34 32 66q64 54 186 173q-82 26 -240 87q-57 25 -57 78z"/>
<glyph glyph-name="plus" horiz-adv-x="984" unicode="+" d="M913 643q0 -37 -24.5 -64.5t-61.5 -27.5q-12 0 -36 4t-37 4l-100 -2q-30 -1 -56 -1q-25 0 -44 1v-235q0 -90 -89 -90q-44 0 -66.5 22.5t-22.5 67.5l-1 115l-1 116q-121 -7 -171 -7q-155 0 -155 92q0 65 55 81q19 5 100 5q50 0 171 7l-1 117q0 91 9 126q10 36 31 54t54 18 q38 0 64.5 -24.5t26.5 -62.5q0 -17 -3.5 -54t-3.5 -56l1 -114l75 -3q20 0 61 2.5t61 2.5q164 0 164 -94z"/>
<glyph glyph-name="comma" horiz-adv-x="567" unicode="," d="M285 -344q-35 0 -61 27t-26 62q0 29 62 172q54 124 83 177q26 48 69 48q36 0 61.5 -27.5t25.5 -62.5q0 -24 -142 -342q-23 -54 -72 -54z"/>
<glyph glyph-name="hyphen" horiz-adv-x="853" unicode="-" d="M679 475q-136 -14 -484 -14q-84 0 -84 78t84 78q79 0 237 7t237 7q89 0 89 -78q0 -69 -79 -78z"/>
<glyph glyph-name="period" horiz-adv-x="510" unicode="." d="M267 -93q-52 0 -88 36t-36 88q0 51 36 87.5t88 36.5q51 0 87.5 -36.5t36.5 -87.5q0 -52 -36.5 -88t-87.5 -36z"/>
<glyph glyph-name="slash" horiz-adv-x="1048" unicode="/" d="M177 -90q-37 0 -65 25t-28 62q0 16 7 34q78 215 294 619.5t295 620.5q130 355 197 355h1q37 -1 65 -26.5t28 -61.5q0 -23 -11 -55l-112 -272q-67 -185 -191 -427l-218 -414l-181 -401q-27 -59 -81 -59z"/>
<glyph glyph-name="zero" horiz-adv-x="1250" unicode="0" d="M641 1362q-186 0 -295 -189q-91 -158 -91 -361q0 -329 89 -494t267 -165q212 0 304 242q64 168 64 426q0 271 -84.5 406t-253.5 135zM611 -39q-304 0 -444 278q-106 214 -106 557q0 290 138 506q163 253 443 253q263 0 410 -224q127 -194 127 -473q0 -448 -142 -672.5 t-426 -224.5z"/>
<glyph glyph-name="one" horiz-adv-x="922" unicode="1" d="M704 -1h-199l-198 1q-70 0 -98 9q-51 18 -51 76q0 101 157 101l48 -1l41 -2q0 48 -8.5 142t-8.5 141q0 127 23 386q21 244 21 375v12q-134 -104 -171 -104q-40 0 -69.5 30t-29.5 69q0 47 86 114q54 38 153 122q88 89 168 89q67 0 67 -77q0 -23 -6 -68.5t-6 -68.5 q0 -33 3.5 -100t3.5 -100q0 -114 -24 -340t-24 -339q0 -58 8 -141t9 -136l105 2q42 0 69.5 -27.5t27.5 -68.5q0 -42 -27.5 -69t-69.5 -27z"/>
<glyph glyph-name="two" horiz-adv-x="1250" unicode="2" d="M1008 -2q-25 0 -70.5 15.5t-69.5 15.5q-51 0 -153 -6t-154 -6q-39 0 -115.5 -10t-115.5 -10q-11 0 -32 4t-32 4q-69 0 -90 67q-12 35 -12 120q0 233 127 375q58 65 313 240q143 98 191 153q86 96 86 225q0 64 -83 114q-73 45 -143 45q-92 0 -175 -53l-143 -112 q-43 -34 -69 -34q-103 0 -103 82q0 47 38 81q117 110 203 159q121 69 249 69q162 0 289 -88q142 -99 142 -254q0 -102 -29 -188t-88 -157q-75 -90 -254 -201q-188 -118 -247 -179q-109 -113 -109 -273v-6l206 19q212 12 303 12q76 0 144 -26q90 -35 90 -97q0 -39 -27 -69.5 t-67 -30.5z"/>
<glyph glyph-name="three" horiz-adv-x="1250" unicode="3" d="M605 -46q-151 0 -271 63q-135 73 -182 205q-6 18 -6 35q0 40 30.5 66.5t70.5 26.5t69 -37l46 -69q36 -49 97 -73.5t146 -24.5q109 0 191 68q87 72 87 176q0 151 -111 241q-98 78 -260 95q-111 11 -111 90q0 59 87 90l239 59q69 25 104.5 68t35.5 108q0 85 -68 137 q-73 56 -205 56q-68 0 -132 -33l-113 -71q-33 -21 -53 -21q-40 0 -68.5 30.5t-28.5 69.5q0 79 153 152q133 65 219 65q215 0 341 -95q135 -102 135 -291q0 -235 -190 -310q-17 -7 -39 -14q133 -49 199 -146.5t66 -243.5q0 -197 -139 -334.5t-339 -137.5z"/>
<glyph glyph-name="four" horiz-adv-x="1250" unicode="4" d="M770 1283q-267 -426 -417 -638l417 -10v648zM964 437v-370q0 -93 -91 -93q-106 0 -106 145q0 18 2 51t2 45l-1 227l-441 11q-137 0 -190 9q-91 15 -91 71q0 45 55 114l86 102l492 718q67 93 170 93q113 0 113 -98v-831q17 1 41 1q184 0 184 -99q0 -72 -76 -91 q-24 -6 -86 -6q-28 0 -63 1z"/>
<glyph glyph-name="five" horiz-adv-x="1250" unicode="5" d="M562 -63q-284 0 -418 210q-18 29 -18 56q0 39 31 67.5t70 28.5q41 0 78 -44q53 -64 80 -82q65 -44 177 -44q173 0 287 132q109 126 109 303q0 146 -48 237q-62 115 -191 115q-107 0 -175 -29q-54 -23 -109 -79l-109 -119q-44 -45 -90 -45q-40 0 -68 28.5t-28 68.5 q0 20 16 178q34 315 34 414q0 35 -17.5 76.5t-17.5 61.5q0 61 105 61q20 0 60.5 -3.5t60.5 -3.5q58 0 174 4t174 4q27 0 82 -2t82 -2q19 0 55 7.5t54 7.5q39 0 69 -29t30 -67q0 -112 -237 -112q-31 0 -78 2t-57 2l-169 -3l-169 -5q0 -45 -37 -333q137 109 365 109 q220 0 336 -172q98 -146 98 -372q0 -270 -158 -445q-164 -182 -433 -182z"/>
<glyph glyph-name="six" horiz-adv-x="1250" unicode="6" d="M597 749q-86 0 -154 -30q-26 -12 -131 -77q-6 -53 -6 -104q0 -179 60 -292q76 -144 237 -144q151 0 234 108q77 100 77 265q0 137 -79 205.5t-238 68.5zM597 -72q-261 0 -384 191q-102 157 -102 419q0 494 401 857l94 95q69 66 104 66q40 0 70 -28.5t31 -67.5 q2 -36 -102 -139l-204 -199q-81 -82 -139 -248q87 40 152 59.5t107 19.5q234 0 359 -125t125 -353q0 -239 -135 -390q-141 -157 -377 -157z"/>
<glyph glyph-name="seven" horiz-adv-x="1250" unicode="7" d="M1154 1306l-91 -106q-130 -152 -239 -368l-182 -399q-19 -44 -84 -231q-52 -148 -97 -221q-28 -47 -80 -47q-40 0 -70.5 28t-30.5 67q0 38 64 195l225 551q149 327 306 504l19 21l-502 10l-225 6q-97 9 -97 96q0 42 28 69t70 27q126 0 378.5 -8t378.5 -8h183 q106 0 106 -63q0 -47 -60 -123z"/>
<glyph glyph-name="eight" horiz-adv-x="1250" unicode="8" d="M605 714q-159 -74 -212 -128q-78 -78 -78 -217v-17q4 -125 115 -187q81 -44 184 -44q176 0 246 83q56 66 56 200q0 131 -102 211q-68 55 -209 99zM623 1347q-129 0 -197 -73q-60 -67 -60 -180q0 -143 230 -203q120 35 172 70q83 56 83 150q0 136 -61 191q-52 45 -167 45z M614 -54q-211 0 -341 92q-148 104 -151 305v11q0 314 227 429q-178 108 -178 307q0 189 137 314q131 120 318 122h8q412 0 412 -415q0 -120 -48 -185q-39 -54 -151 -111q149 -75 209 -162q70 -102 70 -281q0 -204 -151 -320q-140 -106 -361 -106z"/>
<glyph glyph-name="nine" horiz-adv-x="1250" unicode="9" d="M642 1365q-168 0 -252.5 -87t-85.5 -262q0 -147 103 -228q91 -71 229 -71q80 0 167 48q40 22 144 99q13 87 13 138q-1 125 -105.5 244t-212.5 119zM784 121q-73 -54 -234 -130q-179 -86 -249 -86q-41 0 -67.5 30t-26.5 70q0 59 68 89l167 57q155 63 245 145t164 233 l43 86q-56 -32 -144 -59t-143 -27q-189 0 -327 105q-168 128 -168 364q0 279 172 419q147 119 386 119q184 0 330 -150q154 -159 155 -384v-5q0 -251 -94 -488q-102 -258 -277 -388z"/>
<glyph glyph-name="colon" horiz-adv-x="612" unicode=":" d="M397 956q0 -45 -28.5 -74t-73.5 -29t-74 29t-29 74q0 12 -4.5 36.5t-4.5 37.5q0 43 30 71t74 28q110 0 110 -173zM414 226q0 -45 -29 -74t-74 -29t-73 29q-29 29 -29 74q0 19 -6.5 55.5t-6.5 54.5q0 42 31.5 70t74.5 28q112 0 112 -208z"/>
<glyph glyph-name="less" horiz-adv-x="781" unicode="&lt;" d="M298 614q56 -41 138 -127q97 -101 133 -132t36 -68t-27 -65t-63 -28q-28 0 -56 21q-40 29 -171 166q-100 105 -193 141q-76 28 -76 83q0 50 69 83q93 45 204 162q155 162 184.5 186.5t59.5 24.5q36 0 63.5 -27.5t27.5 -64.5q0 -34 -30 -64q-96 -102 -299 -291z"/>
<glyph glyph-name="equal" horiz-adv-x="1045" unicode="=" d="M381 462q66 0 198 -3t198 -3q89 0 89 -89t-89 -89q-66 0 -198 3t-198 3q-30 0 -90 -4t-89 -4q-92 0 -92 89q0 82 86 89q111 8 185 8zM324 999l467 -1q89 0 89 -89t-89 -89l-468 1q-23 0 -68.5 -2.5t-67.5 -2.5q-39 0 -63.5 26t-24.5 64q0 72 84 88q22 5 141 5z"/>
<glyph glyph-name="greater" horiz-adv-x="781" unicode="&gt;" d="M736 663q0 -36 -37 -71q-238 -221 -499 -388q-28 -18 -53 -18q-36 0 -62.5 28.5t-26.5 64.5q0 40 39 70l388 296q-89 59 -220 181q-160 151 -160 209q0 36 28 63t64 27q37 0 67 -34q228 -255 413 -351q59 -30 59 -77z"/>
<glyph glyph-name="question" horiz-adv-x="1073" unicode="?" d="M316 -72q-44 0 -79.5 29.5t-35.5 71.5q0 62 33 112q37 56 95 56q96 0 96 -118q0 -55 -26 -99q-32 -52 -83 -52zM371 308q-41 0 -72 31.5t-31 71.5q0 69 128 170l239 180q129 111 129 203q0 116 -109 214q-105 95 -223 95q-63 0 -160 -64.5t-120 -64.5q-41 0 -70.5 33 t-29.5 74q0 79 153 157q137 70 227 70q201 0 365 -157t164 -357q0 -146 -94 -259q-56 -68 -208 -176q-153 -111 -213 -180q-35 -41 -75 -41z"/>
<glyph glyph-name="at" horiz-adv-x="1907" unicode="@" d="M1306 412q-106 0 -183 31t-124 92q-54 -53 -105.5 -80t-100.5 -27q-111 0 -209.5 90.5t-98.5 198.5q0 185 145.5 338t330.5 153q42 0 70 -31t28 -75q0 -60 -100 -89q-133 -38 -188 -87q-81 -71 -81 -209q0 -29 27 -56q29 -28 71 -28h6q87 4 161 162q67 138 119 138 q42 0 68 -31t26 -76q0 -20 -6.5 -60t-6.5 -60q0 -65 56 -82q22 -7 95 -7q137 0 192 67q50 60 50 199q0 245 -197 400q-180 142 -430 142q-291 0 -456 -220q-149 -196 -149 -493q0 -274 175 -462q182 -196 468 -196q81 0 183 31l175 65q44 16 57 16q41 0 71 -32.5t30 -75.5 q0 -95 -213 -154q-161 -44 -301 -44q-141 0 -288.5 54.5t-252.5 145.5q-310 268 -310 652t212 642q225 276 599 276q338 0 579 -203q253 -215 253 -544q0 -225 -110 -346q-115 -125 -337 -125z"/>
<glyph glyph-name="A" horiz-adv-x="1498" unicode="A" d="M897 1113l-286 -461q121 31 367 75zM1250 -30q-92 0 -160 236q-26 90 -65 315q-102 -14 -267 -50l-266 -55q-50 -131 -171 -383q-32 -56 -87 -56q-40 0 -71.5 29t-31.5 72q0 48 151 365q-17 26 -17 60q0 81 98 104q114 214 288 492q237 379 295 379q79 0 108 -110 l63 -336l149 -695l57 -158q29 -81 29 -108q0 -43 -31 -72t-71 -29z"/>
<glyph glyph-name="B" horiz-adv-x="1291" unicode="B" d="M696 566l-106 17q-13 0 -39.5 -1.5t-40.5 -1.5q-54 0 -115 9q-6 -126 -6 -225v-207q262 9 427 74q70 27 134 84q61 52 61 78q0 47 -128 106q-96 45 -187 67zM584 1367q-109 0 -153 -7l-2 -175l-20 -387q131 -11 150 -11h2q151 12 247 94q103 89 103 229q0 95 -105 176 t-222 81zM886 40q-225 -88 -575 -88q-43 0 -81.5 40.5t-38.5 83.5v291q0 143 18 408q20 286 22 414v15q0 91 11 259q7 50 33 66q136 42 309 42q176 0 338 -120q187 -138 187 -341q0 -257 -200 -405q150 -64 224.5 -142t74.5 -170q0 -121 -131 -234q-91 -80 -191 -119z"/>
<glyph glyph-name="C" horiz-adv-x="1234" unicode="C" d="M1104 1122q-64 0 -96 75q-28 64 -52 78q-21 11 -104 11q-145 0 -322 -222q-240 -298 -240 -565q0 -129 83 -222q85 -96 205 -96q103 0 207 53q58 30 178 118q57 42 86 42q43 0 72 -32.5t29 -72.5q0 -45 -38 -79q-264 -234 -534 -234q-207 0 -350 159q-138 154 -138 364 q0 339 284 695q237 297 478 297q49 0 88 -4.5t69 -14.5q35 51 91 51q69 0 87 -91q16 -81 16 -199q0 -41 -22 -72q-27 -39 -77 -39z"/>
<glyph glyph-name="D" horiz-adv-x="1478" unicode="D" d="M866 1065q-102 67 -471 230l5 -288l3 -287l-16 -546q7 -3 21 -13q88 -59 222 -59q228 0 332 70q97 66 154.5 177.5t57.5 232.5q0 282 -308 483zM1076 7q-155 -106 -445 -106q-73 0 -167 23q-113 27 -170 70h-10q-43 0 -72 30t-29 73q0 105 9.5 314.5t9.5 314.5 q0 117 -4.5 349.5t-4.5 349.5q0 41 42 86t84 45q24 0 160 -67q154 -75 178 -83q284 -97 484 -298q235 -237 235 -521q0 -171 -80.5 -328t-219.5 -252z"/>
<glyph glyph-name="E" horiz-adv-x="1279" unicode="E" d="M1115 1346q-14 0 -31 5q-169 48 -326 48q-82 0 -179 -15t-209 -46q9 -65 9 -104q0 -139 -17 -382l438 42q193 20 237 20t74 -28t30 -75q0 -91 -92 -102l-238 -21l-462 -42q-4 -71 -6.5 -134.5t-2.5 -118.5q0 -221 32 -260q24 -28 157 -28q62 0 186.5 3.5t187.5 3.5 q20 0 59 6.5t58 6.5q106 0 106 -104q0 -84 -85 -101q-94 -19 -407 -19q-310 0 -398 82q-96 89 -96 410q0 64 3 140t8 164q-11 23 -11 49q0 34 19 61q20 289 20 427q0 37 -10 108.5t-10 108.5q0 119 100 119q42 0 72 -29q120 32 226.5 48t200.5 16q243 0 388 -58 q67 -27 67 -96q0 -40 -26 -71q-29 -34 -72 -34z"/>
<glyph glyph-name="F" horiz-adv-x="1243" unicode="F" d="M1106 1314q-18 0 -38 8q-124 46 -328 46q-66 0 -154.5 -9.5t-198.5 -29.5l-2 -432q193 51 290 51q154 0 319 -18q94 -10 94 -102q0 -45 -29 -74.5t-72 -29.5q-52 0 -156 9t-156 9q-68 0 -294 -58l-9 -688q0 -43 -28 -72.5t-71 -29.5t-71.5 29.5t-28.5 72.5 q0 197 7.5 591.5t7.5 591.5q0 44 -1.5 132.5t-1.5 132.5t27.5 74t71.5 30q33 0 59 -18q124 22 223 32.5t174 10.5q115 0 263 -33q201 -46 201 -120q0 -40 -26 -71q-29 -35 -72 -35z"/>
<glyph glyph-name="G" horiz-adv-x="1392" unicode="G" d="M1300 605q-62 -307 -260.5 -490.5t-468.5 -183.5q-246 0 -369 137.5t-123 412.5q0 259 122.5 533.5t314.5 443.5q128 113 271 113q91 0 240 -60q182 -72 182 -159q0 -41 -30 -73t-72 -32q-22 0 -62 25q-153 93 -258 93q-75 0 -157 -78q-41 -39 -118 -142 q-231 -306 -231 -664q0 -188 58 -263q63 -82 232 -82q179 0 311 113q139 120 194 343q-277 -14 -475 -107q-23 -11 -45 -11q-44 0 -73 34q-27 31 -27 72q0 55 53 88q216 132 745 132q43 0 72 -29t29 -73q0 -65 -55 -93z"/>
<glyph glyph-name="H" horiz-adv-x="1573" unicode="H" d="M1456 1409q-15 -42 -15 -123q0 -30 2 -89t2 -89q0 -100 -17.5 -298t-17.5 -298q0 -76 11 -228t11 -229q0 -41 -27.5 -69t-68.5 -28q-40 0 -68 28t-28 69q0 77 -11 229t-11 228q0 73 5 148q-171 -3 -423 -51l-420 -82q0 -90 -18 -255.5t-18 -256.5q0 -41 -27.5 -69.5 t-68.5 -28.5t-68.5 28.5t-27.5 69.5q0 106 17.5 316.5t17.5 316.5q0 55 -4 166t-4 167q0 79 10 237.5t10 237.5q0 42 27.5 70t68.5 28t68.5 -28t27.5 -70q0 -80 -10.5 -239.5t-10.5 -239.5l6 -253l429 81q257 48 433 50q11 143 11 431q0 76 25 154q33 107 93 107 q38 0 68 -27.5t30 -69.5q0 -15 -9 -41z"/>
<glyph glyph-name="I" horiz-adv-x="1119" unicode="I" d="M957 1246q-64 0 -161 13l-161 21q-23 -291 -23 -556q0 -70 4 -173t4 -173q0 -94 -7 -171l315 4q42 0 70.5 -29.5t28.5 -72.5q0 -44 -28.5 -73.5t-70.5 -29.5q-56 0 -168 -2.5t-168 -2.5q-66 0 -197.5 -18.5t-198.5 -18.5q-42 0 -70.5 29.5t-28.5 72.5t28.5 73t70.5 30 q65 0 215 21q10 81 10 185q0 69 -6.5 168.5t-6.5 167.5q0 231 28 577l-130 -4l-130 -3q-43 0 -72 29t-29 74q0 93 94 102q81 8 303 8q199 0 499 -43q89 -13 89 -107q0 -47 -34 -75q-30 -23 -69 -23z"/>
<glyph glyph-name="J" horiz-adv-x="1362" unicode="J" d="M1197 1294q-18 0 -61.5 7.5t-67.5 7.5q-49 0 -115 -3l5 -119q0 -744 -99 -1083q-66 -224 -231 -224q-174 0 -345 126q-189 140 -189 321q0 123 101 123t101 -121q0 -83 118 -165q113 -78 214 -78q82 0 114 503q15 238 15 598q0 28 -5 108l-61 -1q-39 0 -117.5 2.5 t-118.5 2.5q-44 0 -74 28t-30 76q0 103 139 103q34 0 101 -3t100 -3q63 0 188.5 7.5t188.5 7.5q228 0 228 -116q0 -40 -27 -71q-29 -34 -72 -34z"/>
<glyph glyph-name="K" horiz-adv-x="1251" unicode="K" d="M1153 -41q-152 0 -433 267l-299 301v-14l-1 -524q0 -99 -87 -99q-57 0 -91 50q-28 41 -28 89q0 234 14 700t14 699q0 43 28.5 73t70.5 30q43 0 71.5 -30t28.5 -73q0 -97 -12 -302q-11 -183 -11 -286v-17q134 127 303 319l287 333q34 39 76 39q40 0 71 -30t31 -73 q0 -66 -258 -352q-178 -195 -368 -382q120 -126 376 -362l105 -88q57 -44 123 -66q79 -26 79 -99q0 -34 -21 -65q-26 -38 -69 -38z"/>
<glyph glyph-name="L" horiz-adv-x="1128" unicode="L" d="M1025 41q-113 -53 -355 -95q-223 -39 -364 -39q-101 0 -145 31q-60 42 -60 154l20 331q26 458 26 1016q0 43 28.5 73t70.5 30q43 0 71.5 -30t28.5 -73q0 -565 -27 -1028l-13 -152q-6 -66 -6 -121v-26h12q258 0 648 123q17 5 32 5q43 0 72 -34q25 -31 25 -71 q0 -64 -64 -94z"/>
<glyph glyph-name="M" horiz-adv-x="1808" unicode="M" d="M1625 -83q-54 0 -89 56q-30 48 -54 160l-36 172q-41 160 -130 706l-200 -603l-59 -190q-36 -113 -75 -185q-42 -76 -113 -76q-59 0 -93 64q-22 42 -40 107l-29 111q-101 353 -178 756l-36 -179l-129 -528q-8 -93 -50 -275q-30 -78 -99 -78q-49 0 -78 35q-25 30 -25 74 q0 167 69 410l110 403l58 315q44 221 93 289q40 58 99 58q65 0 97 -74q39 -89 84 -363q53 -329 165 -712q148 385 256 802l30 146q18 88 47 142q39 74 107 74q86 0 131 -166q16 -57 39 -236q59 -452 147 -772l49 -172q38 -138 38 -170q0 -43 -32.5 -72t-73.5 -29z"/>
<glyph glyph-name="N" horiz-adv-x="1632" unicode="N" d="M1541 222q0 -48 -16 -160q-16 -101 -107 -101q-55 0 -131 72q-407 385 -934 1111l-5 -227l-3 -228q0 -83 3.5 -249t3.5 -250q0 -269 -104 -269q-55 0 -87 35q-29 31 -29 74q0 42 6.5 127t6.5 127q0 62 4 185.5t4 185.5q0 66 -3 199.5t-3 199.5q0 63 -12 187.5t-12 187.5 q0 46 39.5 84t89.5 38q53 0 131 -116q249 -373 448 -620q237 -293 520 -560q2 22 1.5 53.5t-1.5 73.5l-3 126q0 439 -34 699q-4 26 -27 105q-20 68 -20 106q0 116 106 116q174 0 174 -649q0 -111 -3 -331.5t-3 -331.5z"/>
<glyph glyph-name="O" horiz-adv-x="1635" unicode="O" d="M892 1310q-245 0 -415 -244q-157 -224 -157 -494q0 -193 143 -314q137 -114 339 -114q243 0 401 245q141 219 141 492q0 239 -107 336q-102 93 -345 93zM802 -61q-282 0 -478 169q-208 180 -208 464q0 346 205 629q229 314 571 314q329 0 489 -148q167 -154 167 -486 q0 -346 -188 -624q-216 -318 -558 -318z"/>
<glyph glyph-name="P" horiz-adv-x="1066" unicode="P" d="M463 1381q-44 0 -78.5 -2t-58.5 -6l-2 -184l-21 -398l110 -13q168 0 283 85q126 93 126 251q0 112 -120 193q-111 74 -239 74zM413 587q-28 0 -122 13q-8 -151 -8 -529q0 -40 -26 -67.5t-65 -27.5q-40 0 -66 27.5t-26 67.5v294q0 147 18 414q20 289 22 414v138 q0 99 12 144q20 77 81 77q8 0 17 -1q32 10 91 15t145 5q183 0 343 -125q176 -138 176 -332q0 -248 -188 -395q-168 -132 -404 -132z"/>
<glyph glyph-name="Q" horiz-adv-x="1795" unicode="Q" d="M958 1308q-274 0 -472 -183q-204 -188 -204 -458q0 -219 169 -396q170 -180 384 -180q69 0 142 17q-193 168 -193 265q0 44 32.5 73t72.5 29q48 0 85 -48q99 -129 224 -231q285 166 285 418q0 297 -121 482q-138 212 -404 212zM1646 -438q-44 0 -237 171l-239 219 q-169 -68 -335 -68q-301 0 -529.5 240t-228.5 543q0 357 266 606q260 242 615 242q374 0 567 -280q164 -240 164 -621q0 -331 -324 -557l218 -201l129 -110q38 -36 38 -78q0 -41 -30.5 -73.5t-73.5 -32.5z"/>
<glyph glyph-name="R" horiz-adv-x="1287" unicode="R" d="M489 1311l-148 12l10 -121q7 -74 7 -121q0 -80 -13 -199l-21 -199q14 0 43.5 -1t44.5 -1q255 0 382 68q56 31 104 81q53 56 53 95q0 139 -158 259q-145 110 -304 127zM1126 -11q-38 0 -71 32q-331 327 -736 440l8 -196l5 -197q0 -44 -28.5 -73.5t-71.5 -29.5t-71.5 29.5 t-28.5 73.5q0 79 -7.5 235.5t-7.5 235.5q0 92 20 274t20 273q0 51 -9.5 151t-9.5 151q0 57 32 100q35 48 94 48h11l241 -19q137 -17 231 -67q405 -215 405 -525q0 -152 -138 -269q-111 -94 -277 -143q311 -167 465 -352q26 -32 26 -68q0 -42 -30.5 -73t-71.5 -31z"/>
<glyph glyph-name="S" horiz-adv-x="1420" unicode="S" d="M134 252q0 40 28 66q30 26 73 26q49 0 86 -56q51 -76 91 -103q85 -56 247 -56q155 0 288 67q170 86 170 239q0 126 -143 199q-121 63 -299 68q-158 6 -269 69q-142 81 -142 232q0 178 202 325q193 139 399 139q97 0 219 -33q162 -43 162 -110q0 -88 -90 -88 q-40 0 -140 22q-96 21 -150 20h-5q-156 -2 -265 -77q-112 -77 -112 -187q0 -83 148 -117q55 -13 213 -24q229 -17 358 -144q118 -116 118 -283q0 -238 -220 -380q-191 -123 -443 -123q-183 0 -335 70q-189 88 -189 239z"/>
<glyph glyph-name="T" horiz-adv-x="1392" unicode="T" d="M1362 1263q-74 0 -228 12q-138 10 -214 10h-14h-71q3 -138 27 -448q22 -289 22 -449q0 -35 7 -106t7 -107q0 -68 -22 -117q-28 -66 -87 -66q-40 0 -72 28t-32 72q0 15 5 45t5 45q0 49 -6.5 147t-6.5 148q0 143 -23 402q-24 280 -27 402l-91 -1q-219 0 -344 32 q-81 21 -81 99q0 41 26 72q28 32 70 32h7q35 -2 160 -18q100 -12 162 -12q60 0 182 2.5t182 2.5q77 0 228.5 -11t228.5 -11q43 0 72 -29.5t29 -73.5q0 -43 -29 -72.5t-72 -29.5z"/>
<glyph glyph-name="U" horiz-adv-x="1509" unicode="U" d="M790 -40q-311 0 -464 179q-124 144 -156 426q-15 127 -15 507q0 140 6 226q6 91 18 127q25 73 90 73q92 0 92 -169v-587q0 -606 424 -606q399 0 399 1020v98q-1 60 -1 80q0 62 22 109q28 60 83 60q100 0 100 -137q0 -41 1 -124v-124q0 -1158 -599 -1158z"/>
<glyph glyph-name="V" horiz-adv-x="1331" unicode="V" d="M1306 1371q-62 -93 -101 -195l-76 -219l-269 -727q-47 -128 -110 -250q-32 -60 -90 -60q-77 0 -108 78q-121 304 -269 875l-79 275q-59 208 -59 272q0 45 32 74q29 27 70 27q76 0 98 -82l37 -174l96 -340q96 -372 187 -641l6 16l268 726l85 245q57 148 121 224 q33 40 78 40q40 0 71.5 -30.5t31.5 -73.5q0 -30 -20 -60z"/>
<glyph glyph-name="W" horiz-adv-x="2129" unicode="W" d="M1423 -96q-46 0 -81 26q-40 30 -40 74q-46 121 -58 197t-79 431q-51 269 -68 432q-89 -330 -191 -559q-118 -265 -153 -415q12 -23 12 -45q0 -45 -40 -74q-36 -27 -82 -27q-135 0 -135 121l-31 127l-109 490q-65 248 -222 711q-7 22 -7 40q0 93 105 93q65 0 100 -71 q18 -36 73 -207q59 -181 118 -436l97 -442q107 248 213 604q65 217 99 301q90 221 175 221q70 0 99 -71q36 -86 73 -410q20 -164 68 -394l86 -393q134 322 335 871q11 30 50 189q29 117 71 182q36 55 94 55q101 0 101 -100q0 -17 -32 -100l-40 -108l-55 -178l-297 -722 q-41 -119 -141 -346q-36 -67 -108 -67z"/>
<glyph glyph-name="X" horiz-adv-x="1482" unicode="X" d="M1379 1349q-134 -162 -206 -267l-125 -184q-73 -104 -137 -175l220 -322q131 -191 233 -312q27 -33 27 -69q0 -42 -30.5 -73t-72.5 -31q-38 0 -71 31q-74 70 -154 190l-134 206l-157 225l-344 -398l-184 -206q-33 -33 -73 -33q-41 0 -72 31t-31 73q0 36 26 68l180 201 l375 435q-110 147 -234 295l-116 157q-70 94 -130 144q-42 35 -42 81q0 41 29 73t72 32q85 0 217 -181q41 -61 125 -173q114 -136 217 -273l228 318q222 309 288 309q41 0 72 -31t31 -73q0 -35 -27 -68z"/>
<glyph glyph-name="Y" horiz-adv-x="1301" unicode="Y" d="M1172 1279q-24 -38 -64 -117l-172 -425q-100 -239 -188 -418l-125 -223l-53 -108q-33 -58 -89 -58q-39 0 -71 29t-32 72q0 34 94 213l123 225q-179 231 -232 364q-45 113 -150 271q-144 216 -169 261q-15 27 -15 54q0 43 31.5 72.5t71.5 29.5q49 0 82 -47l80 -124 q106 -157 140 -214q75 -123 117 -228q33 -83 141 -227l229 558q39 69 108 213q28 68 93 68q40 0 71.5 -28t31.5 -72q0 -46 -53 -141z"/>
<glyph glyph-name="Z" horiz-adv-x="1420" unicode="Z" d="M1266 1251l-135 -92q-182 -141 -412 -451l-351 -511q-25 -38 -49 -70l389 15q255 12 390 12q132 0 195 -12q81 -16 84 -82v-5q0 -45 -32 -73q-30 -25 -75 -25q-29 0 -87 3.5t-87 3.5q-152 0 -456.5 -7.5t-456.5 -7.5q-115 0 -115 101q0 66 62 166l107 149l361 502 q223 295 415 458l-350 -20h-404q-11 0 -32.5 -1.5t-31.5 -1.5q-106 0 -106 103q0 68 54 90q33 14 109 14q69 0 205.5 -14.5t205.5 -14.5q77 0 230.5 10t231.5 10q257 0 257 -97q0 -66 -116 -152z"/>
<glyph glyph-name="bracketleft" horiz-adv-x="771" unicode="[" d="M440 -412q-22 0 -67 -2.5t-68 -2.5q-129 0 -129 117q0 183 14.5 703.5t14.5 703.5l-16 303l-1 14v5q0 35 24.5 63t64.5 28q30 0 90.5 -2.5t90.5 -2.5q19 0 56.5 2.5t56.5 2.5q92 0 92 -97q0 -89 -68 -95.5t-133 -6.5q-41 0 -86 2q6 -90 6 -203l-13 -671l-16 -670l87 3 q29 0 87.5 -2.5t87.5 -2.5q40 0 63.5 -28.5t23.5 -68.5t-23.5 -68.5t-63.5 -28.5q-29 0 -87.5 2.5t-87.5 2.5z"/>
<glyph glyph-name="backslash" horiz-adv-x="1126" unicode="\" d="M920 -141q-50 0 -80 51q-38 63 -117 250l-291 745q-64 151 -239 469q-16 29 -16 53q0 39 29.5 68t67.5 29q45 0 76 -46q114 -171 247 -488l205 -515q107 -272 201 -473q12 -25 12 -47q0 -39 -28.5 -67.5t-66.5 -28.5z"/>
<glyph glyph-name="bracketright" horiz-adv-x="771" unicode="]" d="M438 -412q-30 0 -88 -2l-87 -3q-39 1 -63 29t-24 68t24 68t63 29l87 3t88 2l87 -3l-16 670l-13 671q0 113 7 203q-46 -2 -87 -2q-65 0 -117 5q-84 8 -84 97q0 97 92 97q19 0 57 -2t56 -3l90 3t92 2q38 0 64 -29q24 -27 24 -62v-5l-1 -14l-16 -303q1 -183 15 -703t14 -704 q0 -117 -129 -117q-22 1 -67 3t-68 2z"/>
<glyph glyph-name="asciicircum" horiz-adv-x="1190" unicode="^" d="M594 1646q55 0 132 -68q24 -21 110 -111l158 -170q27 -30 27 -61q0 -37 -28 -64.5t-64 -27.5q-33 0 -63 29q-80 90 -251 260q-254 -311 -326 -311q-36 0 -63.5 28t-27.5 64q0 35 31 64q55 54 304 337q27 31 61 31z"/>
<glyph glyph-name="underscore" horiz-adv-x="1284" unicode="_" d="M973 -345q-71 0 -213 5t-213 5h-445q-23 0 -69 -5t-68 -5v185q100 0 300 1.5t300 1.5q71 0 211.5 -5.5t211.5 -5.5l335 8v-185h-350z"/>
<glyph glyph-name="grave" d="M577 1267q0 -36 -28.5 -62.5t-64.5 -26.5q-43 0 -72 42l-100 149q-53 73 -124 128q-39 30 -39 71q0 36 26.5 64.5t62.5 28.5q62 0 202 -166q137 -164 137 -228z" unicode="`"/>
<glyph glyph-name="a" horiz-adv-x="1048" unicode="a" d="M712 629q0 43 5.5 93.5t16.5 107.5q-37 19 -63.5 28t-42.5 9q-155 0 -267.5 -126.5t-112.5 -291.5q0 -164 58 -246t174 -82q96 0 163 35q36 19 101 76q-32 265 -32 397zM920 -66q-19 0 -69 44q-45 41 -67 73q-96 -52 -169 -78.5t-122 -26.5q-234 0 -341 132 q-101 124 -101 380q0 242 166.5 414t397.5 172q87 0 195 -45q136 -56 136 -135q0 -27 -20 -48q-10 -38 -15.5 -125t-6.5 -223v-13q0 -115 17 -183q10 -44 63 -176q7 -18 23 -53l6 -17q0 -40 -28 -66t-65 -26z"/>
<glyph glyph-name="b" horiz-adv-x="1215" unicode="b" d="M644 861q-82 0 -168 -46q-42 -23 -144 -99l-2 -173l1 -156l1 -164q48 -22 135 -56q62 -19 139 -19q145 0 238 102t93 254q0 149 -75 249q-81 108 -218 108zM606 -42q-153 0 -278 60q-32 -48 -78 -48q-38 0 -64.5 26.5t-26.5 66.5q0 26 2.5 77t2.5 77q0 106 -5.5 317.5 t-5.5 317.5q0 73 1 276.5t1 277.5q0 60 25 108q33 61 91 61q75 0 75 -87q0 -14 -5 -41t-5 -41l-3 -219l-2 -255q87 59 165.5 88.5t147.5 29.5q215 0 349 -165q126 -155 126 -381q0 -228 -147 -387t-366 -159z"/>
<glyph glyph-name="c" horiz-adv-x="1052" unicode="c" d="M591 -63q-205 0 -342 124q-144 130 -144 343q0 203 135 419q150 240 338 240q98 0 219 -46q153 -59 153 -144q0 -38 -25 -67.5t-62 -29.5q-29 0 -50.5 17.5t-41.5 34.5q-59 47 -193 47q-102 0 -202 -182q-91 -167 -91 -289q0 -132 90 -208q84 -71 216 -71q60 0 128 32 l116 62q30 16 43 16q37 0 64 -29.5t27 -67.5q0 -73 -154 -141q-135 -60 -224 -60z"/>
<glyph glyph-name="d" horiz-adv-x="1203" unicode="d" d="M616 857q-168 0 -252 -99.5t-84 -299.5q0 -129 91.5 -222t214.5 -93q84 0 142 31q34 18 111 83q15 13 29 31l-3 173l1 116l2 118q-38 81 -101 121.5t-151 40.5zM1060 883q-12 -147 -12 -294q0 -333 31 -503q2 -14 2 -23q0 -40 -28 -66t-65 -26q-62 0 -91 90 q-72 -53 -149.5 -80t-161.5 -27q-207 0 -343 138q-140 141 -140 362q0 267 141.5 428t367.5 161q116 0 179 -36l94 -69q14 421 33 567q13 89 91 89q91 0 91 -97q0 -139 -40 -614z"/>
<glyph glyph-name="e" horiz-adv-x="1122" unicode="e" d="M579 865q-122 0 -203 -94.5t-121 -284.5l307 146q181 88 258 153q-86 80 -241 80zM606 -46q-226 0 -366 113q-153 125 -153 350q0 260 126 436q137 192 366 192q166 0 271 -56q129 -69 129 -212q0 -100 -113 -182q-50 -36 -212 -112l-382 -181q56 -83 139.5 -125 t194.5 -42q69 0 162 26q118 33 152 86.5t73 53.5q35 0 62.5 -26.5t27.5 -61.5q0 -111 -179 -191q-153 -68 -298 -68z"/>
<glyph glyph-name="f" horiz-adv-x="1041" unicode="f" d="M811 1406q-242 0 -271 -336l-3 -62q170 12 220 12q159 0 159 -100q0 -73 -78 -87q-27 -5 -62 -5q-9 0 -15.5 0.5t-11.5 0.5q-53 0 -221 -14l-8 -228q0 -62 4 -186t4 -185q0 -190 -22 -296q-17 -80 -93 -80q-41 0 -70 26.5t-29 66.5q0 8 2 20q21 130 21 283l-3 273v290 q-125 -10 -158 -10q-101 0 -101 97q0 99 175 104l96 3q3 56 15 152q26 222 112 327q104 127 325 127q143 0 143 -97q0 -96 -130 -96z"/>
<glyph glyph-name="g" horiz-adv-x="1087" unicode="g" d="M641 864q-190 0 -294 -131q-93 -118 -93 -300q0 -145 55 -218t165 -73q101 0 196 114q86 105 98 208q21 108 45 339q-40 31 -83 46t-89 15zM962 431l-23 -336q-6 -200 -41 -327q-45 -162 -144 -239q-120 -93 -347 -93q-133 0 -223 18q-126 25 -126 104q0 89 87 89 q36 1 120 -17q75 -16 165 -16h21q192 3 265 186q48 122 51 375q-54 -100 -128.5 -150t-170.5 -50q-181 0 -294.5 123.5t-113.5 320.5q0 270 155 435q160 170 436 170q93 0 156 -24t96 -72q107 -3 107 -119q0 -71 -21 -190q-23 -138 -27 -188z"/>
<glyph glyph-name="h" horiz-adv-x="1183" unicode="h" d="M976 -62q-71 0 -93 76q-23 82 -42 233q-18 145 -18 238q0 26 2.5 79t2.5 79q0 188 -94 188q-127 0 -227 -115q-51 -59 -140 -225q0 -381 -32 -451q-28 -62 -87 -62q-41 0 -72 28t-31 68q0 14 9 44q8 25 11 146l3 148l3 735q7 124 7 167q0 51 -9.5 96.5t-9.5 94.5 q0 42 29 69.5t71 27.5q82 0 96 -88q16 -97 16 -175q0 -105 -7 -219q-5 -93 -5 -188v-31l1 -88q82 110 175.5 164.5t198.5 54.5q166 0 228 -108q44 -76 50 -256l8 -191l20 -208q14 -117 34 -206q4 -17 4 -29q0 -41 -30 -68.5t-72 -27.5z"/>
<glyph glyph-name="i" horiz-adv-x="574" unicode="i" d="M375 454q0 -60 3.5 -179.5t3.5 -179.5q0 -44 -27 -72t-71 -28q-43 0 -70.5 28t-27.5 72q0 60 -3.5 179.5t-3.5 179.5q0 94 10 234.5t10 234.5q0 45 27.5 73t70.5 28t70.5 -28t27.5 -73q0 -94 -10 -234.5t-10 -234.5zM330 1266q-48 0 -83 34t-35 82t35 82t83 34t82.5 -34 t34.5 -82t-34.5 -82t-82.5 -34z"/>
<glyph glyph-name="j" horiz-adv-x="826" unicode="j" d="M459 -232v7q0 124 -34 592l-34 551q0 50 28.5 89t72.5 39q34 0 68 -25t36 -51l33 -576l27 -616q0 -139 -83 -252q-90 -123 -219 -123q-215 0 -360 331q-12 27 -12 48q0 40 31.5 69t71.5 29q59 0 123 -130q16 -34 56 -98q39 -50 90 -50q44 0 75 66q24 50 30 100zM467 1265 q-48 0 -82.5 34t-34.5 81q0 48 34.5 82t82.5 34t83 -34t35 -82q0 -47 -35 -81t-83 -34z"/>
<glyph glyph-name="k" horiz-adv-x="1106" unicode="k" d="M972 -41q-55 0 -85 58q-52 101 -157 239l-177 241q-58 -46 -180 -129q-11 -155 -11 -302q0 -45 -27.5 -73t-70.5 -28q-101 0 -101 136q0 83 11.5 248.5t11.5 248.5q0 152 4.5 347.5t4.5 345.5q0 45 -4.5 106t-4.5 106t27.5 73t70.5 28t70.5 -28t27.5 -73q0 -46 5 -108.5 t5 -108.5l-7 -322q-4 -124 -4 -249q0 -50 1 -99q136 104 262 228l220 227q33 34 71 34q39 0 70.5 -31t31.5 -72q0 -34 -29 -67q-123 -144 -303 -309l218 -297q153 -209 153 -272q0 -40 -31.5 -69t-72.5 -29z"/>
<glyph glyph-name="l" horiz-adv-x="561" unicode="l" d="M393 786l-15 -497q0 -79 -8 -232q-10 -100 -98 -100q-98 0 -98 102q0 121 11 363.5t11 363.5q0 158 5 361.5t5 361.5q0 100 98 100q99 0 99 -100q0 -158 -5 -361.5t-5 -361.5z"/>
<glyph glyph-name="m" horiz-adv-x="1591" unicode="m" d="M1409 -83q-82 0 -96 87q-18 110 -36 310l-34 310q-10 69 -34 135q-34 90 -74 90q-37 0 -138 -63q-96 -58 -126 -93v-27q0 -81 5 -161l30 -267q19 -158 19 -261q0 -44 -27.5 -72.5t-70.5 -28.5t-70.5 28.5t-27.5 72.5q0 121 -24.5 357.5t-24.5 357.5q0 106 -30 165 q-70 -32 -142 -104l-118 -132q-16 -24 -51 -63q0 -60 -11 -177t-11 -173q0 -30 9.5 -84t9.5 -78q0 -41 -30.5 -69t-71.5 -28q-113 0 -113 257q0 60 11 179t11 179q0 53 -9.5 159t-9.5 160q0 227 102 227q39 0 71.5 -34t32.5 -74q0 -19 -5 -59t-5 -61l2 -105 q52 107 153 193.5t172 86.5q157 0 216 -156q55 73 131 109.5t174 36.5q167 0 228 -180q12 -36 41 -281q28 -172 72 -573v-7q0 -35 -28.5 -62t-71.5 -27z"/>
<glyph glyph-name="n" horiz-adv-x="1072" unicode="n" d="M906 -71q-86 0 -97 94l-28 219q-14 117 -14 219q0 28 3.5 95t3.5 95q0 216 -80 216q-112 0 -214 -133q-92 -121 -144 -306q-2 -39 -9 -98q-6 -50 -6 -97q0 -30 6 -90t6 -90q0 -45 -27.5 -73t-70.5 -28q-44 0 -71 28t-27 73q0 30 -6.5 90t-6.5 90q0 103 14.5 285.5 t14.5 285.5q0 32 -3.5 95t-3.5 95q0 43 28.5 70.5t70.5 27.5q92 0 101 -130l3 -117q168 224 345 224q160 0 223 -141q43 -94 47 -278v-101l-1 -93q0 -83 21.5 -214.5t21.5 -213.5q0 -44 -28.5 -71.5t-71.5 -27.5z"/>
<glyph glyph-name="o" horiz-adv-x="1077" unicode="o" d="M574 834h-2q-146 0 -227 -140q-65 -113 -65 -258t79 -226q66 -67 155 -67q104 0 179 76q85 84 90 227q1 23 1 44q0 343 -210 344zM514 -59q-168 0 -289 124q-135 138 -142 371v21q0 213 114 377q140 203 390 203q200 0 303 -183q79 -143 79 -341v-15q-3 -222 -116 -379 q-128 -178 -339 -178z"/>
<glyph glyph-name="p" horiz-adv-x="1095" unicode="p" d="M633 832q-92 0 -166 -41q-53 -29 -134 -106q13 -227 13 -477q109 -42 218 -42q125 0 191 93q57 81 57 210q0 182 -44.5 272.5t-134.5 90.5zM564 -35q-100 0 -220 32l-2 -478q0 -44 -27.5 -72t-70.5 -28t-70.5 28t-27.5 72l3 400v399q-3 219 -15 399l-15 203q0 71 26 120 q30 59 87 59q39 0 65.5 -27.5t26.5 -67.5q0 -9 -3 -33q-5 -31 -7 -57q86 59 166 88.5t153 29.5q205 0 300 -182q75 -144 75 -381q0 -216 -116 -356q-123 -148 -328 -148z"/>
<glyph glyph-name="q" horiz-adv-x="1065" unicode="q" d="M614 890q-184 -33 -278 -187q-76 -125 -76 -294q0 -118 72 -192q75 -78 206 -78h13q95 3 139 103q48 112 51 381l14 267q-13 -4 -38 -4q-14 0 -32 1q-37 4 -56 4q-10 0 -15 -1zM909 315l-46 -384q-25 -214 -25 -387q0 -44 -27 -72t-71 -28q-92 0 -98 101q-1 12 -1 26 q0 37 6 85l13 111l19 221q-86 -23 -121 -23q-218 0 -353 113q-145 121 -145 335q0 293 165 470q167 180 454 180h6q55 0 83 -43q43 38 76 38q40 0 69.5 -32t29.5 -73q0 -295 -34 -638z"/>
<glyph glyph-name="r" horiz-adv-x="984" unicode="r" d="M917 739q-7 -125 -100 -125q-86 0 -86 99q0 19 -3 70l-3 84q-158 -19 -253 -89q-89 -65 -148 -196l2 -548q0 -101 -99 -101q-88 0 -88 101v702q0 33 2.5 99t2.5 99q0 101 88 101q98 0 99 -166q192 185 426 185q81 0 121 -61t40 -184q0 -52 -1 -70z"/>
<glyph glyph-name="s" horiz-adv-x="997" unicode="s" d="M814 770q-55 0 -77 37q-15 26 -26 108q-75 -19 -231 -70q-161 -64 -162 -158q30 -11 59 -16q230 -41 342 -113q163 -105 163 -304q0 -163 -141 -246q-117 -68 -296 -68q-131 0 -250 44q-154 56 -154 156q0 40 31.5 70t71.5 30q31 0 80 -48q24 -23 108 -38q67 -12 113 -12 q84 0 148 20q93 29 93 92q0 136 -190 184l-104 23q-133 29 -189 68q-81 56 -81 169q0 209 197 298q60 27 192 64.5t189 63.5q41 18 89 18q43 0 70.5 -28t27.5 -73q0 -29 12.5 -85t12.5 -85q0 -45 -27.5 -73t-70.5 -28z"/>
<glyph glyph-name="t" horiz-adv-x="965" unicode="t" d="M808 852q-21 0 -49.5 2t-49.5 2q-23 0 -136 -15l19 -591l1 -44l1 -51v-15q0 -204 -105 -204q-40 0 -69.5 26t-29.5 65q0 38 3 114t3 114l-20 584q-73 3 -222 17q-89 12 -89 99q0 44 27 73t69 29l210 -17q0 51 -4.5 136.5t-4.5 123.5q0 42 29 69.5t71 27.5q90 0 105 -147 q3 -37 3 -89l-2 -58l-1 -62q124 16 142 16q104 0 136 -10q61 -20 61 -94q0 -44 -27.5 -72.5t-70.5 -28.5z"/>
<glyph glyph-name="u" horiz-adv-x="1065" unicode="u" d="M955 584q0 -72 1 -216t1 -216q0 -22 3.5 -67t3.5 -67q0 -43 -29 -70.5t-71 -27.5q-77 0 -98 95q-125 -65 -288 -65q-131 0 -217 58q-95 64 -113 187q-39 265 -39 472q0 137 30 312q14 87 95 87q43 0 72 -27.5t29 -70.5q0 -46 -14.5 -147t-14.5 -154q0 -167 11 -286 t33 -191q33 -18 65 -27.5t63 -9.5q134 0 283 43l-1 203l-2 194q0 216 19 375q11 92 97 92q43 0 72 -28q27 -26 27 -65v-5z"/>
<glyph glyph-name="v" horiz-adv-x="996" unicode="v" d="M600 52q-3 -92 -91 -92q-73 0 -106 86l-153 406l-178 459q-10 26 -10 46q0 41 31 70t72 29q60 0 86 -61l254 -699q75 160 189 464q27 80 85 226q31 64 88 64q41 0 72 -29t31 -69q0 -38 -165 -428z"/>
<glyph glyph-name="w" horiz-adv-x="1401" unicode="w" d="M1336 895q-78 -326 -204 -737q-28 -91 -93 -187q-34 -52 -93 -52h-2q-109 2 -170 271q-20 86 -41 234l-33 223l-82 -191l-152 -413q-13 -38 -38 -58q-30 -58 -96 -60h-1q-75 0 -146 298q-36 155 -72 420l-24 150q-13 90 -13 151q0 42 29.5 69.5t71.5 27.5q76 0 94 -83 q13 -59 21 -146l15 -147l59 -449q111 308 230 710q33 111 115 111q79 0 107 -124q26 -117 65 -360q40 -252 71 -393l73 272l129 545q15 61 86 61q42 0 73 -28.5t31 -68.5q0 -5 -10 -46z"/>
<glyph glyph-name="x" horiz-adv-x="1209" unicode="x" d="M1058 858l-146 -137l-178 -177l326 -426q25 -32 25 -63q0 -39 -30 -69t-68 -30t-69 37q-92 107 -324 412l-195 -201q-59 -53 -172 -165q-32 -36 -69 -36q-38 0 -67.5 30t-29.5 69q0 31 25 63q28 37 87 89q69 61 91 84l213 223l-131 189q-79 113 -138 165q-38 34 -38 74 t28.5 71t65.5 31q59 0 178 -154l173 -239l196 180q122 115 165 180q32 47 76 47q39 0 69 -29t30 -67q0 -55 -93 -151z"/>
<glyph glyph-name="y" horiz-adv-x="1066" unicode="y" d="M1011 892l-346 -748q-128 -273 -196 -457l-66 -194q-26 -72 -90 -72q-42 0 -72.5 27.5t-30.5 68.5q0 100 216 579l-358 689l-45 73q-27 46 -27 77q0 41 31.5 72t70.5 31q46 0 71 -35q170 -236 365 -672l148 345q80 179 154 308q32 56 84 56q41 0 72.5 -29t31.5 -69 q0 -22 -13 -50z"/>
<glyph glyph-name="z" horiz-adv-x="1102" unicode="z" d="M964 809q-89 -107 -228 -310q-161 -236 -236 -334q105 5 183 5q39 0 116 -15t116 -15q44 0 71.5 -28.5t27.5 -72.5q0 -45 -27.5 -73t-71.5 -28q-39 0 -116 15t-116 15q-225 0 -427 -41q-21 -4 -37 -4q-97 0 -97 85q0 50 50 96q261 236 568 735q-133 -8 -193 -8 q-148 0 -304 23q-89 13 -89 99q0 44 27 73.5t68 29.5q49 0 148 -11.5t150 -11.5q68 0 204 9.5t204 9.5q85 0 85 -70q0 -81 -76 -173z"/>
<glyph glyph-name="braceleft" horiz-adv-x="750" unicode="{" d="M259 573q40 -45 78 -116q45 -82 45 -129q0 -33 -8 -99t-8 -99q0 -84 39 -192q49 -135 118 -135q82 0 105 -8q51 -17 51 -83q0 -63 -51 -84q-31 -12 -105 -12q-161 0 -261 184q-83 153 -83 330q0 27 8 82t8 82q-1 82 -95 150t-94 112q0 52 82 128q74 69 124 83v28l-3 199 l-5 199q0 316 199 403q69 29 132 29q56 0 104 -27q58 -32 58 -84q0 -54 -71 -70q-67 -9 -101 -10q-140 -15 -140 -212q1 -43 7 -204t6 -204q0 -60 -41 -135q-43 -79 -98 -106z"/>
<glyph glyph-name="bar" horiz-adv-x="863" unicode="|" d="M445 1715q86 0 86 -89v-1871q-2 -117 -87 -117q-59 0 -80 76q-11 40 -11 311v1601q0 39 26 64t66 25z"/>
<glyph glyph-name="braceright" horiz-adv-x="750" unicode="}" d="M444 573q-55 27 -98 106q-41 75 -41 135q0 43 6.5 204t6.5 204q0 197 -140 212q-34 1 -101 10q-71 16 -71 70q0 52 58 84q48 27 104 27q63 0 132 -29q199 -87 199 -403l-5 -199l-3 -199v-28q50 -14 124 -83q82 -76 82 -128q0 -45 -95 -112.5t-95 -149.5q0 -27 8.5 -82 t8.5 -82q0 -177 -83 -330q-100 -184 -261 -184q-74 0 -105 12q-51 21 -51 84q0 66 51 83q23 8 105 8q69 0 118 135q39 108 39 192q0 33 -8 99t-8 99q0 47 45 129q38 71 78 116z"/>
<glyph glyph-name="asciitilde" horiz-adv-x="1224" unicode="~" d="M467 934q87 0 158 -71l110 -133q66 -74 137 -80h2q40 0 78 121.5t100 121.5q38 0 64 -24.5t26 -65.5q0 -130 -80 -231q-82 -105 -193 -105t-203 75q-52 43 -123 139q-55 75 -76 75q-87 0 -197 -189q-29 -51 -77 -51q-36 0 -64.5 25.5t-28.5 61.5q0 19 10 42 q54 117 141 196q103 93 216 93z"/>
<glyph glyph-name="nonbreakingspace" horiz-adv-x="612" unicode=" "/>
<glyph glyph-name="exclamdown" horiz-adv-x="487" unicode="¡" d="M120 1516q0 36 28.5 62.5t65.5 26.5q39 0 80 -52q38 -49 38 -90q0 -36 -28.5 -62t-64.5 -26q-39 0 -80 52q-39 49 -39 89zM122 23v1112q0 90 89 90t89 -90q0 -40 2 -121.5t2 -121.5q0 -145 -2 -434.5t-2 -434.5q0 -89 -89 -89t-89 89z"/>
<glyph glyph-name="cent" horiz-adv-x="1276" unicode="¢" d="M291 873q0 -172 31 -242q40 -92 172 -151l49 801q-107 -52 -179.5 -170.5t-72.5 -237.5zM1107 609q-131 -327 -450 -334l1 -57q0 -186 -92 -186q-84 0 -84 88q0 87 4 184q-210 70 -291 211q-70 122 -70 358q0 189 121 362.5t300 225.5v40q0 66 4 171q8 68 76 68 q35 0 61.5 -25t26.5 -61l-2 -177q110 -11 204 -69q30 66 104 66q63 0 63 -65q0 -54 -31 -149q-36 -111 -76 -111q-17 0 -45 25q-77 70 -99 86q-57 40 -123 48q-4 -173 -21 -433l-28 -432q120 5 186 74l110 161q34 48 72 48q34 0 60 -23.5t26 -57.5q0 -17 -7 -36z"/>
<glyph glyph-name="sterling" horiz-adv-x="1625" unicode="£" d="M234 890l72 1q-2 28 -2 55q0 274 141 458q158 206 437 206q161 0 294 -69q161 -84 161 -229q0 -36 -28 -61t-65 -25q-51 0 -81 60q-45 89 -119 123q-63 28 -175 28q-193 0 -297 -152q-90 -133 -90 -339q0 -21 1 -42q150 12 231 12q58 0 174 -6t174 -6q39 0 64 -25t25 -64 t-25 -64t-64 -25q-58 0 -174 6t-174 6q-79 0 -203 -10q61 -266 61 -351q0 -124 -40 -231h27h6q95 0 229 -59t230 -59q170 0 224 70q18 24 37 130q13 71 84 71q90 0 90 -96q0 -53 -21 -119q-76 -234 -414 -234q-98 0 -237 59t-237 59q-72 0 -158.5 -42t-100.5 -42 q-35 0 -61 26.5t-26 61.5q0 30 49 81q66 67 91 114q50 88 50 210q0 88 -58 338q-73 -4 -151 -4q-148 0 -148 93q0 38 25 64t62 26q19 0 55.5 -2t54.5 -2z"/>
<glyph glyph-name="currency" horiz-adv-x="1253" unicode="¤" d="M473 1078q39 14 88 21t108 7q24 0 56 -11t73 -33l171 105q135 81 163 81q40 0 69.5 -32t29.5 -72q0 -50 -48 -81q-82 -54 -241 -147q17 -36 25 -79.5t8 -93.5q0 -46 -19 -96t-57 -104q62 -48 133 -122q93 -98 93 -140q0 -40 -31.5 -70.5t-71.5 -30.5q-39 0 -72 33 l-93 100q-56 58 -103 90q-25 -9 -56.5 -14t-70.5 -5q-47 0 -101 20t-115 59l-177 -206q-33 -38 -75 -38q-40 0 -71.5 30t-31.5 70q0 32 24 63q69 73 194 230q-38 74 -38 162q0 54 18.5 102t54.5 90l-115 122q-79 89 -79 132q0 40 32 69.5t72 29.5q45 0 78 -42 q70 -70 176 -199zM631 585q66 0 110 60q36 50 36 98q0 83 -35.5 124t-106.5 41q-69 0 -131 -37q-69 -41 -69 -97q0 -87 57 -139q54 -50 139 -50z"/>
<glyph glyph-name="yen" horiz-adv-x="1302" unicode="¥" d="M575 573v36q-28 40 -91 140q-33 0 -223 20q-78 8 -78 83q0 78 84 78q56 0 119 -6q-253 434 -253 451q0 34 26.5 58.5t59.5 24.5q42 0 69 -41q83 -128 123 -207q52 -106 119 -215l123 -207q130 154 275 458q30 50 82 152q24 54 75 54q34 0 60.5 -23.5t26.5 -58.5 q0 -29 -103 -214l-130 -233l111 13q83 0 83 -83q0 -84 -83 -84q-35 0 -103 -10t-101 -11q-38 -46 -110 -144v-46q44 -2 120 -2q19 0 56.5 5.5t56.5 5.5q35 0 57.5 -25t22.5 -60q0 -66 -67 -81q-28 -6 -106 -6q-57 0 -140 3v-203q0 -29 4.5 -82.5t4.5 -81.5q0 -84 -82 -84 q-83 0 -83 84q0 31 -3 94.5t-3 94.5v180q-72 7 -128 8q-170 2 -171 92q-2 80 103 80q17 0 47.5 -2t41.5 -2q78 0 108 -3z"/>
<glyph glyph-name="brokenbar" horiz-adv-x="828" unicode="¦" d="M479 641q0 -13 -1.5 -40.5t-1.5 -41.5q0 -88 7.5 -264t7.5 -264q0 -75 -75 -75t-75 75q0 88 -7 264t-7 264q0 157 81 157q71 0 71 -75zM484 1620l-3 -456q1 -25 1 -59q0 -67 -3 -168q-4 -61 -76 -61q-71 0 -71 88q0 109 1.5 328t1.5 328q0 75 75 75q74 0 74 -75z"/>
<glyph glyph-name="section" horiz-adv-x="1300" unicode="§" d="M375 909q0 -108 103 -169q64 -38 224.5 -79t213.5 -72q1 7 6.5 33t5.5 42q0 108 -196 211l-291 139q-22 -9 -44 -44.5t-22 -60.5zM1005 517q93 -104 93 -238q0 -179 -140 -274q-122 -82 -313 -82q-230 0 -368 94q-160 109 -160 321q0 90 89 90q59 0 83 -55l31 -105 q61 -186 326 -186q111 0 184 42q90 52 90 155q0 136 -187 198l-348 112q-94 49 -141 129t-47 191q0 67 28.5 124.5t85.5 106.5q-48 78 -48 181q0 154 134 243q116 77 278 77q233 0 383 -160q34 -37 34 -74q0 -35 -24 -62.5t-59 -27.5q-26 0 -133.5 79t-197.5 79 q-78 0 -146 -36q-84 -43 -84 -117q0 -118 182 -209l292 -131q178 -107 178 -309q0 -48 -29 -97.5t-66 -58.5z"/>
<glyph glyph-name="dieresis" d="M871 1380q34 0 69 -31.5t35 -61.5q0 -92 -143 -92q-41 0 -73 21q-36 24 -36 63q0 69 45 89q25 12 103 12zM332 1372q131 0 131 -105q0 -30 -44 -58q-40 -25 -75 -25q-123 0 -123 103q0 29 37.5 57t73.5 28z" unicode="¨"/>
<glyph glyph-name="copyright" horiz-adv-x="1629" unicode="©" d="M893 1139q-114 0 -204 -55q-93 -58 -93 -140q0 -57 65 -96q57 -34 118 -34q74 0 151.5 61.5t98.5 61.5q37 0 64 -28.5t27 -64.5q0 -70 -113.5 -138t-227.5 -70h-9q-131 0 -236 83q-116 91 -116 225q0 157 159 270q146 104 309 104q56 0 97 -28q47 -32 47 -85 q0 -77 -78 -77q-11 0 -30 5.5t-29 5.5zM903 1620q289 0 458 -186q161 -177 161 -461q0 -248 -202 -475q-218 -244 -502 -247h-17q-711 0 -711 660q0 272 248 490.5t565 218.5zM945 1438h-8q-296 0 -483 -148q-186 -148 -186 -379q0 -265 147 -380q129 -102 393 -102h10 q221 1 382 201q143 177 143 363q0 198 -93 314q-104 130 -305 131z"/>
<glyph glyph-name="ordfeminine" horiz-adv-x="1079" unicode="ª" d="M861 1532l49 -538v-6q0 -44 -29 -70.5t-70 -26.5q-95 0 -99 95l-5 90q-123 -167 -314 -167q-114 0 -208 148q-84 131 -84 249q0 149 114 262t264 113h5q156 -1 187 -5q122 -16 160 -81q25 -24 30 -63zM649 1479l-178 4h-8q-59 0 -111 -56.5t-52 -120.5q0 -47 27 -115 q31 -78 66 -78q116 1 185 114q59 97 71 252z"/>
<glyph glyph-name="guillemotleft" horiz-adv-x="1183" unicode="«" d="M752 592q56 -41 138 -126q96 -101 132 -132.5t36 -68.5q0 -36 -27 -64.5t-63 -28.5q-27 0 -55 21q-40 29 -172 167q-100 105 -193 140q-75 29 -75 83q0 51 68 84q94 44 205 161q154 162 184 187t60 25q36 0 63.5 -28t27.5 -64q0 -34 -31 -65q-96 -102 -298 -291zM298 614 q56 -41 138 -127q97 -101 133 -132t36 -68t-27 -65t-63 -28q-28 0 -56 21q-40 29 -171 166q-100 105 -193 141q-76 28 -76 83q0 50 69 83q93 45 204 162q155 162 184.5 186.5t59.5 24.5q36 0 63.5 -27.5t27.5 -64.5q0 -34 -30 -64q-96 -102 -299 -291z"/>
<glyph glyph-name="logicalnot" horiz-adv-x="984" unicode="¬" d="M905 337q0 -44 -22 -66.5t-67 -22.5q-89 0 -89 89l-1 115l-1 116q-376 -22 -522 -22q-155 0 -155 92q0 65 55 81q19 5 100 5q70 0 211.5 4t212.5 4q20 0 61 2.5t61 2.5q82 0 123 -23.5t41 -70.5q1 -12 1 -30q0 -44 -4 -123z"/>
<glyph glyph-name="hyphenminus" horiz-adv-x="853" unicode="­" d="M679 475q-136 -14 -484 -14q-84 0 -84 78t84 78q79 0 237 7t237 7q89 0 89 -78q0 -69 -79 -78z"/>
<glyph glyph-name="registered" horiz-adv-x="1629" unicode="®" d="M851 858q57 -66 73 -81q42 -39 93 -57q70 -25 70 -85q0 -37 -25 -64.5t-61 -27.5q-74 0 -143 55q-41 32 -115 118q-72 82 -112 112q-11 -71 -40 -211q-19 -73 -86 -73q-37 0 -64 24.5t-27 61.5q0 8 2 19l87 503q24 174 108 176q15 0 52.5 11.5t69.5 11.5q185 0 275 -26 q162 -47 162 -184q0 -226 -319 -283zM664 1011q156 20 191 29q136 34 136 100q-45 33 -221 33h-39q-28 0 -46 -5q-5 -52 -21 -157zM929 1631q261 0 439 -209q171 -200 171 -465q0 -328 -248 -547q-229 -203 -522 -203q-298 0 -481 159q-197 171 -197 478q0 367 209 572 q218 215 629 215zM269 844q0 -231 145 -351q131 -108 355 -108q220 0 394 148q194 165 195 424q0 198 -121 343q-129 154 -325 154q-321 0 -482 -152.5t-161 -457.5z"/>
<glyph glyph-name="overscore" horiz-adv-x="1284" unicode="¯" d="M973 1703q-71 0 -213 5t-213 5h-445q-23 0 -69 -5t-68 -5v185q100 0 300 1.5t300 1.5q71 0 211.5 -5.5t211.5 -5.5l335 8v-185h-350z"/>
<glyph glyph-name="degree" horiz-adv-x="838" unicode="°" d="M218 1335q0 -85 42 -144q49 -68 135 -68q84 0 151 52q71 56 71 136q0 98 -55.5 159t-148.5 61q-75 0 -133 -54q-62 -58 -62 -142zM413 1680q155 0 254 -104.5t99 -264.5q0 -142 -115 -242q-110 -95 -256 -95q-153 0 -244 109q-83 101 -83 252q0 149 105 250 q101 95 240 95z"/>
<glyph glyph-name="plusminus" horiz-adv-x="984" unicode="±" d="M755 -114q-92 0 -276 -7t-276 -7q-155 0 -155 92q0 87 111 87q66 0 197 5t196 5q32 0 98 1t99 1q164 0 164 -93q-1 -36 -25 -64t-61 -28q-12 0 -36 4t-36 4zM913 643q-1 -37 -25 -65t-61 -27q-13 0 -37 4t-36 4l-100 -2q-30 -1 -56 -1q-25 0 -44 1q2 -41 2 -78 q0 -123 -6 -153q-19 -94 -95 -94q-79 0 -79 90l-1 116l-1 115q-118 -7 -171 -7q-155 0 -155 92q0 64 51 80q21 6 104 6q54 0 171 7l-1 151q-1 164 94 164q37 0 64 -25t27 -62q0 -19 -4 -55t-3 -55l1 -114l75 -3q20 0 61 2t61 3q164 0 164 -94z"/>
<glyph glyph-name="twosuperior" horiz-adv-x="1333" unicode="²" d="M551 1056l84 -2l84 -2q33 0 97.5 10t95.5 10t51.5 -23t20.5 -54q0 -92 -268 -92q-34 0 -100.5 2t-100.5 2q-53 0 -90 23q-44 28 -44 78q0 132 106 226l196 133q106 70 106 144q0 29 -38 65t-68 36q-69 0 -108 -41l-48 -78q-25 -41 -63 -41q-31 0 -54 20.5t-23 51.5 q0 96 103 163q92 61 197 61q94 0 172.5 -73.5t78.5 -163.5q0 -129 -70 -207q-37 -42 -156 -115q-112 -68 -161 -133z"/>
<glyph glyph-name="threesuperior" horiz-adv-x="1333" unicode="³" d="M852 1314q95 -69 95 -231q0 -114 -112 -177q-92 -51 -217 -51q-204 0 -204 97q0 31 22 54.5t52 23.5q10 0 54 -12.5t76 -12.5q54 0 106 15q74 23 74 63q0 101 -64 126l-118 14q-64 9 -64 70q0 56 104.5 83.5t104.5 89.5q0 85 -153 85q-14 0 -42 -8.5t-43 -8.5 q-63 0 -63 59q0 52 50 82q43 26 98 26q123 0 206 -54q96 -64 96 -181q0 -91 -58 -152z"/>
<glyph glyph-name="acute" d="M304 1187q-36 0 -63.5 28t-27.5 64q0 34 31 65q43 42 131 159q66 86 147 143q27 19 53 19q36 0 63 -28.5t27 -64.5q0 -40 -38 -70q-70 -56 -135 -145q-68 -94 -129 -145q-28 -25 -59 -25z" unicode="´"/>
<glyph glyph-name="mu1" horiz-adv-x="1065" unicode="µ" d="M318 -24l-113 -319q-26 -63 -85 -63q-39 0 -68.5 26t-29.5 65q0 23 77 240q82 228 92 287l11 136q18 173 49 319q35 162 96 312q35 87 114 87q82 0 82 -76q0 -38 -41 -155q-48 -138 -54 -168q-59 -271 -59 -437q0 -22 1 -40q29 -18 59 -27.5t61 -9.5q134 0 293 43l77 389 q48 231 103 383q33 92 116 92q82 0 82 -73q0 -26 -45 -190l-57 -213l-90 -432q-5 -45 -21 -134q-24 -98 -121 -98q-77 0 -78 95q-138 -65 -302 -65q-43 0 -80 6.5t-69 19.5z"/>
<glyph glyph-name="paragraph" horiz-adv-x="1421" unicode="¶" d="M995 1477l3 -97q0 -377 -50 -793q-63 -524 -131 -724q-22 -59 -81 -59q-37 0 -65 24.5t-28 61.5q0 11 4 28q23 92 44 238l35 240q-33 -6 -64 -6q-224 0 -397 120q-194 134 -194 348q0 251 142 433q136 174 379 260l357 99q21 7 35 7q37 0 62 -28.5t25 -65.5 q0 -64 -76 -86zM819 1428q-266 -63 -402 -178q-168 -144 -168 -392q0 -135 144 -219q122 -71 269 -71q42 0 102 20q57 327 57 688zM1326 1249q0 -173 -87 -706q-90 -560 -148 -668q-31 -59 -80 -59q-37 0 -65 25t-28 61q0 14 6 35q75 238 148 653q76 434 76 659 q0 51 -15.5 151.5t-15.5 150.5q0 86 91 86q65 0 87 -77q31 -115 31 -311z"/>
<glyph glyph-name="cedilla" d="M865 -196q0 -124 -60.5 -186.5t-181.5 -62.5q-85 0 -161 32q-96 42 -96 115q0 54 68 54q36 0 81.5 -24.5t96.5 -24.5q49 1 73 24t24 68q0 60 -70 110q-56 40 -125 57q-65 15 -65 73q0 76 72 76q120 0 230 -95q114 -98 114 -216z" unicode="¸"/>
<glyph glyph-name="onesuperior" horiz-adv-x="1333" unicode="¹" d="M518 1035h86v453q-70 -43 -120 -43q-72 0 -72 68q0 57 56 77q26 10 118 76q81 58 108 58q45 0 56 -42q3 -12 3 -78v-569l45 1q40 1 65 1q24 0 33 -1q62 -9 62 -54q0 -32 -21.5 -55.5t-53.5 -23.5h-408q-31 0 -52 22.5t-21 53.5q0 44 40 54q10 2 76 2z"/>
<glyph glyph-name="ordmasculine" horiz-adv-x="920" unicode="º" d="M451 1494q-77 0 -144.5 -68.5t-67.5 -133.5q0 -87 62.5 -152t148.5 -65q93 0 156 92q57 82 57 181q0 52 -59 97q-64 49 -153 49zM861 1348q0 -228 -105.5 -342t-317.5 -114q-173 0 -292 136q-106 122 -106 264q0 147 139.5 278t297.5 131h2q124 -1 256 -129 q126 -123 126 -224z"/>
<glyph glyph-name="guillemotright" horiz-adv-x="1183" unicode="»" d="M348 592q-202 189 -298 291q-31 31 -31 65q-1 36 27 64t64 28q30 0 60 -25t184 -187q111 -117 205 -161q68 -33 68 -84q0 -54 -75 -83q-93 -35 -193 -140q-132 -138 -172 -167q-28 -21 -55 -21q-36 0 -63 28t-27 65t36 69t133 132q81 85 137 126zM802 614 q-203 189 -298 291q-31 30 -31 64q-1 37 27 65t64 27q30 -1 60 -25t184 -186q111 -117 204 -162q69 -33 69 -83q0 -55 -76 -83q-92 -36 -193 -141q-131 -137 -171 -166q-28 -21 -55 -21q-36 0 -63 28t-27 65t36 68t132 132q82 86 138 127z"/>
<glyph glyph-name="onequarter" horiz-adv-x="1333" unicode="¼" d="M813 306l4 -291l57 1h3q124 0 124 -73q0 -48 -65 -48q-23 0 -59 4l-58 7l2 -173q0 -75 -75 -75t-75 75l1 171l-323 -16q-79 0 -79 77q0 47 43 91q67 67 178 202q117 144 175 204q38 40 94 40q30 0 54 -21.5t24 -51.5q0 -21 -12.5 -61.5t-12.5 -61.5zM673 18l2 225 q-118 -137 -200 -224q31 3 72 3zM509 741l464 -14h11q56 0 156 -9q71 -13 71 -74q0 -75 -79 -75l-204 11q-212 11 -419 11q-45 0 -136 -3t-136 -3q-75 0 -75 75t75 75q45 0 136 3t136 3zM518 1035h86v453q-70 -43 -120 -43q-72 0 -72 68q0 57 56 77q26 10 118 76 q81 58 108 58q45 0 56 -42q3 -12 3 -78v-569l45 1q40 1 65 1q24 0 33 -1q62 -9 62 -54q0 -32 -21.5 -55.5t-53.5 -23.5h-408q-31 0 -52 22.5t-21 53.5q0 44 40 54q10 2 76 2z"/>
<glyph glyph-name="onehalf" horiz-adv-x="1333" unicode="½" d="M551 -205l84 -2l84 -2q33 0 97.5 10t95.5 10t51.5 -23t20.5 -54q0 -92 -268 -92q-33 0 -100 2t-101 2q-53 0 -90 23q-44 28 -44 78q0 132 106 226l196 133q106 70 106 144q0 29 -38 65t-68 36q-69 0 -108 -41l-48 -77q-25 -42 -63 -42q-32 0 -54.5 20.5t-22.5 51.5 q0 96 103 164q92 60 197 60q94 0 172.5 -73.5t78.5 -163.5q0 -129 -70 -207q-37 -42 -156 -115q-112 -68 -161 -133zM509 741l464 -14h11q56 0 156 -9q71 -13 71 -74q0 -75 -79 -75l-204 11q-212 11 -419 11q-45 0 -136 -3t-136 -3q-75 0 -75 75t75 75q45 0 136 3t136 3z M518 1035h86v453q-70 -43 -120 -43q-72 0 -72 68q0 57 56 77q26 10 118 76q81 58 108 58q46 0 56 -45q3 -10 3 -82v-562l45 1q40 1 65 1q24 0 33 -1q62 -9 62 -54q0 -32 -21.5 -55.5t-53.5 -23.5h-408q-31 0 -52 22.5t-21 53.5q0 44 40 54q10 2 76 2z"/>
<glyph glyph-name="threequarters" horiz-adv-x="1333" unicode="¾" d="M813 306l4 -291l48 1h4q132 0 132 -73q0 -48 -65 -48q-22 0 -59 4q-44 6 -58 7l2 -173q0 -75 -75 -75t-75 75l1 171l-323 -16q-79 0 -79 77q0 51 43 91q81 74 182 198l171 208q34 40 94 40q30 0 54 -21t24 -52q0 -15 -12.5 -55.5t-12.5 -67.5zM673 18l2 225 q-118 -137 -200 -224q30 3 72 3zM509 741q200 0 464 -14q57 -1 167 -9q71 -8 71 -74q0 -75 -79 -75l-204 11q-232 11 -419 11q-45 0 -136 -3t-136 -3q-75 0 -75 75t75 75q45 0 136 3t136 3zM852 1314q95 -69 95 -231q0 -114 -112 -177q-92 -51 -217 -51q-204 0 -204 97 q0 31 22 54.5t52 23.5q10 0 54 -12.5t76 -12.5q54 0 106 15q74 23 74 63q0 101 -64 126l-118 14q-64 9 -64 70q0 56 104.5 83.5t104.5 89.5q0 85 -153 85q-14 0 -42 -8.5t-43 -8.5q-63 0 -63 59q0 52 50 82q43 26 98 26q123 0 206 -54q96 -64 96 -181q0 -91 -58 -152z"/>
<glyph glyph-name="questiondown" horiz-adv-x="1073" unicode="¿" d="M697 1478q44 0 79.5 -29.5t35.5 -72.5q0 -62 -33 -112q-37 -56 -95 -56q-96 0 -96 118q0 55 26 100q32 52 83 52zM642 1097q41 0 72 -31t31 -72q0 -68 -128 -169l-239 -181q-129 -111 -129 -203q0 -116 109 -214q105 -95 223 -95q63 0 160 64.5t120 64.5q41 0 70.5 -33 t29.5 -74q0 -79 -153 -157q-137 -69 -227 -69q-201 0 -365 156.5t-164 356.5q0 146 94 259q56 68 208.5 177.5t212.5 178.5q35 41 75 41z"/>
<glyph glyph-name="Agrave" horiz-adv-x="1498" unicode="À" d="M897 1113l-286 -461q121 31 367 75zM1250 -30q-92 0 -160 236q-26 90 -65 315q-102 -14 -267 -50l-266 -55q-50 -131 -171 -383q-32 -56 -87 -56q-40 0 -71.5 29t-31.5 72q0 48 151 365q-17 26 -17 60q0 81 98 104q114 214 288 492q237 379 295 379q79 0 108 -110 l63 -336l149 -695l57 -158q29 -81 29 -108q0 -43 -31 -72t-71 -29zM1099 1727q0 -36 -28.5 -62.5t-64.5 -26.5q-43 0 -72 42l-100 149q-53 73 -124 128q-39 30 -39 71q0 36 26.5 64.5t62.5 28.5q62 0 202 -166q137 -164 137 -228z"/>
<glyph glyph-name="Aacute" horiz-adv-x="1498" unicode="Á" d="M897 1113l-286 -461q121 31 367 75zM1250 -30q-92 0 -160 236q-26 90 -65 315q-102 -14 -267 -50l-266 -55q-50 -131 -171 -383q-32 -56 -87 -56q-40 0 -71.5 29t-31.5 72q0 48 151 365q-17 26 -17 60q0 81 98 104q114 214 288 492q237 379 295 379q79 0 108 -110 l63 -336l149 -695l57 -158q29 -81 29 -108q0 -43 -31 -72t-71 -29zM931 1630q-36 0 -63.5 28t-27.5 64q0 34 31 65q43 42 131 159q66 86 147 143q27 19 53 19q36 0 63 -28.5t27 -64.5q0 -40 -38 -70q-70 -56 -135 -145q-68 -94 -129 -145q-28 -25 -59 -25z"/>
<glyph glyph-name="Acircumflex" horiz-adv-x="1498" unicode="Â" d="M897 1113l-286 -461q121 31 367 75zM1250 -30q-92 0 -160 236q-26 90 -65 315q-102 -14 -267 -50l-266 -55q-50 -131 -171 -383q-32 -56 -87 -56q-40 0 -71.5 29t-31.5 72q0 48 151 365q-17 26 -17 60q0 81 98 104q114 214 288 492q237 379 295 379q79 0 108 -110 l63 -336l149 -695l57 -158q29 -81 29 -108q0 -43 -31 -72t-71 -29zM913 2090q55 0 132 -67q24 -21 109 -112l159 -170q26 -30 26 -61q0 -36 -27.5 -63.5t-64.5 -27.5q-33 0 -63 29q-80 90 -250 260q-254 -312 -326 -312q-36 0 -63.5 28t-27.5 64q0 35 30 65q56 54 305 336 q27 31 61 31z"/>
<glyph glyph-name="Atilde" horiz-adv-x="1498" unicode="Ã" d="M897 1113l-286 -461q121 31 367 75zM1250 -30q-92 0 -160 236q-26 90 -65 315q-102 -14 -267 -50l-266 -55q-50 -131 -171 -383q-32 -56 -87 -56q-40 0 -71.5 29t-31.5 72q0 48 151 365q-17 26 -17 60q0 81 98 104q114 214 288 492q237 379 295 379q79 0 108 -110 l63 -336l149 -695l57 -158q29 -81 29 -108q0 -43 -31 -72t-71 -29zM805 2005q100 0 161 -58l83 -106q47 -58 112 -58q57 0 85 37l46 88l20 59q14 29 60 29q75 0 75 -74q0 -36 -43 -121q-40 -80 -69 -110q-56 -57 -143 -57q-131 0 -205 57q-27 21 -88 107q-42 57 -94 57 q-31 0 -55.5 -11.5t-42.5 -34.5l-44 -85q-25 -45 -65 -45q-31 0 -54 20.5t-23 51.5q0 11 3 23q28 102 101 165q78 66 180 66z"/>
<glyph glyph-name="Adieresis" horiz-adv-x="1498" unicode="Ä" d="M897 1113l-286 -461q121 31 367 75zM1250 -30q-92 0 -160 236q-26 90 -65 315q-102 -14 -267 -50l-266 -55q-50 -131 -171 -383q-32 -56 -87 -56q-40 0 -71.5 29t-31.5 72q0 48 151 365q-17 26 -17 60q0 81 98 104q114 214 288 492q237 379 295 379q79 0 108 -110 l63 -336l149 -695l57 -158q29 -81 29 -108q0 -43 -31 -72t-71 -29zM1241 1830q34 0 69 -31.5t35 -61.5q0 -92 -143 -92q-41 0 -73 21q-36 24 -36 63q0 69 45 89q25 12 103 12zM702 1822q131 0 131 -105q0 -30 -44 -58q-40 -25 -75 -25q-123 0 -123 103q0 29 37.5 57t73.5 28 z"/>
<glyph glyph-name="Aring" horiz-adv-x="1498" unicode="Å" d="M897 1113l-286 -461q121 31 367 75zM1250 -30q-92 0 -160 236q-26 90 -65 315q-102 -14 -267 -50l-266 -55q-50 -131 -171 -383q-32 -56 -87 -56q-40 0 -71.5 29t-31.5 72q0 48 151 365q-17 26 -17 60q0 81 98 104q114 214 288 492q237 379 295 379q79 0 108 -110 l63 -336l149 -695l57 -158q29 -81 29 -108q0 -43 -31 -72t-71 -29zM634 1692q0 145 103 229q99 80 260 80q125 0 214 -70q97 -77 97 -199q0 -148 -89.5 -224t-268.5 -79h-7q-131 0 -219 76q-90 77 -90 187zM965 1576q86 3 126 24q67 36 67 132q0 58 -54 91q-45 29 -107 29 q-213 0 -213 -154v-6q1 -46 61 -82q57 -34 114 -34h6z"/>
<glyph glyph-name="AE" horiz-adv-x="2226" unicode="Æ" d="M781 844q245 24 384 27q17 242 17 379q0 30 -5 68q-92 -84 -206 -230zM1152 672q-106 -3 -272 -19l-272 -25q-87 -119 -257 -385l-121 -185q-33 -46 -80 -46q-40 0 -72 29.5t-32 69.5q0 27 19 57q311 508 539 774l272 346q180 219 316 282q34 16 70 16q42 0 72 -29 q120 32 226.5 48t200.5 16q262 0 388 -58q67 -31 67 -96q0 -42 -28.5 -73.5t-69.5 -31.5q-12 0 -31 5q-187 48 -326 48q-82 0 -179 -15t-209 -46q9 -63 9 -104q0 -140 -17 -382l438 42q186 20 237 20q45 0 74 -29.5t29 -74.5q0 -84 -91 -102l-238 -20l-462 -43 q-9 -142 -9 -252q0 -226 32 -260q27 -28 157 -28q62 0 186.5 3.5t187.5 3.5q19 0 58 6t59 6q106 0 106 -103q0 -79 -85 -101t-216 -23l-218 2q-291 0 -381 97q-86 93 -86 397q0 114 9 263z"/>
<glyph glyph-name="Ccedilla" horiz-adv-x="1234" unicode="Ç" d="M792 -142q0 -165 -140 -225q-93 -40 -283 -40q-130 0 -130 78q0 75 73 75q18 0 56 -2t57 -2q217 0 217 116q0 68 -106 109l-161 56q-142 83 -213.5 202t-71.5 274q0 337 284 695q236 297 478 297q48 0 87.5 -4.5t69.5 -14.5q35 51 91 51q71 0 93 -116q10 -51 10 -174 q0 -46 -26 -77q-28 -34 -73 -34q-63 0 -96 75q-30 66 -56 79q-19 10 -100 10q-145 0 -322 -222q-240 -299 -240 -565q0 -125 81 -219q84 -99 207 -99q102 0 209 55q54 28 158 102q77 56 104 56q41 0 71 -32t30 -73q0 -77 -168 -179q-139 -84 -244 -112q54 -67 54 -140z"/>
<glyph glyph-name="Egrave" horiz-adv-x="1279" unicode="È" d="M1115 1346q-14 0 -31 5q-169 48 -326 48q-82 0 -179 -15t-209 -46q9 -65 9 -104q0 -139 -17 -382l438 42q193 20 237 20t74 -28t30 -75q0 -91 -92 -102l-238 -21l-462 -42q-4 -71 -6.5 -134.5t-2.5 -118.5q0 -221 32 -260q24 -28 157 -28q62 0 186.5 3.5t187.5 3.5 q20 0 59 6.5t58 6.5q106 0 106 -104q0 -84 -85 -101q-94 -19 -407 -19q-310 0 -398 82q-96 89 -96 410q0 64 3 140t8 164q-11 23 -11 49q0 34 19 61q20 289 20 427q0 37 -10 108.5t-10 108.5q0 119 100 119q42 0 72 -29q120 32 226.5 48t200.5 16q243 0 388 -58 q67 -27 67 -96q0 -40 -26 -71q-29 -34 -72 -34zM955 1836q0 -36 -28.5 -62.5t-64.5 -26.5q-43 0 -72 42l-100 149q-53 73 -124 128q-39 30 -39 71q0 36 26.5 64.5t62.5 28.5q62 0 202 -166q137 -164 137 -228z"/>
<glyph glyph-name="Eacute" horiz-adv-x="1279" unicode="É" d="M1115 1346q-14 0 -31 5q-169 48 -326 48q-82 0 -179 -15t-209 -46q9 -65 9 -104q0 -139 -17 -382l438 42q193 20 237 20t74 -28t30 -75q0 -91 -92 -102l-238 -21l-462 -42q-4 -71 -6.5 -134.5t-2.5 -118.5q0 -221 32 -260q24 -28 157 -28q62 0 186.5 3.5t187.5 3.5 q20 0 59 6.5t58 6.5q106 0 106 -104q0 -84 -85 -101q-94 -19 -407 -19q-310 0 -398 82q-96 89 -96 410q0 64 3 140t8 164q-11 23 -11 49q0 34 19 61q20 289 20 427q0 37 -10 108.5t-10 108.5q0 119 100 119q42 0 72 -29q120 32 226.5 48t200.5 16q243 0 388 -58 q67 -27 67 -96q0 -40 -26 -71q-29 -34 -72 -34zM747 1764q-36 0 -63.5 28t-27.5 64q0 34 31 65q43 42 131 159q66 86 147 143q27 19 53 19q36 0 63 -28.5t27 -64.5q0 -40 -38 -70q-70 -56 -135 -145q-68 -94 -129 -145q-28 -25 -59 -25z"/>
<glyph glyph-name="Ecircumflex" horiz-adv-x="1279" unicode="Ê" d="M1115 1346q-14 0 -31 5q-169 48 -326 48q-82 0 -179 -15t-209 -46q9 -65 9 -104q0 -139 -17 -382l438 42q193 20 237 20t74 -28t30 -75q0 -91 -92 -102l-238 -21l-462 -42q-4 -71 -6.5 -134.5t-2.5 -118.5q0 -221 32 -260q24 -28 157 -28q62 0 186.5 3.5t187.5 3.5 q20 0 59 6.5t58 6.5q106 0 106 -104q0 -84 -85 -101q-94 -19 -407 -19q-310 0 -398 82q-96 89 -96 410q0 64 3 140t8 164q-11 23 -11 49q0 34 19 61q20 289 20 427q0 37 -10 108.5t-10 108.5q0 119 100 119q42 0 72 -29q120 32 226.5 48t200.5 16q243 0 388 -58 q67 -27 67 -96q0 -40 -26 -71q-29 -34 -72 -34zM751 2257q55 0 132 -67q24 -21 109 -112l159 -170q26 -30 26 -61q0 -36 -27.5 -63.5t-64.5 -27.5q-33 0 -63 29q-80 90 -250 260q-254 -312 -326 -312q-36 0 -63.5 28t-27.5 64q0 35 30 65q56 54 305 336q27 31 61 31z"/>
<glyph glyph-name="Edieresis" horiz-adv-x="1279" unicode="Ë" d="M1115 1346q-14 0 -31 5q-169 48 -326 48q-82 0 -179 -15t-209 -46q9 -65 9 -104q0 -139 -17 -382l438 42q193 20 237 20t74 -28t30 -75q0 -91 -92 -102l-238 -21l-462 -42q-4 -71 -6.5 -134.5t-2.5 -118.5q0 -221 32 -260q24 -28 157 -28q62 0 186.5 3.5t187.5 3.5 q20 0 59 6.5t58 6.5q106 0 106 -104q0 -84 -85 -101q-94 -19 -407 -19q-310 0 -398 82q-96 89 -96 410q0 64 3 140t8 164q-11 23 -11 49q0 34 19 61q20 289 20 427q0 37 -10 108.5t-10 108.5q0 119 100 119q42 0 72 -29q120 32 226.5 48t200.5 16q243 0 388 -58 q67 -27 67 -96q0 -40 -26 -71q-29 -34 -72 -34zM1061 1948q34 0 69 -31.5t35 -61.5q0 -92 -143 -92q-41 0 -73 21q-36 24 -36 63q0 69 45 89q25 12 103 12zM522 1940q131 0 131 -105q0 -30 -44 -58q-40 -25 -75 -25q-123 0 -123 103q0 29 37.5 57t73.5 28z"/>
<glyph glyph-name="Igrave" horiz-adv-x="1119" unicode="Ì" d="M957 1246q-64 0 -161 13l-161 21q-23 -291 -23 -556q0 -70 4 -173t4 -173q0 -94 -7 -171l315 4q42 0 70.5 -29.5t28.5 -72.5q0 -44 -28.5 -73.5t-70.5 -29.5q-56 0 -168 -2.5t-168 -2.5q-66 0 -197.5 -18.5t-198.5 -18.5q-42 0 -70.5 29.5t-28.5 72.5t28.5 73t70.5 30 q65 0 215 21q10 81 10 185q0 69 -6.5 168.5t-6.5 167.5q0 231 28 577l-130 -4l-130 -3q-43 0 -72 29t-29 74q0 93 94 102q81 8 303 8q199 0 499 -43q89 -13 89 -107q0 -47 -34 -75q-30 -23 -69 -23zM754 1767q0 -36 -28.5 -62.5t-64.5 -26.5q-43 0 -72 42l-100 149 q-53 73 -124 128q-39 30 -39 71q0 36 26.5 64.5t62.5 28.5q62 0 202 -166q137 -164 137 -228z"/>
<glyph glyph-name="Iacute" horiz-adv-x="1119" unicode="Í" d="M957 1246q-64 0 -161 13l-161 21q-23 -291 -23 -556q0 -70 4 -173t4 -173q0 -94 -7 -171l315 4q42 0 70.5 -29.5t28.5 -72.5q0 -44 -28.5 -73.5t-70.5 -29.5q-56 0 -168 -2.5t-168 -2.5q-66 0 -197.5 -18.5t-198.5 -18.5q-42 0 -70.5 29.5t-28.5 72.5t28.5 73t70.5 30 q65 0 215 21q10 81 10 185q0 69 -6.5 168.5t-6.5 167.5q0 231 28 577l-130 -4l-130 -3q-43 0 -72 29t-29 74q0 93 94 102q81 8 303 8q199 0 499 -43q89 -13 89 -107q0 -47 -34 -75q-30 -23 -69 -23zM524 1657q-36 0 -63.5 28t-27.5 64q0 34 31 65q43 42 131 159 q66 86 147 143q27 19 53 19q36 0 63 -28.5t27 -64.5q0 -40 -38 -70q-70 -56 -135 -145q-68 -94 -129 -145q-28 -25 -59 -25z"/>
<glyph glyph-name="Icircumflex" horiz-adv-x="1119" unicode="Î" d="M957 1246q-64 0 -161 13l-161 21q-23 -291 -23 -556q0 -70 4 -173t4 -173q0 -94 -7 -171l315 4q42 0 70.5 -29.5t28.5 -72.5q0 -44 -28.5 -73.5t-70.5 -29.5q-56 0 -168 -2.5t-168 -2.5q-66 0 -197.5 -18.5t-198.5 -18.5q-42 0 -70.5 29.5t-28.5 72.5t28.5 73t70.5 30 q65 0 215 21q10 81 10 185q0 69 -6.5 168.5t-6.5 167.5q0 231 28 577l-130 -4l-130 -3q-43 0 -72 29t-29 74q0 93 94 102q81 8 303 8q199 0 499 -43q89 -13 89 -107q0 -47 -34 -75q-30 -23 -69 -23zM574 2177q55 0 132 -67q24 -21 109 -112l159 -170q26 -30 26 -61 q0 -36 -27.5 -63.5t-64.5 -27.5q-33 0 -63 29q-80 90 -250 260q-254 -312 -326 -312q-36 0 -63.5 28t-27.5 64q0 35 30 65q56 54 305 336q27 31 61 31z"/>
<glyph glyph-name="Idieresis" horiz-adv-x="1119" unicode="Ï" d="M957 1246q-64 0 -161 13l-161 21q-23 -291 -23 -556q0 -70 4 -173t4 -173q0 -94 -7 -171l315 4q42 0 70.5 -29.5t28.5 -72.5q0 -44 -28.5 -73.5t-70.5 -29.5q-56 0 -168 -2.5t-168 -2.5q-66 0 -197.5 -18.5t-198.5 -18.5q-42 0 -70.5 29.5t-28.5 72.5t28.5 73t70.5 30 q65 0 215 21q10 81 10 185q0 69 -6.5 168.5t-6.5 167.5q0 231 28 577l-130 -4l-130 -3q-43 0 -72 29t-29 74q0 93 94 102q81 8 303 8q199 0 499 -43q89 -13 89 -107q0 -47 -34 -75q-30 -23 -69 -23zM873 1850q34 0 69 -31.5t35 -61.5q0 -92 -143 -92q-41 0 -73 21 q-36 24 -36 63q0 69 45 89q25 12 103 12zM334 1842q131 0 131 -105q0 -30 -44 -58q-40 -25 -75 -25q-123 0 -123 103q0 29 37.5 57t73.5 28z"/>
<glyph glyph-name="Eth" horiz-adv-x="1478" unicode="Ð" d="M395 1295l8 -501q43 0 130.5 -8.5t131.5 -8.5t72 -27.5t28 -71.5q0 -43 -28 -71t-71 -28q-45 0 -133 8t-132 8l-14 -421q132 -72 243 -72q227 0 332 70q98 66 155 178t57 232q0 189 -133 337q-104 117 -306 221q-54 29 -340 155zM631 -99q-80 0 -176 25q-106 27 -161 68 h-10q-101 0 -101 103q0 97 7 249l10 249q-13 0 -45.5 -1.5t-50.5 -1.5q-148 0 -148 103q0 102 149 102q18 0 51 -1.5t46 -1.5l-5 315l-4 316q0 42 42 86.5t84 44.5q24 0 160 -66q158 -77 178 -84q297 -109 490 -304q229 -232 229 -515q0 -171 -80 -327q-81 -159 -220 -253 q-156 -106 -445 -106z"/>
<glyph glyph-name="Ntilde" horiz-adv-x="1632" unicode="Ñ" d="M1541 222q0 -48 -16 -160q-16 -101 -107 -101q-55 0 -131 72q-407 385 -934 1111l-5 -227l-3 -228q0 -83 3.5 -249t3.5 -250q0 -269 -104 -269q-55 0 -87 35q-29 31 -29 74q0 42 6.5 127t6.5 127q0 62 4 185.5t4 185.5q0 66 -3 199.5t-3 199.5q0 63 -12 187.5t-12 187.5 q0 46 39.5 84t89.5 38q53 0 131 -116q249 -373 448 -620q237 -293 520 -560q2 22 1.5 53.5t-1.5 73.5l-3 126q0 439 -34 699q-4 26 -27 105q-20 68 -20 106q0 116 106 116q174 0 174 -649q0 -111 -3 -331.5t-3 -331.5zM655 2024q100 0 161 -58l83 -106q47 -58 112 -58 q57 0 85 37l46 88l20 59q14 29 60 29q75 0 75 -74q0 -36 -43 -121q-40 -80 -69 -110q-56 -57 -143 -57q-131 0 -205 57q-27 21 -88 107q-42 57 -94 57q-31 0 -55.5 -11.5t-42.5 -34.5l-44 -85q-25 -45 -65 -45q-31 0 -54 20.5t-23 51.5q0 11 3 23q28 102 101 165 q78 66 180 66z"/>
<glyph glyph-name="Ograve" horiz-adv-x="1635" unicode="Ò" d="M892 1310q-245 0 -415 -244q-157 -224 -157 -494q0 -193 143 -314q137 -114 339 -114q243 0 401 245q141 219 141 492q0 239 -107 336q-102 93 -345 93zM802 -61q-282 0 -478 169q-208 180 -208 464q0 346 205 629q229 314 571 314q329 0 489 -148q167 -154 167 -486 q0 -346 -188 -624q-216 -318 -558 -318zM1221 1737q0 -36 -28.5 -62.5t-64.5 -26.5q-43 0 -72 42l-100 149q-53 73 -124 128q-39 30 -39 71q0 36 26.5 64.5t62.5 28.5q62 0 202 -166q137 -164 137 -228z"/>
<glyph glyph-name="Oacute" horiz-adv-x="1635" unicode="Ó" d="M892 1310q-245 0 -415 -244q-157 -224 -157 -494q0 -193 143 -314q137 -114 339 -114q243 0 401 245q141 219 141 492q0 239 -107 336q-102 93 -345 93zM802 -61q-282 0 -478 169q-208 180 -208 464q0 346 205 629q229 314 571 314q329 0 489 -148q167 -154 167 -486 q0 -346 -188 -624q-216 -318 -558 -318zM969 1637q-36 0 -63.5 28t-27.5 64q0 34 31 65q43 42 131 159q66 86 147 143q27 19 53 19q36 0 63 -28.5t27 -64.5q0 -40 -38 -70q-70 -56 -135 -145q-68 -94 -129 -145q-28 -25 -59 -25z"/>
<glyph glyph-name="Ocircumflex" horiz-adv-x="1635" unicode="Ô" d="M892 1310q-245 0 -415 -244q-157 -224 -157 -494q0 -193 143 -314q137 -114 339 -114q243 0 401 245q141 219 141 492q0 239 -107 336q-102 93 -345 93zM802 -61q-282 0 -478 169q-208 180 -208 464q0 346 205 629q229 314 571 314q329 0 489 -148q167 -154 167 -486 q0 -346 -188 -624q-216 -318 -558 -318zM980 2140q55 0 132 -67q24 -21 109 -112l159 -170q26 -30 26 -61q0 -36 -27.5 -63.5t-64.5 -27.5q-33 0 -63 29q-80 90 -250 260q-254 -312 -326 -312q-36 0 -63.5 28t-27.5 64q0 35 30 65q56 54 305 336q27 31 61 31z"/>
<glyph glyph-name="Otilde" horiz-adv-x="1635" unicode="Õ" d="M892 1310q-245 0 -415 -244q-157 -224 -157 -494q0 -193 143 -314q137 -114 339 -114q243 0 401 245q141 219 141 492q0 239 -107 336q-102 93 -345 93zM802 -61q-282 0 -478 169q-208 180 -208 464q0 346 205 629q229 314 571 314q329 0 489 -148q167 -154 167 -486 q0 -346 -188 -624q-216 -318 -558 -318zM811 2007q100 0 161 -58l83 -106q47 -58 112 -58q57 0 85 37l46 88l20 59q14 29 60 29q75 0 75 -74q0 -36 -43 -121q-40 -80 -69 -110q-56 -57 -143 -57q-131 0 -205 57q-27 21 -88 107q-42 57 -94 57q-31 0 -55.5 -11.5t-42.5 -34.5 l-44 -85q-25 -45 -65 -45q-31 0 -54 20.5t-23 51.5q0 11 3 23q28 102 101 165q78 66 180 66z"/>
<glyph glyph-name="Odieresis" horiz-adv-x="1635" unicode="Ö" d="M892 1310q-245 0 -415 -244q-157 -224 -157 -494q0 -193 143 -314q137 -114 339 -114q243 0 401 245q141 219 141 492q0 239 -107 336q-102 93 -345 93zM802 -61q-282 0 -478 169q-208 180 -208 464q0 346 205 629q229 314 571 314q329 0 489 -148q167 -154 167 -486 q0 -346 -188 -624q-216 -318 -558 -318zM1221 1856q34 0 69 -31.5t35 -61.5q0 -92 -143 -92q-41 0 -73 21q-36 24 -36 63q0 69 45 89q25 12 103 12zM682 1848q131 0 131 -105q0 -30 -44 -58q-40 -25 -75 -25q-123 0 -123 103q0 29 37.5 57t73.5 28z"/>
<glyph glyph-name="multiply" horiz-adv-x="984" unicode="×" d="M601 638q69 -51 136 -124q90 -98 90 -153q0 -40 -22 -71q-25 -34 -63 -34q-73 0 -155 132q-30 49 -96 93q-72 -89 -148 -186q-25 -71 -95 -71q-42 0 -71 26.5t-29 67.5q0 58 51 116q82 93 84 97q16 27 50 81q-71 71 -104 101q-60 55 -114 91q-48 32 -48 81 q0 41 29.5 72.5t69.5 31.5q68 0 286 -216q78 93 165 160q20 15 56 48q33 39 75 39q40 0 71.5 -30.5t31.5 -70.5q0 -49 -69 -108l-108 -88q-35 -36 -73 -85z"/>
<glyph glyph-name="Oslash" horiz-adv-x="1635" unicode="Ø" d="M177 -90q-37 0 -65.5 27.5t-28.5 64.5q0 25 70 103l94 101q-117 158 -117 366q0 351 209 633q229 310 567 310q299 0 458 -122q146 149 173 149q37 0 65.5 -26t28.5 -62q0 -38 -150 -197q81 -144 81 -376q0 -352 -192 -630q-216 -312 -554 -312q-261 0 -452 148l-92 -102 q-69 -75 -95 -75zM388 363l414 442l418 437q-103 68 -314 68q-250 0 -420 -251q-152 -225 -152 -487q0 -115 54 -209zM1328 1099q-115 -108 -275 -280l-266 -288l-280 -295q131 -92 309 -92q250 0 407 253q135 219 135 484q0 132 -30 218z"/>
<glyph glyph-name="Ugrave" horiz-adv-x="1509" unicode="Ù" d="M790 -40q-311 0 -464 179q-124 144 -156 426q-15 127 -15 507q0 140 6 226q6 91 18 127q25 73 90 73q92 0 92 -169v-587q0 -606 424 -606q399 0 399 1020v98q-1 60 -1 80q0 62 22 109q28 60 83 60q100 0 100 -137q0 -41 1 -124v-124q0 -1158 -599 -1158zM927 1723 q0 -36 -28.5 -62.5t-64.5 -26.5q-43 0 -72 42l-100 149q-53 73 -124 128q-39 30 -39 71q0 36 26.5 64.5t62.5 28.5q62 0 202 -166q137 -164 137 -228z"/>
<glyph glyph-name="Uacute" horiz-adv-x="1509" unicode="Ú" d="M790 -40q-311 0 -464 179q-124 144 -156 426q-15 127 -15 507q0 140 6 226q6 91 18 127q25 73 90 73q92 0 92 -169v-587q0 -606 424 -606q399 0 399 1020v98q-1 60 -1 80q0 62 22 109q28 60 83 60q100 0 100 -137q0 -41 1 -124v-124q0 -1158 -599 -1158zM767 1643 q-36 0 -63.5 28t-27.5 64q0 34 31 65q43 42 131 159q66 86 147 143q27 19 53 19q36 0 63 -28.5t27 -64.5q0 -40 -38 -70q-70 -56 -135 -145q-68 -94 -129 -145q-28 -25 -59 -25z"/>
<glyph glyph-name="Ucircumflex" horiz-adv-x="1509" unicode="Û" d="M790 -40q-311 0 -464 179q-124 144 -156 426q-15 127 -15 507q0 140 6 226q6 91 18 127q25 73 90 73q92 0 92 -169v-587q0 -606 424 -606q399 0 399 1020v98q-1 60 -1 80q0 62 22 109q28 60 83 60q100 0 100 -137q0 -41 1 -124v-124q0 -1158 -599 -1158zM818 2146 q55 0 132 -67q24 -21 109 -112l159 -170q26 -30 26 -61q0 -36 -27.5 -63.5t-64.5 -27.5q-33 0 -63 29q-80 90 -250 260q-254 -312 -326 -312q-36 0 -63.5 28t-27.5 64q0 35 30 65q56 54 305 336q27 31 61 31z"/>
<glyph glyph-name="Udieresis" horiz-adv-x="1509" unicode="Ü" d="M790 -40q-311 0 -464 179q-124 144 -156 426q-15 127 -15 507q0 140 6 226q6 91 18 127q25 73 90 73q92 0 92 -169v-587q0 -606 424 -606q399 0 399 1020v98q-1 60 -1 80q0 62 22 109q28 60 83 60q100 0 100 -137q0 -41 1 -124v-124q0 -1158 -599 -1158zM1110 1833 q34 0 69 -31.5t35 -61.5q0 -92 -143 -92q-41 0 -73 21q-36 24 -36 63q0 69 45 89q25 12 103 12zM571 1825q131 0 131 -105q0 -30 -44 -58q-40 -25 -75 -25q-123 0 -123 103q0 29 37.5 57t73.5 28z"/>
<glyph glyph-name="Yacute" horiz-adv-x="1301" unicode="Ý" d="M1172 1279q-24 -38 -64 -117l-172 -425q-100 -239 -188 -418l-125 -223l-53 -108q-33 -58 -89 -58q-39 0 -71 29t-32 72q0 34 94 213l123 225q-179 231 -232 364q-45 113 -150 271q-144 216 -169 261q-15 27 -15 54q0 43 31.5 72.5t71.5 29.5q49 0 82 -47l80 -124 q106 -157 140 -214q75 -123 117 -228q33 -83 141 -227l229 558q39 69 108 213q28 68 93 68q40 0 71.5 -28t31.5 -72q0 -46 -53 -141zM666 1728q-36 0 -63.5 28t-27.5 64q0 34 31 65q43 42 131 159q66 86 147 143q27 19 53 19q36 0 63 -28.5t27 -64.5q0 -40 -38 -70 q-70 -56 -135 -145q-68 -94 -129 -145q-28 -25 -59 -25z"/>
<glyph glyph-name="Thorn" horiz-adv-x="1066" unicode="Þ" d="M325 1371v-21l167 8h20q141 0 291 -93q208 -131 208 -363q0 -248 -188 -395q-168 -131 -404 -131q-37 0 -134 16l-2 -321q0 -40 -26 -67.5t-65 -27.5q-40 0 -66 27.5t-26 67.5v294q0 147 18 414q20 289 22 414v138q0 99 12 144q21 76 96 76h2q79 -1 79 -126q0 -28 -4 -54 zM323 1169l-33 -586q103 -17 129 -17q168 0 283 85q126 94 126 251q0 112 -120 193q-111 74 -239 74h-146z"/>
<glyph glyph-name="germandbls" horiz-adv-x="908" unicode="ß" d="M502 1379q-100 0 -158.5 -95.5t-75.5 -286.5q-18 -209 -18 -451q0 -61 3.5 -183t3.5 -184q0 -154 -8 -201q-22 -135 -105 -135q-40 0 -69 26t-29 65q0 7 2 20q20 137 20 264q0 53 5 159t5 159q0 39 -1 116.5t-1 115.5q0 347 58 517q97 285 372 285q162 0 254 -126 q81 -112 81 -280q0 -145 -206 -349q125 -85 187.5 -220.5t62.5 -320.5q0 -174 -85 -261t-255 -87q-90 0 -160 46q-80 53 -80 138q0 77 65 77q30 0 79.5 -36.5t90.5 -36.5q83 0 118 31q39 34 39 118q0 191 -78 306q-40 58 -145 136q-78 58 -78 108q0 43 63 103l117 110 q63 72 63 144q0 105 -34 157t-103 52z"/>
<glyph glyph-name="agrave" horiz-adv-x="1048" unicode="à" d="M727 629q0 43 5.5 93.5t16.5 107.5q-37 19 -63.5 28t-42.5 9q-155 0 -267.5 -126.5t-112.5 -291.5q0 -164 58 -246t174 -82q96 0 163 35q36 19 101 76q-32 265 -32 397zM935 -66q-19 0 -69 44q-45 41 -67 73q-96 -52 -169 -78.5t-122 -26.5q-234 0 -341 132 q-101 124 -101 380q0 242 166.5 414t397.5 172q87 0 195 -45q136 -56 136 -135q0 -27 -20 -48q-10 -38 -15.5 -125t-6.5 -223v-13q0 -115 17 -183q10 -44 63 -176q7 -18 23 -53l6 -17q0 -40 -28 -66t-65 -26zM748 1260q0 -36 -28.5 -62.5t-64.5 -26.5q-43 0 -72 42l-100 149 q-53 73 -124 128q-39 30 -39 71q0 36 26.5 64.5t62.5 28.5q62 0 202 -166q137 -164 137 -228z"/>
<glyph glyph-name="aacute" horiz-adv-x="1048" unicode="á" d="M727 629q0 43 5.5 93.5t16.5 107.5q-37 19 -63.5 28t-42.5 9q-155 0 -267.5 -126.5t-112.5 -291.5q0 -164 58 -246t174 -82q96 0 163 35q36 19 101 76q-32 265 -32 397zM935 -66q-19 0 -69 44q-45 41 -67 73q-96 -52 -169 -78.5t-122 -26.5q-234 0 -341 132 q-101 124 -101 380q0 242 166.5 414t397.5 172q87 0 195 -45q136 -56 136 -135q0 -27 -20 -48q-10 -38 -15.5 -125t-6.5 -223v-13q0 -115 17 -183q10 -44 63 -176q7 -18 23 -53l6 -17q0 -40 -28 -66t-65 -26zM583 1187q-36 0 -63.5 28t-27.5 64q0 34 31 65q43 42 131 159 q66 86 147 143q27 19 53 19q36 0 63 -28.5t27 -64.5q0 -40 -38 -70q-70 -56 -135 -145q-68 -94 -129 -145q-28 -25 -59 -25z"/>
<glyph glyph-name="acircumflex" horiz-adv-x="1048" unicode="â" d="M727 629q0 43 5.5 93.5t16.5 107.5q-37 19 -63.5 28t-42.5 9q-155 0 -267.5 -126.5t-112.5 -291.5q0 -164 58 -246t174 -82q96 0 163 35q36 19 101 76q-32 265 -32 397zM935 -66q-19 0 -69 44q-45 41 -67 73q-96 -52 -169 -78.5t-122 -26.5q-234 0 -341 132 q-101 124 -101 380q0 242 166.5 414t397.5 172q87 0 195 -45q136 -56 136 -135q0 -27 -20 -48q-10 -38 -15.5 -125t-6.5 -223v-13q0 -115 17 -183q10 -44 63 -176q7 -18 23 -53l6 -17q0 -40 -28 -66t-65 -26zM559 1698q55 0 132 -67q24 -21 109 -112l159 -170q26 -30 26 -61 q0 -36 -27.5 -63.5t-64.5 -27.5q-33 0 -63 29q-80 90 -250 260q-254 -312 -326 -312q-36 0 -63.5 28t-27.5 64q0 35 30 65q56 54 305 336q27 31 61 31z"/>
<glyph glyph-name="atilde" horiz-adv-x="1048" unicode="ã" d="M727 629q0 43 5.5 93.5t16.5 107.5q-37 19 -63.5 28t-42.5 9q-155 0 -267.5 -126.5t-112.5 -291.5q0 -164 58 -246t174 -82q96 0 163 35q36 19 101 76q-32 265 -32 397zM935 -66q-19 0 -69 44q-45 41 -67 73q-96 -52 -169 -78.5t-122 -26.5q-234 0 -341 132 q-101 124 -101 380q0 242 166.5 414t397.5 172q87 0 195 -45q136 -56 136 -135q0 -27 -20 -48q-10 -38 -15.5 -125t-6.5 -223v-13q0 -115 17 -183q10 -44 63 -176q7 -18 23 -53l6 -17q0 -40 -28 -66t-65 -26zM425 1534q100 0 161 -58l83 -106q47 -58 112 -58q57 0 85 37 l46 88l20 59q14 29 60 29q75 0 75 -74q0 -36 -43 -121q-40 -80 -69 -110q-56 -57 -143 -57q-131 0 -205 57q-27 21 -88 107q-42 57 -94 57q-31 0 -55.5 -11.5t-42.5 -34.5l-44 -85q-25 -45 -65 -45q-31 0 -54 20.5t-23 51.5q0 11 3 23q28 102 101 165q78 66 180 66z"/>
<glyph glyph-name="adieresis" horiz-adv-x="1048" unicode="ä" d="M727 629q0 43 5.5 93.5t16.5 107.5q-37 19 -63.5 28t-42.5 9q-155 0 -267.5 -126.5t-112.5 -291.5q0 -164 58 -246t174 -82q96 0 163 35q36 19 101 76q-32 265 -32 397zM935 -66q-19 0 -69 44q-45 41 -67 73q-96 -52 -169 -78.5t-122 -26.5q-234 0 -341 132 q-101 124 -101 380q0 242 166.5 414t397.5 172q87 0 195 -45q136 -56 136 -135q0 -27 -20 -48q-10 -38 -15.5 -125t-6.5 -223v-13q0 -115 17 -183q10 -44 63 -176q7 -18 23 -53l6 -17q0 -40 -28 -66t-65 -26zM884 1380q34 0 69 -31.5t35 -61.5q0 -92 -143 -92q-41 0 -73 21 q-36 24 -36 63q0 69 45 89q25 12 103 12zM345 1372q131 0 131 -105q0 -30 -44 -58q-40 -25 -75 -25q-123 0 -123 103q0 29 37.5 57t73.5 28z"/>
<glyph glyph-name="aring" horiz-adv-x="1048" unicode="å" d="M727 629q0 43 5.5 93.5t16.5 107.5q-37 19 -63.5 28t-42.5 9q-155 0 -267.5 -126.5t-112.5 -291.5q0 -164 58 -246t174 -82q96 0 163 35q36 19 101 76q-32 265 -32 397zM935 -66q-19 0 -69 44q-45 41 -67 73q-96 -52 -169 -78.5t-122 -26.5q-234 0 -341 132 q-101 124 -101 380q0 242 166.5 414t397.5 172q87 0 195 -45q136 -56 136 -135q0 -27 -20 -48q-10 -38 -15.5 -125t-6.5 -223v-13q0 -115 17 -183q10 -44 63 -176q7 -18 23 -53l6 -17q0 -40 -28 -66t-65 -26zM279 1449q0 145 103 229q99 80 260 80q125 0 214 -70 q97 -77 97 -199q0 -148 -89.5 -224t-268.5 -79h-7q-131 0 -219 76q-90 77 -90 187zM610 1333q86 3 126 24q67 36 67 132q0 58 -54 91q-45 29 -107 29q-213 0 -213 -154v-6q1 -46 61 -82q57 -34 114 -34h6z"/>
<glyph glyph-name="ae" horiz-adv-x="1867" unicode="æ" d="M790 828l-70 35q-19 7 -77 7q-158 0 -272 -134q-108 -127 -108 -288q0 -126 86 -228q91 -107 215 -107q67 0 123.5 25.5t102.5 76.5q-22 126 -22 168q0 281 22 445zM806 54q-42 -40 -114 -71q-76 -32 -136 -32q-217 0 -355 147q-134 143 -134 362q0 235 179 405 q175 167 412 167q103 0 242 -49q32 -11 39 -113q56 82 156 130q94 45 194 45q160 0 265 -53q135 -70 135 -215q0 -102 -117 -185q-47 -33 -208 -109l-382 -181q112 -167 334 -167q81 0 169 27q105 32 145 85.5t73 53.5q35 0 62.5 -26.5t27.5 -61.5q0 -116 -188 -195 q-153 -64 -289 -64q-232 0 -339 113q10 -41 10 -72q0 -37 -77 -37q-53 0 -75 26q-13 15 -29 70zM1289 865q-245 0 -324 -379l292 133q173 82 273 166q-86 80 -241 80z"/>
<glyph glyph-name="ccedilla" horiz-adv-x="1052" unicode="ç" d="M770 -196q0 -124 -60.5 -186.5t-181.5 -62.5q-85 0 -161 32q-96 42 -96 115q0 54 68 54q36 0 81.5 -24.5t96.5 -24.5q49 1 73 24t24 68q0 48 -37.5 86t-113.5 67q-159 36 -255 152q-103 123 -103 300q0 203 135 419q150 240 338 240q98 0 219 -46q153 -59 153 -144 q0 -38 -25 -67.5t-62 -29.5q-29 0 -50.5 17.5t-41.5 34.5q-59 47 -193 47q-102 0 -202 -182q-91 -167 -91 -289q0 -132 90 -208q84 -71 216 -71q60 0 128 32l116 62q30 16 43 16q37 0 64 -29.5t27 -67.5q0 -103 -256 -178q29 -38 43 -77t14 -79z"/>
<glyph glyph-name="egrave" horiz-adv-x="1122" unicode="è" d="M579 865q-122 0 -203 -94.5t-121 -284.5l307 146q181 88 258 153q-86 80 -241 80zM606 -46q-226 0 -366 113q-153 125 -153 350q0 260 126 436q137 192 366 192q166 0 271 -56q129 -69 129 -212q0 -100 -113 -182q-50 -36 -212 -112l-382 -181q56 -83 139.5 -125 t194.5 -42q69 0 162 26q118 33 152 86.5t73 53.5q35 0 62.5 -26.5t27.5 -61.5q0 -111 -179 -191q-153 -68 -298 -68zM735 1267q0 -36 -28.5 -62.5t-64.5 -26.5q-43 0 -72 42l-100 149q-53 73 -124 128q-39 30 -39 71q0 36 26.5 64.5t62.5 28.5q62 0 202 -166 q137 -164 137 -228z"/>
<glyph glyph-name="eacute" horiz-adv-x="1122" unicode="é" d="M579 865q-122 0 -203 -94.5t-121 -284.5l307 146q181 88 258 153q-86 80 -241 80zM606 -46q-226 0 -366 113q-153 125 -153 350q0 260 126 436q137 192 366 192q166 0 271 -56q129 -69 129 -212q0 -100 -113 -182q-50 -36 -212 -112l-382 -181q56 -83 139.5 -125 t194.5 -42q69 0 162 26q118 33 152 86.5t73 53.5q35 0 62.5 -26.5t27.5 -61.5q0 -111 -179 -191q-153 -68 -298 -68zM595 1187q-36 0 -63.5 28t-27.5 64q0 34 31 65q43 42 131 159q66 86 147 143q27 19 53 19q36 0 63 -28.5t27 -64.5q0 -40 -38 -70q-70 -56 -135 -145 q-68 -94 -129 -145q-28 -25 -59 -25z"/>
<glyph glyph-name="ecircumflex" horiz-adv-x="1122" unicode="ê" d="M579 865q-122 0 -203 -94.5t-121 -284.5l307 146q181 88 258 153q-86 80 -241 80zM606 -46q-226 0 -366 113q-153 125 -153 350q0 260 126 436q137 192 366 192q166 0 271 -56q129 -69 129 -212q0 -100 -113 -182q-50 -36 -212 -112l-382 -181q56 -83 139.5 -125 t194.5 -42q69 0 162 26q118 33 152 86.5t73 53.5q35 0 62.5 -26.5t27.5 -61.5q0 -111 -179 -191q-153 -68 -298 -68zM585 1690q55 0 132 -67q24 -21 109 -112l159 -170q26 -30 26 -61q0 -36 -27.5 -63.5t-64.5 -27.5q-33 0 -63 29q-80 90 -250 260q-254 -312 -326 -312 q-36 0 -63.5 28t-27.5 64q0 35 30 65q56 54 305 336q27 31 61 31z"/>
<glyph glyph-name="edieresis" horiz-adv-x="1122" unicode="ë" d="M579 865q-122 0 -203 -94.5t-121 -284.5l307 146q181 88 258 153q-86 80 -241 80zM606 -46q-226 0 -366 113q-153 125 -153 350q0 260 126 436q137 192 366 192q166 0 271 -56q129 -69 129 -212q0 -100 -113 -182q-50 -36 -212 -112l-382 -181q56 -83 139.5 -125 t194.5 -42q69 0 162 26q118 33 152 86.5t73 53.5q35 0 62.5 -26.5t27.5 -61.5q0 -111 -179 -191q-153 -68 -298 -68zM917 1477q34 0 69 -31.5t35 -61.5q0 -92 -143 -92q-41 0 -73 21q-36 24 -36 63q0 69 45 89q25 12 103 12zM378 1469q131 0 131 -105q0 -30 -44 -58 q-40 -25 -75 -25q-123 0 -123 103q0 29 37.5 57t73.5 28z"/>
<glyph glyph-name="igrave" horiz-adv-x="574" unicode="ì" d="M375 454q0 -60 3.5 -179.5t3.5 -179.5q0 -44 -27 -72t-71 -28q-43 0 -70.5 28t-27.5 72q0 60 -3.5 179.5t-3.5 179.5q0 94 10 234.5t10 234.5q0 45 27.5 73t70.5 28t70.5 -28t27.5 -73q0 -94 -10 -234.5t-10 -234.5zM453 1267q0 -36 -28.5 -62.5t-64.5 -26.5 q-43 0 -72 42l-100 149q-53 73 -124 128q-39 30 -39 71q0 36 26.5 64.5t62.5 28.5q62 0 202 -166q137 -164 137 -228z"/>
<glyph glyph-name="iacute" horiz-adv-x="574" unicode="í" d="M375 454q0 -60 3.5 -179.5t3.5 -179.5q0 -44 -27 -72t-71 -28q-43 0 -70.5 28t-27.5 72q0 60 -3.5 179.5t-3.5 179.5q0 94 10 234.5t10 234.5q0 45 27.5 73t70.5 28t70.5 -28t27.5 -73q0 -94 -10 -234.5t-10 -234.5zM187 1187q-36 0 -63.5 28t-27.5 64q0 34 31 65 q43 42 131 159q66 86 147 143q27 19 53 19q36 0 63 -28.5t27 -64.5q0 -40 -38 -70q-70 -56 -135 -145q-68 -94 -129 -145q-28 -25 -59 -25z"/>
<glyph glyph-name="icircumflex" horiz-adv-x="574" unicode="î" d="M375 454q0 -60 3.5 -179.5t3.5 -179.5q0 -44 -27 -72t-71 -28q-43 0 -70.5 28t-27.5 72q0 60 -3.5 179.5t-3.5 179.5q0 94 10 234.5t10 234.5q0 45 27.5 73t70.5 28t70.5 -28t27.5 -73q0 -94 -10 -234.5t-10 -234.5zM254 1640q55 0 132 -67q24 -21 109 -112l159 -170 q26 -30 26 -61q0 -36 -27.5 -63.5t-64.5 -27.5q-33 0 -63 29q-80 90 -250 260q-254 -312 -326 -312q-36 0 -63.5 28t-27.5 64q0 35 30 65q56 54 305 336q27 31 61 31z"/>
<glyph glyph-name="idieresis" horiz-adv-x="574" unicode="ï" d="M375 454q0 -60 3.5 -179.5t3.5 -179.5q0 -44 -27 -72t-71 -28q-43 0 -70.5 28t-27.5 72q0 60 -3.5 179.5t-3.5 179.5q0 94 10 234.5t10 234.5q0 45 27.5 73t70.5 28t70.5 -28t27.5 -73q0 -94 -10 -234.5t-10 -234.5zM528 1380q34 0 69 -31.5t35 -61.5q0 -92 -143 -92 q-41 0 -73 21q-36 24 -36 63q0 69 45 89q25 12 103 12zM-11 1372q131 0 131 -105q0 -30 -44 -58q-40 -25 -75 -25q-123 0 -123 103q0 29 37.5 57t73.5 28z"/>
<glyph glyph-name="eth" horiz-adv-x="1042" unicode="ð" d="M459 1280l-91 75q-59 51 -59 91q0 36 27.5 64t63.5 28q61 0 208 -174q174 91 238 91q41 0 67.5 -26.5t26.5 -67.5q0 -35 -29 -57l-65 -37l-122 -56q267 -389 267 -666q0 -239 -95 -396q-115 -190 -339 -190q-151 0 -263 126q-109 121 -109 274q0 212 149 372 q142 152 355 193q-53 113 -112 205l-117 -71q-93 -54 -120 -54q-38 0 -65.5 30t-27.5 69q0 45 47 78q26 18 165 99zM364 359q0 -78 56 -148q60 -74 137 -74q144 0 208 141q48 104 48 267q0 57 -57 218q-53 -13 -157 -46q-235 -93 -235 -358z"/>
<glyph glyph-name="ntilde" horiz-adv-x="1072" unicode="ñ" d="M906 -71q-86 0 -97 94l-28 219q-14 117 -14 219q0 28 3.5 95t3.5 95q0 216 -80 216q-112 0 -214 -133q-92 -121 -144 -306q-2 -39 -9 -98q-6 -50 -6 -97q0 -30 6 -90t6 -90q0 -45 -27.5 -73t-70.5 -28q-44 0 -71 28t-27 73q0 30 -6.5 90t-6.5 90q0 103 14.5 285.5 t14.5 285.5q0 32 -3.5 95t-3.5 95q0 43 28.5 70.5t70.5 27.5q92 0 101 -130l3 -117q168 224 345 224q160 0 223 -141q43 -94 47 -278v-101l-1 -93q0 -83 21.5 -214.5t21.5 -213.5q0 -44 -28.5 -71.5t-71.5 -27.5zM432 1554q100 0 161 -58l83 -106q47 -58 112 -58q57 0 85 37 l46 88l20 59q14 29 60 29q75 0 75 -74q0 -36 -43 -121q-40 -80 -69 -110q-56 -57 -143 -57q-131 0 -205 57q-27 21 -88 107q-42 57 -94 57q-31 0 -55.5 -11.5t-42.5 -34.5l-44 -85q-25 -45 -65 -45q-31 0 -54 20.5t-23 51.5q0 11 3 23q28 102 101 165q78 66 180 66z"/>
<glyph glyph-name="ograve" horiz-adv-x="1077" unicode="ò" d="M580 834h-2q-146 0 -227 -140q-65 -113 -65 -258t79 -226q66 -67 155 -67q104 0 179 76q85 84 90 227q1 23 1 44q0 343 -210 344zM520 -59q-168 0 -289 124q-135 138 -142 371v21q0 213 114 377q140 203 390 203q200 0 303 -183q79 -143 79 -341v-15q-3 -222 -116 -379 q-128 -178 -339 -178zM808 1267q0 -36 -28.5 -62.5t-64.5 -26.5q-43 0 -72 42l-100 149q-53 73 -124 128q-39 30 -39 71q0 36 26.5 64.5t62.5 28.5q62 0 202 -166q137 -164 137 -228z"/>
<glyph glyph-name="oacute" horiz-adv-x="1077" unicode="ó" d="M580 834h-2q-146 0 -227 -140q-65 -113 -65 -258t79 -226q66 -67 155 -67q104 0 179 76q85 84 90 227q1 23 1 44q0 343 -210 344zM520 -59q-168 0 -289 124q-135 138 -142 371v21q0 213 114 377q140 203 390 203q200 0 303 -183q79 -143 79 -341v-15q-3 -222 -116 -379 q-128 -178 -339 -178zM582 1187q-36 0 -63.5 28t-27.5 64q0 34 31 65q43 42 131 159q66 86 147 143q27 19 53 19q36 0 63 -28.5t27 -64.5q0 -40 -38 -70q-70 -56 -135 -145q-68 -94 -129 -145q-28 -25 -59 -25z"/>
<glyph glyph-name="ocircumflex" horiz-adv-x="1077" unicode="ô" d="M580 834h-2q-146 0 -227 -140q-65 -113 -65 -258t79 -226q66 -67 155 -67q104 0 179 76q85 84 90 227q1 23 1 44q0 343 -210 344zM520 -59q-168 0 -289 124q-135 138 -142 371v21q0 213 114 377q140 203 390 203q200 0 303 -183q79 -143 79 -341v-15q-3 -222 -116 -379 q-128 -178 -339 -178zM568 1690q55 0 132 -67q24 -21 109 -112l159 -170q26 -30 26 -61q0 -36 -27.5 -63.5t-64.5 -27.5q-33 0 -63 29q-80 90 -250 260q-254 -312 -326 -312q-36 0 -63.5 28t-27.5 64q0 35 30 65q56 54 305 336q27 31 61 31z"/>
<glyph glyph-name="otilde" horiz-adv-x="1077" unicode="õ" d="M580 834h-2q-146 0 -227 -140q-65 -113 -65 -258t79 -226q66 -67 155 -67q104 0 179 76q85 84 90 227q1 23 1 44q0 343 -210 344zM520 -59q-168 0 -289 124q-135 138 -142 371v21q0 213 114 377q140 203 390 203q200 0 303 -183q79 -143 79 -341v-15q-3 -222 -116 -379 q-128 -178 -339 -178zM451 1554q100 0 161 -58l83 -106q47 -58 112 -58q57 0 85 37l46 88l20 59q14 29 60 29q75 0 75 -74q0 -36 -43 -121q-40 -80 -69 -110q-56 -57 -143 -57q-131 0 -205 57q-27 21 -88 107q-42 57 -94 57q-31 0 -55.5 -11.5t-42.5 -34.5l-44 -85 q-25 -45 -65 -45q-31 0 -54 20.5t-23 51.5q0 11 3 23q28 102 101 165q78 66 180 66z"/>
<glyph glyph-name="odieresis" horiz-adv-x="1077" unicode="ö" d="M580 834h-2q-146 0 -227 -140q-65 -113 -65 -258t79 -226q66 -67 155 -67q104 0 179 76q85 84 90 227q1 23 1 44q0 343 -210 344zM520 -59q-168 0 -289 124q-135 138 -142 371v21q0 213 114 377q140 203 390 203q200 0 303 -183q79 -143 79 -341v-15q-3 -222 -116 -379 q-128 -178 -339 -178zM915 1380q34 0 69 -31.5t35 -61.5q0 -92 -143 -92q-41 0 -73 21q-36 24 -36 63q0 69 45 89q25 12 103 12zM376 1372q131 0 131 -105q0 -30 -44 -58q-40 -25 -75 -25q-123 0 -123 103q0 29 37.5 57t73.5 28z"/>
<glyph glyph-name="divide" horiz-adv-x="984" unicode="÷" d="M380 276q0 37 26 63.5t63 26.5t63 -26.5t26 -63.5q0 -36 -26 -62.5t-63 -26.5t-63 26.5t-26 62.5zM453 1140q89 0 89 -89t-91 -89q-90 0 -90 89t92 89zM627 732q20 0 61 2.5t61 2.5q164 0 164 -94q0 -37 -25 -64.5t-61 -27.5q-12 0 -36 4t-37 4q-92 0 -275.5 -6.5 t-275.5 -6.5q-155 0 -155 92q0 63 51 79q22 7 104 7q58 0 175 6.5t176 6.5q12 0 36.5 -2.5t36.5 -2.5z"/>
<glyph glyph-name="oslash" horiz-adv-x="1077" unicode="ø" d="M125 -52q-26 0 -49 17q-22 16 -22 38q0 50 84 128q9 8 21 20q-71 121 -76 285v21q0 213 114 377q140 203 390 203q156 0 254 -113l16 18q90 104 113 104q24 0 42 -19t18 -43q0 -20 -87 -123q-4 -5 -36 -41q62 -134 62 -306v-16q-3 -222 -116 -379q-128 -178 -339 -178 q-163 0 -282 117q-20 -22 -23 -26q-62 -84 -84 -84zM301 304q126 141 412 471q-51 58 -139 59h-2q-146 0 -226 -140q-66 -113 -66 -258q0 -74 21 -132zM767 662l-405 -455q66 -64 152 -64q104 0 179 76q85 85 90 227q1 25 1 48q0 99 -17 168z"/>
<glyph glyph-name="ugrave" horiz-adv-x="1065" unicode="ù" d="M955 584q0 -72 1 -216t1 -216q0 -22 3.5 -67t3.5 -67q0 -43 -29 -70.5t-71 -27.5q-77 0 -98 95q-125 -65 -288 -65q-131 0 -217 58q-95 64 -113 187q-39 265 -39 472q0 137 30 312q14 87 95 87q43 0 72 -27.5t29 -70.5q0 -46 -14.5 -147t-14.5 -154q0 -167 11 -286 t33 -191q33 -18 65 -27.5t63 -9.5q134 0 283 43l-1 203l-2 194q0 216 19 375q11 92 97 92q43 0 72 -28q27 -26 27 -65v-5zM766 1275q0 -36 -28.5 -62.5t-64.5 -26.5q-43 0 -72 42l-100 149q-53 73 -124 128q-39 30 -39 71q0 36 26.5 64.5t62.5 28.5q62 0 202 -166 q137 -164 137 -228z"/>
<glyph glyph-name="uacute" horiz-adv-x="1065" unicode="ú" d="M955 584q0 -72 1 -216t1 -216q0 -22 3.5 -67t3.5 -67q0 -43 -29 -70.5t-71 -27.5q-77 0 -98 95q-125 -65 -288 -65q-131 0 -217 58q-95 64 -113 187q-39 265 -39 472q0 137 30 312q14 87 95 87q43 0 72 -27.5t29 -70.5q0 -46 -14.5 -147t-14.5 -154q0 -167 11 -286 t33 -191q33 -18 65 -27.5t63 -9.5q134 0 283 43l-1 203l-2 194q0 216 19 375q11 92 97 92q43 0 72 -28q27 -26 27 -65v-5zM570 1187q-36 0 -63.5 28t-27.5 64q0 34 31 65q43 42 131 159q66 86 147 143q27 19 53 19q36 0 63 -28.5t27 -64.5q0 -40 -38 -70q-70 -56 -135 -145 q-68 -94 -129 -145q-28 -25 -59 -25z"/>
<glyph glyph-name="ucircumflex" horiz-adv-x="1065" unicode="û" d="M955 584q0 -72 1 -216t1 -216q0 -22 3.5 -67t3.5 -67q0 -43 -29 -70.5t-71 -27.5q-77 0 -98 95q-125 -65 -288 -65q-131 0 -217 58q-95 64 -113 187q-39 265 -39 472q0 137 30 312q14 87 95 87q43 0 72 -27.5t29 -70.5q0 -46 -14.5 -147t-14.5 -154q0 -167 11 -286 t33 -191q33 -18 65 -27.5t63 -9.5q134 0 283 43l-1 203l-2 194q0 216 19 375q11 92 97 92q43 0 72 -28q27 -26 27 -65v-5zM520 1690q55 0 132 -67q24 -21 109 -112l159 -170q26 -30 26 -61q0 -36 -27.5 -63.5t-64.5 -27.5q-33 0 -63 29q-80 90 -250 260q-254 -312 -326 -312 q-36 0 -63.5 28t-27.5 64q0 35 30 65q56 54 305 336q27 31 61 31z"/>
<glyph glyph-name="udieresis" horiz-adv-x="1065" unicode="ü" d="M955 584q0 -72 1 -216t1 -216q0 -22 3.5 -67t3.5 -67q0 -43 -29 -70.5t-71 -27.5q-77 0 -98 95q-125 -65 -288 -65q-131 0 -217 58q-95 64 -113 187q-39 265 -39 472q0 137 30 312q14 87 95 87q43 0 72 -27.5t29 -70.5q0 -46 -14.5 -147t-14.5 -154q0 -167 11 -286 t33 -191q33 -18 65 -27.5t63 -9.5q134 0 283 43l-1 203l-2 194q0 216 19 375q11 92 97 92q43 0 72 -28q27 -26 27 -65v-5zM870 1472q34 0 69 -31.5t35 -61.5q0 -92 -143 -92q-41 0 -73 21q-36 24 -36 63q0 69 45 89q25 12 103 12zM331 1464q131 0 131 -105q0 -30 -44 -58 q-40 -25 -75 -25q-123 0 -123 103q0 29 37.5 57t73.5 28z"/>
<glyph glyph-name="yacute" horiz-adv-x="1066" unicode="ý" d="M1011 892l-346 -748q-128 -273 -196 -457l-66 -194q-26 -72 -90 -72q-42 0 -72.5 27.5t-30.5 68.5q0 100 216 579l-358 689l-45 73q-27 46 -27 77q0 41 31.5 72t70.5 31q46 0 71 -35q170 -236 365 -672l148 345q80 179 154 308q32 56 84 56q41 0 72.5 -29t31.5 -69 q0 -22 -13 -50zM427 1187q-36 0 -63.5 28t-27.5 64q0 34 31 65q43 42 131 159q66 86 147 143q27 19 53 19q36 0 63 -28.5t27 -64.5q0 -40 -38 -70q-70 -56 -135 -145q-68 -94 -129 -145q-28 -25 -59 -25z"/>
<glyph glyph-name="thorn" horiz-adv-x="1095" unicode="þ" d="M633 832q-92 0 -166 -41q-53 -29 -134 -106q13 -227 13 -477q109 -42 218 -42q125 0 191 93q57 81 57 210q0 363 -179 363zM564 -35q-100 0 -220 32l-2 -478q0 -44 -27.5 -72t-70.5 -28t-70.5 28t-27.5 72l3 400v399q-3 219 -15 399q-22 334 -22 597q0 72 26 121 q30 59 87 59q38 0 64.5 -27.5t26.5 -67.5l-2 -485q172 118 319 118q205 0 300 -182q75 -144 75 -381q0 -216 -116 -356q-123 -148 -328 -148z"/>
<glyph glyph-name="ydieresis" horiz-adv-x="883" unicode="ÿ" d="M1011 892l-346 -748q-128 -273 -196 -457l-66 -194q-26 -72 -90 -72q-42 0 -72.5 27.5t-30.5 68.5q0 100 216 579l-358 689l-45 73q-27 46 -27 77q0 41 31.5 72t70.5 31q46 0 71 -35q170 -236 365 -672l148 345q80 179 154 308q32 56 84 56q41 0 72.5 -29t31.5 -69 q0 -22 -13 -50zM782 1380q34 0 69 -31.5t35 -61.5q0 -92 -143 -92q-41 0 -73 21q-36 24 -36 63q0 69 45 89q25 12 103 12zM243 1372q131 0 131 -105q0 -30 -44 -58q-40 -25 -75 -25q-123 0 -123 103q0 29 37.5 57t73.5 28z"/>
<glyph glyph-name="Amacron" horiz-adv-x="1498" unicode="Ā" d="M897 1113l-286 -461q121 31 367 75zM1250 -30q-92 0 -160 236q-26 90 -65 315q-102 -14 -267 -50l-266 -55q-50 -131 -171 -383q-32 -56 -87 -56q-40 0 -71.5 29t-31.5 72q0 48 151 365q-17 26 -17 60q0 81 98 104q114 214 288 492q237 379 295 379q79 0 108 -110 l63 -336l149 -695l57 -158q29 -81 29 -108q0 -43 -31 -72t-71 -29zM753 1794q39 0 118.5 -4.5t118.5 -4.5q41 0 122 2t121 2q78 0 78 -75q0 -60 -65 -73l-112 -5h-155q-48 0 -144 3t-145 3q-72 0 -72 76q0 51 46 67q24 9 89 9z"/>
<glyph glyph-name="amacron" horiz-adv-x="1048" unicode="ā" d="M712 629q0 43 5.5 93.5t16.5 107.5q-37 19 -63.5 28t-42.5 9q-155 0 -267.5 -126.5t-112.5 -291.5q0 -164 58 -246t174 -82q96 0 163 35q36 19 101 76q-32 265 -32 397zM920 -66q-19 0 -69 44q-45 41 -67 73q-96 -52 -169 -78.5t-122 -26.5q-234 0 -341 132 q-101 124 -101 380q0 242 166.5 414t397.5 172q87 0 195 -45q136 -56 136 -135q0 -27 -20 -48q-10 -38 -15.5 -125t-6.5 -223v-13q0 -115 17 -183q10 -44 63 -176q7 -18 23 -53l6 -17q0 -40 -28 -66t-65 -26zM393 1344q39 0 118.5 -4.5t118.5 -4.5q41 0 122 2t121 2 q78 0 78 -75q0 -60 -65 -73l-112 -5h-155q-48 0 -144 3t-145 3q-72 0 -72 76q0 51 46 67q24 9 89 9z"/>
<glyph glyph-name="Abreve" horiz-adv-x="1498" unicode="Ă" d="M897 1113l-286 -461q121 31 367 75zM1250 -30q-92 0 -160 236q-26 90 -65 315q-102 -14 -267 -50l-266 -55q-50 -131 -171 -383q-32 -56 -87 -56q-40 0 -71.5 29t-31.5 72q0 48 151 365q-17 26 -17 60q0 81 98 104q114 214 288 492q237 379 295 379q79 0 108 -110 l63 -336l149 -695l57 -158q29 -81 29 -108q0 -43 -31 -72t-71 -29zM872 1779q293 0 336 160q17 63 72 63q32 0 55.5 -21t21.5 -52l-2 -14q-12 -152 -176 -228q-128 -58 -307 -58q-142 0 -249 96q-110 98 -110 239q0 75 74 75q75 0 75 -75q0 -78 67 -133q63 -52 143 -52z"/>
<glyph glyph-name="abreve" horiz-adv-x="1048" unicode="ă" d="M712 629q0 43 5.5 93.5t16.5 107.5q-37 19 -63.5 28t-42.5 9q-155 0 -267.5 -126.5t-112.5 -291.5q0 -164 58 -246t174 -82q96 0 163 35q36 19 101 76q-32 265 -32 397zM920 -66q-19 0 -69 44q-45 41 -67 73q-96 -52 -169 -78.5t-122 -26.5q-234 0 -341 132 q-101 124 -101 380q0 242 166.5 414t397.5 172q87 0 195 -45q136 -56 136 -135q0 -27 -20 -48q-10 -38 -15.5 -125t-6.5 -223v-13q0 -115 17 -183q10 -44 63 -176q7 -18 23 -53l6 -17q0 -40 -28 -66t-65 -26zM502 1329q293 0 336 160q17 63 72 63q32 0 55.5 -21t21.5 -52 l-2 -14q-12 -152 -176 -228q-128 -58 -307 -58q-142 0 -249 96q-110 98 -110 239q0 75 74 75q75 0 75 -75q0 -78 67 -133q63 -52 143 -52z"/>
<glyph glyph-name="Aogonek" horiz-adv-x="1498" unicode="Ą" d="M978 727q-27 129 -81 386q-99 -151 -286 -461q121 31 367 75zM1571 -225q0 -63 -116 -96q-82 -23 -170 -23q-98 0 -169 86q-68 81 -68 181q0 88 80 173q-49 113 -103 425q-102 -14 -267 -50q-200 -43 -266 -55q-50 -131 -171 -383q-32 -56 -87 -56q-40 0 -71.5 29 t-31.5 72q0 48 151 365q-17 26 -17 60q0 81 98 104q114 214 288 492q237 379 295 379q79 0 108 -110q20 -112 63 -336q64 -318 149 -695q1 -6 57 -158q29 -81 29 -108q0 -43 -31 -72t-71 -29q-16 0 -32 7q-21 -22 -21 -54q0 -36 26 -75q27 -43 62 -43q101 0 173 37 q22 12 39 12q31 0 52.5 -24t21.5 -55z"/>
<glyph glyph-name="aogonek" horiz-adv-x="1048" unicode="ą" d="M744 232q-32 265 -32 397q0 86 22 201q-75 37 -106 37q-155 0 -267.5 -126.5t-112.5 -291.5q0 -328 232 -328q96 0 163 35q36 19 101 76zM1310 -225q0 -63 -116 -96q-82 -23 -170 -23q-98 0 -169 86q-68 81 -68 181q0 58 13 108q-10 11 -16 20q-193 -105 -291 -105 q-234 0 -341 132q-101 124 -101 380q0 242 166.5 414t397.5 172q87 0 195 -45q136 -56 136 -135q0 -27 -20 -48q-20 -77 -22 -348v-13q0 -115 17 -183q10 -44 63 -176q7 -18 23 -53q6 -14 6 -17q0 -76 -76 -90l-1 -13q0 -36 25 -75q28 -43 63 -43q101 0 173 37q22 12 39 12 q31 0 52.5 -24t21.5 -55z"/>
<glyph glyph-name="Cacute" horiz-adv-x="1234" unicode="Ć" d="M1104 1122q-64 0 -96 75q-28 64 -52 78q-21 11 -104 11q-145 0 -322 -222q-240 -298 -240 -565q0 -129 83 -222q85 -96 205 -96q103 0 207 53q58 30 178 118q57 42 86 42q43 0 72 -32.5t29 -72.5q0 -45 -38 -79q-264 -234 -534 -234q-207 0 -350 159q-138 154 -138 364 q0 339 284 695q237 297 478 297q49 0 88 -4.5t69 -14.5q35 51 91 51q69 0 87 -91q16 -81 16 -199q0 -41 -22 -72q-27 -39 -77 -39zM734 1637q-36 0 -63.5 28t-27.5 64q0 34 31 65q43 42 131 159q66 86 147 143q27 19 53 19q36 0 63 -28.5t27 -64.5q0 -40 -38 -70 q-70 -56 -135 -145q-68 -94 -129 -145q-28 -25 -59 -25z"/>
<glyph glyph-name="cacute" horiz-adv-x="1052" unicode="ć" d="M591 -63q-205 0 -342 124q-144 130 -144 343q0 203 135 419q150 240 338 240q98 0 219 -46q153 -59 153 -144q0 -38 -25 -67.5t-62 -29.5q-29 0 -50.5 17.5t-41.5 34.5q-59 47 -193 47q-102 0 -202 -182q-91 -167 -91 -289q0 -132 90 -208q84 -71 216 -71q60 0 128 32 l116 62q30 16 43 16q37 0 64 -29.5t27 -67.5q0 -73 -154 -141q-135 -60 -224 -60zM514 1187q-36 0 -63.5 28t-27.5 64q0 34 31 65q43 42 131 159q66 86 147 143q27 19 53 19q36 0 63 -28.5t27 -64.5q0 -40 -38 -70q-70 -56 -135 -145q-68 -94 -129 -145q-28 -25 -59 -25z "/>
<glyph glyph-name="Ccircumflex" horiz-adv-x="1234" unicode="Ĉ" d="M1104 1122q-64 0 -96 75q-28 64 -52 78q-21 11 -104 11q-145 0 -322 -222q-240 -298 -240 -565q0 -129 83 -222q85 -96 205 -96q103 0 207 53q58 30 178 118q57 42 86 42q43 0 72 -32.5t29 -72.5q0 -45 -38 -79q-264 -234 -534 -234q-207 0 -350 159q-138 154 -138 364 q0 339 284 695q237 297 478 297q49 0 88 -4.5t69 -14.5q35 51 91 51q69 0 87 -91q16 -81 16 -199q0 -41 -22 -72q-27 -39 -77 -39zM780 2140q55 0 132 -67q24 -21 109 -112l159 -170q26 -30 26 -61q0 -36 -27.5 -63.5t-64.5 -27.5q-33 0 -63 29q-80 90 -250 260 q-254 -312 -326 -312q-36 0 -63.5 28t-27.5 64q0 35 30 65q56 54 305 336q27 31 61 31z"/>
<glyph glyph-name="ccircumflex" horiz-adv-x="1052" unicode="ĉ" d="M591 -63q-205 0 -342 124q-144 130 -144 343q0 203 135 419q150 240 338 240q98 0 219 -46q153 -59 153 -144q0 -38 -25 -67.5t-62 -29.5q-29 0 -50.5 17.5t-41.5 34.5q-59 47 -193 47q-102 0 -202 -182q-91 -167 -91 -289q0 -132 90 -208q84 -71 216 -71q60 0 128 32 l116 62q30 16 43 16q37 0 64 -29.5t27 -67.5q0 -73 -154 -141q-135 -60 -224 -60zM590 1590q55 0 132 -67q24 -21 109 -112l159 -170q26 -30 26 -61q0 -36 -27.5 -63.5t-64.5 -27.5q-33 0 -63 29q-80 90 -250 260q-254 -312 -326 -312q-36 0 -63.5 28t-27.5 64q0 35 30 65 q56 54 305 336q27 31 61 31z"/>
<glyph glyph-name="Cdot" horiz-adv-x="1234" unicode="Ċ" d="M1104 1122q-64 0 -96 75q-28 64 -52 78q-21 11 -104 11q-145 0 -322 -222q-240 -298 -240 -565q0 -129 83 -222q85 -96 205 -96q103 0 207 53q58 30 178 118q57 42 86 42q43 0 72 -32.5t29 -72.5q0 -45 -38 -79q-264 -234 -534 -234q-207 0 -350 159q-138 154 -138 364 q0 339 284 695q237 297 478 297q49 0 88 -4.5t69 -14.5q35 51 91 51q69 0 87 -91q16 -81 16 -199q0 -41 -22 -72q-27 -39 -77 -39zM980 1728q0 -36 -34 -65.5t-71 -29.5q-32 0 -85.5 48t-53.5 79q0 37 36 66q33 28 70 28q31 0 84.5 -48.5t53.5 -77.5z"/>
<glyph glyph-name="cdot" horiz-adv-x="1052" unicode="ċ" d="M591 -63q-205 0 -342 124q-144 130 -144 343q0 203 135 419q150 240 338 240q98 0 219 -46q153 -59 153 -144q0 -38 -25 -67.5t-62 -29.5q-29 0 -50.5 17.5t-41.5 34.5q-59 47 -193 47q-102 0 -202 -182q-91 -167 -91 -289q0 -132 90 -208q84 -71 216 -71q60 0 128 32 l116 62q30 16 43 16q37 0 64 -29.5t27 -67.5q0 -73 -154 -141q-135 -60 -224 -60zM730 1278q0 -36 -34 -65.5t-71 -29.5q-32 0 -85.5 48t-53.5 79q0 37 36 66q33 28 70 28q31 0 84.5 -48.5t53.5 -77.5z"/>
<glyph glyph-name="Ccaron" horiz-adv-x="1234" unicode="Č" d="M1104 1122q-64 0 -96 75q-28 64 -52 78q-21 11 -104 11q-145 0 -322 -222q-240 -298 -240 -565q0 -129 83 -222q85 -96 205 -96q103 0 207 53q58 30 178 118q57 42 86 42q43 0 72 -32.5t29 -72.5q0 -45 -38 -79q-264 -234 -534 -234q-207 0 -350 159q-138 154 -138 364 q0 339 284 695q237 297 478 297q49 0 88 -4.5t69 -14.5q35 51 91 51q69 0 87 -91q16 -81 16 -199q0 -41 -22 -72q-27 -39 -77 -39zM819 1809l220 197q24 20 49 20q30 0 53 -23.5t23 -53.5t-26 -55q-285 -268 -328 -268q-31 0 -66 37l-50 62l-117 134q-83 103 -83 144 q0 30 24 52t55 22q39 0 63 -40q33 -55 183 -228z"/>
<glyph glyph-name="ccaron" horiz-adv-x="1234" unicode="č" d="M591 -63q-205 0 -342 124q-144 130 -144 343q0 203 135 419q150 240 338 240q98 0 219 -46q153 -59 153 -144q0 -38 -25 -67.5t-62 -29.5q-29 0 -50.5 17.5t-41.5 34.5q-59 47 -193 47q-102 0 -202 -182q-91 -167 -91 -289q0 -132 90 -208q84 -71 216 -71q60 0 128 32 l116 62q30 16 43 16q37 0 64 -29.5t27 -67.5q0 -73 -154 -141q-135 -60 -224 -60zM609 1359l220 197q24 20 49 20q30 0 53 -23.5t23 -53.5t-26 -55q-285 -268 -328 -268q-31 0 -66 37l-50 62l-117 134q-83 103 -83 144q0 30 24 52t55 22q39 0 63 -40q33 -55 183 -228z"/>
<glyph glyph-name="Dcaron" horiz-adv-x="1478" unicode="Ď" d="M866 1065q-102 67 -471 230l5 -288l3 -287l-16 -546q7 -3 21 -13q88 -59 222 -59q228 0 332 70q97 66 154.5 177.5t57.5 232.5q0 282 -308 483zM1076 7q-155 -106 -445 -106q-73 0 -167 23q-113 27 -170 70h-10q-43 0 -72 30t-29 73q0 105 9.5 314.5t9.5 314.5 q0 117 -4.5 349.5t-4.5 349.5q0 41 42 86t84 45q24 0 160 -67q154 -75 178 -83q284 -97 484 -298q235 -237 235 -521q0 -171 -80.5 -328t-219.5 -252zM669 1809l220 197q24 20 49 20q30 0 53 -23.5t23 -53.5t-26 -55q-285 -268 -328 -268q-31 0 -66 37l-50 62l-117 134 q-83 103 -83 144q0 30 24 52t55 22q39 0 63 -40q33 -55 183 -228z"/>
<glyph glyph-name="dcaron" horiz-adv-x="1698" unicode="ď" d="M616 857q-168 0 -252 -99.5t-84 -299.5q0 -129 91.5 -222t214.5 -93q84 0 142 31q34 18 111 83q15 13 29 31l-3 173l1 116l2 118q-38 81 -101 121.5t-151 40.5zM1060 883q-12 -147 -12 -294q0 -333 31 -503q2 -14 2 -23q0 -40 -28 -66t-65 -26q-62 0 -91 90 q-72 -53 -149.5 -80t-161.5 -27q-207 0 -343 138q-140 141 -140 362q0 267 141.5 428t367.5 161q116 0 179 -36l94 -69q14 421 33 567q13 89 91 89q91 0 91 -97q0 -139 -40 -614zM1507 1440q0 -97 -51 -208q-59 -129 -138 -129q-71 0 -71 73q0 28 23 63q20 29 40 57 q15 24 24 53q-87 51 -87 130q0 54 36.5 89t91.5 35q132 0 132 -163z"/>
<glyph glyph-name="Dslash" horiz-adv-x="1478" unicode="Đ" d="M395 1295l8 -501q43 0 130.5 -8.5t131.5 -8.5t72 -27.5t28 -71.5q0 -43 -28 -71t-71 -28q-45 0 -133 8t-132 8l-14 -421q132 -72 243 -72q227 0 332 70q98 66 155 178t57 232q0 189 -133 337q-104 117 -306 221q-54 29 -340 155zM631 -99q-80 0 -176 25q-106 27 -161 68 h-10q-101 0 -101 103q0 97 7 249l10 249q-13 0 -45.5 -1.5t-50.5 -1.5q-148 0 -148 103q0 102 149 102q18 0 51 -1.5t46 -1.5l-5 315l-4 316q0 42 42 86.5t84 44.5q24 0 160 -66q158 -77 178 -84q297 -109 490 -304q229 -232 229 -515q0 -171 -80 -327q-81 -159 -220 -253 q-156 -106 -445 -106z"/>
<glyph glyph-name="dcroat" horiz-adv-x="1234" unicode="đ" d="M868 288q-1 24 -1 125q0 102 1 282q-76 162 -252 162q-336 0 -336 -399q0 -126 90 -220.5t216 -94.5q171 0 282 145zM1221 1264q0 -78 -133 -78h-3q-37 -501 -37 -597q0 -323 31 -503q2 -14 2 -23q0 -39 -27 -65.5t-66 -26.5q-62 0 -91 90q-144 -107 -311 -107 q-213 0 -348 143t-135 357q0 249 128 412q139 177 381 177q111 0 157 -25l116 -80q5 138 10 248h-295q-31 0 -51.5 25t-20.5 57q0 51 46 67q24 9 89 9q40 0 119.5 -4.5t120.5 -4.5q10 146 12 159q22 100 94 100q91 0 91 -97q0 -70 -5 -158h48h2q76 0 76 -75z"/>
<glyph glyph-name="Emacron" horiz-adv-x="1279" unicode="Ē" d="M1115 1346q-14 0 -31 5q-169 48 -326 48q-82 0 -179 -15t-209 -46q9 -65 9 -104q0 -139 -17 -382l438 42q193 20 237 20t74 -28t30 -75q0 -91 -92 -102l-238 -21l-462 -42q-4 -71 -6.5 -134.5t-2.5 -118.5q0 -221 32 -260q24 -28 157 -28q62 0 186.5 3.5t187.5 3.5 q20 0 59 6.5t58 6.5q106 0 106 -104q0 -84 -85 -101q-94 -19 -407 -19q-310 0 -398 82q-96 89 -96 410q0 64 3 140t8 164q-11 23 -11 49q0 34 19 61q20 289 20 427q0 37 -10 108.5t-10 108.5q0 119 100 119q42 0 72 -29q120 32 226.5 48t200.5 16q243 0 388 -58 q67 -27 67 -96q0 -40 -26 -71q-29 -34 -72 -34zM563 1874q39 0 118.5 -4.5t118.5 -4.5q41 0 122 2t121 2q78 0 78 -75q0 -60 -65 -73l-112 -5h-155q-48 0 -144 3t-145 3q-72 0 -72 76q0 51 46 67q24 9 89 9z"/>
<glyph glyph-name="emacron" horiz-adv-x="1122" unicode="ē" d="M579 865q-122 0 -203 -94.5t-121 -284.5l307 146q181 88 258 153q-86 80 -241 80zM606 -46q-226 0 -366 113q-153 125 -153 350q0 260 126 436q137 192 366 192q166 0 271 -56q129 -69 129 -212q0 -100 -113 -182q-50 -36 -212 -112l-382 -181q56 -83 139.5 -125 t194.5 -42q69 0 162 26q118 33 152 86.5t73 53.5q35 0 62.5 -26.5t27.5 -61.5q0 -111 -179 -191q-153 -68 -298 -68zM393 1344q39 0 118.5 -4.5t118.5 -4.5q41 0 122 2t121 2q78 0 78 -75q0 -60 -65 -73l-112 -5h-155q-48 0 -144 3t-145 3q-72 0 -72 76q0 51 46 67 q24 9 89 9z"/>
<glyph glyph-name="Ebreve" horiz-adv-x="1279" unicode="Ĕ" d="M1115 1346q-14 0 -31 5q-169 48 -326 48q-82 0 -179 -15t-209 -46q9 -65 9 -104q0 -139 -17 -382l438 42q193 20 237 20t74 -28t30 -75q0 -91 -92 -102l-238 -21l-462 -42q-4 -71 -6.5 -134.5t-2.5 -118.5q0 -221 32 -260q24 -28 157 -28q62 0 186.5 3.5t187.5 3.5 q20 0 59 6.5t58 6.5q106 0 106 -104q0 -84 -85 -101q-94 -19 -407 -19q-310 0 -398 82q-96 89 -96 410q0 64 3 140t8 164q-11 23 -11 49q0 34 19 61q20 289 20 427q0 37 -10 108.5t-10 108.5q0 119 100 119q42 0 72 -29q120 32 226.5 48t200.5 16q243 0 388 -58 q67 -27 67 -96q0 -40 -26 -71q-29 -34 -72 -34zM712 1829q293 0 336 160q17 63 72 63q32 0 55.5 -21t21.5 -52l-2 -14q-12 -152 -176 -228q-128 -58 -307 -58q-142 0 -249 96q-110 98 -110 239q0 75 74 75q75 0 75 -75q0 -78 67 -133q63 -52 143 -52z"/>
<glyph glyph-name="ebreve" horiz-adv-x="1122" unicode="ĕ" d="M579 865q-122 0 -203 -94.5t-121 -284.5l307 146q181 88 258 153q-86 80 -241 80zM606 -46q-226 0 -366 113q-153 125 -153 350q0 260 126 436q137 192 366 192q166 0 271 -56q129 -69 129 -212q0 -100 -113 -182q-50 -36 -212 -112l-382 -181q56 -83 139.5 -125 t194.5 -42q69 0 162 26q118 33 152 86.5t73 53.5q35 0 62.5 -26.5t27.5 -61.5q0 -111 -179 -191q-153 -68 -298 -68zM522 1329q293 0 336 160q17 63 72 63q32 0 55.5 -21t21.5 -52l-2 -14q-12 -152 -176 -228q-128 -58 -307 -58q-142 0 -249 96q-110 98 -110 239q0 75 74 75 q75 0 75 -75q0 -78 67 -133q63 -52 143 -52z"/>
<glyph glyph-name="Edot" horiz-adv-x="1279" unicode="Ė" d="M1115 1346q-14 0 -31 5q-169 48 -326 48q-82 0 -179 -15t-209 -46q9 -65 9 -104q0 -139 -17 -382l438 42q193 20 237 20t74 -28t30 -75q0 -91 -92 -102l-238 -21l-462 -42q-4 -71 -6.5 -134.5t-2.5 -118.5q0 -221 32 -260q24 -28 157 -28q62 0 186.5 3.5t187.5 3.5 q20 0 59 6.5t58 6.5q106 0 106 -104q0 -84 -85 -101q-94 -19 -407 -19q-310 0 -398 82q-96 89 -96 410q0 64 3 140t8 164q-11 23 -11 49q0 34 19 61q20 289 20 427q0 37 -10 108.5t-10 108.5q0 119 100 119q42 0 72 -29q120 32 226.5 48t200.5 16q243 0 388 -58 q67 -27 67 -96q0 -40 -26 -71q-29 -34 -72 -34zM910 1778q0 -36 -34 -65.5t-71 -29.5q-32 0 -85.5 48t-53.5 79q0 37 36 66q33 28 70 28q31 0 84.5 -48.5t53.5 -77.5z"/>
<glyph glyph-name="edot" horiz-adv-x="1122" unicode="ė" d="M579 865q-122 0 -203 -94.5t-121 -284.5l307 146q181 88 258 153q-86 80 -241 80zM606 -46q-226 0 -366 113q-153 125 -153 350q0 260 126 436q137 192 366 192q166 0 271 -56q129 -69 129 -212q0 -100 -113 -182q-50 -36 -212 -112l-382 -181q56 -83 139.5 -125 t194.5 -42q69 0 162 26q118 33 152 86.5t73 53.5q35 0 62.5 -26.5t27.5 -61.5q0 -111 -179 -191q-153 -68 -298 -68zM680 1278q0 -36 -34 -65.5t-71 -29.5q-32 0 -85.5 48t-53.5 79q0 37 36 66q33 28 70 28q31 0 84.5 -48.5t53.5 -77.5z"/>
<glyph glyph-name="Eogonek" horiz-adv-x="1279" unicode="Ę" d="M1273 1451q0 -40 -26 -71q-29 -34 -72 -34q-14 0 -31 5q-169 48 -326 48q-164 0 -388 -61q9 -65 9 -104q0 -139 -17 -382q82 5 438 42q193 20 237 20t74 -28t30 -75q0 -91 -92 -102q-80 -7 -238 -21q-154 -18 -462 -42q-9 -143 -9 -253q0 -221 32 -260q24 -28 157 -28 q62 0 186.5 3.5t187.5 3.5q20 0 59 6.5t58 6.5q106 0 106 -104q0 -84 -85 -101q-88 -17 -208 -19q-16 -20 -16 -48q0 -36 26 -75q27 -43 62 -43q101 0 173 37q22 12 39 12q31 0 52.5 -24t21.5 -55q0 -63 -116 -96q-82 -23 -170 -23q-98 0 -169 86q-68 81 -68 181q0 23 7 48 h-41q-311 2 -398 83q-96 89 -96 409q0 127 11 304q-11 23 -11 49q0 34 19 61q20 289 20 427q0 37 -10 108.5t-10 108.5q0 119 100 119q42 0 72 -29q239 64 427 64q243 0 388 -58q67 -27 67 -96z"/>
<glyph glyph-name="eogonek" horiz-adv-x="1122" unicode="ę" d="M820 785q-86 80 -241 80q-244 0 -324 -379q107 50 307 146q181 88 258 153zM1083 213q0 -84 -106 -152q-89 -57 -223 -88q-77 -38 -77 -90q0 -36 26 -75q27 -43 62 -43q101 0 173 37q22 12 39 12q31 0 52.5 -24t21.5 -55q0 -63 -116 -96q-82 -23 -170 -23q-98 0 -169 86 q-68 81 -68 181q0 34 16 73q-203 17 -324 129q-133 123 -133 332q0 260 126 436q137 192 366 192q166 0 271 -56q129 -70 129 -212q0 -100 -113 -182q-50 -36 -212 -112l-382 -181q112 -167 334 -167q69 0 162 26q118 33 152 86.5t73 53.5q35 0 62.5 -26.5t27.5 -61.5z"/>
<glyph glyph-name="Ecaron" horiz-adv-x="1279" unicode="Ě" d="M1115 1346q-14 0 -31 5q-169 48 -326 48q-82 0 -179 -15t-209 -46q9 -65 9 -104q0 -139 -17 -382l438 42q193 20 237 20t74 -28t30 -75q0 -91 -92 -102l-238 -21l-462 -42q-4 -71 -6.5 -134.5t-2.5 -118.5q0 -221 32 -260q24 -28 157 -28q62 0 186.5 3.5t187.5 3.5 q20 0 59 6.5t58 6.5q106 0 106 -104q0 -84 -85 -101q-94 -19 -407 -19q-310 0 -398 82q-96 89 -96 410q0 64 3 140t8 164q-11 23 -11 49q0 34 19 61q20 289 20 427q0 37 -10 108.5t-10 108.5q0 119 100 119q42 0 72 -29q120 32 226.5 48t200.5 16q243 0 388 -58 q67 -27 67 -96q0 -40 -26 -71q-29 -34 -72 -34zM749 1839l220 197q24 20 49 20q30 0 53 -23.5t23 -53.5t-26 -55q-285 -268 -328 -268q-31 0 -66 37l-50 62l-117 134q-83 103 -83 144q0 30 24 52t55 22q39 0 63 -40q33 -55 183 -228z"/>
<glyph glyph-name="ecaron" horiz-adv-x="1122" unicode="ě" d="M579 865q-122 0 -203 -94.5t-121 -284.5l307 146q181 88 258 153q-86 80 -241 80zM606 -46q-226 0 -366 113q-153 125 -153 350q0 260 126 436q137 192 366 192q166 0 271 -56q129 -69 129 -212q0 -100 -113 -182q-50 -36 -212 -112l-382 -181q56 -83 139.5 -125 t194.5 -42q69 0 162 26q118 33 152 86.5t73 53.5q35 0 62.5 -26.5t27.5 -61.5q0 -111 -179 -191q-153 -68 -298 -68zM609 1359l220 197q24 20 49 20q30 0 53 -23.5t23 -53.5t-26 -55q-285 -268 -328 -268q-31 0 -66 37l-50 62l-117 134q-83 103 -83 144q0 30 24 52t55 22 q39 0 63 -40q33 -55 183 -228z"/>
<glyph glyph-name="Gcircumflex" horiz-adv-x="1392" unicode="Ĝ" d="M1300 605q-62 -307 -260.5 -490.5t-468.5 -183.5q-246 0 -369 137.5t-123 412.5q0 259 122.5 533.5t314.5 443.5q128 113 271 113q91 0 240 -60q182 -72 182 -159q0 -41 -30 -73t-72 -32q-22 0 -62 25q-153 93 -258 93q-75 0 -157 -78q-41 -39 -118 -142 q-231 -306 -231 -664q0 -188 58 -263q63 -82 232 -82q179 0 311 113q139 120 194 343q-277 -14 -475 -107q-23 -11 -45 -11q-44 0 -73 34q-27 31 -27 72q0 55 53 88q216 132 745 132q43 0 72 -29t29 -73q0 -65 -55 -93zM820 2140q55 0 132 -67q24 -21 109 -112l159 -170 q26 -30 26 -61q0 -36 -27.5 -63.5t-64.5 -27.5q-33 0 -63 29q-80 90 -250 260q-254 -312 -326 -312q-36 0 -63.5 28t-27.5 64q0 35 30 65q56 54 305 336q27 31 61 31z"/>
<glyph glyph-name="gcircumflex" horiz-adv-x="1087" unicode="ĝ" d="M641 864q-190 0 -294 -131q-93 -118 -93 -300q0 -145 55 -218t165 -73q101 0 196 114q86 105 98 208q21 108 45 339q-40 31 -83 46t-89 15zM962 431l-23 -336q-6 -200 -41 -327q-45 -162 -144 -239q-120 -93 -347 -93q-133 0 -223 18q-126 25 -126 104q0 89 87 89 q36 1 120 -17q75 -16 165 -16h21q192 3 265 186q48 122 51 375q-54 -100 -128.5 -150t-170.5 -50q-181 0 -294.5 123.5t-113.5 320.5q0 270 155 435q160 170 436 170q93 0 156 -24t96 -72q107 -3 107 -119q0 -71 -21 -190q-23 -138 -27 -188zM610 1690q55 0 132 -67 q24 -21 109 -112l159 -170q26 -30 26 -61q0 -36 -27.5 -63.5t-64.5 -27.5q-33 0 -63 29q-80 90 -250 260q-254 -312 -326 -312q-36 0 -63.5 28t-27.5 64q0 35 30 65q56 54 305 336q27 31 61 31z"/>
<glyph glyph-name="Gbreve" horiz-adv-x="1392" unicode="Ğ" d="M1300 605q-62 -307 -260.5 -490.5t-468.5 -183.5q-246 0 -369 137.5t-123 412.5q0 259 122.5 533.5t314.5 443.5q128 113 271 113q91 0 240 -60q182 -72 182 -159q0 -41 -30 -73t-72 -32q-22 0 -62 25q-153 93 -258 93q-75 0 -157 -78q-41 -39 -118 -142 q-231 -306 -231 -664q0 -188 58 -263q63 -82 232 -82q179 0 311 113q139 120 194 343q-277 -14 -475 -107q-23 -11 -45 -11q-44 0 -73 34q-27 31 -27 72q0 55 53 88q216 132 745 132q43 0 72 -29t29 -73q0 -65 -55 -93zM762 1779q293 0 336 160q17 63 72 63q32 0 55.5 -21 t21.5 -52l-2 -14q-12 -152 -176 -228q-128 -58 -307 -58q-142 0 -249 96q-110 98 -110 239q0 75 74 75q75 0 75 -75q0 -78 67 -133q63 -52 143 -52z"/>
<glyph glyph-name="gbreve" horiz-adv-x="1087" unicode="ğ" d="M641 864q-190 0 -294 -131q-93 -118 -93 -300q0 -145 55 -218t165 -73q101 0 196 114q86 105 98 208q21 108 45 339q-40 31 -83 46t-89 15zM962 431l-23 -336q-6 -200 -41 -327q-45 -162 -144 -239q-120 -93 -347 -93q-133 0 -223 18q-126 25 -126 104q0 89 87 89 q36 1 120 -17q75 -16 165 -16h21q192 3 265 186q48 122 51 375q-54 -100 -128.5 -150t-170.5 -50q-181 0 -294.5 123.5t-113.5 320.5q0 270 155 435q160 170 436 170q93 0 156 -24t96 -72q107 -3 107 -119q0 -71 -21 -190q-23 -138 -27 -188zM572 1329q293 0 336 160 q17 63 72 63q32 0 55.5 -21t21.5 -52l-2 -14q-12 -152 -176 -228q-128 -58 -307 -58q-142 0 -249 96q-110 98 -110 239q0 75 74 75q75 0 75 -75q0 -78 67 -133q63 -52 143 -52z"/>
<glyph glyph-name="Gdot" horiz-adv-x="1392" unicode="Ġ" d="M1300 605q-62 -307 -260.5 -490.5t-468.5 -183.5q-246 0 -369 137.5t-123 412.5q0 259 122.5 533.5t314.5 443.5q128 113 271 113q91 0 240 -60q182 -72 182 -159q0 -41 -30 -73t-72 -32q-22 0 -62 25q-153 93 -258 93q-75 0 -157 -78q-41 -39 -118 -142 q-231 -306 -231 -664q0 -188 58 -263q63 -82 232 -82q179 0 311 113q139 120 194 343q-277 -14 -475 -107q-23 -11 -45 -11q-44 0 -73 34q-27 31 -27 72q0 55 53 88q216 132 745 132q43 0 72 -29t29 -73q0 -65 -55 -93zM970 1728q0 -36 -34 -65.5t-71 -29.5q-32 0 -85.5 48 t-53.5 79q0 37 36 66q33 28 70 28q31 0 84.5 -48.5t53.5 -77.5z"/>
<glyph glyph-name="gdot" horiz-adv-x="1087" unicode="ġ" d="M641 864q-190 0 -294 -131q-93 -118 -93 -300q0 -145 55 -218t165 -73q101 0 196 114q86 105 98 208q21 108 45 339q-40 31 -83 46t-89 15zM962 431l-23 -336q-6 -200 -41 -327q-45 -162 -144 -239q-120 -93 -347 -93q-133 0 -223 18q-126 25 -126 104q0 89 87 89 q36 1 120 -17q75 -16 165 -16h21q192 3 265 186q48 122 51 375q-54 -100 -128.5 -150t-170.5 -50q-181 0 -294.5 123.5t-113.5 320.5q0 270 155 435q160 170 436 170q93 0 156 -24t96 -72q107 -3 107 -119q0 -71 -21 -190q-23 -138 -27 -188zM810 1278q0 -36 -34 -65.5 t-71 -29.5q-32 0 -85.5 48t-53.5 79q0 37 36 66q33 28 70 28q31 0 84.5 -48.5t53.5 -77.5z"/>
<glyph glyph-name="Gcedilla" horiz-adv-x="1392" unicode="Ģ" d="M1355 698q0 -65 -55 -93q-53 -262 -212 -440q-173 -195 -424 -228q41 -66 41 -133q0 -249 -242 -249q-85 0 -161 32q-96 42 -96 115q0 54 68 54q33 0 81.5 -24.5t96.5 -24.5q97 0 97 92q0 49 -50 94q-41 37 -95 56q-29 8 -85 30q-240 123 -240 502q0 260 121.5 533 t315.5 444q127 113 271 113q100 0 249 -63q173 -73 173 -156q0 -42 -30.5 -73.5t-71.5 -31.5q-14 0 -122.5 59t-197.5 59q-111 0 -275 -220q-231 -310 -231 -664q0 -183 53 -256q64 -89 237 -89q197 0 333 134q122 120 172 322q-261 -14 -475 -107q-25 -11 -45 -11 q-42 0 -71 32t-29 74q0 126 340 184q215 36 458 36q43 0 72 -29.5t29 -72.5z"/>
<glyph glyph-name="gcedilla" horiz-adv-x="1087" unicode="ģ" d="M641 864q-190 0 -294 -131q-93 -118 -93 -300q0 -145 55 -218t165 -73q101 0 196 114q86 105 98 208q21 108 45 339q-40 31 -83 46t-89 15zM962 431l-23 -336q-6 -200 -41 -327q-45 -162 -144 -239q-120 -93 -347 -93q-133 0 -223 18q-126 25 -126 104q0 89 87 89 q36 1 120 -17q75 -16 165 -16h21q192 3 265 186q48 122 51 375q-54 -100 -128.5 -150t-170.5 -50q-181 0 -294.5 123.5t-113.5 320.5q0 270 155 435q160 170 436 170q93 0 156 -24t96 -72q107 -3 107 -119q0 -71 -21 -190q-23 -138 -27 -188zM713 1316q0 -54 -36.5 -88.5 t-91.5 -34.5q-132 0 -132 162q0 98 50 209q60 129 139 129q71 0 71 -74q0 -27 -23 -62q-20 -29 -40 -57q-16 -24 -24 -53q87 -51 87 -131z"/>
<glyph glyph-name="Hcircumflex" horiz-adv-x="1573" unicode="Ĥ" d="M1456 1409q-15 -42 -15 -123q0 -30 2 -89t2 -89q0 -100 -17.5 -298t-17.5 -298q0 -76 11 -228t11 -229q0 -41 -27.5 -69t-68.5 -28q-40 0 -68 28t-28 69q0 77 -11 229t-11 228q0 73 5 148q-171 -3 -423 -51l-420 -82q0 -90 -18 -255.5t-18 -256.5q0 -41 -27.5 -69.5 t-68.5 -28.5t-68.5 28.5t-27.5 69.5q0 106 17.5 316.5t17.5 316.5q0 55 -4 166t-4 167q0 79 10 237.5t10 237.5q0 42 27.5 70t68.5 28t68.5 -28t27.5 -70q0 -80 -10.5 -239.5t-10.5 -239.5l6 -253l429 81q257 48 433 50q11 143 11 431q0 76 25 154q33 107 93 107 q38 0 68 -27.5t30 -69.5q0 -15 -9 -41zM820 2140q55 0 132 -67q24 -21 109 -112l159 -170q26 -30 26 -61q0 -36 -27.5 -63.5t-64.5 -27.5q-33 0 -63 29q-80 90 -250 260q-254 -312 -326 -312q-36 0 -63.5 28t-27.5 64q0 35 30 65q56 54 305 336q27 31 61 31z"/>
<glyph glyph-name="hcircumflex" horiz-adv-x="1183" unicode="ĥ" d="M976 -62q-71 0 -93 76q-23 82 -42 233q-18 145 -18 238q0 26 2.5 79t2.5 79q0 188 -94 188q-127 0 -227 -115q-51 -59 -140 -225q0 -381 -32 -451q-28 -62 -87 -62q-41 0 -72 28t-31 68q0 14 9 44q8 25 11 146l3 148l3 735q7 124 7 167q0 51 -9.5 96.5t-9.5 94.5 q0 42 29 69.5t71 27.5q82 0 96 -88q16 -97 16 -175q0 -105 -7 -219q-5 -93 -5 -188v-31l1 -88q82 110 175.5 164.5t198.5 54.5q166 0 228 -108q44 -76 50 -256l8 -191l20 -208q14 -117 34 -206q4 -17 4 -29q0 -41 -30 -68.5t-72 -27.5zM710 2140q55 0 132 -67 q24 -21 109 -112l159 -170q26 -30 26 -61q0 -36 -27.5 -63.5t-64.5 -27.5q-33 0 -63 29q-80 90 -250 260q-254 -312 -326 -312q-36 0 -63.5 28t-27.5 64q0 35 30 65q56 54 305 336q27 31 61 31z"/>
<glyph glyph-name="Hbar" horiz-adv-x="1573" unicode="Ħ" d="M1248 1105q-333 0 -874 -3q-4 -69 -4 -125q0 -101 6 -253q215 40 429 81q257 48 433 50q8 110 10 250zM1607 1211q0 -105 -162 -111q-1 -97 -18 -292.5t-17 -295.5q0 -76 11 -228t11 -229q0 -41 -27.5 -69t-68.5 -28q-40 0 -68 28t-28 69q0 77 -11 229t-11 228 q0 73 5 148q-171 -3 -423 -51l-420 -82q0 -90 -18 -255.5t-18 -256.5q0 -41 -27.5 -69.5t-68.5 -28.5t-68.5 28.5t-27.5 69.5q0 106 17.5 316.5t17.5 316.5q0 55 -4 166t-4 167q0 53 3 120h-115q-102 0 -102 99q0 93 97 99q41 3 101 3h31q5 90 5 154q0 42 27.5 70t68.5 28 t68.5 -28t27.5 -70q0 -65 -5 -155q83 -1 319 -7q200 -5 318 -5q37 0 226 6q2 80 27 152q34 100 91 100q38 0 68 -27.5t30 -69.5q0 -15 -9 -41q-14 -39 -15 -107q19 1 21 1q-3 -1 57 -1q88 0 88 -91z"/>
<glyph glyph-name="hbar" horiz-adv-x="1183" unicode="ħ" d="M1078 34q0 -41 -30.5 -68.5t-71.5 -27.5q-69 0 -93 76q-25 80 -43 233q-17 141 -17 238q0 26 2.5 79t2.5 79q0 188 -94 188q-127 0 -227 -115q-51 -59 -140 -225v-22q0 -361 -32 -429q-29 -62 -87 -62q-41 0 -72 28t-31 68q0 11 9 44q8 27 11 146v633q0 46 9 279h-31h-3 q-152 0 -152 92q0 63 51 79q22 7 104 7h32q-14 153 -16 153v-2q0 42 29 69.5t71 27.5q112 0 112 -239q73 4 123 4h105q164 0 164 -94q0 -37 -25 -64.5t-61 -27.5q-12 0 -36 4t-37 4q-49 0 -237 -8q-8 -186 -8 -250l1 -118q164 219 374 219q166 0 228 -107q44 -76 50 -257 q12 -370 62 -605q4 -18 4 -29z"/>
<glyph glyph-name="Itilde" horiz-adv-x="1119" unicode="Ĩ" d="M957 1246q-64 0 -161 13l-161 21q-23 -291 -23 -556q0 -70 4 -173t4 -173q0 -94 -7 -171l315 4q42 0 70.5 -29.5t28.5 -72.5q0 -44 -28.5 -73.5t-70.5 -29.5q-56 0 -168 -2.5t-168 -2.5q-66 0 -197.5 -18.5t-198.5 -18.5q-42 0 -70.5 29.5t-28.5 72.5t28.5 73t70.5 30 q65 0 215 21q10 81 10 185q0 69 -6.5 168.5t-6.5 167.5q0 231 28 577l-130 -4l-130 -3q-43 0 -72 29t-29 74q0 93 94 102q81 8 303 8q199 0 499 -43q89 -13 89 -107q0 -47 -34 -75q-30 -23 -69 -23zM374 2004q100 0 161 -58l83 -106q47 -58 112 -58q57 0 85 37l46 88l20 59 q14 29 60 29q75 0 75 -74q0 -36 -43 -121q-40 -80 -69 -110q-56 -57 -143 -57q-131 0 -205 57q-27 21 -88 107q-42 57 -94 57q-31 0 -55.5 -11.5t-42.5 -34.5l-44 -85q-25 -45 -65 -45q-31 0 -54 20.5t-23 51.5q0 11 3 23q28 102 101 165q78 66 180 66z"/>
<glyph glyph-name="itilde" horiz-adv-x="574" unicode="ĩ" d="M375 454q0 -60 3.5 -179.5t3.5 -179.5q0 -44 -27 -72t-71 -28q-43 0 -70.5 28t-27.5 72q0 60 -3.5 179.5t-3.5 179.5q0 94 10 234.5t10 234.5q0 45 27.5 73t70.5 28t70.5 -28t27.5 -73q0 -94 -10 -234.5t-10 -234.5zM94 1554q100 0 161 -58l83 -106q47 -58 112 -58 q57 0 85 37l46 88l20 59q14 29 60 29q75 0 75 -74q0 -36 -43 -121q-40 -80 -69 -110q-56 -57 -143 -57q-131 0 -205 57q-27 21 -88 107q-42 57 -94 57q-31 0 -55.5 -11.5t-42.5 -34.5l-44 -85q-25 -45 -65 -45q-31 0 -54 20.5t-23 51.5q0 11 3 23q28 102 101 165 q78 66 180 66z"/>
<glyph glyph-name="Imacron" horiz-adv-x="1119" unicode="Ī" d="M957 1246q-64 0 -161 13l-161 21q-23 -291 -23 -556q0 -70 4 -173t4 -173q0 -94 -7 -171l315 4q42 0 70.5 -29.5t28.5 -72.5q0 -44 -28.5 -73.5t-70.5 -29.5q-56 0 -168 -2.5t-168 -2.5q-66 0 -197.5 -18.5t-198.5 -18.5q-42 0 -70.5 29.5t-28.5 72.5t28.5 73t70.5 30 q65 0 215 21q10 81 10 185q0 69 -6.5 168.5t-6.5 167.5q0 231 28 577l-130 -4l-130 -3q-43 0 -72 29t-29 74q0 93 94 102q81 8 303 8q199 0 499 -43q89 -13 89 -107q0 -47 -34 -75q-30 -23 -69 -23zM353 1794q39 0 118.5 -4.5t118.5 -4.5q41 0 122 2t121 2q78 0 78 -75 q0 -60 -65 -73l-112 -5h-155q-48 0 -144 3t-145 3q-72 0 -72 76q0 51 46 67q24 9 89 9z"/>
<glyph glyph-name="imacron" horiz-adv-x="574" unicode="ī" d="M375 454q0 -60 3.5 -179.5t3.5 -179.5q0 -44 -27 -72t-71 -28q-43 0 -70.5 28t-27.5 72q0 60 -3.5 179.5t-3.5 179.5q0 94 10 234.5t10 234.5q0 45 27.5 73t70.5 28t70.5 -28t27.5 -73q0 -94 -10 -234.5t-10 -234.5zM53 1344q39 0 118.5 -4.5t118.5 -4.5q41 0 122 2 t121 2q78 0 78 -75q0 -60 -65 -73l-112 -5h-155q-48 0 -144 3t-145 3q-72 0 -72 76q0 51 46 67q24 9 89 9z"/>
<glyph glyph-name="Ibreve" horiz-adv-x="1119" unicode="Ĭ" d="M957 1246q-64 0 -161 13l-161 21q-23 -291 -23 -556q0 -70 4 -173t4 -173q0 -94 -7 -171l315 4q42 0 70.5 -29.5t28.5 -72.5q0 -44 -28.5 -73.5t-70.5 -29.5q-56 0 -168 -2.5t-168 -2.5q-66 0 -197.5 -18.5t-198.5 -18.5q-42 0 -70.5 29.5t-28.5 72.5t28.5 73t70.5 30 q65 0 215 21q10 81 10 185q0 69 -6.5 168.5t-6.5 167.5q0 231 28 577l-130 -4l-130 -3q-43 0 -72 29t-29 74q0 93 94 102q81 8 303 8q199 0 499 -43q89 -13 89 -107q0 -47 -34 -75q-30 -23 -69 -23zM492 1779q293 0 336 160q17 63 72 63q32 0 55.5 -21t21.5 -52l-2 -14 q-12 -152 -176 -228q-128 -58 -307 -58q-142 0 -249 96q-110 98 -110 239q0 75 74 75q75 0 75 -75q0 -78 67 -133q63 -52 143 -52z"/>
<glyph glyph-name="ibreve" horiz-adv-x="574" unicode="ĭ" d="M375 454q0 -60 3.5 -179.5t3.5 -179.5q0 -44 -27 -72t-71 -28q-43 0 -70.5 28t-27.5 72q0 60 -3.5 179.5t-3.5 179.5q0 94 10 234.5t10 234.5q0 45 27.5 73t70.5 28t70.5 -28t27.5 -73q0 -94 -10 -234.5t-10 -234.5zM232 1329q293 0 336 160q17 63 72 63q32 0 55.5 -21 t21.5 -52l-2 -14q-12 -152 -176 -228q-128 -58 -307 -58q-142 0 -249 96q-110 98 -110 239q0 75 74 75q75 0 75 -75q0 -78 67 -133q63 -52 143 -52z"/>
<glyph glyph-name="Iogonek" horiz-adv-x="1119" unicode="Į" d="M957 1246q-64 0 -161 13l-161 21q-23 -291 -23 -556q0 -70 4 -173t4 -173q0 -94 -7 -171l315 4q42 0 70.5 -29.5t28.5 -72.5q0 -44 -28.5 -73.5t-70.5 -29.5q-56 0 -168 -2.5t-168 -2.5q-66 0 -197.5 -18.5t-198.5 -18.5q-42 0 -70.5 29.5t-28.5 72.5t28.5 73t70.5 30 q65 0 215 21q10 81 10 185q0 69 -6.5 168.5t-6.5 167.5q0 231 28 577l-130 -4l-130 -3q-43 0 -72 29t-29 74q0 93 94 102q81 8 303 8q199 0 499 -43q89 -13 89 -107q0 -47 -34 -75q-30 -23 -69 -23zM497 -77q0 -36 26 -75q27 -43 62 -43q101 0 173 37q22 12 39 12 q31 0 52.5 -24t21.5 -55q0 -63 -116 -96q-82 -23 -170 -23q-98 0 -169 86q-68 81 -68 181q0 82 73 164.5t154 82.5q31 0 51.5 -23t20.5 -54q0 -44 -75 -81t-75 -89z"/>
<glyph glyph-name="iogonek" horiz-adv-x="574" unicode="į" d="M375 454q0 -60 3.5 -179.5t3.5 -179.5q0 -44 -27 -72t-71 -28q-43 0 -70.5 28t-27.5 72q0 60 -3.5 179.5t-3.5 179.5q0 94 10 234.5t10 234.5q0 45 27.5 73t70.5 28t70.5 -28t27.5 -73q0 -94 -10 -234.5t-10 -234.5zM330 1266q-48 0 -83 34t-35 82t35 82t83 34t82.5 -34 t34.5 -82t-34.5 -82t-82.5 -34zM197 -77q0 -36 26 -75q27 -43 62 -43q101 0 173 37q22 12 39 12q31 0 52.5 -24t21.5 -55q0 -63 -116 -96q-82 -23 -170 -23q-98 0 -169 86q-68 81 -68 181q0 82 73 164.5t154 82.5q31 0 51.5 -23t20.5 -54q0 -44 -75 -81t-75 -89z"/>
<glyph glyph-name="Idotaccent" horiz-adv-x="1119" unicode="İ" d="M957 1246q-64 0 -161 13l-161 21q-23 -291 -23 -556q0 -70 4 -173t4 -173q0 -94 -7 -171l315 4q42 0 70.5 -29.5t28.5 -72.5q0 -44 -28.5 -73.5t-70.5 -29.5q-56 0 -168 -2.5t-168 -2.5q-66 0 -197.5 -18.5t-198.5 -18.5q-42 0 -70.5 29.5t-28.5 72.5t28.5 73t70.5 30 q65 0 215 21q10 81 10 185q0 69 -6.5 168.5t-6.5 167.5q0 231 28 577l-130 -4l-130 -3q-43 0 -72 29t-29 74q0 93 94 102q81 8 303 8q199 0 499 -43q89 -13 89 -107q0 -47 -34 -75q-30 -23 -69 -23zM680 1728q0 -36 -34 -65.5t-71 -29.5q-32 0 -85.5 48t-53.5 79q0 37 36 66 q33 28 70 28q31 0 84.5 -48.5t53.5 -77.5z"/>
<glyph glyph-name="dotlessi" horiz-adv-x="574" unicode="ı" d="M375 454q0 -60 3.5 -179.5t3.5 -179.5q0 -44 -27 -72t-71 -28q-43 0 -70.5 28t-27.5 72q0 60 -3.5 179.5t-3.5 179.5q0 94 10 234.5t10 234.5q0 45 27.5 73t70.5 28t70.5 -28t27.5 -73q0 -94 -10 -234.5t-10 -234.5z"/>
<glyph glyph-name="IJ" horiz-adv-x="2307" unicode="Ĳ" d="M957 1246q-64 0 -161 13l-161 21q-23 -291 -23 -556q0 -70 4 -173t4 -173q0 -94 -7 -171l315 4q42 0 70.5 -29.5t28.5 -72.5q0 -44 -28.5 -73.5t-70.5 -29.5q-56 0 -168 -2.5t-168 -2.5q-66 0 -197.5 -18.5t-198.5 -18.5q-42 0 -70.5 29.5t-28.5 72.5t28.5 73t70.5 30 q65 0 215 21q10 81 10 185q0 69 -6.5 168.5t-6.5 167.5q0 231 28 577l-130 -4l-130 -3q-43 0 -72 29t-29 74q0 93 94 102q81 8 303 8q199 0 499 -43q89 -13 89 -107q0 -47 -34 -75q-30 -23 -69 -23zM2141 1294q-18 0 -61.5 7.5t-67.5 7.5q-49 0 -115 -3l5 -119 q0 -744 -99 -1083q-66 -224 -231 -224q-174 0 -345 126q-189 140 -189 321q0 123 101 123t101 -121q0 -83 118 -165q113 -78 214 -78q82 0 114 503q15 238 15 598q0 28 -5 108l-61 -1q-39 0 -117.5 2.5t-118.5 2.5q-44 0 -74 28t-30 76q0 103 139 103q34 0 101 -3t100 -3 q63 0 188.5 7.5t188.5 7.5q228 0 228 -116q0 -40 -27 -71q-29 -34 -72 -34z"/>
<glyph glyph-name="ij" horiz-adv-x="1086" unicode="ĳ" d="M375 454q0 -60 3.5 -179.5t3.5 -179.5q0 -44 -27 -72t-71 -28q-43 0 -70.5 28t-27.5 72q0 60 -3.5 179.5t-3.5 179.5q0 94 10 234.5t10 234.5q0 45 27.5 73t70.5 28t70.5 -28t27.5 -73q0 -94 -10 -234.5t-10 -234.5zM330 1266q-48 0 -83 34t-35 82t35 82t83 34t82.5 -34 t34.5 -82t-34.5 -82t-82.5 -34zM719 -232v7q0 124 -34 592l-34 551q0 50 28.5 89t72.5 39q34 0 68 -25t36 -51l33 -576l27 -616q0 -139 -83 -252q-90 -123 -219 -123q-215 0 -360 331q-12 27 -12 48q0 40 31.5 69t71.5 29q59 0 123 -130q16 -34 56 -98q39 -50 90 -50 q44 0 75 66q24 50 30 100zM727 1265q-48 0 -82.5 34t-34.5 81q0 48 34.5 82t82.5 34t83 -34t35 -82q0 -47 -35 -81t-83 -34z"/>
<glyph glyph-name="Jcircumflex" horiz-adv-x="1362" unicode="Ĵ" d="M1197 1294q-18 0 -61.5 7.5t-67.5 7.5q-49 0 -115 -3l5 -119q0 -744 -99 -1083q-66 -224 -231 -224q-174 0 -345 126q-189 140 -189 321q0 123 101 123t101 -121q0 -83 118 -165q113 -78 214 -78q82 0 114 503q15 238 15 598q0 28 -5 108l-61 -1q-39 0 -117.5 2.5 t-118.5 2.5q-44 0 -74 28t-30 76q0 103 139 103q34 0 101 -3t100 -3q63 0 188.5 7.5t188.5 7.5q228 0 228 -116q0 -40 -27 -71q-29 -34 -72 -34zM750 2140q55 0 132 -67q24 -21 109 -112l159 -170q26 -30 26 -61q0 -36 -27.5 -63.5t-64.5 -27.5q-33 0 -63 29 q-80 90 -250 260q-254 -312 -326 -312q-36 0 -63.5 28t-27.5 64q0 35 30 65q56 54 305 336q27 31 61 31z"/>
<glyph glyph-name="jcircumflex" horiz-adv-x="826" unicode="ĵ" d="M656 -222q0 -139 -83 -252q-90 -123 -219 -123q-215 0 -360 331q-12 27 -12 48q0 40 31.5 69t71.5 29q59 0 123 -130q16 -34 56 -98q39 -50 90 -50q44 0 75 66q24 50 29 99l1 1v7q0 124 -34 592q-34 463 -34 551q0 50 28.5 89t72.5 39q34 0 68 -25t36 -51 q12 -197 33 -576q27 -492 27 -616zM766 1280q0 -36 -27.5 -63.5t-64.5 -27.5q-33 0 -63 29q-80 90 -250 260q-254 -312 -326 -312q-36 0 -63.5 28t-27.5 64q0 35 30 65q56 54 305 336q27 31 61 31q55 0 132 -67q24 -21 109 -112q54 -56 159 -170q26 -30 26 -61z"/>
<glyph glyph-name="Kcedilla" horiz-adv-x="1251" unicode="Ķ" d="M1153 -41q-152 0 -433 267l-299 301v-14l-1 -524q0 -99 -87 -99q-57 0 -91 50q-28 41 -28 89q0 234 14 700t14 699q0 43 28.5 73t70.5 30q43 0 71.5 -30t28.5 -73q0 -97 -12 -302q-11 -183 -11 -286v-17q134 127 303 319l287 333q34 39 76 39q40 0 71 -30t31 -73 q0 -66 -258 -352q-178 -195 -368 -382q120 -126 376 -362l105 -88q57 -44 123 -66q79 -26 79 -99q0 -34 -21 -65q-26 -38 -69 -38zM945 -196q0 -124 -60.5 -186.5t-181.5 -62.5q-85 0 -161 32q-96 42 -96 115q0 54 68 54q36 0 81.5 -24.5t96.5 -24.5q49 1 73 24t24 68 q0 60 -70 110q-56 40 -125 57q-65 15 -65 73q0 76 72 76q120 0 230 -95q114 -98 114 -216z"/>
<glyph glyph-name="kcedilla" horiz-adv-x="1106" unicode="ķ" d="M972 -41q-55 0 -85 58q-52 101 -157 239l-177 241q-58 -46 -180 -129q-11 -155 -11 -302q0 -45 -27.5 -73t-70.5 -28q-101 0 -101 136q0 83 11.5 248.5t11.5 248.5q0 152 4.5 347.5t4.5 345.5q0 45 -4.5 106t-4.5 106t27.5 73t70.5 28t70.5 -28t27.5 -73q0 -46 5 -108.5 t5 -108.5l-7 -322q-4 -124 -4 -249q0 -50 1 -99q136 104 262 228l220 227q33 34 71 34q39 0 70.5 -31t31.5 -72q0 -34 -29 -67q-123 -144 -303 -309l218 -297q153 -209 153 -272q0 -40 -31.5 -69t-72.5 -29zM865 -196q0 -124 -60.5 -186.5t-181.5 -62.5q-85 0 -161 32 q-96 42 -96 115q0 54 68 54q36 0 81.5 -24.5t96.5 -24.5q49 1 73 24t24 68q0 60 -70 110q-56 40 -125 57q-65 15 -65 73q0 76 72 76q120 0 230 -95q114 -98 114 -216z"/>
<glyph glyph-name="kgreenlandic" horiz-adv-x="1106" unicode="ĸ" d="M1038 57q0 -40 -32 -69t-72 -29q-52 0 -85 58q-55 99 -162 243q-138 186 -172 237q-58 -46 -180 -129q-11 -155 -11 -302q0 -44 -27.5 -72.5t-70.5 -28.5q-101 0 -101 136q0 83 11.5 248.5t11.5 248.5v465q0 44 27 72.5t71 28.5t71 -28.5t27 -72.5t-1 -133.5t-1 -134.5 q0 -51 2 -179q112 86 248 220q117 117 234 235q35 34 71 34q40 0 71 -31t31 -72q0 -72 -332 -376q106 -145 213 -289q158 -218 158 -280z"/>
<glyph glyph-name="Lacute" horiz-adv-x="1128" unicode="Ĺ" d="M1025 41q-113 -53 -355 -95q-223 -39 -364 -39q-101 0 -145 31q-60 42 -60 154l20 331q26 458 26 1016q0 43 28.5 73t70.5 30q43 0 71.5 -30t28.5 -73q0 -565 -27 -1028l-13 -152q-6 -66 -6 -121v-26h12q258 0 648 123q17 5 32 5q43 0 72 -34q25 -31 25 -71 q0 -64 -64 -94zM494 1637q-36 0 -63.5 28t-27.5 64q0 34 31 65q43 42 131 159q66 86 147 143q27 19 53 19q36 0 63 -28.5t27 -64.5q0 -40 -38 -70q-70 -56 -135 -145q-68 -94 -129 -145q-28 -25 -59 -25z"/>
<glyph glyph-name="lacute" horiz-adv-x="561" unicode="ĺ" d="M393 786l-15 -497q0 -79 -8 -232q-10 -100 -98 -100q-98 0 -98 102q0 121 11 363.5t11 363.5q0 158 5 361.5t5 361.5q0 100 98 100q99 0 99 -100q0 -158 -5 -361.5t-5 -361.5zM304 1687q-36 0 -63.5 28t-27.5 64q0 34 31 65q43 42 131 159q66 86 147 143q27 19 53 19 q36 0 63 -28.5t27 -64.5q0 -40 -38 -70q-70 -56 -135 -145q-68 -94 -129 -145q-28 -25 -59 -25z"/>
<glyph glyph-name="Lcedilla" horiz-adv-x="1128" unicode="Ļ" d="M1089 135q0 -64 -64 -94q-94 -44 -286 -82q56 -76 56 -155q0 -249 -242 -249q-85 0 -161 32q-96 42 -96 115q0 54 68 54q36 0 81.5 -24.5t96.5 -24.5q97 1 97 92q0 72 -97 127q-145 -19 -236 -19q-101 0 -145 31q-60 42 -60 154l20 331q26 458 26 1016q0 43 28.5 73 t70.5 30q43 0 71.5 -30t28.5 -73q0 -565 -27 -1028q-1 -28 -13 -152q-6 -66 -6 -121v-26h12q258 0 648 123q17 5 32 5q43 0 72 -34q25 -31 25 -71z"/>
<glyph glyph-name="lcedilla" horiz-adv-x="561" unicode="ļ" d="M675 -196q0 -249 -242 -249q-85 0 -161 32q-96 42 -96 115q0 54 68 54q36 0 81.5 -24.5t96.5 -24.5q97 1 97 92q0 60 -70 110q-55 39 -125 57l-5 1q-20 -10 -47 -10q-98 0 -98 102q0 121 11 363.5t11 363.5q0 158 5 361.5t5 361.5q0 100 98 100q99 0 99 -100 q0 -158 -5 -361.5t-5 -361.5q0 -125 -15 -497q-1 -60 -4 -178q114 -18 205 -107q96 -93 96 -200z"/>
<glyph glyph-name="Lcaron" horiz-adv-x="1128" unicode="Ľ" d="M1025 41q-113 -53 -355 -95q-223 -39 -364 -39q-101 0 -145 31q-60 42 -60 154l20 331q26 458 26 1016q0 43 28.5 73t70.5 30q43 0 71.5 -30t28.5 -73q0 -565 -27 -1028l-13 -152q-6 -66 -6 -121v-26h12q258 0 648 123q17 5 32 5q43 0 72 -34q25 -31 25 -71 q0 -64 -64 -94zM913 1370q0 -97 -51 -208q-59 -129 -138 -129q-71 0 -71 73q0 28 23 63q20 29 40 57q15 24 24 53q-87 51 -87 130q0 54 36.5 89t91.5 35q132 0 132 -163z"/>
<glyph glyph-name="lcaron" horiz-adv-x="951" unicode="ľ" d="M393 786l-15 -497q0 -79 -8 -232q-10 -100 -98 -100q-98 0 -98 102q0 121 11 363.5t11 363.5q0 158 5 361.5t5 361.5q0 100 98 100q99 0 99 -100q0 -158 -5 -361.5t-5 -361.5zM793 1440q0 -97 -51 -208q-59 -129 -138 -129q-71 0 -71 73q0 28 23 63q20 29 40 57 q15 24 24 53q-87 51 -87 130q0 54 36.5 89t91.5 35q132 0 132 -163z"/>
<glyph glyph-name="Ldot" horiz-adv-x="1128" unicode="Ŀ" d="M1025 41q-113 -53 -355 -95q-223 -39 -364 -39q-101 0 -145 31q-60 42 -60 154l20 331q26 458 26 1016q0 43 28.5 73t70.5 30q43 0 71.5 -30t28.5 -73q0 -565 -27 -1028l-13 -152q-6 -66 -6 -121v-26h12q258 0 648 123q17 5 32 5q43 0 72 -34q25 -31 25 -71 q0 -64 -64 -94zM941 716q0 -51 -36.5 -87.5t-87.5 -36.5q-52 0 -88 36.5t-36 87.5t36 87.5t88 36.5q51 0 87.5 -36.5t36.5 -87.5z"/>
<glyph glyph-name="ldot" horiz-adv-x="809" unicode="ŀ" d="M393 786l-15 -497q0 -79 -8 -232q-10 -100 -98 -100q-98 0 -98 102q0 121 11 363.5t11 363.5q0 158 5 361.5t5 361.5q0 100 98 100q99 0 99 -100q0 -158 -5 -361.5t-5 -361.5zM811 716q0 -51 -36.5 -87.5t-87.5 -36.5q-52 0 -88 36.5t-36 87.5t36 87.5t88 36.5 q51 0 87.5 -36.5t36.5 -87.5z"/>
<glyph glyph-name="Lslash" horiz-adv-x="1128" unicode="Ł" d="M335 746l-16 -335l-12 -138q-7 -75 -7 -126v-12v-23h16h7q230 0 637 123q17 5 32 5q41 0 69 -31.5t28 -73.5q0 -64 -64 -94q-112 -53 -352 -95q-223 -39 -367 -39q-107 0 -153 37q-52 42 -52 148q0 96 12 251l17 251q-124 -91 -160 -91q-40 0 -69.5 31.5t-29.5 72.5 q0 47 45 80l223 161l8 591q0 43 28.5 73t70.5 30q43 0 71.5 -30t28.5 -73l-5 -453q130 77 174 77q41 0 69 -31.5t28 -72.5q0 -58 -60 -88q-121 -58 -217 -125z"/>
<glyph glyph-name="lslash" horiz-adv-x="465" unicode="ł" d="M338 683l-12 -436q0 -64 -6 -190q-12 -92 -94 -92q-95 0 -95 96q0 91 7 234l10 234q-103 -67 -143 -67q-38 0 -65 30t-27 68q0 52 53 82q100 54 184 125l5 329l3 329q0 41 26.5 67.5t67.5 26.5t67.5 -26.5t26.5 -67.5l-5 -470l53 62q34 33 69 33q38 0 68 -28.5t30 -66.5 q0 -64 -223 -272z"/>
<glyph glyph-name="Nacute" horiz-adv-x="1632" unicode="Ń" d="M1541 222q0 -48 -16 -160q-16 -101 -107 -101q-55 0 -131 72q-407 385 -934 1111l-5 -227l-3 -228q0 -83 3.5 -249t3.5 -250q0 -269 -104 -269q-55 0 -87 35q-29 31 -29 74q0 42 6.5 127t6.5 127q0 62 4 185.5t4 185.5q0 66 -3 199.5t-3 199.5q0 63 -12 187.5t-12 187.5 q0 46 39.5 84t89.5 38q53 0 131 -116q249 -373 448 -620q237 -293 520 -560q2 22 1.5 53.5t-1.5 73.5l-3 126q0 439 -34 699q-4 26 -27 105q-20 68 -20 106q0 116 106 116q174 0 174 -649q0 -111 -3 -331.5t-3 -331.5zM724 1637q-36 0 -63.5 28t-27.5 64q0 34 31 65 q43 42 131 159q66 86 147 143q27 19 53 19q36 0 63 -28.5t27 -64.5q0 -40 -38 -70q-70 -56 -135 -145q-68 -94 -129 -145q-28 -25 -59 -25z"/>
<glyph glyph-name="nacute" horiz-adv-x="1072" unicode="ń" d="M906 -71q-86 0 -97 94l-28 219q-14 117 -14 219q0 28 3.5 95t3.5 95q0 216 -80 216q-112 0 -214 -133q-92 -121 -144 -306q-2 -39 -9 -98q-6 -50 -6 -97q0 -30 6 -90t6 -90q0 -45 -27.5 -73t-70.5 -28q-44 0 -71 28t-27 73q0 30 -6.5 90t-6.5 90q0 103 14.5 285.5 t14.5 285.5q0 32 -3.5 95t-3.5 95q0 43 28.5 70.5t70.5 27.5q92 0 101 -130l3 -117q168 224 345 224q160 0 223 -141q43 -94 47 -278v-101l-1 -93q0 -83 21.5 -214.5t21.5 -213.5q0 -44 -28.5 -71.5t-71.5 -27.5zM484 1187q-36 0 -63.5 28t-27.5 64q0 34 31 65 q43 42 131 159q66 86 147 143q27 19 53 19q36 0 63 -28.5t27 -64.5q0 -40 -38 -70q-70 -56 -135 -145q-68 -94 -129 -145q-28 -25 -59 -25z"/>
<glyph glyph-name="Ncedilla" horiz-adv-x="1632" unicode="Ņ" d="M1541 222q0 -48 -16 -160q-16 -101 -107 -101q-55 0 -131 72q-407 385 -934 1111l-5 -227l-3 -228q0 -83 3.5 -249t3.5 -250q0 -269 -104 -269q-55 0 -87 35q-29 31 -29 74q0 42 6.5 127t6.5 127q0 62 4 185.5t4 185.5q0 66 -3 199.5t-3 199.5q0 63 -12 187.5t-12 187.5 q0 46 39.5 84t89.5 38q53 0 131 -116q249 -373 448 -620q237 -293 520 -560q2 22 1.5 53.5t-1.5 73.5l-3 126q0 439 -34 699q-4 26 -27 105q-20 68 -20 106q0 116 106 116q174 0 174 -649q0 -111 -3 -331.5t-3 -331.5zM1035 -196q0 -124 -60.5 -186.5t-181.5 -62.5 q-85 0 -161 32q-96 42 -96 115q0 54 68 54q36 0 81.5 -24.5t96.5 -24.5q49 1 73 24t24 68q0 60 -70 110q-56 40 -125 57q-65 15 -65 73q0 76 72 76q120 0 230 -95q114 -98 114 -216z"/>
<glyph glyph-name="ncedilla" horiz-adv-x="1072" unicode="ņ" d="M906 -71q-86 0 -97 94l-28 219q-14 117 -14 219q0 28 3.5 95t3.5 95q0 216 -80 216q-112 0 -214 -133q-92 -121 -144 -306q-2 -39 -9 -98q-6 -50 -6 -97q0 -30 6 -90t6 -90q0 -45 -27.5 -73t-70.5 -28q-44 0 -71 28t-27 73q0 30 -6.5 90t-6.5 90q0 103 14.5 285.5 t14.5 285.5q0 32 -3.5 95t-3.5 95q0 43 28.5 70.5t70.5 27.5q92 0 101 -130l3 -117q168 224 345 224q160 0 223 -141q43 -94 47 -278v-101l-1 -93q0 -83 21.5 -214.5t21.5 -213.5q0 -44 -28.5 -71.5t-71.5 -27.5zM815 -196q0 -124 -60.5 -186.5t-181.5 -62.5q-85 0 -161 32 q-96 42 -96 115q0 54 68 54q36 0 81.5 -24.5t96.5 -24.5q49 1 73 24t24 68q0 60 -70 110q-56 40 -125 57q-65 15 -65 73q0 76 72 76q120 0 230 -95q114 -98 114 -216z"/>
<glyph glyph-name="Ncaron" horiz-adv-x="1632" unicode="Ň" d="M1541 222q0 -48 -16 -160q-16 -101 -107 -101q-55 0 -131 72q-407 385 -934 1111l-5 -227l-3 -228q0 -83 3.5 -249t3.5 -250q0 -269 -104 -269q-55 0 -87 35q-29 31 -29 74q0 42 6.5 127t6.5 127q0 62 4 185.5t4 185.5q0 66 -3 199.5t-3 199.5q0 63 -12 187.5t-12 187.5 q0 46 39.5 84t89.5 38q53 0 131 -116q249 -373 448 -620q237 -293 520 -560q2 22 1.5 53.5t-1.5 73.5l-3 126q0 439 -34 699q-4 26 -27 105q-20 68 -20 106q0 116 106 116q174 0 174 -649q0 -111 -3 -331.5t-3 -331.5zM839 1809l220 197q24 20 49 20q30 0 53 -23.5t23 -53.5 t-26 -55q-285 -268 -328 -268q-31 0 -66 37l-50 62l-117 134q-83 103 -83 144q0 30 24 52t55 22q39 0 63 -40q33 -55 183 -228z"/>
<glyph glyph-name="ncaron" horiz-adv-x="1072" unicode="ň" d="M906 -71q-86 0 -97 94l-28 219q-14 117 -14 219q0 28 3.5 95t3.5 95q0 216 -80 216q-112 0 -214 -133q-92 -121 -144 -306q-2 -39 -9 -98q-6 -50 -6 -97q0 -30 6 -90t6 -90q0 -45 -27.5 -73t-70.5 -28q-44 0 -71 28t-27 73q0 30 -6.5 90t-6.5 90q0 103 14.5 285.5 t14.5 285.5q0 32 -3.5 95t-3.5 95q0 43 28.5 70.5t70.5 27.5q92 0 101 -130l3 -117q168 224 345 224q160 0 223 -141q43 -94 47 -278v-101l-1 -93q0 -83 21.5 -214.5t21.5 -213.5q0 -44 -28.5 -71.5t-71.5 -27.5zM609 1359l220 197q24 20 49 20q30 0 53 -23.5t23 -53.5 t-26 -55q-285 -268 -328 -268q-31 0 -66 37l-50 62l-117 134q-83 103 -83 144q0 30 24 52t55 22q39 0 63 -40q33 -55 183 -228z"/>
<glyph glyph-name="napostrophe" horiz-adv-x="1272" unicode="ŉ" d="M138 1094q-80 0 -80 95q0 37 23 141l38 175q14 79 76 79q36 0 58.5 -27t22.5 -64v-6q0 -86 -53 -298q-24 -95 -85 -95zM1106 -71q-86 0 -97 94l-28 219q-14 117 -14 219q0 28 3.5 95t3.5 95q0 216 -80 216q-112 0 -214 -133q-92 -121 -144 -306q-2 -39 -9 -98 q-6 -50 -6 -97q0 -30 6 -90t6 -90q0 -45 -27.5 -73t-70.5 -28q-44 0 -71 28t-27 73q0 30 -6.5 90t-6.5 90q0 103 14.5 285.5t14.5 285.5q0 32 -3.5 95t-3.5 95q0 43 28.5 70.5t70.5 27.5q92 0 101 -130l3 -117q168 224 345 224q160 0 223 -141q43 -94 47 -278v-101l-1 -93 q0 -83 21.5 -214.5t21.5 -213.5q0 -44 -28.5 -71.5t-71.5 -27.5z"/>
<glyph glyph-name="Eng" horiz-adv-x="1632" unicode="Ŋ" d="M1547 885q0 -111 -3 -331.5t-3 -331.5q0 -383 -60 -532q-87 -216 -350 -216q-208 0 -208 115q0 39 29.5 69.5t70.5 30.5q13 0 27 -3q44 -13 81 -13q130 0 168 112q20 58 20 221q-16 12 -32 27q-407 385 -934 1111q-1 -51 -5 -227q-3 -156 -3 -228q0 -83 3.5 -249 t3.5 -250q0 -269 -104 -269q-55 0 -87 35q-29 31 -29 74q0 42 6.5 127t6.5 127q0 62 4 185.5t4 185.5q0 66 -3 199.5t-3 199.5q0 63 -12 187.5t-12 187.5q0 46 39.5 84t89.5 38q53 0 131 -116q249 -373 448 -620q237 -293 520 -560q1 22 1 53q0 32 -1 74q-3 109 -3 126 q0 439 -34 699q-4 26 -27 105q-20 68 -20 106q0 116 106 116q174 0 174 -649z"/>
<glyph glyph-name="eng" horiz-adv-x="1072" unicode="ŋ" d="M1016 -222q0 -137 -81 -250q-90 -125 -221 -125q-129 0 -205 68q-60 54 -115 186q-12 29 -12 48q0 40 31.5 69t72.5 29q55 0 105.5 -100.5t122.5 -100.5q44 0 77 69q28 58 28 107q0 114 -26 341.5t-26 341.5q0 32 3.5 95t3.5 95q0 216 -80 216q-121 0 -236 -163 q-99 -141 -122 -276q-15 -87 -15 -195q0 -30 6 -90t6 -90q0 -44 -27 -72.5t-71 -28.5t-71 28.5t-27 72.5q0 30 -6.5 90t-6.5 90q0 96 14.5 286t14.5 285q0 32 -3.5 95t-3.5 95q0 42 28.5 70t70.5 28q79 0 97 -92q3 -16 7 -155q168 224 345 224q164 0 227 -150 q44 -104 44 -308q0 -30 -1 -82t-1 -73q0 -113 26.5 -338.5t26.5 -339.5z"/>
<glyph glyph-name="Omacron" horiz-adv-x="1635" unicode="Ō" d="M892 1310q-245 0 -415 -244q-157 -224 -157 -494q0 -193 143 -314q137 -114 339 -114q243 0 401 245q141 219 141 492q0 239 -107 336q-102 93 -345 93zM802 -61q-282 0 -478 169q-208 180 -208 464q0 346 205 629q229 314 571 314q329 0 489 -148q167 -154 167 -486 q0 -346 -188 -624q-216 -318 -558 -318zM773 1794q39 0 118.5 -4.5t118.5 -4.5q41 0 122 2t121 2q78 0 78 -75q0 -60 -65 -73l-112 -5h-155q-48 0 -144 3t-145 3q-72 0 -72 76q0 51 46 67q24 9 89 9z"/>
<glyph glyph-name="omacron" horiz-adv-x="1077" unicode="ō" d="M574 834h-2q-146 0 -227 -140q-65 -113 -65 -258t79 -226q66 -67 155 -67q104 0 179 76q85 84 90 227q1 23 1 44q0 343 -210 344zM514 -59q-168 0 -289 124q-135 138 -142 371v21q0 213 114 377q140 203 390 203q200 0 303 -183q79 -143 79 -341v-15q-3 -222 -116 -379 q-128 -178 -339 -178zM373 1344q39 0 118.5 -4.5t118.5 -4.5q41 0 122 2t121 2q78 0 78 -75q0 -60 -65 -73l-112 -5h-155q-48 0 -144 3t-145 3q-72 0 -72 76q0 51 46 67q24 9 89 9z"/>
<glyph glyph-name="Obreve" horiz-adv-x="1635" unicode="Ŏ" d="M892 1310q-245 0 -415 -244q-157 -224 -157 -494q0 -193 143 -314q137 -114 339 -114q243 0 401 245q141 219 141 492q0 239 -107 336q-102 93 -345 93zM802 -61q-282 0 -478 169q-208 180 -208 464q0 346 205 629q229 314 571 314q329 0 489 -148q167 -154 167 -486 q0 -346 -188 -624q-216 -318 -558 -318zM956 1779q293 0 336 160q17 63 72 63q32 0 55.5 -21t21.5 -52l-2 -14q-12 -152 -176 -228q-128 -58 -307 -58q-142 0 -249 96q-110 98 -110 239q0 75 74 75q75 0 75 -75q0 -78 67 -133q63 -52 143 -52z"/>
<glyph glyph-name="obreve" horiz-adv-x="1077" unicode="ŏ" d="M574 834h-2q-146 0 -227 -140q-65 -113 -65 -258t79 -226q66 -67 155 -67q104 0 179 76q85 84 90 227q1 23 1 44q0 343 -210 344zM514 -59q-168 0 -289 124q-135 138 -142 371v21q0 213 114 377q140 203 390 203q200 0 303 -183q79 -143 79 -341v-15q-3 -222 -116 -379 q-128 -178 -339 -178zM552 1329q293 0 336 160q17 63 72 63q32 0 55.5 -21t21.5 -52l-2 -14q-12 -152 -176 -228q-128 -58 -307 -58q-142 0 -249 96q-110 98 -110 239q0 75 74 75q75 0 75 -75q0 -78 67 -133q63 -52 143 -52z"/>
<glyph glyph-name="Odblacute" horiz-adv-x="1635" unicode="Ő" d="M892 1310q-245 0 -415 -244q-157 -224 -157 -494q0 -193 143 -314q137 -114 339 -114q243 0 401 245q141 219 141 492q0 239 -107 336q-102 93 -345 93zM802 -61q-282 0 -478 169q-208 180 -208 464q0 346 205 629q229 314 571 314q329 0 489 -148q167 -154 167 -486 q0 -346 -188 -624q-216 -318 -558 -318zM1325 2014q30 0 52 -23.5t22 -54.5t-37 -62l-149 -142q-105 -99 -142 -99q-30 0 -52.5 24t-22.5 54q0 33 31 58l147 142q108 103 151 103zM989 2045q30 0 53.5 -23t23.5 -53q0 -25 -20 -49q-39 -47 -125 -129q-89 -84 -126 -128 q-26 -30 -58 -30q-30 0 -53.5 22.5t-23.5 53.5q0 37 117 156l156 153q26 27 56 27z"/>
<glyph glyph-name="odblacute" horiz-adv-x="1077" unicode="ő" d="M574 834h-2q-146 0 -227 -140q-65 -113 -65 -258t79 -226q66 -67 155 -67q104 0 179 76q85 84 90 227q1 23 1 44q0 343 -210 344zM514 -59q-168 0 -289 124q-135 138 -142 371v21q0 213 114 377q140 203 390 203q200 0 303 -183q79 -143 79 -341v-15q-3 -222 -116 -379 q-128 -178 -339 -178zM925 1564q30 0 52 -23.5t22 -54.5t-37 -62l-149 -142q-105 -99 -142 -99q-30 0 -52.5 24t-22.5 54q0 33 31 58l147 142q108 103 151 103zM589 1595q30 0 53.5 -23t23.5 -53q0 -25 -20 -49q-39 -47 -125 -129q-89 -84 -126 -128q-26 -30 -58 -30 q-30 0 -53.5 22.5t-23.5 53.5q0 37 117 156l156 153q26 27 56 27z"/>
<glyph glyph-name="OE" horiz-adv-x="2445" unicode="Œ" d="M2332 1369q-14 0 -31 5q-169 48 -327 48q-164 0 -388 -61q5 -33 7 -59t2 -45q0 -140 -16 -382l438 41q192 20 237 20q44 0 73.5 -28t29.5 -75q0 -90 -91 -102l-239 -20l-462 -43q-8 -143 -8 -253q0 -220 32 -259q23 -28 156 -28q62 0 187 3.5t187 3.5q20 0 59 6t58 6 q107 0 107 -103q0 -84 -86 -101q-94 -19 -406 -19q-270 0 -362 54q-105 63 -125 264q-107 -151 -244 -227t-304 -76q-282 0 -478 169q-208 180 -208 464q0 346 205 629q229 314 571 314q159 0 278.5 -34.5t199.5 -103.5q-8 61 -8 96q0 120 99 120q43 0 72 -30q240 65 427 65 q243 0 389 -59q67 -27 67 -95q0 -40 -26 -71q-29 -34 -72 -34zM906 1310q-245 0 -415 -244q-157 -224 -157 -494q0 -193 143 -314q137 -114 339 -114q243 0 401 245q141 219 141 492q0 239 -107 336q-102 93 -345 93z"/>
<glyph glyph-name="oe" horiz-adv-x="1837" unicode="œ" d="M783 446q1 23 1 44q0 343 -210 344h-2q-146 0 -226 -140q-66 -113 -66 -258t79 -226q66 -67 155 -67q104 0 179 76q85 84 90 227zM1535 785q-86 80 -241 80q-244 0 -324 -379l307 146q181 88 258 153zM876 153q-129 -212 -362 -212q-168 0 -289 124q-135 138 -142 371v21 q0 213 114 377q140 203 390 203q219 0 319 -216q138 224 388 224q166 0 271 -56q129 -70 129 -212q0 -100 -113 -182q-50 -36 -212 -112l-382 -181q112 -167 334 -167q69 0 162 26q118 33 152 86.5t73 53.5q35 0 62.5 -26.5t27.5 -61.5q0 -111 -179 -191q-153 -68 -298 -68 q-310 0 -445 199z"/>
<glyph glyph-name="Racute" horiz-adv-x="1287" unicode="Ŕ" d="M489 1311l-148 12l10 -121q7 -74 7 -121q0 -80 -13 -199l-21 -199q14 0 43.5 -1t44.5 -1q255 0 382 68q56 31 104 81q53 56 53 95q0 139 -158 259q-145 110 -304 127zM1126 -11q-38 0 -71 32q-331 327 -736 440l8 -196l5 -197q0 -44 -28.5 -73.5t-71.5 -29.5t-71.5 29.5 t-28.5 73.5q0 79 -7.5 235.5t-7.5 235.5q0 92 20 274t20 273q0 51 -9.5 151t-9.5 151q0 57 32 100q35 48 94 48h11l241 -19q137 -17 231 -67q405 -215 405 -525q0 -152 -138 -269q-111 -94 -277 -143q311 -167 465 -352q26 -32 26 -68q0 -42 -30.5 -73t-71.5 -31zM524 1687 q-36 0 -63.5 28t-27.5 64q0 34 31 65q43 42 131 159q66 86 147 143q27 19 53 19q36 0 63 -28.5t27 -64.5q0 -40 -38 -70q-70 -56 -135 -145q-68 -94 -129 -145q-28 -25 -59 -25z"/>
<glyph glyph-name="racute" horiz-adv-x="984" unicode="ŕ" d="M917 739q-7 -125 -100 -125q-86 0 -86 99q0 19 -3 70l-3 84q-158 -19 -253 -89q-89 -65 -148 -196l2 -548q0 -101 -99 -101q-88 0 -88 101v702q0 33 2.5 99t2.5 99q0 101 88 101q98 0 99 -166q192 185 426 185q81 0 121 -61t40 -184q0 -52 -1 -70zM454 1187 q-36 0 -63.5 28t-27.5 64q0 34 31 65q43 42 131 159q66 86 147 143q27 19 53 19q36 0 63 -28.5t27 -64.5q0 -40 -38 -70q-70 -56 -135 -145q-68 -94 -129 -145q-28 -25 -59 -25z"/>
<glyph glyph-name="Rcedilla" horiz-adv-x="1287" unicode="Ŗ" d="M489 1311l-148 12l10 -121q7 -74 7 -121q0 -80 -13 -199l-21 -199q14 0 43.5 -1t44.5 -1q255 0 382 68q56 31 104 81q53 56 53 95q0 139 -158 259q-145 110 -304 127zM1126 -11q-38 0 -71 32q-331 327 -736 440l8 -196l5 -197q0 -44 -28.5 -73.5t-71.5 -29.5t-71.5 29.5 t-28.5 73.5q0 79 -7.5 235.5t-7.5 235.5q0 92 20 274t20 273q0 51 -9.5 151t-9.5 151q0 57 32 100q35 48 94 48h11l241 -19q137 -17 231 -67q405 -215 405 -525q0 -152 -138 -269q-111 -94 -277 -143q311 -167 465 -352q26 -32 26 -68q0 -42 -30.5 -73t-71.5 -31zM865 -196 q0 -124 -60.5 -186.5t-181.5 -62.5q-85 0 -161 32q-96 42 -96 115q0 54 68 54q36 0 81.5 -24.5t96.5 -24.5q49 1 73 24t24 68q0 60 -70 110q-56 40 -125 57q-65 15 -65 73q0 76 72 76q120 0 230 -95q114 -98 114 -216z"/>
<glyph glyph-name="rcedilla" horiz-adv-x="984" unicode="ŗ" d="M918 809q0 -52 -1 -70q-7 -125 -100 -125q-86 0 -86 99q0 19 -3 70l-3 84q-158 -19 -253 -89q-89 -65 -148 -196v-490q96 -37 163 -115q71 -84 71 -173q0 -249 -242 -249q-85 0 -161 32q-96 42 -96 115q0 54 68 54q36 0 81.5 -24.5t96.5 -24.5q97 1 97 92q0 85 -130 144 q-20 -10 -45 -10q-88 0 -88 101v702q0 33 2.5 99t2.5 99q0 101 88 101q62 0 81 -57q11 -31 11 -109q192 185 433 185q161 0 161 -245z"/>
<glyph glyph-name="Rcaron" horiz-adv-x="1287" unicode="Ř" d="M489 1311l-148 12l10 -121q7 -74 7 -121q0 -80 -13 -199l-21 -199q14 0 43.5 -1t44.5 -1q255 0 382 68q56 31 104 81q53 56 53 95q0 139 -158 259q-145 110 -304 127zM1126 -11q-38 0 -71 32q-331 327 -736 440l8 -196l5 -197q0 -44 -28.5 -73.5t-71.5 -29.5t-71.5 29.5 t-28.5 73.5q0 79 -7.5 235.5t-7.5 235.5q0 92 20 274t20 273q0 51 -9.5 151t-9.5 151q0 57 32 100q35 48 94 48h11l241 -19q137 -17 231 -67q405 -215 405 -525q0 -152 -138 -269q-111 -94 -277 -143q311 -167 465 -352q26 -32 26 -68q0 -42 -30.5 -73t-71.5 -31zM589 1809 l220 197q24 20 49 20q30 0 53 -23.5t23 -53.5t-26 -55q-285 -268 -328 -268q-31 0 -66 37l-50 62l-117 134q-83 103 -83 144q0 30 24 52t55 22q39 0 63 -40q33 -55 183 -228z"/>
<glyph glyph-name="rcaron" horiz-adv-x="984" unicode="ř" d="M917 739q-7 -125 -100 -125q-86 0 -86 99q0 19 -3 70l-3 84q-158 -19 -253 -89q-89 -65 -148 -196l2 -548q0 -101 -99 -101q-88 0 -88 101v702q0 33 2.5 99t2.5 99q0 101 88 101q98 0 99 -166q192 185 426 185q81 0 121 -61t40 -184q0 -52 -1 -70zM509 1359l220 197 q24 20 49 20q30 0 53 -23.5t23 -53.5t-26 -55q-285 -268 -328 -268q-31 0 -66 37l-50 62l-117 134q-83 103 -83 144q0 30 24 52t55 22q39 0 63 -40q33 -55 183 -228z"/>
<glyph glyph-name="Sacute" horiz-adv-x="1420" unicode="Ś" d="M134 252q0 40 28 66q30 26 73 26q49 0 86 -56q51 -76 91 -103q85 -56 247 -56q155 0 288 67q170 86 170 239q0 126 -143 199q-121 63 -299 68q-158 6 -269 69q-142 81 -142 232q0 178 202 325q193 139 399 139q97 0 219 -33q162 -43 162 -110q0 -88 -90 -88 q-40 0 -140 22q-96 21 -150 20h-5q-156 -2 -265 -77q-112 -77 -112 -187q0 -83 148 -117q55 -13 213 -24q229 -17 358 -144q118 -116 118 -283q0 -238 -220 -380q-191 -123 -443 -123q-183 0 -335 70q-189 88 -189 239zM704 1637q-36 0 -63.5 28t-27.5 64q0 34 31 65 q43 42 131 159q66 86 147 143q27 19 53 19q36 0 63 -28.5t27 -64.5q0 -40 -38 -70q-70 -56 -135 -145q-68 -94 -129 -145q-28 -25 -59 -25z"/>
<glyph glyph-name="sacute" horiz-adv-x="997" unicode="ś" d="M814 770q-55 0 -77 37q-15 26 -26 108q-75 -19 -231 -70q-161 -64 -162 -158q30 -11 59 -16q230 -41 342 -113q163 -105 163 -304q0 -163 -141 -246q-117 -68 -296 -68q-131 0 -250 44q-154 56 -154 156q0 40 31.5 70t71.5 30q31 0 80 -48q24 -23 108 -38q67 -12 113 -12 q84 0 148 20q93 29 93 92q0 136 -190 184l-104 23q-133 29 -189 68q-81 56 -81 169q0 209 197 298q60 27 192 64.5t189 63.5q41 18 89 18q43 0 70.5 -28t27.5 -73q0 -29 12.5 -85t12.5 -85q0 -45 -27.5 -73t-70.5 -28zM504 1187q-36 0 -63.5 28t-27.5 64q0 34 31 65 q43 42 131 159q66 86 147 143q27 19 53 19q36 0 63 -28.5t27 -64.5q0 -40 -38 -70q-70 -56 -135 -145q-68 -94 -129 -145q-28 -25 -59 -25z"/>
<glyph glyph-name="Scircumflex" horiz-adv-x="1420" unicode="Ŝ" d="M134 252q0 40 28 66q30 26 73 26q49 0 86 -56q51 -76 91 -103q85 -56 247 -56q155 0 288 67q170 86 170 239q0 126 -143 199q-121 63 -299 68q-158 6 -269 69q-142 81 -142 232q0 178 202 325q193 139 399 139q97 0 219 -33q162 -43 162 -110q0 -88 -90 -88 q-40 0 -140 22q-96 21 -150 20h-5q-156 -2 -265 -77q-112 -77 -112 -187q0 -83 148 -117q55 -13 213 -24q229 -17 358 -144q118 -116 118 -283q0 -238 -220 -380q-191 -123 -443 -123q-183 0 -335 70q-189 88 -189 239zM760 2140q55 0 132 -67q24 -21 109 -112l159 -170 q26 -30 26 -61q0 -36 -27.5 -63.5t-64.5 -27.5q-33 0 -63 29q-80 90 -250 260q-254 -312 -326 -312q-36 0 -63.5 28t-27.5 64q0 35 30 65q56 54 305 336q27 31 61 31z"/>
<glyph glyph-name="scircumflex" horiz-adv-x="997" unicode="ŝ" d="M814 770q-55 0 -77 37q-15 26 -26 108q-75 -19 -231 -70q-161 -64 -162 -158q30 -11 59 -16q230 -41 342 -113q163 -105 163 -304q0 -163 -141 -246q-117 -68 -296 -68q-131 0 -250 44q-154 56 -154 156q0 40 31.5 70t71.5 30q31 0 80 -48q24 -23 108 -38q67 -12 113 -12 q84 0 148 20q93 29 93 92q0 136 -190 184l-104 23q-133 29 -189 68q-81 56 -81 169q0 209 197 298q60 27 192 64.5t189 63.5q41 18 89 18q43 0 70.5 -28t27.5 -73q0 -29 12.5 -85t12.5 -85q0 -45 -27.5 -73t-70.5 -28zM460 1690q55 0 132 -67q24 -21 109 -112l159 -170 q26 -30 26 -61q0 -36 -27.5 -63.5t-64.5 -27.5q-33 0 -63 29q-80 90 -250 260q-254 -312 -326 -312q-36 0 -63.5 28t-27.5 64q0 35 30 65q56 54 305 336q27 31 61 31z"/>
<glyph glyph-name="Scedilla" horiz-adv-x="1420" unicode="Ş" d="M1321 446q0 -200 -159 -335q-138 -117 -352 -154q55 -75 55 -153q0 -249 -242 -249q-85 0 -161 32q-96 42 -96 115q0 54 68 54q36 0 81.5 -24.5t96.5 -24.5q97 1 97 92t-143 150q-170 19 -287 87q-145 85 -145 216q0 40 29 66t72 26q49 0 86 -56q51 -76 91 -103 q85 -56 247 -56q155 0 288 67q170 86 170 239q0 126 -143 199q-121 63 -299 68q-158 6 -269 69q-142 81 -142 232q0 178 202 325q193 139 399 139q97 0 219 -33q162 -43 162 -110q0 -88 -90 -88q-40 0 -138.5 21t-151.5 21h-5q-156 -2 -265 -77q-112 -77 -112 -187 q0 -83 148 -117q55 -13 213 -24q229 -17 358 -144q118 -116 118 -283z"/>
<glyph glyph-name="scedilla" horiz-adv-x="997" unicode="ş" d="M912 871q0 -45 -27.5 -73t-70.5 -28q-55 0 -77 37q-15 26 -26 108q-75 -19 -231 -70q-161 -64 -162 -158q30 -11 59 -16q230 -41 342 -113q163 -105 163 -304q0 -246 -299 -302q52 -73 52 -148q0 -249 -242 -249q-85 0 -161 32q-96 42 -96 115q0 54 68 54 q36 0 81.5 -24.5t96.5 -24.5q97 1 97 92q0 92 -145 150q-293 45 -293 191q0 40 31.5 70t71.5 30q31 0 80 -48q24 -23 108 -38q67 -12 113 -12q84 0 148 20q93 29 93 92q0 136 -190 184q-17 4 -104 23q-133 29 -189 68q-81 56 -81 169q0 209 197 298q60 27 192 64.5t189 63.5 q41 18 89 18q43 0 70.5 -28t27.5 -73q0 -29 12.5 -85t12.5 -85z"/>
<glyph glyph-name="Scaron" horiz-adv-x="1420" unicode="Š" d="M135 252q0 40 28 66q30 26 73 26q49 0 86 -56q51 -76 91 -103q85 -56 247 -56q155 0 288 67q170 86 170 239q0 126 -143 199q-121 63 -299 68q-158 6 -269 69q-142 81 -142 232q0 178 202 325q193 139 399 139q97 0 219 -33q162 -43 162 -110q0 -88 -90 -88 q-40 0 -140 22q-96 21 -150 20h-5q-156 -2 -265 -77q-112 -77 -112 -187q0 -83 148 -117q55 -13 213 -24q229 -17 358 -144q118 -116 118 -283q0 -238 -220 -380q-191 -123 -443 -123q-183 0 -335 70q-189 88 -189 239zM882 1810l220 197q24 20 49 20q30 0 53 -23.5 t23 -53.5t-26 -55q-285 -268 -328 -268q-31 0 -66 37l-50 62l-117 134q-83 103 -83 144q0 30 24 52t55 22q39 0 63 -40q33 -55 183 -228z"/>
<glyph glyph-name="scaron" horiz-adv-x="826" unicode="š" d="M816 770q-55 0 -77 37q-15 26 -26 108q-75 -19 -231 -70q-161 -64 -162 -158q30 -11 59 -16q230 -41 342 -113q163 -105 163 -304q0 -163 -141 -246q-117 -68 -296 -68q-131 0 -250 44q-154 56 -154 156q0 40 31.5 70t71.5 30q31 0 80 -48q24 -23 108 -38q67 -12 113 -12 q84 0 148 20q93 29 93 92q0 136 -190 184l-104 23q-133 29 -189 68q-81 56 -81 169q0 209 197 298q60 27 192 64.5t189 63.5q41 18 89 18q43 0 70.5 -28t27.5 -73q0 -29 12.5 -85t12.5 -85q0 -45 -27.5 -73t-70.5 -28zM514 1359l220 197q24 20 49 20q30 0 53 -23.5t23 -53.5 t-26 -55q-285 -268 -328 -268q-31 0 -66 37l-50 62l-117 134q-83 103 -83 144q0 30 24 52t55 22q39 0 63 -40q33 -55 183 -228z"/>
<glyph glyph-name="Tcedilla" horiz-adv-x="1392" unicode="Ţ" d="M1362 1263q-74 0 -228 12q-138 10 -214 10h-14h-71q3 -138 27 -448q22 -289 22 -449q0 -35 7 -106t7 -107q0 -68 -22 -117q-28 -66 -87 -66q-40 0 -72 28t-32 72q0 15 5 45t5 45q0 49 -6.5 147t-6.5 148q0 143 -23 402q-24 280 -27 402l-91 -1q-219 0 -344 32 q-81 21 -81 99q0 41 26 72q28 32 70 32h7q35 -2 160 -18q100 -12 162 -12q60 0 182 2.5t182 2.5q77 0 228.5 -11t228.5 -11q43 0 72 -29.5t29 -73.5q0 -43 -29 -72.5t-72 -29.5zM867 -302q0 -97 -51 -208q-59 -129 -138 -129q-71 0 -71 73q0 28 23 63q20 29 40 57 q15 24 24 53q-87 51 -87 130q0 54 36.5 89t91.5 35q132 0 132 -163z"/>
<glyph glyph-name="tcedilla" horiz-adv-x="965" unicode="ţ" d="M808 852q-21 0 -49.5 2t-49.5 2q-23 0 -136 -15l19 -591l1 -44l1 -51v-15q0 -204 -105 -204q-40 0 -69.5 26t-29.5 65q0 38 3 114t3 114l-20 584q-73 3 -222 17q-89 12 -89 99q0 44 27 73t69 29l210 -17q0 51 -4.5 136.5t-4.5 123.5q0 42 29 69.5t71 27.5q90 0 105 -147 q3 -37 3 -89l-2 -58l-1 -62q124 16 142 16q104 0 136 -10q61 -20 61 -94q0 -44 -27.5 -72.5t-70.5 -28.5zM619 -302q0 -97 -51 -208q-59 -129 -138 -129q-71 0 -71 73q0 28 23 63q20 29 40 57q15 24 24 53q-87 51 -87 130q0 54 36.5 89t91.5 35q132 0 132 -163z"/>
<glyph glyph-name="Tcaron" horiz-adv-x="1392" unicode="Ť" d="M1362 1263q-74 0 -228 12q-138 10 -214 10h-14h-71q3 -138 27 -448q22 -289 22 -449q0 -35 7 -106t7 -107q0 -68 -22 -117q-28 -66 -87 -66q-40 0 -72 28t-32 72q0 15 5 45t5 45q0 49 -6.5 147t-6.5 148q0 143 -23 402q-24 280 -27 402l-91 -1q-219 0 -344 32 q-81 21 -81 99q0 41 26 72q28 32 70 32h7q35 -2 160 -18q100 -12 162 -12q60 0 182 2.5t182 2.5q77 0 228.5 -11t228.5 -11q43 0 72 -29.5t29 -73.5q0 -43 -29 -72.5t-72 -29.5zM769 1859l220 197q24 20 49 20q30 0 53 -23.5t23 -53.5t-26 -55q-285 -268 -328 -268 q-31 0 -66 37l-50 62l-117 134q-83 103 -83 144q0 30 24 52t55 22q39 0 63 -40q33 -55 183 -228z"/>
<glyph glyph-name="tcaron" horiz-adv-x="1309" unicode="ť" d="M808 852q-21 0 -49.5 2t-49.5 2q-23 0 -136 -15l19 -591l1 -44l1 -51v-15q0 -204 -105 -204q-40 0 -69.5 26t-29.5 65q0 38 3 114t3 114l-20 584q-73 3 -222 17q-89 12 -89 99q0 44 27 73t69 29l210 -17q0 51 -4.5 136.5t-4.5 123.5q0 42 29 69.5t71 27.5q90 0 105 -147 q3 -37 3 -89l-2 -58l-1 -62q124 16 142 16q104 0 136 -10q61 -20 61 -94q0 -44 -27.5 -72.5t-70.5 -28.5zM1243 1230q0 -97 -51 -208q-59 -129 -138 -129q-71 0 -71 73q0 28 23 63q20 29 40 57q15 24 24 53q-87 51 -87 130q0 54 36.5 89t91.5 35q132 0 132 -163z"/>
<glyph glyph-name="Tbar" horiz-adv-x="1392" unicode="Ŧ" d="M1389 1365q0 -43 -29 -72.5t-72 -29.5q-72 0 -213.5 11t-216.5 11h-12h-85q3 -140 24 -414q118 -9 174 -9q43 0 71 -28t28 -71t-28 -71t-71 -28q-56 0 -159 7q10 -160 10 -283q0 -35 7 -106t7 -107q0 -183 -109 -183q-42 0 -73 29t-31 71q0 15 5.5 45t5.5 45q0 49 -7 147 t-7 148q0 91 -7 203q-34 0 -104 -8t-104 -8q-43 0 -71 29t-28 72q0 81 113 104q48 10 178 10q-12 134 -27 402l-91 -1h-24q-204 0 -320 32q-81 23 -81 99q0 46 29 75t74 29q53 0 160.5 -15t161.5 -15q61 0 182.5 2.5t182.5 2.5q76 0 228 -11t228 -11q43 0 72 -30t29 -73z "/>
<glyph glyph-name="tbar" horiz-adv-x="965" unicode="ŧ" d="M906 953q0 -99 -119 -99q-13 0 -39.5 1t-38.5 1q-23 0 -136 -15l7 -161q70 -6 140 -11q78 -19 78 -96q0 -43 -28 -71t-71 -28q-54 0 -111 6q7 -208 7 -344q0 -200 -106 -200q-40 0 -69.5 26t-29.5 65q0 38 3 114t3 114q0 103 -5 234q-20 -1 -63 -8t-65 -7q-43 0 -71 29 t-28 72q0 111 219 114l-7 150q-74 3 -222 17q-89 13 -89 99q0 42 26.5 72t69.5 30q-9 0 210 -17q0 43 -4.5 130t-4.5 130q0 42 29 69.5t71 27.5q109 0 109 -227q0 -28 -2 -72t-2 -57q126 16 184 16q74 0 107 -15q48 -23 48 -89z"/>
<glyph glyph-name="Utilde" horiz-adv-x="1509" unicode="Ũ" d="M790 -40q-311 0 -464 179q-124 144 -156 426q-15 127 -15 507q0 140 6 226q6 91 18 127q25 73 90 73q92 0 92 -169v-587q0 -606 424 -606q399 0 399 1020v98q-1 60 -1 80q0 62 22 109q28 60 83 60q100 0 100 -137q0 -41 1 -124v-124q0 -1158 -599 -1158zM624 2004 q100 0 161 -58l83 -106q47 -58 112 -58q57 0 85 37l46 88l20 59q14 29 60 29q75 0 75 -74q0 -36 -43 -121q-40 -80 -69 -110q-56 -57 -143 -57q-131 0 -205 57q-27 21 -88 107q-42 57 -94 57q-31 0 -55.5 -11.5t-42.5 -34.5l-44 -85q-25 -45 -65 -45q-31 0 -54 20.5 t-23 51.5q0 11 3 23q28 102 101 165q78 66 180 66z"/>
<glyph glyph-name="utilde" horiz-adv-x="1065" unicode="ũ" d="M955 584q0 -72 1 -216t1 -216q0 -22 3.5 -67t3.5 -67q0 -43 -29 -70.5t-71 -27.5q-77 0 -98 95q-125 -65 -288 -65q-131 0 -217 58q-95 64 -113 187q-39 265 -39 472q0 137 30 312q14 87 95 87q43 0 72 -27.5t29 -70.5q0 -46 -14.5 -147t-14.5 -154q0 -167 11 -286 t33 -191q33 -18 65 -27.5t63 -9.5q134 0 283 43l-1 203l-2 194q0 216 19 375q11 92 97 92q43 0 72 -28q27 -26 27 -65v-5zM374 1554q100 0 161 -58l83 -106q47 -58 112 -58q57 0 85 37l46 88l20 59q14 29 60 29q75 0 75 -74q0 -36 -43 -121q-40 -80 -69 -110 q-56 -57 -143 -57q-131 0 -205 57q-27 21 -88 107q-42 57 -94 57q-31 0 -55.5 -11.5t-42.5 -34.5l-44 -85q-25 -45 -65 -45q-31 0 -54 20.5t-23 51.5q0 11 3 23q28 102 101 165q78 66 180 66z"/>
<glyph glyph-name="Umacron" horiz-adv-x="1509" unicode="Ū" d="M790 -40q-311 0 -464 179q-124 144 -156 426q-15 127 -15 507q0 140 6 226q6 91 18 127q25 73 90 73q92 0 92 -169v-587q0 -606 424 -606q399 0 399 1020v98q-1 60 -1 80q0 62 22 109q28 60 83 60q100 0 100 -137q0 -41 1 -124v-124q0 -1158 -599 -1158zM613 1794 q39 0 118.5 -4.5t118.5 -4.5q41 0 122 2t121 2q78 0 78 -75q0 -60 -65 -73l-112 -5h-155q-48 0 -144 3t-145 3q-72 0 -72 76q0 51 46 67q24 9 89 9z"/>
<glyph glyph-name="umacron" horiz-adv-x="1065" unicode="ū" d="M955 584q0 -72 1 -216t1 -216q0 -22 3.5 -67t3.5 -67q0 -43 -29 -70.5t-71 -27.5q-77 0 -98 95q-125 -65 -288 -65q-131 0 -217 58q-95 64 -113 187q-39 265 -39 472q0 137 30 312q14 87 95 87q43 0 72 -27.5t29 -70.5q0 -46 -14.5 -147t-14.5 -154q0 -167 11 -286 t33 -191q33 -18 65 -27.5t63 -9.5q134 0 283 43l-1 203l-2 194q0 216 19 375q11 92 97 92q43 0 72 -28q27 -26 27 -65v-5zM368 1344q39 0 118.5 -4.5t118.5 -4.5q41 0 122 2t121 2q78 0 78 -75q0 -60 -65 -73l-112 -5h-155q-48 0 -144 3t-145 3q-72 0 -72 76q0 51 46 67 q24 9 89 9z"/>
<glyph glyph-name="Ubreve" horiz-adv-x="1509" unicode="Ŭ" d="M790 -40q-311 0 -464 179q-124 144 -156 426q-15 127 -15 507q0 140 6 226q6 91 18 127q25 73 90 73q92 0 92 -169v-587q0 -606 424 -606q399 0 399 1020v98q-1 60 -1 80q0 62 22 109q28 60 83 60q100 0 100 -137q0 -41 1 -124v-124q0 -1158 -599 -1158zM762 1779 q293 0 336 160q17 63 72 63q32 0 55.5 -21t21.5 -52l-2 -14q-12 -152 -176 -228q-128 -58 -307 -58q-142 0 -249 96q-110 98 -110 239q0 75 74 75q75 0 75 -75q0 -78 67 -133q63 -52 143 -52z"/>
<glyph glyph-name="ubreve" horiz-adv-x="1065" unicode="ŭ" d="M955 584q0 -72 1 -216t1 -216q0 -22 3.5 -67t3.5 -67q0 -43 -29 -70.5t-71 -27.5q-77 0 -98 95q-125 -65 -288 -65q-131 0 -217 58q-95 64 -113 187q-39 265 -39 472q0 137 30 312q14 87 95 87q43 0 72 -27.5t29 -70.5q0 -46 -14.5 -147t-14.5 -154q0 -167 11 -286 t33 -191q33 -18 65 -27.5t63 -9.5q134 0 283 43l-1 203l-2 194q0 216 19 375q11 92 97 92q43 0 72 -28q27 -26 27 -65v-5zM492 1329q293 0 336 160q17 63 72 63q32 0 55.5 -21t21.5 -52l-2 -14q-12 -152 -176 -228q-128 -58 -307 -58q-142 0 -249 96q-110 98 -110 239 q0 75 74 75q75 0 75 -75q0 -78 67 -133q63 -52 143 -52z"/>
<glyph glyph-name="Uring" horiz-adv-x="1509" unicode="Ů" d="M790 -40q-311 0 -464 179q-124 144 -156 426q-15 127 -15 507q0 140 6 226q6 91 18 127q25 73 90 73q92 0 92 -169v-587q0 -606 424 -606q399 0 399 1020v98q-1 60 -1 80q0 62 22 109q28 60 83 60q100 0 100 -137q0 -41 1 -124v-124q0 -1158 -599 -1158zM413 1899 q0 145 103 229q99 80 260 80q125 0 214 -70q97 -77 97 -199q0 -148 -89.5 -224t-268.5 -79h-7q-131 0 -219 76q-90 77 -90 187zM744 1783q86 3 126 24q67 36 67 132q0 58 -54 91q-45 29 -107 29q-213 0 -213 -154v-6q1 -46 61 -82q57 -34 114 -34h6z"/>
<glyph glyph-name="uring" horiz-adv-x="1065" unicode="ů" d="M955 584q0 -72 1 -216t1 -216q0 -22 3.5 -67t3.5 -67q0 -43 -29 -70.5t-71 -27.5q-77 0 -98 95q-125 -65 -288 -65q-131 0 -217 58q-95 64 -113 187q-39 265 -39 472q0 137 30 312q14 87 95 87q43 0 72 -27.5t29 -70.5q0 -46 -14.5 -147t-14.5 -154q0 -167 11 -286 t33 -191q33 -18 65 -27.5t63 -9.5q134 0 283 43l-1 203l-2 194q0 216 19 375q11 92 97 92q43 0 72 -28q27 -26 27 -65v-5zM163 1449q0 145 103 229q99 80 260 80q125 0 214 -70q97 -77 97 -199q0 -148 -89.5 -224t-268.5 -79h-7q-131 0 -219 76q-90 77 -90 187zM494 1333 q86 3 126 24q67 36 67 132q0 58 -54 91q-45 29 -107 29q-213 0 -213 -154v-6q1 -46 61 -82q57 -34 114 -34h6z"/>
<glyph glyph-name="Udblacute" horiz-adv-x="1509" unicode="Ű" d="M790 -40q-311 0 -464 179q-124 144 -156 426q-15 127 -15 507q0 140 6 226q6 91 18 127q25 73 90 73q92 0 92 -169v-587q0 -606 424 -606q399 0 399 1020v98q-1 60 -1 80q0 62 22 109q28 60 83 60q100 0 100 -137q0 -41 1 -124v-124q0 -1158 -599 -1158zM1185 2014 q30 0 52 -23.5t22 -54.5t-37 -62l-149 -142q-105 -99 -142 -99q-30 0 -52.5 24t-22.5 54q0 33 31 58l147 142q108 103 151 103zM849 2045q30 0 53.5 -23t23.5 -53q0 -25 -20 -49q-39 -47 -125 -129q-89 -84 -126 -128q-26 -30 -58 -30q-30 0 -53.5 22.5t-23.5 53.5 q0 37 117 156l156 153q26 27 56 27z"/>
<glyph glyph-name="udblacute" horiz-adv-x="1065" unicode="ű" d="M955 584q0 -72 1 -216t1 -216q0 -22 3.5 -67t3.5 -67q0 -43 -29 -70.5t-71 -27.5q-77 0 -98 95q-125 -65 -288 -65q-131 0 -217 58q-95 64 -113 187q-39 265 -39 472q0 137 30 312q14 87 95 87q43 0 72 -27.5t29 -70.5q0 -46 -14.5 -147t-14.5 -154q0 -167 11 -286 t33 -191q33 -18 65 -27.5t63 -9.5q134 0 283 43l-1 203l-2 194q0 216 19 375q11 92 97 92q43 0 72 -28q27 -26 27 -65v-5zM955 1564q30 0 52 -23.5t22 -54.5t-37 -62l-149 -142q-105 -99 -142 -99q-30 0 -52.5 24t-22.5 54q0 33 31 58l147 142q108 103 151 103zM619 1595 q30 0 53.5 -23t23.5 -53q0 -25 -20 -49q-39 -47 -125 -129q-89 -84 -126 -128q-26 -30 -58 -30q-30 0 -53.5 22.5t-23.5 53.5q0 37 117 156l156 153q26 27 56 27z"/>
<glyph glyph-name="Uogonek" horiz-adv-x="1509" unicode="Ų" d="M790 -40q-311 0 -464 179q-124 144 -156 426q-15 127 -15 507q0 140 6 226q6 91 18 127q25 73 90 73q92 0 92 -169v-587q0 -606 424 -606q399 0 399 1020v98q-1 60 -1 80q0 62 22 109q28 60 83 60q100 0 100 -137q0 -41 1 -124v-124q0 -1158 -599 -1158zM747 -177 q0 -36 26 -75q27 -43 62 -43q101 0 173 37q22 12 39 12q31 0 52.5 -24t21.5 -55q0 -63 -116 -96q-82 -23 -170 -23q-98 0 -169 86q-68 81 -68 181q0 82 73 164.5t154 82.5q31 0 51.5 -23t20.5 -54q0 -44 -75 -81t-75 -89z"/>
<glyph glyph-name="uogonek" horiz-adv-x="1065" unicode="ų" d="M955 584q0 -72 1 -216t1 -216q0 -22 3.5 -67t3.5 -67q0 -43 -29 -70.5t-71 -27.5q-77 0 -98 95q-125 -65 -288 -65q-131 0 -217 58q-95 64 -113 187q-39 265 -39 472q0 137 30 312q14 87 95 87q43 0 72 -27.5t29 -70.5q0 -46 -14.5 -147t-14.5 -154q0 -167 11 -286 t33 -191q33 -18 65 -27.5t63 -9.5q134 0 283 43l-1 203l-2 194q0 216 19 375q11 92 97 92q43 0 72 -28q27 -26 27 -65v-5zM747 -177q0 -36 26 -75q27 -43 62 -43q101 0 173 37q22 12 39 12q31 0 52.5 -24t21.5 -55q0 -63 -116 -96q-82 -23 -170 -23q-98 0 -169 86 q-68 81 -68 181q0 82 73 164.5t154 82.5q31 0 51.5 -23t20.5 -54q0 -44 -75 -81t-75 -89z"/>
<glyph glyph-name="Wcircumflex" horiz-adv-x="2129" unicode="Ŵ" d="M1423 -96q-46 0 -81 26q-40 30 -40 74q-46 121 -58 197t-79 431q-51 269 -68 432q-89 -330 -191 -559q-118 -265 -153 -415q12 -23 12 -45q0 -45 -40 -74q-36 -27 -82 -27q-135 0 -135 121l-31 127l-109 490q-65 248 -222 711q-7 22 -7 40q0 93 105 93q65 0 100 -71 q18 -36 73 -207q59 -181 118 -436l97 -442q107 248 213 604q65 217 99 301q90 221 175 221q70 0 99 -71q36 -86 73 -410q20 -164 68 -394l86 -393q134 322 335 871q11 30 50 189q29 117 71 182q36 55 94 55q101 0 101 -100q0 -17 -32 -100l-40 -108l-55 -178l-297 -722 q-41 -119 -141 -346q-36 -67 -108 -67zM1100 2140q55 0 132 -67q24 -21 109 -112l159 -170q26 -30 26 -61q0 -36 -27.5 -63.5t-64.5 -27.5q-33 0 -63 29q-80 90 -250 260q-254 -312 -326 -312q-36 0 -63.5 28t-27.5 64q0 35 30 65q56 54 305 336q27 31 61 31z"/>
<glyph glyph-name="wcircumflex" horiz-adv-x="1401" unicode="ŵ" d="M1336 895q-78 -326 -204 -737q-28 -91 -93 -187q-34 -52 -93 -52h-2q-109 2 -170 271q-20 86 -41 234l-33 223l-82 -191l-152 -413q-13 -38 -38 -58q-30 -58 -96 -60h-1q-75 0 -146 298q-36 155 -72 420l-24 150q-13 90 -13 151q0 42 29.5 69.5t71.5 27.5q76 0 94 -83 q13 -59 21 -146l15 -147l59 -449q111 308 230 710q33 111 115 111q79 0 107 -124q26 -117 65 -360q40 -252 71 -393l73 272l129 545q15 61 86 61q42 0 73 -28.5t31 -68.5q0 -5 -10 -46zM700 1690q55 0 132 -67q24 -21 109 -112l159 -170q26 -30 26 -61q0 -36 -27.5 -63.5 t-64.5 -27.5q-33 0 -63 29q-80 90 -250 260q-254 -312 -326 -312q-36 0 -63.5 28t-27.5 64q0 35 30 65q56 54 305 336q27 31 61 31z"/>
<glyph glyph-name="Ycircumflex" horiz-adv-x="1301" unicode="Ŷ" d="M1172 1279q-24 -38 -64 -117l-172 -425q-100 -239 -188 -418l-125 -223l-53 -108q-33 -58 -89 -58q-39 0 -71 29t-32 72q0 34 94 213l123 225q-179 231 -232 364q-45 113 -150 271q-144 216 -169 261q-15 27 -15 54q0 43 31.5 72.5t71.5 29.5q49 0 82 -47l80 -124 q106 -157 140 -214q75 -123 117 -228q33 -83 141 -227l229 558q39 69 108 213q28 68 93 68q40 0 71.5 -28t31.5 -72q0 -46 -53 -141zM590 2140q55 0 132 -67q24 -21 109 -112l159 -170q26 -30 26 -61q0 -36 -27.5 -63.5t-64.5 -27.5q-33 0 -63 29q-80 90 -250 260 q-254 -312 -326 -312q-36 0 -63.5 28t-27.5 64q0 35 30 65q56 54 305 336q27 31 61 31z"/>
<glyph glyph-name="ycircumflex" horiz-adv-x="1066" unicode="ŷ" d="M1011 892l-346 -748q-128 -273 -196 -457l-66 -194q-26 -72 -90 -72q-42 0 -72.5 27.5t-30.5 68.5q0 100 216 579l-358 689l-45 73q-27 46 -27 77q0 41 31.5 72t70.5 31q46 0 71 -35q170 -236 365 -672l148 345q80 179 154 308q32 56 84 56q41 0 72.5 -29t31.5 -69 q0 -22 -13 -50zM490 1690q55 0 132 -67q24 -21 109 -112l159 -170q26 -30 26 -61q0 -36 -27.5 -63.5t-64.5 -27.5q-33 0 -63 29q-80 90 -250 260q-254 -312 -326 -312q-36 0 -63.5 28t-27.5 64q0 35 30 65q56 54 305 336q27 31 61 31z"/>
<glyph glyph-name="Ydieresis" horiz-adv-x="1301" unicode="Ÿ" d="M1172 1279q-24 -38 -64 -117l-172 -425q-100 -239 -188 -418l-125 -223l-53 -108q-33 -58 -89 -58q-39 0 -71 29t-32 72q0 34 94 213l123 225q-179 231 -232 364q-45 113 -150 271q-144 216 -169 261q-15 27 -15 54q0 43 31.5 72.5t71.5 29.5q49 0 82 -47l80 -124 q106 -157 140 -214q75 -123 117 -228q33 -83 141 -227l229 558q39 69 108 213q28 68 93 68q40 0 71.5 -28t31.5 -72q0 -46 -53 -141zM956 1835q34 0 69 -31.5t35 -61.5q0 -92 -143 -92q-41 0 -73 21q-36 24 -36 63q0 69 45 89q25 12 103 12zM417 1827q131 0 131 -105 q0 -30 -44 -58q-40 -25 -75 -25q-123 0 -123 103q0 29 37.5 57t73.5 28z"/>
<glyph glyph-name="Zacute" horiz-adv-x="1420" unicode="Ź" d="M1266 1251l-135 -92q-182 -141 -412 -451l-351 -511q-25 -38 -49 -70l389 15q255 12 390 12q132 0 195 -12q81 -16 84 -82v-5q0 -45 -32 -73q-30 -25 -75 -25q-29 0 -87 3.5t-87 3.5q-152 0 -456.5 -7.5t-456.5 -7.5q-115 0 -115 101q0 66 62 166l107 149l361 502 q223 295 415 458l-350 -20h-404q-11 0 -32.5 -1.5t-31.5 -1.5q-106 0 -106 103q0 68 54 90q33 14 109 14q69 0 205.5 -14.5t205.5 -14.5q77 0 230.5 10t231.5 10q257 0 257 -97q0 -66 -116 -152zM664 1687q-36 0 -63.5 28t-27.5 64q0 34 31 65q43 42 131 159q66 86 147 143 q27 19 53 19q36 0 63 -28.5t27 -64.5q0 -40 -38 -70q-70 -56 -135 -145q-68 -94 -129 -145q-28 -25 -59 -25z"/>
<glyph glyph-name="zacute" horiz-adv-x="1102" unicode="ź" d="M964 809q-89 -107 -228 -310q-161 -236 -236 -334q105 5 183 5q39 0 116 -15t116 -15q44 0 71.5 -28.5t27.5 -72.5q0 -45 -27.5 -73t-71.5 -28q-39 0 -116 15t-116 15q-225 0 -427 -41q-21 -4 -37 -4q-97 0 -97 85q0 50 50 96q261 236 568 735q-133 -8 -193 -8 q-148 0 -304 23q-89 13 -89 99q0 44 27 73.5t68 29.5q49 0 148 -11.5t150 -11.5q68 0 204 9.5t204 9.5q85 0 85 -70q0 -81 -76 -173zM524 1187q-36 0 -63.5 28t-27.5 64q0 34 31 65q43 42 131 159q66 86 147 143q27 19 53 19q36 0 63 -28.5t27 -64.5q0 -40 -38 -70 q-70 -56 -135 -145q-68 -94 -129 -145q-28 -25 -59 -25z"/>
<glyph glyph-name="Zdot" horiz-adv-x="1420" unicode="Ż" d="M1266 1251l-135 -92q-182 -141 -412 -451l-351 -511q-25 -38 -49 -70l389 15q255 12 390 12q132 0 195 -12q81 -16 84 -82v-5q0 -45 -32 -73q-30 -25 -75 -25q-29 0 -87 3.5t-87 3.5q-152 0 -456.5 -7.5t-456.5 -7.5q-115 0 -115 101q0 66 62 166l107 149l361 502 q223 295 415 458l-350 -20h-404q-11 0 -32.5 -1.5t-31.5 -1.5q-106 0 -106 103q0 68 54 90q33 14 109 14q69 0 205.5 -14.5t205.5 -14.5q77 0 230.5 10t231.5 10q257 0 257 -97q0 -66 -116 -152zM870 1728q0 -36 -34 -65.5t-71 -29.5q-32 0 -85.5 48t-53.5 79q0 37 36 66 q33 28 70 28q31 0 84.5 -48.5t53.5 -77.5z"/>
<glyph glyph-name="zdot" horiz-adv-x="1102" unicode="ż" d="M964 809q-89 -107 -228 -310q-161 -236 -236 -334q105 5 183 5q39 0 116 -15t116 -15q44 0 71.5 -28.5t27.5 -72.5q0 -45 -27.5 -73t-71.5 -28q-39 0 -116 15t-116 15q-225 0 -427 -41q-21 -4 -37 -4q-97 0 -97 85q0 50 50 96q261 236 568 735q-133 -8 -193 -8 q-148 0 -304 23q-89 13 -89 99q0 44 27 73.5t68 29.5q49 0 148 -11.5t150 -11.5q68 0 204 9.5t204 9.5q85 0 85 -70q0 -81 -76 -173zM750 1278q0 -36 -34 -65.5t-71 -29.5q-32 0 -85.5 48t-53.5 79q0 37 36 66q33 28 70 28q31 0 84.5 -48.5t53.5 -77.5z"/>
<glyph glyph-name="Zcaron" horiz-adv-x="1420" unicode="Ž" d="M1266 1251l-135 -92q-182 -141 -412 -451l-351 -511q-25 -38 -49 -70l389 15q255 12 390 12q132 0 195 -12q81 -16 84 -82v-5q0 -45 -32 -73q-30 -25 -75 -25q-29 0 -87 3.5t-87 3.5q-152 0 -456.5 -7.5t-456.5 -7.5q-115 0 -115 101q0 66 62 166l107 149l361 502 q223 295 415 458l-350 -20h-404q-11 0 -32.5 -1.5t-31.5 -1.5q-106 0 -106 103q0 68 54 90q33 14 109 14q69 0 205.5 -14.5t205.5 -14.5q77 0 230.5 10t231.5 10q257 0 257 -97q0 -66 -116 -152zM764 1907l220 197q24 20 49 20q30 0 53 -23.5t23 -53.5t-26 -55 q-285 -268 -328 -268q-31 0 -66 37l-50 62l-117 134q-83 103 -83 144q0 30 24 52t55 22q39 0 63 -40q33 -55 183 -228z"/>
<glyph glyph-name="zcaron" horiz-adv-x="1102" unicode="ž" d="M964 809q-89 -107 -228 -310q-161 -236 -236 -334q105 5 183 5q39 0 116 -15t116 -15q44 0 71.5 -28.5t27.5 -72.5q0 -45 -27.5 -73t-71.5 -28q-39 0 -116 15t-116 15q-225 0 -427 -41q-21 -4 -37 -4q-97 0 -97 85q0 50 50 96q261 236 568 735q-133 -8 -193 -8 q-148 0 -304 23q-89 13 -89 99q0 44 27 73.5t68 29.5q49 0 148 -11.5t150 -11.5q68 0 204 9.5t204 9.5q85 0 85 -70q0 -81 -76 -173zM507 1359l220 197q24 20 49 20q30 0 53 -23.5t23 -53.5t-26 -55q-285 -268 -328 -268q-31 0 -66 37l-50 62l-117 134q-83 103 -83 144 q0 30 24 52t55 22q39 0 63 -40q33 -55 183 -228z"/>
<glyph glyph-name="longs" horiz-adv-x="1041" unicode="ſ" d="M941 1502q0 -96 -130 -96q-139 0 -211 -102q-63 -88 -63 -234q0 -80 -8.5 -241t-8.5 -242q0 -67 4 -200t4 -200q0 -157 -9 -207q-22 -140 -106 -140q-40 0 -69.5 26.5t-29.5 66.5q0 50 11.5 151t11.5 152q0 140 4.5 421.5t4.5 421.5q0 224 111 366q123 154 341 154 q143 0 143 -97z"/>
<glyph glyph-name="florin" horiz-adv-x="874" unicode="ƒ" d="M-12 -361q-39 0 -65 28.5t-26 68.5q0 70 74 90q161 42 234 140q58 79 97 258l81 415q-118 -9 -146 -9q-82 0 -82 72q0 92 104 115l176 13q93 346 176 483q149 248 414 248q122 0 122 -70q0 -120 -150 -120q-161 0 -260 -192q-55 -105 -110 -334q162 11 205 11 q136 0 136 -74q0 -119 -163 -119q-15 0 -44 1t-42 1l-141 -10l-72 -368q-41 -226 -99 -359q-46 -109 -163 -188q-103 -70 -232 -98q-12 -3 -24 -3z"/>
<glyph glyph-name="Aringacute" horiz-adv-x="1498" unicode="Ǻ" d="M897 1113l-286 -461q121 31 367 75zM1250 -30q-92 0 -160 236q-26 90 -65 315q-102 -14 -267 -50l-266 -55q-50 -131 -171 -383q-32 -56 -87 -56q-40 0 -71.5 29t-31.5 72q0 48 151 365q-17 26 -17 60q0 81 98 104q114 214 288 492q237 379 295 379q79 0 108 -110 l63 -336l149 -695l57 -158q29 -81 29 -108q0 -43 -31 -72t-71 -29zM634 1612q0 145 103 229q99 80 260 80q125 0 214 -70q97 -77 97 -199q0 -148 -89.5 -224t-268.5 -79h-7q-131 0 -219 76q-90 77 -90 187zM965 1496q86 3 126 24q67 36 67 132q0 58 -54 91q-45 29 -107 29 q-213 0 -213 -154v-6q1 -46 61 -82q57 -34 114 -34h6zM1207 2167q0 -31 -54 -114l-78 -112q-28 -42 -66 -42q-31 0 -52 24.5t-21 55.5q0 16 44 111q39 85 58 118q27 47 75 47q37 0 65.5 -25.5t28.5 -62.5z"/>
<glyph glyph-name="aringacute" horiz-adv-x="1048" unicode="ǻ" d="M727 629q0 43 5.5 93.5t16.5 107.5q-37 19 -63.5 28t-42.5 9q-155 0 -267.5 -126.5t-112.5 -291.5q0 -164 58 -246t174 -82q96 0 163 35q36 19 101 76q-32 265 -32 397zM935 -66q-19 0 -69 44q-45 41 -67 73q-96 -52 -169 -78.5t-122 -26.5q-234 0 -341 132 q-101 124 -101 380q0 242 166.5 414t397.5 172q87 0 195 -45q136 -56 136 -135q0 -27 -20 -48q-10 -38 -15.5 -125t-6.5 -223v-13q0 -115 17 -183q10 -44 63 -176q7 -18 23 -53l6 -17q0 -40 -28 -66t-65 -26zM279 1249q0 145 103 229q99 80 260 80q125 0 214 -70 q97 -77 97 -199q0 -148 -89.5 -224t-268.5 -79h-7q-131 0 -219 76q-90 77 -90 187zM610 1133q86 3 126 24q67 36 67 132q0 58 -54 91q-45 29 -107 29q-213 0 -213 -154v-6q1 -46 61 -82q57 -34 114 -34h6zM807 1917q0 -31 -54 -114l-78 -112q-28 -42 -66 -42q-31 0 -52 24.5 t-21 55.5q0 16 44 111q39 85 58 118q27 47 75 47q37 0 65.5 -25.5t28.5 -62.5z"/>
<glyph glyph-name="AEacute" horiz-adv-x="2226" unicode="Ǽ" d="M781 844q245 24 384 27q17 242 17 379q0 30 -5 68q-92 -84 -206 -230zM1152 672q-106 -3 -272 -19l-272 -25q-87 -119 -257 -385l-121 -185q-33 -46 -80 -46q-40 0 -72 29.5t-32 69.5q0 27 19 57q311 508 539 774l272 346q180 219 316 282q34 16 70 16q42 0 72 -29 q120 32 226.5 48t200.5 16q262 0 388 -58q67 -31 67 -96q0 -42 -28.5 -73.5t-69.5 -31.5q-12 0 -31 5q-187 48 -326 48q-82 0 -179 -15t-209 -46q9 -63 9 -104q0 -140 -17 -382l438 42q186 20 237 20q45 0 74 -29.5t29 -74.5q0 -84 -91 -102l-238 -20l-462 -43 q-9 -142 -9 -252q0 -226 32 -260q27 -28 157 -28q62 0 186.5 3.5t187.5 3.5q19 0 58 6t59 6q106 0 106 -103q0 -79 -85 -101t-216 -23l-218 2q-291 0 -381 97q-86 93 -86 397q0 114 9 263zM1504 1687q-36 0 -63.5 28t-27.5 64q0 34 31 65q43 42 131 159q66 86 147 143 q27 19 53 19q36 0 63 -28.5t27 -64.5q0 -40 -38 -70q-70 -56 -135 -145q-68 -94 -129 -145q-28 -25 -59 -25z"/>
<glyph glyph-name="aeacute" horiz-adv-x="1867" unicode="ǽ" d="M790 828l-70 35q-19 7 -77 7q-158 0 -272 -134q-108 -127 -108 -288q0 -126 86 -228q91 -107 215 -107q67 0 123.5 25.5t102.5 76.5q-22 126 -22 168q0 281 22 445zM806 54q-42 -40 -114 -71q-76 -32 -136 -32q-217 0 -355 147q-134 143 -134 362q0 235 179 405 q175 167 412 167q103 0 242 -49q32 -11 39 -113q56 82 156 130q94 45 194 45q160 0 265 -53q135 -70 135 -215q0 -102 -117 -185q-47 -33 -208 -109l-382 -181q112 -167 334 -167q81 0 169 27q105 32 145 85.5t73 53.5q35 0 62.5 -26.5t27.5 -61.5q0 -116 -188 -195 q-153 -64 -289 -64q-232 0 -339 113q10 -41 10 -72q0 -37 -77 -37q-53 0 -75 26q-13 15 -29 70zM1289 865q-245 0 -324 -379l292 133q173 82 273 166q-86 80 -241 80zM924 1187q-36 0 -63.5 28t-27.5 64q0 34 31 65q43 42 131 159q66 86 147 143q27 19 53 19q36 0 63 -28.5 t27 -64.5q0 -40 -38 -70q-70 -56 -135 -145q-68 -94 -129 -145q-28 -25 -59 -25z"/>
<glyph glyph-name="Oslashacute" horiz-adv-x="1635" unicode="Ǿ" d="M177 -90q-37 0 -65.5 27.5t-28.5 64.5q0 25 70 103l94 101q-117 158 -117 366q0 351 209 633q229 310 567 310q299 0 458 -122q146 149 173 149q37 0 65.5 -26t28.5 -62q0 -38 -150 -197q81 -144 81 -376q0 -352 -192 -630q-216 -312 -554 -312q-261 0 -452 148l-92 -102 q-69 -75 -95 -75zM388 363l414 442l418 437q-103 68 -314 68q-250 0 -420 -251q-152 -225 -152 -487q0 -115 54 -209zM1328 1099q-115 -108 -275 -280l-266 -288l-280 -295q131 -92 309 -92q250 0 407 253q135 219 135 484q0 132 -30 218zM764 1637q-36 0 -63.5 28t-27.5 64 q0 34 31 65q43 42 131 159q66 86 147 143q27 19 53 19q36 0 63 -28.5t27 -64.5q0 -40 -38 -70q-70 -56 -135 -145q-68 -94 -129 -145q-28 -25 -59 -25z"/>
<glyph glyph-name="oslashacute" horiz-adv-x="1077" unicode="ǿ" d="M125 -52q-26 0 -49 17q-22 16 -22 38q0 50 84 128q9 8 21 20q-71 121 -76 285v21q0 213 114 377q140 203 390 203q156 0 254 -113l16 18q90 104 113 104q24 0 42 -19t18 -43q0 -20 -87 -123q-4 -5 -36 -41q62 -134 62 -306v-16q-3 -222 -116 -379q-128 -178 -339 -178 q-163 0 -282 117q-20 -22 -23 -26q-62 -84 -84 -84zM301 304q126 141 412 471q-51 58 -139 59h-2q-146 0 -226 -140q-66 -113 -66 -258q0 -74 21 -132zM767 662l-405 -455q66 -64 152 -64q104 0 179 76q85 85 90 227q1 25 1 48q0 99 -17 168zM514 1187q-36 0 -63.5 28 t-27.5 64q0 34 31 65q43 42 131 159q66 86 147 143q27 19 53 19q36 0 63 -28.5t27 -64.5q0 -40 -38 -70q-70 -56 -135 -145q-68 -94 -129 -145q-28 -25 -59 -25z"/>
<glyph glyph-name="circumflex" d="M590 1690q55 0 132 -67q24 -21 109 -112l159 -170q26 -30 26 -61q0 -36 -27.5 -63.5t-64.5 -27.5q-33 0 -63 29q-80 90 -250 260q-254 -312 -326 -312q-36 0 -63.5 28t-27.5 64q0 35 30 65q56 54 305 336q27 31 61 31z" unicode="ˆ"/>
<glyph glyph-name="caron" d="M609 1359l220 197q24 20 49 20q30 0 53 -23.5t23 -53.5t-26 -55q-285 -268 -328 -268q-31 0 -66 37l-50 62l-117 134q-83 103 -83 144q0 30 24 52t55 22q39 0 63 -40q33 -55 183 -228z" unicode="ˇ"/>
<glyph glyph-name="macron" d="M413 1344q39 0 118.5 -4.5t118.5 -4.5q41 0 122 2t121 2q78 0 78 -75q0 -60 -65 -73l-112 -5h-155q-48 0 -144 3t-145 3q-72 0 -72 76q0 51 46 67q24 9 89 9z" unicode="ˉ"/>
<glyph glyph-name="breve" d="M572 1329q293 0 336 160q17 63 72 63q32 0 55.5 -21t21.5 -52l-2 -14q-12 -152 -176 -228q-128 -58 -307 -58q-142 0 -249 96q-110 98 -110 239q0 75 74 75q75 0 75 -75q0 -78 67 -133q63 -52 143 -52z" unicode="˘"/>
<glyph glyph-name="dotaccent" d="M560 1278q0 -36 -34 -65.5t-71 -29.5q-32 0 -85.5 48t-53.5 79q0 37 36 66q33 28 70 28q31 0 84.5 -48.5t53.5 -77.5z" unicode="˙"/>
<glyph glyph-name="ring" d="M263 1449q0 145 103 229q99 80 260 80q125 0 214 -70q97 -77 97 -199q0 -148 -89.5 -224t-268.5 -79h-7q-131 0 -219 76q-90 77 -90 187zM594 1333q86 3 126 24q67 36 67 132q0 58 -54 91q-45 29 -107 29q-213 0 -213 -154v-6q1 -46 61 -82q57 -34 114 -34h6z" unicode="˚"/>
<glyph glyph-name="ogonek" d="M447 -77q0 -36 26 -75q27 -43 62 -43q101 0 173 37q22 12 39 12q31 0 52.5 -24t21.5 -55q0 -63 -116 -96q-82 -23 -170 -23q-98 0 -169 86q-68 81 -68 181q0 82 73 164.5t154 82.5q31 0 51.5 -23t20.5 -54q0 -44 -75 -81t-75 -89z" unicode="˛"/>
<glyph glyph-name="tilde" d="M454 1554q100 0 161 -58l83 -106q47 -58 112 -58q57 0 85 37l46 88l20 59q14 29 60 29q75 0 75 -74q0 -36 -43 -121q-40 -80 -69 -110q-56 -57 -143 -57q-131 0 -205 57q-27 21 -88 107q-42 57 -94 57q-31 0 -55.5 -11.5t-42.5 -34.5l-44 -85q-25 -45 -65 -45 q-31 0 -54 20.5t-23 51.5q0 11 3 23q28 102 101 165q78 66 180 66z" unicode="˜"/>
<glyph glyph-name="hungarumlaut" d="M875 1564q30 0 52 -23.5t22 -54.5t-37 -62l-149 -142q-105 -99 -142 -99q-30 0 -52.5 24t-22.5 54q0 33 31 58l147 142q108 103 151 103zM539 1595q30 0 53.5 -23t23.5 -53q0 -25 -20 -49q-39 -47 -125 -129q-89 -84 -126 -128q-26 -30 -58 -30q-30 0 -53.5 22.5 t-23.5 53.5q0 37 117 156l156 153q26 27 56 27z" unicode="˝"/>
<glyph glyph-name="tonos" d="M736 1417q0 -31 -54 -114l-78 -112q-28 -42 -66 -42q-31 0 -52 24.5t-21 55.5q0 16 44 111q39 85 58 118q27 47 75 47q37 0 65.5 -25.5t28.5 -62.5z" unicode="΄"/>
<glyph glyph-name="Wgrave" horiz-adv-x="2129" unicode="Ẁ" d="M1423 -96q-46 0 -81 26q-40 30 -40 74q-46 121 -58 197t-79 431q-51 269 -68 432q-89 -330 -191 -559q-118 -265 -153 -415q12 -23 12 -45q0 -45 -40 -74q-36 -27 -82 -27q-135 0 -135 121l-31 127l-109 490q-65 248 -222 711q-7 22 -7 40q0 93 105 93q65 0 100 -71 q18 -36 73 -207q59 -181 118 -436l97 -442q107 248 213 604q65 217 99 301q90 221 175 221q70 0 99 -71q36 -86 73 -410q20 -164 68 -394l86 -393q134 322 335 871q11 30 50 189q29 117 71 182q36 55 94 55q101 0 101 -100q0 -17 -32 -100l-40 -108l-55 -178l-297 -722 q-41 -119 -141 -346q-36 -67 -108 -67zM1207 1717q0 -36 -28.5 -62.5t-64.5 -26.5q-43 0 -72 42l-100 149q-53 73 -124 128q-39 30 -39 71q0 36 26.5 64.5t62.5 28.5q62 0 202 -166q137 -164 137 -228z"/>
<glyph glyph-name="wgrave" horiz-adv-x="1401" unicode="ẁ" d="M1336 895q-78 -326 -204 -737q-28 -91 -93 -187q-34 -52 -93 -52h-2q-109 2 -170 271q-20 86 -41 234l-33 223l-82 -191l-152 -413q-13 -38 -38 -58q-30 -58 -96 -60h-1q-75 0 -146 298q-36 155 -72 420l-24 150q-13 90 -13 151q0 42 29.5 69.5t71.5 27.5q76 0 94 -83 q13 -59 21 -146l15 -147l59 -449q111 308 230 710q33 111 115 111q79 0 107 -124q26 -117 65 -360q40 -252 71 -393l73 272l129 545q15 61 86 61q42 0 73 -28.5t31 -68.5q0 -5 -10 -46zM907 1267q0 -36 -28.5 -62.5t-64.5 -26.5q-43 0 -72 42l-100 149q-53 73 -124 128 q-39 30 -39 71q0 36 26.5 64.5t62.5 28.5q62 0 202 -166q137 -164 137 -228z"/>
<glyph glyph-name="Wacute" horiz-adv-x="2129" unicode="Ẃ" d="M1423 -96q-46 0 -81 26q-40 30 -40 74q-46 121 -58 197t-79 431q-51 269 -68 432q-89 -330 -191 -559q-118 -265 -153 -415q12 -23 12 -45q0 -45 -40 -74q-36 -27 -82 -27q-135 0 -135 121l-31 127l-109 490q-65 248 -222 711q-7 22 -7 40q0 93 105 93q65 0 100 -71 q18 -36 73 -207q59 -181 118 -436l97 -442q107 248 213 604q65 217 99 301q90 221 175 221q70 0 99 -71q36 -86 73 -410q20 -164 68 -394l86 -393q134 322 335 871q11 30 50 189q29 117 71 182q36 55 94 55q101 0 101 -100q0 -17 -32 -100l-40 -108l-55 -178l-297 -722 q-41 -119 -141 -346q-36 -67 -108 -67zM1024 1637q-36 0 -63.5 28t-27.5 64q0 34 31 65q43 42 131 159q66 86 147 143q27 19 53 19q36 0 63 -28.5t27 -64.5q0 -40 -38 -70q-70 -56 -135 -145q-68 -94 -129 -145q-28 -25 -59 -25z"/>
<glyph glyph-name="wacute" horiz-adv-x="1401" unicode="ẃ" d="M1336 895q-78 -326 -204 -737q-28 -91 -93 -187q-34 -52 -93 -52h-2q-109 2 -170 271q-20 86 -41 234l-33 223l-82 -191l-152 -413q-13 -38 -38 -58q-30 -58 -96 -60h-1q-75 0 -146 298q-36 155 -72 420l-24 150q-13 90 -13 151q0 42 29.5 69.5t71.5 27.5q76 0 94 -83 q13 -59 21 -146l15 -147l59 -449q111 308 230 710q33 111 115 111q79 0 107 -124q26 -117 65 -360q40 -252 71 -393l73 272l129 545q15 61 86 61q42 0 73 -28.5t31 -68.5q0 -5 -10 -46zM654 1187q-36 0 -63.5 28t-27.5 64q0 34 31 65q43 42 131 159q66 86 147 143 q27 19 53 19q36 0 63 -28.5t27 -64.5q0 -40 -38 -70q-70 -56 -135 -145q-68 -94 -129 -145q-28 -25 -59 -25z"/>
<glyph glyph-name="Wdieresis" horiz-adv-x="2129" unicode="Ẅ" d="M1423 -96q-46 0 -81 26q-40 30 -40 74q-46 121 -58 197t-79 431q-51 269 -68 432q-89 -330 -191 -559q-118 -265 -153 -415q12 -23 12 -45q0 -45 -40 -74q-36 -27 -82 -27q-135 0 -135 121l-31 127l-109 490q-65 248 -222 711q-7 22 -7 40q0 93 105 93q65 0 100 -71 q18 -36 73 -207q59 -181 118 -436l97 -442q107 248 213 604q65 217 99 301q90 221 175 221q70 0 99 -71q36 -86 73 -410q20 -164 68 -394l86 -393q134 322 335 871q11 30 50 189q29 117 71 182q36 55 94 55q101 0 101 -100q0 -17 -32 -100l-40 -108l-55 -178l-297 -722 q-41 -119 -141 -346q-36 -67 -108 -67zM1381 1830q34 0 69 -31.5t35 -61.5q0 -92 -143 -92q-41 0 -73 21q-36 24 -36 63q0 69 45 89q25 12 103 12zM842 1822q131 0 131 -105q0 -30 -44 -58q-40 -25 -75 -25q-123 0 -123 103q0 29 37.5 57t73.5 28z"/>
<glyph glyph-name="wdieresis" horiz-adv-x="1401" unicode="ẅ" d="M1336 895q-78 -326 -204 -737q-28 -91 -93 -187q-34 -52 -93 -52h-2q-109 2 -170 271q-20 86 -41 234l-33 223l-82 -191l-152 -413q-13 -38 -38 -58q-30 -58 -96 -60h-1q-75 0 -146 298q-36 155 -72 420l-24 150q-13 90 -13 151q0 42 29.5 69.5t71.5 27.5q76 0 94 -83 q13 -59 21 -146l15 -147l59 -449q111 308 230 710q33 111 115 111q79 0 107 -124q26 -117 65 -360q40 -252 71 -393l73 272l129 545q15 61 86 61q42 0 73 -28.5t31 -68.5q0 -5 -10 -46zM991 1380q34 0 69 -31.5t35 -61.5q0 -92 -143 -92q-41 0 -73 21q-36 24 -36 63 q0 69 45 89q25 12 103 12zM452 1372q131 0 131 -105q0 -30 -44 -58q-40 -25 -75 -25q-123 0 -123 103q0 29 37.5 57t73.5 28z"/>
<glyph glyph-name="Ygrave" horiz-adv-x="1301" unicode="Ỳ" d="M1172 1279q-24 -38 -64 -117l-172 -425q-100 -239 -188 -418l-125 -223l-53 -108q-33 -58 -89 -58q-39 0 -71 29t-32 72q0 34 94 213l123 225q-179 231 -232 364q-45 113 -150 271q-144 216 -169 261q-15 27 -15 54q0 43 31.5 72.5t71.5 29.5q49 0 82 -47l80 -124 q106 -157 140 -214q75 -123 117 -228q33 -83 141 -227l229 558q39 69 108 213q28 68 93 68q40 0 71.5 -28t31.5 -72q0 -46 -53 -141zM837 1717q0 -36 -28.5 -62.5t-64.5 -26.5q-43 0 -72 42l-100 149q-53 73 -124 128q-39 30 -39 71q0 36 26.5 64.5t62.5 28.5q62 0 202 -166 q137 -164 137 -228z"/>
<glyph glyph-name="ygrave" horiz-adv-x="1066" unicode="ỳ" d="M1011 892l-346 -748q-128 -273 -196 -457l-66 -194q-26 -72 -90 -72q-42 0 -72.5 27.5t-30.5 68.5q0 100 216 579l-358 689l-45 73q-27 46 -27 77q0 41 31.5 72t70.5 31q46 0 71 -35q170 -236 365 -672l148 345q80 179 154 308q32 56 84 56q41 0 72.5 -29t31.5 -69 q0 -22 -13 -50zM657 1267q0 -36 -28.5 -62.5t-64.5 -26.5q-43 0 -72 42l-100 149q-53 73 -124 128q-39 30 -39 71q0 36 26.5 64.5t62.5 28.5q62 0 202 -166q137 -164 137 -228z"/>
<glyph glyph-name="endash" horiz-adv-x="904" unicode="–" d="M397 759q56 0 166.5 -8.5t165.5 -8.5q43 0 71 -28t28 -71t-28 -71t-71 -28q-55 0 -165.5 8t-166.5 8q-132 0 -237 -15q-9 -1 -17 -1q-43 0 -71 28t-28 73q0 78 82 96t271 18z"/>
<glyph glyph-name="emdash" horiz-adv-x="1808" unicode="—" d="M391 747q122 0 366.5 -6.5t366.5 -6.5l234 6l205 8l57 -1q88 0 88 -91q0 -111 -174 -111q-27 0 -88.5 3t-88.5 3q-198 0 -594 -2.5t-594 -2.5q-102 0 -102 99q0 93 96 99q41 3 228 3z"/>
<glyph glyph-name="quoteleft" horiz-adv-x="369" unicode="‘" d="M200 1094q-75 0 -89 101q-34 248 -34 289q0 103 82 103q76 0 89 -95q35 -245 35 -295q0 -103 -83 -103z"/>
<glyph glyph-name="quoteright" horiz-adv-x="369" unicode="’" d="M138 1094q-80 0 -80 95q0 37 23 141l38 175q14 79 76 79q36 0 58.5 -27t22.5 -64v-6q0 -86 -53 -298q-24 -95 -85 -95z"/>
<glyph glyph-name="quoteright" horiz-adv-x="369" unicode="‛" d="M138 1094q-80 0 -80 95q0 37 23 141l38 175q14 79 76 79q36 0 58.5 -27t22.5 -64v-6q0 -86 -53 -298q-24 -95 -85 -95z"/>
<glyph glyph-name="quotesinglbase" horiz-adv-x="612" unicode="‚" d="M171 -194q-90 0 -90 94q0 65 86 192q89 132 147 132q36 0 64 -27t28 -63t-70 -118q-72 -86 -77 -125q-10 -85 -88 -85z"/>
<glyph glyph-name="quotedblleft" horiz-adv-x="806" unicode="“" d="M254 1092q-60 0 -84 58q-14 32 -56 178q-43 150 -43 171q0 38 28.5 63.5t67.5 25.5q64 0 85 -66l51 -178l45 -161q0 -38 -28.5 -64.5t-65.5 -26.5zM575 1089q-67 0 -88 67q-106 342 -106 370q0 39 28 64t67 25q71 0 88 -74l59 -191q45 -141 45 -171q0 -38 -27.5 -64 t-65.5 -26z"/>
<glyph glyph-name="quotedblright" horiz-adv-x="806" unicode="”" d="M198 998q-40 0 -67 25.5t-27 65.5q0 112 97 423q22 68 86 68q39 0 67.5 -26t28.5 -64l-59 -220q-23 -87 -36 -187q-10 -85 -90 -85zM542 998q-40 0 -67 25.5t-27 65.5q0 112 97 423q22 68 86 68q39 0 67.5 -26t28.5 -64l-59 -220q-23 -87 -36 -187q-10 -85 -90 -85z"/>
<glyph glyph-name="quotedblbase" horiz-adv-x="843" unicode="„" d="M526 -194q-90 0 -90 94q0 65 86 192q89 132 147 132q36 0 64 -27t28 -63t-70 -118q-72 -86 -77 -125q-10 -85 -88 -85zM171 -194q-90 0 -90 94q0 65 86 192q89 132 147 132q36 0 64 -27t28 -63t-70 -118q-72 -86 -77 -125q-10 -85 -88 -85z"/>
<glyph glyph-name="bullet" horiz-adv-x="793" unicode="•" d="M183 758q0 83 58.5 142t141.5 59t141.5 -59t58.5 -142t-58.5 -141.5t-141.5 -58.5t-141.5 58.5t-58.5 141.5z"/>
<glyph glyph-name="guilsinglleft" horiz-adv-x="781" unicode="‹" d="M385 614q56 -41 138 -127q96 -101 132 -132t36 -68t-27 -65t-63 -28q-27 0 -55 21q-40 29 -171 166q-101 105 -194 141q-75 28 -75 83q0 50 68 83q94 45 205 162q154 162 184 186.5t60 24.5q36 0 63.5 -27.5t27.5 -64.5q0 -34 -31 -64q-96 -102 -298 -291z"/>
<glyph glyph-name="guilsinglright" horiz-adv-x="781" unicode="›" d="M435 614q-203 189 -298 291q-31 30 -31 64q0 37 28 65t63 27q29 -1 59 -25t185 -186q111 -117 204 -162q69 -33 69 -83q0 -55 -75 -83q-93 -36 -194 -141q-131 -137 -171 -166q-28 -21 -55 -21q-36 0 -63 28t-27 65q-1 37 35 68t133 132q82 86 138 127z"/>
<glyph glyph-name="fraction" horiz-adv-x="1661" unicode="⁄" d="M127 -54q-40 0 -70.5 31t-30.5 72q0 36 35 72l209 211l207 230q122 135 216 222q131 122 329 387q210 279 323 392l69 86q43 51 84 51t72.5 -29t31.5 -69q0 -25 -14 -52q-26 -47 -88 -109q-76 -77 -96 -102l-308 -391q-176 -215 -333 -370q-63 -61 -283 -313 q-181 -206 -287 -292q-33 -27 -66 -27z"/>
<glyph glyph-name="fraction" horiz-adv-x="1661" unicode="∕" d="M127 -54q-40 0 -70.5 31t-30.5 72q0 36 35 72l209 211l207 230q122 135 216 222q131 122 329 387q210 279 323 392l69 86q43 51 84 51t72.5 -29t31.5 -69q0 -25 -14 -52q-26 -47 -88 -109q-76 -77 -96 -102l-308 -391q-176 -215 -333 -370q-63 -61 -283 -313 q-181 -206 -287 -292q-33 -27 -66 -27z"/>
<glyph glyph-name="nsuperior" horiz-adv-x="1079" unicode="ⁿ" d="M870 884q0 -36 -25 -59.5t-60 -23.5q-74 0 -83 77q-24 212 -24 345q0 15 2 52.5t2 52.5q0 31 -40.5 60.5t-75.5 29.5q-76 0 -120 -52q-40 -46 -75 -166q-8 -160 -8 -203q0 -17 3.5 -49.5t3.5 -49.5q0 -84 -84 -84t-84 84q0 17 -3.5 49.5t-3.5 49.5q0 57 8 207.5t8 207.5 q0 17 -2 52.5t-2 52.5q0 36 25 59t60 23q75 0 84 -93q87 81 190 81q165 0 227 -93q53 -79 53 -274q0 -46 12 -168.5t12 -167.5z"/>
<glyph glyph-name="franc" horiz-adv-x="2026" unicode="₣" d="M1106 1314q-18 0 -38 8q-124 46 -328 46q-66 0 -154.5 -9.5t-198.5 -29.5l-2 -432q193 51 290 51q154 0 319 -18q94 -10 94 -102q0 -45 -29 -74.5t-72 -29.5q-52 0 -156 9t-156 9q-68 0 -294 -58l-9 -688q0 -43 -28 -72.5t-71 -29.5t-71.5 29.5t-28.5 72.5 q0 197 7.5 591.5t7.5 591.5q0 44 -1.5 132.5t-1.5 132.5t27.5 74t71.5 30q33 0 59 -18q124 22 223 32.5t174 10.5q115 0 263 -33q201 -46 201 -120q0 -40 -26 -71q-29 -35 -72 -35zM1959 739q-7 -125 -100 -125q-86 0 -86 99q0 19 -3 70l-3 84q-158 -19 -253 -89 q-89 -65 -148 -196l2 -548q0 -101 -99 -101q-88 0 -88 101v702q0 33 2.5 99t2.5 99q0 101 88 101q98 0 99 -166q192 185 426 185q81 0 121 -61t40 -184q0 -52 -1 -70z"/>
<glyph glyph-name="afii08941" horiz-adv-x="1625" unicode="₤" d="M1456 203q0 -56 -22 -119q-79 -234 -413 -234q-84 0 -237.5 59t-236.5 59q-64 0 -153.5 -42t-105.5 -42q-35 0 -61.5 26.5t-26.5 61.5q0 27 50 80q64 71 91 119q49 90 49 206q0 31 -3 70q-86 -6 -96 -6q-147 0 -147 93q0 37 25 63.5t62 26.5q14 0 40.5 -2t39.5 -2 q35 0 55 1q-15 96 -34 174q-63 -4 -101 -4q-147 0 -147 93q0 88 112 88q12 0 39 -1q24 -1 37 -1l30 1q-2 28 -2 55q0 246 166.5 415t412.5 169q160 0 292 -68q162 -84 162 -230q0 -36 -28 -61t-64 -25q-46 0 -79 55q-45 76 -79 101q-73 55 -217 55q-170 0 -279 -115 t-109 -286q0 -13 2 -52q148 12 181 12q119 0 162 -8q105 -21 105 -93q0 -38 -25.5 -63.5t-63.5 -25.5q-30 0 -89 6t-89 6q-31 0 -153 -10q18 -81 34 -174q172 12 179 12q28 0 83.5 -6t84.5 -6q38 0 63.5 -25.5t25.5 -63.5t-25.5 -63.5t-63.5 -25.5q-29 0 -84.5 6t-83.5 6 l-156 -10q3 -45 3 -81q0 -123 -40 -231h27h5q83 0 231 -59t230 -59q169 0 223 70q18 24 38 130q13 71 84 71q90 0 90 -96z"/>
<glyph glyph-name="peseta" horiz-adv-x="2435" unicode="₧" d="M822 1114q0 112 -120 193q-111 74 -239 74q-89 0 -137 -8q-1 -61 -2 -184q-3 -129 -21 -398q111 -12 111 -13h-1q168 0 283 85q126 93 126 251zM1606 953q0 -44 -27.5 -72.5t-70.5 -28.5q-21 0 -49.5 2t-49.5 2q-40 0 -73 -15q19 -463 19 -591q0 -14 1 -44q1 -35 1 -51 v-15q0 -204 -105 -204q-40 0 -69.5 26t-29.5 65q0 38 3 114t3 114q0 122 -20 584q-64 3 -201 17q-76 -130 -225 -202q-139 -67 -300 -67q-28 0 -122 13q-8 -151 -8 -529q0 -40 -26 -67.5t-65 -27.5q-40 0 -66 27.5t-26 67.5v294q0 147 18 414q20 289 22 414v138q0 99 12 144 q20 77 81 77q8 0 17 -1q64 20 236 20q183 0 343 -125q176 -138 176 -332q0 -30 -3 -60q36 -5 132 -14q0 51 -4.5 136.5t-4.5 123.5q0 42 29 69.5t71 27.5q90 0 105 -147q3 -37 3 -89q0 -10 -2 -58q-1 -36 -1 -62q44 16 79 16q104 0 136 -10q61 -20 61 -94zM2339 871 q0 -45 -27.5 -73t-70.5 -28q-55 0 -77 37q-15 26 -26 108q-75 -19 -231 -70q-161 -64 -162 -158q30 -11 59 -16q230 -41 342 -113q163 -105 163 -304q0 -163 -141 -246q-117 -68 -296 -68q-131 0 -250 44q-154 56 -154 156q0 40 31.5 70t71.5 30q31 0 80 -48q24 -23 108 -38 q67 -12 113 -12q84 0 148 20q93 29 93 92q0 136 -190 184q-17 4 -104 23q-133 29 -189 68q-81 56 -81 169q0 209 197 298q60 27 192 64.5t189 63.5q41 18 89 18q43 0 70.5 -28t27.5 -73q0 -29 12.5 -85t12.5 -85z"/>
<glyph glyph-name="Euro" horiz-adv-x="1250" unicode="€" d="M1247 1296q0 -46 -25 -77q-28 -34 -73 -34q-63 0 -96 75q-30 68 -56 82q-21 12 -100 12q-200 0 -382 -325l447 -1q39 0 64 -25t25 -64q0 -38 -25 -63.5t-64 -25.5h-525q-37 -108 -43 -170l354 -4q38 0 63.5 -25t25.5 -64t-25.5 -64t-63.5 -25q-43 0 -370 4 q7 -168 64 -245q65 -86 214 -86q94 0 174 50q26 16 114 92q58 50 98 50q41 0 71 -32t30 -73q0 -43 -38 -79q-123 -112 -202 -155q-109 -58 -247 -58q-229 0 -358 154q-120 144 -120 383q-15 -1 -66 -4q-40 -3 -65 -3q-92 0 -92 89q0 72 89 90q22 4 147 6q13 85 37 169 q-184 -4 -186 -4q-37 0 -62 26t-25 64q0 72 101 89q24 4 237 4q234 522 604 522q96 0 156 -19q35 51 92 51q71 0 93 -115q9 -51 9 -172z"/>
<glyph glyph-name="uF004" horiz-adv-x="795" unicode="" d="M603 1530q0 -97 -51 -208q-59 -129 -138 -129q-71 0 -71 73q0 28 23 63q20 29 40 57q15 24 24 53q-87 51 -87 130q0 54 36.5 89t91.5 35q132 0 132 -163z"/>
<glyph glyph-name="uF005" horiz-adv-x="795" unicode="" d="M603 1316q0 -54 -36.5 -88.5t-91.5 -34.5q-132 0 -132 162q0 98 50 209q60 129 139 129q71 0 71 -74q0 -27 -23 -62q-20 -29 -40 -57q-16 -24 -24 -53q87 -51 87 -131z"/>
<glyph glyph-name="middot" d="M391 716q0 -51 -36.5 -87.5t-87.5 -36.5q-52 0 -88 36.5t-36 87.5t36 87.5t88 36.5q51 0 87.5 -36.5t36.5 -87.5z" horiz-adv-x="510"/>
</font>
</defs>
</svg>
