<?xml version="1.0" encoding="UTF-8" standalone="no"?>
<!DOCTYPE svg  PUBLIC '-//W3C//DTD SVG 1.1//EN'  'http://www.w3.org/Graphics/SVG/1.1/DTD/svg11.dtd'>
<svg xmlns="http://www.w3.org/2000/svg">
<defs>
<font id="Venetian301BT-Italic" horiz-adv-x="1024">
<font-face slope="-12" underline-position="-236" font-weight="400" descent="-410" panose-1="2 2 5 2 5 4 11 9 3 3" units-per-em="2048" unicode-range="U+0020-F000" bbox="-375 -621 2036 1687" x-height="737" underline-thickness="61" font-family="Venetian301BT" ascent="1638" font-style="italic" cap-height="1200"/>
<missing-glyph horiz-adv-x="2048"/>
<glyph glyph-name=".notdef" horiz-adv-x="2048"/>
<glyph glyph-name=".null" horiz-adv-x="0"/>
<glyph glyph-name="nonmarkingreturn" horiz-adv-x="2048"/>
<glyph glyph-name="space" horiz-adv-x="469" unicode=" "/>
<glyph glyph-name="exclam" horiz-adv-x="563" unicode="!" d="M147 -16q-22 0 -37.5 17.5t-15.5 45.5q0 48 22.5 80.5t55.5 32.5q23 0 38 -18q13 -18 13 -50q0 -44 -23 -76q-21 -32 -53 -32zM201 395l139 768q4 30 28 43t70 13q19 0 25 -5t6 -20l-2 -17q-1 -4 -2 -9t-6 -19l-219 -754h-39z"/>
<glyph glyph-name="quotedbl" horiz-adv-x="666" unicode='&quot;' d="M186 870h-28l-60 453l-3 23l-1 22q0 46 20 70t58 24q35 0 55.5 -24.5t20.5 -69.5l-1 -16l-3 -28zM508 870h-29l-57 453l-3 23l-1 22q0 47 18.5 70.5t57.5 23.5q36 0 56.5 -25t20.5 -69l-1 -16l-3 -29z"/>
<glyph glyph-name="numbersign" horiz-adv-x="1575" unicode="#" d="M809 1454h94l-174 -498h299l176 498h96l-176 -498h322l-27 -79h-323l-107 -304h348l-28 -79h-348l-175 -494h-96l174 494h-301l-174 -494h-94l174 494h-340l31 79h338l106 304h-368l28 79h369zM700 877l-108 -304h301l106 304h-299z"/>
<glyph glyph-name="dollar" horiz-adv-x="938" unicode="$" d="M324 -184l34 186q-82 22 -144 62t-101 100l22 49q17 39 29 39l54 -96q53 -95 147 -119l88 473q-100 72 -144.5 138t-44.5 140q0 99 79 166q41 35 92.5 54.5t113.5 19.5l24 131h37l-24 -135q65 -13 120.5 -38t96.5 -62l-30 -66q-24 -53 -34 -53q-7 0 -12 5l-4 15l1 19 l1 20q0 48 -38 80.5t-107 46.5l-72 -387q127 -97 176 -170.5t49 -154.5q0 -118 -90.5 -199.5t-222.5 -81.5h-25l-35 -182h-36zM402 33l10 -2h20q92 0 153.5 57.5t61.5 142.5q0 65 -32.5 119.5t-129.5 134.5zM473 629l69 366q-89 0 -141.5 -45t-52.5 -121q0 -50 30.5 -100 t94.5 -100z"/>
<glyph glyph-name="percent" horiz-adv-x="1352" unicode="%" d="M901 -25q-110 0 -183 79t-73 202q0 128 85.5 219.5t201.5 91.5q111 0 189.5 -79t78.5 -191q0 -127 -91 -224.5t-208 -97.5zM874 18q93 0 172.5 100t79.5 218q0 86 -43 136t-118 50q-89 0 -168.5 -96.5t-79.5 -212.5q0 -83 45.5 -139t111.5 -56zM147 -25l945 1248h73 l-946 -1248h-72zM377 618q-110 0 -183 79t-73 202q0 126 85 217.5t202 91.5q110 0 189 -79t79 -191q0 -126 -90.5 -223t-208.5 -97zM348 662q92 0 173 99.5t81 217.5q0 84 -44 134t-120 50q-90 0 -169 -97t-79 -212q0 -82 45 -137t113 -55z"/>
<glyph glyph-name="ampersand" horiz-adv-x="1464" unicode="&amp;" d="M1067 485q12 -22 20 -53q3 -14 5 -28.5t2 -32.5q0 -170 -130 -282t-321 -112q-203 0 -348 123t-145 303q0 142 90 241t254 132q-72 36 -107 83t-35 108t37.5 108.5t108.5 77.5q43 18 110 33.5t99 15.5q18 0 57 -38.5t39 -55.5q0 -11 -12 -23q-11 -8 -27 -10 q-14 0 -48.5 39t-90.5 39q-84 0 -135.5 -44t-51.5 -114q0 -51 35 -93.5t105 -74.5l58 -19q34 -8 34 -30q0 -15 -6 -21.5t-23 -8.5l-22 3l-41 3q-135 0 -226.5 -91.5t-91.5 -230.5q0 -155 129.5 -265t312.5 -110q150 0 247.5 88t97.5 224q0 41 -7 66q-6 28 -22 48 q-66 0 -114 -7.5t-80 -21.5q-58 -24 -58 -73q0 -21 20.5 -48t20.5 -36q0 -19 -14.5 -44.5t-30.5 -27.5q-21 0 -39 31.5t-18 73.5q0 39 19 86q20 45 52 82q29 32 80 48.5t125 16.5h6l46 1q166 0 250.5 22t84.5 61q0 15 -9 33t-11 27q0 10 15.5 19t39.5 9q18 0 24.5 -9 t6.5 -32q0 -90 -93.5 -149.5t-242.5 -59.5h-31z"/>
<glyph glyph-name="quotesingle" horiz-adv-x="342" unicode="&apos;" d="M184 870h-28l-60 454l-2 15v29q0 47 18.5 70.5t57.5 23.5q36 0 57 -24.5t21 -69.5l-1 -16l-3 -28z"/>
<glyph glyph-name="parenleft" horiz-adv-x="717" unicode="(" d="M457 -561q-155 179 -231 383t-76 434q0 343 151 616.5t442 454.5l23 -35q-276 -170 -420.5 -439.5t-144.5 -616.5q0 -107 18 -209t56 -204q75 -202 214 -360z"/>
<glyph glyph-name="parenright" horiz-adv-x="717" unicode=")" d="M207 1327q152 -179 229 -382q38 -102 57 -209t19 -226q0 -346 -150.5 -618.5t-441.5 -452.5l-24 35q278 171 421.5 439t143.5 615q0 212 -75 412t-214 360z"/>
<glyph glyph-name="asterisk" horiz-adv-x="768" unicode="*" d="M442 1262l35 -201q1 -8 9 -16q7 -5 18 -5q7 0 20 5l4 2l181 57l12 -31l-156 -123l-6 -8l-2 -12q0 -7 5 -15l16 -16l143 -117l-12 -28l-181 57l-10 3l-14 3q-10 0 -17 -6.5t-10 -16.5l-35 -198h-34l-35 198q-1 9 -8.5 15.5t-18.5 7.5l-14 -3l-10 -3l-183 -57l-12 28 l145 117q7 5 14 15l5 16q0 7 -2 11l-6 9l-156 123l12 31l183 -57l4 -2l20 -5q10 0 17 6t10 15l35 201h34zM319 928q0 -42 31 -74q33 -31 74 -31q42 0 73 31t31 74q0 42 -31 73t-73 31t-73.5 -31t-31.5 -73z"/>
<glyph glyph-name="plus" horiz-adv-x="1706" unicode="+" d="M813 1221h80v-570h559v-82h-559v-569h-80v569h-559v82h559v570z"/>
<glyph glyph-name="comma" horiz-adv-x="397" unicode="," d="M54 8l-3 19q8 6 25 20t28 25q23 22 50 55q35 -28 53 -67t18 -91q0 -83 -36.5 -156.5t-106.5 -127.5q-30 -24 -67 -43t-50 -19l-11 3q-3 2 -5 7q0 8 24 22q18 8 23 10.5t18 12.5q59 41 91 100.5t32 127.5q0 47 -20 72.5t-63 29.5z"/>
<glyph glyph-name="hyphen" horiz-adv-x="639" unicode="-" d="M469 356h-264q-69 0 -103.5 -37.5t-46.5 -39.5q-7 2 -9 4l-3 12q0 5 12 25l2 4l84 116h232q106 0 143 47q10 13 19 13q6 0 9 -3.5t3 -13.5l-2 -11l-7 -14z"/>
<glyph glyph-name="period" horiz-adv-x="397" unicode="." d="M139 -16q-22 0 -37.5 17.5t-15.5 45.5q0 48 23 80.5t57 32.5q23 0 38 -18q13 -18 13 -50q0 -43 -23.5 -75.5t-54.5 -32.5z"/>
<glyph glyph-name="slash" horiz-adv-x="598" unicode="/" d="M-41 -190h-74l674 1409h74z"/>
<glyph glyph-name="zero" horiz-adv-x="938" unicode="0" d="M438 -29q-152 0 -256 112t-104 286q0 183 117.5 312.5t279.5 129.5q158 0 271.5 -111.5t113.5 -273.5q0 -180 -128.5 -317.5t-293.5 -137.5zM156 311q0 -126 72 -211.5t175 -85.5q137 0 255 146.5t118 318.5q0 129 -71 206t-189 77q-60 0 -122 -33q-57 -30 -113 -96 q-61 -70 -93 -155t-32 -167z"/>
<glyph glyph-name="one" horiz-adv-x="938" unicode="1" d="M354 -20q-13 0 -16.5 3t-5.5 17l27 113l51 202q33 141 54 244.5t21 124.5q0 12 -4 19t-14 8q-15 0 -59 -24.5t-54 -24.5q-7 0 -10.5 3t-5.5 13q0 12 66 45l65 33l56 30q52 29 65 29q9 0 15.5 -8t6.5 -21q0 -11 -31 -142l-46 -198l-58 -261q-14 -79 -14 -107q0 -26 9 -35 q5 -4 14 -6t26 -2h12h11q8 2 12 2l18 2q10 0 15 -3.5t6 -10.5q0 -21 -60 -21q-18 0 -24 -2q-21 0 -45 -3.5t-52 -9.5z"/>
<glyph glyph-name="two" horiz-adv-x="938" unicode="2" d="M647 86q83 0 117.5 45t40.5 47q6 0 11 -5q4 -2 5 -11l-30 -54q-25 -45 -50 -108h-657l-4 11v7q0 24 73 78l97 74q157 128 236 239t79 199q0 62 -37 103t-94 41q-66 0 -119 -35l-53 -35q-7 1 -9 2l-3 6q0 47 65 81t164 34q90 0 144.5 -47t54.5 -121q0 -110 -112 -240 q-56 -65 -145.5 -141.5t-217.5 -169.5h444z"/>
<glyph glyph-name="three" horiz-adv-x="938" unicode="3" d="M422 276q113 -51 168 -130.5t55 -198.5q0 -88 -42 -169.5t-118.5 -144t-176 -99t-183.5 -36.5q-45 0 -84.5 9t-78.5 29q-75 36 -75 65q0 6 26 52.5t38 47.5q15 0 27 -24l10 -17q29 -44 86.5 -72t115.5 -28q147 0 254 105.5t107 252.5q0 102 -52.5 174.5t-152.5 108.5 l-38 9q-42 9 -42 26q0 15 46 33q15 5 30 11q23 9 43 21q92 50 135 115t43 153q0 84 -44.5 131.5t-125.5 47.5q-47 0 -83 -27t-44 -29l-7 4q-3 3 -3 9q0 28 45 64t111 36q114 0 186 -57t72 -148q0 -84 -64.5 -168t-183.5 -156z"/>
<glyph glyph-name="four" horiz-adv-x="938" unicode="4" d="M377 -498l121 498h-529l764 813l58 8l-183 -758l293 7l-18 -70h-291l-121 -498h-94zM514 63l145 601l-565 -603z"/>
<glyph glyph-name="five" horiz-adv-x="938" unicode="5" d="M250 457l168 311q29 -8 79 -12l128 -4q101 0 157 54q11 9 17 11q8 0 12 -4l4 -10q0 -6 -31 -47l-53 -74h-280q-18 0 -28 -5.5t-22 -25.5l-49 -88l-5 -11l-1 -5q0 -9 31 -28l37 -23q106 -74 157.5 -166.5t51.5 -210.5q0 -238 -180.5 -415t-422.5 -177q-63 0 -105 9t-42 22 q0 6 5 13t11 7l9 -2q27 -8 52.5 -12t59.5 -4q213 0 370 154t157 360q0 129 -74.5 229.5t-212.5 153.5z"/>
<glyph glyph-name="six" horiz-adv-x="938" unicode="6" d="M254 567q53 67 119.5 100t146.5 33q135 0 223 -91q44 -46 66 -102.5t22 -127.5q0 -162 -117.5 -283t-275.5 -121q-141 0 -228 105t-87 278q0 197 89 383t241 308q86 68 198.5 114.5t171.5 46.5q8 0 13.5 -3.5t5.5 -10.5q0 -8 -96 -36.5t-175 -80.5 q-113 -75 -190.5 -200.5t-126.5 -311.5zM729 389q0 129 -56.5 199.5t-162.5 70.5q-125 0 -205 -87.5t-80 -227.5q0 -151 62 -237.5t168 -86.5q113 0 193.5 108.5t80.5 260.5z"/>
<glyph glyph-name="seven" horiz-adv-x="938" unicode="7" d="M827 766l-145 -442q-129 -394 -274 -593.5t-299 -199.5q-9 0 -13.5 3.5t-6 6.5t-1.5 4q0 11 61 30.5t105 55.5q97 78 192 250q48 85 90 184t78 214l127 403h-352q-105 0 -150 -11t-75 -38q-23 -20 -46 -60q-19 -36 -34 -38q-7 3 -9 5l-3 15q0 31 51 101.5t70 119.5l42 -8 l72 -2h520z"/>
<glyph glyph-name="eight" horiz-adv-x="938" unicode="8" d="M455 694q-71 61 -105.5 120.5t-34.5 119.5q0 110 87 193t200 83q97 0 163 -61t66 -154q0 -84 -57.5 -156.5t-169.5 -127.5q137 -93 192.5 -176t55.5 -189q0 -156 -111.5 -264.5t-271.5 -108.5q-152 0 -256 98t-104 242q0 128 87.5 225t258.5 156zM485 670 q-130 -51 -203 -143.5t-73 -207.5q0 -126 83 -213.5t200 -87.5q107 0 184.5 85.5t77.5 207.5q0 102 -64.5 188.5t-204.5 170.5zM569 735q85 36 137 107.5t52 148.5t-45.5 127.5t-116.5 50.5q-75 0 -129.5 -60.5t-54.5 -147.5q0 -62 35.5 -114t121.5 -112z"/>
<glyph glyph-name="nine" horiz-adv-x="938" unicode="9" d="M680 193q-51 -56 -117.5 -86.5t-134.5 -30.5q-132 0 -225.5 98.5t-93.5 239.5q0 159 116 275t275 116q144 0 231.5 -103t87.5 -274q0 -210 -102 -412.5t-268 -320.5q-82 -57 -185 -96t-151 -39q-10 0 -16.5 3.5t-6.5 10.5q0 12 87 39t159 70q126 72 213.5 200.5 t130.5 309.5zM719 442q0 142 -61 231t-160 89q-132 0 -209.5 -106t-77.5 -287q0 -123 56 -186.5t161 -63.5q131 0 211 87.5t80 235.5z"/>
<glyph glyph-name="colon" horiz-adv-x="397" unicode=":" d="M215 459q-21 0 -38 18q-15 18 -15 47q0 48 23 80.5t57 32.5q23 0 37 -18.5t14 -51.5q0 -43 -23.5 -75.5t-54.5 -32.5zM139 -16q-22 0 -37.5 17.5t-15.5 45.5q0 48 23 80.5t57 32.5q23 0 38 -18q13 -18 13 -50q0 -43 -23.5 -75.5t-54.5 -32.5z"/>
<glyph glyph-name="semicolon" horiz-adv-x="397" unicode=";" d="M215 459q-21 0 -38 18q-15 18 -15 47q0 48 23 80.5t57 32.5q23 0 37 -18.5t14 -51.5q0 -43 -23.5 -75.5t-54.5 -32.5zM125 121q48 -24 75 -69t27 -103q0 -97 -72.5 -192t-117.5 -95q-8 2 -10 4l-4 8l62 69q62 67 62 151q0 49 -23 76q-21 27 -69 36l-8 19z"/>
<glyph glyph-name="less" horiz-adv-x="1706" unicode="&lt;" d="M1442 1124v-90l-1045 -424l1045 -424v-88l-1178 482v61z"/>
<glyph glyph-name="equal" horiz-adv-x="1706" unicode="=" d="M254 831h1198v-79h-1198v79zM254 469h1198v-82h-1198v82z"/>
<glyph glyph-name="greater" horiz-adv-x="1706" unicode="&gt;" d="M264 1124l1178 -483v-61l-1178 -482v88l1045 424l-1045 424v90z"/>
<glyph glyph-name="question" horiz-adv-x="848" unicode="?" d="M180 330q0 56 11.5 99t35.5 82q41 69 127 107q33 15 111 36t108 48q35 30 54.5 75.5t19.5 92.5q0 80 -51.5 132.5t-130.5 52.5q-42 0 -72 -15q-30 -13 -51 -45l-22 12l7 26q35 116 150 116q98 0 163 -59.5t65 -149.5q0 -71 -24.5 -148.5t-59.5 -129.5q-22 -31 -53 -51 q-14 -9 -34 -18t-51 -20l-34 -10q-219 -66 -238 -233h-31zM160 -16q-25 0 -39.5 17.5t-14.5 45.5q0 48 23.5 80.5t56.5 32.5q23 0 37.5 -17.5t14.5 -50.5q0 -43 -23.5 -75.5t-54.5 -32.5z"/>
<glyph glyph-name="at" horiz-adv-x="2019" unicode="@" d="M1090 971q-58 0 -103.5 -30t-95.5 -103q-73 -108 -116.5 -234.5t-43.5 -222.5q0 -99 44 -157t120 -58q65 0 129.5 45t124 135t93.5 198q16 53 25 103.5t9 95.5q0 97 -54.5 162.5t-131.5 65.5zM1194 344q-58 -108 -137.5 -162.5t-179.5 -54.5q-114 0 -187.5 92.5 t-73.5 239.5q0 106 48.5 214t136.5 193q63 63 142 100.5t151 37.5q83 0 139 -51t80 -150l57 184h121l-168 -604l-2 -6q-18 -68 -18 -103q0 -51 27 -80.5t77 -29.5t108.5 28.5t112.5 79.5q97 91 151 223t54 273q0 290 -194.5 466.5t-516.5 176.5q-175 0 -327 -57.5 t-271 -167.5q-137 -127 -206.5 -299t-69.5 -383q0 -175 55 -301t178 -232q115 -101 266.5 -155t321.5 -54q172 0 331 54q81 27 151.5 64.5t140.5 90.5l26 -30q-73 -54 -149 -94.5t-160 -69.5q-163 -56 -340 -56q-192 0 -342.5 45.5t-271.5 139.5q-151 115 -228 275t-77 356 q0 204 84.5 378.5t250.5 313.5q66 54 138.5 95.5t151.5 69.5q160 56 339 56q345 0 551.5 -186.5t206.5 -497.5q0 -156 -57.5 -295.5t-163.5 -234.5q-58 -52 -124 -83q-33 -14 -63.5 -21t-64.5 -7q-96 0 -148 55q-27 28 -42 69t-15 95z"/>
<glyph glyph-name="A" horiz-adv-x="1124" unicode="A" d="M367 512h292l35 494q-31 -45 -86 -125q-46 -67 -84 -125q-78 -117 -157 -244zM338 463q-94 -156 -149.5 -263t-55.5 -132q0 -31 55 -37q56 0 56 -19q0 -8 -6 -11t-10.5 -4t-14.5 -1h-55l-56 3l-67 3l-135 -3l-13 -1q-9 0 -15.5 4.5t-6.5 11.5q0 9 10 15t31 6 q52 0 81.5 9.5t53.5 41.5q20 27 113 179.5t157 252.5q210 332 340.5 515.5t155.5 183.5q5 0 9.5 -5t6.5 -16l-6 -68l-10 -140l-36 -544l-13 -286q0 -73 15.5 -97t57.5 -24q22 0 32 1t33 7l36 8q6 0 10 -3.5t6 -10.5q0 -18 -48.5 -30.5t-129.5 -12.5l-62 2l-63 2 q-78 0 -141 -7l-12 -1q-9 0 -13 3t-6 11q0 16 39 21q34 3 55 10q35 9 49 33q11 23 19 102l22 291h-319z"/>
<glyph glyph-name="B" horiz-adv-x="1096" unicode="B" d="M186 301l156 678l13 73l5 54q0 37 -27 49t-97 12q-21 0 -29 3.5t-8 13.5q0 6 7.5 9t22.5 3l28 -1l138 -5l100 3l103 3q149 0 234.5 -66.5t85.5 -183.5q0 -97 -66.5 -172t-181.5 -106q112 -34 177.5 -119.5t65.5 -196.5q0 -165 -115.5 -262.5t-314.5 -97.5q-45 3 -77.5 5 t-69.5 2l-158 7l-128 -3l-75 -3q-12 0 -18 3.5t-8 12.5q0 11 8 16t25 5l15 -1l19 -1q109 0 157 209zM416 754l-5 -24l-1 -25q0 -14 26 -20.5t80 -6.5q140 0 211.5 61.5t71.5 184.5q0 110 -67 171.5t-187 61.5q-22 0 -31 -5t-12 -19zM295 231l-11 -57l-3 -49q0 -47 41 -68.5 t129 -21.5q148 0 240.5 84.5t92.5 212.5q0 141 -88.5 227t-236.5 86q-48 0 -58.5 -6.5t-19.5 -38.5z"/>
<glyph glyph-name="C" horiz-adv-x="1268" unicode="C" d="M1010 74q-93 -48 -194 -74q-45 -11 -97 -18t-98 -7q-233 0 -376 144.5t-143 380.5q0 120 41.5 230t120.5 208q110 134 269.5 207.5t340.5 73.5q125 0 223.5 -30.5t182.5 -94.5q-11 -61 -17.5 -137t-23.5 -76q-13 0 -17 52q0 50 -20 93q-35 78 -118 117t-214 39 q-111 0 -217.5 -47t-193.5 -136q-96 -98 -156.5 -243.5t-60.5 -284.5q0 -203 111.5 -324.5t299.5 -121.5q108 0 193.5 39t154.5 122q15 18 34 47t28 29q6 0 10.5 -4t5.5 -12q0 -5 -27.5 -61t-41.5 -111z"/>
<glyph glyph-name="D" horiz-adv-x="1350" unicode="D" d="M330 991l12 62l4 49q0 46 -89 55h-5l-59 3q-52 0 -52 18q0 9 10 11.5t19 3.5t29 1h354q320 0 503 -147t183 -402q0 -299 -202 -472t-558 -173h-555l-7 6l-5 10q0 17 52 23q26 0 41.5 2.5t43.5 9.5q61 15 100 178l7 30zM268 195l-10 -55l-2 -27q0 -38 39 -55 q39 -15 162 -15q167 0 263 28.5t173 94.5q92 80 148.5 211t56.5 272q0 245 -137.5 376.5t-397.5 131.5q-66 0 -97 -128l-1 -3z"/>
<glyph glyph-name="E" horiz-adv-x="1006" unicode="E" d="M182 274l156 674l20 95l7 61q0 33 -27 47q-27 12 -143 12h-23q-12 0 -17.5 2.5t-7.5 12.5q0 9 7 13.5t24 4.5h36l507 -4l129 1l98 3l-6 -98l-4 -47q0 -19 -6.5 -30t-16.5 -11q-5 0 -10 6l-4 18l1 15l1 14q0 50 -29 70t-129 20h-163q-48 0 -60.5 -10.5t-29.5 -75.5 l-89 -377h175q80 0 106 10.5t43 42.5q4 9 13.5 42t23.5 34l8 -2l4 -6l-1 -8l-1 -4l-57 -246l-2 -7q-3 -17 -17 -20q-6 0 -12 6l-4 13l4 22l4 29q0 34 -20 45.5t-107 11.5h-166l-102 -442l-7 -27q-16 -72 -16 -92q0 -21 11 -29q11 -6 39 -6h225q80 0 128 15.5t79 52.5 q19 22 36.5 56t30.5 34q6 0 11 -3.5t6 -10.5q0 -17 -24 -73q-12 -29 -26 -58.5t-36 -69.5h-54l-170 4l-301 4q-53 0 -141.5 -3.5t-111.5 -3.5l-21 -1l-17 3q-6 3 -6 9q0 24 63 24q22 0 33 1.5t36 5.5q41 8 62.5 44t57.5 187z"/>
<glyph glyph-name="F" horiz-adv-x="985" unicode="F" d="M256 45q46 -8 68 -10.5t55 -2.5q70 0 70 -20q0 -7 -8 -12l-21 -4l-90 4l-160 4l-172 -3l-18 -1q-12 0 -20 4q-5 4 -7 12q0 9 9.5 15t25.5 6l12 -1l16 -1q104 0 143 153l5 21l198 846l8 36l3 23q0 26 -30.5 37.5t-113.5 11.5q-18 0 -28.5 4.5t-10.5 14.5q0 5 7 11 q6 3 22 5l16 -1l156 -3h375l79 1l140 3l-5 -41q-18 -137 -40 -137q-8 3 -10 5l-4 13l1 23l1 18q0 34 -29 50t-96 16h-207q-59 0 -77.5 -17.5t-41.5 -111.5l-76 -330h217q57 0 75 6.5t32 26.5q9 12 18.5 34.5t20.5 22.5q6 0 10 -5l4 -11l-20 -61q-18 -55 -31 -123l-3 -25 q0 -39 -19 -39q-6 0 -12 6q-3 5 -5 14l3 30l3 28q0 32 -20 43.5t-88 11.5h-195z"/>
<glyph glyph-name="G" horiz-adv-x="1294" unicode="G" d="M918 80l36 157l4 27l3 21q0 27 -9.5 36t-38.5 9q-19 0 -30 -1t-36 -6l-42 -6q-9 0 -14 5l-5 12q0 20 87 31l31 4q46 6 67.5 9t70.5 11q93 14 117 14q7 0 13.5 -3.5t7.5 -10.5q0 -15 -31 -24t-45 -23q-12 -15 -23.5 -58.5t-27.5 -133.5l4 1l28 9q6 -2 8.5 -4.5t2.5 -10.5 q0 -37 -150.5 -102.5t-308.5 -65.5q-246 0 -388.5 144t-142.5 391q0 311 198.5 509t516.5 198q132 0 241.5 -31.5t190.5 -91.5q-15 -61 -25.5 -134t-29.5 -73q-8 0 -12 7t-6 24v34q0 92 -97.5 157t-246.5 65q-262 0 -424 -184t-162 -480q0 -115 28 -201.5t88 -153.5 q116 -128 320 -128q62 0 118 12t114 39z"/>
<glyph glyph-name="H" horiz-adv-x="1407" unicode="H" d="M1051 662l23 98q71 308 71 340q0 34 -24 47.5t-87 13.5q-13 0 -20 4t-8 13q0 7 9 13q7 3 25 5l74 -6q62 -6 111 -6q16 0 58.5 2t53.5 2l82 4q15 0 21 -5q7 -3 8 -11q0 -9 -7.5 -13t-27.5 -4h-18q-51 0 -75 -20q-24 -18 -46 -92q-51 -171 -111 -432q-22 -96 -39 -177 q-13 -60 -39 -189q-38 -185 -41 -202q26 -4 55.5 -7.5t56.5 -3.5q63 0 63 -26q0 -5 -4.5 -9.5t-16.5 -6.5l-28 2q-44 4 -100.5 7t-100.5 3q-55 0 -119 -7l-82 -7q-10 0 -17.5 5t-9.5 13q0 18 64 24t86 34q9 10 26 54q13 37 31 105l59 248q23 107 23 123q0 9 -4 12.5t-16 3.5 h-600q-33 0 -80 -243q-13 -68 -25 -135q-16 -82 -40 -189q41 -7 62.5 -10t53.5 -3q57 0 57 -24q0 -8 -5 -12l-15 -4l-31 2q-44 4 -99.5 7t-97.5 3q-63 0 -129 -7l-77 -7q-10 0 -16.5 5t-8.5 13q0 16 68.5 25t87.5 43q15 28 39 111.5t79 312.5q28 117 62 269q30 132 30 134 q35 167 35 195q0 30 -14 43q-8 7 -28 11.5t-50 4.5l-8 1q-59 0 -59 18q0 8 7.5 12t24.5 6l77 -6q69 -6 132 -6q17 0 62.5 2t54.5 2l82 4q14 0 20.5 -3.5t8.5 -12.5q0 -11 -8 -14t-16 -4t-25 -1q-56 0 -80.5 -11.5t-35 -39.5t-45.5 -161l-65 -283h656z"/>
<glyph glyph-name="I" horiz-adv-x="649" unicode="I" d="M174 199l191 821l10 52l4 40q0 26 -27.5 36.5t-95.5 10.5q-13 0 -20 4.5t-7 16.5q0 5 5.5 9.5t19.5 6.5l18 -1q28 0 86 -3.5t80 -3.5q69 0 138 6l71 6q12 0 19 -4.5t8 -13.5q0 -18 -55 -24l-37 -5q-35 -4 -53.5 -28t-39.5 -113l-196 -848l-8 -38l-2 -36q0 -32 27 -46 q29 -13 93 -13q45 0 90 12l11 2q7 -2 10 -4t4 -8q0 -17 -31 -29q-33 -10 -84 -10q-25 0 -40 1q-75 5 -88 5l-105 6l-128 -3l-15 -1q-17 0 -23.5 4t-7.5 14q0 13 9 18t36 5q96 0 130 142z"/>
<glyph glyph-name="J" horiz-adv-x="649" unicode="J" d="M287 160q-67 -294 -186 -450q-61 -81 -129.5 -123.5t-148.5 -42.5l-17 21q-39 48 -39 56t4.5 13.5t11.5 5.5q5 0 38 -21q31 -22 66 -22q79 0 142 119.5t123 385.5l202 920l11 52l4 34q0 26 -12 37.5t-64 15.5l-24 2q-52 0 -52 19q0 5 9 10l28 4h53l27 -1l43 -1h74l130 3 l25 1q19 0 26.5 -4t8.5 -14q0 -12 -42 -17q-25 0 -36 -4q-47 -12 -77 -137l-5 -19z"/>
<glyph glyph-name="K" horiz-adv-x="1266" unicode="K" d="M162 199l188 816l9 48l3 35q0 47 -66.5 55.5t-66.5 22.5q0 8 7 12l16 4l18 -1l109 -3q35 0 97.5 2.5t76.5 2.5l25 1q8 0 12 -2t7 -6q0 -1 1 -2q-6 -5 -11 -8q-13 -8 -36 -19q-45 -21 -66 -106l-90 -389q224 131 383.5 275.5t159.5 190.5q0 21 -49 27t-49 21q0 9 7 12.5 t23 5.5l19 -1l139 -3l70 3l63 3q15 0 21 -5q7 -3 8 -11q0 -27 -71 -27q-71 -8 -121 -65l-3 -3q-91 -99 -213 -201q-116 -97 -282 -214q125 -213 266 -376.5t252 -232.5q21 -13 45.5 -20.5t53.5 -7.5q61 0 61 -17q0 -8 -7 -12l-20 -4h-29q-31 0 -65 -0.5t-71 -1.5l-81 -6 q-145 137 -277 297q-64 78 -124 161.5t-119 178.5l-92 -414l-8 -49l-2 -43q0 -40 23 -66t61 -26q21 0 36 5l21 5q6 0 10 -4l4 -10q0 -16 -33.5 -25.5t-93.5 -9.5l-99 4l-114 4l-70 -1l-55 -1q-11 0 -17.5 6t-6.5 14q0 7 6 11t20 6q100 0 128.5 21t58.5 143z"/>
<glyph glyph-name="L" horiz-adv-x="967" unicode="L" d="M154 184l211 851l7 39l3 24q0 33 -13 42.5t-87 18.5q-12 0 -22.5 2t-17 4.5t-6.5 12.5q0 5 10 11q12 5 29 5l49 -2l54 -2l147 1l100 1l15 1l14 1q13 0 19.5 -4.5t7.5 -11.5q0 -8 -8 -13l-21 -4q-86 0 -108.5 -18t-44.5 -105l-201 -806l-5 -19q-18 -71 -18 -92 q0 -46 37 -65q39 -17 156 -17q126 0 191 20.5t120 69.5q6 5 16.5 15.5t19.5 22.5q21 26 34 26q6 0 9 -4t3 -11q-4 -7 -6 -12q-8 -15 -20 -33l-46 -76l-9 -18q-20 -39 -71 -39l-168 5q-72 0 -116 1q-175 4 -189 4q-43 0 -127.5 -3.5t-113.5 -3.5l-21 -1q-12 0 -16.5 3 t-5.5 15q0 9 8 13t29 4q87 0 117.5 29.5t54.5 117.5z"/>
<glyph glyph-name="M" horiz-adv-x="1485" unicode="M" d="M408 991l-109 -475l-23 -103q-63 -275 -63 -327q0 -47 66.5 -54t66.5 -20q0 -6 -8 -10l-21 -4l-74 3l-120 3q-32 0 -65 -1t-65 -4l-16 -1q-9 0 -15.5 4.5t-6.5 11.5q0 19 66 19q32 0 54 9.5t34 27.5q29 43 101 314l15 58q65 248 106 421q36 158 36 204q0 44 -21.5 62 t-85.5 26l-42 3q-54 0 -54 20q0 8 8 12l27 4q38 0 126 -11l160 -14l187 -942l532 969l49 -3l80 -1q17 0 53 1t55 1h15q16 0 24.5 -3.5t8.5 -12.5q0 -20 -50 -20l-59 -3q-32 -3 -47.5 -15.5t-24.5 -42t-36 -176.5l-53 -341l-41 -307q-15 -132 -15 -171q0 -38 16.5 -52.5 t63.5 -14.5q35 0 79 6l15 2q10 0 15.5 -3.5t5.5 -10.5q0 -15 -34 -24q-17 -3 -41.5 -5t-59.5 -2l-108 1l-124 1h-23t-26 -2l-27 -2q-11 0 -17.5 4.5t-6.5 11.5q0 15 36 20.5t52 16.5q27 18 45 75.5t39 186.5l106 721l-381 -690q-45 -82 -100 -201q-51 -112 -70 -112 q-16 0 -25 46l-5 29z"/>
<glyph glyph-name="N" horiz-adv-x="1268" unicode="N" d="M178 287l174 751q-51 102 -143 120q-49 10 -63 13t-27 7q0 8 5.5 12t22.5 6h15l131 -2h51l12 1l23 1h24l521 -1012l194 842l11 52l4 40q0 39 -59.5 45t-59.5 21q0 9 4.5 11t11 3.5t19.5 1.5l19 -1l130 -3q13 0 42 1t46 1l51 2q15 0 21.5 -3.5t7.5 -10.5q0 -18 -42 -18 q-35 0 -68.5 -8.5t-53.5 -39.5t-43 -127l-229 -997q-3 -12 -8 -16q-2 -3 -9 -5q-8 0 -32 43l-8 16l-486 941l-178 -768l-11 -59l-3 -54q0 -30 30.5 -47.5t81.5 -17.5q10 0 17 -5t8 -14q0 -9 -6 -12.5t-21 -5.5l-62 5q-23 0 -59.5 2.5t-42.5 2.5q-39 0 -99 -2.5t-66 -2.5 l-15 -1q-9 0 -14.5 5t-5.5 13q0 14 48 19q31 0 50 4q47 6 72.5 44t66.5 206z"/>
<glyph glyph-name="O" horiz-adv-x="1389" unicode="O" d="M102 506q0 111 38.5 218t111.5 206q104 139 248.5 214t312.5 75q209 0 340 -142t131 -370q0 -157 -61 -301t-174 -252q-89 -86 -205 -133q-56 -22 -117.5 -34t-124.5 -12q-229 0 -364.5 142.5t-135.5 388.5zM788 1180q-231 0 -387.5 -204.5t-156.5 -514.5q0 -104 24 -185 t73.5 -139.5t117.5 -88.5t155 -30q224 0 376.5 206t152.5 511q0 207 -94 326t-261 119z"/>
<glyph glyph-name="P" horiz-adv-x="1038" unicode="P" d="M166 217l186 811l10 44l3 26q0 35 -18 50q-9 8 -27 12.5t-45 4.5l-38 2q-40 0 -40 15q0 7 8.5 10.5t32.5 3.5h5l33 2q83 0 155.5 -3t161.5 -6q53 0 99 -9q29 -6 74 -21q104 -35 159.5 -106t55.5 -168q0 -145 -105 -236.5t-274 -91.5q-65 0 -108 12t-43 31q0 6 4.5 10.5 t11.5 5.5l18 -4q58 -16 103 -16q114 0 190 81t76 200q0 129 -88.5 205.5t-243.5 76.5h-10l-47 -188l-43 -189l-135 -594l-11 -60l-4 -48q0 -20 30 -34q33 -13 81 -13q35 0 74 10l43 10q6 0 10.5 -3t5.5 -9q0 -18 -52 -32.5t-124 -14.5q-11 0 -55 2.5t-61 2.5l-103 5 q-14 0 -47.5 -1t-53.5 -1h-18q-13 0 -18.5 4t-6.5 14q0 20 42 20q27 0 40 5q42 9 63.5 42.5t43.5 129.5z"/>
<glyph glyph-name="Q" horiz-adv-x="1389" unicode="Q" d="M375 -319q-59 -30 -98 -43t-58 -13q-23 0 -38 12q-13 13 -13 35q0 30 24 51q25 19 64 19q11 0 24 -1t27 -4l70 -18q378 192 571 448.5t193 569.5q0 210 -93.5 328.5t-259.5 118.5q-229 0 -386.5 -206.5t-157.5 -512.5q0 -174 63.5 -283.5t188.5 -148.5q22 -7 65 -13 q41 0 41 -20q0 -9 -10.5 -13.5t-32.5 -4.5q-196 0 -326.5 144t-130.5 366q0 141 54 273t154 237t227 162t264 57q218 0 349.5 -139t131.5 -369q0 -298 -216 -551t-646 -459q115 -51 222.5 -75.5t209.5 -24.5q265 0 495 115l35 16q8 0 11 -2l4 -6q0 -9 -8 -17q-6 -8 -29 -22 q-124 -85 -259.5 -129.5t-266.5 -44.5q-105 0 -215 40q-53 19 -115.5 51.5t-128.5 76.5z"/>
<glyph glyph-name="R" horiz-adv-x="1057" unicode="R" d="M422 596l-43 -2l-100 -442l-9 -41l-2 -37q0 -21 33 -31t96 -10q17 0 25 -3.5t8 -13.5q0 -5 -7 -11q-6 -3 -20 -3l-18 1q-37 0 -60 1q-92 4 -102 4l-158 -3l-79 -3q-14 0 -18.5 2.5t-6.5 13.5q0 17 43 17q40 0 66 8q61 18 94 156l4 16l194 841l5 28l2 28q0 35 -22.5 45 t-94.5 10l-11 -1l-5 -1q-8 0 -12.5 2.5t-6.5 10.5q0 7 9 12l28 4h20h82q277 0 402 -69t125 -220q0 -122 -88 -197t-263 -102l287 -481q41 -68 89 -96q24 -13 36 -21q5 -3 12 -8q0 -5 -9 -10l-21 -4q-99 0 -145.5 17.5t-73.5 68.5zM389 627h25q163 0 255.5 75.5t92.5 210.5 q0 107 -60 169.5t-163 62.5q-22 0 -31 -9q-5 -7 -16 -55z"/>
<glyph glyph-name="S" horiz-adv-x="877" unicode="S" d="M817 1124q-4 -21 -8.5 -58.5t-5.5 -50.5q0 -28 -7 -43.5t-18 -15.5q-15 0 -18.5 32t-12.5 53q-24 62 -80 99.5t-126 37.5q-91 0 -147 -57.5t-56 -149.5q0 -30 6 -59t20 -59q26 -57 87 -132l61 -71q160 -181 160 -306q0 -152 -119.5 -260.5t-290.5 -108.5q-104 0 -175 24 t-71 60q0 47 9.5 70t29.5 23q7 0 70 -63.5t158 -63.5q111 0 190.5 80t79.5 194q0 28 -6 54.5t-20 55.5q-23 55 -78 119l-52 60q-170 196 -170 321q0 133 100.5 220.5t254.5 87.5q40 0 74.5 -6t67.5 -20q63 -24 93 -67z"/>
<glyph glyph-name="T" horiz-adv-x="1204" unicode="T" d="M633 1063l3 16l5 29q0 18 -10.5 24.5t-52.5 6.5h-287q-77 0 -108 -49t-36 -50l-18 3q-6 3 -6 10l10 44l21 69q6 16 15 22t32 6l20 2h1014q21 0 29 -5q8 -3 8 -15q0 -7 -1 -13q-4 -17 -7 -29l-13 -70q0 -17 -6 -23.5t-18 -6.5t-15 26q0 19 -4 28q-9 29 -32 41 q-25 10 -111 10h-229q-40 0 -53 -14.5t-25 -65.5l-189 -826l-4 -20q-14 -65 -14 -96q0 -37 35.5 -55.5t109.5 -18.5q62 0 134 21l22 6q6 0 10 -5l4 -10q0 -21 -63 -39q-34 -8 -70.5 -12t-87.5 -4l-88 3l-80 3l-120 -3l-105 -3h-12q-41 0 -52.5 3.5t-11.5 14.5q0 17 54 17 q38 0 61 4q77 8 100 37t47 133z"/>
<glyph glyph-name="U" horiz-adv-x="1331" unicode="U" d="M207 516l121 527l8 43l4 34q0 30 -65 36q-64 0 -64 22q0 8 8 12l23 4l15 -1q31 0 79 -2.5t57 -2.5q15 0 54 1t64 1l85 2q16 0 22.5 -4.5t6.5 -16.5q0 -6 -7 -10t-22 -4h-14q-57 0 -82.5 -17t-42.5 -85l-107 -473l-30 -149q-9 -57 -9 -93q0 -148 83.5 -234t223.5 -86 q154 0 241 99t153 370l129 535l9 45l3 43q0 28 -18 38.5t-62 10.5h-18q-25 0 -33 3.5t-8 13.5q0 5 6 9.5t22 6.5l64 -2l70 -2l144 3l15 1q12 0 18.5 -3.5t6.5 -10.5q0 -10 -12.5 -15.5t-42.5 -5.5q-82 0 -118 -143l-3 -12l-142 -570q-60 -245 -164.5 -352t-283.5 -107 q-198 0 -304 94.5t-106 270.5q0 36 6 83q3 19 7 45t10 48z"/>
<glyph glyph-name="V" horiz-adv-x="1124" unicode="V" d="M295 0l22 1077v10q0 45 -16 59.5t-78 14.5h-24q-12 0 -16.5 2.5t-6.5 12.5q0 8 6 11t23 5h45h82q46 0 127.5 3.5t104.5 3.5l24 1q9 0 14 -5q6 -3 6 -11q0 -13 -44 -17q-37 0 -68.5 -11t-44.5 -41q-5 -14 -9 -39.5t-4 -60.5l-22 -841l561 844q24 35 35.5 61.5t13.5 42.5 q0 25 -21 35t-87 10q-11 0 -17 3l-4 10q0 5 7 11q6 3 22 5l31 -1l59 -1l177 3l26 1q12 0 18.5 -3.5t7.5 -10.5q0 -15 -37 -19q-11 0 -21 -2t-18 -4q-35 -11 -63.5 -37t-75.5 -98l-696 -1044l-2 -3q-11 -12 -21 -14q-8 0 -12 7.5t-4 29.5z"/>
<glyph glyph-name="W" horiz-adv-x="1550" unicode="W" d="M252 -6l27 1083v13q0 32 -10 45.5t-40 19.5l-36 3q-41 0 -41 18q0 6 7 10t21 6l64 -2l118 -2q22 0 72 3t78 3l29 2q12 0 19 -4.5t9 -13.5q0 -8 -6.5 -11.5t-23.5 -5.5q-80 0 -110 -24q-15 -13 -23.5 -37t-8.5 -62l-30 -837l514 874l1 16l1 11q0 33 -17.5 45t-72.5 12 q-15 0 -25 3.5t-10 11.5t8 12l25 4h11l109 -2q35 0 57 1q90 4 104 4l28 1l15 -3q6 -3 7 -7q0 -15 -28.5 -18t-48.5 -10.5t-32 -30.5q-8 -19 -14 -81l-47 -835l473 780q30 48 42 75t12 44q0 41 -56.5 48t-56.5 18q0 7 9 12q6 2 15 3t31 1l24 -1l44 -1q30 0 81.5 2.5t64.5 2.5 l18 1q12 0 18.5 -3.5t7.5 -10.5q0 -13 -28 -16q-16 0 -29 -5q-54 -14 -123 -130l-22 -38l-600 -987q-10 -18 -18 -24q-5 -6 -13 -7q-11 0 -14.5 4t-6.5 19v6l54 989l-588 -1003l-2 -3q-11 -17 -23 -18l-11 3q-3 3 -3 12v12z"/>
<glyph glyph-name="X" horiz-adv-x="1262" unicode="X" d="M512 1075l141 -313l238 313l20 35q8 17 9 27q0 12 -12.5 18t-43.5 6h-28q-13 0 -20 3t-7 12q0 5 5 8.5t9.5 4.5t14.5 1h36h101h45l138 3l16 1q14 0 21.5 -3.5t8.5 -10.5q0 -14 -42 -20q-22 0 -28.5 -1t-52.5 -9.5t-83.5 -33.5t-79.5 -82l-240 -313l287 -586 q27 -58 46.5 -72t55.5 -14q56 0 124 29l17 6q7 -3 9 -5l4 -9q0 -27 -72.5 -48.5t-181.5 -21.5h-111q-11 0 -38 -1t-44 -1l-51 -2q-13 0 -17 3t-6 11q0 14 62 23q63 6 63 53q0 11 -1.5 17.5t-6.5 23.5q-4 19 -7.5 28t-12.5 27l-199 432l-354 -446q-31 -38 -42.5 -61 t-11.5 -41q0 -15 17.5 -24t46.5 -9q39 0 80 10l43 10q6 0 10.5 -3t5.5 -9q0 -19 -60 -29t-183 -10l-187 -3l-18 -1q-16 0 -23.5 3t-9.5 9q0 18 46 22l30 3q46 6 89 37q22 16 47 41.5t56 62.5l398 479l-197 402q-27 57 -58.5 79.5t-84.5 22.5q-28 0 -60 -6l-12 -2 q-6 0 -10.5 3t-5.5 9q0 24 78 24q92 3 177.5 5t188.5 2q14 0 23 -3.5t10 -8.5q0 -8 -7.5 -12.5t-25.5 -6.5h-33q-36 0 -51.5 -6.5t-15.5 -23.5q0 -11 4 -24z"/>
<glyph glyph-name="Y" horiz-adv-x="1057" unicode="Y" d="M479 196l-7 -29q-3 -13 -8 -41t-5 -36q0 -30 29.5 -44.5t93.5 -14.5q28 0 40 1.5t37 6.5l15 2q6 -3 8 -5l4 -9q0 -14 -30 -25q-15 -4 -33.5 -6t-49.5 -2q-35 0 -100 6l-88 6l-92 -3l-107 -3h-24q-15 0 -21 3.5t-8 12.5q0 9 9 15t26 6q87 0 120.5 22.5t57.5 124.5l84 361 l3 13l7 42l-1 17l-3 20l-106 442q-18 75 -76 83t-59 18q0 9 5 14l19 4l58 -3l104 -3h22q16 0 48 1t48 1l48 2q9 0 16 -3.5t8 -8.5q0 -12 -59 -18.5t-59 -65.5v-15q0 -8 2 -12l98 -440q179 202 277 332.5t98 164.5q0 18 -15.5 26.5t-50.5 8.5h-20q-12 0 -17.5 2.5t-7.5 10.5 q0 8 7.5 12t25.5 6l21 -1l120 -3h37l25 1l41 1h12q12 0 18 -5q8 -3 9 -11q0 -11 -27 -17q-26 -3 -37 -8q-47 -15 -148 -141l-22 -27l-131 -156q-194 -224 -221 -337z"/>
<glyph glyph-name="Z" horiz-adv-x="1112" unicode="Z" d="M506 43q189 0 269 10t130 37q12 7 27.5 18.5t29.5 25.5q30 30 44 30q6 0 10 -4l4 -10l-3 -10l-7 -19l-58 -121h-958l876 1151h-563l-92 -111l-27 -26q-8 -6 -14 -6q-7 3 -9.5 6.5t-2.5 9.5q3 10 5 14l15 27l78 129h776l-868 -1151h338z"/>
<glyph glyph-name="bracketleft" horiz-adv-x="717" unicode="[" d="M33 -563l340 1890h350v-47h-311l-322 -1796h301v-47h-358z"/>
<glyph glyph-name="backslash" horiz-adv-x="598" unicode="\" d="M385 -190h-68l-143 1409h68z"/>
<glyph glyph-name="bracketright" horiz-adv-x="717" unicode="]" d="M606 1327l-340 -1890h-350v47h311l324 1796h-303v47h358z"/>
<glyph glyph-name="asciicircum" horiz-adv-x="2048" unicode="^" d="M946 1462h152l534 -565h-84l-526 465l-530 -465h-80z"/>
<glyph glyph-name="underscore" d="M0 -403h1024v-80h-1024v80z" unicode="_"/>
<glyph glyph-name="grave" d="M512 1165l227 -321h-30l-258 270q-14 14 -20.5 25.5t-6.5 21.5q0 18 10 28.5t29 10.5q12 0 24 -8.5t25 -26.5z" unicode="`"/>
<glyph glyph-name="a" horiz-adv-x="766" unicode="a" d="M647 737l-84 -331q-27 -112 -42 -190t-15 -101q0 -17 6 -27t18 -10q15 0 37 15.5t80 72.5l21 -19q-84 -91 -128.5 -131.5t-64.5 -40.5q-31 0 -52.5 25.5t-21.5 62.5q0 33 7 74.5t16.5 82.5t15.5 67q-79 -76 -180.5 -194t-134.5 -118q-47 0 -69.5 30.5t-22.5 117.5 q0 127 57 255t160.5 228.5t318.5 122.5zM522 639q-71 0 -123.5 -10t-83.5 -24q-51 -23 -82 -83q-36 -70 -63 -179t-27 -183q0 -27 8 -39t23 -12q19 0 70.5 38.5t113.5 100.5q49 46 76 90.5t45 118.5z"/>
<glyph glyph-name="b" horiz-adv-x="702" unicode="b" d="M510 453q0 63 -26.5 109t-61.5 46q-34 0 -90.5 -36.5t-93.5 -82.5q-18 -23 -46 -129.5t-28 -181.5q0 -39 33 -78t67 -39q82 0 164 123.5t82 268.5zM285 1225l1 6l1 8q0 11 -6.5 14.5t-36.5 6.5l-86 2v24l219 27h4q8 0 12 -4l4 -11l-1 -7l-1 -7l-172 -766 q139 131 193.5 175t70.5 44q45 0 88 -68.5t43 -154.5q0 -52 -11 -99.5t-36 -99.5q-46 -98 -139 -194q-55 -58 -119.5 -102t-87.5 -44q-51 0 -110.5 61.5t-59.5 139.5q0 49 36 201l9 38z"/>
<glyph glyph-name="c" horiz-adv-x="563" unicode="c" d="M521 603l-101 24q-21 4 -34.5 6t-29.5 2q-41 0 -63.5 -18.5t-48.5 -79.5q-37 -95 -65 -221q-11 -54 -18 -106t-7 -85q0 -37 13.5 -55.5t43.5 -18.5q18 0 33 4t41 16q43 21 116 70l15 -22q-44 -34 -83 -60t-77 -47q-71 -37 -111 -37q-41 0 -74.5 35t-33.5 80q0 73 35 200 t89.5 232t120.5 160t144 55q54 0 85.5 -19t31.5 -52q0 -17 -6 -32.5t-16 -30.5z"/>
<glyph glyph-name="d" horiz-adv-x="768" unicode="d" d="M641 1225l1 5l3 21q0 15 -10.5 22t-32.5 7h-8l-102 -4v29l243 26h8q8 0 13 -3q4 -6 4 -9l-1 -3l-1 -5l-226 -1071v-4q-18 -81 -18 -115q0 -22 8 -33q10 -10 27 -10q18 0 41 13q14 7 31 19t47 37l18 -16l-16 -16q-146 -140 -187 -140q-27 0 -48 34q-19 35 -19 87v31 q3 17 4 25q6 46 7 50q6 26 9 40q-57 -60 -108 -107t-102 -87q-97 -73 -134 -73q-24 0 -38.5 31t-14.5 88q0 149 44 270.5t132 217.5q75 81 134 118t112 37l27 -4l52 -4zM522 643h-26q-175 0 -257.5 -103.5t-82.5 -322.5q0 -73 10.5 -96t40.5 -23q25 0 86 52.5t156 154.5z "/>
<glyph glyph-name="e" horiz-adv-x="555" unicode="e" d="M186 381q95 46 157.5 111t62.5 104q0 19 -26.5 36t-57.5 17q-43 0 -77 -65q-30 -60 -59 -203zM180 346l-17 -118l-5 -87q0 -33 14 -51t39 -18q27 0 81.5 27.5t123.5 78.5l12 -20q-97 -87 -173 -135t-116 -48q-43 0 -69 36q-25 38 -25 102q0 87 33 210t84 222 q38 73 104.5 132.5t102.5 59.5q43 0 75 -29q33 -27 33 -69q0 -66 -80 -147t-217 -146z"/>
<glyph glyph-name="f" horiz-adv-x="471" unicode="f" d="M311 705l201 2l-12 -60l-197 4q-93 -710 -210.5 -925t-348.5 -215q-64 0 -91.5 12.5t-27.5 44.5q0 20 19 38q18 15 47 15q16 0 78.5 -18.5t103.5 -18.5q175 0 313 950l17 117h-133l10 51h129q27 219 143.5 357.5t259.5 138.5q40 0 61 -14t21 -39q0 -26 -24 -43 q-24 -15 -68 -15l-48 2l-50 3q-131 0 -188 -360z"/>
<glyph glyph-name="g" horiz-adv-x="649" unicode="g" d="M336 641q-84 0 -128 -70t-44 -202q0 -72 29.5 -115t78.5 -43q73 0 128 91q27 46 41 102t14 124q0 57 -29.5 85t-89.5 28zM16 -84l-9 28l-3 25q0 53 54 102t167 95q-79 18 -114 61.5t-35 120.5q0 81 35 160.5t88 122.5q25 21 52.5 38.5t64.5 35.5q67 32 92 32 q61 0 104 -59.5t43 -147.5q0 -109 -59.5 -204.5t-163.5 -147.5l-64 -31q-172 -80 -172 -151q0 -47 116 -74q70 -16 105 -28q92 -30 131 -69t39 -101q0 -52 -16.5 -82.5t-60.5 -57.5q-53 -31 -148 -54.5t-182 -23.5q-138 0 -217.5 51.5t-79.5 141.5q0 78 61 135.5t172 81.5z M33 -117q-80 -19 -118 -54.5t-38 -90.5q0 -78 72.5 -129t189.5 -51q116 0 180 37t64 104q0 72 -141.5 108.5t-208.5 75.5z"/>
<glyph glyph-name="h" horiz-adv-x="713" unicode="h" d="M377 1339h8q9 0 14 -4l4 -10l-1 -10l-1 -7l-184 -827q68 119 136 187.5t118 68.5q56 0 93.5 -63t37.5 -162q0 -191 -93.5 -364t-178.5 -173q-21 0 -39 18q-15 17 -17 34q0 73 101 101q31 8 40 13q48 26 85 107.5t37 171.5q0 91 -40 152t-96 61q-51 0 -123.5 -111 t-103.5 -252l-59 -270h-90l266 1242l1 8l1 14q0 12 -6.5 16.5t-32.5 7.5l-82 2l2 27z"/>
<glyph glyph-name="i" horiz-adv-x="473" unicode="i" d="M322 1085h63l-27 -151h-71zM336 180l16 -16q-92 -107 -138 -148t-75 -41q-18 0 -29.5 20.5t-11.5 55.5q0 41 21 146q11 52 25.5 114t33.5 135l2 8q33 125 33 158q0 6 -4 10l-6 5q-8 0 -43 -27q-16 -14 -32.5 -30t-39.5 -40l-18 19q79 91 140 139.5t91 48.5q11 0 18 -13.5 t7 -33.5q0 -19 -15 -92.5t-47 -207.5l-22 -95l-28 -126q-9 -45 -9 -58q0 -10 4 -17t10 -8q12 0 43 25q15 12 33 29t41 40z"/>
<glyph glyph-name="j" horiz-adv-x="506" unicode="j" d="M371 1092h67l-30 -156h-82zM360 625l-98 -465l-11 -56q-78 -371 -198 -526q-41 -53 -81 -85t-62 -32q-35 0 -63.5 31t-28.5 68q0 22 6.5 37t17.5 16q5 -4 9 -7q11 -9 26 -24q31 -31 60 -31q56 0 105 122t112 427l92 447l6 32l2 23q0 6 -3 10.5t-9 5.5q-17 0 -55 -34 t-91 -97l-20 19q73 100 152 163.5t118 63.5q10 0 16.5 -9.5t6.5 -29.5v-14q0 -8 -2 -23.5t-7 -31.5z"/>
<glyph glyph-name="k" horiz-adv-x="688" unicode="k" d="M402 1287l-169 -773q97 96 187.5 159.5t122.5 63.5q19 0 34 -29t15 -73q0 -130 -60 -181q-30 -24 -90 -38.5t-143 -14.5l182 -292q32 -52 61.5 -75t63.5 -26l-4 -20l-80 6l-86 2l-229 395l-84 -391h-94l262 1225l3 18l1 14q0 10 -10.5 15.5t-32.5 5.5l-80 -2l4 27 q73 6 139 19l74 13q9 0 12 -4l5 -14q0 -11 -2 -17zM211 434h6l59 -4q63 0 103.5 7.5t59.5 21.5q20 17 39.5 71.5t19.5 94.5q0 15 -6 25t-17 12q-26 0 -106 -66q-75 -62 -158 -162z"/>
<glyph glyph-name="l" horiz-adv-x="463" unicode="l" d="M293 1169l9 45l3 31q0 20 -12 27.5t-53 7.5h-68v24q77 7 154 21l77 14q9 0 12.5 -4.5t4.5 -17.5l-3 -24l-7 -37l-209 -981l-8 -36q-15 -63 -15 -92q0 -21 1 -29.5t7.5 -21.5t22.5 -14q18 0 106 64l39 28l17 -16q-97 -88 -157.5 -133t-80.5 -45t-41 30q-10 15 -15 31.5 t-5 38.5l6 62q6 45 18 99z"/>
<glyph glyph-name="m" horiz-adv-x="1237" unicode="m" d="M279 494q136 113 236.5 178t137.5 65q22 0 33 -17q12 -15 12 -46t-22 -142l-6 -32q145 115 242.5 176t136.5 61q21 0 35 -20t14 -51q0 -36 -63 -300l-3 -12l-7 -29q-40 -169 -40 -190q0 -14 5.5 -20t17.5 -6q14 0 36.5 20.5t55.5 60.5l20 -14q-60 -84 -113 -132t-85 -48 q-24 0 -38 15q-12 15 -12 48q0 46 56 271l6 24l37 164q12 60 12 78q0 23 -8.5 34t-26.5 11q-28 0 -91 -37.5t-130.5 -96t-92.5 -167.5l-1 -6l-70 -334h-96l117 549l3 25l1 26q0 20 -8 29.5t-25 11.5q-21 0 -79 -32.5t-111 -80.5q-93 -78 -121 -212l-68 -316h-96l119 556 l1 13l1 27l-3 16q-3 6 -10 6q-12 0 -54 -32t-91 -86l-20 18q44 51 81.5 89.5t74.5 71.5q67 58 93 58q16 0 27.5 -16t11.5 -43q0 -32 -23 -138z"/>
<glyph glyph-name="n" horiz-adv-x="864" unicode="n" d="M260 408q128 148 242.5 238.5t163.5 90.5q21 0 36 -21.5t15 -58.5q0 -39 -43 -226l-29 -126l-32 -148q-9 -44 -9 -55q0 -10 3.5 -14t13.5 -6q11 0 37 22q20 16 39 36q13 13 30 32l21 -16q-63 -79 -120 -125.5t-87 -46.5q-20 0 -33.5 17.5t-13.5 41.5q0 7 3 26.5t10 55.5 q13 75 40 186l40 185q4 22 7.5 42t3.5 31q0 19 -12.5 31t-32.5 12q-42 0 -119 -65q-73 -61 -182 -193l-78 -354h-100l135 598l1 11l1 12l-3 11q-2 3 -9 5q-15 0 -46 -23t-77 -67l-17 20q73 77 135.5 123.5t86.5 46.5q14 0 26 -15.5t12 -37.5q0 -32 -39 -194z"/>
<glyph glyph-name="o" horiz-adv-x="692" unicode="o" d="M371 737q95 0 157 -82t62 -213q0 -87 -42 -182.5t-126 -198.5q-32 -39 -70 -64.5t-65 -25.5q-107 0 -173.5 85.5t-66.5 226.5q0 79 19.5 137.5t76.5 136.5l11 14q124 166 217 166zM506 369q0 122 -53.5 198t-141.5 76q-68 0 -117 -92.5t-49 -220.5q0 -122 45 -196.5 t121 -74.5q19 0 28 1t28 6.5t30 19.5q44 48 76.5 130.5t32.5 152.5z"/>
<glyph glyph-name="p" horiz-adv-x="750" unicode="p" d="M295 596q29 17 65 40t70 49q71 50 84 52q47 0 91 -64.5t44 -158.5q0 -204 -117.5 -368t-261.5 -164q-19 0 -43 6.5t-51 21.5l-74 -372l-6 -40l-2 -28q0 -36 29 -51q17 -8 49.5 -14.5t75.5 -6.5l-2 -30l-124 9l-77 5q-50 0 -141 -10l-39 -4l6 30q103 9 127 127l2 9 l201 936l6 29l2 22q0 7 -4.5 12.5t-9.5 7.5q-16 0 -57 -35q-22 -18 -41.5 -37.5t-45.5 -50.5l-20 19q79 105 160 175t108 70q8 0 15.5 -9t9.5 -23q0 -13 -7 -45zM199 109q27 -42 52 -61q26 -17 58 -17q96 0 168 145.5t72 341.5q0 53 -24 89q-25 34 -58 34q-24 0 -146 -64 l-30 -16z"/>
<glyph glyph-name="q" horiz-adv-x="739" unicode="q" d="M528 647l-58 -12q-176 -35 -216 -98q-48 -74 -81.5 -189.5t-33.5 -210.5q0 -25 9.5 -39t27.5 -14q28 0 100.5 51t165.5 139l27 123l10 47q27 131 49 203zM623 647l-215 -1005l-7 -34l-2 -38q0 -37 23 -56q12 -9 31.5 -14.5t43.5 -5.5l-3 -28h-28q-15 3 -23 4l-119 8 q-11 0 -39 -1t-45 -1l-109 -8l4 32q71 0 115 38t59 110l6 30l113 543q-129 -123 -209.5 -180t-122.5 -57q-35 0 -58 27q-20 28 -20 81q0 125 63 266.5t163 233.5q75 71 163 108t177 37q26 0 37 -8q12 -6 12 -24l-6 -33z"/>
<glyph glyph-name="r" horiz-adv-x="606" unicode="r" d="M559 575q-4 2 -21.5 10t-23.5 10q-21 7 -35 7q-60 0 -144.5 -173.5t-133.5 -428.5h-95l101 488l6 32l2 27q0 11 -5 18.5t-13 9.5q-18 0 -55 -34t-97 -107l-27 21q108 135 175.5 208.5t85.5 73.5q12 0 24 -24.5t12 -61.5q0 -69 -45 -252l-9 -41l9 -4q74 170 147 276.5 t109 106.5q25 0 57.5 -23.5t32.5 -47.5q0 -19 -33 -61z"/>
<glyph glyph-name="s" horiz-adv-x="537" unicode="s" d="M-10 47q9 32 25.5 59.5t43.5 57.5q6 -53 43 -88t88 -35q50 0 88.5 39.5t38.5 89.5q0 54 -75 129l-19 18q-57 59 -84.5 103.5t-27.5 83.5q0 81 95 157q48 38 97 57t103 19q43 0 64.5 -13.5t21.5 -41.5q0 -33 -12.5 -51.5t-35.5 -18.5q-11 0 -61 13.5t-86 13.5 q-46 0 -77.5 -27.5t-31.5 -64.5q0 -17 18 -46q10 -14 31 -38q14 -17 29 -33l22 -22q111 -111 111 -213q0 -84 -84 -153q-43 -34 -89 -50.5t-99 -16.5q-46 0 -82.5 19t-54.5 53z"/>
<glyph glyph-name="t" horiz-adv-x="494" unicode="t" d="M348 887l-45 -199h141l-6 -49h-145l-101 -474l-3 -18l-5 -30q0 -12 4.5 -19t14.5 -8q13 0 41 22q16 13 32 28t43 46l25 -20q-38 -44 -75 -82q-33 -34 -63 -61q-56 -48 -83 -48q-21 0 -36 19q-13 20 -13 49q0 7 1 20t4 31l15 82l101 463h-93l13 49h20q70 0 94 105l19 84z "/>
<glyph glyph-name="u" horiz-adv-x="881" unicode="u" d="M647 698l94 25l-114 -559l-7 -34l-2 -28q0 -7 4 -11.5t13 -6.5q13 0 51.5 29.5t77.5 72.5l18 -18q-69 -82 -130.5 -137.5t-84.5 -55.5q-17 0 -36 20.5t-19 43.5l4 32l16 83l82 372q-131 -236 -269 -393.5t-202 -157.5q-15 0 -24.5 18.5t-9.5 51.5q0 40 39 225l18 84l6 28 q39 185 39 202q0 10 -3 14t-13 6q-11 0 -26.5 -9.5t-37.5 -28.5q-40 -34 -98 -103l-23 12q96 123 168.5 192.5t106.5 69.5q16 0 27.5 -17.5t11.5 -43.5q0 -74 -50.5 -266t-50.5 -267q0 -13 5.5 -20.5t19.5 -9.5q47 0 183 180.5t216 404.5z"/>
<glyph glyph-name="v" horiz-adv-x="750" unicode="v" d="M332 80q110 91 174.5 197t64.5 196q0 82 -61 159q-14 20 -16 27q0 18 31.5 48t54.5 30q28 0 48.5 -52t20.5 -130q0 -138 -93 -281t-277 -290h-25l-10 75q-72 570 -111 570q-15 0 -46 -28q-25 -24 -62 -75l-25 19q62 85 117 138.5t80 53.5q50 0 101 -399q21 -176 34 -258z "/>
<glyph glyph-name="w" horiz-adv-x="1145" unicode="w" d="M963 737q42 -29 67 -74.5t25 -99.5q0 -87 -68 -205.5t-278 -375.5h-23l-92 426q-66 -112 -138 -213.5t-161 -212.5h-23l-33 168q-89 458 -124 458q-14 0 -41 -34q-25 -35 -51 -89l-25 15q53 111 98.5 174t75.5 63q42 0 123 -432l37 -196q29 33 57.5 70t56.5 78.5t60.5 93 t71.5 118.5l-37 186l75 82l134 -633q139 167 184 252t45 162q0 39 -12.5 61.5t-34.5 22.5q-9 0 -18 6t-19 19q6 14 13.5 28t15.5 27q15 25 39 55z"/>
<glyph glyph-name="x" horiz-adv-x="860" unicode="x" d="M229 737q73 -76 191 -280l20 -35q137 182 195 237.5t100 55.5q38 0 69.5 -35t31.5 -72q0 -12 -13.5 -26.5t-21.5 -16.5l-23 30q-21 30 -61 30q-75 0 -246 -222l-12 -16q102 -191 146.5 -252t74.5 -61q14 0 42 15.5t62 45.5l17 -22q-23 -24 -105 -82l-68 -47 q-83 42 -224 310q-130 -185 -200 -246.5t-138 -61.5q-52 0 -87.5 29.5t-35.5 72.5q0 21 6 36.5t20 27.5q29 -43 60 -65q32 -19 63 -19q59 0 131.5 62.5t165.5 197.5q-96 174 -136 223t-73 49q-28 0 -101 -73l-9 -9l-21 21q14 18 75 84z"/>
<glyph glyph-name="y" horiz-adv-x="739" unicode="y" d="M371 12q97 155 147.5 285.5t50.5 224.5q0 42 -9.5 65t-29.5 23q-12 0 -21 -3.5t-20 -14.5l-20 20q41 61 72 93t49 32q20 0 33.5 -36.5t13.5 -94.5q0 -145 -79 -327q-40 -95 -97 -193.5t-139 -214.5q-128 -182 -251.5 -280.5t-224.5 -98.5q-43 0 -74.5 17t-31.5 34 q0 12 14 29t49 43q61 -43 101 -43q57 0 117 37t137 121q71 78 105 145.5t34 136.5q0 87 -27 222q-13 66 -30.5 131.5t-39.5 126.5t-41.5 88.5t-39.5 27.5q-15 0 -44 -36q-12 -17 -28.5 -44t-34.5 -63l-26 10q45 107 100.5 184.5t81.5 77.5q60 0 124 -215q37 -122 56 -234 q23 -135 23 -276z"/>
<glyph glyph-name="z" horiz-adv-x="672" unicode="z" d="M676 731l20 -20l-620 -633h33q84 0 187.5 -52t182.5 -137q41 -41 110 -125q125 -151 187 -151q28 0 60 18t79 64l13 -49q-60 -35 -105.5 -51.5t-79.5 -16.5q-98 0 -271 176l-62 64q-100 100 -182 143t-169 43h-22q-18 -3 -28 -4l-40 -4l-12 3l-4 9q0 7 5 12l22 25 l568 575l-26 -5l-37 -1l-17 2l-13 2l-60 12q-54 13 -90 13q-30 0 -61.5 -29t-81.5 -112l-23 10q59 118 110 171.5t105 53.5q33 0 111 -21q40 -10 69 -15t52 -5q8 0 18.5 0.5t29.5 8.5t42 26z"/>
<glyph glyph-name="braceleft" d="M844 1516v-47q-151 0 -206.5 -54t-55.5 -211v-147q0 -225 -64 -308t-239 -114q174 -30 238.5 -112.5t64.5 -309.5v-147q0 -156 54 -210q28 -27 78.5 -41t129.5 -14v-45h-10q-213 0 -293 72.5t-80 273.5v222q0 152 -60 212q-33 33 -85 51q-60 21 -140 21v56 q167 15 226 72.5t59 211.5v221q0 200 80 273.5t293 73.5h10z" unicode="{"/>
<glyph glyph-name="bar" d="M467 1565h90v-2048h-90v2048z" unicode="|"/>
<glyph glyph-name="braceright" d="M178 1516h10q214 0 294.5 -74t80.5 -273v-221q0 -154 57.5 -211.5t227.5 -72.5v-56q-78 0 -135.5 -20t-90.5 -52q-59 -57 -59 -212v-222q0 -197 -80.5 -271.5t-294.5 -74.5h-10v45q151 0 207.5 54t56.5 211v147q0 225 63.5 307t239.5 115q-173 30 -238 114t-65 308v147 q0 155 -55.5 210t-208.5 55v47z" unicode="}"/>
<glyph glyph-name="asciitilde" horiz-adv-x="1706" unicode="~" d="M1530 739v-92q-106 -74 -202 -110.5t-185 -36.5q-99 0 -266 61l-22 8l-33 12q-167 60 -257 60q-84 0 -175.5 -37t-211.5 -123v92q102 71 199.5 108.5t187.5 37.5q100 0 271 -61l19 -7l27 -10q80 -29 148 -45t113 -16q83 0 175.5 37.5t211.5 121.5z"/>
<glyph glyph-name="nonbreakingspace" horiz-adv-x="938" unicode=" "/>
<glyph glyph-name="exclamdown" horiz-adv-x="563" unicode="¡" d="M362 807l-139 -769q-4 -28 -28 -41t-70 -13q-18 0 -23.5 3.5t-7.5 18.5l6 30l5 18l219 753h38zM416 1219q23 0 38 -17.5t15 -46.5q0 -49 -23 -82t-57 -33q-23 0 -38 18q-3 5 -8 18.5t-5 33.5q0 44 23.5 76.5t54.5 32.5z"/>
<glyph glyph-name="cent" horiz-adv-x="938" unicode="¢" d="M641 145l-108 -71q-48 -28 -80 -43l-45 -187h-37l40 168l-4 -1q-63 -17 -81 -17q-55 0 -90 36t-35 91q0 77 45 209.5t106 224.5q48 74 105.5 116.5t126.5 57.5l37 154h36l-36 -150l30 1l17 1q51 0 79.5 -16t28.5 -45q0 -15 -5 -27.5t-19 -28.5q-21 5 -44 8.5t-36 5.5 l-74 9l-133 -559q23 6 58 24l102 60zM563 643h-18q-39 0 -66 -12.5t-47 -38.5q-40 -58 -80.5 -202t-40.5 -238q0 -46 16.5 -66t51.5 -20h17l30 4z"/>
<glyph glyph-name="sterling" horiz-adv-x="938" unicode="£" d="M332 569h-205l12 39h201q29 272 134.5 413.5t279.5 141.5q50 0 91.5 -31t47.5 -32l18 2l13 2l10 -3q4 -5 4 -7q-1 -7 -2 -9l-8 -10l-29 -21l-55 -44q-56 59 -93 82q-17 10 -34.5 16t-36.5 6q-95 0 -144.5 -91t-99.5 -415l344 4l-6 -43h-346q-21 -168 -75.5 -274.5 t-172.5 -214.5l19 2q31 3 70 6.5t67 3.5q62 0 165 -12t144 -12q50 0 109 59t67 59q5 0 8 -4l2 -12q0 -12 -36 -48l-44 -47l-24 -28q-47 -57 -90 -57q-22 0 -139 13t-203 13q-108 0 -193 -28l-16 -4l-10 3l-2 11q0 14 39 52q19 18 36 35.5t27 29.5q63 75 96 165t60 289z"/>
<glyph glyph-name="currency" horiz-adv-x="1241" unicode="¤" d="M152 1411l206 -207q59 47 125 70.5t138 23.5t138.5 -23.5t125.5 -70.5l205 207l59 -59l-207 -205q44 -56 68 -123.5t24 -138.5q0 -38 -5 -70.5t-18 -68.5q-22 -64 -69 -123l207 -205l-59 -60l-205 207q-58 -46 -125 -69t-139 -23q-76 0 -139.5 22.5t-123.5 69.5 l-206 -207l-58 60l207 205q-45 57 -68.5 123.5t-23.5 138.5t23 136.5t69 125.5l-207 205zM623 1217q-138 0 -235 -97t-97 -233q0 -138 97 -235t235 -97q137 0 234 97t97 235q0 136 -97 233t-234 97z"/>
<glyph glyph-name="yen" horiz-adv-x="938" unicode="¥" d="M461 168l-9 -46l-3 -34q0 -34 21 -48q23 -13 91 -13h14h28q14 3 20 4l28 4l7 -3l4 -5q0 -15 -27 -22t-80 -7q-11 0 -46.5 2t-47.5 2l-78 4l-86 -2l-90 -2h-25l-20 3q-6 3 -6 9q0 7 8 11t26 6q94 0 125 23t47 102l52 231h-285l8 39h287l8 35l4 24l2 31l-1 15l-1 8l-4 10 h-266l10 39h244l-86 323q-16 62 -73.5 70.5t-57.5 15.5q0 5 6 10l18 5l65 -3l105 -3l66 2l53 2l18 -3q6 -3 7 -8q0 -7 -7 -10.5t-38 -3.5q-39 0 -55.5 -13t-16.5 -42v-14l2 -8l96 -371q170 167 266.5 277.5t96.5 139.5q0 16 -15.5 23.5t-48.5 7.5l-11 -1l-11 -1 q-10 0 -14.5 2.5t-6.5 9.5q0 7 8 11l23 4l22 -1l136 -1l42 1l38 1q19 0 27.5 -3.5t8.5 -11.5q0 -6 -39.5 -15.5t-76.5 -37.5q-18 -14 -148 -150l-196 -204h215l-9 -39h-237q-26 -26 -46 -58q-16 -28 -28 -65h285l-10 -39h-285z"/>
<glyph glyph-name="brokenbar" d="M467 1432h90v-758h-90v758zM467 408h90v-758h-90v758z" unicode="¦"/>
<glyph glyph-name="section" horiz-adv-x="911" unicode="§" d="M467 -121q15 -45 25 -88q4 -20 6 -37t2 -37q0 -136 -99.5 -237t-230.5 -101q-75 0 -127.5 34t-52.5 79q0 23 15 39t40 16t90.5 -45t118.5 -45q72 0 113 49.5t41 139.5q0 31 -5 62.5t-17 73.5q-22 78 -67 183q-19 49 -52 120q-113 256 -113 364q0 99 49.5 169.5 t152.5 116.5q-7 21 -12 37t-11 42q-3 19 -5 37t-2 36q0 137 96 235.5t233 98.5q65 0 112.5 -35t47.5 -78q0 -21 -15.5 -36t-35.5 -15q-27 0 -90.5 46t-108.5 46q-66 0 -107.5 -54.5t-41.5 -140.5q0 -30 5 -61.5t17 -74.5q22 -75 84 -220l27 -60q117 -261 117 -368 q0 -49 -12 -90.5t-38 -78.5q-49 -71 -149 -122zM459 -86q56 26 84 76t28 121q0 116 -137 433l-67 161q-63 -31 -92 -81t-29 -124q0 -56 34 -159t106 -262z"/>
<glyph glyph-name="dieresis" d="M489 1057q30 0 53 -21.5t23 -52.5q0 -33 -22 -55.5t-54 -22.5q-30 0 -51.5 23t-21.5 55q0 29 21.5 51.5t51.5 22.5zM784 1057q30 0 53 -21.5t23 -52.5q0 -33 -22 -55.5t-54 -22.5q-30 0 -51.5 23t-21.5 55q0 29 21.5 51.5t51.5 22.5z" unicode="¨"/>
<glyph glyph-name="copyright" horiz-adv-x="1683" unicode="©" d="M844 1370q136 0 261 -52t224 -149q94 -93 148.5 -223.5t54.5 -267.5t-53 -262t-150.5 -224t-223 -151.5t-263.5 -52.5q-137 0 -262 51t-225 150.5t-151.5 223.5t-51.5 265q0 137 51 262.5t147.5 223.5t225.5 152t268 54zM844 1298q-124 0 -235.5 -46.5t-198.5 -135.5 t-134 -202t-47 -236q0 -126 46 -237.5t134 -200t199.5 -135t233.5 -46.5q126 0 236 46t197 136t134 203t47 234q0 123 -48 239.5t-131 200.5t-198 132t-235 48zM1118 1093l31 1v-308h-37q-32 136 -104.5 205.5t-180.5 69.5q-125 0 -191.5 -95.5t-66.5 -281.5 q0 -189 69.5 -286t207.5 -97q89 0 160.5 42t126.5 130l30 -20q-53 -101 -140 -154t-196 -53q-164 0 -280 122q-57 61 -86 134.5t-29 161.5q0 184 113.5 310t277.5 126q71 0 144 -33t86 -35q27 0 44 15.5t21 45.5z"/>
<glyph glyph-name="ordfeminine" horiz-adv-x="575" unicode="ª" d="M485 1206l-63 -231l-32 -133q-3 -18 -7 -40.5t-4 -31.5q0 -13 4 -18.5t14 -6.5q9 0 28 12t60 50l17 -14q-67 -67 -100 -94q-29 -23 -46 -25q-24 0 -39.5 17.5t-15.5 43.5q0 36 27 149l2 7q-57 -51 -134.5 -134t-101.5 -83q-35 0 -53 21q-16 22 -16 81q0 91 42 179 t120 158t240 87zM391 1136q-53 0 -92.5 -6.5t-62.5 -16.5q-38 -15 -60 -56q-25 -46 -47 -127q-10 -38 -15 -68.5t-5 -58.5q0 -20 5 -28t17 -9q12 0 50.5 27t86.5 71q37 33 57.5 63t34.5 83z"/>
<glyph glyph-name="guillemotleft" horiz-adv-x="750" unicode="«" d="M57 383q122 94 239.5 197.5t125.5 103.5q6 0 9 -3t3 -9q0 -19 -70 -99t-184 -190q59 -112 97 -195q34 -76 34 -92l-3 -10q-5 -4 -7 -4q-12 0 -86.5 105.5t-157.5 195.5zM356 383q122 94 238.5 196.5t126.5 104.5l7 -3q3 -3 3 -9q0 -18 -70 -100q-35 -41 -80 -88 t-102 -101q59 -112 97 -195q34 -76 34 -92l-3 -10q-5 -4 -7 -4q-12 0 -86.5 105.5t-157.5 195.5z"/>
<glyph glyph-name="logicalnot" horiz-adv-x="1706" unicode="¬" d="M254 856h1198v-502h-78v420h-1120v82z"/>
<glyph glyph-name="minus" horiz-adv-x="639" unicode="­" d="M469 356h-264q-69 0 -103.5 -37.5t-46.5 -39.5q-7 2 -9 4l-3 12q0 5 12 25l2 4l84 116h232q106 0 143 47q10 13 19 13q6 0 9 -3.5t3 -13.5l-2 -11l-7 -14z"/>
<glyph glyph-name="registered" horiz-adv-x="1683" unicode="®" d="M844 1370q136 0 261 -52t224 -149q94 -93 148.5 -223.5t54.5 -267.5t-53 -262t-150.5 -224t-223 -151.5t-263.5 -52.5q-137 0 -262 51t-225 150.5t-151.5 223.5t-51.5 265q0 137 51 262.5t147.5 223.5t225.5 152t268 54zM844 1298q-124 0 -235.5 -46.5t-198.5 -135.5 t-134 -202t-47 -236q0 -126 46 -237.5t134 -200t199.5 -135t233.5 -46.5q126 0 236 46t197 136t134 203t47 234q0 123 -48 239.5t-131 200.5t-198 132t-235 48zM469 1087h391q149 0 232.5 -52.5t83.5 -143.5q0 -75 -69 -122t-222 -77q91 -30 139 -78.5t72 -136.5l12 -59 q15 -88 55 -88t60 30q20 33 20 98l37 1v-8q0 -88 -37 -132.5t-113 -44.5q-44 0 -78 18t-44.5 46t-15 54.5t-4.5 64.5q0 74 -9 100q-23 66 -76.5 96.5t-146.5 30.5l-19 -1l-20 -1v-248q0 -56 29 -78q16 -12 42.5 -18.5t65.5 -6.5v-38h-385v38q37 0 65 6.5t43 18.5 q29 21 29 78v512q0 56 -30 80q-15 11 -41.5 18t-65.5 7v36zM717 717q16 0 26 -2h41q127 0 195 45t68 131q0 75 -58 120.5t-160 45.5q-54 0 -83 -20t-29 -56v-264z"/>
<glyph glyph-name="macron" d="M430 1012h416l-15 -74h-415z" unicode="¯"/>
<glyph glyph-name="degree" horiz-adv-x="674" unicode="°" d="M338 1450q111 0 191.5 -80.5t80.5 -193.5q0 -114 -80 -194q-40 -39 -88 -59t-106 -20q-114 0 -193.5 79t-79.5 194q0 114 81 194t194 80zM338 1389q-89 0 -151 -62t-62 -151t63 -151t150 -62q88 0 150.5 62t62.5 151q0 87 -62.5 150t-150.5 63z"/>
<glyph glyph-name="plusminus" horiz-adv-x="1706" unicode="±" d="M813 1161h80v-354h559v-80h-559v-352h-80v352h-559v80h559v354zM254 141h1198v-82h-1198v82z"/>
<glyph glyph-name="twosuperior" horiz-adv-x="618" unicode="²" d="M428 365q55 0 78 27l24 28q7 -2 9 -4l4 -6l-20 -33q-19 -29 -34 -64l-434 1l-2 4v6q0 14 47 45l66 47q103 78 155 143q26 33 39 62t13 57q0 37 -24.5 61.5t-61.5 24.5q-43 0 -79 -21l-36 -20l-4 1l-2 3q0 26 42 49q42 21 107 21q58 0 94.5 -27.5t36.5 -73.5 q0 -67 -74 -145q-36 -39 -96 -86t-143 -100h295z"/>
<glyph glyph-name="threesuperior" horiz-adv-x="618" unicode="³" d="M279 479q76 -30 111.5 -78.5t35.5 -119.5q0 -53 -27 -101.5t-80 -87.5q-47 -35 -114.5 -57.5t-122.5 -22.5q-57 0 -106.5 22.5t-49.5 39.5q2 6 4.5 10t13.5 22q17 27 23 27q10 0 18 -14l7 -11q19 -25 56 -42t77 -17q96 0 168 63t72 152q0 61 -35 105t-100 65l-26 6 q-26 4 -28 15q0 8 31 20q28 9 47 19q62 30 90.5 69.5t28.5 91.5q0 49 -30.5 78t-82.5 29q-30 0 -56 -17l-28 -16l-5 1l-1 5q0 18 29.5 40t72.5 22q76 0 123 -34t47 -89q0 -49 -42 -100t-121 -95z"/>
<glyph glyph-name="acute" d="M825 1110l-301 -266h-35l277 325q11 16 24.5 23.5t30.5 9.5q15 0 28 -12t13 -29q0 -18 -30 -45z" unicode="´"/>
<glyph glyph-name="mu" horiz-adv-x="1051" unicode="µ" d="M162 190q-18 -113 -41 -330q-27 -276 -101 -276q-28 0 -48.5 18t-20.5 44q0 42 59.5 288.5t98.5 430.5l108 520h119l-111 -518l-6 -42l-2 -46q0 -95 46.5 -153t121.5 -58q98 0 169 84t110 251l110 482h119l-117 -527l-20 -105q-6 -45 -6 -73q0 -45 20 -69.5t55 -24.5 q41 0 76.5 27t54.5 75l30 79q24 71 44 71q11 0 18 -7.5t9 -23.5q0 -31 -16 -83.5t-37 -92.5q-39 -72 -93 -108.5t-118 -36.5q-68 0 -106 45.5t-38 128.5l1 16l1 17q-42 -108 -109.5 -160.5t-160.5 -52.5t-148.5 53.5t-70.5 156.5z"/>
<glyph glyph-name="paragraph" d="M932 1479v-64h-129v-1415h-70v1415h-192v-1415h-70v782q-85 0 -154 26.5t-124 75.5q-103 95 -103 246q0 155 108 252t287 97h447z" unicode="¶"/>
<glyph glyph-name="cedilla" d="M389 0h51l-39 -127l22 2l44 2q75 0 117.5 -39t42.5 -104q0 -75 -55 -120.5t-142 -45.5q-56 0 -120 16q-31 7 -65.5 18.5t-72.5 28.5l23 56q61 -32 117.5 -48t101.5 -16q63 0 98 27.5t35 79.5q0 45 -34 71.5t-93 26.5h-19t-23 -2l-46 -6z" unicode="¸"/>
<glyph glyph-name="onesuperior" horiz-adv-x="621" unicode="¹" d="M233 301l-11 3q-3 3 -3 9l18 66l33 123l38 149q14 61 14 72q0 8 -4 12l-9 4q-6 0 -15 -3t-25 -11q-10 -5 -20 -9t-16 -5l-7 2q-3 3 -3 8q0 6 40 24l46 21q15 6 18.5 8t20.5 12q31 15 41 17q7 0 12 -6l5 -13l-20 -74l-34 -128l-6 -28q-41 -169 -41 -194q0 -15 7 -20.5 t26 -5.5l22 1l13 1l10 -3l4 -5q0 -12 -37 -12l-19 -1q-28 0 -63 -8z"/>
<glyph glyph-name="ordmasculine" horiz-adv-x="520" unicode="º" d="M279 1206q72 0 117.5 -57.5t45.5 -149.5q0 -64 -30.5 -128.5t-94.5 -137.5q-24 -27 -53 -45t-49 -18q-79 0 -129.5 60.5t-50.5 158.5q0 52 15 94.5t59 96.5l8 10q90 116 162 116zM379 948q0 87 -39.5 140t-106.5 53q-51 0 -87.5 -65t-36.5 -154q0 -87 34 -139t90 -52 q25 0 40 4t26 15q32 32 56 90t24 108z"/>
<glyph glyph-name="guillemotright" horiz-adv-x="750" unicode="»" d="M668 387q-116 -90 -239 -196q-116 -101 -126 -103l-8 3l-2 9q0 18 70 100q35 41 80 88t102 101q-27 50 -53 103q-15 30 -42 86q-36 78 -36 94l3 12l7 4q12 0 87 -106.5t157 -194.5zM369 387q-118 -90 -239 -196q-117 -103 -124 -103q-6 0 -9 3t-3 9q0 19 70 99.5 t184 189.5q-54 103 -97 192q-36 77 -36 91l3 12l7 4q12 0 87 -106.5t157 -194.5z"/>
<glyph glyph-name="onequarter" horiz-adv-x="1552" unicode="¼" d="M223 332q-8 0 -11 2.5t-3 9.5q3 10 4 17q5 19 13 47l32 112l38 155l9 52l-3 10l-9 4q-10 0 -37 -13l-33 -13l-7 2l-3 6q0 6 38 24l44 21q10 4 15.5 6.5t20.5 10.5q34 16 40 16t9 -3.5t5 -13.5l-18 -73l-31 -117q-28 -105 -36.5 -146.5t-8.5 -60.5q0 -13 5 -18q4 -2 9 -3 t17 -1l22 1l12 1q6 0 9 -3l4 -6q0 -11 -35 -11l-19 -1q-28 0 -60 -8zM578 -25h-68l809 1248h67zM1200 -279l76 279h-332l481 455l35 6l-114 -426l184 4l-10 -39h-185l-75 -279h-60zM1286 35l92 336l-356 -336h264z"/>
<glyph glyph-name="onehalf" horiz-adv-x="1552" unicode="½" d="M223 332q-8 0 -11 2.5t-3 9.5q3 10 4 17q5 19 13 47l32 112l38 155l9 52l-3 10l-9 4q-10 0 -37 -13l-33 -13l-7 2l-3 6q0 6 38 24l44 21q10 4 15.5 6.5t20.5 10.5q34 16 40 16t9 -3.5t5 -13.5l-18 -73l-31 -117q-28 -105 -36.5 -146.5t-8.5 -60.5q0 -13 5 -18q4 -2 9 -3 t17 -1l22 1l12 1q6 0 9 -3l4 -6q0 -11 -35 -11l-19 -1q-28 0 -60 -8zM578 -25h-68l809 1248h67zM1370 49q52 0 74 25q20 25 26 26l7 -3l4 -7l-20 -30q-17 -25 -31 -60h-414l-2 4v6q0 13 50 47l56 37q99 72 149 134t50 112q0 34 -24 58t-58 24q-50 0 -92 -32q-12 -9 -17 -9 l-5 1l-3 5q0 26 41.5 45t102.5 19q55 0 91 -26.5t36 -68.5q0 -60 -71.5 -133t-229.5 -174h280z"/>
<glyph glyph-name="threequarters" horiz-adv-x="1552" unicode="¾" d="M266 500q72 -29 106 -74.5t34 -112.5q0 -47 -26.5 -93t-73 -81t-111 -55.5t-117.5 -20.5q-55 0 -102 21t-48 37l18 29q16 25 23 26q10 0 18 -14l5 -9q18 -24 54.5 -39.5t74.5 -15.5q90 0 157.5 60t67.5 141q0 58 -33 98.5t-96 59.5l-24 5q-24 4 -25 13q0 11 31 21l43 16 q57 27 84.5 63.5t27.5 88.5q0 47 -28 72.5t-78 25.5q-31 0 -54 -16l-26 -15l-4 2l-2 6q0 14 27.5 35t70.5 21q73 0 117.5 -32t44.5 -83q0 -47 -40.5 -94t-115.5 -86zM578 -25h-68l809 1248h67zM1200 -279l76 279h-332l481 455l35 6l-114 -426l184 4l-10 -39h-185l-75 -279 h-60zM1286 35l92 336l-356 -336h264z"/>
<glyph glyph-name="questiondown" horiz-adv-x="848" unicode="¿" d="M632 803q0 -55 -11.5 -99.5t-35.5 -82.5q-41 -68 -126 -107q-31 -13 -110 -35t-109 -49q-34 -28 -55 -74q-9 -23 -14 -45.5t-5 -48.5q0 -80 51 -132t131 -52q42 0 71 13.5t52 43.5l22 -11l-6 -20q-36 -120 -153 -120q-100 0 -162.5 59.5t-62.5 149.5q0 68 24 146.5 t60 131.5q20 29 49 48q15 9 35.5 18t52.5 20l36 11q215 66 236 235h30zM651 1149q23 0 39.5 -18.5t16.5 -47.5q0 -45 -23.5 -78.5t-56.5 -33.5q-23 0 -37.5 18.5t-14.5 50.5q0 45 22.5 77t53.5 32z"/>
<glyph glyph-name="Agrave" horiz-adv-x="1124" unicode="À" d="M367 512h292l35 494q-31 -45 -86 -125q-46 -67 -84 -125q-78 -117 -157 -244zM338 463q-94 -156 -149.5 -263t-55.5 -132q0 -31 55 -37q56 0 56 -19q0 -8 -6 -11t-10.5 -4t-14.5 -1h-55l-56 3l-67 3l-135 -3l-13 -1q-9 0 -15.5 4.5t-6.5 11.5q0 9 10 15t31 6 q52 0 81.5 9.5t53.5 41.5q20 27 113 179.5t157 252.5q210 332 340.5 515.5t155.5 183.5q5 0 9.5 -5t6.5 -16l-6 -68l-10 -140l-36 -544l-13 -286q0 -73 15.5 -97t57.5 -24q22 0 32 1t33 7l36 8q6 0 10 -3.5t6 -10.5q0 -18 -48.5 -30.5t-129.5 -12.5l-62 2l-63 2 q-78 0 -141 -7l-12 -1q-9 0 -13 3t-6 11q0 16 39 21q34 3 55 10q35 9 49 33q11 23 19 102l22 291h-319zM684 1650l227 -321h-30l-258 270q-14 14 -20.5 25.5t-6.5 21.5q0 18 10 28.5t29 10.5q12 0 24 -8.5t25 -26.5z"/>
<glyph glyph-name="Aacute" horiz-adv-x="1124" unicode="Á" d="M367 512h292l35 494q-31 -45 -86 -125q-46 -67 -84 -125q-78 -117 -157 -244zM338 463q-94 -156 -149.5 -263t-55.5 -132q0 -31 55 -37q56 0 56 -19q0 -8 -6 -11t-10.5 -4t-14.5 -1h-55l-56 3l-67 3l-135 -3l-13 -1q-9 0 -15.5 4.5t-6.5 11.5q0 9 10 15t31 6 q52 0 81.5 9.5t53.5 41.5q20 27 113 179.5t157 252.5q210 332 340.5 515.5t155.5 183.5q5 0 9.5 -5t6.5 -16l-6 -68l-10 -140l-36 -544l-13 -286q0 -73 15.5 -97t57.5 -24q22 0 32 1t33 7l36 8q6 0 10 -3.5t6 -10.5q0 -18 -48.5 -30.5t-129.5 -12.5l-62 2l-63 2 q-78 0 -141 -7l-12 -1q-9 0 -13 3t-6 11q0 16 39 21q34 3 55 10q35 9 49 33q11 23 19 102l22 291h-319zM997 1595l-301 -266h-35l277 325q11 16 24.5 23.5t30.5 9.5q15 0 28 -12t13 -29q0 -18 -30 -45z"/>
<glyph glyph-name="Acircumflex" horiz-adv-x="1124" unicode="Â" d="M367 512h292l35 494q-31 -45 -86 -125q-46 -67 -84 -125q-78 -117 -157 -244zM338 463q-94 -156 -149.5 -263t-55.5 -132q0 -31 55 -37q56 0 56 -19q0 -8 -6 -11t-10.5 -4t-14.5 -1h-55l-56 3l-67 3l-135 -3l-13 -1q-9 0 -15.5 4.5t-6.5 11.5q0 9 10 15t31 6 q52 0 81.5 9.5t53.5 41.5q20 27 113 179.5t157 252.5q210 332 340.5 515.5t155.5 183.5q5 0 9.5 -5t6.5 -16l-6 -68l-10 -140l-36 -544l-13 -286q0 -73 15.5 -97t57.5 -24q22 0 32 1t33 7l36 8q6 0 10 -3.5t6 -10.5q0 -18 -48.5 -30.5t-129.5 -12.5l-62 2l-63 2 q-78 0 -141 -7l-12 -1q-9 0 -13 3t-6 11q0 16 39 21q34 3 55 10q35 9 49 33q11 23 19 102l22 291h-319zM797 1679h71l142 -350h-33l-150 262l-233 -262h-39z"/>
<glyph glyph-name="Atilde" horiz-adv-x="1124" unicode="Ã" d="M367 512h292l35 494q-31 -45 -86 -125q-46 -67 -84 -125q-78 -117 -157 -244zM338 463q-94 -156 -149.5 -263t-55.5 -132q0 -31 55 -37q56 0 56 -19q0 -8 -6 -11t-10.5 -4t-14.5 -1h-55l-56 3l-67 3l-135 -3l-13 -1q-9 0 -15.5 4.5t-6.5 11.5q0 9 10 15t31 6 q52 0 81.5 9.5t53.5 41.5q20 27 113 179.5t157 252.5q210 332 340.5 515.5t155.5 183.5q5 0 9.5 -5t6.5 -16l-6 -68l-10 -140l-36 -544l-13 -286q0 -73 15.5 -97t57.5 -24q22 0 32 1t33 7l36 8q6 0 10 -3.5t6 -10.5q0 -18 -48.5 -30.5t-129.5 -12.5l-62 2l-63 2 q-78 0 -141 -7l-12 -1q-9 0 -13 3t-6 11q0 16 39 21q34 3 55 10q35 9 49 33q11 23 19 102l22 291h-319zM1020 1568h29q-18 -71 -55 -109t-87 -38l-20 2l-37 8l-100 27l-40 9l-32 3q-34 0 -53.5 -16.5t-30.5 -52.5l-27 -1q14 75 47 110.5t90 35.5l31 -3l41 -9l98 -27l26 -6 l28 -2q33 0 56.5 17.5t35.5 51.5z"/>
<glyph glyph-name="Adieresis" horiz-adv-x="1124" unicode="Ä" d="M367 512h292l35 494q-31 -45 -86 -125q-46 -67 -84 -125q-78 -117 -157 -244zM338 463q-94 -156 -149.5 -263t-55.5 -132q0 -31 55 -37q56 0 56 -19q0 -8 -6 -11t-10.5 -4t-14.5 -1h-55l-56 3l-67 3l-135 -3l-13 -1q-9 0 -15.5 4.5t-6.5 11.5q0 9 10 15t31 6 q52 0 81.5 9.5t53.5 41.5q20 27 113 179.5t157 252.5q210 332 340.5 515.5t155.5 183.5q5 0 9.5 -5t6.5 -16l-6 -68l-10 -140l-36 -544l-13 -286q0 -73 15.5 -97t57.5 -24q22 0 32 1t33 7l36 8q6 0 10 -3.5t6 -10.5q0 -18 -48.5 -30.5t-129.5 -12.5l-62 2l-63 2 q-78 0 -141 -7l-12 -1q-9 0 -13 3t-6 11q0 16 39 21q34 3 55 10q35 9 49 33q11 23 19 102l22 291h-319zM661 1542q30 0 53 -21.5t23 -52.5q0 -33 -22 -55.5t-54 -22.5q-30 0 -51.5 23t-21.5 55q0 29 21.5 51.5t51.5 22.5zM956 1542q30 0 53 -21.5t23 -52.5q0 -33 -22 -55.5 t-54 -22.5q-30 0 -51.5 23t-21.5 55q0 29 21.5 51.5t51.5 22.5z"/>
<glyph glyph-name="Aring" horiz-adv-x="1124" unicode="Å" d="M367 512h292l35 494q-31 -45 -86 -125q-46 -67 -84 -125q-78 -117 -157 -244zM338 463q-94 -156 -149.5 -263t-55.5 -132q0 -31 55 -37q56 0 56 -19q0 -8 -6 -11t-10.5 -4t-14.5 -1h-55l-56 3l-67 3l-135 -3l-13 -1q-9 0 -15.5 4.5t-6.5 11.5q0 9 10 15t31 6 q52 0 81.5 9.5t53.5 41.5q20 27 113 179.5t157 252.5q210 332 340.5 515.5t155.5 183.5q5 0 9.5 -5t6.5 -16l-6 -68l-10 -140l-36 -544l-13 -286q0 -73 15.5 -97t57.5 -24q22 0 32 1t33 7l36 8q6 0 10 -3.5t6 -10.5q0 -18 -48.5 -30.5t-129.5 -12.5l-62 2l-63 2 q-78 0 -141 -7l-12 -1q-9 0 -13 3t-6 11q0 16 39 21q34 3 55 10q35 9 49 33q11 23 19 102l22 291h-319zM813 1569q-50 0 -88 -36q-35 -37 -35 -89q0 -54 34 -89q36 -34 89 -34t89 35.5t36 87.5q0 51 -37 88t-88 37zM813 1626q77 0 129.5 -52t52.5 -130q0 -75 -53.5 -127.5 t-128.5 -52.5t-128 52q-26 27 -39 58t-13 70q0 76 51.5 129t128.5 53z"/>
<glyph glyph-name="AE" horiz-adv-x="1436" unicode="Æ" d="M602 274l70 314h-256q-165 -260 -235 -379q-66 -114 -66 -141q0 -32 55 -38q55 0 55 -18q0 -9 -7 -12l-21 -4h-56l-53 3l-70 3l-136 -3l-13 -1q-9 0 -15 3.5t-8 12.5q0 9 11.5 15t31.5 6q37 0 49 1.5t29 6.5q28 9 47 29l106 158l169 257q121 183 280 413q156 224 156 241 q0 11 -10.5 16.5t-61.5 5.5h-28h-27h-10q-11 0 -15 2.5t-6 12.5q0 9 7 13.5t24 4.5h39l524 -4h131l13 1l81 3q0 -53 -10 -126l-2 -19q0 -19 -6.5 -30t-15.5 -11q-5 0 -11 6l-4 18l1 15l1 14q0 51 -28.5 70.5t-126.5 19.5h-185q-47 0 -60 -10.5t-30 -75.5l-100 -428h244 q80 0 106 10.5t43 42.5q4 9 13.5 42.5t23.5 33.5q7 0 9 -2l3 -6l-1 -6l-1 -6l-59 -261q-8 -26 -21 -26q-6 0 -10 5l-4 13l3 22l3 29q0 35 -20 46q-18 12 -105 12h-237l-86 -377l-16 -73l-5 -48q0 -20 9.5 -26.5t37.5 -6.5h244q80 0 128 15.5t79 52.5q19 22 36.5 56t30.5 34 q7 0 11 -3t6 -11q0 -20 -22.5 -72.5t-63.5 -130.5l-27 1l-26 1l-161 4l-280 4q-49 0 -88 -2q-137 -7 -143 -7l-21 -1q-9 0 -16 3.5t-8 10.5q0 16 40 23q26 3 38 8q56 15 101 209zM449 639h235l117 502h-25l-166 -251z"/>
<glyph glyph-name="Ccedilla" horiz-adv-x="1268" unicode="Ç" d="M1010 74q-93 -48 -194 -74q-45 -11 -97 -18t-98 -7q-233 0 -376 144.5t-143 380.5q0 120 41.5 230t120.5 208q110 134 269.5 207.5t340.5 73.5q125 0 223.5 -30.5t182.5 -94.5q-11 -61 -17.5 -137t-23.5 -76q-13 0 -17 52q0 50 -20 93q-35 78 -118 117t-214 39 q-111 0 -217.5 -47t-193.5 -136q-96 -98 -156.5 -243.5t-60.5 -284.5q0 -203 111.5 -324.5t299.5 -121.5q108 0 193.5 39t154.5 122q15 18 34 47t28 29q6 0 10.5 -4t5.5 -12q0 -5 -27.5 -61t-41.5 -111zM567 0h51l-39 -127l22 2l44 2q75 0 117.5 -39t42.5 -104 q0 -75 -55 -120.5t-142 -45.5q-56 0 -120 16q-31 7 -65.5 18.5t-72.5 28.5l23 56q61 -32 117.5 -48t101.5 -16q63 0 98 27.5t35 79.5q0 45 -34 71.5t-93 26.5h-19t-23 -2l-46 -6z"/>
<glyph glyph-name="Egrave" horiz-adv-x="1006" unicode="È" d="M182 274l156 674l20 95l7 61q0 33 -27 47q-27 12 -143 12h-23q-12 0 -17.5 2.5t-7.5 12.5q0 9 7 13.5t24 4.5h36l507 -4l129 1l98 3l-6 -98l-4 -47q0 -19 -6.5 -30t-16.5 -11q-5 0 -10 6l-4 18l1 15l1 14q0 50 -29 70t-129 20h-163q-48 0 -60.5 -10.5t-29.5 -75.5 l-89 -377h175q80 0 106 10.5t43 42.5q4 9 13.5 42t23.5 34l8 -2l4 -6l-1 -8l-1 -4l-57 -246l-2 -7q-3 -17 -17 -20q-6 0 -12 6l-4 13l4 22l4 29q0 34 -20 45.5t-107 11.5h-166l-102 -442l-7 -27q-16 -72 -16 -92q0 -21 11 -29q11 -6 39 -6h225q80 0 128 15.5t79 52.5 q19 22 36.5 56t30.5 34q6 0 11 -3.5t6 -10.5q0 -17 -24 -73q-12 -29 -26 -58.5t-36 -69.5h-54l-170 4l-301 4q-53 0 -141.5 -3.5t-111.5 -3.5l-21 -1l-17 3q-6 3 -6 9q0 24 63 24q22 0 33 1.5t36 5.5q41 8 62.5 44t57.5 187zM543 1650l227 -321h-30l-258 270 q-14 14 -20.5 25.5t-6.5 21.5q0 18 10 28.5t29 10.5q12 0 24 -8.5t25 -26.5z"/>
<glyph glyph-name="Eacute" horiz-adv-x="1006" unicode="É" d="M182 274l156 674l20 95l7 61q0 33 -27 47q-27 12 -143 12h-23q-12 0 -17.5 2.5t-7.5 12.5q0 9 7 13.5t24 4.5h36l507 -4l129 1l98 3l-6 -98l-4 -47q0 -19 -6.5 -30t-16.5 -11q-5 0 -10 6l-4 18l1 15l1 14q0 50 -29 70t-129 20h-163q-48 0 -60.5 -10.5t-29.5 -75.5 l-89 -377h175q80 0 106 10.5t43 42.5q4 9 13.5 42t23.5 34l8 -2l4 -6l-1 -8l-1 -4l-57 -246l-2 -7q-3 -17 -17 -20q-6 0 -12 6l-4 13l4 22l4 29q0 34 -20 45.5t-107 11.5h-166l-102 -442l-7 -27q-16 -72 -16 -92q0 -21 11 -29q11 -6 39 -6h225q80 0 128 15.5t79 52.5 q19 22 36.5 56t30.5 34q6 0 11 -3.5t6 -10.5q0 -17 -24 -73q-12 -29 -26 -58.5t-36 -69.5h-54l-170 4l-301 4q-53 0 -141.5 -3.5t-111.5 -3.5l-21 -1l-17 3q-6 3 -6 9q0 24 63 24q22 0 33 1.5t36 5.5q41 8 62.5 44t57.5 187zM856 1595l-301 -266h-35l277 325 q11 16 24.5 23.5t30.5 9.5q15 0 28 -12t13 -29q0 -18 -30 -45z"/>
<glyph glyph-name="Ecircumflex" horiz-adv-x="1006" unicode="Ê" d="M182 274l156 674l20 95l7 61q0 33 -27 47q-27 12 -143 12h-23q-12 0 -17.5 2.5t-7.5 12.5q0 9 7 13.5t24 4.5h36l507 -4l129 1l98 3l-6 -98l-4 -47q0 -19 -6.5 -30t-16.5 -11q-5 0 -10 6l-4 18l1 15l1 14q0 50 -29 70t-129 20h-163q-48 0 -60.5 -10.5t-29.5 -75.5 l-89 -377h175q80 0 106 10.5t43 42.5q4 9 13.5 42t23.5 34l8 -2l4 -6l-1 -8l-1 -4l-57 -246l-2 -7q-3 -17 -17 -20q-6 0 -12 6l-4 13l4 22l4 29q0 34 -20 45.5t-107 11.5h-166l-102 -442l-7 -27q-16 -72 -16 -92q0 -21 11 -29q11 -6 39 -6h225q80 0 128 15.5t79 52.5 q19 22 36.5 56t30.5 34q6 0 11 -3.5t6 -10.5q0 -17 -24 -73q-12 -29 -26 -58.5t-36 -69.5h-54l-170 4l-301 4q-53 0 -141.5 -3.5t-111.5 -3.5l-21 -1l-17 3q-6 3 -6 9q0 24 63 24q22 0 33 1.5t36 5.5q41 8 62.5 44t57.5 187zM656 1679h71l142 -350h-33l-150 262l-233 -262 h-39z"/>
<glyph glyph-name="Edieresis" horiz-adv-x="1006" unicode="Ë" d="M182 274l156 674l20 95l7 61q0 33 -27 47q-27 12 -143 12h-23q-12 0 -17.5 2.5t-7.5 12.5q0 9 7 13.5t24 4.5h36l507 -4l129 1l98 3l-6 -98l-4 -47q0 -19 -6.5 -30t-16.5 -11q-5 0 -10 6l-4 18l1 15l1 14q0 50 -29 70t-129 20h-163q-48 0 -60.5 -10.5t-29.5 -75.5 l-89 -377h175q80 0 106 10.5t43 42.5q4 9 13.5 42t23.5 34l8 -2l4 -6l-1 -8l-1 -4l-57 -246l-2 -7q-3 -17 -17 -20q-6 0 -12 6l-4 13l4 22l4 29q0 34 -20 45.5t-107 11.5h-166l-102 -442l-7 -27q-16 -72 -16 -92q0 -21 11 -29q11 -6 39 -6h225q80 0 128 15.5t79 52.5 q19 22 36.5 56t30.5 34q6 0 11 -3.5t6 -10.5q0 -17 -24 -73q-12 -29 -26 -58.5t-36 -69.5h-54l-170 4l-301 4q-53 0 -141.5 -3.5t-111.5 -3.5l-21 -1l-17 3q-6 3 -6 9q0 24 63 24q22 0 33 1.5t36 5.5q41 8 62.5 44t57.5 187zM520 1542q30 0 53 -21.5t23 -52.5 q0 -33 -22 -55.5t-54 -22.5q-30 0 -51.5 23t-21.5 55q0 29 21.5 51.5t51.5 22.5zM815 1542q30 0 53 -21.5t23 -52.5q0 -33 -22 -55.5t-54 -22.5q-30 0 -51.5 23t-21.5 55q0 29 21.5 51.5t51.5 22.5z"/>
<glyph glyph-name="Igrave" horiz-adv-x="649" unicode="Ì" d="M174 199l191 821l10 52l4 40q0 26 -27.5 36.5t-95.5 10.5q-13 0 -20 4.5t-7 16.5q0 5 5.5 9.5t19.5 6.5l18 -1q28 0 86 -3.5t80 -3.5q69 0 138 6l71 6q12 0 19 -4.5t8 -13.5q0 -18 -55 -24l-37 -5q-35 -4 -53.5 -28t-39.5 -113l-196 -848l-8 -38l-2 -36q0 -32 27 -46 q29 -13 93 -13q45 0 90 12l11 2q7 -2 10 -4t4 -8q0 -17 -31 -29q-33 -10 -84 -10q-25 0 -40 1q-75 5 -88 5l-105 6l-128 -3l-15 -1q-17 0 -23.5 4t-7.5 14q0 13 9 18t36 5q96 0 130 142zM383 1650l227 -321h-30l-258 270q-14 14 -20.5 25.5t-6.5 21.5q0 18 10 28.5t29 10.5 q12 0 24 -8.5t25 -26.5z"/>
<glyph glyph-name="Iacute" horiz-adv-x="649" unicode="Í" d="M174 199l191 821l10 52l4 40q0 26 -27.5 36.5t-95.5 10.5q-13 0 -20 4.5t-7 16.5q0 5 5.5 9.5t19.5 6.5l18 -1q28 0 86 -3.5t80 -3.5q69 0 138 6l71 6q12 0 19 -4.5t8 -13.5q0 -18 -55 -24l-37 -5q-35 -4 -53.5 -28t-39.5 -113l-196 -848l-8 -38l-2 -36q0 -32 27 -46 q29 -13 93 -13q45 0 90 12l11 2q7 -2 10 -4t4 -8q0 -17 -31 -29q-33 -10 -84 -10q-25 0 -40 1q-75 5 -88 5l-105 6l-128 -3l-15 -1q-17 0 -23.5 4t-7.5 14q0 13 9 18t36 5q96 0 130 142zM696 1595l-301 -266h-35l277 325q11 16 24.5 23.5t30.5 9.5q15 0 28 -12t13 -29 q0 -18 -30 -45z"/>
<glyph glyph-name="Icircumflex" horiz-adv-x="649" unicode="Î" d="M174 199l191 821l10 52l4 40q0 26 -27.5 36.5t-95.5 10.5q-13 0 -20 4.5t-7 16.5q0 5 5.5 9.5t19.5 6.5l18 -1q28 0 86 -3.5t80 -3.5q69 0 138 6l71 6q12 0 19 -4.5t8 -13.5q0 -18 -55 -24l-37 -5q-35 -4 -53.5 -28t-39.5 -113l-196 -848l-8 -38l-2 -36q0 -32 27 -46 q29 -13 93 -13q45 0 90 12l11 2q7 -2 10 -4t4 -8q0 -17 -31 -29q-33 -10 -84 -10q-25 0 -40 1q-75 5 -88 5l-105 6l-128 -3l-15 -1q-17 0 -23.5 4t-7.5 14q0 13 9 18t36 5q96 0 130 142zM496 1679h71l142 -350h-33l-150 262l-233 -262h-39z"/>
<glyph glyph-name="Idieresis" horiz-adv-x="649" unicode="Ï" d="M174 199l191 821l10 52l4 40q0 26 -27.5 36.5t-95.5 10.5q-13 0 -20 4.5t-7 16.5q0 5 5.5 9.5t19.5 6.5l18 -1q28 0 86 -3.5t80 -3.5q69 0 138 6l71 6q12 0 19 -4.5t8 -13.5q0 -18 -55 -24l-37 -5q-35 -4 -53.5 -28t-39.5 -113l-196 -848l-8 -38l-2 -36q0 -32 27 -46 q29 -13 93 -13q45 0 90 12l11 2q7 -2 10 -4t4 -8q0 -17 -31 -29q-33 -10 -84 -10q-25 0 -40 1q-75 5 -88 5l-105 6l-128 -3l-15 -1q-17 0 -23.5 4t-7.5 14q0 13 9 18t36 5q96 0 130 142zM360 1542q30 0 53 -21.5t23 -52.5q0 -33 -22 -55.5t-54 -22.5q-30 0 -51.5 23 t-21.5 55q0 29 21.5 51.5t51.5 22.5zM655 1542q30 0 53 -21.5t23 -52.5q0 -33 -22 -55.5t-54 -22.5q-30 0 -51.5 23t-21.5 55q0 29 21.5 51.5t51.5 22.5z"/>
<glyph glyph-name="Eth" horiz-adv-x="1294" unicode="Ð" d="M918 80l36 157l4 27l3 21q0 27 -9.5 36t-38.5 9q-19 0 -30 -1t-36 -6l-42 -6q-9 0 -14 5l-5 12q0 20 87 31l31 4q46 6 67.5 9t70.5 11q93 14 117 14q7 0 13.5 -3.5t7.5 -10.5q0 -15 -31 -24t-45 -23q-12 -15 -23.5 -58.5t-27.5 -133.5l4 1l28 9q6 -2 8.5 -4.5t2.5 -10.5 q0 -37 -150.5 -102.5t-308.5 -65.5q-246 0 -388.5 144t-142.5 391q0 311 198.5 509t516.5 198q132 0 241.5 -31.5t190.5 -91.5q-15 -61 -25.5 -134t-29.5 -73q-8 0 -12 7t-6 24v34q0 92 -97.5 157t-246.5 65q-262 0 -424 -184t-162 -480q0 -115 28 -201.5t88 -153.5 q116 -128 320 -128q62 0 118 12t114 39zM630 1632l32 -1q0 -41 12 -71.5t35 -55.5q43 -46 111 -46q65 0 124 42t117 132h37q-66 -134 -137 -196t-158 -62q-88 0 -129 62q-44 66 -44 196z"/>
<glyph glyph-name="Ntilde" horiz-adv-x="1268" unicode="Ñ" d="M178 287l174 751q-51 102 -143 120q-49 10 -63 13t-27 7q0 8 5.5 12t22.5 6h15l131 -2h51l12 1l23 1h24l521 -1012l194 842l11 52l4 40q0 39 -59.5 45t-59.5 21q0 9 4.5 11t11 3.5t19.5 1.5l19 -1l130 -3q13 0 42 1t46 1l51 2q15 0 21.5 -3.5t7.5 -10.5q0 -18 -42 -18 q-35 0 -68.5 -8.5t-53.5 -39.5t-43 -127l-229 -997q-3 -12 -8 -16q-2 -3 -9 -5q-8 0 -32 43l-8 16l-486 941l-178 -768l-11 -59l-3 -54q0 -30 30.5 -47.5t81.5 -17.5q10 0 17 -5t8 -14q0 -9 -6 -12.5t-21 -5.5l-62 5q-23 0 -59.5 2.5t-42.5 2.5q-39 0 -99 -2.5t-66 -2.5 l-15 -1q-9 0 -14.5 5t-5.5 13q0 14 48 19q31 0 50 4q47 6 72.5 44t66.5 206zM1018 1568h29q-18 -71 -55 -109t-87 -38l-20 2l-37 8l-100 27l-40 9l-32 3q-34 0 -53.5 -16.5t-30.5 -52.5l-27 -1q14 75 47 110.5t90 35.5l31 -3l41 -9l98 -27l26 -6l28 -2q33 0 56.5 17.5 t35.5 51.5z"/>
<glyph glyph-name="Ograve" horiz-adv-x="1389" unicode="Ò" d="M102 506q0 111 38.5 218t111.5 206q104 139 248.5 214t312.5 75q209 0 340 -142t131 -370q0 -157 -61 -301t-174 -252q-89 -86 -205 -133q-56 -22 -117.5 -34t-124.5 -12q-229 0 -364.5 142.5t-135.5 388.5zM788 1180q-231 0 -387.5 -204.5t-156.5 -514.5q0 -104 24 -185 t73.5 -139.5t117.5 -88.5t155 -30q224 0 376.5 206t152.5 511q0 207 -94 326t-261 119zM754 1650l227 -321h-30l-258 270q-14 14 -20.5 25.5t-6.5 21.5q0 18 10 28.5t29 10.5q12 0 24 -8.5t25 -26.5z"/>
<glyph glyph-name="Oacute" horiz-adv-x="1389" unicode="Ó" d="M102 506q0 111 38.5 218t111.5 206q104 139 248.5 214t312.5 75q209 0 340 -142t131 -370q0 -157 -61 -301t-174 -252q-89 -86 -205 -133q-56 -22 -117.5 -34t-124.5 -12q-229 0 -364.5 142.5t-135.5 388.5zM788 1180q-231 0 -387.5 -204.5t-156.5 -514.5q0 -104 24 -185 t73.5 -139.5t117.5 -88.5t155 -30q224 0 376.5 206t152.5 511q0 207 -94 326t-261 119zM1067 1595l-301 -266h-35l277 325q11 16 24.5 23.5t30.5 9.5q15 0 28 -12t13 -29q0 -18 -30 -45z"/>
<glyph glyph-name="Ocircumflex" horiz-adv-x="1389" unicode="Ô" d="M102 506q0 111 38.5 218t111.5 206q104 139 248.5 214t312.5 75q209 0 340 -142t131 -370q0 -157 -61 -301t-174 -252q-89 -86 -205 -133q-56 -22 -117.5 -34t-124.5 -12q-229 0 -364.5 142.5t-135.5 388.5zM788 1180q-231 0 -387.5 -204.5t-156.5 -514.5q0 -104 24 -185 t73.5 -139.5t117.5 -88.5t155 -30q224 0 376.5 206t152.5 511q0 207 -94 326t-261 119zM867 1679h71l142 -350h-33l-150 262l-233 -262h-39z"/>
<glyph glyph-name="Otilde" horiz-adv-x="1389" unicode="Õ" d="M102 506q0 111 38.5 218t111.5 206q104 139 248.5 214t312.5 75q209 0 340 -142t131 -370q0 -157 -61 -301t-174 -252q-89 -86 -205 -133q-56 -22 -117.5 -34t-124.5 -12q-229 0 -364.5 142.5t-135.5 388.5zM788 1180q-231 0 -387.5 -204.5t-156.5 -514.5q0 -104 24 -185 t73.5 -139.5t117.5 -88.5t155 -30q224 0 376.5 206t152.5 511q0 207 -94 326t-261 119zM1090 1568h29q-18 -71 -55 -109t-87 -38l-20 2l-37 8l-100 27l-40 9l-32 3q-34 0 -53.5 -16.5t-30.5 -52.5l-27 -1q14 75 47 110.5t90 35.5l31 -3l41 -9l98 -27l26 -6l28 -2 q33 0 56.5 17.5t35.5 51.5z"/>
<glyph glyph-name="Odieresis" horiz-adv-x="1389" unicode="Ö" d="M102 506q0 111 38.5 218t111.5 206q104 139 248.5 214t312.5 75q209 0 340 -142t131 -370q0 -157 -61 -301t-174 -252q-89 -86 -205 -133q-56 -22 -117.5 -34t-124.5 -12q-229 0 -364.5 142.5t-135.5 388.5zM788 1180q-231 0 -387.5 -204.5t-156.5 -514.5q0 -104 24 -185 t73.5 -139.5t117.5 -88.5t155 -30q224 0 376.5 206t152.5 511q0 207 -94 326t-261 119zM731 1542q30 0 53 -21.5t23 -52.5q0 -33 -22 -55.5t-54 -22.5q-30 0 -51.5 23t-21.5 55q0 29 21.5 51.5t51.5 22.5zM1026 1542q30 0 53 -21.5t23 -52.5q0 -33 -22 -55.5t-54 -22.5 q-30 0 -51.5 23t-21.5 55q0 29 21.5 51.5t51.5 22.5z"/>
<glyph glyph-name="multiply" horiz-adv-x="1706" unicode="×" d="M367 1155l487 -487l487 487l58 -57l-488 -488l488 -487l-58 -57l-487 487l-487 -487l-58 57l488 487l-488 488z"/>
<glyph glyph-name="Oslash" horiz-adv-x="1389" unicode="Ø" d="M350 123l647 987q-39 35 -92 52.5t-117 17.5q-231 0 -387.5 -203t-156.5 -510q0 -117 26.5 -202.5t79.5 -141.5zM1038 1073l-649 -985q46 -33 103 -53q56 -17 118 -17q226 0 378.5 204.5t152.5 510.5q0 112 -24.5 192.5t-78.5 147.5zM160 -160l145 221q-98 68 -150.5 177 t-52.5 251q0 119 38 231.5t110 209.5q103 137 249 213t314 76q59 0 111 -14q56 -12 112 -40l146 219l43 -24l-142 -221q100 -75 150.5 -184t50.5 -248q0 -157 -61 -301t-174 -252q-87 -86 -202 -132.5t-245 -46.5q-68 0 -130 15t-122 45l-147 -225z"/>
<glyph glyph-name="Ugrave" horiz-adv-x="1331" unicode="Ù" d="M207 516l121 527l8 43l4 34q0 30 -65 36q-64 0 -64 22q0 8 8 12l23 4l15 -1q31 0 79 -2.5t57 -2.5q15 0 54 1t64 1l85 2q16 0 22.5 -4.5t6.5 -16.5q0 -6 -7 -10t-22 -4h-14q-57 0 -82.5 -17t-42.5 -85l-107 -473l-30 -149q-9 -57 -9 -93q0 -148 83.5 -234t223.5 -86 q154 0 241 99t153 370l129 535l9 45l3 43q0 28 -18 38.5t-62 10.5h-18q-25 0 -33 3.5t-8 13.5q0 5 6 9.5t22 6.5l64 -2l70 -2l144 3l15 1q12 0 18.5 -3.5t6.5 -10.5q0 -10 -12.5 -15.5t-42.5 -5.5q-82 0 -118 -143l-3 -12l-142 -570q-60 -245 -164.5 -352t-283.5 -107 q-198 0 -304 94.5t-106 270.5q0 36 6 83q3 19 7 45t10 48zM725 1650l227 -321h-30l-258 270q-14 14 -20.5 25.5t-6.5 21.5q0 18 10 28.5t29 10.5q12 0 24 -8.5t25 -26.5z"/>
<glyph glyph-name="Uacute" horiz-adv-x="1331" unicode="Ú" d="M207 516l121 527l8 43l4 34q0 30 -65 36q-64 0 -64 22q0 8 8 12l23 4l15 -1q31 0 79 -2.5t57 -2.5q15 0 54 1t64 1l85 2q16 0 22.5 -4.5t6.5 -16.5q0 -6 -7 -10t-22 -4h-14q-57 0 -82.5 -17t-42.5 -85l-107 -473l-30 -149q-9 -57 -9 -93q0 -148 83.5 -234t223.5 -86 q154 0 241 99t153 370l129 535l9 45l3 43q0 28 -18 38.5t-62 10.5h-18q-25 0 -33 3.5t-8 13.5q0 5 6 9.5t22 6.5l64 -2l70 -2l144 3l15 1q12 0 18.5 -3.5t6.5 -10.5q0 -10 -12.5 -15.5t-42.5 -5.5q-82 0 -118 -143l-3 -12l-142 -570q-60 -245 -164.5 -352t-283.5 -107 q-198 0 -304 94.5t-106 270.5q0 36 6 83q3 19 7 45t10 48zM1038 1595l-301 -266h-35l277 325q11 16 24.5 23.5t30.5 9.5q15 0 28 -12t13 -29q0 -18 -30 -45z"/>
<glyph glyph-name="Ucircumflex" horiz-adv-x="1331" unicode="Û" d="M207 516l121 527l8 43l4 34q0 30 -65 36q-64 0 -64 22q0 8 8 12l23 4l15 -1q31 0 79 -2.5t57 -2.5q15 0 54 1t64 1l85 2q16 0 22.5 -4.5t6.5 -16.5q0 -6 -7 -10t-22 -4h-14q-57 0 -82.5 -17t-42.5 -85l-107 -473l-30 -149q-9 -57 -9 -93q0 -148 83.5 -234t223.5 -86 q154 0 241 99t153 370l129 535l9 45l3 43q0 28 -18 38.5t-62 10.5h-18q-25 0 -33 3.5t-8 13.5q0 5 6 9.5t22 6.5l64 -2l70 -2l144 3l15 1q12 0 18.5 -3.5t6.5 -10.5q0 -10 -12.5 -15.5t-42.5 -5.5q-82 0 -118 -143l-3 -12l-142 -570q-60 -245 -164.5 -352t-283.5 -107 q-198 0 -304 94.5t-106 270.5q0 36 6 83q3 19 7 45t10 48zM838 1679h71l142 -350h-33l-150 262l-233 -262h-39z"/>
<glyph glyph-name="Udieresis" horiz-adv-x="1331" unicode="Ü" d="M207 516l121 527l8 43l4 34q0 30 -65 36q-64 0 -64 22q0 8 8 12l23 4l15 -1q31 0 79 -2.5t57 -2.5q15 0 54 1t64 1l85 2q16 0 22.5 -4.5t6.5 -16.5q0 -6 -7 -10t-22 -4h-14q-57 0 -82.5 -17t-42.5 -85l-107 -473l-30 -149q-9 -57 -9 -93q0 -148 83.5 -234t223.5 -86 q154 0 241 99t153 370l129 535l9 45l3 43q0 28 -18 38.5t-62 10.5h-18q-25 0 -33 3.5t-8 13.5q0 5 6 9.5t22 6.5l64 -2l70 -2l144 3l15 1q12 0 18.5 -3.5t6.5 -10.5q0 -10 -12.5 -15.5t-42.5 -5.5q-82 0 -118 -143l-3 -12l-142 -570q-60 -245 -164.5 -352t-283.5 -107 q-198 0 -304 94.5t-106 270.5q0 36 6 83q3 19 7 45t10 48zM702 1542q30 0 53 -21.5t23 -52.5q0 -33 -22 -55.5t-54 -22.5q-30 0 -51.5 23t-21.5 55q0 29 21.5 51.5t51.5 22.5zM997 1542q30 0 53 -21.5t23 -52.5q0 -33 -22 -55.5t-54 -22.5q-30 0 -51.5 23t-21.5 55 q0 29 21.5 51.5t51.5 22.5z"/>
<glyph glyph-name="Yacute" horiz-adv-x="649" unicode="Ý" d="M174 199l191 821l10 52l4 40q0 26 -27.5 36.5t-95.5 10.5q-13 0 -20 4.5t-7 16.5q0 5 5.5 9.5t19.5 6.5l18 -1q28 0 86 -3.5t80 -3.5q69 0 138 6l71 6q12 0 19 -4.5t8 -13.5q0 -18 -55 -24l-37 -5q-35 -4 -53.5 -28t-39.5 -113l-196 -848l-8 -38l-2 -36q0 -32 27 -46 q29 -13 93 -13q45 0 90 12l11 2q7 -2 10 -4t4 -8q0 -17 -31 -29q-33 -10 -84 -10q-25 0 -40 1q-75 5 -88 5l-105 6l-128 -3l-15 -1q-17 0 -23.5 4t-7.5 14q0 13 9 18t36 5q96 0 130 142zM504 1548q32 0 57 -25t25 -55q0 -32 -24 -57t-58 -25q-30 0 -55 24.5t-25 57.5 q0 29 24.5 54.5t55.5 25.5z"/>
<glyph glyph-name="Thorn" horiz-adv-x="877" unicode="Þ" d="M817 1124q-4 -21 -8.5 -58.5t-5.5 -50.5q0 -28 -7 -43.5t-18 -15.5q-15 0 -18.5 32t-12.5 53q-24 62 -80 99.5t-126 37.5q-91 0 -147 -57.5t-56 -149.5q0 -30 6 -59t20 -59q26 -57 87 -132l61 -71q160 -181 160 -306q0 -152 -119.5 -260.5t-290.5 -108.5q-104 0 -175 24 t-71 60q0 47 9.5 70t29.5 23q7 0 70 -63.5t158 -63.5q111 0 190.5 80t79.5 194q0 28 -6 54.5t-20 55.5q-23 55 -78 119l-52 60q-170 196 -170 321q0 133 100.5 220.5t254.5 87.5q40 0 74.5 -6t67.5 -20q63 -24 93 -67zM274 0h51l-39 -127l22 2l44 2q75 0 117.5 -39 t42.5 -104q0 -75 -55 -120.5t-142 -45.5q-56 0 -120 16q-31 7 -65.5 18.5t-72.5 28.5l23 56q61 -32 117.5 -48t101.5 -16q63 0 98 27.5t35 79.5q0 45 -34 71.5t-93 26.5h-19t-23 -2l-46 -6z"/>
<glyph glyph-name="germandbls" horiz-adv-x="743" unicode="ß" d="M258 47q8 34 22.5 62t36.5 54q0 -49 35 -87q32 -35 74 -35q45 0 79 39t34 90q0 55 -67 132l-15 17q-52 64 -75 106q-22 44 -22 81q0 63 100 162q50 49 79 84q45 54 74.5 160.5t29.5 217.5q0 71 -24 112.5t-66 41.5q-150 0 -264 -737l-51 -324q-65 -393 -178 -552.5 t-316 -159.5q-64 0 -91.5 12.5t-27.5 44.5q0 20 19 38q18 15 47 15q16 0 78.5 -18.5t103.5 -18.5q175 0 313 950l17 117h-133l10 51h129q57 317 141 469t201 152q81 0 128.5 -71.5t47.5 -196.5q0 -104 -44 -197t-130 -162l-19 -14q-106 -85 -106 -135q0 -17 15 -45t52 -71 q8 -12 20 -24q93 -111 93 -198q0 -93 -70 -163.5t-161 -70.5q-40 0 -71 20q-32 18 -48 52z"/>
<glyph glyph-name="agrave" horiz-adv-x="766" unicode="à" d="M647 737l-84 -331q-27 -112 -42 -190t-15 -101q0 -17 6 -27t18 -10q15 0 37 15.5t80 72.5l21 -19q-84 -91 -128.5 -131.5t-64.5 -40.5q-31 0 -52.5 25.5t-21.5 62.5q0 33 7 74.5t16.5 82.5t15.5 67q-79 -76 -180.5 -194t-134.5 -118q-47 0 -69.5 30.5t-22.5 117.5 q0 127 57 255t160.5 228.5t318.5 122.5zM522 639q-71 0 -123.5 -10t-83.5 -24q-51 -23 -82 -83q-36 -70 -63 -179t-27 -183q0 -27 8 -39t23 -12q19 0 70.5 38.5t113.5 100.5q49 46 76 90.5t45 118.5zM383 1165l227 -321h-30l-258 270q-14 14 -20.5 25.5t-6.5 21.5 q0 18 10 28.5t29 10.5q12 0 24 -8.5t25 -26.5z"/>
<glyph glyph-name="aacute" horiz-adv-x="766" unicode="á" d="M647 737l-84 -331q-27 -112 -42 -190t-15 -101q0 -17 6 -27t18 -10q15 0 37 15.5t80 72.5l21 -19q-84 -91 -128.5 -131.5t-64.5 -40.5q-31 0 -52.5 25.5t-21.5 62.5q0 33 7 74.5t16.5 82.5t15.5 67q-79 -76 -180.5 -194t-134.5 -118q-47 0 -69.5 30.5t-22.5 117.5 q0 127 57 255t160.5 228.5t318.5 122.5zM522 639q-71 0 -123.5 -10t-83.5 -24q-51 -23 -82 -83q-36 -70 -63 -179t-27 -183q0 -27 8 -39t23 -12q19 0 70.5 38.5t113.5 100.5q49 46 76 90.5t45 118.5zM696 1110l-301 -266h-35l277 325q11 16 24.5 23.5t30.5 9.5q15 0 28 -12 t13 -29q0 -18 -30 -45z"/>
<glyph glyph-name="acircumflex" horiz-adv-x="766" unicode="â" d="M647 737l-84 -331q-27 -112 -42 -190t-15 -101q0 -17 6 -27t18 -10q15 0 37 15.5t80 72.5l21 -19q-84 -91 -128.5 -131.5t-64.5 -40.5q-31 0 -52.5 25.5t-21.5 62.5q0 33 7 74.5t16.5 82.5t15.5 67q-79 -76 -180.5 -194t-134.5 -118q-47 0 -69.5 30.5t-22.5 117.5 q0 127 57 255t160.5 228.5t318.5 122.5zM522 639q-71 0 -123.5 -10t-83.5 -24q-51 -23 -82 -83q-36 -70 -63 -179t-27 -183q0 -27 8 -39t23 -12q19 0 70.5 38.5t113.5 100.5q49 46 76 90.5t45 118.5zM496 1194h71l142 -350h-33l-150 262l-233 -262h-39z"/>
<glyph glyph-name="atilde" horiz-adv-x="766" unicode="ã" d="M647 737l-84 -331q-27 -112 -42 -190t-15 -101q0 -17 6 -27t18 -10q15 0 37 15.5t80 72.5l21 -19q-84 -91 -128.5 -131.5t-64.5 -40.5q-31 0 -52.5 25.5t-21.5 62.5q0 33 7 74.5t16.5 82.5t15.5 67q-79 -76 -180.5 -194t-134.5 -118q-47 0 -69.5 30.5t-22.5 117.5 q0 127 57 255t160.5 228.5t318.5 122.5zM522 639q-71 0 -123.5 -10t-83.5 -24q-51 -23 -82 -83q-36 -70 -63 -179t-27 -183q0 -27 8 -39t23 -12q19 0 70.5 38.5t113.5 100.5q49 46 76 90.5t45 118.5zM719 1083h29q-18 -71 -55 -109t-87 -38l-20 2l-37 8l-100 27l-40 9l-32 3 q-34 0 -53.5 -16.5t-30.5 -52.5l-27 -1q14 75 47 110.5t90 35.5l31 -3l41 -9l98 -27l26 -6l28 -2q33 0 56.5 17.5t35.5 51.5z"/>
<glyph glyph-name="adieresis" horiz-adv-x="766" unicode="ä" d="M647 737l-84 -331q-27 -112 -42 -190t-15 -101q0 -17 6 -27t18 -10q15 0 37 15.5t80 72.5l21 -19q-84 -91 -128.5 -131.5t-64.5 -40.5q-31 0 -52.5 25.5t-21.5 62.5q0 33 7 74.5t16.5 82.5t15.5 67q-79 -76 -180.5 -194t-134.5 -118q-47 0 -69.5 30.5t-22.5 117.5 q0 127 57 255t160.5 228.5t318.5 122.5zM522 639q-71 0 -123.5 -10t-83.5 -24q-51 -23 -82 -83q-36 -70 -63 -179t-27 -183q0 -27 8 -39t23 -12q19 0 70.5 38.5t113.5 100.5q49 46 76 90.5t45 118.5zM360 1057q30 0 53 -21.5t23 -52.5q0 -33 -22 -55.5t-54 -22.5 q-30 0 -51.5 23t-21.5 55q0 29 21.5 51.5t51.5 22.5zM655 1057q30 0 53 -21.5t23 -52.5q0 -33 -22 -55.5t-54 -22.5q-30 0 -51.5 23t-21.5 55q0 29 21.5 51.5t51.5 22.5z"/>
<glyph glyph-name="aring" horiz-adv-x="766" unicode="å" d="M647 743l-84 -337q-27 -112 -42 -190t-15 -101q0 -17 6 -27t18 -10q15 0 37 15.5t80 72.5l21 -19q-72 -78 -121 -117.5t-72 -39.5q-34 0 -54 19.5t-20 53.5q0 33 7 74.5t16.5 82.5t15.5 67q-69 -66 -168 -174q-113 -123 -147 -123q-49 0 -70.5 26t-21.5 107q0 127 57 255 t160 228q99 96 308 125zM522 639q-71 0 -123.5 -10t-83.5 -24q-51 -23 -82 -83q-36 -70 -63 -179t-27 -183q0 -27 8 -39t23 -12q19 0 70.5 38.5t113.5 100.5q49 46 76 90.5t45 118.5zM494 1268q95 0 162 -67q33 -33 50 -73.5t17 -89.5q0 -95 -67 -162t-162 -67 q-96 0 -163 67t-67 162q0 96 67 163q33 33 73.5 50t89.5 17zM494 1206q-71 0 -119.5 -48.5t-48.5 -119.5q0 -70 48 -119t120 -49q69 0 118.5 49t49.5 119t-49 119t-119 49z"/>
<glyph glyph-name="ae" horiz-adv-x="817" unicode="æ" d="M547 727l-27 -88q51 38 99 65q43 23 67 23q26 0 42.5 -22.5t16.5 -57.5q0 -77 -69 -152t-211 -149l-17 -112q-6 -51 -6 -93q0 -32 13.5 -50.5t36.5 -18.5q24 0 75 27t117 79l12 -20q-89 -83 -162 -132t-110 -49q-39 0 -63.5 35t-24.5 92l2 40l6 53q-140 -134 -190 -171.5 t-76 -37.5q-21 0 -35 23q-12 23 -12 65q0 114 33 226t96 208q78 120 166.5 168.5t220.5 48.5zM471 621l-31 2l-24 2q-92 0 -135.5 -30.5t-74.5 -126t-48 -177.5t-17 -131q0 -27 8 -39t23 -12q18 0 62.5 33.5t119.5 105.5q18 103 46.5 195.5t70.5 177.5zM467 381 q89 45 144 105.5t55 105.5q0 30 -14 47q-12 18 -36 18q-49 0 -88 -70t-61 -206z"/>
<glyph glyph-name="ccedilla" horiz-adv-x="563" unicode="ç" d="M521 603l-101 24q-21 4 -34.5 6t-29.5 2q-41 0 -63.5 -18.5t-48.5 -79.5q-37 -95 -65 -221q-11 -54 -18 -106t-7 -85q0 -37 13.5 -55.5t43.5 -18.5q18 0 33 4t41 16q43 21 116 70l15 -22q-44 -34 -83 -60t-77 -47q-71 -37 -111 -37q-41 0 -74.5 35t-33.5 80q0 73 35 200 t89.5 232t120.5 160t144 55q54 0 85.5 -19t31.5 -52q0 -17 -6 -32.5t-16 -30.5zM160 0h51l-39 -127l22 2l44 2q75 0 117.5 -39t42.5 -104q0 -75 -55 -120.5t-142 -45.5q-56 0 -120 16q-31 7 -65.5 18.5t-72.5 28.5l23 56q61 -32 117.5 -48t101.5 -16q63 0 98 27.5t35 79.5 q0 45 -34 71.5t-93 26.5h-19t-23 -2l-46 -6z"/>
<glyph glyph-name="egrave" horiz-adv-x="555" unicode="è" d="M186 381q95 46 157.5 111t62.5 104q0 19 -26.5 36t-57.5 17q-43 0 -77 -65q-30 -60 -59 -203zM180 346l-17 -118l-5 -87q0 -33 14 -51t39 -18q27 0 81.5 27.5t123.5 78.5l12 -20q-97 -87 -173 -135t-116 -48q-43 0 -69 36q-25 38 -25 102q0 87 33 210t84 222 q38 73 104.5 132.5t102.5 59.5q43 0 75 -29q33 -27 33 -69q0 -66 -80 -147t-217 -146zM279 1165l227 -321h-30l-258 270q-14 14 -20.5 25.5t-6.5 21.5q0 18 10 28.5t29 10.5q12 0 24 -8.5t25 -26.5z"/>
<glyph glyph-name="eacute" horiz-adv-x="555" unicode="é" d="M186 381q95 46 157.5 111t62.5 104q0 19 -26.5 36t-57.5 17q-43 0 -77 -65q-30 -60 -59 -203zM180 346l-17 -118l-5 -87q0 -33 14 -51t39 -18q27 0 81.5 27.5t123.5 78.5l12 -20q-97 -87 -173 -135t-116 -48q-43 0 -69 36q-25 38 -25 102q0 87 33 210t84 222 q38 73 104.5 132.5t102.5 59.5q43 0 75 -29q33 -27 33 -69q0 -66 -80 -147t-217 -146zM592 1110l-301 -266h-35l277 325q11 16 24.5 23.5t30.5 9.5q15 0 28 -12t13 -29q0 -18 -30 -45z"/>
<glyph glyph-name="ecircumflex" horiz-adv-x="555" unicode="ê" d="M186 381q95 46 157.5 111t62.5 104q0 19 -26.5 36t-57.5 17q-43 0 -77 -65q-30 -60 -59 -203zM180 346l-17 -118l-5 -87q0 -33 14 -51t39 -18q27 0 81.5 27.5t123.5 78.5l12 -20q-97 -87 -173 -135t-116 -48q-43 0 -69 36q-25 38 -25 102q0 87 33 210t84 222 q38 73 104.5 132.5t102.5 59.5q43 0 75 -29q33 -27 33 -69q0 -66 -80 -147t-217 -146zM392 1194h71l142 -350h-33l-150 262l-233 -262h-39z"/>
<glyph glyph-name="edieresis" horiz-adv-x="555" unicode="ë" d="M186 381q95 46 157.5 111t62.5 104q0 19 -26.5 36t-57.5 17q-43 0 -77 -65q-30 -60 -59 -203zM180 346l-17 -118l-5 -87q0 -33 14 -51t39 -18q27 0 81.5 27.5t123.5 78.5l12 -20q-97 -87 -173 -135t-116 -48q-43 0 -69 36q-25 38 -25 102q0 87 33 210t84 222 q38 73 104.5 132.5t102.5 59.5q43 0 75 -29q33 -27 33 -69q0 -66 -80 -147t-217 -146zM256 1057q30 0 53 -21.5t23 -52.5q0 -33 -22 -55.5t-54 -22.5q-30 0 -51.5 23t-21.5 55q0 29 21.5 51.5t51.5 22.5zM551 1057q30 0 53 -21.5t23 -52.5q0 -33 -22 -55.5t-54 -22.5 q-30 0 -51.5 23t-21.5 55q0 29 21.5 51.5t51.5 22.5z"/>
<glyph glyph-name="igrave" horiz-adv-x="473" unicode="ì" d="M336 180l16 -16q-44 -51 -76.5 -86.5t-58.5 -58.5q-48 -42 -78 -42q-19 0 -30 19.5t-11 54.5q0 41 21 146q11 52 25.5 114t33.5 135l2 8q33 125 33 158q0 6 -4 10l-6 5q-8 0 -43 -27q-16 -14 -32.5 -30t-39.5 -40l-18 19q77 87 138 135.5t93 48.5q12 0 18.5 -12t6.5 -31 t-15 -92.5t-47 -207.5l-22 -95l-28 -126q-9 -45 -9 -58q0 -10 4 -17t10 -8q12 0 43 25q15 12 33 29t41 40zM188 1165l227 -321h-30l-258 270q-14 14 -20.5 25.5t-6.5 21.5q0 18 10 28.5t29 10.5q12 0 24 -8.5t25 -26.5z"/>
<glyph glyph-name="iacute" horiz-adv-x="473" unicode="í" d="M336 180l16 -16q-44 -51 -76.5 -86.5t-58.5 -58.5q-48 -42 -78 -42q-19 0 -30 19.5t-11 54.5q0 41 21 146q11 52 25.5 114t33.5 135l2 8q33 125 33 158q0 6 -4 10l-6 5q-8 0 -43 -27q-16 -14 -32.5 -30t-39.5 -40l-18 19q77 87 138 135.5t93 48.5q12 0 18.5 -12t6.5 -31 t-15 -92.5t-47 -207.5l-22 -95l-28 -126q-9 -45 -9 -58q0 -10 4 -17t10 -8q12 0 43 25q15 12 33 29t41 40zM501 1110l-301 -266h-35l277 325q11 16 24.5 23.5t30.5 9.5q15 0 28 -12t13 -29q0 -18 -30 -45z"/>
<glyph glyph-name="icircumflex" horiz-adv-x="473" unicode="î" d="M336 180l16 -16q-44 -51 -76.5 -86.5t-58.5 -58.5q-48 -42 -78 -42q-19 0 -30 19.5t-11 54.5q0 41 21 146q11 52 25.5 114t33.5 135l2 8q33 125 33 158q0 6 -4 10l-6 5q-8 0 -43 -27q-16 -14 -32.5 -30t-39.5 -40l-18 19q77 87 138 135.5t93 48.5q12 0 18.5 -12t6.5 -31 t-15 -92.5t-47 -207.5l-22 -95l-28 -126q-9 -45 -9 -58q0 -10 4 -17t10 -8q12 0 43 25q15 12 33 29t41 40zM301 1194h71l142 -350h-33l-150 262l-233 -262h-39z"/>
<glyph glyph-name="idieresis" horiz-adv-x="473" unicode="ï" d="M336 180l16 -16q-44 -51 -76.5 -86.5t-58.5 -58.5q-48 -42 -78 -42q-19 0 -30 19.5t-11 54.5q0 41 21 146q11 52 25.5 114t33.5 135l2 8q33 125 33 158q0 6 -4 10l-6 5q-8 0 -43 -27q-16 -14 -32.5 -30t-39.5 -40l-18 19q77 87 138 135.5t93 48.5q12 0 18.5 -12t6.5 -31 t-15 -92.5t-47 -207.5l-22 -95l-28 -126q-9 -45 -9 -58q0 -10 4 -17t10 -8q12 0 43 25q15 12 33 29t41 40zM165 1057q30 0 53 -21.5t23 -52.5q0 -33 -22 -55.5t-54 -22.5q-30 0 -51.5 23t-21.5 55q0 29 21.5 51.5t51.5 22.5zM460 1057q30 0 53 -21.5t23 -52.5 q0 -33 -22 -55.5t-54 -22.5q-30 0 -51.5 23t-21.5 55q0 29 21.5 51.5t51.5 22.5z"/>
<glyph glyph-name="eth" horiz-adv-x="649" unicode="ð" d="M336 641q-84 0 -128 -70t-44 -202q0 -72 29.5 -115t78.5 -43q73 0 128 91q27 46 41 102t14 124q0 57 -29.5 85t-89.5 28zM16 -84l-9 28l-3 25q0 53 54 102t167 95q-79 18 -114 61.5t-35 120.5q0 81 35 160.5t88 122.5q25 21 52.5 38.5t64.5 35.5q67 32 92 32 q61 0 104 -59.5t43 -147.5q0 -109 -59.5 -204.5t-163.5 -147.5l-64 -31q-172 -80 -172 -151q0 -47 116 -74q70 -16 105 -28q92 -30 131 -69t39 -101q0 -52 -16.5 -82.5t-60.5 -57.5q-53 -31 -148 -54.5t-182 -23.5q-138 0 -217.5 51.5t-79.5 141.5q0 78 61 135.5t172 81.5z M33 -117q-80 -19 -118 -54.5t-38 -90.5q0 -78 72.5 -129t189.5 -51q116 0 180 37t64 104q0 72 -141.5 108.5t-208.5 75.5zM249 1147l32 -1q0 -41 12 -71.5t35 -55.5q43 -46 111 -46q65 0 124 42t117 132h37q-66 -134 -137 -196t-158 -62q-88 0 -129 62q-44 66 -44 196z"/>
<glyph glyph-name="ntilde" horiz-adv-x="864" unicode="ñ" d="M260 408q128 148 242.5 238.5t163.5 90.5q21 0 36 -21.5t15 -58.5q0 -39 -43 -226l-29 -126l-32 -148q-9 -44 -9 -55q0 -10 3.5 -14t13.5 -6q11 0 37 22q20 16 39 36q13 13 30 32l21 -16q-63 -79 -120 -125.5t-87 -46.5q-20 0 -33.5 17.5t-13.5 41.5q0 7 3 26.5t10 55.5 q13 75 40 186l40 185q4 22 7.5 42t3.5 31q0 19 -12.5 31t-32.5 12q-42 0 -119 -65q-73 -61 -182 -193l-78 -354h-100l135 598l1 11l1 12l-3 11q-2 3 -9 5q-15 0 -46 -23t-77 -67l-17 20q73 77 135.5 123.5t86.5 46.5q14 0 26 -15.5t12 -37.5q0 -32 -39 -194zM729 1083h29 q-18 -71 -55 -109t-87 -38l-20 2l-37 8l-100 27l-40 9l-32 3q-34 0 -53.5 -16.5t-30.5 -52.5l-27 -1q14 75 47 110.5t90 35.5l31 -3l41 -9l98 -27l26 -6l28 -2q33 0 56.5 17.5t35.5 51.5z"/>
<glyph glyph-name="ograve" horiz-adv-x="692" unicode="ò" d="M371 737q95 0 157 -82t62 -213q0 -87 -42 -182.5t-126 -198.5q-32 -39 -70 -64.5t-65 -25.5q-107 0 -173.5 85.5t-66.5 226.5q0 79 19.5 137.5t76.5 136.5l11 14q124 166 217 166zM506 369q0 122 -53.5 198t-141.5 76q-68 0 -117 -92.5t-49 -220.5q0 -122 45 -196.5 t121 -74.5q19 0 28 1t28 6.5t30 19.5q44 48 76.5 130.5t32.5 152.5zM305 1165l227 -321h-30l-258 270q-14 14 -20.5 25.5t-6.5 21.5q0 18 10 28.5t29 10.5q12 0 24 -8.5t25 -26.5z"/>
<glyph glyph-name="oacute" horiz-adv-x="692" unicode="ó" d="M371 737q95 0 157 -82t62 -213q0 -87 -42 -182.5t-126 -198.5q-32 -39 -70 -64.5t-65 -25.5q-107 0 -173.5 85.5t-66.5 226.5q0 79 19.5 137.5t76.5 136.5l11 14q124 166 217 166zM506 369q0 122 -53.5 198t-141.5 76q-68 0 -117 -92.5t-49 -220.5q0 -122 45 -196.5 t121 -74.5q19 0 28 1t28 6.5t30 19.5q44 48 76.5 130.5t32.5 152.5zM618 1110l-301 -266h-35l277 325q11 16 24.5 23.5t30.5 9.5q15 0 28 -12t13 -29q0 -18 -30 -45z"/>
<glyph glyph-name="ocircumflex" horiz-adv-x="692" unicode="ô" d="M371 737q95 0 157 -82t62 -213q0 -87 -42 -182.5t-126 -198.5q-32 -39 -70 -64.5t-65 -25.5q-107 0 -173.5 85.5t-66.5 226.5q0 79 19.5 137.5t76.5 136.5l11 14q124 166 217 166zM506 369q0 122 -53.5 198t-141.5 76q-68 0 -117 -92.5t-49 -220.5q0 -122 45 -196.5 t121 -74.5q19 0 28 1t28 6.5t30 19.5q44 48 76.5 130.5t32.5 152.5zM418 1194h71l142 -350h-33l-150 262l-233 -262h-39z"/>
<glyph glyph-name="otilde" horiz-adv-x="692" unicode="õ" d="M371 737q95 0 157 -82t62 -213q0 -87 -42 -182.5t-126 -198.5q-32 -39 -70 -64.5t-65 -25.5q-107 0 -173.5 85.5t-66.5 226.5q0 79 19.5 137.5t76.5 136.5l11 14q124 166 217 166zM506 369q0 122 -53.5 198t-141.5 76q-68 0 -117 -92.5t-49 -220.5q0 -122 45 -196.5 t121 -74.5q19 0 28 1t28 6.5t30 19.5q44 48 76.5 130.5t32.5 152.5zM641 1083h29q-18 -71 -55 -109t-87 -38l-20 2l-37 8l-100 27l-40 9l-32 3q-34 0 -53.5 -16.5t-30.5 -52.5l-27 -1q14 75 47 110.5t90 35.5l31 -3l41 -9l98 -27l26 -6l28 -2q33 0 56.5 17.5t35.5 51.5z"/>
<glyph glyph-name="odieresis" horiz-adv-x="692" unicode="ö" d="M371 737q95 0 157 -82t62 -213q0 -87 -42 -182.5t-126 -198.5q-32 -39 -70 -64.5t-65 -25.5q-107 0 -173.5 85.5t-66.5 226.5q0 79 19.5 137.5t76.5 136.5l11 14q124 166 217 166zM506 369q0 122 -53.5 198t-141.5 76q-68 0 -117 -92.5t-49 -220.5q0 -122 45 -196.5 t121 -74.5q19 0 28 1t28 6.5t30 19.5q44 48 76.5 130.5t32.5 152.5zM282 1057q30 0 53 -21.5t23 -52.5q0 -33 -22 -55.5t-54 -22.5q-30 0 -51.5 23t-21.5 55q0 29 21.5 51.5t51.5 22.5zM577 1057q30 0 53 -21.5t23 -52.5q0 -33 -22 -55.5t-54 -22.5q-30 0 -51.5 23t-21.5 55 q0 29 21.5 51.5t51.5 22.5z"/>
<glyph glyph-name="divide" horiz-adv-x="1706" unicode="÷" d="M854 1055q41 0 69 -29q29 -27 29 -70q0 -40 -29 -70q-27 -30 -69 -30q-41 0 -70 29q-28 31 -28 71q0 41 28.5 70t69.5 29zM254 651h1198v-82h-1198v82zM854 365q40 0 69 -29.5t29 -71.5q0 -40 -29 -69q-27 -29 -69 -29q-41 0 -70 28q-28 30 -28 70q0 41 29 71t69 30z"/>
<glyph glyph-name="oslash" horiz-adv-x="692" unicode="ø" d="M618 874l27 -18l-119 -201q32 -42 48 -97.5t16 -115.5q0 -87 -42 -182.5t-126 -198.5q-32 -39 -70 -64.5t-65 -25.5q-35 0 -72 14t-76 44l-119 -197l-30 16l125 205q-33 42 -50.5 100t-17.5 130q0 79 19 138.5t78 136.5q65 87 121.5 131t105.5 44q39 0 69.5 -11.5 t59.5 -37.5zM440 584q-22 27 -57.5 43t-73.5 16q-67 0 -115.5 -93.5t-48.5 -225.5q0 -46 9.5 -87t25.5 -77zM463 553l-266 -430q23 -34 48 -50q25 -14 66 -14q19 0 28 1t28 6.5t30 19.5q43 46 76 127.5t33 151.5q0 32 -2 54t-9 50q-11 50 -32 84z"/>
<glyph glyph-name="ugrave" horiz-adv-x="881" unicode="ù" d="M647 698l94 25l-114 -559l-7 -34l-2 -28q0 -7 4 -11.5t13 -6.5q13 0 51.5 29.5t77.5 72.5l18 -18q-69 -82 -130.5 -137.5t-84.5 -55.5q-17 0 -36 20.5t-19 43.5l4 32l16 83l82 372q-131 -236 -269 -393.5t-202 -157.5q-15 0 -24.5 18.5t-9.5 51.5q0 40 39 225l18 84l6 28 q39 185 39 202q0 10 -3 14t-13 6q-11 0 -26.5 -9.5t-37.5 -28.5q-40 -34 -98 -103l-23 12q96 123 168.5 192.5t106.5 69.5q16 0 27.5 -17.5t11.5 -43.5q0 -74 -50.5 -266t-50.5 -267q0 -13 5.5 -20.5t19.5 -9.5q47 0 183 180.5t216 404.5zM399 1165l227 -321h-30l-258 270 q-14 14 -20.5 25.5t-6.5 21.5q0 18 10 28.5t29 10.5q12 0 24 -8.5t25 -26.5z"/>
<glyph glyph-name="uacute" horiz-adv-x="881" unicode="ú" d="M647 698l94 25l-114 -559l-7 -34l-2 -28q0 -7 4 -11.5t13 -6.5q13 0 51.5 29.5t77.5 72.5l18 -18q-69 -82 -130.5 -137.5t-84.5 -55.5q-17 0 -36 20.5t-19 43.5l4 32l16 83l82 372q-131 -236 -269 -393.5t-202 -157.5q-15 0 -24.5 18.5t-9.5 51.5q0 40 39 225l18 84l6 28 q39 185 39 202q0 10 -3 14t-13 6q-11 0 -26.5 -9.5t-37.5 -28.5q-40 -34 -98 -103l-23 12q96 123 168.5 192.5t106.5 69.5q16 0 27.5 -17.5t11.5 -43.5q0 -74 -50.5 -266t-50.5 -267q0 -13 5.5 -20.5t19.5 -9.5q47 0 183 180.5t216 404.5zM712 1110l-301 -266h-35l277 325 q11 16 24.5 23.5t30.5 9.5q15 0 28 -12t13 -29q0 -18 -30 -45z"/>
<glyph glyph-name="ucircumflex" horiz-adv-x="881" unicode="û" d="M647 698l94 25l-114 -559l-7 -34l-2 -28q0 -7 4 -11.5t13 -6.5q13 0 51.5 29.5t77.5 72.5l18 -18q-69 -82 -130.5 -137.5t-84.5 -55.5q-17 0 -36 20.5t-19 43.5l4 32l16 83l82 372q-131 -236 -269 -393.5t-202 -157.5q-15 0 -24.5 18.5t-9.5 51.5q0 40 39 225l18 84l6 28 q39 185 39 202q0 10 -3 14t-13 6q-11 0 -26.5 -9.5t-37.5 -28.5q-40 -34 -98 -103l-23 12q96 123 168.5 192.5t106.5 69.5q16 0 27.5 -17.5t11.5 -43.5q0 -74 -50.5 -266t-50.5 -267q0 -13 5.5 -20.5t19.5 -9.5q47 0 183 180.5t216 404.5zM512 1194h71l142 -350h-33 l-150 262l-233 -262h-39z"/>
<glyph glyph-name="udieresis" horiz-adv-x="881" unicode="ü" d="M647 698l94 25l-114 -559l-7 -34l-2 -28q0 -7 4 -11.5t13 -6.5q13 0 51.5 29.5t77.5 72.5l18 -18q-69 -82 -130.5 -137.5t-84.5 -55.5q-17 0 -36 20.5t-19 43.5l4 32l16 83l82 372q-131 -236 -269 -393.5t-202 -157.5q-15 0 -24.5 18.5t-9.5 51.5q0 40 39 225l18 84l6 28 q39 185 39 202q0 10 -3 14t-13 6q-11 0 -26.5 -9.5t-37.5 -28.5q-40 -34 -98 -103l-23 12q96 123 168.5 192.5t106.5 69.5q16 0 27.5 -17.5t11.5 -43.5q0 -74 -50.5 -266t-50.5 -267q0 -13 5.5 -20.5t19.5 -9.5q47 0 183 180.5t216 404.5zM376 1057q30 0 53 -21.5t23 -52.5 q0 -33 -22 -55.5t-54 -22.5q-30 0 -51.5 23t-21.5 55q0 29 21.5 51.5t51.5 22.5zM671 1057q30 0 53 -21.5t23 -52.5q0 -33 -22 -55.5t-54 -22.5q-30 0 -51.5 23t-21.5 55q0 29 21.5 51.5t51.5 22.5z"/>
<glyph glyph-name="yacute" horiz-adv-x="473" unicode="ý" d="M336 180l16 -16q-44 -51 -76.5 -86.5t-58.5 -58.5q-48 -42 -78 -42q-19 0 -30 19.5t-11 54.5q0 41 21 146q11 52 25.5 114t33.5 135l2 8q33 125 33 158q0 6 -4 10l-6 5q-8 0 -43 -27q-16 -14 -32.5 -30t-39.5 -40l-18 19q77 87 138 135.5t93 48.5q12 0 18.5 -12t6.5 -31 t-15 -92.5t-47 -207.5l-22 -95l-28 -126q-9 -45 -9 -58q0 -10 4 -17t10 -8q12 0 43 25q15 12 33 29t41 40z"/>
<glyph glyph-name="thorn" horiz-adv-x="537" unicode="þ" d="M-10 47q9 32 25.5 59.5t43.5 57.5q6 -53 43 -88t88 -35q50 0 88.5 39.5t38.5 89.5q0 54 -75 129l-19 18q-57 59 -84.5 103.5t-27.5 83.5q0 81 95 157q48 38 97 57t103 19q43 0 64.5 -13.5t21.5 -41.5q0 -33 -12.5 -51.5t-35.5 -18.5q-11 0 -61 13.5t-86 13.5 q-46 0 -77.5 -27.5t-31.5 -64.5q0 -17 18 -46q10 -14 31 -38q14 -17 29 -33l22 -22q111 -111 111 -213q0 -84 -84 -153q-43 -34 -89 -50.5t-99 -16.5q-46 0 -82.5 19t-54.5 53zM145 0h51l-39 -127l22 2l44 2q75 0 117.5 -39t42.5 -104q0 -75 -55 -120.5t-142 -45.5 q-56 0 -120 16q-31 7 -65.5 18.5t-72.5 28.5l23 56q61 -32 117.5 -48t101.5 -16q63 0 98 27.5t35 79.5q0 45 -34 71.5t-93 26.5h-19t-23 -2l-46 -6z"/>
<glyph glyph-name="ydieresis" horiz-adv-x="739" unicode="ÿ" d="M371 12q97 155 147.5 285.5t50.5 224.5q0 42 -9.5 65t-29.5 23q-12 0 -21 -3.5t-20 -14.5l-20 20q41 61 72 93t49 32q20 0 33.5 -36.5t13.5 -94.5q0 -145 -79 -327q-40 -95 -97 -193.5t-139 -214.5q-128 -182 -251.5 -280.5t-224.5 -98.5q-43 0 -74.5 17t-31.5 34 q0 12 14 29t49 43q61 -43 101 -43q57 0 117 37t137 121q71 78 105 145.5t34 136.5q0 87 -27 222q-13 66 -30.5 131.5t-39.5 126.5t-41.5 88.5t-39.5 27.5q-15 0 -44 -36q-12 -17 -28.5 -44t-34.5 -63l-26 10q45 107 100.5 184.5t81.5 77.5q60 0 124 -215q37 -122 56 -234 q23 -135 23 -276zM348 1057q30 0 53 -21.5t23 -52.5q0 -33 -22 -55.5t-54 -22.5q-30 0 -51.5 23t-21.5 55q0 29 21.5 51.5t51.5 22.5zM643 1057q30 0 53 -21.5t23 -52.5q0 -33 -22 -55.5t-54 -22.5q-30 0 -51.5 23t-21.5 55q0 29 21.5 51.5t51.5 22.5z"/>
<glyph glyph-name="Cacute" horiz-adv-x="1268" unicode="Ć" d="M1010 74q-93 -48 -194 -74q-45 -11 -97 -18t-98 -7q-233 0 -376 144.5t-143 380.5q0 120 41.5 230t120.5 208q110 134 269.5 207.5t340.5 73.5q125 0 223.5 -30.5t182.5 -94.5q-11 -61 -17.5 -137t-23.5 -76q-13 0 -17 52q0 50 -20 93q-35 78 -118 117t-214 39 q-111 0 -217.5 -47t-193.5 -136q-96 -98 -156.5 -243.5t-60.5 -284.5q0 -203 111.5 -324.5t299.5 -121.5q108 0 193.5 39t154.5 122q15 18 34 47t28 29q6 0 10.5 -4t5.5 -12q0 -5 -27.5 -61t-41.5 -111zM1104 1595l-301 -266h-35l277 325q11 16 24.5 23.5t30.5 9.5 q15 0 28 -12t13 -29q0 -18 -30 -45z"/>
<glyph glyph-name="cacute" horiz-adv-x="563" unicode="ć" d="M521 603l-101 24q-21 4 -34.5 6t-29.5 2q-41 0 -63.5 -18.5t-48.5 -79.5q-37 -95 -65 -221q-11 -54 -18 -106t-7 -85q0 -37 13.5 -55.5t43.5 -18.5q18 0 33 4t41 16q43 21 116 70l15 -22q-44 -34 -83 -60t-77 -47q-71 -37 -111 -37q-41 0 -74.5 35t-33.5 80q0 73 35 200 t89.5 232t120.5 160t144 55q54 0 85.5 -19t31.5 -52q0 -17 -6 -32.5t-16 -30.5zM616 1110l-301 -266h-35l277 325q11 16 24.5 23.5t30.5 9.5q15 0 28 -12t13 -29q0 -18 -30 -45z"/>
<glyph glyph-name="Ccaron" horiz-adv-x="1268" unicode="Č" d="M1010 74q-93 -48 -194 -74q-45 -11 -97 -18t-98 -7q-233 0 -376 144.5t-143 380.5q0 120 41.5 230t120.5 208q110 134 269.5 207.5t340.5 73.5q125 0 223.5 -30.5t182.5 -94.5q-11 -61 -17.5 -137t-23.5 -76q-13 0 -17 52q0 50 -20 93q-35 78 -118 117t-214 39 q-111 0 -217.5 -47t-193.5 -136q-96 -98 -156.5 -243.5t-60.5 -284.5q0 -203 111.5 -324.5t299.5 -121.5q108 0 193.5 39t154.5 122q15 18 34 47t28 29q6 0 10.5 -4t5.5 -12q0 -5 -27.5 -61t-41.5 -111zM682 1679h33l148 -262l235 262h37l-240 -350h-71z"/>
<glyph glyph-name="ccaron" horiz-adv-x="563" unicode="č" d="M521 603l-101 24q-21 4 -34.5 6t-29.5 2q-41 0 -63.5 -18.5t-48.5 -79.5q-37 -95 -65 -221q-11 -54 -18 -106t-7 -85q0 -37 13.5 -55.5t43.5 -18.5q18 0 33 4t41 16q43 21 116 70l15 -22q-44 -34 -83 -60t-77 -47q-71 -37 -111 -37q-41 0 -74.5 35t-33.5 80q0 73 35 200 t89.5 232t120.5 160t144 55q54 0 85.5 -19t31.5 -52q0 -17 -6 -32.5t-16 -30.5zM194 1194h33l148 -262l235 262h37l-240 -350h-71z"/>
<glyph glyph-name="c274" horiz-adv-x="2308" unicode="Ď"/>
<glyph glyph-name="c275" horiz-adv-x="2308" unicode="ď"/>
<glyph glyph-name="c276" horiz-adv-x="2308" unicode="Đ"/>
<glyph glyph-name="dcroat" horiz-adv-x="768" unicode="đ" d="M641 1225l1 5l3 21q0 15 -10.5 22t-32.5 7h-8l-102 -4v29l243 26h6q8 0 12.5 -2.5t6.5 -9.5l-1 -4l-1 -4l-60 -271h138l-11 -43h-133l-160 -757l-14 -74l-4 -45q0 -22 8 -33q10 -10 27 -10q18 0 41 13q14 7 31 19t47 37l18 -16q-91 -88 -134 -117.5t-69 -29.5 q-28 0 -48 30q-19 32 -19 82v31q3 17 4 25q6 46 7 50q6 26 9 40q-108 -114 -207 -187q-47 -35 -81.5 -53t-55.5 -18q-25 0 -40 27q-13 29 -13 83q0 149 44 270.5t132 217.5q71 76 130 112.5t116 36.5l38 -1l42 -1l53 268h-197l13 43h192zM522 643h-26q-175 0 -257.5 -103.5 t-82.5 -322.5q0 -73 10.5 -96t40.5 -23q25 0 86 52.5t156 154.5z"/>
<glyph glyph-name="Gbreve" horiz-adv-x="1294" unicode="Ğ" d="M918 80l36 157l4 27l3 21q0 27 -9.5 36t-38.5 9q-19 0 -30 -1t-36 -6l-42 -6q-9 0 -14 5l-5 12q0 20 87 31l31 4q46 6 67.5 9t70.5 11q93 14 117 14q7 0 13.5 -3.5t7.5 -10.5q0 -15 -31 -24t-45 -23q-12 -15 -23.5 -58.5t-27.5 -133.5l4 1l28 9q6 -2 8.5 -4.5t2.5 -10.5 q0 -37 -150.5 -102.5t-308.5 -65.5q-246 0 -388.5 144t-142.5 391q0 311 198.5 509t516.5 198q132 0 241.5 -31.5t190.5 -91.5q-15 -61 -25.5 -134t-29.5 -73q-8 0 -12 7t-6 24v34q0 92 -97.5 157t-246.5 65q-262 0 -424 -184t-162 -480q0 -115 28 -201.5t88 -153.5 q116 -128 320 -128q62 0 118 12t114 39zM630 1632l32 -1q0 -41 12 -71.5t35 -55.5q43 -46 111 -46q65 0 124 42t117 132h37q-66 -134 -137 -196t-158 -62q-88 0 -129 62q-44 66 -44 196z"/>
<glyph glyph-name="gbreve" horiz-adv-x="649" unicode="ğ" d="M336 641q-84 0 -128 -70t-44 -202q0 -72 29.5 -115t78.5 -43q73 0 128 91q27 46 41 102t14 124q0 57 -29.5 85t-89.5 28zM16 -84l-9 28l-3 25q0 53 54 102t167 95q-79 18 -114 61.5t-35 120.5q0 81 35 160.5t88 122.5q25 21 52.5 38.5t64.5 35.5q67 32 92 32 q61 0 104 -59.5t43 -147.5q0 -109 -59.5 -204.5t-163.5 -147.5l-64 -31q-172 -80 -172 -151q0 -47 116 -74q70 -16 105 -28q92 -30 131 -69t39 -101q0 -52 -16.5 -82.5t-60.5 -57.5q-53 -31 -148 -54.5t-182 -23.5q-138 0 -217.5 51.5t-79.5 141.5q0 78 61 135.5t172 81.5z M33 -117q-80 -19 -118 -54.5t-38 -90.5q0 -78 72.5 -129t189.5 -51q116 0 180 37t64 104q0 72 -141.5 108.5t-208.5 75.5zM249 1147l32 -1q0 -41 12 -71.5t35 -55.5q43 -46 111 -46q65 0 124 42t117 132h37q-66 -134 -137 -196t-158 -62q-88 0 -129 62q-44 66 -44 196z"/>
<glyph glyph-name="Idotaccent" horiz-adv-x="649" unicode="İ" d="M174 199l191 821l10 52l4 40q0 26 -27.5 36.5t-95.5 10.5q-13 0 -20 4.5t-7 16.5q0 5 5.5 9.5t19.5 6.5l18 -1q28 0 86 -3.5t80 -3.5q69 0 138 6l71 6q12 0 19 -4.5t8 -13.5q0 -18 -55 -24l-37 -5q-35 -4 -53.5 -28t-39.5 -113l-196 -848l-8 -38l-2 -36q0 -32 27 -46 q29 -13 93 -13q45 0 90 12l11 2q7 -2 10 -4t4 -8q0 -17 -31 -29q-33 -10 -84 -10q-25 0 -40 1q-75 5 -88 5l-105 6l-128 -3l-15 -1q-17 0 -23.5 4t-7.5 14q0 13 9 18t36 5q96 0 130 142zM504 1548q32 0 57 -25t25 -55q0 -32 -24 -57t-58 -25q-30 0 -55 24.5t-25 57.5 q0 29 24.5 54.5t55.5 25.5z"/>
<glyph glyph-name="dotlessi" horiz-adv-x="473" unicode="ı" d="M336 180l16 -16q-44 -51 -76.5 -86.5t-58.5 -58.5q-48 -42 -78 -42q-19 0 -30 19.5t-11 54.5q0 41 21 146q11 52 25.5 114t33.5 135l2 8q33 125 33 158q0 6 -4 10l-6 5q-8 0 -43 -27q-16 -14 -32.5 -30t-39.5 -40l-18 19q77 87 138 135.5t93 48.5q12 0 18.5 -12t6.5 -31 t-15 -92.5t-47 -207.5l-22 -95l-28 -126q-9 -45 -9 -58q0 -10 4 -17t10 -8q12 0 43 25q15 12 33 29t41 40z"/>
<glyph glyph-name="c316" horiz-adv-x="469" unicode="ļ" d="M154 391q0 34 24 58t55 24q32 0 56 -24t24 -58q0 -30 -23.5 -55t-56.5 -25q-30 0 -56 24q-23 25 -23 56z"/>
<glyph glyph-name="Lslash" horiz-adv-x="1014" unicode="Ł" d="M201 184l88 361l-230 -117l13 57l235 119l105 431l7 33l3 30q0 33 -13 42.5t-87 18.5q-12 0 -22.5 2t-17 4.5t-6.5 12.5q0 5 10 11q12 5 29 5l49 -2l54 -2l147 1l101 1l14 1l14 1q13 0 19.5 -4.5t7.5 -11.5q0 -8 -8 -13l-21 -4q-84 0 -107 -18t-46 -105l-101 -395 l299 150l-14 -58l-297 -149l-88 -355l-17 -73l-4 -37q0 -46 37 -65q37 -17 154 -17q126 0 191 20.5t120 69.5q6 5 16.5 15.5t19.5 22.5q21 26 34 26q6 0 9 -4t3 -11q0 -6 -25 -46l-44 -74l-9 -17q-22 -43 -73 -43l-168 6q-78 0 -162.5 2t-140.5 4q-42 0 -127.5 -3.5 t-115.5 -3.5l-22 -1q-12 0 -16.5 3t-5.5 15q0 9 8 13t29 4q87 0 117.5 29.5t54.5 117.5z"/>
<glyph glyph-name="lslash" horiz-adv-x="539" unicode="ł" d="M205 584l-156 -76l10 53l158 76l113 533l5 24l9 51q0 20 -12 28q-14 7 -56 7h-65v24q78 8 153 21l76 14q9 0 12.5 -4.5t4.5 -17.5l-3 -28l-5 -34l-123 -577l155 74l-10 -52l-158 -75l-75 -350l-7 -31q-16 -70 -16 -97q0 -21 1 -29.5t7.5 -21.5t22.5 -14q18 0 119 72 l28 20l17 -16q-45 -40 -84 -73t-71.5 -57t-53.5 -36t-31 -12q-20 0 -40 30q-19 32 -19 70l6 56l18 106z"/>
<glyph glyph-name="OE" horiz-adv-x="1458" unicode="Œ" d="M995 57q81 0 129.5 15.5t77.5 52.5q19 22 36.5 56t31.5 34q6 0 10 -3t6 -11q0 -20 -22.5 -72.5t-63.5 -130.5l-189 6l-180 4q-28 0 -91 -3.5t-94 -3.5l-122 -7q-174 0 -293.5 129.5t-119.5 318.5q0 327 181.5 542.5t455.5 215.5l23 -1q67 0 124 -2q199 -7 225 -7l103 1 l82 1h11l82 2q0 -46 -3 -75q-5 -33 -7 -49l-2 -19q0 -18 -6 -29.5t-16 -11.5q-5 0 -11 6q-3 6 -3 18l1 15l1 14q0 51 -28.5 70.5t-127.5 19.5h-164q-48 0 -62.5 -12.5t-29.5 -73.5l-94 -410h205q80 0 106.5 11.5t42.5 42.5q4 8 13.5 41.5t23.5 33.5q7 0 9.5 -3t2.5 -5l-1 -6 l-1 -6l-59 -254l-2 -8q-5 -21 -17 -21q-5 0 -9.5 5t-6.5 16l3 21l3 28q0 33 -21 47q-21 12 -104 12h-198l-93 -402l-6 -26q-16 -72 -16 -92q0 -21 10.5 -28t38.5 -7h225zM633 275l153 673q20 80 28 125l11 77l-46 11l-40 4q-198 0 -347.5 -202t-149.5 -478q0 -188 83 -319 t179 -131q73 0 122 208z"/>
<glyph glyph-name="oe" horiz-adv-x="885" unicode="œ" d="M322 641q-65 0 -120 -113.5t-55 -263.5q0 -98 24 -153.5t69 -55.5q64 0 132 117.5t68 263.5q0 92 -34.5 148.5t-83.5 56.5zM537 381q86 45 141 104.5t55 106.5q0 30 -14 47q-12 18 -35 18q-49 0 -88 -70q-35 -67 -59 -206zM533 346q-12 -58 -18 -111l-5 -94q0 -33 13 -52 q14 -17 40 -17q29 0 79.5 27.5t111.5 78.5l12 -20q-98 -92 -155.5 -129t-98.5 -37q-47 0 -76 39q-26 40 -26 112v23q-66 -95 -124.5 -142t-111.5 -47q-54 0 -92 57q-35 58 -35 152q0 199 110.5 366t217.5 167q46 0 85 -45.5t60 -128.5q51 85 109 136.5t102 51.5 q35 0 58.5 -29.5t23.5 -76.5q0 -69 -71 -140q-34 -34 -87.5 -70.5t-121.5 -70.5z"/>
<glyph glyph-name="Scedilla" horiz-adv-x="877" unicode="Ş" d="M817 1124q-4 -21 -8.5 -58.5t-5.5 -50.5q0 -28 -7 -43.5t-18 -15.5q-15 0 -18.5 32t-12.5 53q-24 62 -80 99.5t-126 37.5q-91 0 -147 -57.5t-56 -149.5q0 -30 6 -59t20 -59q26 -57 87 -132l61 -71q160 -181 160 -306q0 -152 -119.5 -260.5t-290.5 -108.5q-104 0 -175 24 t-71 60q0 47 9.5 70t29.5 23q7 0 70 -63.5t158 -63.5q111 0 190.5 80t79.5 194q0 28 -6 54.5t-20 55.5q-23 55 -78 119l-52 60q-170 196 -170 321q0 133 100.5 220.5t254.5 87.5q40 0 74.5 -6t67.5 -20q63 -24 93 -67zM274 0h51l-39 -127l22 2l44 2q75 0 117.5 -39 t42.5 -104q0 -75 -55 -120.5t-142 -45.5q-56 0 -120 16q-31 7 -65.5 18.5t-72.5 28.5l23 56q61 -32 117.5 -48t101.5 -16q63 0 98 27.5t35 79.5q0 45 -34 71.5t-93 26.5h-19t-23 -2l-46 -6z"/>
<glyph glyph-name="scedilla" horiz-adv-x="537" unicode="ş" d="M-10 47q9 32 25.5 59.5t43.5 57.5q6 -53 43 -88t88 -35q50 0 88.5 39.5t38.5 89.5q0 54 -75 129l-19 18q-57 59 -84.5 103.5t-27.5 83.5q0 81 95 157q48 38 97 57t103 19q43 0 64.5 -13.5t21.5 -41.5q0 -33 -12.5 -51.5t-35.5 -18.5q-11 0 -61 13.5t-86 13.5 q-46 0 -77.5 -27.5t-31.5 -64.5q0 -17 18 -46q10 -14 31 -38q14 -17 29 -33l22 -22q111 -111 111 -213q0 -84 -84 -153q-43 -34 -89 -50.5t-99 -16.5q-46 0 -82.5 19t-54.5 53zM145 0h51l-39 -127l22 2l44 2q75 0 117.5 -39t42.5 -104q0 -75 -55 -120.5t-142 -45.5 q-56 0 -120 16q-31 7 -65.5 18.5t-72.5 28.5l23 56q61 -32 117.5 -48t101.5 -16q63 0 98 27.5t35 79.5q0 45 -34 71.5t-93 26.5h-19t-23 -2l-46 -6z"/>
<glyph glyph-name="Scaron" horiz-adv-x="877" unicode="Š" d="M817 1124q-4 -21 -8.5 -58.5t-5.5 -50.5q0 -28 -7 -43.5t-18 -15.5q-15 0 -18.5 32t-12.5 53q-24 62 -80 99.5t-126 37.5q-91 0 -147 -57.5t-56 -149.5q0 -30 6 -59t20 -59q26 -57 87 -132l61 -71q160 -181 160 -306q0 -152 -119.5 -260.5t-290.5 -108.5q-104 0 -175 24 t-71 60q0 47 9.5 70t29.5 23q7 0 70 -63.5t158 -63.5q111 0 190.5 80t79.5 194q0 28 -6 54.5t-20 55.5q-23 55 -78 119l-52 60q-170 196 -170 321q0 133 100.5 220.5t254.5 87.5q40 0 74.5 -6t67.5 -20q63 -24 93 -67zM389 1679h33l148 -262l235 262h37l-240 -350h-71z"/>
<glyph glyph-name="scaron" horiz-adv-x="537" unicode="š" d="M-10 47q9 32 25.5 59.5t43.5 57.5q6 -53 43 -88t88 -35q50 0 88.5 39.5t38.5 89.5q0 54 -75 129l-19 18q-57 59 -84.5 103.5t-27.5 83.5q0 81 95 157q48 38 97 57t103 19q43 0 64.5 -13.5t21.5 -41.5q0 -33 -12.5 -51.5t-35.5 -18.5q-11 0 -61 13.5t-86 13.5 q-46 0 -77.5 -27.5t-31.5 -64.5q0 -17 18 -46q10 -14 31 -38q14 -17 29 -33l22 -22q111 -111 111 -213q0 -84 -84 -153q-43 -34 -89 -50.5t-99 -16.5q-46 0 -82.5 19t-54.5 53zM159 1194h33l148 -262l235 262h37l-240 -350h-71z"/>
<glyph glyph-name="Ydieresis" horiz-adv-x="1057" unicode="Ÿ" d="M479 196l-7 -29q-3 -13 -8 -41t-5 -36q0 -30 29.5 -44.5t93.5 -14.5q28 0 40 1.5t37 6.5l15 2q6 -3 8 -5l4 -9q0 -14 -30 -25q-15 -4 -33.5 -6t-49.5 -2q-35 0 -100 6l-88 6l-92 -3l-107 -3h-24q-15 0 -21 3.5t-8 12.5q0 9 9 15t26 6q87 0 120.5 22.5t57.5 124.5l84 361 l3 13l7 42l-1 17l-3 20l-106 442q-18 75 -76 83t-59 18q0 9 5 14l19 4l58 -3l104 -3h22q16 0 48 1t48 1l48 2q9 0 16 -3.5t8 -8.5q0 -12 -59 -18.5t-59 -65.5v-15q0 -8 2 -12l98 -440q179 202 277 332.5t98 164.5q0 18 -15.5 26.5t-50.5 8.5h-20q-12 0 -17.5 2.5t-7.5 10.5 q0 8 7.5 12t25.5 6l21 -1l120 -3h37l25 1l41 1h12q12 0 18 -5q8 -3 9 -11q0 -11 -27 -17q-26 -3 -37 -8q-47 -15 -148 -141l-22 -27l-131 -156q-194 -224 -221 -337zM565 1542q30 0 53 -21.5t23 -52.5q0 -33 -22 -55.5t-54 -22.5q-30 0 -51.5 23t-21.5 55q0 29 21.5 51.5 t51.5 22.5zM860 1542q30 0 53 -21.5t23 -52.5q0 -33 -22 -55.5t-54 -22.5q-30 0 -51.5 23t-21.5 55q0 29 21.5 51.5t51.5 22.5z"/>
<glyph glyph-name="Zcaron" horiz-adv-x="1112" unicode="Ž" d="M506 43q189 0 269 10t130 37q12 7 27.5 18.5t29.5 25.5q30 30 44 30q6 0 10 -4l4 -10l-3 -10l-7 -19l-58 -121h-958l876 1151h-563l-92 -111l-27 -26q-8 -6 -14 -6q-7 3 -9.5 6.5t-2.5 9.5q3 10 5 14l15 27l78 129h776l-868 -1151h338zM505 1679h33l148 -262l235 262h37 l-240 -350h-71z"/>
<glyph glyph-name="zcaron" horiz-adv-x="672" unicode="ž" d="M676 731l20 -20l-620 -633h33q84 0 187.5 -52t182.5 -137q41 -41 110 -125q125 -151 187 -151q28 0 60 18t79 64l13 -49q-60 -35 -105.5 -51.5t-79.5 -16.5q-98 0 -271 176l-62 64q-100 100 -182 143t-169 43h-22q-18 -3 -28 -4l-40 -4l-12 3l-4 9q0 7 5 12l22 25 l568 575l-26 -5l-37 -1l-17 2l-13 2l-60 12q-54 13 -90 13q-30 0 -61.5 -29t-81.5 -112l-23 10q59 118 110 171.5t105 53.5q33 0 111 -21q40 -10 69 -15t52 -5q8 0 18.5 0.5t29.5 8.5t42 26zM227 1194h33l148 -262l235 262h37l-240 -350h-71z"/>
<glyph glyph-name="florin" horiz-adv-x="938" unicode="ƒ" d="M537 600l-6 -38q-108 -736 -187 -867q-46 -79 -131 -136t-150 -57q-32 0 -49.5 15t-17.5 43q0 23 19 41q21 16 51 16l44 -4l42 -4q58 0 90 23q32 20 53 75q8 25 55 327q19 128 30 195q19 116 31 189q7 41 33 182h-190l10 51h191q31 261 135.5 404t261.5 143 q33 0 52.5 -13t19.5 -36q0 -25 -19.5 -39t-50.5 -14q-7 0 -20.5 1t-31.5 4l-57 5q-123 0 -175 -322l-21 -133h194l-10 -51h-196z"/>
<glyph glyph-name="circumflex" d="M625 1194h71l142 -350h-33l-150 262l-233 -262h-39z" unicode="ˆ"/>
<glyph glyph-name="caron" d="M403 1194h33l148 -262l235 262h37l-240 -350h-71z" unicode="ˇ"/>
<glyph glyph-name="breve" d="M435 1147l32 -1q0 -41 12 -71.5t35 -55.5q43 -46 111 -46q65 0 124 42t117 132h37q-66 -134 -137 -196t-158 -62q-88 0 -129 62q-44 66 -44 196z" unicode="˘"/>
<glyph glyph-name="dotaccent" d="M633 1063q32 0 57 -25t25 -55q0 -32 -24 -57t-58 -25q-30 0 -55 24.5t-25 57.5q0 29 24.5 54.5t55.5 25.5z" unicode="˙"/>
<glyph glyph-name="ring" d="M647 1284q95 0 162.5 -66.5t67.5 -162.5t-67 -163q-33 -33 -73.5 -50t-89.5 -17q-95 0 -162 67q-33 33 -50 73.5t-17 89.5q0 95 67 162t162 67zM647 1223q-69 0 -118.5 -49t-49.5 -119q0 -72 48 -120t120 -48q69 0 118.5 48.5t49.5 119.5q0 69 -49 118.5t-119 49.5z" unicode="˚"/>
<glyph glyph-name="ogonek" d="M455 31h39q-96 -71 -144.5 -140t-48.5 -141q0 -56 30.5 -88.5t84.5 -32.5q33 0 66 21t61 61l22 -14q-34 -62 -81 -94.5t-105 -32.5q-69 0 -112.5 43t-43.5 111q0 78 58.5 156.5t173.5 150.5z" unicode="˛"/>
<glyph glyph-name="tilde" d="M848 1083h29q-18 -71 -55 -109t-87 -38l-20 2l-37 8l-100 27l-40 9l-32 3q-34 0 -53.5 -16.5t-30.5 -52.5l-27 -1q14 75 47 110.5t90 35.5l31 -3l41 -9l98 -27l26 -6l28 -2q33 0 56.5 17.5t35.5 51.5z" unicode="˜"/>
<glyph glyph-name="endash" d="M-25 367l15 61h1024l-10 -61h-1029z" unicode="–"/>
<glyph glyph-name="emdash" horiz-adv-x="2048" unicode="—" d="M2036 428l-8 -61h-2053l17 61h2044z"/>
<glyph glyph-name="quoteleft" horiz-adv-x="508" unicode="‘" d="M358 834l2 -21q-33 -23 -57.5 -46.5t-46.5 -53.5q-34 25 -53 65q-17 40 -17 94q0 83 37 157.5t107 127.5q31 24 67.5 43t48.5 19q7 0 11 -3t6 -10q0 -9 -26 -22q-21 -10 -23 -11q-10 -6 -19 -12q-55 -38 -88 -98t-33 -127q0 -48 20 -74q21 -24 64 -28z"/>
<glyph glyph-name="quoteright" horiz-adv-x="508" unicode="’" d="M230 1098l-3 20q28 20 55 45.5t48 55.5q34 -27 52.5 -67.5t18.5 -92.5q0 -83 -37 -157t-106 -128q-30 -22 -67.5 -41.5t-49.5 -19.5l-11 3q-3 2 -5 7q0 9 25 22l41 23q55 38 88.5 98.5t33.5 128.5q0 50 -19.5 73.5t-63.5 29.5z"/>
<glyph glyph-name="quotesinglbase" horiz-adv-x="508" unicode="‚" d="M115 8l-2 19q17 13 29 23q6 5 27 25q25 24 46 52q37 -29 54.5 -67.5t17.5 -90.5q0 -84 -37 -157t-107 -127q-30 -24 -67 -43t-49 -19l-12 3q-3 2 -5 7q0 9 26 23l39 22q59 41 91.5 100.5t32.5 127.5q0 47 -21 74q-21 23 -63 28z"/>
<glyph glyph-name="quotedblleft" horiz-adv-x="854" unicode="“" d="M702 834l3 -21q-28 -20 -56 -46q-10 -10 -21.5 -23t-25.5 -31q-36 26 -54 65.5t-18 93.5q0 83 37 157.5t107 127.5q31 24 67.5 43t49.5 19q6 0 10 -3t6 -10q0 -9 -25 -22l-41 -23q-56 -38 -89.5 -98t-33.5 -127q0 -48 20 -74q21 -24 64 -28zM358 834l2 -21 q-33 -23 -57.5 -46.5t-46.5 -53.5q-34 25 -53 65q-17 40 -17 94q0 83 37 157.5t107 127.5q31 24 67.5 43t48.5 19q7 0 11 -3t6 -10q0 -9 -26 -22q-21 -10 -23 -11q-10 -6 -19 -12q-55 -38 -88 -98t-33 -127q0 -48 20 -74q21 -24 64 -28z"/>
<glyph glyph-name="quotedblright" horiz-adv-x="854" unicode="”" d="M576 1098l-3 20q28 20 55 45.5t48 55.5q36 -28 54 -68t18 -92q0 -83 -37 -156.5t-107 -128.5q-30 -22 -67.5 -41.5t-49.5 -19.5l-11 3q-3 2 -5 7q0 9 25 22l41 23q55 38 88.5 98.5t33.5 128.5q0 50 -19.5 73.5t-63.5 29.5zM232 1098l-3 20q28 20 55 45.5t48 55.5 q34 -27 52.5 -67.5t18.5 -92.5q0 -83 -37 -157t-106 -128q-30 -22 -67.5 -41.5t-49.5 -19.5l-11 3q-3 2 -5 7q0 9 25 22l41 23q55 38 88.5 98.5t33.5 128.5q0 50 -19.5 73.5t-63.5 29.5z"/>
<glyph glyph-name="quotedblbase" horiz-adv-x="854" unicode="„" d="M115 8l-2 19q17 13 29 23q6 5 27 25q25 24 46 52q37 -29 54.5 -67.5t17.5 -90.5q0 -84 -37 -157t-107 -127q-30 -24 -67 -43t-49 -19l-12 3q-3 2 -5 7q0 9 26 23l39 22q59 41 91.5 100.5t32.5 127.5q0 47 -21 74q-21 23 -63 28zM461 8l-2 19q17 13 29 23q6 5 27 25 q25 24 46 52q37 -29 54.5 -67.5t17.5 -90.5q0 -84 -37 -157t-107 -127q-30 -24 -67 -43t-49 -19l-12 3q-3 2 -5 7q0 9 26 23l39 22q58 41 91 101t33 127q0 47 -20 72t-64 30z"/>
<glyph glyph-name="bullet" horiz-adv-x="1208" unicode="•" d="M307 762q0 122 87.5 208.5t209.5 86.5q121 0 208 -86.5t87 -208.5t-87.5 -209.5t-209.5 -87.5t-208.5 87.5t-86.5 209.5z"/>
<glyph glyph-name="guilsinglleft" horiz-adv-x="451" unicode="‹" d="M57 383q122 94 239.5 197.5t125.5 103.5q6 0 9 -3t3 -9q0 -19 -70 -99t-184 -190q59 -112 97 -195q34 -76 34 -92l-3 -10q-5 -4 -7 -4q-12 0 -86.5 105.5t-157.5 195.5z"/>
<glyph glyph-name="guilsinglright" horiz-adv-x="451" unicode="›" d="M369 383q-123 -93 -239 -196t-124 -105q-6 2 -8 4l-4 10q0 17 69 97q37 42 81.5 88t103.5 102q-54 103 -97 192q-36 77 -36 91l3 13q2 3 7 5q12 0 87 -106.5t157 -194.5z"/>
<glyph glyph-name="franc" horiz-adv-x="1591" unicode="₣" d="M256 45q46 -8 68 -10.5t55 -2.5q70 0 70 -20q0 -7 -8 -12l-21 -4l-90 4l-160 4l-172 -3l-18 -1q-12 0 -20 4q-5 4 -7 12q0 9 9.5 15t25.5 6l12 -1l16 -1q104 0 143 153l5 21l198 846l8 36l3 23q0 26 -30.5 37.5t-113.5 11.5q-18 0 -28.5 4.5t-10.5 14.5q0 5 7 11 q6 3 22 5l16 -1l156 -3h375l79 1l140 3l-5 -41q-18 -137 -40 -137q-8 3 -10 5l-4 13l1 23l1 18q0 34 -29 50t-96 16h-207q-59 0 -77.5 -17.5t-41.5 -111.5l-76 -330h217q57 0 75 6.5t32 26.5q9 12 18.5 34.5t20.5 22.5q6 0 10 -5l4 -11l-20 -61q-18 -55 -31 -123l-3 -25 q0 -39 -19 -39q-6 0 -12 6q-3 5 -5 14l3 30l3 28q0 32 -20 43.5t-88 11.5h-195zM1544 575q-4 2 -21.5 10t-23.5 10q-21 7 -35 7q-60 0 -144.5 -173.5t-133.5 -428.5h-95l101 488l6 32l2 27q0 11 -5 18.5t-13 9.5q-18 0 -55 -34t-97 -107l-27 21q108 135 175.5 208.5 t85.5 73.5q12 0 24 -24.5t12 -61.5q0 -69 -45 -252l-9 -41l9 -4q74 170 147 276.5t109 106.5q25 0 57.5 -23.5t32.5 -47.5q0 -19 -33 -61z"/>
<glyph glyph-name="fraction" horiz-adv-x="371" unicode="∕" d="M-14 -25h-68l809 1248h68z"/>
<glyph glyph-name="apple" horiz-adv-x="1618" unicode="" d="M1505 403q-114 -246 -204.5 -342t-204.5 -96q-49 0 -131 33t-123 33q-44 0 -130.5 -33t-127.5 -33q-64 0 -128 44t-130 132q-100 137 -158 295q-27 78 -41 153t-14 148q0 219 125 356.5t323 137.5q68 0 156.5 -34t122.5 -34q18 0 46 8t75 27q88 35 153 35 q111 0 197.5 -39.5t161.5 -124.5q-101 -64 -151 -145.5t-50 -182.5q0 -111 60 -199.5t173 -138.5zM836 1216l-2 14v23q0 124 95 229t236 132l1 -23l1 -39q0 -131 -103.5 -234.5t-203.5 -103.5h-8l-8 1z"/>
</font>
</defs>
</svg>
