<?xml version="1.0" encoding="UTF-8" standalone="no"?>
<!DOCTYPE svg  PUBLIC '-//W3C//DTD SVG 1.1//EN'  'http://www.w3.org/Graphics/SVG/1.1/DTD/svg11.dtd'>
<svg xmlns="http://www.w3.org/2000/svg">
<defs>
<font id="Albany-Regular" horiz-adv-x="1139">
<font-face underline-position="-142" font-weight="400" descent="-410" panose-1="2 11 6 4 2 2 2 2 2 4" units-per-em="2048" unicode-range="U+0020-2215" bbox="-455 -438 2198 2124" x-height="1042" underline-thickness="150" font-family="Albany" ascent="1638" cap-height="1411"/>
<missing-glyph horiz-adv-x="2048"/>
<glyph glyph-name=".notdef" horiz-adv-x="2048"/>
<glyph glyph-name=".null" horiz-adv-x="0"/>
<glyph glyph-name="nonmarkingreturn" horiz-adv-x="2048"/>
<glyph glyph-name="space" horiz-adv-x="569" unicode=" "/>
<glyph glyph-name="space" horiz-adv-x="569" unicode=" "/>
<glyph glyph-name="exclam" horiz-adv-x="569" unicode="!" d="M283 221q50 0 85 -34t35 -85q0 -50 -35 -84t-85 -34q-51 0 -85 34t-34 84q0 51 34 85t85 34zM383 1077l-37 -712h-117l-41 712v334h195v-334z"/>
<glyph glyph-name="quotedbl" horiz-adv-x="727" unicode='&quot;' d="M287 1192l-35 -301h-111l-39 301v219h185v-219zM625 1192l-35 -301h-111l-39 301v219h185v-219z"/>
<glyph glyph-name="numbersign" d="M745 893h-274l-72 -324h275zM1096 422h-303l-93 -422h-151l92 422h-272l-93 -422h-151l92 422h-174v147h207l72 324h-279v147h309l82 371h150l-82 -371h274l82 371h150l-82 -371h170v-147h-201l-70 -324h271v-147z" unicode="#"/>
<glyph glyph-name="dollar" d="M621 135q114 20 181.5 90t67.5 166q0 82 -59 137t-190 99v-492zM514 852v426q-120 -11 -183 -67t-63 -146q0 -138 199 -199zM94 1059q0 160 110.5 260.5t309.5 116.5v166h107v-166q218 -20 380 -136l-61 -153q-125 108 -319 131v-461q126 -39 210.5 -83t127.5 -93 q85 -99 85 -229q0 -181 -114.5 -299t-308.5 -138v-186h-107v186q-232 11 -424 131l47 158q198 -120 377 -131v529q-180 60 -224 80t-92.5 66t-76 109.5t-27.5 141.5z" unicode="$"/>
<glyph glyph-name="percent" horiz-adv-x="1821" unicode="%" d="M1388 100q65 0 97 60t32 216q0 130 -25.5 203.5t-105.5 73.5q-64 0 -96.5 -57t-32.5 -220q0 -160 33 -218t98 -58zM1388 778q145 0 219 -113t74 -289q0 -173 -74 -287t-219 -114q-144 0 -218.5 108t-74.5 293q0 180 74.5 291t218.5 111zM414 760q64 0 96.5 60t32.5 216 q0 130 -25.5 203.5t-105.5 73.5q-64 0 -96.5 -57t-32.5 -220q0 -160 33 -218t98 -58zM414 1438q145 0 219 -113t74 -289q0 -173 -74 -287t-219 -114q-144 0 -218.5 108t-74.5 293q0 180 74 291t219 111zM1382 1438l-796 -1463h-150l801 1463h145z"/>
<glyph glyph-name="ampersand" horiz-adv-x="1366" unicode="&amp;" d="M897 319l-350 375q-148 -70 -209.5 -139.5t-61.5 -163.5q0 -105 76.5 -180.5t190.5 -75.5q208 0 354 184zM608 887q95 46 143 106t48 133q0 77 -51 120.5t-125 43.5t-120 -44t-46 -118q0 -94 151 -241zM1352 86l-127 -115l-219 234q-99 -121 -207.5 -175.5t-255.5 -54.5 q-207 0 -334 119t-127 299q0 141 88.5 238.5t267.5 177.5q-166 176 -166 319q0 134 96.5 222t252.5 88q152 0 251 -87t99 -221q0 -119 -64.5 -201.5t-197.5 -152.5l282 -305q62 112 101 301l155 -39q-49 -216 -143 -383z"/>
<glyph glyph-name="quotesingle" horiz-adv-x="391" unicode="&apos;" d="M287 1192l-35 -301h-111l-39 301v219h185v-219z"/>
<glyph glyph-name="parenleft" horiz-adv-x="682" unicode="(" d="M616 -285l-73 -47q-211 229 -307.5 439t-96.5 471q0 260 96.5 470t307.5 439l73 -47q-149 -202 -219.5 -408t-70.5 -452q0 -244 69 -450.5t221 -414.5z"/>
<glyph glyph-name="parenright" horiz-adv-x="682" unicode=")" d="M141 1487q211 -229 307.5 -439t96.5 -470q0 -261 -96.5 -471t-307.5 -439l-73 47q149 202 219.5 408.5t70.5 456.5q0 246 -70.5 452t-219.5 408z"/>
<glyph glyph-name="asterisk" horiz-adv-x="797" unicode="*" d="M760 868l-70 -110l-227 149v-270h-129v268l-230 -149l-67 112l244 156l-244 158l67 110l230 -149v268h129v-268l227 149l70 -110l-242 -158z"/>
<glyph glyph-name="plus" horiz-adv-x="1196" unicode="+" d="M1083 604h-407v-407h-156v407h-407v156h407v407h156v-407h407v-156z"/>
<glyph glyph-name="comma" horiz-adv-x="569" unicode="," d="M281 -27q-53 6 -87 43t-34 84q0 51 33.5 86t82.5 35q56 0 97 -45.5t41 -109.5q0 -196 -217 -306l-39 72q123 60 123 141z"/>
<glyph glyph-name="hyphen" horiz-adv-x="682" unicode="-" d="M616 440h-550v170h550v-170z"/>
<glyph glyph-name="period" horiz-adv-x="569" unicode="." d="M283 221q50 0 85 -34t35 -85q0 -50 -35 -84t-85 -34q-51 0 -85 34t-34 84q0 51 34 85t85 34z"/>
<glyph glyph-name="slash" horiz-adv-x="569" unicode="/" d="M569 1438l-424 -1463h-145l424 1463h145z"/>
<glyph glyph-name="zero" d="M569 127q143 0 216 131t73 449q0 300 -68.5 438.5t-222.5 138.5q-143 0 -214.5 -144.5t-71.5 -432.5q0 -290 72 -435t216 -145zM1042 715q0 -380 -118 -561t-352 -181h-3q-238 0 -355.5 182.5t-117.5 559.5q0 361 118 542t355 181q236 0 354.5 -181t118.5 -542z" unicode="0"/>
<glyph glyph-name="one" d="M739 0h-180v1174q-126 -125 -360 -125v168q285 0 409 206h131v-1423z" unicode="1"/>
<glyph glyph-name="two" d="M1020 0h-938v147q250 234 415 381t242.5 264.5t77.5 239.5q0 116 -80 184t-207 68q-175 0 -370 -102l-51 143q209 113 436 113q203 0 329.5 -114t126.5 -292q0 -133 -81 -263t-263 -292l-348 -313h711v-164z" unicode="2"/>
<glyph glyph-name="three" d="M745 776q125 -39 198 -135t73 -225q0 -183 -143.5 -313t-360.5 -130q-250 0 -457 129l51 144q188 -119 392 -119q140 0 233.5 81.5t93.5 205.5q0 135 -93.5 205.5t-272.5 70.5h-45v152q370 0 370 217q0 105 -77 165t-209 60q-170 0 -342 -102l-52 143q197 113 404 113 q214 0 337.5 -103t123.5 -276q0 -192 -224 -279v-4z" unicode="3"/>
<glyph glyph-name="four" d="M684 477v651l-451 -651h451zM1075 311h-211v-311h-180v311h-627v166l660 944h147v-944h211v-166z" unicode="4"/>
<glyph glyph-name="five" d="M330 854q98 29 196 29q229 0 366.5 -122.5t137.5 -324.5q0 -203 -138.5 -333t-365.5 -130q-249 0 -456 129l51 144q189 -119 391 -119q141 0 234.5 86t93.5 223q0 133 -92 213t-236 80q-97 0 -186 -33l-152 29v686h797v-164h-641v-393z" unicode="5"/>
<glyph glyph-name="six" d="M598 131q134 0 206.5 88t72.5 244q0 149 -76.5 238.5t-208.5 89.5q-36 0 -73 -11t-71 -31t-63.5 -47t-59.5 -69t-30 -58q0 -172 79 -308t224 -136zM289 780q48 75 140 119.5t194 44.5q185 0 311.5 -131t126.5 -338q0 -222 -121 -362t-338 -140q-242 0 -370 182t-128 529 q0 369 145 561.5t398 192.5q186 0 342 -97l-57 -143q-141 86 -285 86q-170 0 -262 -126.5t-96 -377.5z" unicode="6"/>
<glyph glyph-name="seven" d="M1022 1272l-623 -1272h-190l614 1247h-719v164h918v-139z" unicode="7"/>
<glyph glyph-name="eight" d="M569 127q126 0 211.5 81.5t85.5 207.5q0 116 -88 198t-209 82q-122 0 -210.5 -83t-88.5 -197q0 -130 82 -209.5t217 -79.5zM569 850q102 0 170 59.5t68 161.5q0 96 -66.5 154.5t-173.5 58.5q-106 0 -171.5 -58t-65.5 -155q0 -104 72 -162.5t167 -58.5zM776 776 q130 -43 202.5 -138t72.5 -222q0 -189 -135 -316t-347 -127q-213 0 -348 127.5t-135 317.5q0 123 72 217.5t200 140.5q-95 28 -154 110t-59 185q0 156 113 261.5t309 105.5q192 0 308 -104.5t116 -262.5q0 -104 -58 -185t-157 -110z" unicode="8"/>
<glyph glyph-name="nine" d="M557 616q36 0 73 11.5t71 32t63.5 48t59.5 70t30 58.5q0 163 -80.5 305.5t-222.5 142.5q-130 0 -204.5 -92t-74.5 -244q0 -150 77.5 -241t207.5 -91zM860 631q-49 -77 -141 -122.5t-193 -45.5q-185 0 -311.5 132.5t-126.5 340.5q0 220 121.5 361t337.5 141 q240 0 368.5 -183.5t128.5 -527.5q0 -367 -145 -560.5t-397 -193.5q-85 0 -186 28t-181 77l58 143q158 -94 309 -94q170 0 262.5 127t95.5 377z" unicode="9"/>
<glyph glyph-name="colon" horiz-adv-x="569" unicode=":" d="M283 221q50 0 85 -34t35 -85q0 -50 -35 -84t-85 -34q-51 0 -85 34t-34 84q0 51 34 85t85 34zM283 1061q50 0 85 -34.5t35 -84.5t-35 -84.5t-85 -34.5q-51 0 -85 34.5t-34 84.5q0 51 34 85t85 34z"/>
<glyph glyph-name="semicolon" horiz-adv-x="569" unicode=";" d="M281 -27q-53 6 -87 43t-34 84q0 51 33.5 86t82.5 35q56 0 97 -45.5t41 -109.5q0 -196 -217 -306l-39 72q123 60 123 141zM283 1061q50 0 85 -34.5t35 -84.5t-35 -84.5t-85 -34.5q-51 0 -85 34.5t-34 84.5q0 51 34 85t85 34z"/>
<glyph glyph-name="less" horiz-adv-x="1196" unicode="&lt;" d="M1083 184l-970 414v168l970 410v-170l-786 -324l786 -328v-170z"/>
<glyph glyph-name="equal" horiz-adv-x="1196" unicode="=" d="M1083 387h-970v156h970v-156zM1083 821h-970v156h970v-156z"/>
<glyph glyph-name="greater" horiz-adv-x="1196" unicode="&gt;" d="M1083 598l-970 -414v170l786 328l-786 324v170l970 -410v-168z"/>
<glyph glyph-name="question" d="M532 221q51 0 86 -34t35 -85q0 -50 -35 -84t-86 -34q-50 0 -84 34t-34 84q0 51 34 85t84 34zM104 1325q210 113 406 113q220 0 360 -111t140 -285q0 -80 -35 -158.5t-172 -193.5q-99 -83 -149 -152t-52 -178h-156q3 111 34.5 188.5t75.5 125.5t114 106q105 88 130 141.5 t25 108.5q0 115 -86.5 187.5t-228.5 72.5q-156 0 -348 -102z" unicode="?"/>
<glyph glyph-name="at" horiz-adv-x="2079" unicode="@" d="M1298 764q-81 172 -260 172q-151 0 -253.5 -165t-102.5 -341q0 -131 59 -207t156 -76q70 0 139.5 34.5t126.5 106.5t66 115zM1806 -231q-120 -67 -324.5 -119.5t-389.5 -52.5q-438 0 -695.5 236.5t-257.5 651.5q0 265 121 485.5t339.5 344t496.5 123.5 q367 0 606.5 -226.5t239.5 -543.5q0 -284 -160.5 -476t-378.5 -192q-173 0 -213 170q-121 -170 -330 -170q-156 0 -259 120.5t-103 305.5q0 251 164 454t387 203q178 0 284 -151l25 123h174l-135 -682q-19 -92 -19 -148q0 -35 15.5 -56.5t40.5 -21.5q132 0 242 145t110 372 q0 261 -194.5 443.5t-493.5 182.5q-358 0 -580.5 -226t-222.5 -579q0 -349 215.5 -545t579.5 -196q172 0 363 46.5t304 105.5z"/>
<glyph glyph-name="A" horiz-adv-x="1366" unicode="A" d="M911 637l-227 555l-227 -555h454zM1358 0h-197l-194 481h-570l-192 -481h-195l586 1411h176z"/>
<glyph glyph-name="B" horiz-adv-x="1366" unicode="B" d="M348 156h359q162 0 261 71.5t99 196.5q0 120 -101 190t-270 70h-348v-528zM348 840h348q141 0 232.5 59t91.5 158q0 198 -328 198h-344v-415zM948 766q148 -27 230 -118.5t82 -225.5q0 -194 -149 -308t-353 -114h-594v1411h553q231 0 361 -92.5t130 -259.5 q0 -103 -68.5 -180.5t-191.5 -112.5z"/>
<glyph glyph-name="C" horiz-adv-x="1479" unicode="C" d="M96 700q0 327 203.5 532.5t534.5 205.5q323 0 561 -195l-84 -145q-219 184 -477 184q-246 0 -394.5 -161.5t-148.5 -420.5t146.5 -415t396.5 -156q266 0 499 188l82 -143q-251 -201 -581 -201q-342 0 -540 199t-198 528z"/>
<glyph glyph-name="D" horiz-adv-x="1479" unicode="D" d="M348 156h316q249 0 383.5 142.5t134.5 406.5q0 265 -135.5 407.5t-382.5 142.5h-316v-1099zM164 1411h498q332 0 523 -185t191 -519q0 -317 -191.5 -512t-516.5 -195h-504v1411z"/>
<glyph glyph-name="E" horiz-adv-x="1366" unicode="E" d="M1241 0h-1077v1411h1057v-156h-873v-442h789v-156h-789v-501h893v-156z"/>
<glyph glyph-name="F" horiz-adv-x="1251" unicode="F" d="M1141 1255h-793v-495h770v-156h-770v-604h-184v1411h977v-156z"/>
<glyph glyph-name="G" horiz-adv-x="1593" unicode="G" d="M1430 121q-233 -148 -568 -148q-350 0 -558 205.5t-208 526.5q0 322 203.5 527.5t534.5 205.5q317 0 561 -195l-84 -145q-220 184 -477 184q-251 0 -397 -164t-146 -413q0 -269 156 -422.5t434 -153.5q228 0 364 84v319h-387v156h572v-567z"/>
<glyph glyph-name="H" horiz-adv-x="1479" unicode="H" d="M1315 0h-185v668h-782v-668h-184v1411h184v-588h782v588h185v-1411z"/>
<glyph glyph-name="I" horiz-adv-x="569" unicode="I" d="M377 0h-184v1411h184v-1411z"/>
<glyph glyph-name="J" horiz-adv-x="1024" unicode="J" d="M860 457q0 -484 -420 -484q-221 0 -397 181l76 147q69 -77 156 -124.5t165 -47.5q236 0 236 315v967h184v-954z"/>
<glyph glyph-name="K" horiz-adv-x="1366" unicode="K" d="M1354 0h-230l-596 711l-180 -164v-547h-184v1411h184v-672l711 672h223l-627 -586z"/>
<glyph glyph-name="L" d="M1077 0h-913v1411h184v-1255h729v-156z" unicode="L"/>
<glyph glyph-name="M" horiz-adv-x="1706" unicode="M" d="M1542 0h-184v1182l-432 -1182h-150l-444 1184v-1184h-168v1411h254l440 -1169l428 1169h256v-1411z"/>
<glyph glyph-name="N" horiz-adv-x="1479" unicode="N" d="M1315 0h-209l-770 1159v-1159h-172v1411h209l772 -1161v1161h170v-1411z"/>
<glyph glyph-name="O" horiz-adv-x="1593" unicode="O" d="M799 129q236 0 370 154.5t134 421.5q0 263 -135.5 420t-368.5 157q-236 0 -372 -157t-136 -420q0 -264 132.5 -420t375.5 -156zM799 1438q319 0 508.5 -201.5t189.5 -531.5q0 -318 -192 -525t-506 -207q-316 0 -509.5 207t-193.5 525q0 327 187.5 530t515.5 203z"/>
<glyph glyph-name="P" horiz-adv-x="1366" unicode="P" d="M348 717h389q155 0 239.5 73.5t84.5 204.5q0 116 -86 188t-238 72h-389v-538zM164 1411h594q221 0 356 -116.5t135 -297.5q0 -183 -131.5 -309.5t-361.5 -126.5h-408v-561h-184v1411z"/>
<glyph glyph-name="Q" horiz-adv-x="1593" unicode="Q" d="M799 129q236 0 371 154.5t135 421.5q0 262 -136 419.5t-370 157.5q-236 0 -372 -157t-136 -420q0 -264 132.5 -420t375.5 -156zM805 -27h-6q-316 0 -509.5 207t-193.5 525q0 327 187.5 530t515.5 203q320 0 510 -202t190 -531q0 -252 -131.5 -446t-357.5 -259 q95 -147 262 -147q84 0 164 16l26 -143q-114 -29 -192 -29q-176 0 -272.5 64.5t-192.5 211.5z"/>
<glyph glyph-name="R" horiz-adv-x="1479" unicode="R" d="M348 731h375q169 0 261.5 68.5t92.5 195.5q0 260 -368 260h-361v-524zM1442 0h-230l-485 575h-379v-575h-184v1411h569q252 0 393.5 -107.5t141.5 -306.5q0 -149 -92 -252.5t-244 -142.5z"/>
<glyph glyph-name="S" horiz-adv-x="1366" unicode="S" d="M1122 1139q-81 61 -202.5 101t-229.5 40q-164 0 -262 -60.5t-98 -154.5q0 -68 64 -121t320 -122q170 -46 275.5 -87.5t180.5 -120t75 -202.5q0 -207 -164 -323t-397 -116q-308 0 -561 133l55 158q256 -133 498 -133q171 0 280 72t109 188q0 73 -53 121.5t-131.5 77.5 t-214.5 67q-167 45 -269.5 86t-174.5 117.5t-72 198.5q0 171 146 275t394 104q119 0 256 -38.5t250 -107.5z"/>
<glyph glyph-name="T" horiz-adv-x="1251" unicode="T" d="M1206 1255h-491v-1255h-185v1255h-487v156h1163v-156z"/>
<glyph glyph-name="U" horiz-adv-x="1479" unicode="U" d="M1321 520q0 -248 -153 -397.5t-429 -149.5q-275 0 -428 148t-153 395v895h184v-883q0 -184 106 -288.5t291 -104.5q189 0 299.5 106t110.5 291v879h172v-891z"/>
<glyph glyph-name="V" horiz-adv-x="1366" unicode="V" d="M1358 1411l-588 -1411h-176l-586 1411h197l477 -1192l481 1192h195z"/>
<glyph glyph-name="W" horiz-adv-x="1933" unicode="W" d="M1901 1411l-402 -1411h-176l-356 1178l-377 -1178h-176l-383 1411h196l287 -1132l360 1132h183l358 -1132l301 1132h185z"/>
<glyph glyph-name="X" horiz-adv-x="1366" unicode="X" d="M1323 0h-213l-424 602l-424 -602h-213l533 750l-467 661h207l364 -514l367 514h202l-464 -659z"/>
<glyph glyph-name="Y" horiz-adv-x="1366" unicode="Y" d="M1356 1411l-582 -872v-539h-184v539l-580 872h205l467 -725l481 725h193z"/>
<glyph glyph-name="Z" horiz-adv-x="1251" unicode="Z" d="M1184 0h-1116v131l864 1124h-834v156h1053v-135l-856 -1120h889v-156z"/>
<glyph glyph-name="bracketleft" horiz-adv-x="569" unicode="[" d="M537 -408h-398v1895h398v-144h-224v-1607h224v-144z"/>
<glyph glyph-name="backslash" horiz-adv-x="569" unicode="\" d="M569 -25h-145l-424 1463h145z"/>
<glyph glyph-name="bracketright" horiz-adv-x="569" unicode="]" d="M430 -408h-397v144h223v1587h-223v143h397v-1874z"/>
<glyph glyph-name="asciicircum" horiz-adv-x="961" unicode="^" d="M909 637h-172l-256 614l-254 -614h-172l355 801h145z"/>
<glyph glyph-name="underscore" d="M1151 -407h-1163v130h1163v-130z" unicode="_"/>
<glyph glyph-name="grave" horiz-adv-x="682" unicode="`" d="M524 1159h-147l-262 281h235z"/>
<glyph glyph-name="a" d="M813 299v199q-224 -13 -293.5 -20.5t-135.5 -32.5t-100 -68t-34 -107q0 -66 51 -106.5t131 -40.5q102 0 209 48.5t172 127.5zM1044 0h-188q-16 25 -27.5 71t-11.5 76q-185 -174 -407 -174q-147 0 -238.5 76.5t-91.5 212.5q0 108 54.5 182.5t164 116.5t278.5 53l236 15v33 q0 146 -58 203t-204 57q-70 0 -173.5 -30.5t-174.5 -70.5l-51 133q84 50 205.5 81.5t222.5 31.5q208 0 307.5 -94t99.5 -287v-438q0 -163 57 -248z" unicode="a"/>
<glyph glyph-name="b" d="M313 748v-445q40 -73 115.5 -124.5t155.5 -51.5q137 0 215 105t78 294q0 186 -77 287.5t-216 101.5q-70 0 -143.5 -46.5t-127.5 -120.5zM313 915q128 152 318 152q182 0 304 -145.5t122 -380.5q0 -261 -122.5 -414.5t-309.5 -153.5q-191 0 -312 148v-121h-174v1487h174 v-572z" unicode="b"/>
<glyph glyph-name="c" horiz-adv-x="1024" unicode="c" d="M82 522q0 258 148 401.5t368 143.5q186 0 354 -98l-51 -140q-145 89 -301 89q-148 0 -243 -108t-95 -288q0 -183 97 -291t243 -108q149 0 313 102l54 -137q-174 -115 -367 -115q-231 0 -375.5 150.5t-144.5 398.5z"/>
<glyph glyph-name="d" d="M825 303v445q-35 71 -109.5 119t-160.5 48q-140 0 -216.5 -101.5t-76.5 -287.5q0 -188 80 -293.5t219 -105.5q55 0 114 26.5t104.5 77t45.5 72.5zM999 -2h-174v129q-113 -154 -305 -154q-200 0 -319 152t-119 416q0 235 122 380.5t304 145.5q210 0 317 -152v572h174 v-1489z" unicode="d"/>
<glyph glyph-name="e" d="M850 643q-13 127 -92 202t-187 75q-119 0 -199 -72.5t-104 -204.5h582zM1055 94q-221 -121 -432 -121q-255 0 -398 147t-143 402q0 244 132.5 394.5t358.5 150.5q203 0 332 -139.5t129 -372.5v-47h-772q8 -187 100.5 -286t258.5 -99q195 0 383 113z" unicode="e"/>
<glyph glyph-name="f" horiz-adv-x="569" unicode="f" d="M645 1462l-41 -135q-85 25 -139 25q-61 0 -85 -49.5t-24 -157.5v-103h228v-143h-228v-899h-174v899h-174v143h174v127q0 181 68 256.5t213 75.5q81 0 182 -39z"/>
<glyph glyph-name="g" d="M825 303v445q-35 71 -109.5 119t-160.5 48q-140 0 -216.5 -101.5t-76.5 -287.5q0 -188 80 -293.5t219 -105.5q55 0 114 26.5t104.5 77t45.5 72.5zM999 -31q0 -194 -118 -295.5t-338 -101.5q-222 0 -428 113l47 141q204 -105 383 -105q133 0 206.5 65t73.5 185v156 q-113 -154 -305 -154q-203 0 -320.5 151t-117.5 417q0 235 122 380.5t304 145.5q206 0 317 -152v125h174v-1071z" unicode="g"/>
<glyph glyph-name="h" d="M1004 0h-175v664q0 119 -58.5 185t-158.5 66q-157 0 -299 -170v-745h-174v1487h174v-592q164 172 346 172q160 0 252.5 -93.5t92.5 -264.5v-709z" unicode="h"/>
<glyph glyph-name="i" horiz-adv-x="455" unicode="i" d="M227 1487q44 0 75.5 -31.5t31.5 -75.5q0 -42 -31.5 -73t-75.5 -31q-42 0 -73 31t-31 73q0 45 30.5 76t73.5 31zM315 0h-174v1042h174v-1042z"/>
<glyph glyph-name="j" horiz-adv-x="455" unicode="j" d="M227 1487q44 0 75.5 -31.5t31.5 -75.5q0 -42 -31.5 -73t-75.5 -31q-42 0 -73 31t-31 73q0 45 30.5 76t73.5 31zM315 -92q0 -173 -62.5 -254.5t-201.5 -81.5q-74 0 -162 35l33 135q66 -21 111 -21q63 0 85.5 44.5t22.5 140.5v1136h174v-1134z"/>
<glyph glyph-name="k" horiz-adv-x="1024" unicode="k" d="M1016 0h-205l-375 516l-123 -117v-399h-174v1487h174v-907l443 462h200l-407 -415z"/>
<glyph glyph-name="l" horiz-adv-x="455" unicode="l" d="M315 0h-174v1487h174v-1487z"/>
<glyph glyph-name="m" horiz-adv-x="1706" unicode="m" d="M1571 0h-174v664q0 125 -49.5 188t-147.5 63q-62 0 -132.5 -39t-127.5 -108q2 -17 2 -59v-709h-174v664q0 125 -46.5 188t-139.5 63q-139 0 -269 -170v-745h-174v1042h174v-147q137 172 316 172q211 0 284 -174q143 174 334 174q156 0 240 -92t84 -266v-709z"/>
<glyph glyph-name="n" d="M1004 0h-175v664q0 119 -58.5 185t-158.5 66q-157 0 -299 -170v-745h-174v1042h174v-147q164 172 346 172q160 0 252.5 -93.5t92.5 -264.5v-709z" unicode="n"/>
<glyph glyph-name="o" d="M571 127q142 0 225 114t83 279q0 178 -80.5 285.5t-227.5 107.5q-148 0 -228.5 -107t-80.5 -286q0 -166 83 -279.5t226 -113.5zM571 1067q225 0 356.5 -150t131.5 -397t-131.5 -397t-356.5 -150q-226 0 -357.5 149.5t-131.5 397.5q0 249 131.5 398t357.5 149z" unicode="o"/>
<glyph glyph-name="p" d="M313 748v-445q40 -73 115.5 -124.5t155.5 -51.5q137 0 215 105t78 294q0 186 -77 287.5t-216 101.5q-70 0 -143.5 -46.5t-127.5 -120.5zM313 915q128 152 318 152q182 0 304 -145.5t122 -380.5q0 -261 -122.5 -414.5t-309.5 -153.5q-191 0 -312 148v-529h-174v1469h174 v-146z" unicode="p"/>
<glyph glyph-name="q" d="M825 303v445q-35 71 -109.5 119t-160.5 48q-140 0 -216.5 -101.5t-76.5 -287.5q0 -188 80 -293.5t219 -105.5q55 0 114 26.5t104.5 77t45.5 72.5zM999 -408h-174v535q-113 -154 -305 -154q-199 0 -318.5 152.5t-119.5 415.5q0 235 122 380.5t304 145.5q98 0 182.5 -41 t134.5 -111v144h174v-1467z" unicode="q"/>
<glyph glyph-name="r" horiz-adv-x="682" unicode="r" d="M700 1026l-51 -149q-46 28 -84 28q-55 0 -105 -53t-98.5 -156t-48.5 -104v-592h-174v1042h164v-241q75 155 134 210.5t138 55.5q75 0 125 -41z"/>
<glyph glyph-name="s" horiz-adv-x="1024" unicode="s" d="M834 825q-159 95 -310 95q-120 0 -184 -37t-64 -103q0 -47 42.5 -77.5t135.5 -57.5l138 -39q199 -56 271.5 -127.5t72.5 -181.5q0 -152 -113.5 -238t-306.5 -86q-227 0 -416 105l52 137q177 -94 354 -94q260 0 260 155q0 60 -54 101t-233 90q-144 40 -197 61.5t-95 57 t-61.5 79.5t-19.5 99q0 136 108 219.5t310 83.5q85 0 186 -27.5t181 -76.5z"/>
<glyph glyph-name="t" horiz-adv-x="569" unicode="t" d="M569 6q-97 -33 -155 -33q-135 0 -196.5 76t-61.5 238v612h-127v143h127v285h174v-285h200v-143h-200v-604q0 -172 106 -172q46 0 101 20z"/>
<glyph glyph-name="u" d="M999 0h-174v145q-163 -172 -346 -172q-160 0 -252 93.5t-92 265.5v710h174v-665q0 -118 58.5 -185t158.5 -67q157 0 299 170v747h174v-1042z" unicode="u"/>
<glyph glyph-name="v" horiz-adv-x="1024" unicode="v" d="M1008 1042l-416 -1042h-160l-416 1042h179l317 -827l317 827h179z"/>
<glyph glyph-name="w" horiz-adv-x="1479" unicode="w" d="M1450 1042l-309 -1042h-150l-254 838l-254 -838h-149l-309 1042h180l209 -804l239 804h168l240 -804l209 804h180z"/>
<glyph glyph-name="x" horiz-adv-x="1024" unicode="x" d="M991 0h-188l-293 418l-291 -418h-188l385 541l-359 501h193l260 -372l264 372h178l-348 -497z"/>
<glyph glyph-name="y" horiz-adv-x="1024" unicode="y" d="M1008 1042l-422 -1060q-77 -193 -167 -300.5t-255 -107.5q-81 0 -176 41l37 139q93 -30 143 -30q83 0 148.5 70t113.5 210l-414 1038h179l317 -827l317 827h179z"/>
<glyph glyph-name="z" horiz-adv-x="1024" unicode="z" d="M985 0h-922v119l639 770h-624v153h856v-110l-639 -778h690v-154z"/>
<glyph glyph-name="braceleft" horiz-adv-x="684" unicode="{" d="M635 -428h-55q-83 0 -143 14.5t-104 72t-53.5 132t-9.5 270.5q0 126 -12 207t-58.5 135t-142.5 56v143q102 2 148 61.5t55.5 142t9.5 260.5q0 148 12 219.5t56 123.5t98.5 65t143.5 13h55v-144h-31q-115 0 -140.5 -45t-25.5 -170q0 -296 -37.5 -422.5t-156.5 -175.5 q87 -39 130.5 -106.5t53.5 -154.5t10 -299q0 -171 25 -213t141 -42h31v-143z"/>
<glyph glyph-name="bar" horiz-adv-x="532" unicode="|" d="M344 -387h-156v1874h156v-1874z"/>
<glyph glyph-name="braceright" horiz-adv-x="684" unicode="}" d="M627 449q-96 -2 -143.5 -53.5t-58 -126t-11.5 -208.5q-2 -184 -13 -263.5t-55.5 -138.5t-104.5 -74t-137 -15h-55v156h31q97 0 131.5 37.5t34.5 168.5q0 220 9.5 318t53 164.5t146.5 115.5q-102 42 -155.5 134t-53.5 319q0 209 -9 255.5t-34.5 71.5t-122.5 25h-31v156h55 q77 0 137.5 -15.5t106 -76t56 -138.5t10.5 -262q0 -129 10.5 -205t58.5 -128t144 -54v-163z"/>
<glyph glyph-name="asciitilde" horiz-adv-x="1196" unicode="~" d="M1110 653q-119 -114 -276 -114q-105 0 -244 61q-144 72 -242 72q-127 0 -260 -135v172q106 120 277 120q107 0 274 -69q131 -66 213 -66q129 0 258 137v-178z"/>
<glyph glyph-name="exclamdown" horiz-adv-x="682" unicode="¡" d="M438 -360h-194v333l37 713h116l41 -713v-333zM344 1067q51 0 85 -34t34 -85q0 -50 -34 -84.5t-85 -34.5t-86 34.5t-35 84.5t35 84.5t86 34.5z"/>
<glyph glyph-name="cent" d="M578 131v778q-122 -29 -191.5 -132.5t-69.5 -254.5q0 -150 69.5 -255t191.5 -136zM1024 88q-160 -105 -330 -113v-219h-116v221q-206 30 -323.5 177.5t-117.5 367.5q0 223 118 368t323 173v190h116v-188q167 -11 314 -96l-52 -140q-127 77 -262 86v-790q130 8 277 100z " unicode="¢"/>
<glyph glyph-name="sterling" d="M1081 0h-942v170q107 66 155 132.5t48 154.5q0 74 -39 180h-188v147h129q-64 151 -64 250q0 187 129 295.5t320 108.5q212 0 413 -113l-51 -143q-175 102 -352 102q-126 0 -202.5 -68.5t-76.5 -181.5q0 -94 66 -250h354v-147h-297q39 -106 39 -180q0 -171 -184 -283h743 v-174z" unicode="£"/>
<glyph glyph-name="currency" d="M569 422q107 0 183.5 76.5t76.5 183.5q0 106 -78.5 182t-181.5 76q-107 0 -183.5 -75.5t-76.5 -182.5q0 -108 76.5 -184t183.5 -76zM1061 309l-115 -119l-139 140q-107 -72 -238 -72q-130 0 -237 72l-139 -140l-115 119l139 135q-72 113 -72 236q0 125 72 235l-139 138 l115 118l139 -139q107 72 237 72q131 0 238 -72l139 139l115 -118l-139 -138q71 -110 71 -235q0 -123 -71 -236z" unicode="¤"/>
<glyph glyph-name="yen" d="M1137 1411l-410 -754h305v-139h-368v-127h368v-139h-368v-252h-185v252h-368v139h368v127h-368v139h303l-410 754h205l362 -725l373 725h193z" unicode="¥"/>
<glyph glyph-name="brokenbar" horiz-adv-x="532" unicode="¦" d="M344 -387h-156v766h156v-766zM344 721h-156v766h156v-766z"/>
<glyph glyph-name="section" d="M748 264q133 98 133 215q0 62 -54 123.5t-265 170.5q-114 60 -163 89q-133 -94 -133 -213q0 -62 53 -123t263 -170q116 -61 166 -92zM895 1245q-158 94 -309 94q-110 0 -179 -44t-69 -111q0 -53 48 -106.5t244 -153.5q134 -69 217.5 -123.5t143.5 -135t60 -186.5 q0 -168 -201 -289q129 -108 129 -245q0 -136 -117.5 -230t-302.5 -94q-227 0 -416 105l52 137q177 -94 354 -94q118 0 189 51.5t71 124.5q0 53 -48.5 106t-243.5 153q-134 69 -218 123.5t-143.5 135t-59.5 186.5q0 164 199 289q-127 109 -127 246q0 138 110 220.5t308 82.5 q85 0 186 -27.5t180 -77.5z" unicode="§"/>
<glyph glyph-name="dieresis" horiz-adv-x="682" unicode="¨" d="M156 1405q43 0 74.5 -31.5t31.5 -75.5q0 -42 -31.5 -73t-74.5 -31t-74 31t-31 73q0 45 30.5 76t74.5 31zM526 1405q44 0 75.5 -31.5t31.5 -75.5q0 -42 -32 -73t-75 -31q-42 0 -73 31t-31 73q0 45 30.5 76t73.5 31z"/>
<glyph glyph-name="copyright" horiz-adv-x="1509" unicode="©" d="M1122 387q-140 -113 -350 -113q-207 0 -330 120.5t-123 316.5q0 193 126.5 317.5t326.5 124.5t338 -109l-51 -102q-121 92 -287 92q-137 0 -217 -89.5t-80 -233.5q0 -147 79 -232.5t218 -85.5q173 0 301 94zM754 84q255 0 438.5 183t183.5 438t-183.5 438.5t-438.5 183.5 q-256 0 -439.5 -183.5t-183.5 -438.5q0 -257 183 -439t440 -182zM754 1438q301 0 517 -216t216 -517q0 -196 -98.5 -366t-269 -268t-365.5 -98q-302 0 -518 215.5t-216 516.5q0 195 99 365.5t269 269t366 98.5z"/>
<glyph glyph-name="ordfeminine" horiz-adv-x="758" unicode="ª" d="M524 950v125q-215 -14 -267 -49t-52 -98q0 -39 28 -65.5t68 -26.5q123 0 223 114zM698 745h-147q-25 40 -25 97q-102 -115 -239 -115q-98 0 -161 52.5t-63 142.5q0 53 22 95t64.5 72t106 47.5t146.5 22.5l122 8v9q0 88 -30.5 122.5t-122.5 34.5q-102 0 -224 -63l-32 98 q131 70 274 70q135 0 202.5 -62t67.5 -186v-275q0 -117 39 -170z"/>
<glyph glyph-name="guillemotleft" d="M575 113h-147l-338 415l338 416h147l-280 -416zM1049 113h-148l-338 415l338 416h148l-281 -416z" unicode="«"/>
<glyph glyph-name="logicalnot" horiz-adv-x="1196" unicode="¬" d="M1083 362h-157v459h-813v156h970v-615z"/>
<glyph glyph-name="uni00AD" horiz-adv-x="682" unicode="­" d="M616 440h-550v170h550v-170z"/>
<glyph glyph-name="registered" horiz-adv-x="1509" unicode="®" d="M571 768h172q185 0 185 135q0 131 -195 131h-162v-266zM1188 305h-180l-281 344h-156v-344h-151v848h332q152 0 241.5 -65.5t89.5 -184.5q0 -88 -52 -150t-138 -85zM754 84q255 0 438.5 183t183.5 438t-183.5 438.5t-438.5 183.5q-256 0 -439.5 -183.5t-183.5 -438.5 q0 -257 183 -439t440 -182zM754 1438q301 0 517 -216t216 -517q0 -196 -98.5 -366t-269 -268t-365.5 -98q-302 0 -518 215.5t-216 516.5q0 195 99 365.5t269 269t366 98.5z"/>
<glyph glyph-name="uni00AF" horiz-adv-x="1131" unicode="¯" d="M1143 1542h-1155v103h1155v-103z"/>
<glyph glyph-name="degree" horiz-adv-x="819" unicode="°" d="M410 1020q61 0 104 42t43 103t-43 104.5t-104 43.5q-62 0 -105 -43.5t-43 -104.5t43 -103t105 -42zM410 1438q111 0 191.5 -80.5t80.5 -192.5t-80 -191t-192 -79t-192.5 79.5t-80.5 190.5q0 112 80.5 192.5t192.5 80.5z"/>
<glyph glyph-name="plusminus" horiz-adv-x="1124" unicode="±" d="M1047 0h-970v156h970v-156zM1047 666h-407v-408h-156v408h-407v155h407v408h156v-408h407v-155z"/>
<glyph glyph-name="twosuperior" horiz-adv-x="682" unicode="²" d="M631 573h-580v103q270 235 343 313.5t73 175.5q0 66 -41 107t-111 41q-117 0 -221 -53l-31 110q129 68 261 68q138 0 216 -72.5t78 -196.5q0 -85 -49 -163.5t-164 -173.5l-161 -134h387v-125z"/>
<glyph glyph-name="threesuperior" horiz-adv-x="682" unicode="³" d="M475 1034q156 -51 156 -211q0 -105 -97 -184.5t-231 -79.5q-146 0 -274 76l30 119q130 -70 236 -70q83 0 129.5 37t46.5 102q0 146 -199 146h-28v125q202 0 202 116q0 48 -39.5 75.5t-111.5 27.5q-97 0 -205 -62l-31 119q122 68 242 68q139 0 220 -61t81 -167 q0 -122 -127 -174v-2z"/>
<glyph glyph-name="acute" horiz-adv-x="682" unicode="´" d="M567 1440l-262 -281h-147l174 281h235z"/>
<glyph glyph-name="uni00B5" horiz-adv-x="1180" unicode="µ" d="M1024 0h-175v166q-38 -85 -120.5 -139t-182.5 -54q-134 0 -213 58v-369h-174v1380h174v-663q0 -121 64.5 -187.5t173.5 -66.5q70 0 132 37t104 107t42 98v675h175v-1042z"/>
<glyph glyph-name="paragraph" horiz-adv-x="1100" unicode="¶" d="M1083 1251h-155v-1659h-156v1659h-194v-1659h-156v992q-188 14 -296 131t-108 276q0 199 127 310.5t347 111.5h591v-162z"/>
<glyph glyph-name="uni00B7" horiz-adv-x="569" unicode="·" d="M283 819q50 0 85 -34t35 -85q0 -50 -34.5 -84t-85.5 -34t-85 34t-34 84q0 51 34 85t85 34z"/>
<glyph glyph-name="cedilla" horiz-adv-x="682" unicode="¸" d="M348 -82q104 -10 156.5 -47t52.5 -102q0 -92 -96.5 -145.5t-229.5 -53.5q-34 0 -114 4l10 123q43 -4 102 -4q56 0 105 19t49 48q0 35 -40 53t-120 19l41 205h105z"/>
<glyph glyph-name="onesuperior" horiz-adv-x="682" unicode="¹" d="M469 573h-152v682q-70 -71 -198 -71v116q144 0 219 123h131v-850z"/>
<glyph glyph-name="ordmasculine" horiz-adv-x="748" unicode="º" d="M373 836q85 0 132.5 69t47.5 176q0 115 -46.5 180.5t-133.5 65.5q-92 0 -137.5 -61.5t-45.5 -184.5q0 -108 48 -176.5t135 -68.5zM373 1438q145 0 232 -98.5t87 -258.5t-87 -258t-232 -98q-148 0 -236 98t-88 258q0 159 86.5 258t237.5 99z"/>
<glyph glyph-name="guillemotright" d="M575 528l-337 -415h-148l281 415l-281 416h148zM1049 528l-338 -415h-148l281 415l-281 416h148z" unicode="»"/>
<glyph glyph-name="onequarter" horiz-adv-x="1708" unicode="¼" d="M473 573h-152v682q-70 -71 -198 -71v116q144 0 219 123h131v-850zM1401 1438l-946 -1465h-148l948 1465h146zM1337 299v348l-252 -348h252zM1616 174h-127v-174h-152v174h-395v117l406 559h141v-551h127v-125z"/>
<glyph glyph-name="onehalf" horiz-adv-x="1708" unicode="½" d="M473 573h-152v682q-70 -71 -198 -71v116q144 0 219 123h131v-850zM1401 1438l-946 -1465h-148l948 1465h146zM1655 1h-580v103q270 235 343 313.5t73 175.5q0 66 -41 107t-111 41q-117 0 -221 -53l-31 110q129 68 261 68q138 0 216 -72.5t78 -196.5q0 -85 -49 -163.5 t-164 -173.5l-161 -134h387v-125z"/>
<glyph glyph-name="threequarters" horiz-adv-x="1708" unicode="¾" d="M495 1034q156 -51 156 -211q0 -105 -97 -184.5t-231 -79.5q-146 0 -274 76l30 119q130 -70 236 -70q83 0 129.5 37t46.5 102q0 146 -199 146h-28v125q202 0 202 116q0 48 -39.5 75.5t-111.5 27.5q-97 0 -205 -62l-31 119q122 68 242 68q139 0 220 -61t81 -167 q0 -122 -127 -174v-2zM1401 1438l-946 -1465h-148l948 1465h146zM1337 299v348l-252 -348h252zM1616 174h-127v-174h-152v174h-395v117l406 559h141v-551h127v-125z"/>
<glyph glyph-name="questiondown" horiz-adv-x="1251" unicode="¿" d="M1104 -274q-209 -113 -406 -113q-220 0 -359.5 111t-139.5 284q0 80 35 158.5t171 194.5q100 83 149.5 151.5t51.5 177.5h156q-2 -110 -34 -187.5t-76 -126t-114 -106.5q-104 -87 -129.5 -141t-25.5 -109q0 -114 86.5 -187t228.5 -73q157 0 349 103zM676 1067 q50 0 84.5 -34t34.5 -85q0 -50 -34 -84.5t-85 -34.5t-86 34.5t-35 84.5t35 84.5t86 34.5z"/>
<glyph glyph-name="Agrave" horiz-adv-x="1366" unicode="À" d="M911 637l-227 555l-227 -555h454zM1358 0h-197l-194 481h-570l-192 -481h-195l586 1411h176zM866 1507h-147l-262 281h235z"/>
<glyph glyph-name="Aacute" horiz-adv-x="1366" unicode="Á" d="M911 637l-227 555l-227 -555h454zM1358 0h-197l-194 481h-570l-192 -481h-195l586 1411h176zM889 1788l-262 -281h-147l174 281h235z"/>
<glyph glyph-name="Acircumflex" horiz-adv-x="1366" unicode="Â" d="M911 637l-227 555l-227 -555h454zM1358 0h-197l-194 481h-570l-192 -481h-195l586 1411h176zM977 1507h-148l-143 168l-145 -168h-148l174 281h236z"/>
<glyph glyph-name="Atilde" horiz-adv-x="1366" unicode="Ã" d="M911 637l-227 555l-227 -555h454zM1358 0h-197l-194 481h-570l-192 -481h-195l586 1411h176zM1018 1765q-5 -117 -59 -173t-138 -56q-54 0 -145 47q-89 47 -119 47q-85 0 -96 -96h-113q7 115 62.5 172t144.5 57q51 0 137 -43q103 -51 123 -51q80 0 92 96h111z"/>
<glyph glyph-name="Adieresis" horiz-adv-x="1366" unicode="Ä" d="M911 637l-227 555l-227 -555h454zM1358 0h-197l-194 481h-570l-192 -481h-195l586 1411h176zM498 1753q43 0 74.5 -31.5t31.5 -75.5q0 -42 -31.5 -73t-74.5 -31t-74 31t-31 73q0 45 30.5 76t74.5 31zM868 1753q44 0 75.5 -31.5t31.5 -75.5q0 -42 -32 -73t-75 -31 q-42 0 -73 31t-31 73q0 45 30.5 76t73.5 31z"/>
<glyph glyph-name="Aring" horiz-adv-x="1366" unicode="Å" d="M911 637l-227 555l-227 -555h454zM1358 0h-197l-194 481h-570l-192 -481h-195l586 1411h176zM684 1568q39 0 65.5 26t26.5 64t-27 65t-65 27t-64 -27t-26 -65q0 -39 26 -64.5t64 -25.5zM684 1838q75 0 127.5 -52.5t52.5 -127.5t-52.5 -128t-127.5 -53t-127.5 53 t-52.5 128t52.5 127.5t127.5 52.5z"/>
<glyph glyph-name="AE" horiz-adv-x="2048" unicode="Æ" d="M938 637v618h-88l-318 -618h406zM1933 0h-995v481h-483l-250 -481h-195l729 1411h1174v-156h-791v-442h707v-156h-707v-501h811v-156z"/>
<glyph glyph-name="Ccedilla" horiz-adv-x="1479" unicode="Ç" d="M96 700q0 327 203.5 532.5t534.5 205.5q323 0 561 -195l-84 -145q-219 184 -477 184q-246 0 -394.5 -161.5t-148.5 -420.5t146.5 -415t396.5 -156q266 0 499 188l82 -143q-228 -183 -541 -201l-10 -55q209 -20 209 -149q0 -99 -101 -149t-224 -50q-35 0 -115 4l10 123 q43 -4 102 -4q57 0 105.5 19t48.5 48q0 69 -160 72l29 143q-320 22 -496 220t-176 505z"/>
<glyph glyph-name="Egrave" horiz-adv-x="1366" unicode="È" d="M1241 0h-1077v1411h1057v-156h-873v-442h789v-156h-789v-501h893v-156zM887 1507h-147l-262 281h235z"/>
<glyph glyph-name="Eacute" horiz-adv-x="1366" unicode="É" d="M1241 0h-1077v1411h1057v-156h-873v-442h789v-156h-789v-501h893v-156zM942 1788l-262 -281h-147l174 281h235z"/>
<glyph glyph-name="Ecircumflex" horiz-adv-x="1366" unicode="Ê" d="M1241 0h-1077v1411h1057v-156h-873v-442h789v-156h-789v-501h893v-156zM997 1507h-148l-143 168l-145 -168h-148l174 281h236z"/>
<glyph glyph-name="Edieresis" horiz-adv-x="1366" unicode="Ë" d="M1241 0h-1077v1411h1057v-156h-873v-442h789v-156h-789v-501h893v-156zM518 1753q43 0 74.5 -31.5t31.5 -75.5q0 -42 -31.5 -73t-74.5 -31t-74 31t-31 73q0 45 30.5 76t74.5 31zM888 1753q44 0 75.5 -31.5t31.5 -75.5q0 -42 -32 -73t-75 -31q-42 0 -73 31t-31 73 q0 45 30.5 76t73.5 31z"/>
<glyph glyph-name="Igrave" horiz-adv-x="569" unicode="Ì" d="M377 0h-184v1411h184v-1411zM451 1507h-147l-262 281h235z"/>
<glyph glyph-name="Iacute" horiz-adv-x="569" unicode="Í" d="M377 0h-184v1411h184v-1411zM532 1788l-262 -281h-147l174 281h235z"/>
<glyph glyph-name="Icircumflex" horiz-adv-x="569" unicode="Î" d="M377 0h-184v1411h184v-1411zM575 1507h-148l-143 168l-145 -168h-148l174 281h236z"/>
<glyph glyph-name="Idieresis" horiz-adv-x="569" unicode="Ï" d="M377 0h-184v1411h184v-1411zM98 1753q43 0 74.5 -31.5t31.5 -75.5q0 -42 -31.5 -73t-74.5 -31t-74 31t-31 73q0 45 30.5 76t74.5 31zM468 1753q44 0 75.5 -31.5t31.5 -75.5q0 -42 -32 -73t-75 -31q-42 0 -73 31t-31 73q0 45 30.5 76t73.5 31z"/>
<glyph glyph-name="Eth" horiz-adv-x="1479" unicode="Ð" d="M348 156h305q217 0 373 155.5t156 393.5q0 236 -155.5 393t-373.5 157h-305v-462h376v-156h-376v-481zM164 1411h512q289 0 494.5 -202t205.5 -502q0 -285 -210.5 -496t-489.5 -211h-512v637h-144v156h144v618z"/>
<glyph glyph-name="Ntilde" horiz-adv-x="1479" unicode="Ñ" d="M1315 0h-209l-770 1159v-1159h-172v1411h209l772 -1161v1161h170v-1411zM1096 1765q-5 -117 -59 -173t-138 -56q-54 0 -145 47q-89 47 -119 47q-85 0 -96 -96h-113q7 115 62.5 172t144.5 57q51 0 137 -43q103 -51 123 -51q80 0 92 96h111z"/>
<glyph glyph-name="Ograve" horiz-adv-x="1593" unicode="Ò" d="M799 129q236 0 370 154.5t134 421.5q0 263 -135.5 420t-368.5 157q-236 0 -372 -157t-136 -420q0 -264 132.5 -420t375.5 -156zM799 1438q319 0 508.5 -201.5t189.5 -531.5q0 -318 -192 -525t-506 -207q-316 0 -509.5 207t-193.5 525q0 327 187.5 530t515.5 203z M1001 1507h-147l-262 281h235z"/>
<glyph glyph-name="Oacute" horiz-adv-x="1593" unicode="Ó" d="M799 129q236 0 370 154.5t134 421.5q0 263 -135.5 420t-368.5 157q-236 0 -372 -157t-136 -420q0 -264 132.5 -420t375.5 -156zM799 1438q319 0 508.5 -201.5t189.5 -531.5q0 -318 -192 -525t-506 -207q-316 0 -509.5 207t-193.5 525q0 327 187.5 530t515.5 203z M1024 1788l-262 -281h-147l174 281h235z"/>
<glyph glyph-name="Ocircumflex" horiz-adv-x="1593" unicode="Ô" d="M799 129q236 0 370 154.5t134 421.5q0 263 -135.5 420t-368.5 157q-236 0 -372 -157t-136 -420q0 -264 132.5 -420t375.5 -156zM799 1438q319 0 508.5 -201.5t189.5 -531.5q0 -318 -192 -525t-506 -207q-316 0 -509.5 207t-193.5 525q0 327 187.5 530t515.5 203z M1092 1507h-148l-143 168l-145 -168h-148l174 281h236z"/>
<glyph glyph-name="Otilde" horiz-adv-x="1593" unicode="Õ" d="M799 129q236 0 370 154.5t134 421.5q0 263 -135.5 420t-368.5 157q-236 0 -372 -157t-136 -420q0 -264 132.5 -420t375.5 -156zM799 1438q319 0 508.5 -201.5t189.5 -531.5q0 -318 -192 -525t-506 -207q-316 0 -509.5 207t-193.5 525q0 327 187.5 530t515.5 203z M1133 1765q-5 -117 -59 -173t-138 -56q-54 0 -145 47q-89 47 -119 47q-85 0 -96 -96h-113q7 115 62.5 172t144.5 57q51 0 137 -43q103 -51 123 -51q80 0 92 96h111z"/>
<glyph glyph-name="Odieresis" horiz-adv-x="1593" unicode="Ö" d="M799 129q236 0 370 154.5t134 421.5q0 263 -135.5 420t-368.5 157q-236 0 -372 -157t-136 -420q0 -264 132.5 -420t375.5 -156zM799 1438q319 0 508.5 -201.5t189.5 -531.5q0 -318 -192 -525t-506 -207q-316 0 -509.5 207t-193.5 525q0 327 187.5 530t515.5 203z M613 1753q43 0 74.5 -31.5t31.5 -75.5q0 -42 -31.5 -73t-74.5 -31t-74 31t-31 73q0 45 30.5 76t74.5 31zM983 1753q44 0 75.5 -31.5t31.5 -75.5q0 -42 -32 -73t-75 -31q-42 0 -73 31t-31 73q0 45 30.5 76t73.5 31z"/>
<glyph glyph-name="multiply" horiz-adv-x="1196" unicode="×" d="M1055 336l-111 -111l-346 346l-346 -346l-111 111l346 346l-346 346l111 111l346 -346l346 346l111 -111l-346 -346z"/>
<glyph glyph-name="Oslash" horiz-adv-x="1593" unicode="Ø" d="M457 250q131 -121 342 -121q236 0 370 154.5t134 421.5q0 192 -76 335zM1137 1157q-130 125 -338 125q-236 0 -372 -157t-136 -420q0 -196 76 -338zM1511 1333l-153 -157q139 -192 139 -471q0 -318 -192 -525t-506 -207q-271 0 -459 158l-156 -160l-100 105l156 162 q-144 199 -144 467q0 327 187.5 530t515.5 203q277 0 461 -156l151 156z"/>
<glyph glyph-name="Ugrave" horiz-adv-x="1479" unicode="Ù" d="M1321 520q0 -248 -153 -397.5t-429 -149.5q-275 0 -428 148t-153 395v895h184v-883q0 -184 106 -288.5t291 -104.5q189 0 299.5 106t110.5 291v879h172v-891zM924 1507h-147l-262 281h235z"/>
<glyph glyph-name="Uacute" horiz-adv-x="1479" unicode="Ú" d="M1321 520q0 -248 -153 -397.5t-429 -149.5q-275 0 -428 148t-153 395v895h184v-883q0 -184 106 -288.5t291 -104.5q189 0 299.5 106t110.5 291v879h172v-891zM967 1788l-262 -281h-147l174 281h235z"/>
<glyph glyph-name="Ucircumflex" horiz-adv-x="1479" unicode="Û" d="M1321 520q0 -248 -153 -397.5t-429 -149.5q-275 0 -428 148t-153 395v895h184v-883q0 -184 106 -288.5t291 -104.5q189 0 299.5 106t110.5 291v879h172v-891zM1034 1507h-148l-143 168l-145 -168h-148l174 281h236z"/>
<glyph glyph-name="Udieresis" horiz-adv-x="1479" unicode="Ü" d="M1321 520q0 -248 -153 -397.5t-429 -149.5q-275 0 -428 148t-153 395v895h184v-883q0 -184 106 -288.5t291 -104.5q189 0 299.5 106t110.5 291v879h172v-891zM555 1753q43 0 74.5 -31.5t31.5 -75.5q0 -42 -31.5 -73t-74.5 -31t-74 31t-31 73q0 45 30.5 76t74.5 31z M925 1753q44 0 75.5 -31.5t31.5 -75.5q0 -42 -32 -73t-75 -31q-42 0 -73 31t-31 73q0 45 30.5 76t73.5 31z"/>
<glyph glyph-name="Yacute" horiz-adv-x="1366" unicode="Ý" d="M1356 1411l-582 -872v-539h-184v539l-580 872h205l467 -725l481 725h193zM909 1788l-262 -281h-147l174 281h235z"/>
<glyph glyph-name="Thorn" horiz-adv-x="1366" unicode="Þ" d="M348 457h410q154 0 238.5 73.5t84.5 204.5q0 117 -87 188.5t-236 71.5h-410v-538zM346 1151h432q221 0 356.5 -116.5t135.5 -297.5q0 -183 -132 -309.5t-362 -126.5h-428v-301h-184v1411h182v-260z"/>
<glyph glyph-name="germandbls" horiz-adv-x="1251" unicode="ß" d="M139 0v1124q0 165 109.5 264t308.5 99q197 0 307.5 -85t110.5 -226q0 -62 -30.5 -124.5t-137.5 -153.5q-64 -55 -79 -79t-15 -45q0 -24 26.5 -50.5t139.5 -86.5q191 -101 247 -172.5t56 -147.5q0 -156 -116.5 -250t-303.5 -94q-191 0 -350 88l51 138q147 -78 289 -78 q112 0 186 47.5t74 128.5q0 45 -36.5 89.5t-179.5 120.5q-164 88 -208.5 146.5t-44.5 120.5q0 42 22 85.5t109 115.5q86 72 108.5 115t22.5 86q0 68 -64.5 115.5t-183.5 47.5q-114 0 -179 -56t-65 -142v-1141h-174z"/>
<glyph glyph-name="agrave" d="M813 299v199q-224 -13 -293.5 -20.5t-135.5 -32.5t-100 -68t-34 -107q0 -66 51 -106.5t131 -40.5q102 0 209 48.5t172 127.5zM1044 0h-188q-16 25 -27.5 71t-11.5 76q-185 -174 -407 -174q-147 0 -238.5 76.5t-91.5 212.5q0 108 54.5 182.5t164 116.5t278.5 53l236 15v33 q0 146 -58 203t-204 57q-70 0 -173.5 -30.5t-174.5 -70.5l-51 133q84 50 205.5 81.5t222.5 31.5q208 0 307.5 -94t99.5 -287v-438q0 -163 57 -248zM754 1159h-147l-262 281h235z" unicode="à"/>
<glyph glyph-name="aacute" d="M813 299v199q-224 -13 -293.5 -20.5t-135.5 -32.5t-100 -68t-34 -107q0 -66 51 -106.5t131 -40.5q102 0 209 48.5t172 127.5zM1044 0h-188q-16 25 -27.5 71t-11.5 76q-185 -174 -407 -174q-147 0 -238.5 76.5t-91.5 212.5q0 108 54.5 182.5t164 116.5t278.5 53l236 15v33 q0 146 -58 203t-204 57q-70 0 -173.5 -30.5t-174.5 -70.5l-51 133q84 50 205.5 81.5t222.5 31.5q208 0 307.5 -94t99.5 -287v-438q0 -163 57 -248zM813 1440l-262 -281h-147l174 281h235z" unicode="á"/>
<glyph glyph-name="acircumflex" d="M813 299v199q-224 -13 -293.5 -20.5t-135.5 -32.5t-100 -68t-34 -107q0 -66 51 -106.5t131 -40.5q102 0 209 48.5t172 127.5zM1044 0h-188q-16 25 -27.5 71t-11.5 76q-185 -174 -407 -174q-147 0 -238.5 76.5t-91.5 212.5q0 108 54.5 182.5t164 116.5t278.5 53l236 15v33 q0 146 -58 203t-204 57q-70 0 -173.5 -30.5t-174.5 -70.5l-51 133q84 50 205.5 81.5t222.5 31.5q208 0 307.5 -94t99.5 -287v-438q0 -163 57 -248zM864 1159h-148l-143 168l-145 -168h-148l174 281h236z" unicode="â"/>
<glyph glyph-name="atilde" d="M813 299v199q-224 -13 -293.5 -20.5t-135.5 -32.5t-100 -68t-34 -107q0 -66 51 -106.5t131 -40.5q102 0 209 48.5t172 127.5zM1044 0h-188q-16 25 -27.5 71t-11.5 76q-185 -174 -407 -174q-147 0 -238.5 76.5t-91.5 212.5q0 108 54.5 182.5t164 116.5t278.5 53l236 15v33 q0 146 -58 203t-204 57q-70 0 -173.5 -30.5t-174.5 -70.5l-51 133q84 50 205.5 81.5t222.5 31.5q208 0 307.5 -94t99.5 -287v-438q0 -163 57 -248zM905 1417q-5 -117 -59 -173t-138 -56q-54 0 -145 47q-89 47 -119 47q-85 0 -96 -96h-113q7 115 62.5 172t144.5 57 q51 0 137 -43q103 -51 123 -51q80 0 92 96h111z" unicode="ã"/>
<glyph glyph-name="adieresis" d="M813 299v199q-224 -13 -293.5 -20.5t-135.5 -32.5t-100 -68t-34 -107q0 -66 51 -106.5t131 -40.5q102 0 209 48.5t172 127.5zM1044 0h-188q-16 25 -27.5 71t-11.5 76q-185 -174 -407 -174q-147 0 -238.5 76.5t-91.5 212.5q0 108 54.5 182.5t164 116.5t278.5 53l236 15v33 q0 146 -58 203t-204 57q-70 0 -173.5 -30.5t-174.5 -70.5l-51 133q84 50 205.5 81.5t222.5 31.5q208 0 307.5 -94t99.5 -287v-438q0 -163 57 -248zM385 1405q43 0 74.5 -31.5t31.5 -75.5q0 -42 -31.5 -73t-74.5 -31t-74 31t-31 73q0 45 30.5 76t74.5 31zM755 1405 q44 0 75.5 -31.5t31.5 -75.5q0 -42 -32 -73t-75 -31q-42 0 -73 31t-31 73q0 45 30.5 76t73.5 31z" unicode="ä"/>
<glyph glyph-name="aring" d="M813 299v199q-224 -13 -293.5 -20.5t-135.5 -32.5t-100 -68t-34 -107q0 -66 51 -106.5t131 -40.5q102 0 209 48.5t172 127.5zM1044 0h-188q-16 25 -27.5 71t-11.5 76q-185 -174 -407 -174q-147 0 -238.5 76.5t-91.5 212.5q0 108 54.5 182.5t164 116.5t278.5 53l236 15v33 q0 146 -58 203t-204 57q-70 0 -173.5 -30.5t-174.5 -70.5l-51 133q84 50 205.5 81.5t222.5 31.5q208 0 307.5 -94t99.5 -287v-438q0 -163 57 -248zM571 1219q39 0 65.5 26t26.5 64t-27 65t-65 27t-64 -27t-26 -65q0 -39 26 -64.5t64 -25.5zM571 1489q75 0 127.5 -52.5 t52.5 -127.5t-52.5 -128t-127.5 -53t-127.5 53t-52.5 128t52.5 127.5t127.5 52.5z" unicode="å"/>
<glyph glyph-name="ae" horiz-adv-x="1821" unicode="æ" d="M815 301q-29 91 -29 197q-206 -14 -275.5 -22.5t-132.5 -33.5t-95.5 -67t-32.5 -105q0 -70 52 -108.5t142 -38.5q94 0 199.5 50t171.5 128zM1534 643q-12 128 -87 202.5t-181 74.5q-239 0 -289 -277h557zM1739 94q-219 -121 -422 -121q-330 0 -461 213 q-202 -213 -446 -213q-147 0 -238.5 76.5t-91.5 212.5q0 107 54 181.5t163.5 116.5t281.5 54l214 15v33q0 158 -53 209t-189 51q-70 0 -173.5 -30.5t-174.5 -70.5l-51 133q84 50 205.5 81.5t222.5 31.5q268 0 331 -152q123 152 357 152q201 0 325.5 -138.5t124.5 -373.5v-47 h-747q15 -385 344 -385q187 0 373 113z"/>
<glyph glyph-name="ccedilla" horiz-adv-x="1024" unicode="ç" d="M82 522q0 258 148 401.5t368 143.5q186 0 354 -98l-51 -140q-145 89 -301 89q-148 0 -243 -108t-95 -288q0 -183 97 -291t243 -108q149 0 313 102l54 -137q-172 -112 -361 -115l-8 -55q209 -20 209 -149q0 -92 -96.5 -145.5t-229.5 -53.5q-34 0 -114 4l10 123 q43 -4 102 -4q56 0 105 19t49 48q0 69 -160 72l29 150q-198 34 -310 179.5t-112 360.5z"/>
<glyph glyph-name="egrave" d="M850 643q-13 127 -92 202t-187 75q-119 0 -199 -72.5t-104 -204.5h582zM1055 94q-221 -121 -432 -121q-255 0 -398 147t-143 402q0 244 132.5 394.5t358.5 150.5q203 0 332 -139.5t129 -372.5v-47h-772q8 -187 100.5 -286t258.5 -99q195 0 383 113zM754 1159h-147 l-262 281h235z" unicode="è"/>
<glyph glyph-name="eacute" d="M850 643q-13 127 -92 202t-187 75q-119 0 -199 -72.5t-104 -204.5h582zM1055 94q-221 -121 -432 -121q-255 0 -398 147t-143 402q0 244 132.5 394.5t358.5 150.5q203 0 332 -139.5t129 -372.5v-47h-772q8 -187 100.5 -286t258.5 -99q195 0 383 113zM842 1440l-262 -281 h-147l174 281h235z" unicode="é"/>
<glyph glyph-name="ecircumflex" d="M850 643q-13 127 -92 202t-187 75q-119 0 -199 -72.5t-104 -204.5h582zM1055 94q-221 -121 -432 -121q-255 0 -398 147t-143 402q0 244 132.5 394.5t358.5 150.5q203 0 332 -139.5t129 -372.5v-47h-772q8 -187 100.5 -286t258.5 -99q195 0 383 113zM864 1159h-148 l-143 168l-145 -168h-148l174 281h236z" unicode="ê"/>
<glyph glyph-name="edieresis" d="M850 643q-13 127 -92 202t-187 75q-119 0 -199 -72.5t-104 -204.5h582zM1055 94q-221 -121 -432 -121q-255 0 -398 147t-143 402q0 244 132.5 394.5t358.5 150.5q203 0 332 -139.5t129 -372.5v-47h-772q8 -187 100.5 -286t258.5 -99q195 0 383 113zM393 1405 q43 0 74.5 -31.5t31.5 -75.5q0 -42 -31.5 -73t-74.5 -31t-74 31t-31 73q0 45 30.5 76t74.5 31zM763 1405q44 0 75.5 -31.5t31.5 -75.5q0 -42 -32 -73t-75 -31q-42 0 -73 31t-31 73q0 45 30.5 76t73.5 31z" unicode="ë"/>
<glyph glyph-name="igrave" horiz-adv-x="569" unicode="ì" d="M373 0h-174v1042h174v-1042zM457 1159h-147l-262 281h235z"/>
<glyph glyph-name="iacute" horiz-adv-x="569" unicode="í" d="M373 0h-174v1042h174v-1042zM535 1440l-262 -281h-147l174 281h235z"/>
<glyph glyph-name="icircumflex" horiz-adv-x="569" unicode="î" d="M373 0h-174v1042h174v-1042zM573 1159h-148l-143 168l-145 -168h-148l174 281h236z"/>
<glyph glyph-name="idieresis" horiz-adv-x="569" unicode="ï" d="M373 0h-174v1042h174v-1042zM96 1405q43 0 74.5 -31.5t31.5 -75.5q0 -42 -31.5 -73t-74.5 -31t-74 31t-31 73q0 45 30.5 76t74.5 31zM466 1405q44 0 75.5 -31.5t31.5 -75.5q0 -42 -32 -73t-75 -31q-42 0 -73 31t-31 73q0 45 30.5 76t73.5 31z"/>
<glyph glyph-name="eth" d="M571 127q142 0 225 114t83 279q0 178 -80.5 285.5t-227.5 107.5q-148 0 -228.5 -107t-80.5 -286q0 -166 83 -279.5t226 -113.5zM1059 520q0 -247 -131.5 -397t-356.5 -150q-226 0 -357.5 149.5t-131.5 397.5q0 249 131.5 398t357.5 149q92 0 168 -25q-45 90 -129 185 l-233 -109l-51 96l204 97q-75 69 -157 116l125 62q91 -50 172 -115l221 103l51 -97l-184 -86q145 -149 223 -350t78 -416v-8z" unicode="ð"/>
<glyph glyph-name="ntilde" d="M1004 0h-175v664q0 119 -58.5 185t-158.5 66q-157 0 -299 -170v-745h-174v1042h174v-147q164 172 346 172q160 0 252.5 -93.5t92.5 -264.5v-709zM905 1417q-5 -117 -59 -173t-138 -56q-54 0 -145 47q-89 47 -119 47q-85 0 -96 -96h-113q7 115 62.5 172t144.5 57 q51 0 137 -43q103 -51 123 -51q80 0 92 96h111z" unicode="ñ"/>
<glyph glyph-name="ograve" d="M571 127q142 0 225 114t83 279q0 178 -80.5 285.5t-227.5 107.5q-148 0 -228.5 -107t-80.5 -286q0 -166 83 -279.5t226 -113.5zM571 1067q225 0 356.5 -150t131.5 -397t-131.5 -397t-356.5 -150q-226 0 -357.5 149.5t-131.5 397.5q0 249 131.5 398t357.5 149zM754 1159 h-147l-262 281h235z" unicode="ò"/>
<glyph glyph-name="oacute" d="M571 127q142 0 225 114t83 279q0 178 -80.5 285.5t-227.5 107.5q-148 0 -228.5 -107t-80.5 -286q0 -166 83 -279.5t226 -113.5zM571 1067q225 0 356.5 -150t131.5 -397t-131.5 -397t-356.5 -150q-226 0 -357.5 149.5t-131.5 397.5q0 249 131.5 398t357.5 149zM797 1440 l-262 -281h-147l174 281h235z" unicode="ó"/>
<glyph glyph-name="ocircumflex" d="M571 127q142 0 225 114t83 279q0 178 -80.5 285.5t-227.5 107.5q-148 0 -228.5 -107t-80.5 -286q0 -166 83 -279.5t226 -113.5zM571 1067q225 0 356.5 -150t131.5 -397t-131.5 -397t-356.5 -150q-226 0 -357.5 149.5t-131.5 397.5q0 249 131.5 398t357.5 149zM864 1159 h-148l-143 168l-145 -168h-148l174 281h236z" unicode="ô"/>
<glyph glyph-name="otilde" d="M571 127q142 0 225 114t83 279q0 178 -80.5 285.5t-227.5 107.5q-148 0 -228.5 -107t-80.5 -286q0 -166 83 -279.5t226 -113.5zM571 1067q225 0 356.5 -150t131.5 -397t-131.5 -397t-356.5 -150q-226 0 -357.5 149.5t-131.5 397.5q0 249 131.5 398t357.5 149zM905 1417 q-5 -117 -59 -173t-138 -56q-54 0 -145 47q-89 47 -119 47q-85 0 -96 -96h-113q7 115 62.5 172t144.5 57q51 0 137 -43q103 -51 123 -51q80 0 92 96h111z" unicode="õ"/>
<glyph glyph-name="odieresis" d="M571 127q142 0 225 114t83 279q0 178 -80.5 285.5t-227.5 107.5q-148 0 -228.5 -107t-80.5 -286q0 -166 83 -279.5t226 -113.5zM571 1067q225 0 356.5 -150t131.5 -397t-131.5 -397t-356.5 -150q-226 0 -357.5 149.5t-131.5 397.5q0 249 131.5 398t357.5 149zM385 1405 q43 0 74.5 -31.5t31.5 -75.5q0 -42 -31.5 -73t-74.5 -31t-74 31t-31 73q0 45 30.5 76t74.5 31zM755 1405q44 0 75.5 -31.5t31.5 -75.5q0 -42 -32 -73t-75 -31q-42 0 -73 31t-31 73q0 45 30.5 76t73.5 31z" unicode="ö"/>
<glyph glyph-name="divide" horiz-adv-x="1124" unicode="÷" d="M562 408q43 0 75 -31.5t32 -75.5q0 -42 -31.5 -73t-75.5 -31q-43 0 -73.5 30.5t-30.5 73.5q0 44 30.5 75.5t73.5 31.5zM1047 604h-970v156h970v-156zM562 1167q43 0 75 -31t32 -75q0 -43 -31.5 -74t-75.5 -31q-43 0 -73.5 31t-30.5 74q0 44 30.5 75t73.5 31z"/>
<glyph glyph-name="oslash" horiz-adv-x="1251" unicode="ø" d="M426 209q82 -82 201 -82q141 0 224 114t83 279q0 116 -35 203zM827 836q-75 77 -200 77q-149 0 -229.5 -107t-80.5 -286q0 -103 37 -196zM1210 1059l-184 -199q88 -139 88 -340q0 -244 -129.5 -395.5t-357.5 -151.5q-193 0 -318 109l-176 -191l-92 93l182 198 q-86 136 -86 338q0 249 131.5 398t358.5 149q191 0 313 -109l178 193z"/>
<glyph glyph-name="ugrave" d="M999 0h-174v145q-163 -172 -346 -172q-160 0 -252 93.5t-92 265.5v710h174v-665q0 -118 58.5 -185t158.5 -67q157 0 299 170v747h174v-1042zM754 1159h-147l-262 281h235z" unicode="ù"/>
<glyph glyph-name="uacute" d="M999 0h-174v145q-163 -172 -346 -172q-160 0 -252 93.5t-92 265.5v710h174v-665q0 -118 58.5 -185t158.5 -67q157 0 299 170v747h174v-1042zM797 1440l-262 -281h-147l174 281h235z" unicode="ú"/>
<glyph glyph-name="ucircumflex" d="M999 0h-174v145q-163 -172 -346 -172q-160 0 -252 93.5t-92 265.5v710h174v-665q0 -118 58.5 -185t158.5 -67q157 0 299 170v747h174v-1042zM864 1159h-148l-143 168l-145 -168h-148l174 281h236z" unicode="û"/>
<glyph glyph-name="udieresis" d="M999 0h-174v145q-163 -172 -346 -172q-160 0 -252 93.5t-92 265.5v710h174v-665q0 -118 58.5 -185t158.5 -67q157 0 299 170v747h174v-1042zM385 1405q43 0 74.5 -31.5t31.5 -75.5q0 -42 -31.5 -73t-74.5 -31t-74 31t-31 73q0 45 30.5 76t74.5 31zM755 1405 q44 0 75.5 -31.5t31.5 -75.5q0 -42 -32 -73t-75 -31q-42 0 -73 31t-31 73q0 45 30.5 76t73.5 31z" unicode="ü"/>
<glyph glyph-name="yacute" horiz-adv-x="1024" unicode="ý" d="M1008 1042l-422 -1060q-77 -193 -167 -300.5t-255 -107.5q-81 0 -176 41l37 139q93 -30 143 -30q83 0 148.5 70t113.5 210l-414 1038h179l317 -827l317 827h179zM739 1440l-262 -281h-147l174 281h235z"/>
<glyph glyph-name="thorn" d="M313 748v-445q40 -73 115.5 -124.5t155.5 -51.5q137 0 215 105t78 294q0 186 -77 287.5t-216 101.5q-70 0 -143.5 -46.5t-127.5 -120.5zM313 915q128 152 318 152q182 0 304 -145.5t122 -380.5q0 -261 -122.5 -414.5t-309.5 -153.5q-191 0 -312 148v-529h-174v1895h174 v-572z" unicode="þ"/>
<glyph glyph-name="ydieresis" horiz-adv-x="1024" unicode="ÿ" d="M1008 1042l-422 -1060q-77 -193 -167 -300.5t-255 -107.5q-81 0 -176 41l37 139q93 -30 143 -30q83 0 148.5 70t113.5 210l-414 1038h179l317 -827l317 827h179zM328 1405q43 0 74.5 -31.5t31.5 -75.5q0 -42 -31.5 -73t-74.5 -31t-74 31t-31 73q0 45 30.5 76t74.5 31z M698 1405q44 0 75.5 -31.5t31.5 -75.5q0 -42 -32 -73t-75 -31q-42 0 -73 31t-31 73q0 45 30.5 76t73.5 31z"/>
<glyph glyph-name="Amacron" horiz-adv-x="1366" unicode="Ā" d="M911 637l-227 555l-227 -555h454zM1358 0h-197l-194 481h-570l-192 -481h-195l586 1411h176zM985 1510h-604v149h604v-149z"/>
<glyph glyph-name="amacron" d="M813 299v199q-224 -13 -293.5 -20.5t-135.5 -32.5t-100 -68t-34 -107q0 -66 51 -106.5t131 -40.5q102 0 209 48.5t172 127.5zM1044 0h-188q-16 25 -27.5 71t-11.5 76q-185 -174 -407 -174q-147 0 -238.5 76.5t-91.5 212.5q0 108 54.5 182.5t164 116.5t278.5 53l236 15v33 q0 146 -58 203t-204 57q-70 0 -173.5 -30.5t-174.5 -70.5l-51 133q84 50 205.5 81.5t222.5 31.5q208 0 307.5 -94t99.5 -287v-438q0 -163 57 -248zM871 1227h-604v149h604v-149z" unicode="ā"/>
<glyph glyph-name="Abreve" horiz-adv-x="1366" unicode="Ă" d="M911 637l-227 555l-227 -555h454zM1358 0h-197l-194 481h-570l-192 -481h-195l586 1411h176zM981 1767q-16 -119 -93.5 -189.5t-203.5 -70.5q-127 0 -204.5 71t-90.5 189h111q10 -68 56 -101.5t128 -33.5q80 0 126.5 33.5t59.5 101.5h111z"/>
<glyph glyph-name="abreve" d="M813 299v199q-224 -13 -293.5 -20.5t-135.5 -32.5t-100 -68t-34 -107q0 -66 51 -106.5t131 -40.5q102 0 209 48.5t172 127.5zM1044 0h-188q-16 25 -27.5 71t-11.5 76q-185 -174 -407 -174q-147 0 -238.5 76.5t-91.5 212.5q0 108 54.5 182.5t164 116.5t278.5 53l236 15v33 q0 146 -58 203t-204 57q-70 0 -173.5 -30.5t-174.5 -70.5l-51 133q84 50 205.5 81.5t222.5 31.5q208 0 307.5 -94t99.5 -287v-438q0 -163 57 -248zM873 1427q-16 -119 -93.5 -189.5t-203.5 -70.5q-127 0 -204.5 71t-90.5 189h111q10 -68 56 -101.5t128 -33.5 q80 0 126.5 33.5t59.5 101.5h111z" unicode="ă"/>
<glyph glyph-name="Aogonek" horiz-adv-x="1366" unicode="Ą" d="M911 637l-227 555l-227 -555h454zM1559 -369q-106 -57 -207 -57q-105 0 -165.5 59t-60.5 164q0 94 35 203l-194 481h-570l-192 -481h-195l586 1411h176l586 -1411h-74q-31 -102 -31 -174q0 -60 38.5 -93.5t105.5 -33.5q77 0 162 45v-113z"/>
<glyph glyph-name="aogonek" d="M813 299v199q-224 -13 -293.5 -20.5t-135.5 -32.5t-100 -68t-34 -107q0 -66 51 -106.5t131 -40.5q102 0 209 48.5t172 127.5zM1253 -369q-105 -57 -206 -57q-105 0 -165.5 59t-60.5 164q0 94 35 203q-16 25 -27.5 71t-11.5 76q-185 -174 -407 -174q-147 0 -238.5 76.5 t-91.5 212.5q0 108 54.5 182.5t164 116.5t278.5 53l236 15v33q0 146 -58 203t-204 57q-70 0 -173.5 -30.5t-174.5 -70.5l-51 133q84 50 205.5 81.5t222.5 31.5q208 0 307.5 -94t99.5 -287v-438q0 -163 57 -248h-67q-29 -107 -29 -174q0 -61 39.5 -94t104.5 -33q76 0 161 45 v-113z" unicode="ą"/>
<glyph glyph-name="Cacute" horiz-adv-x="1479" unicode="Ć" d="M96 700q0 327 203.5 532.5t534.5 205.5q323 0 561 -195l-84 -145q-219 184 -477 184q-246 0 -394.5 -161.5t-148.5 -420.5t146.5 -415t396.5 -156q266 0 499 188l82 -143q-251 -201 -581 -201q-342 0 -540 199t-198 528zM1091 1784l-262 -281h-147l174 281h235z"/>
<glyph glyph-name="cacute" horiz-adv-x="1024" unicode="ć" d="M82 522q0 258 148 401.5t368 143.5q186 0 354 -98l-51 -140q-145 89 -301 89q-148 0 -243 -108t-95 -288q0 -183 97 -291t243 -108q149 0 313 102l54 -137q-174 -115 -367 -115q-231 0 -375.5 150.5t-144.5 398.5zM859 1440l-262 -281h-147l174 281h235z"/>
<glyph glyph-name="Ccircumflex" horiz-adv-x="1479" unicode="Ĉ" d="M96 700q0 327 203.5 532.5t534.5 205.5q323 0 561 -195l-84 -145q-219 184 -477 184q-246 0 -394.5 -161.5t-148.5 -420.5t146.5 -415t396.5 -156q266 0 499 188l82 -143q-251 -201 -581 -201q-342 0 -540 199t-198 528zM1112 1507h-148l-143 168l-145 -168h-148l174 281 h236z"/>
<glyph glyph-name="ccircumflex" horiz-adv-x="1024" unicode="ĉ" d="M82 522q0 258 148 401.5t368 143.5q186 0 354 -98l-51 -140q-145 89 -301 89q-148 0 -243 -108t-95 -288q0 -183 97 -291t243 -108q149 0 313 102l54 -137q-174 -115 -367 -115q-231 0 -375.5 150.5t-144.5 398.5zM874 1159h-148l-143 168l-145 -168h-148l174 281h236z "/>
<glyph glyph-name="Cdotaccent" horiz-adv-x="1479" unicode="Ċ" d="M96 700q0 327 203.5 532.5t534.5 205.5q323 0 561 -195l-84 -145q-219 184 -477 184q-246 0 -394.5 -161.5t-148.5 -420.5t146.5 -415t396.5 -156q266 0 499 188l82 -143q-251 -201 -581 -201q-342 0 -540 199t-198 528zM829 1714q43 0 74.5 -31.5t31.5 -75.5 q0 -42 -31.5 -73t-74.5 -31t-73.5 30.5t-30.5 73.5q0 44 30.5 75.5t73.5 31.5z"/>
<glyph glyph-name="cdotaccent" horiz-adv-x="1024" unicode="ċ" d="M82 522q0 258 148 401.5t368 143.5q186 0 354 -98l-51 -140q-145 89 -301 89q-148 0 -243 -108t-95 -288q0 -183 97 -291t243 -108q149 0 313 102l54 -137q-174 -115 -367 -115q-231 0 -375.5 150.5t-144.5 398.5zM598 1436q43 0 74.5 -31.5t31.5 -75.5q0 -42 -31.5 -73 t-74.5 -31t-73.5 30.5t-30.5 73.5q0 44 30.5 75.5t73.5 31.5z"/>
<glyph glyph-name="Ccaron" horiz-adv-x="1479" unicode="Č" d="M96 700q0 327 203.5 532.5t534.5 205.5q323 0 561 -195l-84 -145q-219 184 -477 184q-246 0 -394.5 -161.5t-148.5 -420.5t146.5 -415t396.5 -156q266 0 499 188l82 -143q-251 -201 -581 -201q-342 0 -540 199t-198 528zM1113 1788l-174 -281h-236l-174 281h148l145 -168 l143 168h148z"/>
<glyph glyph-name="ccaron" horiz-adv-x="1024" unicode="č" d="M82 522q0 258 148 401.5t368 143.5q186 0 354 -98l-51 -140q-145 89 -301 89q-148 0 -243 -108t-95 -288q0 -183 97 -291t243 -108q149 0 313 102l54 -137q-174 -115 -367 -115q-231 0 -375.5 150.5t-144.5 398.5zM865 1440l-174 -281h-236l-174 281h148l145 -168 l143 168h148z"/>
<glyph glyph-name="Dcaron" horiz-adv-x="1479" unicode="Ď" d="M348 156h316q249 0 383.5 142.5t134.5 406.5q0 265 -135.5 407.5t-382.5 142.5h-316v-1099zM164 1411h498q332 0 523 -185t191 -519q0 -317 -191.5 -512t-516.5 -195h-504v1411zM1001 1788l-174 -281h-236l-174 281h148l145 -168l143 168h148z"/>
<glyph glyph-name="dcaron" horiz-adv-x="1259" unicode="ď" d="M825 303v445q-35 71 -109.5 119t-160.5 48q-140 0 -216.5 -101.5t-76.5 -287.5q0 -188 80 -293.5t219 -105.5q55 0 114 26.5t104.5 77t45.5 72.5zM999 -2h-174v129q-113 -154 -305 -154q-200 0 -319 152t-119 416q0 235 122 380.5t304 145.5q210 0 317 -152v572h174 v-1489zM1198 1287q-42 4 -70 33.5t-28 67.5q0 41 27 69.5t67 28.5q45 0 78 -37t33 -88q0 -171 -174 -223l-31 57q98 32 98 92z"/>
<glyph glyph-name="Dcroat" horiz-adv-x="1479" unicode="Đ" d="M348 156h305q217 0 373 155.5t156 393.5q0 236 -155.5 393t-373.5 157h-305v-462h376v-156h-376v-481zM164 1411h512q289 0 494.5 -202t205.5 -502q0 -285 -210.5 -496t-489.5 -211h-512v637h-144v156h144v618z"/>
<glyph glyph-name="dcroat" d="M825 303v445q-35 71 -109.5 119t-160.5 48q-140 0 -216.5 -101.5t-76.5 -287.5q0 -188 80 -293.5t219 -105.5q55 0 114 26.5t104.5 77t45.5 72.5zM1126 1206h-127v-1208h-174v129q-113 -154 -305 -154q-200 0 -319 152t-119 416q0 235 122 380.5t304 145.5 q210 0 317 -152v291h-303v150h303v131h174v-131h127v-150z" unicode="đ"/>
<glyph glyph-name="Emacron" horiz-adv-x="1366" unicode="Ē" d="M1241 0h-1077v1411h1057v-156h-873v-442h789v-156h-789v-501h893v-156zM985 1510h-604v149h604v-149z"/>
<glyph glyph-name="emacron" d="M850 643q-13 127 -92 202t-187 75q-119 0 -199 -72.5t-104 -204.5h582zM1055 94q-221 -121 -432 -121q-255 0 -398 147t-143 402q0 244 132.5 394.5t358.5 150.5q203 0 332 -139.5t129 -372.5v-47h-772q8 -187 100.5 -286t258.5 -99q195 0 383 113zM887 1227h-604v149 h604v-149z" unicode="ē"/>
<glyph glyph-name="Ebreve" horiz-adv-x="1366" unicode="Ĕ" d="M1241 0h-1077v1411h1057v-156h-873v-442h789v-156h-789v-501h893v-156zM1014 1767q-16 -119 -93.5 -189.5t-203.5 -70.5q-127 0 -204.5 71t-90.5 189h111q10 -68 56 -101.5t128 -33.5q80 0 126.5 33.5t59.5 101.5h111z"/>
<glyph glyph-name="ebreve" d="M850 643q-13 127 -92 202t-187 75q-119 0 -199 -72.5t-104 -204.5h582zM1055 94q-221 -121 -432 -121q-255 0 -398 147t-143 402q0 244 132.5 394.5t358.5 150.5q203 0 332 -139.5t129 -372.5v-47h-772q8 -187 100.5 -286t258.5 -99q195 0 383 113zM868 1427 q-16 -119 -93.5 -189.5t-203.5 -70.5q-127 0 -204.5 71t-90.5 189h111q10 -68 56 -101.5t128 -33.5q80 0 126.5 33.5t59.5 101.5h111z" unicode="ĕ"/>
<glyph glyph-name="Edotaccent" horiz-adv-x="1366" unicode="Ė" d="M1241 0h-1077v1411h1057v-156h-873v-442h789v-156h-789v-501h893v-156zM720 1714q43 0 74.5 -31.5t31.5 -75.5q0 -42 -31.5 -73t-74.5 -31t-73.5 30.5t-30.5 73.5q0 44 30.5 75.5t73.5 31.5z"/>
<glyph glyph-name="edotaccent" d="M850 643q-13 127 -92 202t-187 75q-119 0 -199 -72.5t-104 -204.5h582zM1055 94q-221 -121 -432 -121q-255 0 -398 147t-143 402q0 244 132.5 394.5t358.5 150.5q203 0 332 -139.5t129 -372.5v-47h-772q8 -187 100.5 -286t258.5 -99q195 0 383 113zM571 1436 q43 0 74.5 -31.5t31.5 -75.5q0 -42 -31.5 -73t-74.5 -31t-73.5 30.5t-30.5 73.5q0 44 30.5 75.5t73.5 31.5z" unicode="ė"/>
<glyph glyph-name="Eogonek" horiz-adv-x="1366" unicode="Ę" d="M1294 -369q-105 -57 -207 -57q-104 0 -164.5 59t-60.5 164q0 94 35 203h-733v1411h1057v-156h-873v-442h789v-156h-789v-501h893v-156h-223q-29 -107 -29 -174q0 -60 38.5 -93.5t105.5 -33.5q76 0 161 45v-113z"/>
<glyph glyph-name="eogonek" d="M850 643q-13 127 -92 202t-187 75q-119 0 -199 -72.5t-104 -204.5h582zM1055 94q-212 -116 -420 -121q-23 -85 -23 -147q0 -60 38.5 -93.5t105.5 -33.5q77 0 162 45v-113q-106 -57 -207 -57q-105 0 -165.5 59t-60.5 164q0 76 29 185q-209 31 -320.5 174t-111.5 366 q0 244 132.5 394.5t358.5 150.5q203 0 332 -139.5t129 -372.5v-47h-772q8 -187 100.5 -286t258.5 -99q195 0 383 113z" unicode="ę"/>
<glyph glyph-name="Ecaron" horiz-adv-x="1366" unicode="Ě" d="M1241 0h-1077v1411h1057v-156h-873v-442h789v-156h-789v-501h893v-156zM965 1788l-174 -281h-236l-174 281h148l145 -168l143 168h148z"/>
<glyph glyph-name="ecaron" d="M850 643q-13 127 -92 202t-187 75q-119 0 -199 -72.5t-104 -204.5h582zM1055 94q-221 -121 -432 -121q-255 0 -398 147t-143 402q0 244 132.5 394.5t358.5 150.5q203 0 332 -139.5t129 -372.5v-47h-772q8 -187 100.5 -286t258.5 -99q195 0 383 113zM861 1440l-174 -281 h-236l-174 281h148l145 -168l143 168h148z" unicode="ě"/>
<glyph glyph-name="Gcircumflex" horiz-adv-x="1593" unicode="Ĝ" d="M1430 121q-233 -148 -568 -148q-350 0 -558 205.5t-208 526.5q0 322 203.5 527.5t534.5 205.5q317 0 561 -195l-84 -145q-220 184 -477 184q-251 0 -397 -164t-146 -413q0 -269 156 -422.5t434 -153.5q228 0 364 84v319h-387v156h572v-567zM1122 1507h-148l-143 168 l-145 -168h-148l174 281h236z"/>
<glyph glyph-name="gcircumflex" d="M825 303v445q-35 71 -109.5 119t-160.5 48q-140 0 -216.5 -101.5t-76.5 -287.5q0 -188 80 -293.5t219 -105.5q55 0 114 26.5t104.5 77t45.5 72.5zM999 -31q0 -194 -118 -295.5t-338 -101.5q-222 0 -428 113l47 141q204 -105 383 -105q133 0 206.5 65t73.5 185v156 q-113 -154 -305 -154q-203 0 -320.5 151t-117.5 417q0 235 122 380.5t304 145.5q206 0 317 -152v125h174v-1071zM860 1159h-148l-143 168l-145 -168h-148l174 281h236z" unicode="ĝ"/>
<glyph glyph-name="Gbreve" horiz-adv-x="1593" unicode="Ğ" d="M1430 121q-233 -148 -568 -148q-350 0 -558 205.5t-208 526.5q0 322 203.5 527.5t534.5 205.5q317 0 561 -195l-84 -145q-220 184 -477 184q-251 0 -397 -164t-146 -413q0 -269 156 -422.5t434 -153.5q228 0 364 84v319h-387v156h572v-567zM1122 1767 q-16 -119 -93.5 -189.5t-203.5 -70.5q-127 0 -204.5 71t-90.5 189h111q10 -68 56 -101.5t128 -33.5q80 0 126.5 33.5t59.5 101.5h111z"/>
<glyph glyph-name="gbreve" d="M825 303v445q-35 71 -109.5 119t-160.5 48q-140 0 -216.5 -101.5t-76.5 -287.5q0 -188 80 -293.5t219 -105.5q55 0 114 26.5t104.5 77t45.5 72.5zM999 -31q0 -194 -118 -295.5t-338 -101.5q-222 0 -428 113l47 141q204 -105 383 -105q133 0 206.5 65t73.5 185v156 q-113 -154 -305 -154q-203 0 -320.5 151t-117.5 417q0 235 122 380.5t304 145.5q206 0 317 -152v125h174v-1071zM868 1427q-16 -119 -93.5 -189.5t-203.5 -70.5q-127 0 -204.5 71t-90.5 189h111q10 -68 56 -101.5t128 -33.5q80 0 126.5 33.5t59.5 101.5h111z" unicode="ğ"/>
<glyph glyph-name="Gdotaccent" horiz-adv-x="1593" unicode="Ġ" d="M1430 121q-233 -148 -568 -148q-350 0 -558 205.5t-208 526.5q0 322 203.5 527.5t534.5 205.5q317 0 561 -195l-84 -145q-220 184 -477 184q-251 0 -397 -164t-146 -413q0 -269 156 -422.5t434 -153.5q228 0 364 84v319h-387v156h572v-567zM829 1714q43 0 74.5 -31.5 t31.5 -75.5q0 -42 -31.5 -73t-74.5 -31t-73.5 30.5t-30.5 73.5q0 44 30.5 75.5t73.5 31.5z"/>
<glyph glyph-name="gdotaccent" d="M825 303v445q-35 71 -109.5 119t-160.5 48q-140 0 -216.5 -101.5t-76.5 -287.5q0 -188 80 -293.5t219 -105.5q55 0 114 26.5t104.5 77t45.5 72.5zM999 -31q0 -194 -118 -295.5t-338 -101.5q-222 0 -428 113l47 141q204 -105 383 -105q133 0 206.5 65t73.5 185v156 q-113 -154 -305 -154q-203 0 -320.5 151t-117.5 417q0 235 122 380.5t304 145.5q206 0 317 -152v125h174v-1071zM559 1436q43 0 74.5 -31.5t31.5 -75.5q0 -42 -31.5 -73t-74.5 -31t-73.5 30.5t-30.5 73.5q0 44 30.5 75.5t73.5 31.5z" unicode="ġ"/>
<glyph glyph-name="Gcommaaccent" horiz-adv-x="1593" unicode="Ģ" d="M1430 121q-233 -148 -568 -148q-350 0 -558 205.5t-208 526.5q0 322 203.5 527.5t534.5 205.5q317 0 561 -195l-84 -145q-220 184 -477 184q-251 0 -397 -164t-146 -413q0 -269 156 -422.5t434 -153.5q228 0 364 84v319h-387v156h572v-567zM854 -289q-42 4 -70 33.5 t-28 67.5q0 41 27 69.5t67 28.5q45 0 78 -37t33 -88q0 -171 -174 -223l-31 57q98 32 98 92z"/>
<glyph glyph-name="gcommaaccent" d="M592 1430q38 -3 68 -32t30 -69q0 -45 -28.5 -71.5t-65.5 -26.5q-43 0 -77 35.5t-34 89.5q0 171 174 223l31 -57q-98 -31 -98 -92zM825 303v445q-35 71 -109.5 119t-160.5 48q-140 0 -216.5 -101.5t-76.5 -287.5q0 -187 80 -293t219 -106q55 0 114 26.5t104.5 77 t45.5 72.5zM999 -31q0 -194 -118 -295.5t-338 -101.5q-222 0 -428 113l47 141q204 -105 383 -105q133 0 206.5 65t73.5 185v156q-113 -154 -305 -154q-203 0 -320.5 151t-117.5 417q0 235 122 380.5t304 145.5q206 0 317 -152v125h174v-1071z" unicode="ģ"/>
<glyph glyph-name="Hcircumflex" horiz-adv-x="1479" unicode="Ĥ" d="M1315 0h-185v668h-782v-668h-184v1411h184v-588h782v588h185v-1411zM1032 1509h-148l-143 168l-145 -168h-148l174 281h236z"/>
<glyph glyph-name="hcircumflex" d="M1004 0h-175v664q0 119 -58.5 185t-158.5 66q-157 0 -299 -170v-745h-174v1487h174v-592q164 172 346 172q160 0 252.5 -93.5t92.5 -264.5v-709zM885 1549h-148l-143 168l-145 -168h-148l174 281h236z" unicode="ĥ"/>
<glyph glyph-name="Hbar" horiz-adv-x="1479" unicode="Ħ" d="M1130 823v205h-782v-205h782zM1315 0h-185v668h-782v-668h-184v1028h-144v156h144v227h184v-227h782v227h185v-227h143v-156h-143v-1028z"/>
<glyph glyph-name="hbar" d="M1004 0h-175v664q0 118 -58 184.5t-159 66.5q-157 0 -299 -170v-745h-174v1188h-119v153h119v146h174v-146h277v-153h-277v-293q164 172 346 172q160 0 252.5 -93.5t92.5 -264.5v-709z" unicode="ħ"/>
<glyph glyph-name="Itilde" horiz-adv-x="569" unicode="Ĩ" d="M377 0h-184v1411h184v-1411zM620 1765q-5 -117 -59 -173t-138 -56q-54 0 -145 47q-89 47 -119 47q-85 0 -96 -96h-113q7 115 62.5 172t144.5 57q51 0 137 -43q103 -51 123 -51q80 0 92 96h111z"/>
<glyph glyph-name="itilde" horiz-adv-x="569" unicode="ĩ" d="M373 0h-174v1042h174v-1042zM620 1417q-5 -117 -59 -173t-138 -56q-54 0 -145 47q-89 47 -119 47q-85 0 -96 -96h-113q7 115 62.5 172t144.5 57q51 0 137 -43q103 -51 123 -51q80 0 92 96h111z"/>
<glyph glyph-name="Imacron" horiz-adv-x="569" unicode="Ī" d="M377 0h-184v1411h184v-1411zM587 1510h-604v149h604v-149z"/>
<glyph glyph-name="imacron" horiz-adv-x="569" unicode="ī" d="M373 0h-174v1042h174v-1042zM587 1227h-604v149h604v-149z"/>
<glyph glyph-name="Ibreve" horiz-adv-x="569" unicode="Ĭ" d="M377 0h-184v1411h184v-1411zM581 1767q-16 -119 -93.5 -189.5t-203.5 -70.5q-127 0 -204.5 71t-90.5 189h111q10 -68 56 -101.5t128 -33.5q80 0 126.5 33.5t59.5 101.5h111z"/>
<glyph glyph-name="ibreve" horiz-adv-x="569" unicode="ĭ" d="M373 0h-174v1042h174v-1042zM582 1427q-16 -119 -93.5 -189.5t-203.5 -70.5q-127 0 -204.5 71t-90.5 189h111q10 -68 56 -101.5t128 -33.5q80 0 126.5 33.5t59.5 101.5h111z"/>
<glyph glyph-name="Iogonek" horiz-adv-x="569" unicode="Į" d="M614 -369q-105 -57 -206 -57q-105 0 -165.5 59t-60.5 164q0 94 35 203h-24v1411h184v-1411h-37q-31 -102 -31 -174q0 -60 38.5 -93.5t105.5 -33.5q76 0 161 45v-113z"/>
<glyph glyph-name="iogonek" horiz-adv-x="455" unicode="į" d="M227 1487q44 0 75.5 -31.5t31.5 -75.5q0 -42 -31.5 -73t-75.5 -31q-42 0 -73 31t-31 73q0 45 30.5 76t73.5 31zM557 -369q-105 -57 -206 -57q-106 0 -166 59t-60 164q0 94 35 203h-18v1042h174v-1042h-33q-31 -102 -31 -174q0 -60 38.5 -93.5t105.5 -33.5q76 0 161 45 v-113z"/>
<glyph glyph-name="Idotaccent" horiz-adv-x="569" unicode="İ" d="M377 0h-184v1411h184v-1411zM283 1714q43 0 74.5 -31.5t31.5 -75.5q0 -42 -31.5 -73t-74.5 -31t-73.5 30.5t-30.5 73.5q0 44 30.5 75.5t73.5 31.5z"/>
<glyph glyph-name="dotlessi" horiz-adv-x="569" unicode="ı" d="M373 0h-174v1042h174v-1042z"/>
<glyph glyph-name="IJ" horiz-adv-x="1505" unicode="Ĳ" d="M377 0h-184v1411h184v-1411zM1341 457q0 -484 -419 -484q-222 0 -398 181l76 147q69 -77 156 -124.5t166 -47.5q235 0 235 315v967h184v-954z"/>
<glyph glyph-name="ij" horiz-adv-x="909" unicode="ĳ" d="M770 -92q0 -173 -62.5 -254.5t-201.5 -81.5q-74 0 -162 35l33 135q66 -21 110 -21q64 0 86.5 44.5t22.5 140.5v1136h174v-1134zM227 1487q44 0 75.5 -31.5t31.5 -75.5q0 -42 -31.5 -73t-75.5 -31q-42 0 -73 31t-31 73q0 44 30.5 75.5t73.5 31.5zM315 0h-174v1042h174 v-1042z"/>
<glyph glyph-name="Jcircumflex" horiz-adv-x="1024" unicode="Ĵ" d="M860 457q0 -484 -420 -484q-221 0 -397 181l76 147q69 -77 156 -124.5t165 -47.5q236 0 236 315v967h184v-954zM805 1509h-148l-143 168l-145 -168h-148l174 281h236z"/>
<glyph glyph-name="jcircumflex" horiz-adv-x="455" unicode="ĵ" d="M520 1159h-147l-144 168l-145 -168h-150l175 281h235zM315 -92q0 -180 -65.5 -258t-198.5 -78q-74 0 -162 35l33 135q66 -21 111 -21q63 0 85.5 44.5t22.5 140.5v1136h174v-1134z"/>
<glyph glyph-name="Kcommaaccent" horiz-adv-x="1366" unicode="Ķ" d="M1354 0h-230l-596 711l-180 -164v-547h-184v1411h184v-672l711 672h223l-627 -586zM679 -289q-42 4 -70 33.5t-28 67.5q0 41 27 69.5t67 28.5q45 0 78 -37t33 -88q0 -171 -174 -223l-31 57q98 32 98 92z"/>
<glyph glyph-name="kcommaaccent" horiz-adv-x="1024" unicode="ķ" d="M1016 0h-205l-375 516l-123 -117v-399h-174v1487h174v-907l443 462h200l-407 -415zM528 -289q-42 4 -70 33.5t-28 67.5q0 41 27 69.5t67 28.5q45 0 78 -37t33 -88q0 -171 -174 -223l-31 57q98 32 98 92z"/>
<glyph glyph-name="kgreenlandic" horiz-adv-x="1024" unicode="ĸ" d="M1028 0h-221l-389 489l-105 -102v-387h-174v1042h174v-450l453 450h217l-444 -436z"/>
<glyph glyph-name="Lacute" d="M1077 0h-913v1411h184v-1255h729v-156zM835 1788l-262 -281h-147l174 281h235z" unicode="Ĺ"/>
<glyph glyph-name="lacute" horiz-adv-x="455" unicode="ĺ" d="M315 0h-174v1487h174v-1487zM507 1884l-262 -281h-147l174 281h235z"/>
<glyph glyph-name="Lcommaaccent" d="M1077 0h-913v1411h184v-1255h729v-156zM618 -289q-42 4 -70 33.5t-28 67.5q0 41 27 69.5t67 28.5q45 0 78 -37t33 -88q0 -171 -174 -223l-31 57q98 32 98 92z" unicode="Ļ"/>
<glyph glyph-name="lcommaaccent" horiz-adv-x="455" unicode="ļ" d="M315 0h-174v1487h174v-1487zM230 -289q-42 4 -70 33.5t-28 67.5q0 41 27 69.5t67 28.5q45 0 78 -37t33 -88q0 -171 -174 -223l-31 57q98 32 98 92z"/>
<glyph glyph-name="Lcaron" d="M1077 0h-913v1411h184v-1255h729v-156zM688 1212q-42 4 -70 33.5t-28 67.5q0 41 27 69.5t67 28.5q45 0 78 -37t33 -88q0 -171 -174 -223l-31 57q98 32 98 92z" unicode="Ľ"/>
<glyph glyph-name="lcaron" horiz-adv-x="597" unicode="ľ" d="M315 0h-174v1487h174v-1487zM514 1287q-42 4 -70 33.5t-28 67.5q0 41 27 69.5t67 28.5q45 0 78 -37t33 -88q0 -171 -174 -223l-31 57q98 32 98 92z"/>
<glyph glyph-name="Ldot" d="M1077 0h-913v1411h184v-1255h729v-156zM792 956q43 0 74.5 -31.5t31.5 -75.5q0 -42 -31.5 -73t-74.5 -31t-73.5 30.5t-30.5 73.5q0 44 30.5 75.5t73.5 31.5z" unicode="Ŀ"/>
<glyph glyph-name="ldot" horiz-adv-x="684" unicode="ŀ" d="M315 0h-174v1487h174v-1487zM516 799q43 0 74.5 -31.5t31.5 -75.5q0 -42 -31.5 -73t-74.5 -31t-73.5 30.5t-30.5 73.5q0 44 30.5 75.5t73.5 31.5z"/>
<glyph glyph-name="Lslash" d="M1077 0h-913v408l-115 -97l-92 109l207 172v819h184v-663l295 247l90 -106l-385 -326v-407h729v-156z" unicode="Ł"/>
<glyph glyph-name="lslash" horiz-adv-x="455" unicode="ł" d="M314 1486v-585l117 127l86 -93l-203 -221v-714h-174v525l-98 -104l-88 93l186 199v774z"/>
<glyph glyph-name="Nacute" horiz-adv-x="1479" unicode="Ń" d="M1315 0h-209l-770 1159v-1159h-172v1411h209l772 -1161v1161h170v-1411zM995 1788l-262 -281h-147l174 281h235z"/>
<glyph glyph-name="nacute" d="M1004 0h-175v664q0 119 -58.5 185t-158.5 66q-157 0 -299 -170v-745h-174v1042h174v-147q164 172 346 172q160 0 252.5 -93.5t92.5 -264.5v-709zM799 1440l-262 -281h-147l174 281h235z" unicode="ń"/>
<glyph glyph-name="Ncommaaccent" horiz-adv-x="1479" unicode="Ņ" d="M1315 0h-209l-770 1159v-1159h-172v1411h209l772 -1161v1161h170v-1411zM735 -289q-42 4 -70 33.5t-28 67.5q0 41 27 69.5t67 28.5q45 0 78 -37t33 -88q0 -171 -174 -223l-31 57q98 32 98 92z"/>
<glyph glyph-name="ncommaaccent" d="M1004 0h-175v664q0 119 -58.5 185t-158.5 66q-157 0 -299 -170v-745h-174v1042h174v-147q164 172 346 172q160 0 252.5 -93.5t92.5 -264.5v-709zM565 -289q-42 4 -70 33.5t-28 67.5q0 41 27 69.5t67 28.5q45 0 78 -37t33 -88q0 -171 -174 -223l-31 57q98 32 98 92z" unicode="ņ"/>
<glyph glyph-name="Ncaron" horiz-adv-x="1479" unicode="Ň" d="M1315 0h-209l-770 1159v-1159h-172v1411h209l772 -1161v1161h170v-1411zM1037 1788l-174 -281h-236l-174 281h148l145 -168l143 168h148z"/>
<glyph glyph-name="ncaron" d="M1004 0h-175v664q0 119 -58.5 185t-158.5 66q-157 0 -299 -170v-745h-174v1042h174v-147q164 172 346 172q160 0 252.5 -93.5t92.5 -264.5v-709zM861 1440l-174 -281h-236l-174 281h148l145 -168l143 168h148z" unicode="ň"/>
<glyph glyph-name="napostrophe" horiz-adv-x="1237" unicode="ŉ" d="M109 1212q-43 4 -71 34.5t-28 66.5q0 43 27.5 70.5t66.5 27.5q44 0 77.5 -36t33.5 -89q0 -171 -174 -223l-31 57q99 31 99 92zM1102 0h-174v664q0 118 -58.5 184.5t-158.5 66.5q-157 0 -299 -170v-745h-174v1042h174v-147q163 172 346 172q160 0 252 -93.5t92 -264.5 v-709z"/>
<glyph glyph-name="Eng" horiz-adv-x="1481" unicode="Ŋ" d="M1316 1411v-1503q0 -173 -63 -254.5t-201 -81.5q-74 0 -162 35l33 135q65 -21 110 -21q64 0 88.5 44.5t24.5 140.5v82l-809 1171v-1159h-172v1411h209l772 -1116v1116h170z"/>
<glyph glyph-name="eng" d="M1004 709v-801q0 -180 -66 -258t-199 -78q-74 0 -161 35l32 135q66 -21 111 -21q63 0 85.5 44.5t22.5 140.5v758q0 118 -58 184.5t-159 66.5q-157 0 -299 -170v-745h-174v1042h174v-147q164 172 346 172q160 0 252.5 -93.5t92.5 -264.5z" unicode="ŋ"/>
<glyph glyph-name="Omacron" horiz-adv-x="1593" unicode="Ō" d="M799 129q236 0 370 154.5t134 421.5q0 263 -135.5 420t-368.5 157q-236 0 -372 -157t-136 -420q0 -264 132.5 -420t375.5 -156zM799 1438q319 0 508.5 -201.5t189.5 -531.5q0 -318 -192 -525t-506 -207q-316 0 -509.5 207t-193.5 525q0 327 187.5 530t515.5 203z M1099 1510h-604v149h604v-149z"/>
<glyph glyph-name="omacron" d="M571 127q142 0 225 114t83 279q0 178 -80.5 285.5t-227.5 107.5q-148 0 -228.5 -107t-80.5 -286q0 -166 83 -279.5t226 -113.5zM571 1067q225 0 356.5 -150t131.5 -397t-131.5 -397t-356.5 -150q-226 0 -357.5 149.5t-131.5 397.5q0 249 131.5 398t357.5 149zM871 1227 h-604v149h604v-149z" unicode="ō"/>
<glyph glyph-name="Obreve" horiz-adv-x="1593" unicode="Ŏ" d="M799 129q236 0 370 154.5t134 421.5q0 263 -135.5 420t-368.5 157q-236 0 -372 -157t-136 -420q0 -264 132.5 -420t375.5 -156zM799 1438q319 0 508.5 -201.5t189.5 -531.5q0 -318 -192 -525t-506 -207q-316 0 -509.5 207t-193.5 525q0 327 187.5 530t515.5 203z M1093 1767q-16 -119 -93.5 -189.5t-203.5 -70.5q-127 0 -204.5 71t-90.5 189h111q10 -68 56 -101.5t128 -33.5q80 0 126.5 33.5t59.5 101.5h111z"/>
<glyph glyph-name="obreve" d="M571 127q142 0 225 114t83 279q0 178 -80.5 285.5t-227.5 107.5q-148 0 -228.5 -107t-80.5 -286q0 -166 83 -279.5t226 -113.5zM571 1067q225 0 356.5 -150t131.5 -397t-131.5 -397t-356.5 -150q-226 0 -357.5 149.5t-131.5 397.5q0 249 131.5 398t357.5 149zM865 1427 q-16 -119 -93.5 -189.5t-203.5 -70.5q-127 0 -204.5 71t-90.5 189h111q10 -68 56 -101.5t128 -33.5q80 0 126.5 33.5t59.5 101.5h111z" unicode="ŏ"/>
<glyph glyph-name="Ohungarumlaut" horiz-adv-x="1593" unicode="Ő" d="M799 129q236 0 370 154.5t134 421.5q0 263 -135.5 420t-368.5 157q-236 0 -372 -157t-136 -420q0 -264 132.5 -420t375.5 -156zM799 1438q319 0 508.5 -201.5t189.5 -531.5q0 -318 -192 -525t-506 -207q-316 0 -509.5 207t-193.5 525q0 327 187.5 530t515.5 203z M866 1788l-241 -281h-148l174 281h215zM1215 1788l-242 -281h-147l174 281h215z"/>
<glyph glyph-name="ohungarumlaut" d="M571 127q142 0 225 114t83 279q0 178 -80.5 285.5t-227.5 107.5q-148 0 -228.5 -107t-80.5 -286q0 -166 83 -279.5t226 -113.5zM571 1067q225 0 356.5 -150t131.5 -397t-131.5 -397t-356.5 -150q-226 0 -357.5 149.5t-131.5 397.5q0 249 131.5 398t357.5 149zM618 1440 l-241 -281h-148l174 281h215zM967 1440l-242 -281h-147l174 281h215z" unicode="ő"/>
<glyph glyph-name="OE" horiz-adv-x="2048" unicode="Œ" d="M938 145v1121q-69 16 -139 16q-236 0 -372 -157t-136 -420q0 -264 132.5 -420t375.5 -156q70 0 139 16zM1933 0h-929q-100 -27 -205 -27q-316 0 -509.5 207t-193.5 525q0 327 187.5 530t515.5 203q38 0 74.5 -3t70.5 -10l68 -14h901v-156h-791v-442h707v-156h-707v-501 h811v-156z"/>
<glyph glyph-name="oe" horiz-adv-x="1933" unicode="œ" d="M571 127q142 0 225 114t83 279q0 178 -80.5 285.5t-227.5 107.5q-148 0 -228.5 -107t-80.5 -286q0 -166 83 -279.5t226 -113.5zM1645 643q-13 127 -92 202t-187 75q-119 0 -197 -72t-102 -205h578zM1849 94q-221 -121 -432 -121q-303 0 -444 207q-134 -207 -402 -207 q-226 0 -357.5 149.5t-131.5 397.5q0 249 131.5 398t357.5 149q267 0 400 -203q131 203 397 203q203 0 332 -139.5t129 -372.5v-47h-768q7 -188 98 -286.5t256 -98.5q195 0 383 113z"/>
<glyph glyph-name="Racute" horiz-adv-x="1479" unicode="Ŕ" d="M348 731h375q169 0 261.5 68.5t92.5 195.5q0 260 -368 260h-361v-524zM1442 0h-230l-485 575h-379v-575h-184v1411h569q252 0 393.5 -107.5t141.5 -306.5q0 -149 -92 -252.5t-244 -142.5zM923 1784l-262 -281h-147l174 281h235z"/>
<glyph glyph-name="racute" horiz-adv-x="682" unicode="ŕ" d="M700 1026l-51 -149q-46 28 -84 28q-55 0 -105 -53t-98.5 -156t-48.5 -104v-592h-174v1042h164v-241q75 155 134 210.5t138 55.5q75 0 125 -41zM659 1440l-262 -281h-147l174 281h235z"/>
<glyph glyph-name="Rcommaaccent" horiz-adv-x="1479" unicode="Ŗ" d="M348 731h375q169 0 261.5 68.5t92.5 195.5q0 260 -368 260h-361v-524zM1442 0h-230l-485 575h-379v-575h-184v1411h569q252 0 393.5 -107.5t141.5 -306.5q0 -149 -92 -252.5t-244 -142.5zM735 -289q-42 4 -70 33.5t-28 67.5q0 41 27 69.5t67 28.5q45 0 78 -37t33 -88 q0 -171 -174 -223l-31 57q98 32 98 92z"/>
<glyph glyph-name="rcommaaccent" horiz-adv-x="682" unicode="ŗ" d="M700 1026l-51 -149q-46 28 -84 28q-55 0 -105 -53t-98.5 -156t-48.5 -104v-592h-174v1042h164v-241q75 155 134 210.5t138 55.5q75 0 125 -41zM364 -289q-42 4 -70 33.5t-28 67.5q0 41 27 69.5t67 28.5q45 0 78 -37t33 -88q0 -171 -174 -223l-31 57q98 32 98 92z"/>
<glyph glyph-name="Rcaron" horiz-adv-x="1479" unicode="Ř" d="M348 731h375q169 0 261.5 68.5t92.5 195.5q0 260 -368 260h-361v-524zM1442 0h-230l-485 575h-379v-575h-184v1411h569q252 0 393.5 -107.5t141.5 -306.5q0 -149 -92 -252.5t-244 -142.5zM953 1788l-174 -281h-236l-174 281h148l145 -168l143 168h148z"/>
<glyph glyph-name="rcaron" horiz-adv-x="682" unicode="ř" d="M700 1026l-51 -149q-46 28 -84 28q-55 0 -105 -53t-98.5 -156t-48.5 -104v-592h-174v1042h164v-241q75 155 134 210.5t138 55.5q75 0 125 -41zM673 1440l-174 -281h-236l-174 281h148l145 -168l143 168h148z"/>
<glyph glyph-name="Sacute" horiz-adv-x="1366" unicode="Ś" d="M1122 1139q-81 61 -202.5 101t-229.5 40q-164 0 -262 -60.5t-98 -154.5q0 -68 64 -121t320 -122q170 -46 275.5 -87.5t180.5 -120t75 -202.5q0 -207 -164 -323t-397 -116q-308 0 -561 133l55 158q256 -133 498 -133q171 0 280 72t109 188q0 73 -53 121.5t-131.5 77.5 t-214.5 67q-167 45 -269.5 86t-174.5 117.5t-72 198.5q0 171 146 275t394 104q119 0 256 -38.5t250 -107.5zM959 1788l-262 -281h-147l174 281h235z"/>
<glyph glyph-name="sacute" horiz-adv-x="1024" unicode="ś" d="M834 825q-159 95 -310 95q-120 0 -184 -37t-64 -103q0 -47 42.5 -77.5t135.5 -57.5l138 -39q199 -56 271.5 -127.5t72.5 -181.5q0 -152 -113.5 -238t-306.5 -86q-227 0 -416 105l52 137q177 -94 354 -94q260 0 260 155q0 60 -54 101t-233 90q-144 40 -197 61.5t-95 57 t-61.5 79.5t-19.5 99q0 136 108 219.5t310 83.5q85 0 186 -27.5t181 -76.5zM795 1440l-262 -281h-147l174 281h235z"/>
<glyph glyph-name="Scircumflex" horiz-adv-x="1366" unicode="Ŝ" d="M1122 1139q-81 61 -202.5 101t-229.5 40q-164 0 -262 -60.5t-98 -154.5q0 -68 64 -121t320 -122q170 -46 275.5 -87.5t180.5 -120t75 -202.5q0 -207 -164 -323t-397 -116q-308 0 -561 133l55 158q256 -133 498 -133q171 0 280 72t109 188q0 73 -53 121.5t-131.5 77.5 t-214.5 67q-167 45 -269.5 86t-174.5 117.5t-72 198.5q0 171 146 275t394 104q119 0 256 -38.5t250 -107.5zM975 1507h-148l-143 168l-145 -168h-148l174 281h236z"/>
<glyph glyph-name="scircumflex" horiz-adv-x="1024" unicode="ŝ" d="M834 825q-159 95 -310 95q-120 0 -184 -37t-64 -103q0 -47 42.5 -77.5t135.5 -57.5l138 -39q199 -56 271.5 -127.5t72.5 -181.5q0 -152 -113.5 -238t-306.5 -86q-227 0 -416 105l52 137q177 -94 354 -94q260 0 260 155q0 60 -54 101t-233 90q-144 40 -197 61.5t-95 57 t-61.5 79.5t-19.5 99q0 136 108 219.5t310 83.5q85 0 186 -27.5t181 -76.5zM804 1159h-148l-143 168l-145 -168h-148l174 281h236z"/>
<glyph glyph-name="Scedilla" horiz-adv-x="1366" unicode="Ş" d="M1122 1139q-81 61 -202.5 101t-229.5 40q-164 0 -262 -60.5t-98 -154.5q0 -68 64 -121t320 -122q170 -46 275.5 -87.5t180.5 -120t75 -202.5q0 -207 -164 -323t-397 -116q-308 0 -561 133l55 158q256 -133 498 -133q171 0 280 72t109 188q0 73 -53 121.5t-131.5 77.5 t-214.5 67q-167 45 -269.5 86t-174.5 117.5t-72 198.5q0 171 146 275t394 104q119 0 256 -38.5t250 -107.5zM678 -289q-42 4 -70 33.5t-28 67.5q0 41 27 69.5t67 28.5q45 0 78 -37t33 -88q0 -171 -174 -223l-31 57q98 32 98 92z"/>
<glyph glyph-name="scedilla" horiz-adv-x="1024" unicode="ş" d="M834 825q-159 95 -310 95q-120 0 -184 -37t-64 -103q0 -47 42.5 -77.5t135.5 -57.5l138 -39q199 -56 271.5 -127.5t72.5 -181.5q0 -152 -113.5 -238t-306.5 -86q-227 0 -416 105l52 137q177 -94 354 -94q260 0 260 155q0 60 -54 101t-233 90q-144 40 -197 61.5t-95 57 t-61.5 79.5t-19.5 99q0 136 108 219.5t310 83.5q85 0 186 -27.5t181 -76.5zM514 -289q-42 4 -70 33.5t-28 67.5q0 41 27 69.5t67 28.5q45 0 78 -37t33 -88q0 -171 -174 -223l-31 57q98 32 98 92z"/>
<glyph glyph-name="Scaron" horiz-adv-x="1366" unicode="Š" d="M1122 1139q-81 61 -202.5 101t-229.5 40q-164 0 -262 -60.5t-98 -154.5q0 -68 64 -121t320 -122q170 -46 275.5 -87.5t180.5 -120t75 -202.5q0 -207 -164 -323t-397 -116q-308 0 -561 133l55 158q256 -133 498 -133q171 0 280 72t109 188q0 73 -53 121.5t-131.5 77.5 t-214.5 67q-167 45 -269.5 86t-174.5 117.5t-72 198.5q0 171 146 275t394 104q119 0 256 -38.5t250 -107.5zM967 1788l-174 -281h-236l-174 281h148l145 -168l143 168h148z"/>
<glyph glyph-name="scaron" horiz-adv-x="1024" unicode="š" d="M834 825q-159 95 -310 95q-120 0 -184 -37t-64 -103q0 -47 42.5 -77.5t135.5 -57.5l138 -39q199 -56 271.5 -127.5t72.5 -181.5q0 -152 -113.5 -238t-306.5 -86q-227 0 -416 105l52 137q177 -94 354 -94q260 0 260 155q0 60 -54 101t-233 90q-144 40 -197 61.5t-95 57 t-61.5 79.5t-19.5 99q0 136 108 219.5t310 83.5q85 0 186 -27.5t181 -76.5zM809 1440l-174 -281h-236l-174 281h148l145 -168l143 168h148z"/>
<glyph glyph-name="Tcommaaccent" horiz-adv-x="1251" unicode="Ţ" d="M1206 1255h-491v-1255h-185v1255h-487v156h1163v-156zM610 -289q-42 4 -70 33.5t-28 67.5q0 41 27 69.5t67 28.5q45 0 78 -37t33 -88q0 -171 -174 -223l-31 57q98 32 98 92z"/>
<glyph glyph-name="tcommaaccent" horiz-adv-x="569" unicode="ţ" d="M569 6q-97 -33 -155 -33q-135 0 -196.5 76t-61.5 238v612h-127v143h127v285h174v-285h200v-143h-200v-604q0 -172 106 -172q46 0 101 20zM266 -289q-42 4 -70 33.5t-28 67.5q0 41 27 69.5t67 28.5q45 0 78 -37t33 -88q0 -171 -174 -223l-31 57q98 32 98 92z"/>
<glyph glyph-name="Tcaron" horiz-adv-x="1251" unicode="Ť" d="M1206 1255h-491v-1255h-185v1255h-487v156h1163v-156zM913 1788l-174 -281h-236l-174 281h148l145 -168l143 168h148z"/>
<glyph glyph-name="tcaron" horiz-adv-x="768" unicode="ť" d="M569 6q-97 -33 -155 -33q-135 0 -196.5 76t-61.5 238v612h-127v143h127v285h174v-285h200v-143h-200v-604q0 -172 106 -172q46 0 101 20zM626 1291q-42 4 -70 33.5t-28 67.5q0 41 27 69.5t67 28.5q45 0 78 -37t33 -88q0 -171 -174 -223l-31 57q98 32 98 92z"/>
<glyph glyph-name="Tbar" horiz-adv-x="1251" unicode="Ŧ" d="M1206 1255h-491v-424h342v-155h-342v-676h-185v676h-335v155h335v424h-487v156h1163v-156z"/>
<glyph glyph-name="tbar" horiz-adv-x="569" unicode="ŧ" d="M569 6q-97 -33 -155 -33q-135 0 -196.5 76t-61.5 238v282h-127v144h127v186h-127v143h127v285h174v-285h200v-143h-200v-186h200v-144h-200v-274q0 -172 106 -172q46 0 101 20z"/>
<glyph glyph-name="Utilde" horiz-adv-x="1479" unicode="Ũ" d="M1321 520q0 -248 -153 -397.5t-429 -149.5q-275 0 -428 148t-153 395v895h184v-883q0 -184 106 -288.5t291 -104.5q189 0 299.5 106t110.5 291v879h172v-891zM1074 1765q-5 -117 -59 -173t-138 -56q-54 0 -145 47q-89 47 -119 47q-85 0 -96 -96h-113q7 115 62.5 172 t144.5 57q51 0 137 -43q103 -51 123 -51q80 0 92 96h111z"/>
<glyph glyph-name="utilde" d="M999 0h-174v145q-163 -172 -346 -172q-160 0 -252 93.5t-92 265.5v710h174v-665q0 -118 58.5 -185t158.5 -67q157 0 299 170v747h174v-1042zM904 1417q-5 -117 -59 -173t-138 -56q-54 0 -145 47q-89 47 -119 47q-85 0 -96 -96h-113q7 115 62.5 172t144.5 57q51 0 137 -43 q103 -51 123 -51q80 0 92 96h111z" unicode="ũ"/>
<glyph glyph-name="Umacron" horiz-adv-x="1479" unicode="Ū" d="M1321 520q0 -248 -153 -397.5t-429 -149.5q-275 0 -428 148t-153 395v895h184v-883q0 -184 106 -288.5t291 -104.5q189 0 299.5 106t110.5 291v879h172v-891zM1041 1510h-604v149h604v-149z"/>
<glyph glyph-name="umacron" d="M999 0h-174v145q-163 -172 -346 -172q-160 0 -252 93.5t-92 265.5v710h174v-665q0 -118 58.5 -185t158.5 -67q157 0 299 170v747h174v-1042zM871 1227h-604v149h604v-149z" unicode="ū"/>
<glyph glyph-name="Ubreve" horiz-adv-x="1479" unicode="Ŭ" d="M1321 520q0 -248 -153 -397.5t-429 -149.5q-275 0 -428 148t-153 395v895h184v-883q0 -184 106 -288.5t291 -104.5q189 0 299.5 106t110.5 291v879h172v-891zM1035 1767q-16 -119 -93.5 -189.5t-203.5 -70.5q-127 0 -204.5 71t-90.5 189h111q10 -68 56 -101.5t128 -33.5 q80 0 126.5 33.5t59.5 101.5h111z"/>
<glyph glyph-name="ubreve" d="M999 0h-174v145q-163 -172 -346 -172q-160 0 -252 93.5t-92 265.5v710h174v-665q0 -118 58.5 -185t158.5 -67q157 0 299 170v747h174v-1042zM865 1427q-16 -119 -93.5 -189.5t-203.5 -70.5q-127 0 -204.5 71t-90.5 189h111q10 -68 56 -101.5t128 -33.5q80 0 126.5 33.5 t59.5 101.5h111z" unicode="ŭ"/>
<glyph glyph-name="Uring" horiz-adv-x="1479" unicode="Ů" d="M1321 520q0 -248 -153 -397.5t-429 -149.5q-275 0 -428 148t-153 395v895h184v-883q0 -184 106 -288.5t291 -104.5q189 0 299.5 106t110.5 291v879h172v-891zM742 1595q39 0 65.5 26t26.5 64t-27 65t-65 27t-64 -27t-26 -65q0 -39 26 -64.5t64 -25.5zM742 1865 q75 0 127.5 -52.5t52.5 -127.5t-52.5 -128t-127.5 -53t-127.5 53t-52.5 128t52.5 127.5t127.5 52.5z"/>
<glyph glyph-name="uring" d="M999 0h-174v145q-163 -172 -346 -172q-160 0 -252 93.5t-92 265.5v710h174v-665q0 -118 58.5 -185t158.5 -67q157 0 299 170v747h174v-1042zM566 1219q39 0 65.5 26t26.5 64t-27 65t-65 27t-64 -27t-26 -65q0 -39 26 -64.5t64 -25.5zM566 1489q75 0 127.5 -52.5 t52.5 -127.5t-52.5 -128t-127.5 -53t-127.5 53t-52.5 128t52.5 127.5t127.5 52.5z" unicode="ů"/>
<glyph glyph-name="Uhungarumlaut" horiz-adv-x="1479" unicode="Ű" d="M1321 520q0 -248 -153 -397.5t-429 -149.5q-275 0 -428 148t-153 395v895h184v-883q0 -184 106 -288.5t291 -104.5q189 0 299.5 106t110.5 291v879h172v-891zM790 1788l-241 -281h-148l174 281h215zM1139 1788l-242 -281h-147l174 281h215z"/>
<glyph glyph-name="uhungarumlaut" d="M999 0h-174v145q-163 -172 -346 -172q-160 0 -252 93.5t-92 265.5v710h174v-665q0 -118 58.5 -185t158.5 -67q157 0 299 170v747h174v-1042zM622 1440l-241 -281h-148l174 281h215zM971 1440l-242 -281h-147l174 281h215z" unicode="ű"/>
<glyph glyph-name="Uogonek" horiz-adv-x="1479" unicode="Ų" d="M1321 520q0 -232 -136 -380.5t-392 -164.5q-23 -88 -23 -149q0 -60 38.5 -93.5t104.5 -33.5q77 0 162 45v-113q-105 -57 -207 -57q-104 0 -164.5 59t-60.5 164q0 88 29 178q-249 21 -381.5 167.5t-132.5 373.5v895h184v-883q0 -186 107 -289.5t290 -103.5 q189 0 299.5 106t110.5 291v879h172v-891z"/>
<glyph glyph-name="uogonek" d="M1223 -369q-106 -57 -207 -57q-105 0 -165 59t-60 164q0 35 4.5 71t12.5 70l17 64v143q-163 -172 -346 -172q-160 0 -252 93.5t-92 265.5v710h174v-665q0 -118 58.5 -185t158.5 -67q157 0 299 170v747h174v-1042h-53q-28 -96 -28 -174q0 -61 39 -94t104 -33q77 0 162 45 v-113z" unicode="ų"/>
<glyph glyph-name="Wcircumflex" horiz-adv-x="1933" unicode="Ŵ" d="M1901 1411l-402 -1411h-176l-356 1178l-377 -1178h-176l-383 1411h196l287 -1132l360 1132h183l358 -1132l301 1132h185zM1260 1509h-148l-143 168l-145 -168h-148l174 281h236z"/>
<glyph glyph-name="wcircumflex" horiz-adv-x="1479" unicode="ŵ" d="M1450 1042l-309 -1042h-150l-254 838l-254 -838h-149l-309 1042h180l209 -804l239 804h168l240 -804l209 804h180zM1031 1159h-148l-143 168l-145 -168h-148l174 281h236z"/>
<glyph glyph-name="Ycircumflex" horiz-adv-x="1366" unicode="Ŷ" d="M1356 1411l-582 -872v-539h-184v539l-580 872h205l467 -725l481 725h193zM975 1509h-148l-143 168l-145 -168h-148l174 281h236z"/>
<glyph glyph-name="ycircumflex" horiz-adv-x="1024" unicode="ŷ" d="M1008 1042l-422 -1060q-77 -193 -167 -300.5t-255 -107.5q-81 0 -176 41l37 139q93 -30 143 -30q83 0 148.5 70t113.5 210l-414 1038h179l317 -827l317 827h179zM804 1159h-148l-143 168l-145 -168h-148l174 281h236z"/>
<glyph glyph-name="Ydieresis" horiz-adv-x="1366" unicode="Ÿ" d="M1356 1411l-582 -872v-539h-184v539l-580 872h205l467 -725l481 725h193zM498 1753q43 0 74.5 -31.5t31.5 -75.5q0 -42 -31.5 -73t-74.5 -31t-74 31t-31 73q0 45 30.5 76t74.5 31zM868 1753q44 0 75.5 -31.5t31.5 -75.5q0 -42 -32 -73t-75 -31q-42 0 -73 31t-31 73 q0 45 30.5 76t73.5 31z"/>
<glyph glyph-name="Zacute" horiz-adv-x="1251" unicode="Ź" d="M1184 0h-1116v131l864 1124h-834v156h1053v-135l-856 -1120h889v-156zM863 1788l-262 -281h-147l174 281h235z"/>
<glyph glyph-name="zacute" horiz-adv-x="1024" unicode="ź" d="M985 0h-922v119l639 770h-624v153h856v-110l-639 -778h690v-154zM751 1440l-262 -281h-147l174 281h235z"/>
<glyph glyph-name="Zdotaccent" horiz-adv-x="1251" unicode="Ż" d="M1184 0h-1116v131l864 1124h-834v156h1053v-135l-856 -1120h889v-156zM626 1718q43 0 74.5 -31.5t31.5 -75.5q0 -42 -31.5 -73t-74.5 -31t-73.5 30.5t-30.5 73.5q0 44 30.5 75.5t73.5 31.5z"/>
<glyph glyph-name="zdotaccent" horiz-adv-x="1024" unicode="ż" d="M985 0h-922v119l639 770h-624v153h856v-110l-639 -778h690v-154zM504 1436q43 0 74.5 -31.5t31.5 -75.5q0 -42 -31.5 -73t-74.5 -31t-73.5 30.5t-30.5 73.5q0 44 30.5 75.5t73.5 31.5z"/>
<glyph glyph-name="Zcaron" horiz-adv-x="1251" unicode="Ž" d="M1184 0h-1116v131l864 1124h-834v156h1053v-135l-856 -1120h889v-156zM918 1788l-174 -281h-236l-174 281h148l145 -168l143 168h148z"/>
<glyph glyph-name="zcaron" horiz-adv-x="1024" unicode="ž" d="M985 0h-922v119l639 770h-624v153h856v-110l-639 -778h690v-154zM805 1440l-174 -281h-236l-174 281h148l145 -168l143 168h148z"/>
<glyph glyph-name="longs" horiz-adv-x="455" unicode="ſ" d="M596 1462l-41 -135q-86 25 -139 25q-61 0 -85 -49.5t-24 -157.5v-1145h-174v1169q0 181 68 256.5t213 75.5q81 0 182 -39z"/>
<glyph glyph-name="florin" d="M1047 1462l-41 -135q-86 25 -140 25q-39 0 -62.5 -34.5t-64.5 -275.5h201v-143h-227l-172 -962q-32 -184 -101 -258t-198 -74q-82 0 -183 39l41 135q86 -25 140 -25q94 0 131 207l168 938h-177v143h201q44 225 68.5 300.5t78 117t154.5 41.5q82 0 183 -39z" unicode="ƒ"/>
<glyph glyph-name="Aringacute" horiz-adv-x="1366" unicode="Ǻ" d="M684 1411q51 0 86 34.5t35 84.5q0 51 -35 86t-86 35q-50 0 -84.5 -35t-34.5 -86t34 -85t85 -34zM965 2124l-263 -281h-147l174 281h236zM911 637l-227 555l-227 -555h454zM1358 0h-197l-194 481h-570l-192 -481h-195l559 1346q-102 67 -102 184q0 90 63.5 153.5 t153.5 63.5t153.5 -63.5t63.5 -153.5q0 -117 -102 -184z"/>
<glyph glyph-name="aringacute" d="M571 1227q51 0 86 34t35 85q0 50 -35 85t-86 35q-50 0 -84 -35t-34 -85q0 -51 34 -85t84 -34zM571 1563q91 0 154 -63.5t63 -153.5q0 -91 -63 -154.5t-154 -63.5q-90 0 -153.5 63.5t-63.5 154.5q0 90 63.5 153.5t153.5 63.5zM809 1898l-262 -280h-148l174 280h236z M813 299v199q-224 -13 -293.5 -20.5t-135.5 -32.5t-100 -68t-34 -107q0 -67 51.5 -107t130.5 -40q102 0 209 48.5t172 127.5zM1044 0h-188q-16 25 -27.5 71t-11.5 76q-185 -174 -407 -174q-147 0 -238.5 76.5t-91.5 212.5q0 108 54.5 182.5t164 116.5t278.5 53l236 15v33 q0 146 -58 203t-204 57q-70 0 -173.5 -30.5t-174.5 -70.5l-51 133q84 50 205.5 81.5t222.5 31.5q208 0 307.5 -94t99.5 -287v-438q0 -163 57 -248z" unicode="ǻ"/>
<glyph glyph-name="AEacute" horiz-adv-x="2048" unicode="Ǽ" d="M938 637v618h-88l-318 -618h406zM1933 0h-995v481h-483l-250 -481h-195l729 1411h1174v-156h-791v-442h707v-156h-707v-501h811v-156zM1573 1788l-262 -281h-147l174 281h235z"/>
<glyph glyph-name="aeacute" horiz-adv-x="1821" unicode="ǽ" d="M815 301q-29 91 -29 197q-206 -14 -275.5 -22.5t-132.5 -33.5t-95.5 -67t-32.5 -105q0 -70 52 -108.5t142 -38.5q94 0 199.5 50t171.5 128zM1534 643q-12 128 -87 202.5t-181 74.5q-239 0 -289 -277h557zM1739 94q-219 -121 -422 -121q-330 0 -461 213 q-202 -213 -446 -213q-147 0 -238.5 76.5t-91.5 212.5q0 107 54 181.5t163.5 116.5t281.5 54l214 15v33q0 158 -53 209t-189 51q-70 0 -173.5 -30.5t-174.5 -70.5l-51 133q84 50 205.5 81.5t222.5 31.5q268 0 331 -152q123 152 357 152q201 0 325.5 -138.5t124.5 -373.5v-47 h-747q15 -385 344 -385q187 0 373 113zM1115 1440l-262 -281h-147l174 281h235z"/>
<glyph glyph-name="Oslashacute" horiz-adv-x="1593" unicode="Ǿ" d="M457 250q131 -121 342 -121q236 0 370 154.5t134 421.5q0 192 -76 335zM1137 1157q-130 125 -338 125q-236 0 -372 -157t-136 -420q0 -196 76 -338zM1511 1333l-153 -157q139 -192 139 -471q0 -318 -192 -525t-506 -207q-271 0 -459 158l-156 -160l-100 105l156 162 q-144 199 -144 467q0 327 187.5 530t515.5 203q277 0 461 -156l151 156zM1024 1788l-262 -281h-147l174 281h235z"/>
<glyph glyph-name="oslashacute" horiz-adv-x="1251" unicode="ǿ" d="M426 209q82 -82 201 -82q141 0 224 114t83 279q0 116 -35 203zM827 836q-75 77 -200 77q-149 0 -229.5 -107t-80.5 -286q0 -103 37 -196zM1210 1059l-184 -199q88 -139 88 -340q0 -244 -129.5 -395.5t-357.5 -151.5q-193 0 -318 109l-176 -191l-92 93l182 198 q-86 136 -86 338q0 249 131.5 398t358.5 149q191 0 313 -109l178 193zM850 1440l-262 -281h-147l174 281h235z"/>
<glyph glyph-name="circumflex" horiz-adv-x="682" unicode="ˆ" d="M635 1159h-148l-143 168l-145 -168h-148l174 281h236z"/>
<glyph glyph-name="caron" horiz-adv-x="682" unicode="ˇ" d="M633 1440l-174 -281h-236l-174 281h148l145 -168l143 168h148z"/>
<glyph glyph-name="macron" horiz-adv-x="682" unicode="ˉ" d="M643 1227h-604v149h604v-149z"/>
<glyph glyph-name="breve" horiz-adv-x="682" unicode="˘" d="M637 1427q-16 -119 -93.5 -189.5t-203.5 -70.5q-127 0 -204.5 71t-90.5 189h111q10 -68 56 -101.5t128 -33.5q80 0 126.5 33.5t59.5 101.5h111z"/>
<glyph glyph-name="dotaccent" horiz-adv-x="682" unicode="˙" d="M340 1436q43 0 74.5 -31.5t31.5 -75.5q0 -42 -31.5 -73t-74.5 -31t-73.5 30.5t-30.5 73.5q0 44 30.5 75.5t73.5 31.5z"/>
<glyph glyph-name="ring" horiz-adv-x="682" unicode="˚" d="M342 1219q39 0 65.5 26t26.5 64t-27 65t-65 27t-64 -27t-26 -65q0 -39 26 -64.5t64 -25.5zM342 1489q75 0 127.5 -52.5t52.5 -127.5t-52.5 -128t-127.5 -53t-127.5 53t-52.5 128t52.5 127.5t127.5 52.5z"/>
<glyph glyph-name="ogonek" horiz-adv-x="682" unicode="˛" d="M614 -369q-105 -57 -206 -57q-105 0 -165.5 59t-60.5 164q0 102 43 228h121q-37 -123 -37 -199q0 -60 38.5 -93.5t105.5 -33.5q76 0 161 45v-113z"/>
<glyph glyph-name="tilde" horiz-adv-x="682" unicode="˜" d="M676 1417q-5 -117 -59 -173t-138 -56q-54 0 -145 47q-89 47 -119 47q-85 0 -96 -96h-113q7 115 62.5 172t144.5 57q51 0 137 -43q103 -51 123 -51q80 0 92 96h111z"/>
<glyph glyph-name="hungarumlaut" horiz-adv-x="682" unicode="˝" d="M362 1440l-241 -281h-148l174 281h215zM711 1440l-242 -281h-147l174 281h215z"/>
<glyph glyph-name="Wgrave" horiz-adv-x="1933" unicode="Ẁ" d="M1901 1411l-402 -1411h-176l-356 1178l-377 -1178h-176l-383 1411h196l287 -1132l360 1132h183l358 -1132l301 1132h185zM1110 1507h-147l-262 281h235z"/>
<glyph glyph-name="wgrave" horiz-adv-x="1479" unicode="ẁ" d="M1450 1042l-309 -1042h-150l-254 838l-254 -838h-149l-309 1042h180l209 -804l239 804h168l240 -804l209 804h180zM858 1159h-147l-262 281h235z"/>
<glyph glyph-name="Wacute" horiz-adv-x="1933" unicode="Ẃ" d="M1901 1411l-402 -1411h-176l-356 1178l-377 -1178h-176l-383 1411h196l287 -1132l360 1132h183l358 -1132l301 1132h185zM1210 1788l-262 -281h-147l174 281h235z"/>
<glyph glyph-name="wacute" horiz-adv-x="1479" unicode="ẃ" d="M1450 1042l-309 -1042h-150l-254 838l-254 -838h-149l-309 1042h180l209 -804l239 804h168l240 -804l209 804h180zM991 1440l-262 -281h-147l174 281h235z"/>
<glyph glyph-name="Wdieresis" horiz-adv-x="1933" unicode="Ẅ" d="M1901 1411l-402 -1411h-176l-356 1178l-377 -1178h-176l-383 1411h196l287 -1132l360 1132h183l358 -1132l301 1132h185zM780 1753q43 0 74.5 -31.5t31.5 -75.5q0 -42 -31.5 -73t-74.5 -31t-74 31t-31 73q0 45 30.5 76t74.5 31zM1150 1753q44 0 75.5 -31.5t31.5 -75.5 q0 -42 -32 -73t-75 -31q-42 0 -73 31t-31 73q0 45 30.5 76t73.5 31z"/>
<glyph glyph-name="wdieresis" horiz-adv-x="1479" unicode="ẅ" d="M1450 1042l-309 -1042h-150l-254 838l-254 -838h-149l-309 1042h180l209 -804l239 804h168l240 -804l209 804h180zM553 1405q43 0 74.5 -31.5t31.5 -75.5q0 -42 -31.5 -73t-74.5 -31t-74 31t-31 73q0 45 30.5 76t74.5 31zM923 1405q44 0 75.5 -31.5t31.5 -75.5 q0 -42 -32 -73t-75 -31q-42 0 -73 31t-31 73q0 45 30.5 76t73.5 31z"/>
<glyph glyph-name="Ygrave" horiz-adv-x="1366" unicode="Ỳ" d="M1356 1411l-582 -872v-539h-184v539l-580 872h205l467 -725l481 725h193zM827 1507h-147l-262 281h235z"/>
<glyph glyph-name="ygrave" horiz-adv-x="1024" unicode="ỳ" d="M1008 1042l-422 -1060q-77 -193 -167 -300.5t-255 -107.5q-81 0 -176 41l37 139q93 -30 143 -30q83 0 148.5 70t113.5 210l-414 1038h179l317 -827l317 827h179zM674 1159h-147l-262 281h235z"/>
<glyph glyph-name="endash" d="M1143 457h-1147v147h1147v-147z" unicode="–"/>
<glyph glyph-name="emdash" horiz-adv-x="2048" unicode="—" d="M2052 457h-2056v147h2056v-147z"/>
<glyph glyph-name="quoteleft" horiz-adv-x="455" unicode="‘" d="M358 1368q-122 -60 -122 -141q52 -6 86 -42.5t34 -84.5q0 -51 -33 -86t-83 -35q-56 0 -97 45.5t-41 110.5q0 195 217 305z"/>
<glyph glyph-name="quoteright" horiz-adv-x="455" unicode="’" d="M221 1190q-53 6 -87 42.5t-34 84.5q0 51 33.5 86t83.5 35q56 0 96.5 -45.5t40.5 -110.5q0 -195 -217 -305l-39 72q123 60 123 141z"/>
<glyph glyph-name="quotesinglbase" horiz-adv-x="455" unicode="‚" d="M217 -27q-53 6 -87 43t-34 84q0 51 33.5 86t83.5 35q56 0 96.5 -45.5t40.5 -109.5q0 -196 -217 -306l-39 72q123 60 123 141z"/>
<glyph glyph-name="quotedblleft" horiz-adv-x="682" unicode="“" d="M287 1368q-123 -60 -123 -141q53 -6 87 -42.5t34 -84.5q0 -51 -33.5 -86t-83.5 -35q-56 0 -96.5 45.5t-40.5 110.5q0 195 217 305zM653 1368q-123 -60 -123 -141q53 -6 87 -42.5t34 -84.5q0 -51 -33 -86t-83 -35q-56 0 -97 45.5t-41 110.5q0 195 217 305z"/>
<glyph glyph-name="quotedblright" horiz-adv-x="682" unicode="”" d="M150 1190q-53 6 -87 42.5t-34 84.5q0 51 33.5 86t82.5 35q56 0 97 -45.5t41 -110.5q0 -195 -217 -305l-39 72q123 60 123 141zM516 1190q-53 6 -87 42.5t-34 84.5q0 51 33.5 86t83.5 35q56 0 96.5 -45.5t40.5 -110.5q0 -195 -217 -305l-39 72q123 60 123 141z"/>
<glyph glyph-name="quotedblbase" horiz-adv-x="682" unicode="„" d="M150 -27q-53 6 -87 43t-34 84q0 51 33 86t83 35q56 0 97 -45.5t41 -109.5q0 -196 -217 -306l-39 72q123 60 123 141zM516 -27q-53 6 -87 43t-34 84q0 51 33.5 86t83.5 35q56 0 96.5 -45.5t40.5 -109.5q0 -196 -217 -306l-39 72q123 60 123 141z"/>
<glyph glyph-name="bullet" horiz-adv-x="717" unicode="•" d="M360 877q106 0 181 -75.5t75 -180.5q0 -106 -75 -181t-181 -75q-105 0 -180.5 75t-75.5 181t75 181t181 75z"/>
<glyph glyph-name="guilsinglleft" horiz-adv-x="682" unicode="‹" d="M575 113h-147l-338 415l338 416h147l-280 -416z"/>
<glyph glyph-name="guilsinglright" horiz-adv-x="682" unicode="›" d="M594 528l-338 -415h-147l280 415l-280 416h147z"/>
<glyph glyph-name="uni2044" horiz-adv-x="342" unicode="⁄" d="M715 1438l-946 -1465h-148l948 1465h146z"/>
<glyph glyph-name="foursuperior" horiz-adv-x="682" unicode="⁴" d="M317 871v348l-252 -348h252zM596 746h-127v-174h-152v174h-395v117l406 559h141v-551h127v-125z"/>
<glyph glyph-name="nsuperior" horiz-adv-x="747" unicode="ⁿ" d="M645 745h-135v451q0 69 -30 104t-79 35q-81 0 -159 -90v-500h-136v678h136v-80q87 95 186 95q98 0 157.5 -57t59.5 -158v-478z"/>
<glyph glyph-name="franc" d="M1036 1292h-674v-452h568v-174h-568v-271h316v-149h-316v-246h-194v246h-168v149h168v1071h868v-174z" unicode="₣"/>
<glyph glyph-name="lira" d="M1081 0h-942v170q174 107 197 229h-221v148h215q-21 87 -45 151h-170v148h106q-41 99 -41 188q0 182 127 293t322 111q212 0 413 -113l-51 -143q-175 102 -352 102q-126 0 -202.5 -68.5t-76.5 -181.5q0 -53 41 -188h379v-148h-315q30 -77 45 -151h270v-148h-264 q-22 -130 -178 -225h743v-174z" unicode="₤"/>
<glyph glyph-name="peseta" horiz-adv-x="2240" unicode="₧" d="M1413 215q177 -94 354 -94q130 0 195.5 38.5t65.5 116.5q0 60 -54 101t-233 90q-144 40 -197.5 61.5t-95 57t-61 79.5t-19.5 99q0 70 33 135h-187v-604q0 -86 26.5 -129t80.5 -43q34 0 61 8zM281 717h155q155 0 239.5 73.5t84.5 204.5q0 117 -87.5 188.5t-236.5 71.5 h-155v-538zM2095 825q-158 95 -309 95q-120 0 -184 -37t-64 -103q0 -47 42 -77.5t136 -57.5l137 -39q199 -56 272 -127.5t73 -181.5q0 -152 -113.5 -238t-306.5 -86q-176 0 -330 64l6 -31q-97 -33 -156 -33q-134 0 -196 76t-62 238v612h-102q-38 -157 -167 -247.5 t-316 -90.5h-174v-561h-185v1411h361q201 0 335 -99.5t154 -269.5h94v285h174v-285h201v-120q107 145 371 145q85 0 186 -27.5t180 -76.5z"/>
<glyph glyph-name="Euro" d="M1096 100q-204 -127 -426 -127q-450 0 -508 568h-154l41 106h105v60q0 48 2 71h-148l41 107h117q36 268 163.5 410.5t336.5 142.5q207 0 415 -129l-61 -150q-188 125 -350 125q-132 0 -214.5 -101t-107.5 -298h432l-41 -107h-399q-2 -21 -2 -71v-60h442l-41 -106h-393 q43 -416 326 -416q187 0 370 119z" unicode="€"/>
<glyph glyph-name="fraction" horiz-adv-x="342" unicode="∕" d="M805 1499l-1102 -1550h-158l1104 1550h156z"/>
<glyph glyph-name="glyph655" d="M610 -289q-42 4 -70 33.5t-28 67.5q0 41 27 69.5t67 28.5q45 0 78 -37t33 -88q0 -171 -174 -223l-31 57q98 32 98 92z" horiz-adv-x="1251"/>
</font>
</defs>
</svg>
