<?xml version="1.0" encoding="UTF-8" standalone="no"?>
<!DOCTYPE svg  PUBLIC '-//W3C//DTD SVG 1.1//EN'  'http://www.w3.org/Graphics/SVG/1.1/DTD/svg11.dtd'>
<svg xmlns="http://www.w3.org/2000/svg">
<defs>
<font id="Candara-Regular" horiz-adv-x="547">
<font-face underline-position="-123" font-weight="400" descent="-410" panose-1="2 14 5 2 3 3 3 2 2 4" units-per-em="2048" unicode-range="U+000D-20AC" bbox="-852 -581 2048 1900" x-height="950" underline-thickness="20" font-family="Candara" ascent="1638" cap-height="1302"/>
<missing-glyph horiz-adv-x="2048"/>
<glyph glyph-name=".notdef" horiz-adv-x="2048"/>
<glyph glyph-name="glyph1" horiz-adv-x="2048"/>
<glyph glyph-name="glyph1" horiz-adv-x="2048"/>
<glyph glyph-name="uni000D" horiz-adv-x="2048" unicode=""/>
<glyph glyph-name="space" horiz-adv-x="444" unicode=" "/>
<glyph glyph-name="space" horiz-adv-x="444" unicode=" "/>
<glyph glyph-name="exclam" horiz-adv-x="516" unicode="!" d="M393 147q0 -59 -39.5 -104t-109.5 -45q-59 0 -91.5 39t-32.5 93q0 58 40 101.5t111 43.5q59 0 90.5 -37t31.5 -91zM378 1167q0 -215 -83 -630h-74q-52 422 -52 618q0 171 118 171q91 0 91 -159z"/>
<glyph glyph-name="quotedbl" horiz-adv-x="926" unicode='&quot;' d="M776 1262q0 -215 -126 -560h-37q-58 372 -58 560q0 159 113 159q70 0 89 -40t19 -119zM371 1262q0 -215 -126 -560h-37q-58 372 -58 560q0 159 113 159q70 0 89 -40t19 -119z"/>
<glyph glyph-name="numbersign" horiz-adv-x="1033" unicode="#" d="M694 788h-239q-21 -57 -45 -120q-26 -67 -48 -126h237q16 41 33 86q33 85 62 160zM998 916v-128h-192q-21 -55 -45 -118q-25 -68 -48 -128h181v-128h-230q-131 -352 -146 -414h-130q16 39 161 414h-236q-131 -352 -146 -414h-130q16 40 161 414h-163v128h213q15 39 33 84 q33 86 62 162h-204v128h252q117 317 124 392h128q-8 -41 -140 -392h239q117 319 124 392h128q-8 -39 -140 -392h144z"/>
<glyph glyph-name="dollar" horiz-adv-x="909" unicode="$" d="M796 311q0 -249 -275 -285q0 -165 8 -295h-118q7 120 7 255v34q-161 0 -304 33l31 147q130 -50 277 -50q223 0 223 114q0 59 -52 100q-43 34 -157 79q-138 55 -199 103q-100 80 -100 197q0 102 70 180t213 93q0 196 -9 306h118q-8 -102 -8 -265v-37q149 -3 240 -29 l-31 -145q-109 44 -246 44q-192 0 -192 -112q0 -56 40 -88t166 -81q133 -52 197 -103q101 -81 101 -195z"/>
<glyph glyph-name="percent" horiz-adv-x="1033" unicode="%" d="M450 1064q0 64 -37 111.5t-103 47.5t-103.5 -47.5t-37.5 -111.5q0 -63 37 -109t104 -46t103.5 46t36.5 109zM864 227q0 64 -37.5 111.5t-103.5 47.5q-65 0 -102.5 -47.5t-37.5 -111.5q0 -63 36.5 -109t103.5 -46t104 46t37 109zM960 1292q0 -89 -390 -633t-390 -659 l-118 10q0 97 390 643t390 649zM979 231q0 -98 -67.5 -169.5t-188.5 -71.5t-188.5 70.5t-67.5 168.5t67.5 170t188.5 72t188.5 -71t67.5 -169zM566 1068q0 -98 -67.5 -170t-188.5 -72t-188.5 71t-67.5 169t67.5 170t188.5 72t188.5 -71t67.5 -169z"/>
<glyph glyph-name="ampersand" horiz-adv-x="1396" unicode="&amp;" d="M702 1010q0 94 -49.5 142t-119.5 48q-65 0 -114 -39.5t-49 -104.5q0 -135 204 -230q128 56 128 184zM913 343v10q-73 77 -144 142q-169 154 -296 216q-211 -95 -211 -325q0 -125 76.5 -199.5t202.5 -74.5q169 0 372 231zM1370 0h-217q0 25 -65 123q-63 95 -105 139h-8 q-197 -291 -512 -291q-168 0 -274 92t-106 253q0 169 76 279t223 169v7q-180 139 -180 276q0 131 99 204t234 73q134 0 231.5 -72t97.5 -202q0 -83 -53 -156q-55 -76 -146 -113v-10q112 -59 335 -277h6q44 77 44 268h188q0 -40 -50 -160q-55 -131 -105 -185v-8 q75 -69 179 -215q108 -151 108 -194z"/>
<glyph glyph-name="quotesingle" horiz-adv-x="521" unicode="&apos;" d="M371 1262q0 -215 -126 -560h-37q-58 372 -58 560q0 159 113 159q70 0 89 -40t19 -119z"/>
<glyph glyph-name="parenleft" horiz-adv-x="723" unicode="(" d="M651 -401l-73 -85q-147 68 -249 185q-250 283 -250 772q0 526 255 841q107 131 255 209l51 -85q-116 -91 -198 -217q-198 -304 -198 -748q0 -380 204 -664q43 -60 93 -111.5t110 -96.5z"/>
<glyph glyph-name="parenright" horiz-adv-x="723" unicode=")" d="M651 564q0 -526 -255 -841q-107 -131 -256 -209l-51 85q116 90 199 217q198 305 198 748q0 381 -203 664q-85 119 -204 208l72 85q146 -67 250 -185q250 -283 250 -772z"/>
<glyph glyph-name="asterisk" horiz-adv-x="1033" unicode="*" d="M940 1058q0 -87 -169 -87q-91 0 -184 8l-6 -20q219 -181 219 -238q0 -41 -44 -81.5t-87 -40.5q-82 0 -152 318h-23q-110 -289 -182 -289q-42 0 -88 35.5t-46 76.5q0 72 256 225l-6 23q-112 9 -294 41q-39 13 -39 74q0 48 23 89t64 41q58 0 275 -173l18 12 q-51 224 -51 292q0 31 34.5 50.5t78.5 19.5q99 0 99 -70q0 -79 -84 -296l16 -16q219 140 279 140q38 0 65.5 -46t27.5 -88z"/>
<glyph glyph-name="plus" horiz-adv-x="1033" unicode="+" d="M926 438h-345v-366h-129v366h-345v128h345v366h129v-366h345v-128z"/>
<glyph glyph-name="comma" horiz-adv-x="516" unicode="," d="M390 114q0 -133 -69 -249.5t-211 -240.5l-60 66q152 170 152 314q-86 34 -86 126q0 58 36 101.5t107 43.5q58 0 94.5 -47t36.5 -114z"/>
<glyph glyph-name="period" horiz-adv-x="516" unicode="." d="M393 147q0 -59 -39.5 -104t-109.5 -45q-59 0 -91.5 39t-32.5 93q0 58 40 101.5t111 43.5q59 0 90.5 -37t31.5 -91z"/>
<glyph glyph-name="slash" d="M532 1455q0 -69 -183 -828.5t-183 -928.5h-151q0 65 184 816.5t184 940.5h149z" unicode="/"/>
<glyph glyph-name="zero" horiz-adv-x="1125" unicode="0" d="M836 499q0 197 -74.5 315t-203.5 118h-4q-127 0 -196 -113t-69 -279q0 -197 74.5 -315t203.5 -118h4q116 0 190.5 104t74.5 288zM1005 539q0 -240 -119 -402t-336 -162q-208 0 -319 148t-111 377q0 240 119 402t336 162q208 0 319 -148t111 -377z"/>
<glyph glyph-name="one" horiz-adv-x="716" unicode="1" d="M516 0h-171q11 211 11 438q0 263 -11 388l-228 -114l-47 87l360 265h86q-10 -323 -10 -626q0 -214 10 -438z"/>
<glyph glyph-name="two" horiz-adv-x="946" unicode="2" d="M846 141l-20 -141h-726l20 135q259 178 364 297.5t105 275.5q0 211 -282 211q-121 0 -192 -16l20 141q74 20 194 20q222 0 329 -90t107 -219q0 -192 -139.5 -340t-341.5 -278v-8q284 0 562 12z"/>
<glyph glyph-name="three" horiz-adv-x="995" unicode="3" d="M875 151q0 -203 -202.5 -365.5t-583.5 -181.5l-29 123q303 20 473 121t170 268q0 155 -127 218.5t-370 63.5l20 119q193 0 317 59t124 162q0 97 -78 138t-242 41q-123 0 -215 -21l12 141q92 27 289 27q182 0 280.5 -77.5t98.5 -184.5q0 -220 -231 -297v-10 q127 -24 210.5 -116t83.5 -228z"/>
<glyph glyph-name="four" horiz-adv-x="1092" unicode="4" d="M667 913h-8q0 -27 -215 -311t-215 -300v-8q176 0 427 7q2 310 11 612zM1002 311l-21 -157h-173q0 -186 12 -484h-171q8 258 8 484h-566l-21 126q0 26 271 393t270 382h209q-12 -226 -12 -755q91 0 194 11z"/>
<glyph glyph-name="five" horiz-adv-x="1006" unicode="5" d="M886 174q0 -206 -201 -366t-537 -173l-28 118q276 17 432.5 119t156.5 257q0 168 -127 235.5t-455 67.5q56 456 56 623h611l-6 -159q-204 28 -482 28q-27 -191 -27 -358q308 0 457.5 -93.5t149.5 -298.5z"/>
<glyph glyph-name="six" horiz-adv-x="1130" unicode="6" d="M836 375q0 128 -78.5 220t-230.5 92q-143 0 -233 -117q0 -257 77.5 -370.5t194.5 -113.5q126 0 198 85.5t72 203.5zM1010 404q0 -181 -117.5 -314t-330.5 -133q-183 0 -312.5 140t-129.5 412q0 791 700 834l13 -116q-266 -27 -390.5 -155.5t-147.5 -390.5h11 q96 133 322 133q179 0 280.5 -121.5t101.5 -288.5z"/>
<glyph glyph-name="seven" horiz-adv-x="968" unicode="7" d="M878 1055q0 -185 -145 -510q-60 -135 -268 -533q-144 -276 -144 -342l-176 21q0 64 151 327q261 459 278 493q151 287 151 405q-216 0 -655 -26l6 165h802z"/>
<glyph glyph-name="eight" horiz-adv-x="1127" unicode="8" d="M777 1052q0 97 -62.5 148.5t-149.5 51.5q-83 0 -145 -45.5t-62 -123.5q0 -162 237 -275q182 81 182 244zM841 343q0 188 -310 339q-108 -37 -177.5 -120.5t-69.5 -181.5q0 -129 83.5 -198.5t199.5 -69.5q111 0 192.5 62t81.5 169zM1007 370q0 -185 -133.5 -288 t-315.5 -103q-178 0 -308 99t-130 277q0 117 74 215.5t211 156.5v11q-206 127 -206 314q0 150 110 232t262 82q148 0 256.5 -78t108.5 -214q0 -93 -58 -178t-161 -127v-11q290 -163 290 -388z"/>
<glyph glyph-name="nine" horiz-adv-x="1123" unicode="9" d="M829 469q0 229 -85 344.5t-201 115.5q-117 0 -183.5 -83t-66.5 -199q0 -127 80 -222t223 -95q152 0 233 139zM1003 492q0 -854 -725 -897l-29 119q545 37 578 631h-10q-100 -143 -319 -143q-177 0 -277.5 122.5t-100.5 291.5q0 181 115.5 314.5t324.5 133.5 q184 0 313.5 -144.5t129.5 -427.5z"/>
<glyph glyph-name="colon" horiz-adv-x="516" unicode=":" d="M393 829q0 -59 -39.5 -104t-109.5 -45q-59 0 -91.5 39t-32.5 93q0 58 40 101.5t111 43.5q59 0 90.5 -37t31.5 -91zM393 147q0 -59 -39.5 -104t-109.5 -45q-59 0 -91.5 39t-32.5 93q0 58 40 101.5t111 43.5q59 0 90.5 -37t31.5 -91z"/>
<glyph glyph-name="semicolon" horiz-adv-x="516" unicode=";" d="M390 114q0 -133 -69 -249.5t-211 -240.5l-60 66q152 170 152 314q-86 34 -86 126q0 58 36 101.5t107 43.5q58 0 94.5 -47t36.5 -114zM393 829q0 -59 -39.5 -104t-109.5 -45q-59 0 -91.5 39t-32.5 93q0 58 40 101.5t111 43.5q59 0 90.5 -37t31.5 -91z"/>
<glyph glyph-name="less" horiz-adv-x="1033" unicode="&lt;" d="M926 149l-83 -124l-736 444v87l736 444l83 -122l-649 -355v-23z"/>
<glyph glyph-name="equal" horiz-adv-x="1033" unicode="=" d="M926 231h-819v128h819v-128zM926 645h-819v128h819v-128z"/>
<glyph glyph-name="greater" horiz-adv-x="1033" unicode="&gt;" d="M926 469l-736 -444l-83 124l651 353v23l-651 353l83 122l736 -444v-87z"/>
<glyph glyph-name="question" horiz-adv-x="723" unicode="?" d="M436 147q0 -59 -39.5 -104t-109.5 -45q-59 0 -91.5 39t-32.5 93q0 58 40 101.5t111 43.5q59 0 90.5 -37t31.5 -91zM653 1023q0 -216 -277 -335l-21 -151h-78l-37 213q243 49 243 242q0 217 -423 217l25 126q568 0 568 -312z"/>
<glyph glyph-name="at" horiz-adv-x="2066" unicode="@" d="M1262 777q-48 58 -153 58q-155 0 -245.5 -144t-90.5 -317q0 -112 42.5 -185t122.5 -73q113 0 213 180q111 200 111 481zM1940 607q0 -262 -128.5 -449t-338.5 -187q-113 0 -186.5 67.5t-73.5 184.5h-9q-114 -252 -322 -252q-130 0 -200 113t-70 280q0 236 130 425.5 t357 189.5q142 0 194 -91h11l18 62l128 21q-84 -481 -84 -576q0 -150 35.5 -219t137.5 -69q98 0 166 139t68 330q0 298 -179.5 521t-556.5 223q-344 0 -544 -253t-200 -590q0 -327 193.5 -560t550.5 -233q156 0 281 45l21 -173q-126 -31 -306 -31q-431 0 -667 283t-236 675 q0 399 240.5 695.5t662.5 296.5q446 0 676.5 -260.5t230.5 -607.5z"/>
<glyph glyph-name="A" horiz-adv-x="1262" unicode="A" d="M868 552q-235 587 -235 624h-11q0 -31 -243 -624h489zM1251 0h-211q0 67 -126 421h-577q-124 -349 -124 -421h-202q0 37 258 639.5t258 662.5h232q0 -59 246 -653t246 -649z"/>
<glyph glyph-name="B" horiz-adv-x="1200" unicode="B" d="M851 971q0 207 -279 207q-140 0 -227 -15q8 -72 8 -407q49 -2 108 -2q198 0 288 45q102 50 102 172zM932 380q0 246 -436 246q-80 0 -141 -6q0 -267 11 -477q38 -9 134 -9q241 0 342 63q90 57 90 183zM1101 397q0 -194 -165 -300q-161 -103 -442 -103q-78 0 -306 6 q14 310 14 684q0 352 -14 618h120q35 0 141 3t154 3q416 0 416 -287q0 -224 -197 -298v-10q279 -50 279 -316z"/>
<glyph glyph-name="C" horiz-adv-x="1125" unicode="C" d="M1070 159l-13 -149q-123 -37 -268 -37q-344 0 -517 188.5t-173 460.5q0 285 193 491.5t519 206.5q90 0 190 -27l-28 -159q-115 36 -205 36q-242 0 -367 -150t-125 -367q0 -221 144 -379t398 -158q97 0 252 43z"/>
<glyph glyph-name="D" horiz-adv-x="1316" unicode="D" d="M1043 653q0 222 -141.5 371t-437.5 149q-42 0 -115 -10q8 -233 8 -479q0 -270 11 -548q80 -16 154 -16q264 0 392.5 156.5t128.5 376.5zM1217 698q0 -284 -181.5 -498t-500.5 -214q-104 0 -347 14q15 310 15 684q0 352 -15 618h110q40 0 122 3t108 3q353 0 521 -173.5 t168 -436.5z"/>
<glyph glyph-name="E" horiz-adv-x="1066" unicode="E" d="M1000 151l-6 -151h-806q14 310 14 684q0 352 -14 618h756l-8 -149q-275 12 -583 12q6 -155 6 -419q266 0 474 12v-149q-222 9 -474 9q0 -257 9 -482q332 0 632 15z"/>
<glyph glyph-name="F" horiz-adv-x="1002" unicode="F" d="M958 1302l-8 -149q-266 12 -603 12q12 -166 12 -458q235 0 457 8v-145q-214 8 -457 8q0 -391 11 -578h-182q14 310 14 684q0 352 -14 618h770z"/>
<glyph glyph-name="G" horiz-adv-x="1271" unicode="G" d="M1138 27q-164 -54 -331 -54q-351 0 -529.5 187.5t-178.5 463.5q0 279 194 487.5t538 208.5q124 0 235 -29l-25 -166q-165 40 -266 40q-242 0 -370.5 -146.5t-128.5 -363.5q0 -218 147.5 -382t416.5 -164q49 0 147 15q-17 104 -17 242q0 116 -14 227h182q-8 -132 -8 -279 q0 -63 8 -287z"/>
<glyph glyph-name="H" horiz-adv-x="1335" unicode="H" d="M1147 0h-190q10 346 10 620h-599q0 -222 10 -620h-190q14 365 14 684q0 334 -14 618h190q-12 -286 -12 -556h603q0 217 -12 556h190q-15 -278 -15 -618q0 -373 15 -684z"/>
<glyph glyph-name="I" horiz-adv-x="566" unicode="I" d="M378 0h-190q15 324 15 684q0 354 -15 618h190q-14 -273 -14 -618q0 -362 14 -684z"/>
<glyph glyph-name="J" horiz-adv-x="851" unicode="J" d="M685 1302q-7 -152 -10.5 -337t-3.5 -407q0 -161 -27 -266t-84.5 -177t-147.5 -107t-216 -35q-97 0 -174 21l15 146q71 -33 148 -33q86 0 150.5 24.5t103 76.5t55 128t16.5 199q0 454 -15 767h190z"/>
<glyph glyph-name="K" horiz-adv-x="1212" unicode="K" d="M1190 0h-219q0 11 -114 174q-132 189 -241 312q-148 167 -219 167h-31q0 -234 10 -653h-188q15 310 15 684q0 352 -15 618h188q-10 -266 -10 -540h23q55 0 274.5 255t219.5 285h208q0 -30 -213.5 -247.5t-317.5 -292.5v-10q115 -44 383 -397q247 -325 247 -355z"/>
<glyph glyph-name="L" horiz-adv-x="1003" unicode="L" d="M981 147l-6 -147h-787q12 247 12 684q0 376 -12 618h186q-12 -202 -12 -618q0 -342 -11 -548q300 0 630 11z"/>
<glyph glyph-name="M" horiz-adv-x="1748" unicode="M" d="M1582 0h-188q0 223 -31 645t-33 506h-10q-100 -325 -253.5 -705.5t-153.5 -445.5h-135q0 70 -143 453.5t-181 513.5t-52 184h-10q-3 -137 -39.5 -553t-36.5 -598h-172q0 10 68 550.5t68 751.5h263q0 -110 160 -550t160 -533h10q0 93 180 534.5t180 548.5h257 q0 -211 46 -748t46 -554z"/>
<glyph glyph-name="N" horiz-adv-x="1380" unicode="N" d="M1192 0h-140q0 17 -328 479q-343 485 -391 612h-10q18 -241 18 -413q0 -336 15 -678h-168q17 325 17 684q0 353 -17 618h192q0 -28 302 -456q316 -450 360 -586h10q-17 244 -17 414q0 370 -14 628h171q-17 -265 -17 -618q0 -359 17 -684z"/>
<glyph glyph-name="O" horiz-adv-x="1421" unicode="O" d="M1144 648q0 258 -135.5 399.5t-312.5 141.5q-164 0 -292 -149t-128 -398q0 -259 136.5 -400.5t312.5 -141.5q164 0 291.5 151t127.5 397zM1322 671q0 -323 -189 -516.5t-437 -193.5q-238 0 -417.5 177.5t-179.5 479.5q0 327 189 518.5t437 191.5q238 0 417.5 -177.5 t179.5 -479.5z"/>
<glyph glyph-name="P" horiz-adv-x="1132" unicode="P" d="M899 921q0 257 -351 257q-86 0 -193 -15q7 -163 7 -508q35 -2 86 -2q451 0 451 268zM1066 979q0 -228 -173 -341t-465 -113q-37 0 -64 2q0 -218 16 -527h-192q15 284 15 684q0 344 -15 618h143q23 0 131.5 3t184.5 3q192 0 305.5 -87.5t113.5 -241.5z"/>
<glyph glyph-name="Q" horiz-adv-x="1421" unicode="Q" d="M1144 648q0 260 -147 411q-127 130 -301 130q-161 0 -284 -141q-136 -157 -136 -406q0 -259 148 -411q128 -131 301 -131q161 0 283 142q136 157 136 406zM1357 -434l-188 -8q-63 275 -146 342q-76 61 -327 61q-233 0 -404 164q-193 186 -193 493q0 332 203 533 q180 177 423 177q233 0 404 -164q193 -185 193 -493q0 -228 -100 -399q-90 -153 -243 -237v-10q169 -16 243 -104q78 -93 135 -355z"/>
<glyph glyph-name="R" horiz-adv-x="1240" unicode="R" d="M868 938q0 238 -322 238q-115 0 -193 -13q7 -174 7 -473q60 -2 115 -2q393 0 393 250zM1174 0h-193q-96 287 -140 380q-56 117 -127 151q-56 27 -201 27q-85 0 -151 -2q0 -323 12 -556h-186q15 310 15 684q0 352 -15 618h141q45 0 114 3t158 3q438 0 438 -302 q0 -251 -246 -353v-10q110 -33 178 -153q57 -100 203 -490z"/>
<glyph glyph-name="S" horiz-adv-x="1047" unicode="S" d="M948 337q0 -370 -515 -370q-188 0 -334 43l35 157q168 -58 319 -58q340 0 340 192q0 97 -88 166q-59 46 -232 123q-182 81 -255 149q-101 94 -101 236q0 148 103 241q115 104 325 104q238 0 326 -31l-24 -159q-152 48 -323 48q-257 0 -257 -172q0 -83 74 -139 q48 -35 212 -106q187 -81 270 -154q125 -110 125 -270z"/>
<glyph glyph-name="T" horiz-adv-x="1043" unicode="T" d="M1021 1302l-5 -141q-198 10 -409 10q-2 -192 -2 -487q0 -326 10 -684h-183q12 341 12 684q0 291 -6 487q-148 0 -416 -12l5 143h994z"/>
<glyph glyph-name="U" horiz-adv-x="1398" unicode="U" d="M1232 1302q-4 -189 -6 -353t-2 -306q0 -670 -529 -670q-138 0 -236.5 39.5t-162 121t-93 205.5t-29.5 293q0 148 -2 314.5t-6 355.5h190q-12 -381 -12 -597q0 -174 17 -283.5t60.5 -182.5t109.5 -103.5t168 -30.5q107 0 174 30.5t109 101t60 181t18 289.5 q0 106 -3.5 253.5t-10.5 341.5h186z"/>
<glyph glyph-name="V" horiz-adv-x="1134" unicode="V" d="M1123 1302q0 -83 -252.5 -650t-252.5 -652h-130q0 77 -238.5 647t-238.5 655h190q0 -78 182 -555.5t182 -546.5h10q0 78 184 544.5t184 557.5h180z"/>
<glyph glyph-name="W" horiz-adv-x="1815" unicode="W" d="M1804 1302q0 -73 -216 -654t-216 -648h-130q0 88 -157 510q-171 457 -194 589h-13q-20 -140 -172 -600q-142 -431 -142 -499h-130q0 102 -211.5 683.5t-211.5 618.5h190q0 -41 151.5 -518t151.5 -584h11q0 113 154 580.5t154 521.5h175q0 -65 160 -554.5t160 -547.5h11 q0 98 145.5 554.5t145.5 547.5h184z"/>
<glyph glyph-name="X" horiz-adv-x="1143" unicode="X" d="M1132 0h-217q0 39 -150 288q-145 241 -215 326h-11q-60 -81 -186 -318q-132 -249 -132 -296h-210q0 30 211 345q209 312 260 360v10q-54 61 -222 307q-173 254 -173 280h215q0 -30 120 -232q118 -198 169 -258h10q51 62 162 261t111 229h211q0 -28 -183 -270 q-177 -232 -241 -297v-10q76 -85 270 -380q201 -305 201 -345z"/>
<glyph glyph-name="Y" horiz-adv-x="1127" unicode="Y" d="M1105 1302q0 -37 -123 -216q-174 -253 -227 -344q-123 -209 -123 -318q0 -206 14 -424h-192q13 207 13 426q0 120 -115 333q-65 119 -215 344q-115 174 -115 199h205q0 -26 172.5 -318.5t172.5 -386.5h10q0 95 164.5 380t164.5 325h194z"/>
<glyph glyph-name="Z" horiz-adv-x="1062" unicode="Z" d="M963 167l-6 -167h-858l9 120q126 176 367 570q259 425 259 473v11q-219 0 -621 -25l5 153h816l-8 -124q-114 -161 -351 -565q-247 -420 -247 -462v-11q207 0 635 27z"/>
<glyph glyph-name="bracketleft" horiz-adv-x="723" unicode="[" d="M599 -312l-10 -174l-471 11q12 683 12 946q0 204 -12 1037l481 13l-10 -172q-220 6 -300 6q-8 -691 -8 -884q0 -139 8 -802q74 2 310 19z"/>
<glyph glyph-name="backslash" d="M533 -302h-161q0 169 -178 928.5t-178 828.5h159q0 -189 179 -940.5t179 -816.5z" unicode="\"/>
<glyph glyph-name="bracketright" horiz-adv-x="723" unicode="]" d="M600 -472l-481 -13l10 172q220 -6 300 -6q8 691 8 884q0 139 -8 802q-74 -2 -310 -19l10 174l471 -11q-12 -683 -12 -946q0 -204 12 -1037z"/>
<glyph glyph-name="asciicircum" horiz-adv-x="1033" unicode="^" d="M1004 682l-128 -83l-349 645h-23l-347 -645l-128 83l444 735h87z"/>
<glyph glyph-name="underscore" horiz-adv-x="1033" unicode="_" d="M1033 -512h-1033v128h1033v-128z"/>
<glyph glyph-name="grave" horiz-adv-x="562" unicode="`" d="M486 1086h-120q0 16 -138 164t-138 160h216q0 -11 90 -159.5t90 -164.5z"/>
<glyph glyph-name="a" horiz-adv-x="1005" unicode="a" d="M706 194q-5 152 -5 273q-188 0 -286 -28q-164 -50 -164 -191q0 -136 192 -136q165 0 263 82zM883 0l-157 -6q-12 49 -12 93h-10q-123 -112 -335 -112q-115 0 -198 67.5t-83 192.5q0 154 130 247.5t483 98.5q3 24 3 55q0 123 -65.5 164t-198.5 41q-157 0 -309 -39l17 138 q150 43 345 43q178 0 275 -73.5t97 -250.5q0 -47 -4.5 -170.5t-4.5 -164.5q0 -182 27 -324z"/>
<glyph glyph-name="b" horiz-adv-x="1138" unicode="b" d="M861 490q0 151 -79 255t-218 104q-180 0 -258 -109q0 -356 16 -577q81 -68 211 -68q164 0 246 115t82 280zM1039 514q0 -219 -125 -380t-342 -161q-184 0 -250 66h-8l-25 -39h-147q13 345 13 746q0 362 -33 661l198 10q-10 -172 -10 -545h8q98 113 311 113 q185 0 297.5 -138t112.5 -333z"/>
<glyph glyph-name="c" horiz-adv-x="925" unicode="c" d="M859 153l-10 -134q-81 -46 -217 -46q-259 0 -396 143t-137 345q0 214 144 368t381 154q119 0 194 -24l-27 -157q-105 39 -213 39q-142 0 -226 -99t-84 -248q0 -162 100 -270t283 -108q75 0 208 37z"/>
<glyph glyph-name="d" horiz-adv-x="1127" unicode="d" d="M833 198q0 311 -17 599q-81 67 -202 67q-169 0 -253 -112.5t-84 -282.5q0 -152 79.5 -256t220.5 -104q177 0 256 89zM994 1l-149 -5q-8 43 -8 91h-11q-105 -114 -312 -114q-190 0 -302.5 138t-112.5 333q0 221 125 381t352 160q162 0 232 -66h8q0 248 -14 487l190 7 q-19 -254 -19 -665q0 -418 21 -747z"/>
<glyph glyph-name="e" horiz-adv-x="1051" unicode="e" d="M785 585q0 281 -235 281q-240 0 -283 -292zM952 587q0 -42 -4 -116l-687 -12q10 -146 113 -244.5t273 -98.5q152 0 285 37l-17 -141q-98 -39 -283 -39q-260 0 -396.5 142t-136.5 346q0 218 124.5 375.5t334.5 157.5q193 0 293.5 -114t100.5 -293z"/>
<glyph glyph-name="f" horiz-adv-x="694" unicode="f" d="M694 1419l-29 -132q-60 15 -120 15q-92 0 -124.5 -72.5t-32.5 -299.5q99 0 277 10l-6 -149q-202 6 -271 6q0 -455 12 -797h-179q14 333 14 797q-61 0 -213 -6l7 147q138 -8 206 -8q0 265 74 385.5t236 120.5q71 0 149 -17z"/>
<glyph glyph-name="g" horiz-adv-x="1105" unicode="g" d="M754 649q0 110 -69.5 168.5t-176.5 58.5q-101 0 -169 -56.5t-68 -160.5q0 -109 69.5 -166t178.5 -57q100 0 167.5 55.5t67.5 157.5zM893 -169q0 94 -68.5 132.5t-257.5 38.5q-128 0 -234 12q-122 -59 -122 -173q0 -244 320 -244q167 0 264.5 65t97.5 169zM1072 1076 l-16 -138q-186 0 -205 -60v-10q64 -78 64 -178q0 -156 -102.5 -257.5t-316.5 -101.5q-95 0 -151 20q-49 -35 -49 -87q0 -64 58 -85q74 -28 309 -28q380 0 380 -252q0 -180 -148 -298t-383 -118q-241 0 -343.5 87.5t-102.5 210.5q0 112 50.5 180t125.5 84v9q-79 38 -79 146 q0 98 100 172v8q-53 26 -101 88t-48 154q0 159 105 259t304 100q163 0 256 -59h11q32 169 168 169q74 0 114 -15z"/>
<glyph glyph-name="h" horiz-adv-x="1109" unicode="h" d="M979 0h-182q22 263 22 566q0 162 -60.5 218.5t-167.5 56.5q-150 0 -281 -103q0 -546 8 -738h-176q9 264 9 746q0 422 -29 661l190 10q-8 -305 -8 -566h6q150 132 329 132q160 0 250 -74.5t90 -261.5q0 -19 -2 -74.5t-2 -97.5q0 -144 4 -475z"/>
<glyph glyph-name="i" horiz-adv-x="446" unicode="i" d="M355 1250q0 -51 -33 -88.5t-93 -37.5q-51 0 -79.5 32.5t-28.5 78.5q0 50 34 87t94 37q49 0 77.5 -32.5t28.5 -76.5zM313 0h-181q14 200 14 457q0 289 -35 485l200 27q-12 -209 -12 -512q0 -240 14 -457z"/>
<glyph glyph-name="j" horiz-adv-x="446" unicode="j" d="M355 1250q0 -51 -33 -88.5t-93 -37.5q-51 0 -79.5 32.5t-28.5 78.5q0 50 34 87t94 37q49 0 77.5 -32.5t28.5 -76.5zM312 971q-17 -310 -17 -622q0 -83 5.5 -219.5t5.5 -185.5q0 -323 -246 -392l-50 76q89 75 110 160q31 122 31 520q0 427 -40 638z"/>
<glyph glyph-name="k" horiz-adv-x="1000" unicode="k" d="M989 0h-235q0 35 -194 267q-199 239 -250 239h-7q0 -214 11 -506h-176q13 366 13 746q0 387 -29 661l192 10q-11 -216 -11 -839h7q33 0 207.5 168.5t174.5 203.5h221q0 -32 -157 -166q-147 -125 -269 -206v-8q124 -94 319 -322q183 -215 183 -248z"/>
<glyph glyph-name="l" horiz-adv-x="469" unicode="l" d="M325 0h-192q18 330 18 746q0 404 -29 661l203 10q-19 -272 -19 -671q0 -411 19 -746z"/>
<glyph glyph-name="m" horiz-adv-x="1677" unicode="m" d="M1388 579q0 160 -55.5 211.5t-182.5 51.5q-107 0 -221 -105q-4 -122 -4 -239q0 -167 6 -498h-182q22 285 22 579q0 160 -55.5 211.5t-177.5 51.5q-125 0 -234 -105q0 -317 4 -737h-182q19 340 19 492q0 231 -45 454l176 25l18 -121h10q130 133 289 133q237 0 305 -133h11 q151 133 298 133q168 0 254 -74t86 -261q0 -19 -2 -75t-2 -75q0 -167 4 -498h-182q23 262 23 579z"/>
<glyph glyph-name="n" horiz-adv-x="1109" unicode="n" d="M979 0h-182q22 263 22 574q0 154 -62.5 210.5t-178.5 56.5q-142 0 -262 -103q0 -341 4 -738h-182q17 340 17 492q0 234 -44 454l176 25l19 -122h8q148 134 317 134q166 0 257 -73.5t91 -261.5q0 -19 -2 -75t-2 -75q0 -167 4 -498z"/>
<glyph glyph-name="o" horiz-adv-x="1144" unicode="o" d="M872 469q0 156 -78.5 277.5t-223.5 121.5q-144 0 -221.5 -115t-77.5 -267q0 -157 78.5 -278t224.5 -121q144 0 221 115.5t77 266.5zM1045 504q0 -256 -147 -399.5t-346 -143.5q-186 0 -319.5 127t-133.5 358q0 258 147.5 403t346.5 145q186 0 319 -128.5t133 -361.5z"/>
<glyph glyph-name="p" horiz-adv-x="1138" unicode="p" d="M861 490q0 148 -78 253.5t-219 105.5q-180 0 -258 -109q16 -336 16 -577q81 -68 211 -68q165 0 246.5 116t81.5 279zM1039 514q0 -216 -123.5 -378.5t-343.5 -162.5q-184 0 -242 66h-10q0 -278 6 -496h-188q23 266 23 657q0 482 -50 746l176 25l15 -99h10q97 113 314 113 q191 0 302 -139.5t111 -331.5z"/>
<glyph glyph-name="q" horiz-adv-x="1139" unicode="q" d="M837 219q0 330 -9 576q-93 69 -223 69q-165 0 -246.5 -116t-81.5 -279q0 -148 78 -254t219 -106q180 0 263 110zM1006 -455h-178q9 274 9 542h-11q-103 -114 -314 -114q-189 0 -301 139.5t-112 331.5q0 216 122 378.5t345 162.5q182 0 267 -66h8l41 31l124 11 q-14 -336 -14 -674q0 -404 14 -742z"/>
<glyph glyph-name="r" horiz-adv-x="726" unicode="r" d="M736 950l-45 -159q-78 31 -145 31q-188 0 -244 -179q0 -460 6 -643h-177q16 317 16 492q0 237 -47 454l175 25q19 -110 19 -147h8q108 159 252 159q76 0 182 -33z"/>
<glyph glyph-name="s" horiz-adv-x="858" unicode="s" d="M767 271q0 -292 -373 -292q-165 0 -308 33l31 147q130 -50 282 -50q218 0 218 124q0 60 -48.5 95.5t-160.5 79.5q-142 56 -206 108q-94 77 -94 186q0 114 86 195.5t262 81.5q172 0 276 -29l-31 -144q-108 43 -250 43q-192 0 -192 -111q0 -56 43 -90.5t168 -83.5 q135 -53 200 -104q97 -79 97 -189z"/>
<glyph glyph-name="t" horiz-adv-x="735" unicode="t" d="M680 138l-12 -130q-79 -29 -149 -29q-180 0 -246 91.5t-66 327.5q0 153 2 399q-56 0 -165 -6l6 145q95 -6 170 -6q0 60 10 285l157 16q-17 -210 -17 -301q98 0 288 10l-7 -149q-180 6 -289 6q-2 -151 -2 -340q0 -206 43.5 -272.5t161.5 -66.5q39 0 115 20z"/>
<glyph glyph-name="u" horiz-adv-x="1097" unicode="u" d="M975 1l-155 -6q-14 56 -14 92h-10q-133 -112 -323 -112q-173 0 -251.5 83.5t-78.5 336.5q0 36 2 107t2 97q0 147 -17 346l186 7q-12 -193 -12 -330q0 -315 40.5 -410.5t182.5 -95.5q160 0 264 80q0 556 -10 749l180 7q-8 -188 -8 -520q0 -213 22 -431z"/>
<glyph glyph-name="v" horiz-adv-x="984" unicode="v" d="M940 950q0 -49 -202.5 -472.5t-202.5 -477.5h-134q0 70 -178.5 489.5t-178.5 460.5h194q0 -48 130 -381t130 -381h9q0 46 123.5 367t123.5 395h186z"/>
<glyph glyph-name="w" horiz-adv-x="1569" unicode="w" d="M1525 950q0 -60 -171.5 -470.5t-171.5 -479.5h-136q0 38 -101 291q-124 311 -176 486h-8q-48 -169 -164 -487q-92 -252 -92 -290h-137q0 58 -162 480.5t-162 469.5h178q0 -52 116.5 -380t116.5 -382h11q0 82 120.5 395.5t120.5 366.5h170q0 -46 125 -383t125 -379h10 q0 61 108.5 372.5t108.5 389.5h171z"/>
<glyph glyph-name="x" horiz-adv-x="1032" unicode="x" d="M977 0h-217q0 25 -96 170t-169 243h-8q-51 -70 -141 -226.5t-90 -186.5h-201q0 29 143 220t231 284v8q-66 73 -198 246.5t-132 191.5h214q0 -24 80.5 -154t134.5 -199h9q49 59 127.5 193t78.5 160h190q0 -17 -135.5 -194.5t-194.5 -236.5v-11q85 -99 229.5 -292 t144.5 -216z"/>
<glyph glyph-name="y" horiz-adv-x="952" unicode="y" d="M908 950q0 -64 -151 -408q-173 -393 -215 -554q-69 -261 -128 -332q-80 -98 -285 -98l-8 140q125 0 208 85t83 213q0 111 -184 528t-184 426h207q0 -27 126 -364t126 -415h10q0 65 106.5 377t106.5 402h182z"/>
<glyph glyph-name="z" horiz-adv-x="933" unicode="z" d="M834 161l-6 -161h-729l8 155q53 51 271 316q237 289 237 324l-1 11q-321 0 -509 -13l6 157h694l-10 -157q-83 -91 -263 -318q-224 -283 -224 -322v-8q302 0 526 16z"/>
<glyph glyph-name="braceleft" horiz-adv-x="723" unicode="{" d="M692 -362l-62 -128q-432 90 -432 319q0 74 40.5 244t40.5 216q0 124 -234 149v149q242 35 242 155q0 46 -44.5 209.5t-44.5 230.5q0 284 445 339l39 -124q-320 -38 -320 -275q0 -52 44 -196t44 -180q0 -108 -80.5 -165.5t-148.5 -57.5v-9q67 0 148 -56.5t81 -168.5 q0 -40 -44 -190.5t-44 -195.5q0 -187 330 -265z"/>
<glyph glyph-name="bar" horiz-adv-x="516" unicode="|" d="M345 -517h-174q13 351 13 988q0 626 -13 1079h174q-12 -425 -12 -1079t12 -988z"/>
<glyph glyph-name="braceright" horiz-adv-x="723" unicode="}" d="M692 444q-242 -35 -242 -155q0 -46 44.5 -209.5t44.5 -230.5q0 -284 -445 -339l-39 124q320 38 320 275q0 52 -44 196t-44 180q0 108 80.5 165.5t148.5 57.5v9q-67 0 -148 56.5t-81 168.5q0 40 44 190.5t44 195.5q0 187 -330 265l62 128q432 -90 432 -319 q0 -74 -40.5 -244t-40.5 -216q0 -124 234 -149v-149z"/>
<glyph glyph-name="asciitilde" horiz-adv-x="1033" unicode="~" d="M1029 624q-149 -238 -337 -238q-68 0 -181.5 36.5t-177.5 36.5q-118 0 -230 -147l-97 52q147 262 335 262q68 0 195 -35t191 -35q118 0 205 118z"/>
<glyph glyph-name="exclamdown" horiz-adv-x="516" unicode="¡" d="M396 837q0 -59 -40 -102t-111 -43q-59 0 -90.5 37t-31.5 91q0 59 39.5 104t109.5 45q59 0 91.5 -39t32.5 -93zM347 -188q0 -171 -118 -171q-91 0 -91 159q0 215 83 630h74q52 -422 52 -618z"/>
<glyph glyph-name="cent" horiz-adv-x="1033" unicode="¢" d="M893 199l-11 -134q-87 -45 -227 -45q0 -174 8 -283h-109q2 52 6 289q-208 30 -318 166t-110 315q0 186 114.5 334.5t315.5 180.5q0 134 -8 306h109q-8 -183 -8 -298q104 0 196 -25l-27 -157q-104 35 -212 35q-140 0 -220 -101.5t-80 -241.5q0 -153 96.5 -265.5 t275.5 -112.5q75 0 209 37z"/>
<glyph glyph-name="sterling" horiz-adv-x="909" unicode="£" d="M843 132l-19 -132h-762v93q59 28 102 73t43 141q0 75 -17 191q-67 0 -157 -7l5 104q53 -3 145 -3q-11 94 -11 171q0 199 90.5 307t259.5 108q72 0 155 -8l-20 -122q-42 10 -114 10q-100 0 -162 -55t-62 -222q0 -80 14 -189q83 0 215 5l-5 -103q-81 4 -199 4q9 -63 9 -117 q0 -190 -113 -262v-10q214 0 603 23z"/>
<glyph glyph-name="currency" horiz-adv-x="1000" unicode="¤" d="M704 466q0 95 -56.5 172.5t-155.5 77.5q-97 0 -153 -73t-56 -165q0 -95 57 -172.5t155 -77.5t153.5 73t55.5 165zM889 774l-111 -106q47 -72 47 -177q0 -110 -46 -188l94 -88l-102 -102l-86 91q-90 -64 -205 -64q-102 0 -181 49l-87 -92l-101 101l92 87q-40 69 -40 165 q0 129 61 215l-97 92l102 102l97 -104q82 49 182 49q95 0 170 -44l110 115z"/>
<glyph glyph-name="yen" horiz-adv-x="909" unicode="¥" d="M898 1068q0 -10 -88 -148q-112 -174 -170 -283q77 2 202 5v-77h-239q-33 -69 -47 -108h286v-75q-178 3 -311 3q0 -212 7 -385h-175q5 206 5 385q-114 0 -306 -3v75h284q-15 46 -44 108h-240v77q139 -3 205 -3q-60 114 -168 283q-88 138 -88 146h204q0 -7 129.5 -241.5 t129.5 -323.5h6q0 90 115.5 321.5t115.5 243.5h187z"/>
<glyph glyph-name="brokenbar" horiz-adv-x="516" unicode="¦" d="M345 645h-174q13 345 13 436q0 90 -13 469h174q-13 -345 -13 -436q0 -90 13 -469zM345 -517h-174q13 345 13 436q0 90 -13 469h174q-13 -345 -13 -436q0 -90 13 -469z"/>
<glyph glyph-name="section" horiz-adv-x="859" unicode="§" d="M616 450q0 94 -178 234q-86 0 -131 -45t-45 -108q0 -87 186 -231q81 0 124.5 45t43.5 105zM766 -122q0 -312 -373 -312q-165 0 -308 33l31 147q130 -50 277 -50q223 0 223 135q0 79 -132 194q-122 106 -245 212q-132 134 -132 259q0 92 57.5 165t174.5 99 q-232 186 -232 356q0 117 87 207t261 90q172 0 276 -29l-31 -144q-108 43 -245 43q-193 0 -193 -132q0 -90 131 -203q121 -100 242 -201q131 -126 131 -249q0 -222 -219 -275q219 -177 219 -345z"/>
<glyph glyph-name="dieresis" horiz-adv-x="836" unicode="¨" d="M713 1251q0 -46 -30.5 -80.5t-84.5 -34.5q-45 0 -70 30t-25 72q0 44 30.5 77.5t85.5 33.5q45 0 69.5 -28.5t24.5 -69.5zM335 1251q0 -46 -30.5 -80.5t-84.5 -34.5q-45 0 -70 30t-25 72q0 44 30.5 77.5t85.5 33.5q45 0 69.5 -28.5t24.5 -69.5z"/>
<glyph glyph-name="copyright" horiz-adv-x="1310" unicode="©" d="M854 381l-7 -84q-86 -19 -134 -19q-172 0 -258.5 94.5t-86.5 230.5q0 139 95.5 244t260.5 105q45 0 95 -14l-14 -89q-57 18 -102 18q-113 0 -174.5 -76t-61.5 -173q0 -99 71 -178.5t190 -79.5q48 0 126 21zM1164 600q0 211 -148.5 360.5t-359.5 149.5t-360.5 -149.5 t-149.5 -360.5t149.5 -360.5t360.5 -149.5t359.5 149.5t148.5 360.5zM1256 598q0 -248 -175.5 -423t-424.5 -175t-425.5 175t-176.5 423q0 249 176.5 425.5t425.5 176.5q248 0 424 -176.5t176 -425.5z"/>
<glyph glyph-name="ordfeminine" horiz-adv-x="617" unicode="ª" d="M391 899q-2 38 -2 66v58q-71 -1 -127 -14q-76 -22 -76 -87q0 -58 84 -58q75 0 121 35zM523 777l-118 -5q-2 10 -7 47h-9q-67 -55 -158 -55q-84 0 -125 40t-41 106q0 87 48.5 127.5t100.5 52.5t177 16v6q0 67 -27 88.5t-102 21.5q-74 0 -178 -27l13 104q93 27 194 27 t160.5 -41t59.5 -145q0 -13 -0.5 -36t-1.5 -86q-1 -34 -1 -62q0 -56 3 -86q4 -46 12 -93z"/>
<glyph glyph-name="guillemotleft" horiz-adv-x="929" unicode="«" d="M859 192l-82 -66l-294 300v124l294 297l82 -66l-227 -293zM446 192l-82 -66l-294 300v124l294 297l82 -66l-227 -293z"/>
<glyph glyph-name="logicalnot" horiz-adv-x="1033" unicode="¬" d="M926 149h-120v491h-699v153h819v-644z"/>
<glyph glyph-name="registered" horiz-adv-x="1310" unicode="®" d="M789 927q0 109 -151 109q-57 0 -86 -7q3 -76 3 -221q20 -1 48 -1q186 0 186 120zM952 458h-106q-66 199 -100 239t-124 40q-43 0 -66 -1q0 -162 6 -278h-103q8 155 8 342q0 176 -8 309h71q2 0 46.5 1.5t89.5 1.5q219 0 219 -151q0 -125 -123 -177v-5q55 -16 86 -71 t104 -250zM1164 760q0 211 -148.5 360.5t-359.5 149.5t-360.5 -149.5t-149.5 -360.5t149.5 -360.5t360.5 -149.5t359.5 149.5t148.5 360.5zM1256 758q0 -248 -175.5 -423t-424.5 -175t-425.5 175t-176.5 423q0 249 176.5 425.5t425.5 176.5q248 0 424 -176.5t176 -425.5z "/>
<glyph glyph-name="macron" horiz-adv-x="500" unicode="¯" d="M474 1310l-12 -124h-434l11 124h435z"/>
<glyph glyph-name="macron" horiz-adv-x="500" unicode="ˉ" d="M474 1310l-12 -124h-434l11 124h435z"/>
<glyph glyph-name="degree" d="M425 1273q0 56 -37 96t-103 40q-78 0 -121 -45.5t-43 -107.5q0 -57 36 -97.5t101 -40.5q78 0 122.5 46.5t44.5 108.5zM545 1281q0 -112 -78 -197t-217 -85q-117 0 -182.5 74.5t-65.5 176.5q0 112 77 195t218 83q118 0 183 -73t65 -174z" unicode="°"/>
<glyph glyph-name="plusminus" horiz-adv-x="1033" unicode="±" d="M926 51h-819v128h819v-128zM926 648h-345v-316h-129v316h-345v128h345v316h129v-316h345v-128z"/>
<glyph glyph-name="uni00B2" d="M479 722l-13 -102h-404l11 90q52 36 95 77t76 84q38 50 58 102t20 103q0 128 -151 128q-36 0 -101 -13l11 97q26 8 59 11.5t73 3.5q114 0 177 -58q61 -58 61 -145q0 -109 -69.5 -206t-173.5 -170v-9q66 0 137.5 2t133.5 5z" unicode="²"/>
<glyph glyph-name="uni00B3" d="M479 835q0 -109 -108 -191.5t-326 -93.5l-18 80q165 16 241.5 63t76.5 124q0 128 -247 128l14 83q104 0 158.5 25.5t54.5 70.5q0 47 -33 63.5t-100 16.5q-56 0 -128 -16l7 97q65 18 175 18q103 0 152 -39.5t49 -103.5q0 -91 -116 -143v-8q148 -32 148 -174z" unicode="³"/>
<glyph glyph-name="acute" horiz-adv-x="562" unicode="´" d="M480 1410q0 -12 -138 -160t-138 -164h-120q0 16 90 164.5t90 159.5h216z"/>
<glyph glyph-name="uni00B5" horiz-adv-x="1128" unicode="µ" d="M989 -2l-158 -6q-21 81 -21 105h-8q-123 -97 -263 -97q-165 0 -248 97h-10q0 -333 43 -552l-188 -20q13 443 13 746q0 421 -33 670l204 7q-6 -228 -6 -343q0 -293 54.5 -385t197.5 -92q144 0 231 81q0 545 -20 732l192 9q-10 -215 -10 -417q0 -261 30 -535z"/>
<glyph glyph-name="paragraph" horiz-adv-x="1371" unicode="¶" d="M1122 -413h-172q9 475 9 1144q0 305 -11 533q-78 7 -145 7h-16q-12 -563 -12 -916q0 -482 12 -851h-120q13 383 13 851q0 53 -2 205q-218 0 -354 98.5t-136 340.5q0 213 136 312.5t343 99.5q85 0 194.5 -3t134.5 -3h126q-13 -229 -13 -696q0 -657 13 -1122z"/>
<glyph glyph-name="cedilla" horiz-adv-x="470" unicode="¸" d="M416 -292q0 -222 -240 -222l-14 92q47 0 76.5 32t29.5 76q0 113 -152 142l46 224l74 -14l-16 -138q196 -47 196 -192z"/>
<glyph glyph-name="uni00B9" d="M411 620h-136q6 166 6 318q0 104 -4 201l-201 -103l-28 69l282 187h81q-5 -141 -5 -354q0 -149 5 -318z" unicode="¹"/>
<glyph glyph-name="ordmasculine" horiz-adv-x="617" unicode="º" d="M450 1039q0 83 -40 140t-102 57q-61 0 -100.5 -56t-39.5 -131q0 -81 39.5 -139t102.5 -58t101.5 57t38.5 130zM576 1057q0 -136 -79 -218.5t-199 -82.5q-108 0 -182.5 72t-74.5 199q0 144 81 224t198 80q108 0 182 -72t74 -202z"/>
<glyph glyph-name="guillemotright" horiz-adv-x="929" unicode="»" d="M859 426l-293 -300l-83 66l228 294l-228 295l83 66l293 -297v-124zM446 426l-293 -300l-83 66l228 294l-228 295l83 66l293 -297v-124z"/>
<glyph glyph-name="onequarter" horiz-adv-x="1550" unicode="¼" d="M1330 1315q0 -66 -507.5 -666t-507.5 -691l-145 20q0 71 507 665.5t507 691.5zM460 620h-136q6 166 6 318q0 104 -4 201l-201 -103l-28 69l282 187h81q-5 -141 -5 -354q0 -149 5 -318zM1211 303q2 66 3 121.5t2 142.5h-5q-23 -53 -39 -74.5t-138 -180.5v-11h74 q39 0 103 2zM1429 311l-13 -103h-85q0 -47 2 -109.5t5 -131.5h-132q3 65 4 125t1 116h-280l-12 85q0 15 139 197q131 174 131 190h150q-3 -54 -5.5 -145t-2.5 -231q21 1 43.5 2.5t54.5 4.5z"/>
<glyph glyph-name="onehalf" horiz-adv-x="1550" unicode="½" d="M1330 1315q0 -66 -507.5 -666t-507.5 -691l-145 20q0 71 507 665.5t507 691.5zM461 620h-136q6 166 6 318q0 104 -4 201l-201 -103l-28 69l282 187h81q-5 -141 -5 -354q0 -149 5 -318zM1393 103l-13 -102h-404l11 90q52 36 95 77t76 84q38 50 58 102t20 103 q0 128 -151 128q-36 0 -101 -13l11 97q26 8 59 11.5t73 3.5q114 0 177 -58q61 -58 61 -145q0 -109 -69.5 -206t-173.5 -170v-9q66 0 137.5 2t133.5 5z"/>
<glyph glyph-name="threequarters" horiz-adv-x="1550" unicode="¾" d="M1330 1315q0 -66 -507.5 -666t-507.5 -691l-145 20q0 71 507 665.5t507 691.5zM562 835q0 -109 -108 -191.5t-326 -93.5l-18 80q165 16 241.5 63t76.5 124q0 128 -247 128l14 83q104 0 158.5 25.5t54.5 70.5q0 47 -33 63.5t-100 16.5q-56 0 -128 -16l7 97q65 18 175 18 q103 0 152 -39.5t49 -103.5q0 -91 -116 -143v-8q148 -32 148 -174zM1210 304q2 66 3 121.5t2 142.5h-5q-23 -53 -39 -74.5t-138 -180.5v-11h74q39 0 103 2zM1428 312l-13 -103h-85q0 -47 2 -109.5t5 -131.5h-132q3 65 4 125t1 116h-280l-12 85q0 15 139 197q131 174 131 190 h150q-3 -54 -5.5 -145t-2.5 -231q21 1 43.5 2.5t54.5 4.5z"/>
<glyph glyph-name="questiondown" horiz-adv-x="723" unicode="¿" d="M560 845q0 -59 -38 -100q-43 -45 -113 -45q-59 0 -93 39q-29 35 -29 89q0 59 37 101q42 48 112 48q58 0 93 -41q31 -37 31 -91zM663 -234l-25 -126q-568 0 -568 312q0 215 277 335l21 151h78l37 -213q-243 -50 -243 -242q0 -217 423 -217z"/>
<glyph glyph-name="Agrave" horiz-adv-x="1262" unicode="À" d="M868 552q-235 587 -235 624h-11q0 -31 -243 -624h489zM1251 0h-211q0 67 -126 421h-577q-124 -349 -124 -421h-202q0 37 258 639.5t258 662.5h232q0 -59 246 -653t246 -649zM737 1416h-120q-10 16 -143 139t-133 135h216q0 -11 90 -134.5t90 -139.5z"/>
<glyph glyph-name="Aacute" horiz-adv-x="1262" unicode="Á" d="M868 552q-235 587 -235 624h-11q0 -31 -243 -624h489zM1251 0h-211q0 67 -126 421h-577q-124 -349 -124 -421h-202q0 37 258 639.5t258 662.5h232q0 -59 246 -653t246 -649zM947 1690q0 -12 -133 -135t-143 -139h-120q0 16 90 139.5t90 134.5h216z"/>
<glyph glyph-name="Acircumflex" horiz-adv-x="1262" unicode="Â" d="M868 552q-235 587 -235 624h-11q0 -31 -243 -624h489zM1251 0h-211q0 67 -126 421h-577q-124 -349 -124 -421h-202q0 37 258 639.5t258 662.5h232q0 -59 246 -653t246 -649zM931 1416h-114q-10 13 -177 158q-167 -145 -177 -158h-114q0 13 94.5 135.5t99.5 138.5h194 q5 -16 99.5 -138.5t94.5 -135.5z"/>
<glyph glyph-name="Atilde" horiz-adv-x="1262" unicode="Ã" d="M868 552q-235 587 -235 624h-11q0 -31 -243 -624h489zM1251 0h-211q0 67 -126 421h-577q-124 -349 -124 -421h-202q0 37 258 639.5t258 662.5h232q0 -59 246 -653t246 -649zM1037 1640q-110 -185 -250 -185q-51 0 -128.5 24t-125.5 24q-88 0 -172 -84l-62 50 q110 185 250 185q51 0 128.5 -24t125.5 -24q88 0 172 84z"/>
<glyph glyph-name="Adieresis" horiz-adv-x="1262" unicode="Ä" d="M868 552q-235 587 -235 624h-11q0 -31 -243 -624h489zM1251 0h-211q0 67 -126 421h-577q-124 -349 -124 -421h-202q0 37 258 639.5t258 662.5h232q0 -59 246 -653t246 -649zM943 1559q0 -46 -30.5 -80.5t-84.5 -34.5q-45 0 -70 30t-25 72q0 44 30.5 77.5t85.5 33.5 q45 0 69.5 -28.5t24.5 -69.5zM565 1559q0 -46 -30.5 -80.5t-84.5 -34.5q-45 0 -70 30t-25 72q0 44 30.5 77.5t85.5 33.5q45 0 69.5 -28.5t24.5 -69.5z"/>
<glyph glyph-name="Aring" horiz-adv-x="1262" unicode="Å" d="M868 552q-235 587 -235 624h-11q0 -31 -243 -624h489zM1251 0h-211q0 67 -126 421h-577q-124 -349 -124 -421h-202q0 37 258 639.5t258 662.5h232q0 -59 246 -653t246 -649zM771 1576q0 57 -32 87.5t-78 30.5q-50 0 -88 -35.5t-38 -96.5q0 -57 32 -87.5t78 -30.5 q50 0 88 35.5t38 96.5zM865 1584q0 -104 -69 -165t-159 -61q-82 0 -139 51.5t-57 147.5q0 103 69 163t159 60q82 0 139 -51t57 -145z"/>
<glyph glyph-name="AE" horiz-adv-x="1668" unicode="Æ" d="M786 552q0 357 -13 613h-157q0 -38 -248 -613h418zM1602 151l-6 -151h-823q13 223 13 421h-461q-118 -349 -118 -421h-196q0 36 261.5 636t261.5 666h1012l-6 -149q-304 12 -610 12q9 -154 9 -419q236 0 505 6l-5 -143q-249 9 -500 9q0 -257 8 -482q340 0 655 15z"/>
<glyph glyph-name="Ccedilla" horiz-adv-x="1125" unicode="Ç" d="M1070 159l-13 -149q-172 -37 -268 -37q-84 0 -156 12l-12 -85q196 -47 196 -192q0 -222 -240 -222l-14 92q47 0 76.5 32t29.5 76q0 113 -152 142l35 173q-177 47 -292 173q-161 176 -161 448q0 280 181 478q200 220 531 220q90 0 190 -27l-28 -159q-115 36 -205 36 q-244 0 -377 -162q-115 -141 -115 -355q0 -218 134 -368q151 -169 408 -169q97 0 252 43z"/>
<glyph glyph-name="Egrave" horiz-adv-x="1066" unicode="È" d="M1000 151l-6 -151h-806q14 310 14 684q0 352 -14 618h756l-8 -149q-275 12 -583 12q6 -155 6 -419q266 0 474 12v-149q-222 9 -474 9q0 -257 9 -482q332 0 632 15zM680 1416h-120q-10 16 -143 139t-133 135h216q0 -11 90 -134.5t90 -139.5z"/>
<glyph glyph-name="Eacute" horiz-adv-x="1066" unicode="É" d="M1000 151l-6 -151h-806q14 310 14 684q0 352 -14 618h756l-8 -149q-275 12 -583 12q6 -155 6 -419q266 0 474 12v-149q-222 9 -474 9q0 -257 9 -482q332 0 632 15zM898 1690q0 -12 -133 -135t-143 -139h-120q0 16 90 139.5t90 134.5h216z"/>
<glyph glyph-name="Ecircumflex" horiz-adv-x="1066" unicode="Ê" d="M1000 151l-6 -151h-806q14 310 14 684q0 352 -14 618h756l-8 -149q-275 12 -583 12q6 -155 6 -419q266 0 474 12v-149q-222 9 -474 9q0 -257 9 -482q332 0 632 15zM885 1416h-114q-10 13 -177 158q-167 -145 -177 -158h-114q0 13 94.5 135.5t99.5 138.5h194 q5 -16 99.5 -138.5t94.5 -135.5z"/>
<glyph glyph-name="Edieresis" horiz-adv-x="1066" unicode="Ë" d="M1000 151l-6 -151h-806q14 310 14 684q0 352 -14 618h756l-8 -149q-275 12 -583 12q6 -155 6 -419q266 0 474 12v-149q-222 9 -474 9q0 -257 9 -482q332 0 632 15zM861 1559q0 -46 -30.5 -80.5t-84.5 -34.5q-45 0 -70 30t-25 72q0 44 30.5 77.5t85.5 33.5 q45 0 69.5 -28.5t24.5 -69.5zM483 1559q0 -46 -30.5 -80.5t-84.5 -34.5q-45 0 -70 30t-25 72q0 44 30.5 77.5t85.5 33.5q45 0 69.5 -28.5t24.5 -69.5z"/>
<glyph glyph-name="Igrave" horiz-adv-x="566" unicode="Ì" d="M378 0h-190q15 324 15 684q0 354 -15 618h190q-14 -273 -14 -618q0 -362 14 -684zM375 1416h-120q-10 16 -143 139t-133 135h216q0 -11 90 -134.5t90 -139.5z"/>
<glyph glyph-name="Iacute" horiz-adv-x="566" unicode="Í" d="M378 0h-190q15 324 15 684q0 354 -15 618h190q-14 -273 -14 -618q0 -362 14 -684zM591 1690q0 -12 -133 -135t-143 -139h-120q0 16 90 139.5t90 134.5h216z"/>
<glyph glyph-name="Icircumflex" horiz-adv-x="566" unicode="Î" d="M378 0h-190q15 324 15 684q0 354 -15 618h190q-14 -273 -14 -618q0 -362 14 -684zM577 1416h-114q-10 13 -177 158q-167 -145 -177 -158h-114q0 13 94.5 135.5t99.5 138.5h194q5 -16 99.5 -138.5t94.5 -135.5z"/>
<glyph glyph-name="Idieresis" horiz-adv-x="566" unicode="Ï" d="M378 0h-190q15 324 15 684q0 354 -15 618h190q-14 -273 -14 -618q0 -362 14 -684zM580 1559q0 -46 -30.5 -80.5t-84.5 -34.5q-45 0 -70 30t-25 72q0 44 30.5 77.5t85.5 33.5q45 0 69.5 -28.5t24.5 -69.5zM202 1559q0 -46 -30.5 -80.5t-84.5 -34.5q-45 0 -70 30t-25 72 q0 44 30.5 77.5t85.5 33.5q45 0 69.5 -28.5t24.5 -69.5z"/>
<glyph glyph-name="Eth" horiz-adv-x="1316" unicode="Ð" d="M1043 653q0 218 -138 369t-417 151q-62 0 -139 -10q8 -133 8 -344v-88q56 0 391 33l-6 -161q-346 0 -385 -8q0 -276 11 -459q80 -16 157 -16q261 0 399 167q119 143 119 366zM1217 698q0 -284 -172 -487q-191 -225 -510 -225q-104 0 -347 14q15 249 15 585 q-33 0 -160 -17l9 167q120 -4 151 -4q0 347 -15 571h110q41 0 126 3t124 3q336 0 502.5 -175t166.5 -435z"/>
<glyph glyph-name="Ntilde" horiz-adv-x="1380" unicode="Ñ" d="M1192 0h-140q0 17 -328 479q-343 485 -391 612h-10q18 -241 18 -413q0 -336 15 -678h-168q17 325 17 684q0 353 -17 618h192q0 -28 302 -456q316 -450 360 -586h10q-17 244 -17 414q0 370 -14 628h171q-17 -265 -17 -618q0 -359 17 -684zM1063 1640q-110 -185 -250 -185 q-51 0 -128.5 24t-125.5 24q-88 0 -172 -84l-62 50q110 185 250 185q51 0 128.5 -24t125.5 -24q88 0 172 84z"/>
<glyph glyph-name="Ograve" horiz-adv-x="1421" unicode="Ò" d="M1144 648q0 258 -135.5 399.5t-312.5 141.5q-164 0 -292 -149t-128 -398q0 -259 136.5 -400.5t312.5 -141.5q164 0 291.5 151t127.5 397zM1322 671q0 -323 -189 -516.5t-437 -193.5q-238 0 -417.5 177.5t-179.5 479.5q0 327 189 518.5t437 191.5q238 0 417.5 -177.5 t179.5 -479.5zM800 1416h-120q-10 16 -143 139t-133 135h216q0 -11 90 -134.5t90 -139.5z"/>
<glyph glyph-name="Oacute" horiz-adv-x="1421" unicode="Ó" d="M1144 648q0 258 -135.5 399.5t-312.5 141.5q-164 0 -292 -149t-128 -398q0 -259 136.5 -400.5t312.5 -141.5q164 0 291.5 151t127.5 397zM1322 671q0 -323 -189 -516.5t-437 -193.5q-238 0 -417.5 177.5t-179.5 479.5q0 327 189 518.5t437 191.5q238 0 417.5 -177.5 t179.5 -479.5zM1055 1690q0 -12 -133 -135t-143 -139h-120q0 16 90 139.5t90 134.5h216z"/>
<glyph glyph-name="Ocircumflex" horiz-adv-x="1421" unicode="Ô" d="M1144 648q0 258 -135.5 399.5t-312.5 141.5q-164 0 -292 -149t-128 -398q0 -259 136.5 -400.5t312.5 -141.5q164 0 291.5 151t127.5 397zM1322 671q0 -323 -189 -516.5t-437 -193.5q-238 0 -417.5 177.5t-179.5 479.5q0 327 189 518.5t437 191.5q238 0 417.5 -177.5 t179.5 -479.5zM1010 1416h-114q-10 13 -177 158q-167 -145 -177 -158h-114q0 13 94.5 135.5t99.5 138.5h194q5 -16 99.5 -138.5t94.5 -135.5z"/>
<glyph glyph-name="Otilde" horiz-adv-x="1421" unicode="Õ" d="M1144 648q0 258 -135.5 399.5t-312.5 141.5q-164 0 -292 -149t-128 -398q0 -259 136.5 -400.5t312.5 -141.5q164 0 291.5 151t127.5 397zM1322 671q0 -323 -189 -516.5t-437 -193.5q-238 0 -417.5 177.5t-179.5 479.5q0 327 189 518.5t437 191.5q238 0 417.5 -177.5 t179.5 -479.5zM1132 1640q-110 -185 -250 -185q-51 0 -128.5 24t-125.5 24q-88 0 -172 -84l-62 50q110 185 250 185q51 0 128.5 -24t125.5 -24q88 0 172 84z"/>
<glyph glyph-name="Odieresis" horiz-adv-x="1421" unicode="Ö" d="M1144 648q0 258 -135.5 399.5t-312.5 141.5q-164 0 -292 -149t-128 -398q0 -259 136.5 -400.5t312.5 -141.5q164 0 291.5 151t127.5 397zM1322 671q0 -323 -189 -516.5t-437 -193.5q-238 0 -417.5 177.5t-179.5 479.5q0 327 189 518.5t437 191.5q238 0 417.5 -177.5 t179.5 -479.5zM1024 1559q0 -46 -30.5 -80.5t-84.5 -34.5q-45 0 -70 30t-25 72q0 44 30.5 77.5t85.5 33.5q45 0 69.5 -28.5t24.5 -69.5zM646 1559q0 -46 -30.5 -80.5t-84.5 -34.5q-45 0 -70 30t-25 72q0 44 30.5 77.5t85.5 33.5q45 0 69.5 -28.5t24.5 -69.5z"/>
<glyph glyph-name="multiply" horiz-adv-x="1024" unicode="×" d="M866 761l-258 -259l243 -244l-90 -90l-244 243l-259 -258l-91 91l259 259l-244 244l90 90l244 -244l259 259z"/>
<glyph glyph-name="Oslash" horiz-adv-x="1421" unicode="Ø" d="M1145 651q0 167 -64 293q-228 -252 -645 -721q126 -120 290 -120q163 0 291 151.5t128 396.5zM1011 1048q-129 144 -314 144q-163 0 -291.5 -149t-128.5 -398q0 -189 82 -325q233 257 652 728zM1356 1322q0 -46 -157 -238q124 -172 124 -413q0 -319 -186 -514.5 t-440 -195.5q-207 0 -370 134q-143 -172 -143 -209l-119 31q0 53 176 265q-141 176 -141 436q0 326 188.5 518t437.5 192q224 0 392 -153q116 143 116 178z"/>
<glyph glyph-name="Ugrave" horiz-adv-x="1398" unicode="Ù" d="M1232 1302q-4 -189 -6 -353t-2 -306q0 -670 -529 -670q-138 0 -236.5 39.5t-162 121t-93 205.5t-29.5 293q0 148 -2 314.5t-6 355.5h190q-12 -381 -12 -597q0 -174 17 -283.5t60.5 -182.5t109.5 -103.5t168 -30.5q107 0 174 30.5t109 101t60 181t18 289.5 q0 106 -3.5 253.5t-10.5 341.5h186zM794 1416h-120q-10 16 -143 139t-133 135h216q0 -11 90 -134.5t90 -139.5z"/>
<glyph glyph-name="Uacute" horiz-adv-x="1398" unicode="Ú" d="M1232 1302q-4 -189 -6 -353t-2 -306q0 -670 -529 -670q-138 0 -236.5 39.5t-162 121t-93 205.5t-29.5 293q0 148 -2 314.5t-6 355.5h190q-12 -381 -12 -597q0 -174 17 -283.5t60.5 -182.5t109.5 -103.5t168 -30.5q107 0 174 30.5t109 101t60 181t18 289.5 q0 106 -3.5 253.5t-10.5 341.5h186zM1021 1690q0 -12 -133 -135t-143 -139h-120q0 16 90 139.5t90 134.5h216z"/>
<glyph glyph-name="Ucircumflex" horiz-adv-x="1398" unicode="Û" d="M1232 1302q-4 -189 -6 -353t-2 -306q0 -670 -529 -670q-138 0 -236.5 39.5t-162 121t-93 205.5t-29.5 293q0 148 -2 314.5t-6 355.5h190q-12 -381 -12 -597q0 -174 17 -283.5t60.5 -182.5t109.5 -103.5t168 -30.5q107 0 174 30.5t109 101t60 181t18 289.5 q0 106 -3.5 253.5t-10.5 341.5h186zM994 1416h-114q-10 13 -177 158q-167 -145 -177 -158h-114q0 13 94.5 135.5t99.5 138.5h194q5 -16 99.5 -138.5t94.5 -135.5z"/>
<glyph glyph-name="Udieresis" horiz-adv-x="1398" unicode="Ü" d="M1232 1302q-4 -189 -6 -353t-2 -306q0 -670 -529 -670q-138 0 -236.5 39.5t-162 121t-93 205.5t-29.5 293q0 148 -2 314.5t-6 355.5h190q-12 -381 -12 -597q0 -174 17 -283.5t60.5 -182.5t109.5 -103.5t168 -30.5q107 0 174 30.5t109 101t60 181t18 289.5 q0 106 -3.5 253.5t-10.5 341.5h186zM1004 1559q0 -46 -30.5 -80.5t-84.5 -34.5q-45 0 -70 30t-25 72q0 44 30.5 77.5t85.5 33.5q45 0 69.5 -28.5t24.5 -69.5zM626 1559q0 -46 -30.5 -80.5t-84.5 -34.5q-45 0 -70 30t-25 72q0 44 30.5 77.5t85.5 33.5q45 0 69.5 -28.5 t24.5 -69.5z"/>
<glyph glyph-name="Yacute" horiz-adv-x="1127" unicode="Ý" d="M1105 1302q0 -37 -123 -216q-174 -253 -227 -344q-123 -209 -123 -318q0 -206 14 -424h-192q13 207 13 426q0 120 -115 333q-65 119 -215 344q-115 174 -115 199h205q0 -26 172.5 -318.5t172.5 -386.5h10q0 95 164.5 380t164.5 325h194zM898 1690q0 -12 -133 -135 t-143 -139h-120q0 16 90 139.5t90 134.5h216z"/>
<glyph glyph-name="Thorn" horiz-adv-x="1132" unicode="Þ" d="M899 741q0 256 -351 256q-87 0 -181 -15q-3 -165 -3 -510h84q451 0 451 269zM1066 805q0 -232 -171.5 -346.5t-466.5 -114.5h-64q0 -138 10 -344h-186q12 340 12 690q0 338 -12 612h190q-6 -99 -7 -183q106 8 276 8q192 0 305.5 -87t113.5 -235z"/>
<glyph glyph-name="germandbls" horiz-adv-x="1103" unicode="ß" d="M1023 244q0 -132 -112 -204q-96 -61 -239 -61q-125 0 -209 23l27 128q89 -31 194 -31q188 0 188 116q0 81 -159 211q-95 78 -133 126q-55 70 -55 144q0 96 68 185q63 69 126 137q68 76 68 141q0 145 -208 145q-283 0 -283 -385q0 -439 10 -919h-173q6 423 6 897 q0 270 133.5 404.5t337.5 134.5q144 0 233 -68t89 -180q0 -86 -65 -168l-122 -130q-65 -74 -65 -138q0 -54 44 -104q26 -30 114 -98.5t126 -121.5q59 -82 59 -184z"/>
<glyph glyph-name="agrave" horiz-adv-x="1005" unicode="à" d="M706 194q-5 152 -5 273q-188 0 -286 -28q-164 -50 -164 -191q0 -136 192 -136q165 0 263 82zM883 0l-157 -6q-12 49 -12 93h-10q-123 -112 -335 -112q-115 0 -198 67.5t-83 192.5q0 154 130 247.5t483 98.5q3 24 3 55q0 123 -65.5 164t-198.5 41q-157 0 -309 -39l17 138 q150 43 345 43q178 0 275 -73.5t97 -250.5q0 -47 -4.5 -170.5t-4.5 -164.5q0 -182 27 -324zM585 1086h-120q0 16 -138 164t-138 160h216q0 -11 90 -159.5t90 -164.5z"/>
<glyph glyph-name="aacute" horiz-adv-x="1005" unicode="á" d="M706 194q-5 152 -5 273q-188 0 -286 -28q-164 -50 -164 -191q0 -136 192 -136q165 0 263 82zM883 0l-157 -6q-12 49 -12 93h-10q-123 -112 -335 -112q-115 0 -198 67.5t-83 192.5q0 154 130 247.5t483 98.5q3 24 3 55q0 123 -65.5 164t-198.5 41q-157 0 -309 -39l17 138 q150 43 345 43q178 0 275 -73.5t97 -250.5q0 -47 -4.5 -170.5t-4.5 -164.5q0 -182 27 -324zM820 1410q0 -12 -138 -160t-138 -164h-120q0 16 90 164.5t90 159.5h216z"/>
<glyph glyph-name="acircumflex" horiz-adv-x="1005" unicode="â" d="M706 194q-5 152 -5 273q-188 0 -286 -28q-164 -50 -164 -191q0 -136 192 -136q165 0 263 82zM883 0l-157 -6q-12 49 -12 93h-10q-123 -112 -335 -112q-115 0 -198 67.5t-83 192.5q0 154 130 247.5t483 98.5q3 24 3 55q0 123 -65.5 164t-198.5 41q-157 0 -309 -39l17 138 q150 43 345 43q178 0 275 -73.5t97 -250.5q0 -47 -4.5 -170.5t-4.5 -164.5q0 -182 27 -324zM771 1086h-104q0 13 -187 208q-187 -195 -187 -208h-104q0 13 94.5 160.5t99.5 163.5h194q5 -16 99.5 -163.5t94.5 -160.5z"/>
<glyph glyph-name="atilde" horiz-adv-x="1005" unicode="ã" d="M706 194q-5 152 -5 273q-188 0 -286 -28q-164 -50 -164 -191q0 -136 192 -136q165 0 263 82zM883 0l-157 -6q-12 49 -12 93h-10q-123 -112 -335 -112q-115 0 -198 67.5t-83 192.5q0 154 130 247.5t483 98.5q3 24 3 55q0 123 -65.5 164t-198.5 41q-157 0 -309 -39l17 138 q150 43 345 43q178 0 275 -73.5t97 -250.5q0 -47 -4.5 -170.5t-4.5 -164.5q0 -182 27 -324zM889 1366q-110 -221 -250 -221q-51 0 -128.5 24t-125.5 24q-88 0 -172 -120l-62 50q110 221 250 221q51 0 128.5 -24t125.5 -24q88 0 172 120z"/>
<glyph glyph-name="adieresis" horiz-adv-x="1005" unicode="ä" d="M706 194q-5 152 -5 273q-188 0 -286 -28q-164 -50 -164 -191q0 -136 192 -136q165 0 263 82zM883 0l-157 -6q-12 49 -12 93h-10q-123 -112 -335 -112q-115 0 -198 67.5t-83 192.5q0 154 130 247.5t483 98.5q3 24 3 55q0 123 -65.5 164t-198.5 41q-157 0 -309 -39l17 138 q150 43 345 43q178 0 275 -73.5t97 -250.5q0 -47 -4.5 -170.5t-4.5 -164.5q0 -182 27 -324zM792 1251q0 -46 -30.5 -80.5t-84.5 -34.5q-45 0 -70 30t-25 72q0 44 30.5 77.5t85.5 33.5q45 0 69.5 -28.5t24.5 -69.5zM414 1251q0 -46 -30.5 -80.5t-84.5 -34.5q-45 0 -70 30 t-25 72q0 44 30.5 77.5t85.5 33.5q45 0 69.5 -28.5t24.5 -69.5z"/>
<glyph glyph-name="aring" horiz-adv-x="1005" unicode="å" d="M706 194q-5 152 -5 273q-188 0 -286 -28q-164 -50 -164 -191q0 -136 192 -136q165 0 263 82zM883 0l-157 -6q-12 49 -12 93h-10q-123 -112 -335 -112q-115 0 -198 67.5t-83 192.5q0 154 130 247.5t483 98.5q3 24 3 55q0 123 -65.5 164t-198.5 41q-157 0 -309 -39l17 138 q150 43 345 43q178 0 275 -73.5t97 -250.5q0 -47 -4.5 -170.5t-4.5 -164.5q0 -182 27 -324zM622 1279q0 57 -32 87.5t-78 30.5q-50 0 -88 -35.5t-38 -96.5q0 -57 32 -87.5t78 -30.5q50 0 88 35.5t38 96.5zM716 1287q0 -104 -69 -165t-159 -61q-82 0 -139 51.5t-57 147.5 q0 103 69 163t159 60q82 0 139 -51t57 -145z"/>
<glyph glyph-name="ae" horiz-adv-x="1612" unicode="æ" d="M1513 587q0 -42 -4 -116l-676 -12q10 -143 106.5 -243t266.5 -100q152 0 287 37l-17 -141q-100 -39 -289 -39q-265 0 -395 174h-10q-106 -97 -188 -134.5t-225 -37.5q-113 0 -197 68.5t-84 181.5q0 356 616 356v55q0 123 -65.5 164t-198.5 41q-157 0 -309 -39l17 138 q150 43 334 43q241 0 323 -126h10q117 137 302 137q195 0 295.5 -114.5t100.5 -292.5zM1346 585q0 281 -238 281q-121 0 -190.5 -78.5t-78.5 -213.5zM739 227q-46 107 -46 240q-187 0 -280 -28q-162 -50 -162 -191q0 -136 192 -136q165 0 296 115z"/>
<glyph glyph-name="ccedilla" horiz-adv-x="925" unicode="ç" d="M859 153l-10 -134q-81 -46 -217 -46q-39 0 -75 4l-10 -77q196 -47 196 -192q0 -222 -240 -222l-14 92q47 0 76.5 32t29.5 76q0 113 -152 142l33 161q-150 33 -263.5 151.5t-113.5 320.5q0 209 141.5 365.5t383.5 156.5q119 0 194 -24l-27 -157q-105 39 -213 39 q-143 0 -226.5 -100t-83.5 -247q0 -162 100 -270t283 -108q75 0 208 37z"/>
<glyph glyph-name="egrave" horiz-adv-x="1051" unicode="è" d="M785 585q0 281 -235 281q-240 0 -283 -292zM952 587q0 -42 -4 -116l-687 -12q10 -146 113 -244.5t273 -98.5q152 0 285 37l-17 -141q-98 -39 -283 -39q-260 0 -396.5 142t-136.5 346q0 218 124.5 375.5t334.5 157.5q193 0 293.5 -114t100.5 -293zM646 1086h-120 q0 16 -138 164t-138 160h216q0 -11 90 -159.5t90 -164.5z"/>
<glyph glyph-name="eacute" horiz-adv-x="1051" unicode="é" d="M785 585q0 281 -235 281q-240 0 -283 -292zM952 587q0 -42 -4 -116l-687 -12q10 -146 113 -244.5t273 -98.5q152 0 285 37l-17 -141q-98 -39 -283 -39q-260 0 -396.5 142t-136.5 346q0 218 124.5 375.5t334.5 157.5q193 0 293.5 -114t100.5 -293zM909 1410 q0 -12 -138 -160t-138 -164h-120q0 16 90 164.5t90 159.5h216z"/>
<glyph glyph-name="ecircumflex" horiz-adv-x="1051" unicode="ê" d="M785 585q0 281 -235 281q-240 0 -283 -292zM952 587q0 -42 -4 -116l-687 -12q10 -146 113 -244.5t273 -98.5q152 0 285 37l-17 -141q-98 -39 -283 -39q-260 0 -396.5 142t-136.5 346q0 218 124.5 375.5t334.5 157.5q193 0 293.5 -114t100.5 -293zM847 1086h-104 q0 13 -187 208q-187 -195 -187 -208h-104q0 13 94.5 160.5t99.5 163.5h194q5 -16 99.5 -163.5t94.5 -160.5z"/>
<glyph glyph-name="edieresis" horiz-adv-x="1051" unicode="ë" d="M785 585q0 281 -235 281q-240 0 -283 -292zM952 587q0 -42 -4 -116l-687 -12q10 -146 113 -244.5t273 -98.5q152 0 285 37l-17 -141q-98 -39 -283 -39q-260 0 -396.5 142t-136.5 346q0 218 124.5 375.5t334.5 157.5q193 0 293.5 -114t100.5 -293zM853 1251 q0 -46 -30.5 -80.5t-84.5 -34.5q-45 0 -70 30t-25 72q0 44 30.5 77.5t85.5 33.5q45 0 69.5 -28.5t24.5 -69.5zM475 1251q0 -46 -30.5 -80.5t-84.5 -34.5q-45 0 -70 30t-25 72q0 44 30.5 77.5t85.5 33.5q45 0 69.5 -28.5t24.5 -69.5z"/>
<glyph glyph-name="igrave" horiz-adv-x="446" unicode="ì" d="M313 0h-181q14 200 14 457q0 289 -35 485l200 27q-12 -209 -12 -512q0 -240 14 -457zM308 1086h-120q0 16 -138 164t-138 160h216q0 -11 90 -159.5t90 -164.5z"/>
<glyph glyph-name="iacute" horiz-adv-x="446" unicode="í" d="M313 0h-181q14 200 14 457q0 289 -35 485l200 27q-12 -209 -12 -512q0 -240 14 -457zM527 1410q0 -12 -138 -160t-138 -164h-120q0 16 90 164.5t90 159.5h216z"/>
<glyph glyph-name="icircumflex" horiz-adv-x="446" unicode="î" d="M313 0h-181q14 200 14 457q0 289 -35 485l200 27q-12 -209 -12 -512q0 -240 14 -457zM515 1086h-104q0 13 -187 208q-187 -195 -187 -208h-104q0 13 94.5 160.5t99.5 163.5h194q5 -16 99.5 -163.5t94.5 -160.5z"/>
<glyph glyph-name="idieresis" horiz-adv-x="446" unicode="ï" d="M313 0h-181q14 200 14 457q0 289 -35 485l200 27q-12 -209 -12 -512q0 -240 14 -457zM513 1251q0 -46 -30.5 -80.5t-84.5 -34.5q-45 0 -70 30t-25 72q0 44 30.5 77.5t85.5 33.5q45 0 69.5 -28.5t24.5 -69.5zM135 1251q0 -46 -30.5 -80.5t-84.5 -34.5q-45 0 -70 30t-25 72 q0 44 30.5 77.5t85.5 33.5q45 0 69.5 -28.5t24.5 -69.5z"/>
<glyph glyph-name="eth" horiz-adv-x="1122" unicode="ð" d="M847 523q0 122 -16 223q-105 62 -277 62q-123 0 -200 -103.5t-77 -266.5q0 -137 74 -237t203 -100q150 0 221.5 127.5t71.5 294.5zM1023 532q0 -255 -121.5 -413t-347.5 -158q-219 0 -337 137.5t-118 331.5q0 200 119.5 355t318.5 155q151 0 256 -70h11q-53 174 -158 278 q-74 -52 -168 -119l-78 124q46 19 173 81q-65 68 -128 119l93 85q34 -18 170 -131q77 43 183 119l79 -124q-50 -22 -184 -78q237 -286 237 -692z"/>
<glyph glyph-name="ntilde" horiz-adv-x="1109" unicode="ñ" d="M979 0h-182q22 263 22 574q0 154 -62.5 210.5t-178.5 56.5q-142 0 -262 -103q0 -341 4 -738h-182q17 340 17 492q0 234 -44 454l176 25l19 -122h8q148 134 317 134q166 0 257 -73.5t91 -261.5q0 -19 -2 -75t-2 -75q0 -167 4 -498zM952 1366q-110 -221 -250 -221 q-51 0 -128.5 24t-125.5 24q-88 0 -172 -120l-62 50q110 221 250 221q51 0 128.5 -24t125.5 -24q88 0 172 120z"/>
<glyph glyph-name="ograve" horiz-adv-x="1144" unicode="ò" d="M872 469q0 156 -78.5 277.5t-223.5 121.5q-144 0 -221.5 -115t-77.5 -267q0 -157 78.5 -278t224.5 -121q144 0 221 115.5t77 266.5zM1045 504q0 -256 -147 -399.5t-346 -143.5q-186 0 -319.5 127t-133.5 358q0 258 147.5 403t346.5 145q186 0 319 -128.5t133 -361.5z M676 1086h-120q0 16 -138 164t-138 160h216q0 -11 90 -159.5t90 -164.5z"/>
<glyph glyph-name="oacute" horiz-adv-x="1144" unicode="ó" d="M872 469q0 156 -78.5 277.5t-223.5 121.5q-144 0 -221.5 -115t-77.5 -267q0 -157 78.5 -278t224.5 -121q144 0 221 115.5t77 266.5zM1045 504q0 -256 -147 -399.5t-346 -143.5q-186 0 -319.5 127t-133.5 358q0 258 147.5 403t346.5 145q186 0 319 -128.5t133 -361.5z M940 1410q0 -12 -138 -160t-138 -164h-120q0 16 90 164.5t90 159.5h216z"/>
<glyph glyph-name="ocircumflex" horiz-adv-x="1144" unicode="ô" d="M872 469q0 156 -78.5 277.5t-223.5 121.5q-144 0 -221.5 -115t-77.5 -267q0 -157 78.5 -278t224.5 -121q144 0 221 115.5t77 266.5zM1045 504q0 -256 -147 -399.5t-346 -143.5q-186 0 -319.5 127t-133.5 358q0 258 147.5 403t346.5 145q186 0 319 -128.5t133 -361.5z M882 1086h-104q0 13 -187 208q-187 -195 -187 -208h-104q0 13 94.5 160.5t99.5 163.5h194q5 -16 99.5 -163.5t94.5 -160.5z"/>
<glyph glyph-name="otilde" horiz-adv-x="1144" unicode="õ" d="M872 469q0 156 -78.5 277.5t-223.5 121.5q-144 0 -221.5 -115t-77.5 -267q0 -157 78.5 -278t224.5 -121q144 0 221 115.5t77 266.5zM1045 504q0 -256 -147 -399.5t-346 -143.5q-186 0 -319.5 127t-133.5 358q0 258 147.5 403t346.5 145q186 0 319 -128.5t133 -361.5z M990 1366q-110 -221 -250 -221q-51 0 -128.5 24t-125.5 24q-88 0 -172 -120l-62 50q110 221 250 221q51 0 128.5 -24t125.5 -24q88 0 172 120z"/>
<glyph glyph-name="odieresis" horiz-adv-x="1144" unicode="ö" d="M872 469q0 156 -78.5 277.5t-223.5 121.5q-144 0 -221.5 -115t-77.5 -267q0 -157 78.5 -278t224.5 -121q144 0 221 115.5t77 266.5zM1045 504q0 -256 -147 -399.5t-346 -143.5q-186 0 -319.5 127t-133.5 358q0 258 147.5 403t346.5 145q186 0 319 -128.5t133 -361.5z M893 1251q0 -46 -30.5 -80.5t-84.5 -34.5q-45 0 -70 30t-25 72q0 44 30.5 77.5t85.5 33.5q45 0 69.5 -28.5t24.5 -69.5zM515 1251q0 -46 -30.5 -80.5t-84.5 -34.5q-45 0 -70 30t-25 72q0 44 30.5 77.5t85.5 33.5q45 0 69.5 -28.5t24.5 -69.5z"/>
<glyph glyph-name="divide" horiz-adv-x="1033" unicode="÷" d="M627 836q0 -46 -30.5 -80.5t-84.5 -34.5q-45 0 -70 30t-25 72q0 44 30.5 77.5t85.5 33.5q45 0 69.5 -28.5t24.5 -69.5zM619 181q0 -46 -30.5 -80.5t-84.5 -34.5q-45 0 -70 30t-25 72q0 44 30.5 77.5t85.5 33.5q45 0 69.5 -28.5t24.5 -69.5zM919 440h-804v128h804v-128z "/>
<glyph glyph-name="oslash" horiz-adv-x="1144" unicode="ø" d="M872 469q0 101 -35 191q-159 -167 -461 -486q79 -87 198 -87q139 0 218.5 115.5t79.5 266.5zM788 751q-84 117 -218 117q-142 0 -221 -113.5t-79 -268.5q0 -126 50 -228q166 173 468 493zM1093 981q0 -32 -129 -179q81 -122 81 -298q0 -256 -147 -399.5t-346 -143.5 q-163 0 -283 95q-131 -147 -131 -170l-88 31q0 38 149 208q-100 127 -100 321q0 258 147.5 403t346.5 145q184 0 309 -118q100 112 100 136z"/>
<glyph glyph-name="ugrave" horiz-adv-x="1097" unicode="ù" d="M975 1l-155 -6q-14 56 -14 92h-10q-133 -112 -323 -112q-173 0 -251.5 83.5t-78.5 336.5q0 36 2 107t2 97q0 147 -17 346l186 7q-12 -193 -12 -330q0 -315 40.5 -410.5t182.5 -95.5q160 0 264 80q0 556 -10 749l180 7q-8 -188 -8 -520q0 -213 22 -431zM642 1086h-120 q0 16 -138 164t-138 160h216q0 -11 90 -159.5t90 -164.5z"/>
<glyph glyph-name="uacute" horiz-adv-x="1097" unicode="ú" d="M975 1l-155 -6q-14 56 -14 92h-10q-133 -112 -323 -112q-173 0 -251.5 83.5t-78.5 336.5q0 36 2 107t2 97q0 147 -17 346l186 7q-12 -193 -12 -330q0 -315 40.5 -410.5t182.5 -95.5q160 0 264 80q0 556 -10 749l180 7q-8 -188 -8 -520q0 -213 22 -431zM874 1410 q0 -12 -138 -160t-138 -164h-120q0 16 90 164.5t90 159.5h216z"/>
<glyph glyph-name="ucircumflex" horiz-adv-x="1097" unicode="û" d="M975 1l-155 -6q-14 56 -14 92h-10q-133 -112 -323 -112q-173 0 -251.5 83.5t-78.5 336.5q0 36 2 107t2 97q0 147 -17 346l186 7q-12 -193 -12 -330q0 -315 40.5 -410.5t182.5 -95.5q160 0 264 80q0 556 -10 749l180 7q-8 -188 -8 -520q0 -213 22 -431zM853 1086h-104 q0 13 -187 208q-187 -195 -187 -208h-104q0 13 94.5 160.5t99.5 163.5h194q5 -16 99.5 -163.5t94.5 -160.5z"/>
<glyph glyph-name="udieresis" horiz-adv-x="1097" unicode="ü" d="M975 1l-155 -6q-14 56 -14 92h-10q-133 -112 -323 -112q-173 0 -251.5 83.5t-78.5 336.5q0 36 2 107t2 97q0 147 -17 346l186 7q-12 -193 -12 -330q0 -315 40.5 -410.5t182.5 -95.5q160 0 264 80q0 556 -10 749l180 7q-8 -188 -8 -520q0 -213 22 -431zM849 1251 q0 -46 -30.5 -80.5t-84.5 -34.5q-45 0 -70 30t-25 72q0 44 30.5 77.5t85.5 33.5q45 0 69.5 -28.5t24.5 -69.5zM471 1251q0 -46 -30.5 -80.5t-84.5 -34.5q-45 0 -70 30t-25 72q0 44 30.5 77.5t85.5 33.5q45 0 69.5 -28.5t24.5 -69.5z"/>
<glyph glyph-name="yacute" horiz-adv-x="952" unicode="ý" d="M908 950q0 -64 -151 -408q-173 -393 -215 -554q-69 -261 -128 -332q-80 -98 -285 -98l-8 140q125 0 208 85t83 213q0 111 -184 528t-184 426h207q0 -27 126 -364t126 -415h10q0 65 106.5 377t106.5 402h182zM837 1410q0 -12 -138 -160t-138 -164h-120q0 16 90 164.5 t90 159.5h216z"/>
<glyph glyph-name="thorn" horiz-adv-x="1142" unicode="þ" d="M865 490q0 77 -21.5 143t-61 114t-94.5 75t-122 27q-180 0 -258 -109q0 -179 1 -322.5t3 -254.5q73 -68 202 -68q78 0 142.5 30t111 83.5t72 125.5t25.5 156zM1043 514q0 -114 -34 -213t-96 -171.5t-148.5 -114.5t-190.5 -42q-184 0 -256 66h-10q0 -279 6 -496h-192 q17 253 26 552t9 651q0 363 -33 661l198 10q-5 -87 -7.5 -222t-2.5 -323h8q107 113 329 113q89 0 161.5 -35t124.5 -97.5t80 -149t28 -189.5z"/>
<glyph glyph-name="ydieresis" horiz-adv-x="952" unicode="ÿ" d="M908 950q0 -64 -151 -408q-173 -393 -215 -554q-69 -261 -128 -332q-80 -98 -285 -98l-8 140q125 0 208 85t83 213q0 111 -184 528t-184 426h207q0 -27 126 -364t126 -415h10q0 65 106.5 377t106.5 402h182zM807 1251q0 -46 -30.5 -80.5t-84.5 -34.5q-45 0 -70 30t-25 72 q0 44 30.5 77.5t85.5 33.5q45 0 69.5 -28.5t24.5 -69.5zM429 1251q0 -46 -30.5 -80.5t-84.5 -34.5q-45 0 -70 30t-25 72q0 44 30.5 77.5t85.5 33.5q45 0 69.5 -28.5t24.5 -69.5z"/>
<glyph glyph-name="Amacron" horiz-adv-x="1262" unicode="Ā" d="M868 552q-235 587 -235 624h-11q0 -31 -243 -624h489zM1251 0h-211q0 67 -126 421h-577q-124 -349 -124 -421h-202q0 37 258 639.5t258 662.5h232q0 -59 246 -653t246 -649zM893 1600l-12 -124h-474l12 124h474z"/>
<glyph glyph-name="amacron" horiz-adv-x="1005" unicode="ā" d="M706 194q-5 152 -5 273q-188 0 -286 -28q-164 -50 -164 -191q0 -136 192 -136q165 0 263 82zM883 0l-157 -6q-12 49 -12 93h-10q-123 -112 -335 -112q-115 0 -198 67.5t-83 192.5q0 154 130 247.5t483 98.5q3 24 3 55q0 123 -65.5 164t-198.5 41q-157 0 -309 -39l17 138 q150 43 345 43q178 0 275 -73.5t97 -250.5q0 -47 -4.5 -170.5t-4.5 -164.5q0 -182 27 -324zM727 1310l-12 -124h-434l11 124h435z"/>
<glyph glyph-name="Abreve" horiz-adv-x="1262" unicode="Ă" d="M868 552q-235 587 -235 624h-11q0 -31 -243 -624h489zM1251 0h-211q0 67 -126 421h-577q-124 -349 -124 -421h-202q0 37 258 639.5t258 662.5h232q0 -59 246 -653t246 -649zM946 1640q-95 -218 -306 -218q-221 0 -308 218l100 50q72 -144 206 -144q124 0 208 144z"/>
<glyph glyph-name="abreve" horiz-adv-x="1005" unicode="ă" d="M706 194q-5 152 -5 273q-188 0 -286 -28q-164 -50 -164 -191q0 -136 192 -136q165 0 263 82zM883 0l-157 -6q-12 49 -12 93h-10q-123 -112 -335 -112q-115 0 -198 67.5t-83 192.5q0 154 130 247.5t483 98.5q3 24 3 55q0 123 -65.5 164t-198.5 41q-157 0 -309 -39l17 138 q150 43 345 43q178 0 275 -73.5t97 -250.5q0 -47 -4.5 -170.5t-4.5 -164.5q0 -182 27 -324zM820 1340q-95 -228 -306 -228q-221 0 -308 228l100 50q72 -154 206 -154q124 0 208 154z"/>
<glyph glyph-name="Aogonek" horiz-adv-x="1262" unicode="Ą" d="M868 552q-235 587 -235 624h-11q0 -31 -243 -624h489zM1251 0q-247 -82 -247 -234q0 -116 102 -116q40 0 86 16l28 -137q-53 -15 -136 -15q-98 0 -158 46.5t-60 169.5q0 150 174 270q0 67 -126 421h-577q-124 -349 -124 -421h-202q0 37 258 639.5t258 662.5h232 q0 -59 246 -653t246 -649z"/>
<glyph glyph-name="aogonek" horiz-adv-x="1005" unicode="ą" d="M706 194q-5 152 -5 273q-188 0 -284 -28q-166 -50 -166 -191q0 -136 192 -136q165 0 263 82zM726 -2q-12 45 -12 89h-10q-123 -112 -335 -112q-113 0 -197 68.5t-84 181.5q0 178 142.5 265.5t470.5 90.5q3 24 3 45q0 136 -64.5 175.5t-233.5 39.5q-123 0 -275 -39l17 138 q150 43 334 43q183 0 283 -71t100 -253q0 -47 -4.5 -170.5t-4.5 -164.5q0 -182 27 -324q-193 -125 -193 -234q0 -116 102 -116q40 0 86 16l28 -137q-53 -15 -136 -15q-91 0 -154.5 59t-63.5 157q0 144 174 268z"/>
<glyph glyph-name="Cacute" horiz-adv-x="1125" unicode="Ć" d="M1070 159l-13 -149q-123 -37 -268 -37q-344 0 -517 188.5t-173 460.5q0 285 193 491.5t519 206.5q90 0 190 -27l-28 -159q-115 36 -205 36q-242 0 -367 -150t-125 -367q0 -221 144 -379t398 -158q97 0 252 43zM1013 1690q0 -12 -133 -135t-143 -139h-120q0 16 90 139.5 t90 134.5h216z"/>
<glyph glyph-name="cacute" horiz-adv-x="925" unicode="ć" d="M859 153l-10 -134q-81 -46 -217 -46q-259 0 -396 143t-137 345q0 214 144 368t381 154q119 0 194 -24l-27 -157q-105 39 -213 39q-142 0 -226 -99t-84 -248q0 -162 100 -270t283 -108q75 0 208 37zM869 1410q0 -12 -138 -160t-138 -164h-120q0 16 90 164.5t90 159.5h216z "/>
<glyph glyph-name="Ccircumflex" horiz-adv-x="1125" unicode="Ĉ" d="M1070 159l-13 -149q-123 -37 -268 -37q-344 0 -517 188.5t-173 460.5q0 285 193 491.5t519 206.5q90 0 190 -27l-28 -159q-115 36 -205 36q-242 0 -367 -150t-125 -367q0 -221 144 -379t398 -158q97 0 252 43zM1023 1416h-114q-10 13 -177 158q-167 -145 -177 -158h-114 q0 13 94.5 135.5t99.5 138.5h194q5 -16 99.5 -138.5t94.5 -135.5z"/>
<glyph glyph-name="ccircumflex" horiz-adv-x="925" unicode="ĉ" d="M859 153l-10 -134q-81 -46 -217 -46q-259 0 -396 143t-137 345q0 214 144 368t381 154q119 0 194 -24l-27 -157q-105 39 -213 39q-142 0 -226 -99t-84 -248q0 -162 100 -270t283 -108q75 0 208 37zM834 1086h-104q0 13 -187 208q-187 -195 -187 -208h-104 q0 13 94.5 160.5t99.5 163.5h194q5 -16 99.5 -163.5t94.5 -160.5z"/>
<glyph glyph-name="Cdotaccent" horiz-adv-x="1125" unicode="Ċ" d="M1070 159l-13 -149q-123 -37 -268 -37q-344 0 -517 188.5t-173 460.5q0 285 193 491.5t519 206.5q90 0 190 -27l-28 -159q-115 36 -205 36q-242 0 -367 -150t-125 -367q0 -221 144 -379t398 -158q97 0 252 43zM864 1565q0 -51 -33 -88.5t-93 -37.5q-51 0 -79.5 32.5 t-28.5 78.5q0 50 34 87t94 37q49 0 77.5 -32.5t28.5 -76.5z"/>
<glyph glyph-name="cdotaccent" horiz-adv-x="925" unicode="ċ" d="M859 153l-10 -134q-81 -46 -217 -46q-259 0 -396 143t-137 345q0 214 144 368t381 154q119 0 194 -24l-27 -157q-105 39 -213 39q-142 0 -226 -99t-84 -248q0 -162 100 -270t283 -108q75 0 208 37zM710 1250q0 -51 -33 -88.5t-93 -37.5q-51 0 -79.5 32.5t-28.5 78.5 q0 50 34 87t94 37q49 0 77.5 -32.5t28.5 -76.5z"/>
<glyph glyph-name="Ccaron" horiz-adv-x="1125" unicode="Č" d="M1070 159l-13 -149q-123 -37 -268 -37q-344 0 -517 188.5t-173 460.5q0 285 193 491.5t519 206.5q90 0 190 -27l-28 -159q-115 36 -205 36q-242 0 -367 -150t-125 -367q0 -221 144 -379t398 -158q97 0 252 43zM1073 1690q0 -13 -94.5 -135.5t-99.5 -138.5h-194 q-5 16 -99.5 138.5t-94.5 135.5h114q10 -13 177 -158q167 145 177 158h114z"/>
<glyph glyph-name="ccaron" horiz-adv-x="925" unicode="č" d="M859 153l-10 -134q-81 -46 -217 -46q-259 0 -396 143t-137 345q0 214 144 368t381 154q119 0 194 -24l-27 -157q-105 39 -213 39q-142 0 -226 -99t-84 -248q0 -162 100 -270t283 -108q75 0 208 37zM873 1410q0 -13 -94.5 -160.5t-99.5 -163.5h-194q-5 16 -99.5 163.5 t-94.5 160.5h104q0 -13 187 -208q187 195 187 208h104z"/>
<glyph glyph-name="Dcaron" horiz-adv-x="1316" unicode="Ď" d="M1043 653q0 222 -141.5 371t-437.5 149q-42 0 -115 -10q8 -233 8 -479q0 -270 11 -548q80 -16 154 -16q264 0 392.5 156.5t128.5 376.5zM1217 698q0 -284 -181.5 -498t-500.5 -214q-104 0 -347 14q15 310 15 684q0 352 -15 618h110q40 0 122 3t108 3q353 0 521 -173.5 t168 -436.5zM942 1690q0 -13 -94.5 -135.5t-99.5 -138.5h-194q-5 16 -99.5 138.5t-94.5 135.5h114q10 -13 177 -158q167 145 177 158h114z"/>
<glyph glyph-name="dcaron" horiz-adv-x="1278" unicode="ď" d="M833 198q0 311 -17 599q-81 67 -202 67q-169 0 -253 -112.5t-84 -282.5q0 -152 79.5 -256t220.5 -104q177 0 256 89zM994 1l-149 -5q-8 43 -8 91h-11q-105 -114 -312 -114q-190 0 -302.5 138t-112.5 333q0 221 125 381t352 160q162 0 232 -66h8q0 248 -14 487l190 7 q-19 -254 -19 -665q0 -418 21 -747zM1312 1174q0 -85 -58.5 -175.5t-122.5 -130.5l-43 44q82 102 82 177q-112 30 -112 108q0 54 30.5 93t90.5 39q65 0 99 -43t34 -112z"/>
<glyph glyph-name="Dcroat" horiz-adv-x="1316" unicode="Đ" d="M1043 653q0 218 -138 369t-417 151q-62 0 -139 -10q8 -133 8 -344v-88q56 0 391 33l-6 -161q-346 0 -385 -8q0 -276 11 -459q80 -16 157 -16q261 0 399 167q119 143 119 366zM1217 698q0 -284 -172 -487q-191 -225 -510 -225q-104 0 -347 14q15 249 15 585 q-33 0 -160 -17l9 167q120 -4 151 -4q0 347 -15 571h110q41 0 126 3t124 3q336 0 502.5 -175t166.5 -435z"/>
<glyph glyph-name="dcroat" horiz-adv-x="1136" unicode="đ" d="M833 198q0 311 -17 569q-81 67 -211 67q-165 0 -246.5 -111t-81.5 -269q0 -143 78 -244t219 -101q180 0 259 89zM994 1l-149 -5q-8 43 -8 91h-11q-105 -114 -314 -114q-189 0 -301 134.5t-112 321.5q0 211 123.5 368.5t343.5 157.5q172 0 242 -66h8q0 114 -2 207h-268 l6 102h259q-3 100 -7 205l188 10q-8 -100 -13 -215h151l-6 -102h-148q-3 -163 -3 -348q0 -418 21 -747z"/>
<glyph glyph-name="Emacron" horiz-adv-x="1066" unicode="Ē" d="M1000 151l-6 -151h-806q14 310 14 684q0 352 -14 618h756l-8 -149q-275 12 -583 12q6 -155 6 -419q266 0 474 12v-149q-222 9 -474 9q0 -257 9 -482q332 0 632 15zM827 1600l-12 -124h-474l12 124h474z"/>
<glyph glyph-name="emacron" horiz-adv-x="1051" unicode="ē" d="M785 585q0 281 -235 281q-240 0 -283 -292zM952 587q0 -42 -4 -116l-687 -12q10 -146 113 -244.5t273 -98.5q152 0 285 37l-17 -141q-98 -39 -283 -39q-260 0 -396.5 142t-136.5 346q0 218 124.5 375.5t334.5 157.5q193 0 293.5 -114t100.5 -293zM800 1310l-12 -124h-434 l11 124h435z"/>
<glyph glyph-name="Ebreve" horiz-adv-x="1066" unicode="Ĕ" d="M1000 151l-6 -151h-806q14 310 14 684q0 352 -14 618h756l-8 -149q-275 12 -583 12q6 -155 6 -419q266 0 474 12v-149q-222 9 -474 9q0 -257 9 -482q332 0 632 15zM899 1640q-95 -218 -306 -218q-221 0 -308 218l100 50q72 -144 206 -144q124 0 208 144z"/>
<glyph glyph-name="ebreve" horiz-adv-x="1051" unicode="ĕ" d="M785 585q0 281 -235 281q-240 0 -283 -292zM952 587q0 -42 -4 -116l-687 -12q10 -146 113 -244.5t273 -98.5q152 0 285 37l-17 -141q-98 -39 -283 -39q-260 0 -396.5 142t-136.5 346q0 218 124.5 375.5t334.5 157.5q193 0 293.5 -114t100.5 -293zM883 1340 q-95 -228 -306 -228q-221 0 -308 228l100 50q72 -154 206 -154q124 0 208 154z"/>
<glyph glyph-name="Edotaccent" horiz-adv-x="1066" unicode="Ė" d="M1000 151l-6 -151h-806q14 310 14 684q0 352 -14 618h756l-8 -149q-275 12 -583 12q6 -155 6 -419q266 0 474 12v-149q-222 9 -474 9q0 -257 9 -482q332 0 632 15zM706 1565q0 -51 -33 -88.5t-93 -37.5q-51 0 -79.5 32.5t-28.5 78.5q0 50 34 87t94 37q49 0 77.5 -32.5 t28.5 -76.5z"/>
<glyph glyph-name="edotaccent" horiz-adv-x="1051" unicode="ė" d="M785 585q0 281 -235 281q-240 0 -283 -292zM952 587q0 -42 -4 -116l-687 -12q10 -146 113 -244.5t273 -98.5q152 0 285 37l-17 -141q-98 -39 -283 -39q-260 0 -396.5 142t-136.5 346q0 218 124.5 375.5t334.5 157.5q193 0 293.5 -114t100.5 -293zM691 1250 q0 -51 -33 -88.5t-93 -37.5q-51 0 -79.5 32.5t-28.5 78.5q0 50 34 87t94 37q49 0 77.5 -32.5t28.5 -76.5z"/>
<glyph glyph-name="Eogonek" horiz-adv-x="1066" unicode="Ę" d="M1000 151l-6 -151q-210 -115 -210 -239q0 -111 102 -111q40 0 86 16l28 -137q-53 -15 -136 -15q-98 0 -158 46.5t-60 144.5q0 169 178 285v10h-636q14 310 14 684q0 352 -14 618h754l-6 -149q-275 12 -583 12q6 -155 6 -419q266 0 479 12l-5 -149q-222 9 -474 9 q0 -257 9 -482q332 0 632 15z"/>
<glyph glyph-name="eogonek" horiz-adv-x="1051" unicode="ę" d="M785 585q0 281 -235 281q-234 0 -277 -292zM952 -471q-53 -15 -136 -15q-91 0 -154.5 59t-63.5 157q0 141 154 241v10q-68 -8 -124 -8q-258 0 -393.5 143t-135.5 345q0 215 122.5 374t336.5 159q194 0 294 -114t100 -293q0 -42 -4 -116l-681 -12q10 -142 109.5 -242.5 t270.5 -100.5q152 0 285 37l-17 -131q-179 -137 -179 -256q0 -116 102 -116q40 0 86 16z"/>
<glyph glyph-name="Ecaron" horiz-adv-x="1066" unicode="Ě" d="M1000 151l-6 -151h-806q14 310 14 684q0 352 -14 618h756l-8 -149q-275 12 -583 12q6 -155 6 -419q266 0 474 12v-149q-222 9 -474 9q0 -257 9 -482q332 0 632 15zM888 1690q0 -13 -94.5 -135.5t-99.5 -138.5h-194q-5 16 -99.5 138.5t-94.5 135.5h114q10 -13 177 -158 q167 145 177 158h114z"/>
<glyph glyph-name="ecaron" horiz-adv-x="1051" unicode="ě" d="M785 585q0 281 -235 281q-240 0 -283 -292zM952 587q0 -42 -4 -116l-687 -12q10 -146 113 -244.5t273 -98.5q152 0 285 37l-17 -141q-98 -39 -283 -39q-260 0 -396.5 142t-136.5 346q0 218 124.5 375.5t334.5 157.5q193 0 293.5 -114t100.5 -293zM877 1410 q0 -13 -94.5 -160.5t-99.5 -163.5h-194q-5 16 -99.5 163.5t-94.5 160.5h104q0 -13 187 -208q187 195 187 208h104z"/>
<glyph glyph-name="Gcircumflex" horiz-adv-x="1271" unicode="Ĝ" d="M1138 27q-164 -54 -331 -54q-351 0 -529.5 187.5t-178.5 463.5q0 279 194 487.5t538 208.5q124 0 235 -29l-25 -166q-165 40 -266 40q-242 0 -370.5 -146.5t-128.5 -363.5q0 -218 147.5 -382t416.5 -164q49 0 147 15q-17 104 -17 242q0 116 -14 227h182q-8 -132 -8 -279 q0 -63 8 -287zM1048 1416h-114q-10 13 -177 158q-167 -145 -177 -158h-114q0 13 94.5 135.5t99.5 138.5h194q5 -16 99.5 -138.5t94.5 -135.5z"/>
<glyph glyph-name="gcircumflex" horiz-adv-x="1105" unicode="ĝ" d="M754 649q0 110 -69.5 168.5t-176.5 58.5q-101 0 -169 -56.5t-68 -160.5q0 -109 69.5 -166t178.5 -57q100 0 167.5 55.5t67.5 157.5zM893 -169q0 94 -68.5 132.5t-257.5 38.5q-128 0 -234 12q-122 -59 -122 -173q0 -244 320 -244q167 0 264.5 65t97.5 169zM1072 1076 l-16 -138q-186 0 -205 -60v-10q64 -78 64 -178q0 -156 -102.5 -257.5t-316.5 -101.5q-95 0 -151 20q-49 -35 -49 -87q0 -64 58 -85q74 -28 309 -28q380 0 380 -252q0 -180 -148 -298t-383 -118q-241 0 -343.5 87.5t-102.5 210.5q0 112 50.5 180t125.5 84v9q-79 38 -79 146 q0 98 100 172v8q-53 26 -101 88t-48 154q0 159 105 259t304 100q163 0 256 -59h11q32 169 168 169q74 0 114 -15zM800 1086h-104q0 13 -187 208q-187 -195 -187 -208h-104q0 13 94.5 160.5t99.5 163.5h194q5 -16 99.5 -163.5t94.5 -160.5z"/>
<glyph glyph-name="Gbreve" horiz-adv-x="1271" unicode="Ğ" d="M1138 27q-164 -54 -331 -54q-351 0 -529.5 187.5t-178.5 463.5q0 279 194 487.5t538 208.5q124 0 235 -29l-25 -166q-165 40 -266 40q-242 0 -370.5 -146.5t-128.5 -363.5q0 -218 147.5 -382t416.5 -164q49 0 147 15q-17 104 -17 242q0 116 -14 227h182q-8 -132 -8 -279 q0 -63 8 -287zM1057 1640q-95 -218 -306 -218q-221 0 -308 218l100 50q72 -144 206 -144q124 0 208 144z"/>
<glyph glyph-name="gbreve" horiz-adv-x="1105" unicode="ğ" d="M754 649q0 110 -69.5 168.5t-176.5 58.5q-101 0 -169 -56.5t-68 -160.5q0 -109 69.5 -166t178.5 -57q100 0 167.5 55.5t67.5 157.5zM893 -169q0 94 -68.5 132.5t-257.5 38.5q-128 0 -234 12q-122 -59 -122 -173q0 -244 320 -244q167 0 264.5 65t97.5 169zM1072 1076 l-16 -138q-186 0 -205 -60v-10q64 -78 64 -178q0 -156 -102.5 -257.5t-316.5 -101.5q-95 0 -151 20q-49 -35 -49 -87q0 -64 58 -85q74 -28 309 -28q380 0 380 -252q0 -180 -148 -298t-383 -118q-241 0 -343.5 87.5t-102.5 210.5q0 112 50.5 180t125.5 84v9q-79 38 -79 146 q0 98 100 172v8q-53 26 -101 88t-48 154q0 159 105 259t304 100q163 0 256 -59h11q32 169 168 169q74 0 114 -15zM842 1340q-95 -228 -306 -228q-221 0 -308 228l100 50q72 -154 206 -154q124 0 208 154z"/>
<glyph glyph-name="Gdotaccent" horiz-adv-x="1271" unicode="Ġ" d="M1138 27q-164 -54 -331 -54q-351 0 -529.5 187.5t-178.5 463.5q0 279 194 487.5t538 208.5q124 0 235 -29l-25 -166q-165 40 -266 40q-242 0 -370.5 -146.5t-128.5 -363.5q0 -218 147.5 -382t416.5 -164q49 0 147 15q-17 104 -17 242q0 116 -14 227h182q-8 -132 -8 -279 q0 -63 8 -287zM871 1565q0 -51 -33 -88.5t-93 -37.5q-51 0 -79.5 32.5t-28.5 78.5q0 50 34 87t94 37q49 0 77.5 -32.5t28.5 -76.5z"/>
<glyph glyph-name="gdotaccent" horiz-adv-x="1105" unicode="ġ" d="M754 649q0 110 -69.5 168.5t-176.5 58.5q-101 0 -169 -56.5t-68 -160.5q0 -109 69.5 -166t178.5 -57q100 0 167.5 55.5t67.5 157.5zM893 -169q0 94 -68.5 132.5t-257.5 38.5q-128 0 -234 12q-122 -59 -122 -173q0 -244 320 -244q167 0 264.5 65t97.5 169zM1072 1076 l-16 -138q-186 0 -205 -60v-10q64 -78 64 -178q0 -156 -102.5 -257.5t-316.5 -101.5q-95 0 -151 20q-49 -35 -49 -87q0 -64 58 -85q74 -28 309 -28q380 0 380 -252q0 -180 -148 -298t-383 -118q-241 0 -343.5 87.5t-102.5 210.5q0 112 50.5 180t125.5 84v9q-79 38 -79 146 q0 98 100 172v8q-53 26 -101 88t-48 154q0 159 105 259t304 100q163 0 256 -59h11q32 169 168 169q74 0 114 -15zM653 1250q0 -51 -33 -88.5t-93 -37.5q-51 0 -79.5 32.5t-28.5 78.5q0 50 34 87t94 37q49 0 77.5 -32.5t28.5 -76.5z"/>
<glyph glyph-name="Gcommaaccent" horiz-adv-x="1271" unicode="Ģ" d="M1138 27q-164 -54 -331 -54q-351 0 -529.5 187.5t-178.5 463.5q0 279 194 487.5t538 208.5q124 0 235 -29l-25 -166q-165 40 -266 40q-242 0 -370.5 -146.5t-128.5 -363.5q0 -218 147.5 -382t416.5 -164q49 0 147 15q-17 104 -17 242q0 116 -14 227h182q-8 -132 -8 -279 q0 -63 8 -287zM831 -248q0 -77 -53 -159.5t-111 -118.5l-39 40q74 93 74 161q-101 27 -101 98q0 49 27.5 84.5t82.5 35.5q59 0 89.5 -39t30.5 -102z"/>
<glyph glyph-name="gcommaaccent" horiz-adv-x="1105" unicode="ģ" d="M754 649q0 110 -69.5 168.5t-176.5 58.5q-101 0 -169 -56.5t-68 -160.5q0 -109 69.5 -166t178.5 -57q100 0 167.5 55.5t67.5 157.5zM893 -169q0 94 -68.5 132.5t-257.5 38.5q-128 0 -234 12q-122 -59 -122 -173q0 -244 320 -244q167 0 264.5 65t97.5 169zM1072 1076 l-16 -138q-186 0 -205 -60v-10q64 -78 64 -178q0 -156 -102.5 -257.5t-316.5 -101.5q-95 0 -151 20q-49 -35 -49 -87q0 -64 58 -85q74 -28 309 -28q380 0 380 -252q0 -180 -148 -298t-383 -118q-241 0 -343.5 87.5t-102.5 210.5q0 112 50.5 180t125.5 84v9q-79 38 -79 146 q0 98 100 172v8q-53 26 -101 88t-48 154q0 159 105 259t304 100q163 0 256 -59h11q32 169 168 169q74 0 114 -15zM663 1254q0 -59 -32.5 -94.5t-87.5 -35.5q-61 0 -90.5 38.5t-29.5 112.5q0 77 53 159.5t111 118.5l39 -40q-64 -93 -64 -151q101 -29 101 -108z"/>
<glyph glyph-name="Hcircumflex" horiz-adv-x="1335" unicode="Ĥ" d="M1147 0h-190q10 346 10 620h-599q0 -222 10 -620h-190q14 365 14 684q0 334 -14 618h190q-12 -286 -12 -556h603q0 217 -12 556h190q-15 -278 -15 -618q0 -373 15 -684zM964 1416h-114q-10 13 -177 158q-167 -145 -177 -158h-114q0 13 94.5 135.5t99.5 138.5h194 q5 -16 99.5 -138.5t94.5 -135.5z"/>
<glyph glyph-name="hcircumflex" horiz-adv-x="1109" unicode="ĥ" d="M979 0h-182q22 263 22 566q0 162 -60.5 218.5t-167.5 56.5q-150 0 -281 -103q0 -546 8 -738h-176q9 264 9 746q0 422 -29 661l190 10q-8 -305 -8 -566h6q150 132 329 132q160 0 250 -74.5t90 -261.5q0 -19 -2 -74.5t-2 -97.5q0 -144 4 -475zM509 1416h-114 q-10 13 -177 158q-167 -145 -177 -158h-114q0 13 94.5 135.5t99.5 138.5h194q5 -16 99.5 -138.5t94.5 -135.5z"/>
<glyph glyph-name="Hbar" horiz-adv-x="1335" unicode="Ħ" d="M969 746q0 85 -2 190h-600q-1 -96 -1 -190h603zM1257 1044l-10 -108h-113q-2 -122 -2 -252q0 -373 15 -684h-190q10 346 10 620h-599q0 -222 10 -620h-190q14 365 14 684q0 130 -2 252h-122l10 108h109q-3 134 -9 258h190q-6 -131 -9 -258h596q-3 118 -8 258h190 q-7 -123 -11 -258h121z"/>
<glyph glyph-name="hbar" horiz-adv-x="1109" unicode="ħ" d="M977 623q0 -19 -2 -62.5t-2 -127.5q0 -102 4 -433h-177q22 263 22 544q0 154 -62.5 210.5t-178.5 56.5q-142 0 -273 -103q0 -516 8 -708h-176q9 264 9 746q0 125 -9 350h-140l6 102h130q-7 102 -16 209l190 10q-7 -97 -7 -219h331l-6 -102h-327q-1 -82 -1 -151t1 -124h6 q157 132 317 132q169 0 261 -72.5t92 -257.5z"/>
<glyph glyph-name="Itilde" horiz-adv-x="566" unicode="Ĩ" d="M378 0h-190q15 324 15 684q0 354 -15 618h190q-14 -273 -14 -618q0 -362 14 -684zM650 1640q-110 -185 -250 -185q-51 0 -128.5 24t-125.5 24q-88 0 -172 -84l-62 50q110 185 250 185q51 0 128.5 -24t125.5 -24q88 0 172 84z"/>
<glyph glyph-name="itilde" horiz-adv-x="446" unicode="ĩ" d="M313 0h-181q14 200 14 457q0 289 -35 485l200 27q-12 -209 -12 -512q0 -240 14 -457zM591 1366q-110 -221 -250 -221q-51 0 -128.5 24t-125.5 24q-88 0 -172 -120l-62 50q110 221 250 221q51 0 128.5 -24t125.5 -24q88 0 172 120z"/>
<glyph glyph-name="Imacron" horiz-adv-x="566" unicode="Ī" d="M378 0h-190q15 324 15 684q0 354 -15 618h190q-14 -273 -14 -618q0 -362 14 -684zM529 1600l-12 -124h-474l12 124h474z"/>
<glyph glyph-name="imacron" horiz-adv-x="446" unicode="ī" d="M313 0h-181q14 200 14 457q0 289 -35 485l200 27q-12 -209 -12 -512q0 -240 14 -457zM444 1310l-12 -124h-434l11 124h435z"/>
<glyph glyph-name="Ibreve" horiz-adv-x="566" unicode="Ĭ" d="M378 0h-190q15 324 15 684q0 354 -15 618h190q-14 -273 -14 -618q0 -362 14 -684zM591 1640q-95 -218 -306 -218q-221 0 -308 218l100 50q72 -144 206 -144q124 0 208 144z"/>
<glyph glyph-name="ibreve" horiz-adv-x="446" unicode="ĭ" d="M313 0h-181q14 200 14 457q0 289 -35 485l200 27q-12 -209 -12 -512q0 -240 14 -457zM532 1340q-95 -228 -306 -228q-221 0 -308 228l100 50q72 -154 206 -154q124 0 208 154z"/>
<glyph glyph-name="Iogonek" horiz-adv-x="566" unicode="Į" d="M378 0q-222 -76 -222 -204q0 -146 117 -146q40 0 86 16l28 -137q-53 -15 -126 -15q-107 0 -172.5 54.5t-65.5 185.5q0 135 165 246q15 324 15 684q0 354 -15 618h190q-14 -273 -14 -618q0 -362 14 -684z"/>
<glyph glyph-name="iogonek" horiz-adv-x="446" unicode="į" d="M354 1250q0 -51 -33 -88.5t-93 -37.5q-51 0 -79.5 32.5t-28.5 78.5q0 50 34 87t94 37q106 0 106 -109zM335 -471q-53 -15 -136 -15q-91 0 -153 57q-65 61 -65 159q0 134 150 270q14 200 14 457q0 289 -35 485l200 27q-12 -209 -12 -512q0 -240 14 -457 q-193 -115 -193 -244q0 -106 102 -106q40 0 86 16z"/>
<glyph glyph-name="Idotaccent" horiz-adv-x="566" unicode="İ" d="M378 0h-190q15 324 15 684q0 354 -15 618h190q-14 -273 -14 -618q0 -362 14 -684zM413 1565q0 -51 -33 -88.5t-93 -37.5q-51 0 -79.5 32.5t-28.5 78.5q0 50 34 87t94 37q49 0 77.5 -32.5t28.5 -76.5z"/>
<glyph glyph-name="dotlessi" horiz-adv-x="446" unicode="ı" d="M313 0h-181q14 200 14 457q0 289 -35 485l200 27q-12 -209 -12 -512q0 -240 14 -457z"/>
<glyph glyph-name="IJ" horiz-adv-x="1427" unicode="Ĳ" d="M378 0h-190q15 324 15 684q0 354 -15 618h190q-14 -273 -14 -618q0 -362 14 -684zM1261 1302q-7 -152 -10.5 -337t-3.5 -407q0 -161 -27 -266t-84.5 -177t-147.5 -107t-216 -35q-97 0 -174 21l15 146q71 -33 148 -33q86 0 150.5 24.5t103 76.5t55 128t16.5 199 q0 454 -15 767h190z"/>
<glyph glyph-name="ij" horiz-adv-x="892" unicode="ĳ" d="M355 1250q0 -51 -33 -88.5t-93 -37.5q-51 0 -79.5 32.5t-28.5 78.5q0 50 34 87t94 37q49 0 77.5 -32.5t28.5 -76.5zM313 0h-181q14 200 14 457q0 289 -35 485l200 27q-12 -209 -12 -512q0 -240 14 -457zM801 1250q0 -51 -33 -88.5t-93 -37.5q-51 0 -79.5 32.5t-28.5 78.5 q0 50 34 87t94 37q49 0 77.5 -32.5t28.5 -76.5zM758 971q-17 -310 -17 -622q0 -83 5.5 -219.5t5.5 -185.5q0 -323 -246 -392l-50 76q89 75 110 160q31 122 31 520q0 427 -40 638z"/>
<glyph glyph-name="Jcircumflex" horiz-adv-x="851" unicode="Ĵ" d="M685 1302q-7 -152 -10.5 -337t-3.5 -407q0 -161 -27 -266t-84.5 -177t-147.5 -107t-216 -35q-97 0 -174 21l15 146q71 -33 148 -33q86 0 150.5 24.5t103 76.5t55 128t16.5 199q0 454 -15 767h190zM873 1416h-114q-10 13 -177 158q-167 -145 -177 -158h-114 q0 13 94.5 135.5t99.5 138.5h194q5 -16 99.5 -138.5t94.5 -135.5z"/>
<glyph glyph-name="jcircumflex" horiz-adv-x="446" unicode="ĵ" d="M510 1086h-104q0 13 -187 208q-187 -195 -187 -208h-104q0 13 94.5 160.5t99.5 163.5h194q5 -16 99.5 -163.5t94.5 -160.5zM312 971q-17 -310 -17 -622q0 -83 5.5 -219.5t5.5 -185.5q0 -323 -246 -392l-50 76q89 75 110 160q31 122 31 520q0 427 -40 638z"/>
<glyph glyph-name="Kcommaaccent" horiz-adv-x="1212" unicode="Ķ" d="M1190 0h-219q0 11 -114 174q-132 189 -241 312q-148 167 -219 167h-31q0 -234 10 -653h-188q15 310 15 684q0 352 -15 618h188q-10 -266 -10 -540h23q55 0 274.5 255t219.5 285h208q0 -30 -213.5 -247.5t-317.5 -292.5v-10q115 -44 383 -397q247 -325 247 -355zM777 -248 q0 -77 -53 -159.5t-111 -118.5l-39 40q74 93 74 161q-101 27 -101 98q0 49 27.5 84.5t82.5 35.5q59 0 89.5 -39t30.5 -102z"/>
<glyph glyph-name="kcommaaccent" horiz-adv-x="1000" unicode="ķ" d="M989 0h-235q0 35 -194 267q-199 239 -250 239h-7q0 -214 11 -506h-176q13 366 13 746q0 387 -29 661l192 10q-11 -216 -11 -839h7q33 0 207.5 168.5t174.5 203.5h221q0 -32 -157 -166q-147 -125 -269 -206v-8q124 -94 319 -322q183 -215 183 -248zM630 -248 q0 -77 -53 -159.5t-111 -118.5l-39 40q74 93 74 161q-101 27 -101 98q0 49 27.5 84.5t82.5 35.5q59 0 89.5 -39t30.5 -102z"/>
<glyph glyph-name="kgreenlandic" horiz-adv-x="1000" unicode="ĸ" d="M978 0h-235q0 35 -194 267q-199 239 -250 239h-7q0 -214 11 -506h-176q13 246 13 528q0 174 -29 423l192 10q-11 -216 -11 -383h7q33 0 207.5 168.5t174.5 203.5h221q0 -32 -157 -166q-147 -125 -269 -206v-8q124 -94 319 -322q183 -215 183 -248z"/>
<glyph glyph-name="Lacute" horiz-adv-x="1003" unicode="Ĺ" d="M981 147l-6 -147h-787q12 247 12 684q0 376 -12 618h186q-12 -202 -12 -618q0 -342 -11 -548q300 0 630 11zM593 1690q0 -12 -133 -135t-143 -139h-120q0 16 90 139.5t90 134.5h216z"/>
<glyph glyph-name="lacute" horiz-adv-x="469" unicode="ĺ" d="M325 0h-192q18 330 18 746q0 404 -29 661l203 10q-19 -272 -19 -671q0 -411 19 -746zM520 1790q0 -12 -133 -135t-143 -139h-120q0 16 90 139.5t90 134.5h216z"/>
<glyph glyph-name="Lcommaaccent" horiz-adv-x="1003" unicode="Ļ" d="M981 147l-6 -147h-787q12 247 12 684q0 376 -12 618h186q-12 -202 -12 -618q0 -342 -11 -548q300 0 630 11zM692 -248q0 -77 -53 -159.5t-111 -118.5l-39 40q74 93 74 161q-101 27 -101 98q0 49 27.5 84.5t82.5 35.5q59 0 89.5 -39t30.5 -102z"/>
<glyph glyph-name="lcommaaccent" horiz-adv-x="496" unicode="ļ" d="M341 0h-192q18 330 18 746q0 404 -29 661l203 10q-19 -272 -19 -671q0 -411 19 -746zM352 -248q0 -77 -53 -159.5t-111 -118.5l-39 40q74 93 74 161q-101 27 -101 98q0 49 27.5 84.5t82.5 35.5q59 0 89.5 -39t30.5 -102z"/>
<glyph glyph-name="Lcaron" horiz-adv-x="1003" unicode="Ľ" d="M981 147l-6 -147h-787q12 247 12 684q0 376 -12 618h186q-12 -202 -12 -618q0 -342 -11 -548q300 0 630 11zM1008 1174q0 -85 -58.5 -175.5t-122.5 -130.5l-43 44q82 102 82 177q-112 30 -112 108q0 54 30.5 93t90.5 39q65 0 99 -43t34 -112z"/>
<glyph glyph-name="lcaron" horiz-adv-x="616" unicode="ľ" d="M325 0h-192q18 330 18 746q0 404 -29 661l203 10q-19 -272 -19 -671q0 -411 19 -746zM650 1174q0 -85 -58.5 -175.5t-122.5 -130.5l-43 44q82 102 82 177q-112 30 -112 108q0 54 30.5 93t90.5 39q65 0 99 -43t34 -112z"/>
<glyph glyph-name="Ldot" horiz-adv-x="1003" unicode="Ŀ" d="M981 147l-6 -147h-787q12 247 12 684q0 376 -12 618h186q-12 -202 -12 -618q0 -342 -11 -548q300 0 630 11zM969 711q0 -51 -33 -88.5t-93 -37.5q-51 0 -79.5 32.5t-28.5 78.5q0 50 34 87t94 37q49 0 77.5 -32.5t28.5 -76.5z"/>
<glyph glyph-name="ldot" horiz-adv-x="682" unicode="ŀ" d="M325 0h-192q18 330 18 746q0 404 -29 661l203 10q-19 -272 -19 -671q0 -411 19 -746zM682 610q0 -51 -33 -88.5t-93 -37.5q-51 0 -79.5 32.5t-28.5 78.5q0 50 34 87t94 37q49 0 77.5 -32.5t28.5 -76.5z"/>
<glyph glyph-name="Lslash" horiz-adv-x="1003" unicode="Ł" d="M981 147l-6 -147h-787q9 195 11 519l-151 -106l-72 108l224 142q0 397 -12 639h186q-11 -178 -12 -535l396 278l93 -116l-489 -305q-1 -304 -11 -488q300 0 630 11z"/>
<glyph glyph-name="lslash" horiz-adv-x="580" unicode="ł" d="M646 893l-281 -201q0 -313 16 -692h-192q7 139 19 568l-172 -155l-80 95l254 201q0 494 -31 698l202 10q-7 -139 -18 -580l178 159z"/>
<glyph glyph-name="Nacute" horiz-adv-x="1380" unicode="Ń" d="M1192 0h-140q0 17 -328 479q-343 485 -391 612h-10q18 -241 18 -413q0 -336 15 -678h-168q17 325 17 684q0 353 -17 618h192q0 -28 302 -456q316 -450 360 -586h10q-17 244 -17 414q0 370 -14 628h171q-17 -265 -17 -618q0 -359 17 -684zM1011 1690q0 -12 -133 -135 t-143 -139h-120q0 16 90 139.5t90 134.5h216z"/>
<glyph glyph-name="nacute" horiz-adv-x="1109" unicode="ń" d="M979 0h-182q22 263 22 574q0 154 -62.5 210.5t-178.5 56.5q-142 0 -262 -103q0 -341 4 -738h-182q17 340 17 492q0 234 -44 454l176 25l19 -122h8q148 134 317 134q166 0 257 -73.5t91 -261.5q0 -19 -2 -75t-2 -75q0 -167 4 -498zM916 1410q0 -12 -138 -160t-138 -164 h-120q0 16 90 164.5t90 159.5h216z"/>
<glyph glyph-name="Ncommaaccent" horiz-adv-x="1380" unicode="Ņ" d="M1192 0h-140q0 17 -328 479q-343 485 -391 612h-10q18 -241 18 -413q0 -336 15 -678h-168q17 325 17 684q0 353 -17 618h192q0 -28 302 -456q316 -450 360 -586h10q-17 244 -17 414q0 370 -14 628h171q-17 -265 -17 -618q0 -359 17 -684zM799 -248q0 -77 -53 -159.5 t-111 -118.5l-39 40q74 93 74 161q-101 27 -101 98q0 49 27.5 84.5t82.5 35.5q59 0 89.5 -39t30.5 -102z"/>
<glyph glyph-name="ncommaaccent" horiz-adv-x="1109" unicode="ņ" d="M979 0h-182q22 263 22 574q0 154 -62.5 210.5t-178.5 56.5q-142 0 -262 -103q0 -341 4 -738h-182q17 340 17 492q0 234 -44 454l176 25l19 -122h8q148 134 317 134q166 0 257 -73.5t91 -261.5q0 -19 -2 -75t-2 -75q0 -167 4 -498zM672 -248q0 -77 -53 -159.5t-111 -118.5 l-39 40q74 93 74 161q-101 27 -101 98q0 49 27.5 84.5t82.5 35.5q59 0 89.5 -39t30.5 -102z"/>
<glyph glyph-name="Ncaron" horiz-adv-x="1380" unicode="Ň" d="M1192 0h-140q0 17 -328 479q-343 485 -391 612h-10q18 -241 18 -413q0 -336 15 -678h-168q17 325 17 684q0 353 -17 618h192q0 -28 302 -456q316 -450 360 -586h10q-17 244 -17 414q0 370 -14 628h171q-17 -265 -17 -618q0 -359 17 -684zM989 1690q0 -13 -94.5 -135.5 t-99.5 -138.5h-194q-5 16 -99.5 138.5t-94.5 135.5h114q10 -13 177 -158q167 145 177 158h114z"/>
<glyph glyph-name="ncaron" horiz-adv-x="1109" unicode="ň" d="M979 0h-182q22 263 22 574q0 154 -62.5 210.5t-178.5 56.5q-142 0 -262 -103q0 -341 4 -738h-182q17 340 17 492q0 234 -44 454l176 25l19 -122h8q148 134 317 134q166 0 257 -73.5t91 -261.5q0 -19 -2 -75t-2 -75q0 -167 4 -498zM903 1410q0 -13 -94.5 -160.5 t-99.5 -163.5h-194q-5 16 -99.5 163.5t-94.5 160.5h104q0 -13 187 -208q187 195 187 208h104z"/>
<glyph glyph-name="napostrophe" horiz-adv-x="1291" unicode="ŉ" d="M1161 0h-182q22 263 22 574q0 154 -62.5 210.5t-178.5 56.5q-142 0 -262 -103q0 -341 4 -738h-182q17 340 17 492q0 234 -44 454l176 25l19 -122h8q148 134 317 134q166 0 257 -73.5t91 -261.5q0 -19 -2 -75t-2 -75q0 -167 4 -498zM332 1275q0 -133 -69 -249.5 t-211 -240.5l-60 66q152 170 152 314q-86 34 -86 126q0 58 36 101.5t107 43.5q58 0 94.5 -47t36.5 -114z"/>
<glyph glyph-name="Eng" horiz-adv-x="1380" unicode="Ŋ" d="M1193 -56q0 -159 -87 -256q-134 -130 -356 -130l-8 140q151 0 224.5 63.5t74.5 234.5v37q-67 93 -317 446q-343 485 -391 612h-10q18 -241 18 -413q0 -336 15 -678h-168q17 325 17 684q0 353 -17 618h192q0 -28 302 -456q316 -450 360 -586h10q-17 244 -17 414 q0 370 -14 628h171q-14 -265 -14 -618q0 -287 7.5 -438t7.5 -302z"/>
<glyph glyph-name="eng" horiz-adv-x="1115" unicode="ŋ" d="M985 -56q0 -159 -87 -256q-134 -130 -356 -130l-8 140q151 0 222 63.5t72 234.5q-4 156 -4 578q0 154 -63 210.5t-178 56.5q-143 0 -267 -103q0 -429 4 -738h-182q17 340 17 492q0 234 -44 454l176 25l19 -122h8q149 134 312 134q169 0 261 -72.5t92 -257.5 q0 -59 -2 -127t-2 -177q0 -145 5 -240t5 -165z"/>
<glyph glyph-name="Omacron" horiz-adv-x="1421" unicode="Ō" d="M1144 648q0 258 -135.5 399.5t-312.5 141.5q-164 0 -292 -149t-128 -398q0 -259 136.5 -400.5t312.5 -141.5q164 0 291.5 151t127.5 397zM1322 671q0 -323 -189 -516.5t-437 -193.5q-238 0 -417.5 177.5t-179.5 479.5q0 327 189 518.5t437 191.5q238 0 417.5 -177.5 t179.5 -479.5zM977 1600l-12 -124h-474l12 124h474z"/>
<glyph glyph-name="omacron" horiz-adv-x="1144" unicode="ō" d="M872 469q0 156 -78.5 277.5t-223.5 121.5q-144 0 -221.5 -115t-77.5 -267q0 -157 78.5 -278t224.5 -121q144 0 221 115.5t77 266.5zM1045 504q0 -256 -147 -399.5t-346 -143.5q-186 0 -319.5 127t-133.5 358q0 258 147.5 403t346.5 145q186 0 319 -128.5t133 -361.5z M824 1310l-12 -124h-434l11 124h435z"/>
<glyph glyph-name="Obreve" horiz-adv-x="1421" unicode="Ŏ" d="M1144 648q0 258 -135.5 399.5t-312.5 141.5q-164 0 -292 -149t-128 -398q0 -259 136.5 -400.5t312.5 -141.5q164 0 291.5 151t127.5 397zM1322 671q0 -323 -189 -516.5t-437 -193.5q-238 0 -417.5 177.5t-179.5 479.5q0 327 189 518.5t437 191.5q238 0 417.5 -177.5 t179.5 -479.5zM1030 1640q-95 -218 -306 -218q-221 0 -308 218l100 50q72 -144 206 -144q124 0 208 144z"/>
<glyph glyph-name="obreve" horiz-adv-x="1144" unicode="ŏ" d="M872 469q0 156 -78.5 277.5t-223.5 121.5q-144 0 -221.5 -115t-77.5 -267q0 -157 78.5 -278t224.5 -121q144 0 221 115.5t77 266.5zM1045 504q0 -256 -147 -399.5t-346 -143.5q-186 0 -319.5 127t-133.5 358q0 258 147.5 403t346.5 145q186 0 319 -128.5t133 -361.5z M898 1340q-95 -228 -306 -228q-221 0 -308 228l100 50q72 -154 206 -154q124 0 208 154z"/>
<glyph glyph-name="Ohungarumlaut" horiz-adv-x="1421" unicode="Ő" d="M1144 648q0 258 -135.5 399.5t-312.5 141.5q-164 0 -292 -149t-128 -398q0 -259 136.5 -400.5t312.5 -141.5q164 0 291.5 151t127.5 397zM1322 671q0 -323 -189 -516.5t-437 -193.5q-238 0 -417.5 177.5t-179.5 479.5q0 327 189 518.5t437 191.5q238 0 417.5 -177.5 t179.5 -479.5zM1109 1690q0 -22 -83.5 -140t-90.5 -134h-94q7 16 38.5 134.5t31.5 139.5h198zM749 1690q0 -22 -83.5 -140t-90.5 -134h-94q0 16 35 134.5t35 139.5h198z"/>
<glyph glyph-name="ohungarumlaut" horiz-adv-x="1144" unicode="ő" d="M872 469q0 156 -78.5 277.5t-223.5 121.5q-144 0 -221.5 -115t-77.5 -267q0 -157 78.5 -278t224.5 -121q144 0 221 115.5t77 266.5zM1045 504q0 -256 -147 -399.5t-346 -143.5q-186 0 -319.5 127t-133.5 358q0 258 147.5 403t346.5 145q186 0 319 -128.5t133 -361.5z M990 1410q0 -22 -92 -165t-92 -159h-94q0 16 35 159.5t35 164.5h208zM630 1410q0 -22 -92 -165t-92 -159h-94q0 16 35 159.5t35 164.5h208z"/>
<glyph glyph-name="OE" horiz-adv-x="1846" unicode="Œ" d="M962 684q0 280 -8 475q-125 33 -273 33q-195 0 -302 -169q-94 -147 -94 -368q0 -219 107 -376q117 -174 310 -174q157 0 252 40q8 222 8 539zM1780 151l-6 -151h-816q-144 -37 -275 -37q-290 0 -448 211q-136 182 -136 452q0 272 151 474q171 228 450 228q120 0 277 -26 h748l-7 -149q-349 12 -605 12q6 -154 6 -419q204 0 504 6l-6 -143q-248 9 -498 9q0 -257 13 -482q236 0 648 15z"/>
<glyph glyph-name="oe" horiz-adv-x="1766" unicode="œ" d="M1500 585q0 281 -227 281q-241 0 -260 -292zM864 469q0 83 -22.5 155.5t-63 126.5t-96.5 85.5t-122 31.5t-119 -29.5t-91 -81t-58.5 -121t-20.5 -150.5q0 -84 21 -156.5t59.5 -126.5t92.5 -85t120 -31t121 29.5t95 81.5t62 121.5t22 149.5zM1667 587q0 -21 -1 -50t-3 -66 l-656 -12q6 -78 34 -141.5t75 -108t111.5 -69t142.5 -24.5q154 0 277 37l-17 -141q-90 -39 -279 -39q-275 0 -419 194h-11q-119 -206 -380 -206q-97 0 -178 34.5t-139.5 98t-91.5 153t-33 199.5q0 123 36.5 224t101 173t153.5 111.5t193 39.5q252 0 349 -186h10 q116 186 339 186q92 0 163.5 -28t121 -80.5t75.5 -128t26 -170.5z"/>
<glyph glyph-name="Racute" horiz-adv-x="1240" unicode="Ŕ" d="M868 938q0 238 -322 238q-115 0 -193 -13q7 -174 7 -473q60 -2 115 -2q393 0 393 250zM1174 0h-193q-96 287 -140 380q-56 117 -127 151q-56 27 -201 27q-85 0 -151 -2q0 -323 12 -556h-186q15 310 15 684q0 352 -15 618h141q45 0 114 3t158 3q438 0 438 -302 q0 -251 -246 -353v-10q110 -33 178 -153q57 -100 203 -490zM931 1690q0 -12 -133 -135t-143 -139h-120q0 16 90 139.5t90 134.5h216z"/>
<glyph glyph-name="racute" horiz-adv-x="726" unicode="ŕ" d="M736 950l-45 -159q-78 31 -145 31q-188 0 -244 -179q0 -460 6 -643h-177q16 317 16 492q0 237 -47 454l175 25q19 -110 19 -147h8q108 159 252 159q76 0 182 -33zM682 1410q0 -12 -138 -160t-138 -164h-120q0 16 90 164.5t90 159.5h216z"/>
<glyph glyph-name="Rcommaaccent" horiz-adv-x="1240" unicode="Ŗ" d="M868 938q0 238 -322 238q-115 0 -193 -13q7 -174 7 -473q60 -2 115 -2q393 0 393 250zM1174 0h-193q-96 287 -140 380q-56 117 -127 151q-56 27 -201 27q-85 0 -151 -2q0 -323 12 -556h-186q15 310 15 684q0 352 -15 618h141q45 0 114 3t158 3q438 0 438 -302 q0 -251 -246 -353v-10q110 -33 178 -153q57 -100 203 -490zM776 -248q0 -77 -53 -159.5t-111 -118.5l-39 40q74 93 74 161q-101 27 -101 98q0 49 27.5 84.5t82.5 35.5q59 0 89.5 -39t30.5 -102z"/>
<glyph glyph-name="rcommaaccent" horiz-adv-x="726" unicode="ŗ" d="M736 950l-45 -159q-78 31 -145 31q-188 0 -244 -179q0 -460 6 -643h-177q16 317 16 492q0 237 -47 454l175 25q19 -110 19 -147h8q108 159 252 159q76 0 182 -33zM330 -248q0 -77 -53 -159.5t-111 -118.5l-39 40q74 93 74 161q-101 27 -101 98q0 49 27.5 84.5t82.5 35.5 q59 0 89.5 -39t30.5 -102z"/>
<glyph glyph-name="Rcaron" horiz-adv-x="1240" unicode="Ř" d="M868 938q0 238 -322 238q-115 0 -193 -13q7 -174 7 -473q60 -2 115 -2q393 0 393 250zM1174 0h-193q-96 287 -140 380q-56 117 -127 151q-56 27 -201 27q-85 0 -151 -2q0 -323 12 -556h-186q15 310 15 684q0 352 -15 618h141q45 0 114 3t158 3q438 0 438 -302 q0 -251 -246 -353v-10q110 -33 178 -153q57 -100 203 -490zM904 1690q0 -13 -94.5 -135.5t-99.5 -138.5h-194q-5 16 -99.5 138.5t-94.5 135.5h114q10 -13 177 -158q167 145 177 158h114z"/>
<glyph glyph-name="rcaron" horiz-adv-x="726" unicode="ř" d="M736 950l-45 -159q-78 31 -145 31q-188 0 -244 -179q0 -460 6 -643h-177q16 317 16 492q0 237 -47 454l175 25q19 -110 19 -147h8q108 159 252 159q76 0 182 -33zM739 1410q0 -13 -94.5 -160.5t-99.5 -163.5h-194q-5 16 -99.5 163.5t-94.5 160.5h104q0 -13 187 -208 q187 195 187 208h104z"/>
<glyph glyph-name="Sacute" horiz-adv-x="1047" unicode="Ś" d="M948 337q0 -370 -515 -370q-188 0 -334 43l35 157q168 -58 319 -58q340 0 340 192q0 97 -88 166q-59 46 -232 123q-182 81 -255 149q-101 94 -101 236q0 148 103 241q115 104 325 104q238 0 326 -31l-24 -159q-152 48 -323 48q-257 0 -257 -172q0 -83 74 -139 q48 -35 212 -106q187 -81 270 -154q125 -110 125 -270zM878 1690q0 -12 -133 -135t-143 -139h-120q0 16 90 139.5t90 134.5h216z"/>
<glyph glyph-name="sacute" horiz-adv-x="858" unicode="ś" d="M767 271q0 -292 -373 -292q-165 0 -308 33l31 147q130 -50 282 -50q218 0 218 124q0 60 -48.5 95.5t-160.5 79.5q-142 56 -206 108q-94 77 -94 186q0 114 86 195.5t262 81.5q172 0 276 -29l-31 -144q-108 43 -250 43q-192 0 -192 -111q0 -56 43 -90.5t168 -83.5 q135 -53 200 -104q97 -79 97 -189zM806 1410q0 -12 -138 -160t-138 -164h-120q0 16 90 164.5t90 159.5h216z"/>
<glyph glyph-name="Scircumflex" horiz-adv-x="1047" unicode="Ŝ" d="M948 337q0 -370 -515 -370q-188 0 -334 43l35 157q168 -58 319 -58q340 0 340 192q0 97 -88 166q-59 46 -232 123q-182 81 -255 149q-101 94 -101 236q0 148 103 241q115 104 325 104q238 0 326 -31l-24 -159q-152 48 -323 48q-257 0 -257 -172q0 -83 74 -139 q48 -35 212 -106q187 -81 270 -154q125 -110 125 -270zM821 1416h-114q-10 13 -177 158q-167 -145 -177 -158h-114q0 13 94.5 135.5t99.5 138.5h194q5 -16 99.5 -138.5t94.5 -135.5z"/>
<glyph glyph-name="scircumflex" horiz-adv-x="858" unicode="ŝ" d="M767 271q0 -292 -373 -292q-165 0 -308 33l31 147q130 -50 282 -50q218 0 218 124q0 60 -48.5 95.5t-160.5 79.5q-142 56 -206 108q-94 77 -94 186q0 114 86 195.5t262 81.5q172 0 276 -29l-31 -144q-108 43 -250 43q-192 0 -192 -111q0 -56 43 -90.5t168 -83.5 q135 -53 200 -104q97 -79 97 -189zM732 1086h-104q0 13 -187 208q-187 -195 -187 -208h-104q0 13 94.5 160.5t99.5 163.5h194q5 -16 99.5 -163.5t94.5 -160.5z"/>
<glyph glyph-name="Scedilla" horiz-adv-x="1047" unicode="Ş" d="M948 337q0 -354 -473 -369l-10 -68q196 -47 196 -192q0 -222 -240 -222l-14 92q47 0 76.5 32t29.5 76q0 113 -152 142l28 140q-162 4 -296 42l39 157q170 -58 321 -58q340 0 340 192q0 97 -88 166q-59 46 -232 123q-182 81 -255 149q-101 94 -101 236q0 148 103 241 q115 104 325 104q238 0 326 -31l-24 -159q-152 48 -323 48q-257 0 -257 -172q0 -83 74 -139q48 -35 212 -106q187 -81 270 -154q125 -110 125 -270z"/>
<glyph glyph-name="scedilla" horiz-adv-x="858" unicode="ş" d="M767 271q0 -278 -338 -291l-9 -80q196 -47 196 -192q0 -222 -240 -222l-14 92q47 0 76.5 32t29.5 76q0 113 -152 142l31 152q-139 4 -261 32l31 147q130 -50 282 -50q218 0 218 124q0 60 -48.5 95.5t-160.5 79.5q-142 56 -206 108q-94 77 -94 186q0 114 86 195.5 t262 81.5q172 0 276 -29l-31 -144q-108 43 -250 43q-192 0 -192 -111q0 -56 43 -90.5t168 -83.5q135 -53 200 -104q97 -79 97 -189z"/>
<glyph glyph-name="Scaron" horiz-adv-x="1047" unicode="Š" d="M948 337q0 -370 -515 -370q-188 0 -334 43l35 157q168 -58 319 -58q340 0 340 192q0 97 -88 166q-59 46 -232 123q-182 81 -255 149q-101 94 -101 236q0 148 103 241q115 104 325 104q238 0 326 -31l-24 -159q-152 48 -323 48q-257 0 -257 -172q0 -83 74 -139 q48 -35 212 -106q187 -81 270 -154q125 -110 125 -270zM846 1690q0 -13 -94.5 -135.5t-99.5 -138.5h-194q-5 16 -99.5 138.5t-94.5 135.5h114q10 -13 177 -158q167 145 177 158h114z"/>
<glyph glyph-name="scaron" horiz-adv-x="858" unicode="š" d="M767 271q0 -292 -373 -292q-165 0 -308 33l31 147q130 -50 282 -50q218 0 218 124q0 60 -48.5 95.5t-160.5 79.5q-142 56 -206 108q-94 77 -94 186q0 114 86 195.5t262 81.5q172 0 276 -29l-31 -144q-108 43 -250 43q-192 0 -192 -111q0 -56 43 -90.5t168 -83.5 q135 -53 200 -104q97 -79 97 -189zM743 1410q0 -13 -94.5 -160.5t-99.5 -163.5h-194q-5 16 -99.5 163.5t-94.5 160.5h104q0 -13 187 -208q187 195 187 208h104z"/>
<glyph glyph-name="Tcommaaccent" horiz-adv-x="1043" unicode="Ţ" d="M1021 1302l-5 -141q-198 10 -409 10q-2 -192 -2 -487q0 -326 10 -684h-183q12 341 12 684q0 291 -6 487q-148 0 -416 -12l5 143h994zM657 -248q0 -77 -53 -159.5t-111 -118.5l-39 40q74 93 74 161q-101 27 -101 98q0 49 27.5 84.5t82.5 35.5q59 0 89.5 -39t30.5 -102z "/>
<glyph glyph-name="Tcommaaccent" horiz-adv-x="1043" unicode="Ț" d="M1021 1302l-5 -141q-198 10 -409 10q-2 -192 -2 -487q0 -326 10 -684h-183q12 341 12 684q0 291 -6 487q-148 0 -416 -12l5 143h994zM657 -248q0 -77 -53 -159.5t-111 -118.5l-39 40q74 93 74 161q-101 27 -101 98q0 49 27.5 84.5t82.5 35.5q59 0 89.5 -39t30.5 -102z "/>
<glyph glyph-name="tcommaaccent" horiz-adv-x="735" unicode="ţ" d="M680 138l-12 -130q-79 -29 -149 -29q-180 0 -246 91.5t-66 327.5q0 153 2 399q-56 0 -165 -6l6 145q95 -6 170 -6q0 60 10 285l157 16q-17 -210 -17 -301q98 0 288 10l-7 -149q-180 6 -289 6q-2 -151 -2 -340q0 -206 43.5 -272.5t161.5 -66.5q39 0 115 20zM536 -248 q0 -77 -53 -159.5t-111 -118.5l-39 40q74 93 74 161q-101 27 -101 98q0 49 27.5 84.5t82.5 35.5q59 0 89.5 -39t30.5 -102z"/>
<glyph glyph-name="tcommaaccent" horiz-adv-x="735" unicode="ț" d="M680 138l-12 -130q-79 -29 -149 -29q-180 0 -246 91.5t-66 327.5q0 153 2 399q-56 0 -165 -6l6 145q95 -6 170 -6q0 60 10 285l157 16q-17 -210 -17 -301q98 0 288 10l-7 -149q-180 6 -289 6q-2 -151 -2 -340q0 -206 43.5 -272.5t161.5 -66.5q39 0 115 20zM536 -248 q0 -77 -53 -159.5t-111 -118.5l-39 40q74 93 74 161q-101 27 -101 98q0 49 27.5 84.5t82.5 35.5q59 0 89.5 -39t30.5 -102z"/>
<glyph glyph-name="Tcaron" horiz-adv-x="1043" unicode="Ť" d="M1021 1302l-5 -141q-198 10 -409 10q-2 -192 -2 -487q0 -326 10 -684h-183q12 341 12 684q0 291 -6 487q-148 0 -416 -12l5 143h994zM819 1690q0 -13 -94.5 -135.5t-99.5 -138.5h-194q-5 16 -99.5 138.5t-94.5 135.5h114q10 -13 177 -158q167 145 177 158h114z"/>
<glyph glyph-name="tcaron" horiz-adv-x="913" unicode="ť" d="M680 138l-12 -130q-79 -29 -149 -29q-180 0 -246 91.5t-66 327.5q0 153 2 399q-56 0 -165 -6l6 145q95 -6 170 -6q0 60 10 285l157 16q-17 -210 -17 -301q98 0 288 10l-7 -149q-180 6 -289 6q-2 -151 -2 -340q0 -206 43.5 -272.5t161.5 -66.5q39 0 115 20zM947 1174 q0 -85 -58.5 -175.5t-122.5 -130.5l-43 44q82 102 82 177q-112 30 -112 108q0 54 30.5 93t90.5 39q65 0 99 -43t34 -112z"/>
<glyph glyph-name="Tbar" horiz-adv-x="1043" unicode="Ŧ" d="M1021 1302l-5 -141q-198 10 -409 10q-2 -171 -2 -426h349l-10 -108h-339q0 -305 10 -637h-183q11 317 12 637h-349l10 108h339q-1 251 -6 426q-148 0 -416 -12l5 143h994z"/>
<glyph glyph-name="tbar" horiz-adv-x="735" unicode="ŧ" d="M680 138l-12 -130q-79 -29 -145 -29q-163 0 -239.5 78t-76.5 331v74h-159l6 102h153q1 104 2 233q-56 0 -165 -6l6 145q95 -6 170 -6q0 60 10 285l157 16q-17 -210 -17 -301q98 0 288 10l-7 -149q-180 6 -289 6q-2 -107 -2 -233h272l-6 -102h-266v-5q0 -206 43.5 -272.5 t161.5 -66.5q39 0 115 20z"/>
<glyph glyph-name="Utilde" horiz-adv-x="1398" unicode="Ũ" d="M1232 1302q-4 -189 -6 -353t-2 -306q0 -670 -529 -670q-138 0 -236.5 39.5t-162 121t-93 205.5t-29.5 293q0 148 -2 314.5t-6 355.5h190q-12 -381 -12 -597q0 -174 17 -283.5t60.5 -182.5t109.5 -103.5t168 -30.5q107 0 174 30.5t109 101t60 181t18 289.5 q0 106 -3.5 253.5t-10.5 341.5h186zM1098 1640q-110 -185 -250 -185q-51 0 -128.5 24t-125.5 24q-88 0 -172 -84l-62 50q110 185 250 185q51 0 128.5 -24t125.5 -24q88 0 172 84z"/>
<glyph glyph-name="utilde" horiz-adv-x="1097" unicode="ũ" d="M975 1l-155 -6q-14 56 -14 92h-10q-133 -112 -323 -112q-173 0 -251.5 83.5t-78.5 336.5q0 36 2 107t2 97q0 147 -17 346l186 7q-12 -193 -12 -330q0 -315 40.5 -410.5t182.5 -95.5q160 0 264 80q0 556 -10 749l180 7q-8 -188 -8 -520q0 -213 22 -431zM963 1366 q-110 -221 -250 -221q-51 0 -128.5 24t-125.5 24q-88 0 -172 -120l-62 50q110 221 250 221q51 0 128.5 -24t125.5 -24q88 0 172 120z"/>
<glyph glyph-name="Umacron" horiz-adv-x="1398" unicode="Ū" d="M1232 1302q-4 -189 -6 -353t-2 -306q0 -670 -529 -670q-138 0 -236.5 39.5t-162 121t-93 205.5t-29.5 293q0 148 -2 314.5t-6 355.5h190q-12 -381 -12 -597q0 -174 17 -283.5t60.5 -182.5t109.5 -103.5t168 -30.5q107 0 174 30.5t109 101t60 181t18 289.5 q0 106 -3.5 253.5t-10.5 341.5h186zM949 1600l-12 -124h-474l12 124h474z"/>
<glyph glyph-name="umacron" horiz-adv-x="1097" unicode="ū" d="M975 1l-155 -6q-14 56 -14 92h-10q-133 -112 -323 -112q-173 0 -251.5 83.5t-78.5 336.5q0 36 2 107t2 97q0 147 -17 346l186 7q-12 -193 -12 -330q0 -315 40.5 -410.5t182.5 -95.5q160 0 264 80q0 556 -10 749l180 7q-8 -188 -8 -520q0 -213 22 -431zM792 1310l-12 -124 h-434l11 124h435z"/>
<glyph glyph-name="Ubreve" horiz-adv-x="1398" unicode="Ŭ" d="M1232 1302q-4 -189 -6 -353t-2 -306q0 -670 -529 -670q-138 0 -236.5 39.5t-162 121t-93 205.5t-29.5 293q0 148 -2 314.5t-6 355.5h190q-12 -381 -12 -597q0 -174 17 -283.5t60.5 -182.5t109.5 -103.5t168 -30.5q107 0 174 30.5t109 101t60 181t18 289.5 q0 106 -3.5 253.5t-10.5 341.5h186zM1022 1640q-95 -218 -306 -218q-221 0 -308 218l100 50q72 -144 206 -144q124 0 208 144z"/>
<glyph glyph-name="ubreve" horiz-adv-x="1097" unicode="ŭ" d="M975 1l-155 -6q-14 56 -14 92h-10q-133 -112 -323 -112q-173 0 -251.5 83.5t-78.5 336.5q0 36 2 107t2 97q0 147 -17 346l186 7q-12 -193 -12 -330q0 -315 40.5 -410.5t182.5 -95.5q160 0 264 80q0 556 -10 749l180 7q-8 -188 -8 -520q0 -213 22 -431zM860 1340 q-95 -228 -306 -228q-221 0 -308 228l100 50q72 -154 206 -154q124 0 208 154z"/>
<glyph glyph-name="Uring" horiz-adv-x="1398" unicode="Ů" d="M1232 1302q-4 -189 -6 -353t-2 -306q0 -670 -529 -670q-138 0 -236.5 39.5t-162 121t-93 205.5t-29.5 293q0 148 -2 314.5t-6 355.5h190q-12 -381 -12 -597q0 -174 17 -283.5t60.5 -182.5t109.5 -103.5t168 -30.5q107 0 174 30.5t109 101t60 181t18 289.5 q0 106 -3.5 253.5t-10.5 341.5h186zM829 1576q0 57 -32 87.5t-78 30.5q-50 0 -88 -35.5t-38 -96.5q0 -57 32 -87.5t78 -30.5q50 0 88 35.5t38 96.5zM923 1584q0 -104 -69 -165t-159 -61q-82 0 -139 51.5t-57 147.5q0 103 69 163t159 60q82 0 139 -51t57 -145z"/>
<glyph glyph-name="uring" horiz-adv-x="1097" unicode="ů" d="M975 1l-155 -6q-14 56 -14 92h-10q-133 -112 -323 -112q-173 0 -251.5 83.5t-78.5 336.5q0 36 2 107t2 97q0 147 -17 346l186 7q-12 -193 -12 -330q0 -315 40.5 -410.5t182.5 -95.5q160 0 264 80q0 556 -10 749l180 7q-8 -188 -8 -520q0 -213 22 -431zM677 1279 q0 57 -32 87.5t-78 30.5q-50 0 -88 -35.5t-38 -96.5q0 -57 32 -87.5t78 -30.5q50 0 88 35.5t38 96.5zM771 1287q0 -104 -69 -165t-159 -61q-82 0 -139 51.5t-57 147.5q0 103 69 163t159 60q82 0 139 -51t57 -145z"/>
<glyph glyph-name="Uhungarumlaut" horiz-adv-x="1398" unicode="Ű" d="M1232 1302q-4 -189 -6 -353t-2 -306q0 -670 -529 -670q-138 0 -236.5 39.5t-162 121t-93 205.5t-29.5 293q0 148 -2 314.5t-6 355.5h190q-12 -381 -12 -597q0 -174 17 -283.5t60.5 -182.5t109.5 -103.5t168 -30.5q107 0 174 30.5t109 101t60 181t18 289.5 q0 106 -3.5 253.5t-10.5 341.5h186zM1089 1690q0 -22 -83.5 -140t-90.5 -134h-94q7 16 38.5 134.5t31.5 139.5h198zM729 1690q0 -22 -83.5 -140t-90.5 -134h-94q0 16 35 134.5t35 139.5h198z"/>
<glyph glyph-name="uhungarumlaut" horiz-adv-x="1097" unicode="ű" d="M975 1l-155 -6q-14 56 -14 92h-10q-133 -112 -323 -112q-173 0 -251.5 83.5t-78.5 336.5q0 36 2 107t2 97q0 147 -17 346l186 7q-12 -193 -12 -330q0 -315 40.5 -410.5t182.5 -95.5q160 0 264 80q0 556 -10 749l180 7q-8 -188 -8 -520q0 -213 22 -431zM965 1410 q0 -22 -92 -165t-92 -159h-94q0 16 35 159.5t35 164.5h208zM605 1410q0 -22 -92 -165t-92 -159h-94q0 16 35 159.5t35 164.5h208z"/>
<glyph glyph-name="Uogonek" horiz-adv-x="1398" unicode="Ų" d="M948 -471q-52 -15 -136 -15q-51 0 -91 12t-68.5 38t-43.5 67t-15 99q0 136 141 235v9q-11 -1 -40 -1q-138 0 -236.5 39.5t-162 121t-93 205.5t-29.5 293q0 148 -2 314.5t-6 355.5h190q-12 -381 -12 -597q0 -174 17 -283.5t61 -181t111.5 -103.5t165.5 -32q106 0 173.5 30 t111 101t60 181.5t16.5 289.5q0 106 -3.5 253.5t-10.5 341.5h186q-4 -189 -6 -353t-2 -306q0 -497 -291 -625q-201 -89 -201 -242q0 -126 102 -126q41 0 86 16z"/>
<glyph glyph-name="uogonek" horiz-adv-x="1097" unicode="ų" d="M973 -471q-53 -15 -136 -15q-91 0 -154.5 54t-63.5 162q0 144 199 268h2q-14 53 -14 89h-10q-133 -112 -323 -112q-168 0 -249 82t-81 329q0 39 2 113t2 100q0 147 -17 346l186 7q-12 -193 -12 -330q0 -307 38.5 -406.5t176.5 -99.5q168 0 272 80q0 556 -10 750l180 6 q-8 -188 -8 -520q0 -213 22 -432q-218 -125 -218 -234q0 -116 102 -116q40 0 86 16z"/>
<glyph glyph-name="Wcircumflex" horiz-adv-x="1815" unicode="Ŵ" d="M1804 1302q0 -73 -216 -654t-216 -648h-130q0 88 -157 510q-171 457 -194 589h-13q-20 -140 -172 -600q-142 -431 -142 -499h-130q0 102 -211.5 683.5t-211.5 618.5h190q0 -41 151.5 -518t151.5 -584h11q0 113 154 580.5t154 521.5h175q0 -65 160 -554.5t160 -547.5h11 q0 98 145.5 554.5t145.5 547.5h184zM1197 1416h-114q-10 13 -177 158q-167 -145 -177 -158h-114q0 13 94.5 135.5t99.5 138.5h194q5 -16 99.5 -138.5t94.5 -135.5z"/>
<glyph glyph-name="wcircumflex" horiz-adv-x="1569" unicode="ŵ" d="M1525 950q0 -60 -171.5 -470.5t-171.5 -479.5h-136q0 38 -101 291q-124 311 -176 486h-8q-48 -169 -164 -487q-92 -252 -92 -290h-137q0 58 -162 480.5t-162 469.5h178q0 -52 116.5 -380t116.5 -382h11q0 82 120.5 395.5t120.5 366.5h170q0 -46 125 -383t125 -379h10 q0 61 108.5 372.5t108.5 389.5h171zM1069 1086h-104q0 13 -187 208q-187 -195 -187 -208h-104q0 13 94.5 160.5t99.5 163.5h194q5 -16 99.5 -163.5t94.5 -160.5z"/>
<glyph glyph-name="Ycircumflex" horiz-adv-x="1127" unicode="Ŷ" d="M1105 1302q0 -37 -123 -216q-174 -253 -227 -344q-123 -209 -123 -318q0 -206 14 -424h-192q13 207 13 426q0 120 -115 333q-65 119 -215 344q-115 174 -115 199h205q0 -26 172.5 -318.5t172.5 -386.5h10q0 95 164.5 380t164.5 325h194zM861 1416h-114q-10 13 -177 158 q-167 -145 -177 -158h-114q0 13 94.5 135.5t99.5 138.5h194q5 -16 99.5 -138.5t94.5 -135.5z"/>
<glyph glyph-name="ycircumflex" horiz-adv-x="952" unicode="ŷ" d="M908 950q0 -64 -151 -408q-173 -393 -215 -554q-69 -261 -128 -332q-80 -98 -285 -98l-8 140q125 0 208 85t83 213q0 111 -184 528t-184 426h207q0 -27 126 -364t126 -415h10q0 65 106.5 377t106.5 402h182zM783 1086h-104q0 13 -187 208q-187 -195 -187 -208h-104 q0 13 94.5 160.5t99.5 163.5h194q5 -16 99.5 -163.5t94.5 -160.5z"/>
<glyph glyph-name="Ydieresis" horiz-adv-x="1127" unicode="Ÿ" d="M1105 1302q0 -37 -123 -216q-174 -253 -227 -344q-123 -209 -123 -318q0 -206 14 -424h-192q13 207 13 426q0 120 -115 333q-65 119 -215 344q-115 174 -115 199h205q0 -26 172.5 -318.5t172.5 -386.5h10q0 95 164.5 380t164.5 325h194zM873 1559q0 -46 -30.5 -80.5 t-84.5 -34.5q-45 0 -70 30t-25 72q0 44 30.5 77.5t85.5 33.5q45 0 69.5 -28.5t24.5 -69.5zM495 1559q0 -46 -30.5 -80.5t-84.5 -34.5q-45 0 -70 30t-25 72q0 44 30.5 77.5t85.5 33.5q45 0 69.5 -28.5t24.5 -69.5z"/>
<glyph glyph-name="Zacute" horiz-adv-x="1062" unicode="Ź" d="M963 167l-6 -167h-858l9 120q126 176 367 570q259 425 259 473v11q-219 0 -621 -25l5 153h816l-8 -124q-114 -161 -351 -565q-247 -420 -247 -462v-11q207 0 635 27zM824 1690q0 -12 -133 -135t-143 -139h-120q0 16 90 139.5t90 134.5h216z"/>
<glyph glyph-name="zacute" horiz-adv-x="933" unicode="ź" d="M834 161l-6 -161h-729l8 155q53 51 271 316q237 289 237 324l-1 11q-321 0 -509 -13l6 157h694l-10 -157q-83 -91 -263 -318q-224 -283 -224 -322v-8q302 0 526 16zM794 1410q0 -12 -138 -160t-138 -164h-120q0 16 90 164.5t90 159.5h216z"/>
<glyph glyph-name="Zdotaccent" horiz-adv-x="1062" unicode="Ż" d="M963 167l-6 -167h-858l9 120q126 176 367 570q259 425 259 473v11q-219 0 -621 -25l5 153h816l-8 -124q-114 -161 -351 -565q-247 -420 -247 -462v-11q207 0 635 27zM675 1565q0 -51 -33 -88.5t-93 -37.5q-51 0 -79.5 32.5t-28.5 78.5q0 50 34 87t94 37q49 0 77.5 -32.5 t28.5 -76.5z"/>
<glyph glyph-name="zdotaccent" horiz-adv-x="933" unicode="ż" d="M834 161l-6 -161h-729l8 155q53 51 271 316q237 289 237 324l-1 11q-321 0 -509 -13l6 157h694l-10 -157q-83 -91 -263 -318q-224 -283 -224 -322v-8q302 0 526 16zM594 1250q0 -51 -33 -88.5t-93 -37.5q-51 0 -79.5 32.5t-28.5 78.5q0 50 34 87t94 37q49 0 77.5 -32.5 t28.5 -76.5z"/>
<glyph glyph-name="Zcaron" horiz-adv-x="1062" unicode="Ž" d="M963 167l-6 -167h-858l9 120q126 176 367 570q259 425 259 473v11q-219 0 -621 -25l5 153h816l-8 -124q-114 -161 -351 -565q-247 -420 -247 -462v-11q207 0 635 27zM806 1690q0 -13 -94.5 -135.5t-99.5 -138.5h-194q-5 16 -99.5 138.5t-94.5 135.5h114q10 -13 177 -158 q167 145 177 158h114z"/>
<glyph glyph-name="zcaron" horiz-adv-x="933" unicode="ž" d="M834 161l-6 -161h-729l8 155q53 51 271 316q237 289 237 324l-1 11q-321 0 -509 -13l6 157h694l-10 -157q-83 -91 -263 -318q-224 -283 -224 -322v-8q302 0 526 16zM772 1410q0 -13 -94.5 -160.5t-99.5 -163.5h-194q-5 16 -99.5 163.5t-94.5 160.5h104q0 -13 187 -208 q187 195 187 208h104z"/>
<glyph glyph-name="longs" horiz-adv-x="566" unicode="ſ" d="M606 1419l-29 -132q-60 15 -120 15q-93 0 -125 -73.5t-32 -298.5q0 -588 12 -930h-179q14 333 14 930q0 263 73 384.5t247 121.5q61 0 139 -17z"/>
<glyph glyph-name="florin" horiz-adv-x="1033" unicode="ƒ" d="M905 1314l-21 -134q-50 8 -91 8q-117 0 -154 -63q-19 -31 -34 -108q-7 -38 -13 -87.5t-11 -109.5q102 0 258 4l-4 -93q-105 4 -259 4q-18 -269 -38.5 -462t-43.5 -310q-46 -235 -123.5 -324.5t-230.5 -115.5l-53 110q125 67 178.5 133.5t85.5 270.5q16 102 32.5 276.5 t33.5 421.5q-64 0 -181 -4l4 93q63 -4 188 -4q5 76 14.5 140t22.5 115q27 103 68 155q82 103 267 103q30 0 105 -19z"/>
<glyph glyph-name="Aringacute" horiz-adv-x="1262" unicode="Ǻ" d="M743 1516q0 43 -24 66.5t-59 23.5q-38 0 -67 -27t-29 -74q0 -42 24.5 -65.5t58.5 -23.5q38 0 67 27t29 73zM823 1523q0 -83 -55 -132t-127 -49q-66 0 -111.5 41t-45.5 118q0 83 55.5 131t127.5 48q65 0 110.5 -41t45.5 -116zM868 552q-235 587 -235 624h-11 q0 -31 -243 -624h489zM1251 0h-211q0 67 -126 421h-577q-124 -349 -124 -421h-202q0 37 258 639.5t258 662.5h232q0 -59 246 -653t246 -649zM980 1900q0 -12 -118 -90.5t-128 -93.5h-120q0 15 70 94t70 90h226z"/>
<glyph glyph-name="aringacute" horiz-adv-x="1005" unicode="ǻ" d="M706 194q-5 152 -5 273q-188 0 -286 -28q-164 -50 -164 -191q0 -136 192 -136q165 0 263 82zM883 0l-157 -6q-12 49 -12 93h-10q-123 -112 -335 -112q-115 0 -198 67.5t-83 192.5q0 154 130 247.5t483 98.5q3 24 3 55q0 123 -65.5 164t-198.5 41q-157 0 -309 -39l17 138 q150 43 345 43q178 0 275 -73.5t97 -250.5q0 -47 -4.5 -170.5t-4.5 -164.5q0 -182 27 -324zM622 1260q0 57 -32 87.5t-78 30.5q-50 0 -88 -35.5t-38 -96.5q0 -57 32 -87.5t78 -30.5q50 0 88 35.5t38 96.5zM716 1268q0 -104 -69 -165t-159 -61q-82 0 -139 51.5t-57 147.5 q0 103 69 163t159 60q82 0 139 -51t57 -145zM866 1790q0 -12 -133 -135t-143 -139h-120q0 16 90 139.5t90 134.5h216z"/>
<glyph glyph-name="AEacute" horiz-adv-x="1668" unicode="Ǽ" d="M786 552q0 357 -13 613h-157q0 -38 -248 -613h418zM1602 151l-6 -151h-823q13 223 13 421h-461q-118 -349 -118 -421h-196q0 36 261.5 636t261.5 666h1012l-6 -149q-304 12 -610 12q9 -154 9 -419q236 0 505 6l-5 -143q-249 9 -500 9q0 -257 8 -482q340 0 655 15z M1222 1690q0 -12 -133 -135t-143 -139h-120q0 16 90 139.5t90 134.5h216z"/>
<glyph glyph-name="aeacute" horiz-adv-x="1612" unicode="ǽ" d="M1513 587q0 -42 -4 -116l-676 -12q10 -143 106.5 -243t266.5 -100q152 0 287 37l-17 -141q-100 -39 -289 -39q-265 0 -395 174h-10q-106 -97 -188 -134.5t-225 -37.5q-113 0 -197 68.5t-84 181.5q0 356 616 356v55q0 123 -65.5 164t-198.5 41q-157 0 -309 -39l17 138 q150 43 334 43q241 0 323 -126h10q117 137 302 137q195 0 295.5 -114.5t100.5 -292.5zM1346 585q0 281 -238 281q-121 0 -190.5 -78.5t-78.5 -213.5zM739 227q-46 107 -46 240q-187 0 -280 -28q-162 -50 -162 -191q0 -136 192 -136q165 0 296 115zM1156 1410 q0 -12 -138 -160t-138 -164h-120q0 16 90 164.5t90 159.5h216z"/>
<glyph glyph-name="Oslashacute" horiz-adv-x="1421" unicode="Ǿ" d="M1145 651q0 167 -64 293q-228 -252 -645 -721q126 -120 290 -120q163 0 291 151.5t128 396.5zM1011 1048q-129 144 -314 144q-163 0 -291.5 -149t-128.5 -398q0 -189 82 -325q233 257 652 728zM1356 1322q0 -46 -157 -238q124 -172 124 -413q0 -319 -186 -514.5 t-440 -195.5q-207 0 -370 134q-143 -172 -143 -209l-119 31q0 53 176 265q-141 176 -141 436q0 326 188.5 518t437.5 192q224 0 392 -153q116 143 116 178zM1057 1690q0 -12 -133 -135t-143 -139h-120q0 16 90 139.5t90 134.5h216z"/>
<glyph glyph-name="oslashacute" horiz-adv-x="1144" unicode="ǿ" d="M872 469q0 101 -35 191q-159 -167 -461 -486q79 -87 198 -87q139 0 218.5 115.5t79.5 266.5zM788 751q-84 117 -218 117q-142 0 -221 -113.5t-79 -268.5q0 -126 50 -228q166 173 468 493zM1093 981q0 -32 -129 -179q81 -122 81 -298q0 -256 -147 -399.5t-346 -143.5 q-163 0 -283 95q-131 -147 -131 -170l-88 31q0 38 149 208q-100 127 -100 321q0 258 147.5 403t346.5 145q184 0 309 -118q100 112 100 136zM931 1410q0 -12 -138 -160t-138 -164h-120q0 16 90 164.5t90 159.5h216z"/>
<glyph glyph-name="Scommaaccent" horiz-adv-x="1047" unicode="Ș" d="M948 337q0 -370 -515 -370q-188 0 -334 43l35 157q168 -58 319 -58q340 0 340 192q0 97 -88 166q-59 46 -232 123q-182 81 -255 149q-101 94 -101 236q0 148 103 241q115 104 325 104q238 0 326 -31l-24 -159q-152 48 -323 48q-257 0 -257 -172q0 -83 74 -139 q48 -35 212 -106q187 -81 270 -154q125 -110 125 -270zM552 -248q0 -77 -53 -159.5t-111 -118.5l-39 40q74 93 74 161q-101 27 -101 98q0 49 27.5 84.5t82.5 35.5q59 0 89.5 -39t30.5 -102z"/>
<glyph glyph-name="scommaaccent" horiz-adv-x="858" unicode="ș" d="M767 271q0 -292 -373 -292q-165 0 -308 33l31 147q130 -50 282 -50q218 0 218 124q0 60 -48.5 95.5t-160.5 79.5q-142 56 -206 108q-94 77 -94 186q0 114 86 195.5t262 81.5q172 0 276 -29l-31 -144q-108 43 -250 43q-192 0 -192 -111q0 -56 43 -90.5t168 -83.5 q135 -53 200 -104q97 -79 97 -189zM506 -248q0 -77 -53 -159.5t-111 -118.5l-39 40q74 93 74 161q-101 27 -101 98q0 49 27.5 84.5t82.5 35.5q59 0 89.5 -39t30.5 -102z"/>
<glyph glyph-name="circumflex" horiz-adv-x="782" unicode="ˆ" d="M682 1086h-104q0 13 -187 208q-187 -195 -187 -208h-104q0 13 94.5 160.5t99.5 163.5h194q5 -16 99.5 -163.5t94.5 -160.5z"/>
<glyph glyph-name="caron" horiz-adv-x="782" unicode="ˇ" d="M682 1410q0 -13 -94.5 -160.5t-99.5 -163.5h-194q-5 16 -99.5 163.5t-94.5 160.5h104q0 -13 187 -208q187 195 187 208h104z"/>
<glyph glyph-name="breve" horiz-adv-x="782" unicode="˘" d="M698 1340q-95 -228 -306 -228q-221 0 -308 228l100 50q72 -154 206 -154q124 0 208 154z"/>
<glyph glyph-name="dotaccent" horiz-adv-x="526" unicode="˙" d="M399 1250q0 -51 -33 -88.5t-93 -37.5q-51 0 -79.5 32.5t-28.5 78.5q0 50 34 87t94 37q49 0 77.5 -32.5t28.5 -76.5z"/>
<glyph glyph-name="ring" horiz-adv-x="610" unicode="˚" d="M423 1279q0 57 -32 87.5t-78 30.5q-50 0 -88 -35.5t-38 -96.5q0 -57 32 -87.5t78 -30.5q50 0 88 35.5t38 96.5zM517 1287q0 -104 -69 -165t-159 -61q-82 0 -139 51.5t-57 147.5q0 103 69 163t159 60q82 0 139 -51t57 -145z"/>
<glyph glyph-name="ogonek" horiz-adv-x="470" unicode="˛" d="M380 -471q-53 -15 -136 -15q-91 0 -154.5 59t-63.5 157q0 134 150 270h151q-163 -115 -163 -244q0 -106 102 -106q40 0 86 16z"/>
<glyph glyph-name="tilde" horiz-adv-x="884" unicode="˜" d="M810 1366q-110 -221 -250 -221q-51 0 -128.5 24t-125.5 24q-88 0 -172 -120l-62 50q110 221 250 221q51 0 128.5 -24t125.5 -24q88 0 172 120z"/>
<glyph glyph-name="hungarumlaut" horiz-adv-x="882" unicode="˝" d="M760 1410q0 -22 -92 -165t-92 -159h-94q0 16 35 159.5t35 164.5h208zM400 1410q0 -22 -92 -165t-92 -159h-94q0 16 35 159.5t35 164.5h208z"/>
<glyph glyph-name="gravecomb" horiz-adv-x="0" unicode="̀" d="M-410 1086h-120q0 16 -138 164t-138 160h216q0 -11 90 -159.5t90 -164.5z"/>
<glyph glyph-name="acutecomb" horiz-adv-x="0" unicode="́" d="M-205 1410q0 -12 -138 -160t-138 -164h-120q0 16 90 164.5t90 159.5h216z"/>
<glyph glyph-name="uni0302" horiz-adv-x="0" unicode="̂" d="M-195 1086h-104q0 13 -187 208q-187 -195 -187 -208h-104q0 13 94.5 160.5t99.5 163.5h194q5 -16 99.5 -163.5t94.5 -160.5z"/>
<glyph glyph-name="tildecomb" horiz-adv-x="0" unicode="̃" d="M-114 1366q-110 -221 -250 -221q-51 0 -128.5 24t-125.5 24q-88 0 -172 -120l-62 50q110 221 250 221q51 0 128.5 -24t125.5 -24q88 0 172 120z"/>
<glyph glyph-name="uni0304" horiz-adv-x="0" unicode="̄" d="M-250 1310l-12 -124h-434l11 124h435z"/>
<glyph glyph-name="uni0306" horiz-adv-x="0" unicode="̆" d="M-225 1340q-95 -228 -306 -228q-221 0 -308 228l100 50q72 -154 206 -154q124 0 208 154z"/>
<glyph glyph-name="uni0307" horiz-adv-x="0" unicode="̇" d="M-411 1250q0 -51 -33 -88.5t-93 -37.5q-51 0 -79.5 32.5t-28.5 78.5q0 50 34 87t94 37q49 0 77.5 -32.5t28.5 -76.5z"/>
<glyph glyph-name="uni0308" horiz-adv-x="0" unicode="̈" d="M-239 1251q0 -46 -30.5 -80.5t-84.5 -34.5q-45 0 -70 30t-25 72q0 44 30.5 77.5t85.5 33.5q45 0 69.5 -28.5t24.5 -69.5zM-617 1251q0 -46 -30.5 -80.5t-84.5 -34.5q-45 0 -70 30t-25 72q0 44 30.5 77.5t85.5 33.5q45 0 69.5 -28.5t24.5 -69.5z"/>
<glyph glyph-name="uni030A" horiz-adv-x="0" unicode="̊" d="M-384 1279q0 57 -32 87.5t-78 30.5q-50 0 -88 -35.5t-38 -96.5q0 -57 32 -87.5t78 -30.5q50 0 88 35.5t38 96.5zM-290 1287q0 -104 -69 -165t-159 -61q-82 0 -139 51.5t-57 147.5q0 103 69 163t159 60q82 0 139 -51t57 -145z"/>
<glyph glyph-name="uni030B" horiz-adv-x="0" unicode="̋" d="M-120 1410q0 -22 -92 -165t-92 -159h-94q0 16 35 159.5t35 164.5h208zM-480 1410q0 -22 -92 -165t-92 -159h-94q0 16 35 159.5t35 164.5h208z"/>
<glyph glyph-name="uni030C" horiz-adv-x="0" unicode="̌" d="M-261 1410q0 -13 -94.5 -160.5t-99.5 -163.5h-194q-5 16 -99.5 163.5t-94.5 160.5h104q0 -13 187 -208q187 195 187 208h104z"/>
<glyph glyph-name="uni0312" horiz-adv-x="0" unicode="̒" d="M-404 1254q0 -59 -32.5 -94.5t-87.5 -35.5q-61 0 -90.5 38.5t-29.5 112.5q0 77 53 159.5t111 118.5l39 -40q-64 -93 -64 -151q101 -29 101 -108z"/>
<glyph glyph-name="uni0315" horiz-adv-x="166" unicode="̕" d="M202 1174q0 -85 -58.5 -175.5t-122.5 -130.5l-43 44q82 102 82 177q-112 30 -112 108q0 54 30.5 93t90.5 39q65 0 99 -43t34 -112z"/>
<glyph glyph-name="uni0326" horiz-adv-x="0" unicode="̦" d="M-415 -248q0 -77 -53 -159.5t-111 -118.5l-39 40q74 93 74 161q-101 27 -101 98q0 49 27.5 84.5t82.5 35.5q59 0 89.5 -39t30.5 -102z"/>
<glyph glyph-name="uni0327" horiz-adv-x="0" unicode="̧" d="M-16 -292q0 -222 -240 -222l-14 92q47 0 76.5 32t29.5 76q0 113 -152 142l46 224l74 -14l-16 -138q196 -47 196 -192z"/>
<glyph glyph-name="uni0328" horiz-adv-x="0" unicode="̨" d="M-67 -471q-53 -15 -136 -15q-91 0 -154.5 59t-63.5 157q0 134 150 270h151q-163 -115 -163 -244q0 -106 102 -106q40 0 86 16z"/>
<glyph glyph-name="uni0344" horiz-adv-x="0" unicode="̈́" d="M-389 1251q0 -46 -30.5 -80.5t-84.5 -34.5q-45 0 -70 30t-25 72q0 44 30.5 77.5t85.5 33.5q45 0 69.5 -28.5t24.5 -69.5zM29 1251q0 -46 -30.5 -80.5t-84.5 -34.5q-45 0 -70 30t-25 72q0 44 30.5 77.5t85.5 33.5q45 0 69.5 -28.5t24.5 -69.5zM28 1648q0 -22 -143 -195 t-143 -199h-100q0 33 85 203t85 191h216z"/>
<glyph glyph-name="dieresistonos" horiz-adv-x="836" unicode="΅" d="M315 1251q0 -46 -30.5 -80.5t-84.5 -34.5q-45 0 -70 30t-25 72q0 44 30.5 77.5t85.5 33.5q45 0 69.5 -28.5t24.5 -69.5zM733 1251q0 -46 -30.5 -80.5t-84.5 -34.5q-45 0 -70 30t-25 72q0 44 30.5 77.5t85.5 33.5q45 0 69.5 -28.5t24.5 -69.5zM732 1648q0 -22 -143 -195 t-143 -199h-100q0 33 85 203t85 191h216z"/>
<glyph glyph-name="Wgrave" horiz-adv-x="1815" unicode="Ẁ" d="M1804 1302q0 -73 -216 -654t-216 -648h-130q0 88 -157 510q-171 457 -194 589h-13q-20 -140 -172 -600q-142 -431 -142 -499h-130q0 102 -211.5 683.5t-211.5 618.5h190q0 -41 151.5 -518t151.5 -584h11q0 113 154 580.5t154 521.5h175q0 -65 160 -554.5t160 -547.5h11 q0 98 145.5 554.5t145.5 547.5h184zM985 1416h-120q-10 16 -143 139t-133 135h216q0 -11 90 -134.5t90 -139.5z"/>
<glyph glyph-name="wgrave" horiz-adv-x="1569" unicode="ẁ" d="M1525 950q0 -60 -171.5 -470.5t-171.5 -479.5h-136q0 38 -101 291q-124 311 -176 486h-8q-48 -169 -164 -487q-92 -252 -92 -290h-137q0 58 -162 480.5t-162 469.5h178q0 -52 116.5 -380t116.5 -382h11q0 82 120.5 395.5t120.5 366.5h170q0 -46 125 -383t125 -379h10 q0 61 108.5 372.5t108.5 389.5h171zM850 1086h-120q0 16 -138 164t-138 160h216q0 -11 90 -159.5t90 -164.5z"/>
<glyph glyph-name="Wacute" horiz-adv-x="1815" unicode="Ẃ" d="M1804 1302q0 -73 -216 -654t-216 -648h-130q0 88 -157 510q-171 457 -194 589h-13q-20 -140 -172 -600q-142 -431 -142 -499h-130q0 102 -211.5 683.5t-211.5 618.5h190q0 -41 151.5 -518t151.5 -584h11q0 113 154 580.5t154 521.5h175q0 -65 160 -554.5t160 -547.5h11 q0 98 145.5 554.5t145.5 547.5h184zM1224 1690q0 -12 -133 -135t-143 -139h-120q0 16 90 139.5t90 134.5h216z"/>
<glyph glyph-name="wacute" horiz-adv-x="1569" unicode="ẃ" d="M1525 950q0 -60 -171.5 -470.5t-171.5 -479.5h-136q0 38 -101 291q-124 311 -176 486h-8q-48 -169 -164 -487q-92 -252 -92 -290h-137q0 58 -162 480.5t-162 469.5h178q0 -52 116.5 -380t116.5 -382h11q0 82 120.5 395.5t120.5 366.5h170q0 -46 125 -383t125 -379h10 q0 61 108.5 372.5t108.5 389.5h171zM1131 1410q0 -12 -138 -160t-138 -164h-120q0 16 90 164.5t90 159.5h216z"/>
<glyph glyph-name="Wdieresis" horiz-adv-x="1815" unicode="Ẅ" d="M1804 1302q0 -73 -216 -654t-216 -648h-130q0 88 -157 510q-171 457 -194 589h-13q-20 -140 -172 -600q-142 -431 -142 -499h-130q0 102 -211.5 683.5t-211.5 618.5h190q0 -41 151.5 -518t151.5 -584h11q0 113 154 580.5t154 521.5h175q0 -65 160 -554.5t160 -547.5h11 q0 98 145.5 554.5t145.5 547.5h184zM1209 1559q0 -46 -30.5 -80.5t-84.5 -34.5q-45 0 -70 30t-25 72q0 44 30.5 77.5t85.5 33.5q45 0 69.5 -28.5t24.5 -69.5zM831 1559q0 -46 -30.5 -80.5t-84.5 -34.5q-45 0 -70 30t-25 72q0 44 30.5 77.5t85.5 33.5q45 0 69.5 -28.5 t24.5 -69.5z"/>
<glyph glyph-name="wdieresis" horiz-adv-x="1569" unicode="ẅ" d="M1525 950q0 -60 -171.5 -470.5t-171.5 -479.5h-136q0 38 -101 291q-124 311 -176 486h-8q-48 -169 -164 -487q-92 -252 -92 -290h-137q0 58 -162 480.5t-162 469.5h178q0 -52 116.5 -380t116.5 -382h11q0 82 120.5 395.5t120.5 366.5h170q0 -46 125 -383t125 -379h10 q0 61 108.5 372.5t108.5 389.5h171zM1101 1251q0 -46 -30.5 -80.5t-84.5 -34.5q-45 0 -70 30t-25 72q0 44 30.5 77.5t85.5 33.5q45 0 69.5 -28.5t24.5 -69.5zM723 1251q0 -46 -30.5 -80.5t-84.5 -34.5q-45 0 -70 30t-25 72q0 44 30.5 77.5t85.5 33.5q45 0 69.5 -28.5 t24.5 -69.5z"/>
<glyph glyph-name="Ygrave" horiz-adv-x="1127" unicode="Ỳ" d="M1105 1302q0 -37 -123 -216q-174 -253 -227 -344q-123 -209 -123 -318q0 -206 14 -424h-192q13 207 13 426q0 120 -115 333q-65 119 -215 344q-115 174 -115 199h205q0 -26 172.5 -318.5t172.5 -386.5h10q0 95 164.5 380t164.5 325h194zM645 1416h-120q-10 16 -143 139 t-133 135h216q0 -11 90 -134.5t90 -139.5z"/>
<glyph glyph-name="ygrave" horiz-adv-x="952" unicode="ỳ" d="M908 950q0 -64 -151 -408q-173 -393 -215 -554q-69 -261 -128 -332q-80 -98 -285 -98l-8 140q125 0 208 85t83 213q0 111 -184 528t-184 426h207q0 -27 126 -364t126 -415h10q0 65 106.5 377t106.5 402h182zM597 1086h-120q0 16 -138 164t-138 160h216q0 -11 90 -159.5 t90 -164.5z"/>
<glyph glyph-name="endash" horiz-adv-x="1024" unicode="–" d="M971 440h-919v128h919v-128z"/>
<glyph glyph-name="emdash" horiz-adv-x="2048" unicode="—" d="M2048 440h-2048v128h2048v-128z"/>
<glyph glyph-name="quoteleft" horiz-adv-x="516" unicode="‘" d="M432 1380q-152 -170 -152 -314q86 -34 86 -126q0 -58 -36 -101.5t-107 -43.5q-58 0 -94.5 47t-36.5 114q0 133 69 249.5t211 240.5z"/>
<glyph glyph-name="quoteright" horiz-adv-x="516" unicode="’" d="M437 1275q0 -133 -69 -249.5t-211 -240.5l-60 66q152 170 152 314q-86 34 -86 126q0 58 36 101.5t107 43.5q58 0 94.5 -47t36.5 -114z"/>
<glyph glyph-name="quotesinglbase" horiz-adv-x="516" unicode="‚" d="M390 114q0 -133 -69 -249.5t-211 -240.5l-60 66q152 170 152 314q-86 34 -86 126q0 58 36 101.5t107 43.5q58 0 94.5 -47t36.5 -114z"/>
<glyph glyph-name="quotedblleft" horiz-adv-x="1033" unicode="“" d="M932 1380q-152 -170 -152 -314q86 -34 86 -126q0 -58 -36 -101.5t-107 -43.5q-58 0 -94.5 47t-36.5 114q0 133 69 249.5t211 240.5zM432 1380q-152 -170 -152 -314q86 -34 86 -126q0 -58 -36 -101.5t-107 -43.5q-58 0 -94.5 47t-36.5 114q0 133 69 249.5t211 240.5z"/>
<glyph glyph-name="quotedblright" horiz-adv-x="1033" unicode="”" d="M937 1275q0 -133 -69 -249.5t-211 -240.5l-60 66q152 170 152 314q-86 34 -86 126q0 58 36 101.5t107 43.5q58 0 94.5 -47t36.5 -114zM437 1275q0 -133 -69 -249.5t-211 -240.5l-60 66q152 170 152 314q-86 34 -86 126q0 58 36 101.5t107 43.5q58 0 94.5 -47t36.5 -114z "/>
<glyph glyph-name="quotedblbase" horiz-adv-x="1033" unicode="„" d="M906 114q0 -133 -69 -249.5t-211 -240.5l-60 66q152 170 152 314q-86 34 -86 126q0 58 36 101.5t107 43.5q58 0 94.5 -47t36.5 -114zM390 114q0 -133 -69 -249.5t-211 -240.5l-60 66q152 170 152 314q-86 34 -86 126q0 58 36 101.5t107 43.5q58 0 94.5 -47t36.5 -114z "/>
<glyph glyph-name="bullet" horiz-adv-x="1351" unicode="•" d="M979 640q0 -154 -89.5 -240t-213.5 -86q-123 0 -213.5 85.5t-90.5 238.5q0 155 90.5 242t213.5 87t213 -86.5t90 -240.5z"/>
<glyph glyph-name="guilsinglleft" horiz-adv-x="516" unicode="‹" d="M446 192l-82 -66l-294 300v124l294 297l82 -66l-227 -293z"/>
<glyph glyph-name="guilsinglright" horiz-adv-x="516" unicode="›" d="M446 426l-293 -300l-83 66l228 294l-228 295l83 66l293 -297v-124z"/>
<glyph glyph-name="fraction" horiz-adv-x="300" unicode="⁄" d="M730 1315q0 -66 -507.5 -666t-507.5 -691l-145 20q0 71 507 665.5t507 691.5z"/>
<glyph glyph-name="fraction" horiz-adv-x="300" unicode="∕" d="M730 1315q0 -66 -507.5 -666t-507.5 -691l-145 20q0 71 507 665.5t507 691.5z"/>
<glyph glyph-name="uni2070" d="M384 935q0 122 -28.5 202.5t-83.5 80.5q-110 0 -110 -237q0 -130 28.5 -202.5t81.5 -72.5q112 0 112 229zM515 970q0 -154 -60.5 -253t-187.5 -99q-236 0 -236 328q0 181 71 269.5t177 88.5q116 0 176 -88.5t60 -245.5z" unicode="⁰"/>
<glyph glyph-name="uni2074" d="M300 915q2 66 3 121.5t2 142.5h-5q-23 -53 -39 -74.5t-138 -180.5v-11h74q39 0 103 2zM518 923l-13 -103h-85q0 -47 2 -109.5t5 -131.5h-132q3 65 4 125t1 116h-280l-12 85q0 15 139 197q131 174 131 190h150q-3 -54 -5.5 -145t-2.5 -231q21 1 43.5 2.5t54.5 4.5z" unicode="⁴"/>
<glyph glyph-name="uni2075" d="M486 842q0 -133 -117.5 -208.5t-291.5 -83.5l-18 81q165 21 229 66.5t64 121.5q0 78 -74.5 104t-214.5 26q14 125 21.5 210t7.5 133h350l-4 -116q-59 8 -119.5 12t-123.5 5q-5 -36 -7.5 -72.5t-3.5 -72.5q145 -2 223.5 -49t78.5 -157z" unicode="⁵"/>
<glyph glyph-name="uni2076" d="M377 839q0 67 -38 105t-98 38q-53 0 -88 -31q1 -137 30.5 -190.5t81.5 -53.5t82 38.5t30 93.5zM508 853q0 -93 -65 -163.5t-180 -70.5q-107 0 -174 73.5t-67 212.5q0 406 391 429l9 -80q-136 -14 -191 -68t-70 -151h8q44 33 127 33q101 0 156.5 -63.5t55.5 -151.5z" unicode="⁶"/>
<glyph glyph-name="uni2077" d="M497 1292q0 -50 -19 -118.5t-54 -149.5q-14 -33 -102 -204t-100 -243l-134 15q0 49 62.5 161t80.5 142q17 30 74.5 141t60.5 158q-55 0 -135 -3.5t-181 -10.5l4 112h443z" unicode="⁷"/>
<glyph glyph-name="uni2078" d="M344 1166q0 47 -26.5 68.5t-59.5 21.5q-32 0 -57 -18t-25 -56q0 -73 99 -124q69 34 69 108zM376 812q0 50 -32.5 86t-103.5 71q-102 -53 -102 -138q0 -62 34.5 -93t86.5 -31q44 0 80.5 28.5t36.5 76.5zM500 830q0 -93 -69.5 -151.5t-175.5 -58.5q-103 0 -171.5 51 t-68.5 147q0 59 37 108q36 49 102 75v9q-99 64 -99 156q0 78 61 123t145 45q83 0 143.5 -43t60.5 -113q0 -52 -29 -93q-27 -38 -76 -57v-10q140 -77 140 -188z" unicode="⁸"/>
<glyph glyph-name="uni2079" d="M359 976q0 126 -32 181.5t-87 55.5q-44 0 -73.5 -33t-29.5 -96q0 -65 36 -105.5t92 -40.5q58 0 94 38zM491 1007q0 -446 -403 -470l-19 81q247 17 285 271h-8q-45 -37 -126 -37q-110 0 -161.5 64.5t-51.5 152.5q0 98 62 166t179 68q104 0 173.5 -76t69.5 -220z" unicode="⁹"/>
<glyph glyph-name="uni207A" d="M494 941h-180v-193h-108v193h-180v106h180v191h108v-191h180v-106z" unicode="⁺"/>
<glyph glyph-name="uni207B" d="M494 940h-468v105h468v-105z" unicode="⁻"/>
<glyph glyph-name="uni207C" d="M494 832h-468v106h468v-106zM494 1049h-468v107h468v-107z" unicode="⁼"/>
<glyph glyph-name="uni207D" d="M403 358q-76 36 -130.5 88.5t-89.5 119t-51.5 147t-16.5 171.5q0 99 16.5 185.5t51.5 159t91.5 131t135.5 102.5l45 -76q-114 -92 -164.5 -218.5t-50.5 -283.5q0 -145 56 -257.5t168 -197.5z" unicode="⁽"/>
<glyph glyph-name="uni207E" d="M455 936q0 -100 -15.5 -186.5t-50.5 -159t-91.5 -130.5t-138.5 -101l-44 75q113 92 164 218t51 284q0 143 -56 257.5t-168 197.5l62 71q78 -36 132.5 -88.5t89 -119t50 -146.5t15.5 -172z" unicode="⁾"/>
<glyph glyph-name="uni207F" horiz-adv-x="598" unicode="ⁿ" d="M542 620h-129q12 150 12 319q0 77 -29 102t-80 25q-66 0 -129 -46q3 -143 3 -246t2 -154h-132q5 91 7.5 163t2.5 113q0 123 -27 252l129 18l7 -60h6q65 64 167 64q89 0 139.5 -43t50.5 -146q0 -60 -1 -77t-1 -61q0 -94 2 -223z"/>
<glyph glyph-name="uni2080" d="M384 -4q0 122 -28.5 202.5t-83.5 80.5q-110 0 -110 -237q0 -130 28.5 -202.5t81.5 -72.5q112 0 112 229zM515 31q0 -154 -60.5 -253t-187.5 -99q-236 0 -236 328q0 181 71 269.5t177 88.5q116 0 176 -88.5t60 -245.5z" unicode="₀"/>
<glyph glyph-name="uni2081" d="M411 -319h-136q6 166 6 318q0 104 -4 201l-201 -103l-28 69l282 187h81q-5 -141 -5 -354q0 -149 5 -318z" unicode="₁"/>
<glyph glyph-name="uni2082" d="M479 -217l-13 -102h-404l11 90q52 36 95 77t76 84q38 50 58 102t20 103q0 128 -151 128q-36 0 -101 -13l11 97q26 8 59 11.5t73 3.5q114 0 177 -58q61 -58 61 -145q0 -109 -69.5 -206t-173.5 -170v-9q66 0 137.5 2t133.5 5z" unicode="₂"/>
<glyph glyph-name="uni2083" d="M479 -104q0 -109 -108 -191.5t-326 -93.5l-18 80q165 16 241.5 63t76.5 124q0 128 -247 128l14 83q104 0 158.5 25.5t54.5 70.5q0 47 -33 63.5t-100 16.5q-56 0 -128 -16l7 97q65 18 175 18q103 0 152 -39.5t49 -103.5q0 -91 -116 -143v-8q148 -32 148 -174z" unicode="₃"/>
<glyph glyph-name="uni2084" d="M300 -24q2 66 3 121.5t2 142.5h-5q-23 -53 -39 -74.5t-138 -180.5v-11h74q39 0 103 2zM518 -16l-13 -103h-85q0 -47 2 -109.5t5 -131.5h-132q3 65 4 125t1 116h-280l-12 85q0 15 139 197q131 174 131 190h150q-3 -54 -5.5 -145t-2.5 -231q21 1 43.5 2.5t54.5 4.5z" unicode="₄"/>
<glyph glyph-name="uni2085" d="M486 -97q0 -133 -117.5 -208.5t-291.5 -83.5l-18 81q165 21 229 66.5t64 121.5q0 78 -74.5 104t-214.5 26q14 125 21.5 210t7.5 133h350l-4 -116q-59 8 -119.5 12t-123.5 5q-5 -36 -7.5 -72.5t-3.5 -72.5q145 -2 223.5 -49t78.5 -157z" unicode="₅"/>
<glyph glyph-name="uni2086" d="M377 -100q0 67 -38 105t-98 38q-53 0 -88 -31q1 -137 30.5 -190.5t81.5 -53.5t82 38.5t30 93.5zM508 -86q0 -93 -65 -163.5t-180 -70.5q-107 0 -174 73.5t-67 212.5q0 406 391 429l9 -80q-136 -14 -191 -68t-70 -151h8q44 33 127 33q101 0 156.5 -63.5t55.5 -151.5z" unicode="₆"/>
<glyph glyph-name="uni2087" d="M497 353q0 -50 -19 -118.5t-54 -149.5q-14 -33 -102 -204t-100 -243l-134 15q0 49 62.5 161t80.5 142q17 30 74.5 141t60.5 158q-55 0 -135 -3.5t-181 -10.5l4 112h443z" unicode="₇"/>
<glyph glyph-name="uni2088" d="M344 227q0 47 -26.5 68.5t-59.5 21.5q-32 0 -57 -18t-25 -56q0 -73 99 -124q69 34 69 108zM376 -127q0 50 -32.5 86t-103.5 71q-102 -53 -102 -138q0 -62 34.5 -93t86.5 -31q44 0 80.5 28.5t36.5 76.5zM500 -109q0 -93 -69.5 -151.5t-175.5 -58.5q-103 0 -171.5 51 t-68.5 147q0 59 37 108q36 49 102 75v9q-99 64 -99 156q0 78 61 123t145 45q83 0 143.5 -43t60.5 -113q0 -52 -29 -93q-27 -38 -76 -57v-10q140 -77 140 -188z" unicode="₈"/>
<glyph glyph-name="uni2089" d="M359 37q0 126 -32 181.5t-87 55.5q-44 0 -73.5 -33t-29.5 -96q0 -65 36 -105.5t92 -40.5q58 0 94 38zM491 68q0 -446 -403 -470l-19 81q247 17 285 271h-8q-45 -37 -126 -37q-110 0 -161.5 64.5t-51.5 152.5q0 98 62 166t179 68q104 0 173.5 -76t69.5 -220z" unicode="₉"/>
<glyph glyph-name="uni208A" d="M494 2h-180v-193h-108v193h-180v106h180v191h108v-191h180v-106z" unicode="₊"/>
<glyph glyph-name="uni208B" d="M494 1h-468v105h468v-105z" unicode="₋"/>
<glyph glyph-name="uni208C" d="M494 -107h-468v106h468v-106zM494 110h-468v107h468v-107z" unicode="₌"/>
<glyph glyph-name="uni208D" d="M403 -581q-76 36 -130.5 88.5t-89.5 119t-51.5 147t-16.5 171.5q0 99 16.5 185.5t51.5 159t91.5 131t135.5 102.5l45 -76q-114 -92 -164.5 -218.5t-50.5 -283.5q0 -145 56 -257.5t168 -197.5z" unicode="₍"/>
<glyph glyph-name="uni208E" d="M455 -3q0 -100 -15.5 -186.5t-50.5 -159t-91.5 -130.5t-138.5 -101l-44 75q113 92 164 218t51 284q0 143 -56 257.5t-168 197.5l62 71q78 -36 132.5 -88.5t89 -119t50 -146.5t15.5 -172z" unicode="₎"/>
<glyph glyph-name="Euro" horiz-adv-x="909" unicode="€" d="M812 145l-10 -129q-108 -38 -231 -38q-184 0 -298.5 121t-132.5 334h-111l19 80h89q0 49 7 96h-115l19 79h109q38 187 158.5 292.5t301.5 105.5q122 0 188 -20l-25 -139q-91 28 -198 28q-216 0 -262 -267q216 0 430 6l-15 -85h-423q-1 -21 -1 -42q0 -28 2 -54h405 l-17 -86q-187 6 -378 6q11 -143 90 -233.5t182 -90.5q108 0 217 36z"/>
<glyph glyph-name="a.superior" d="M361 743q-2 38 -2 66v58q-71 -1 -127 -14q-76 -22 -76 -87q0 -58 84 -58q75 0 121 35zM493 621l-118 -5q-2 10 -7 47h-9q-67 -55 -158 -55q-84 0 -125 40t-41 106q0 87 48.5 127.5t100.5 52.5t177 16v6q0 67 -27 88.5t-102 21.5q-74 0 -178 -27l13 104q93 27 194 27 t160.5 -41t59.5 -145q0 -13 -0.5 -36t-1.5 -86q-1 -34 -1 -62q0 -56 3 -86q4 -46 12 -93z" horiz-adv-x="544"/>
<glyph glyph-name="o.superior" d="M450 883q0 83 -40 140t-102 57q-61 0 -100.5 -56t-39.5 -131q0 -81 39.5 -139t102.5 -58t101.5 57t38.5 130zM576 901q0 -136 -79 -218.5t-199 -82.5q-108 0 -182.5 72t-74.5 199q0 144 81 224t198 80q108 0 182 -72t74 -202z" horiz-adv-x="617"/>
<glyph glyph-name="glyph431" d="M476 1416h-120q-10 16 -143 139t-133 135h216q0 -11 90 -134.5t90 -139.5z" horiz-adv-x="562"/>
<glyph glyph-name="glyph435" d="M470 1690q0 -12 -133 -135t-143 -139h-120q0 16 90 139.5t90 134.5h216z" horiz-adv-x="562"/>
<glyph glyph-name="glyph439" d="M682 1416h-114q-10 13 -177 158q-167 -145 -177 -158h-114q0 13 94.5 135.5t99.5 138.5h194q5 -16 99.5 -138.5t94.5 -135.5z" horiz-adv-x="782"/>
<glyph glyph-name="glyph443" d="M682 1690q0 -13 -94.5 -135.5t-99.5 -138.5h-194q-5 16 -99.5 138.5t-94.5 135.5h114q10 -13 177 -158q167 145 177 158h114z" horiz-adv-x="782"/>
<glyph glyph-name="glyph448" d="M810 1640q-110 -185 -250 -185q-51 0 -128.5 24t-125.5 24q-88 0 -172 -84l-62 50q110 185 250 185q51 0 128.5 -24t125.5 -24q88 0 172 84z" horiz-adv-x="884"/>
<glyph glyph-name="glyph452" d="M713 1559q0 -46 -30.5 -80.5t-84.5 -34.5q-45 0 -70 30t-25 72q0 44 30.5 77.5t85.5 33.5q45 0 69.5 -28.5t24.5 -69.5zM335 1559q0 -46 -30.5 -80.5t-84.5 -34.5q-45 0 -70 30t-25 72q0 44 30.5 77.5t85.5 33.5q45 0 69.5 -28.5t24.5 -69.5z" horiz-adv-x="836"/>
<glyph glyph-name="glyph456" d="M494 1600l-12 -124h-474l12 124h474z" horiz-adv-x="500"/>
<glyph glyph-name="glyph460" d="M698 1640q-95 -218 -306 -218q-221 0 -308 218l100 50q72 -144 206 -144q124 0 208 144z" horiz-adv-x="782"/>
<glyph glyph-name="glyph464" d="M423 1576q0 57 -32 87.5t-78 30.5q-50 0 -88 -35.5t-38 -96.5q0 -57 32 -87.5t78 -30.5q50 0 88 35.5t38 96.5zM517 1584q0 -104 -69 -165t-159 -61q-82 0 -139 51.5t-57 147.5q0 103 69 163t159 60q82 0 139 -51t57 -145z" horiz-adv-x="610"/>
<glyph glyph-name="glyph468" d="M750 1690q0 -22 -83.5 -140t-90.5 -134h-94q7 16 38.5 134.5t31.5 139.5h198zM390 1690q0 -22 -83.5 -140t-90.5 -134h-94q0 16 35 134.5t35 139.5h198z" horiz-adv-x="882"/>
<glyph glyph-name="glyph472" d="M394 1565q0 -51 -33 -88.5t-93 -37.5q-51 0 -79.5 32.5t-28.5 78.5q0 50 34 87t94 37q49 0 77.5 -32.5t28.5 -76.5z" horiz-adv-x="526"/>
</font>
</defs>
</svg>
