<?xml version="1.0" encoding="UTF-8" standalone="no"?>
<!DOCTYPE svg  PUBLIC '-//W3C//DTD SVG 1.1//EN'  'http://www.w3.org/Graphics/SVG/1.1/DTD/svg11.dtd'>
<svg xmlns="http://www.w3.org/2000/svg">
<defs>
<font id="Candara-Bold" horiz-adv-x="547">
<font-face underline-position="-123" font-weight="700" descent="-410" panose-1="2 14 7 2 3 3 3 2 2 4" units-per-em="2048" unicode-range="U+000D-20AC" bbox="-885 -569 2048 1900" x-height="950" underline-thickness="20" font-family="Candara" ascent="1638" cap-height="1302"/>
<missing-glyph horiz-adv-x="2048"/>
<glyph glyph-name=".notdef" horiz-adv-x="2048"/>
<glyph glyph-name="glyph1" horiz-adv-x="2048"/>
<glyph glyph-name="glyph1" horiz-adv-x="2048"/>
<glyph glyph-name="uni000D" horiz-adv-x="2048" unicode=""/>
<glyph glyph-name="space" horiz-adv-x="444" unicode=" "/>
<glyph glyph-name="space" horiz-adv-x="444" unicode=" "/>
<glyph glyph-name="exclam" horiz-adv-x="516" unicode="!" d="M430 174q0 -73 -50.5 -128.5t-139.5 -55.5q-75 0 -117 48t-42 115q0 73 50.5 126.5t140.5 53.5q76 0 117 -46.5t41 -112.5zM427 1154q0 -195 -117 -617h-102q-86 435 -86 611q0 190 160 190q145 0 145 -184z"/>
<glyph glyph-name="quotedbl" horiz-adv-x="936" unicode='&quot;' d="M410 1262q0 -215 -146 -560h-84q-71 372 -71 560q0 67 43 113t116 46q142 0 142 -159zM821 1262q0 -215 -146 -560h-84q-71 372 -71 560q0 67 43 113t116 46q142 0 142 -159z"/>
<glyph glyph-name="numbersign" horiz-adv-x="1033" unicode="#" d="M654 736h-199q-12 -32 -25 -68q-26 -67 -48 -126h197q16 41 33 86q22 57 42 108zM998 916v-180h-212q-12 -32 -25 -66q-25 -68 -48 -128h285v-180h-353q-113 -305 -127 -362h-150q15 37 141 362h-195q-113 -305 -127 -362h-150q15 37 141 362h-144v180h214q15 39 33 84 q22 58 42 110h-289v180h357q117 317 124 392h148q-8 -41 -140 -392h199q117 319 124 392h148q-8 -39 -140 -392h144z"/>
<glyph glyph-name="dollar" horiz-adv-x="909" unicode="$" d="M816 319q0 -247 -293 -289q0 -175 8 -293h-143q6 118 6 283q-151 0 -306 33l33 193q125 -43 249 -43q112 0 158 20.5t46 71.5q0 69 -158 135q-147 62 -209 113q-97 80 -97 194q0 111 72.5 189.5t213.5 98.5q0 205 -8 303h143q-8 -97 -8 -296q166 -2 252 -31l-34 -194 q-114 45 -245 45q-146 0 -146 -86q0 -41 38 -69q31 -24 122 -59q146 -57 211 -112q95 -82 95 -207z"/>
<glyph glyph-name="percent" horiz-adv-x="1033" unicode="%" d="M844 227q0 55 -28 94q-30 43 -82 43q-51 0 -82 -43q-28 -39 -28 -94q0 -54 27 -91q31 -41 83 -41q53 0 83 41q27 37 27 91zM420 1064q0 55 -28 94q-30 43 -82 43q-51 0 -82 -43q-28 -39 -28 -94q0 -54 27 -91q31 -41 83 -41q53 0 83 41q27 37 27 91zM960 1292 q0 -89 -375 -633t-375 -659l-148 10q0 97 375 643t375 649zM987 231q0 -98 -64 -166q-71 -75 -192 -75t-193 74q-64 68 -64 165q0 98 65 166q71 76 192 76t192 -75q64 -67 64 -165zM563 1068q0 -98 -64 -166q-71 -76 -192 -76t-192 75q-64 67 -64 165t64 166q71 76 192 76 t192 -75q64 -67 64 -165z"/>
<glyph glyph-name="ampersand" horiz-adv-x="1396" unicode="&amp;" d="M698 1008q0 72 -41 113t-106 41q-63 0 -106.5 -36.5t-43.5 -93.5q0 -119 175 -198q122 57 122 174zM857 338v15q-60 68 -159.5 163.5t-212.5 148.5q-169 -77 -169 -277q0 -103 61 -166q63 -66 172 -66q156 0 308 182zM1373 0h-296q0 29 -46 108.5t-81 116.5h-15 q-190 -254 -470 -254q-186 0 -294.5 94t-108.5 255q0 129 73 239.5t212 169.5v14q-177 135 -177 282q0 142 114.5 220.5t265.5 78.5q144 0 249 -72.5t105 -204.5q0 -183 -196 -272v-15q91 -49 254 -211h15q41 67 41 213h251q0 -41 -63 -155t-116 -167v-14q80 -74 181.5 -227 t101.5 -199z"/>
<glyph glyph-name="quotesingle" horiz-adv-x="516" unicode="&apos;" d="M410 1262q0 -215 -146 -560h-84q-71 372 -71 560q0 67 43 113t116 46q142 0 142 -159z"/>
<glyph glyph-name="parenleft" horiz-adv-x="723" unicode="(" d="M651 -349l-73 -137q-146 67 -249 185q-250 283 -250 772q0 526 255 841q106 131 255 209l51 -136q-100 -75 -172 -191q-172 -280 -172 -723q0 -381 178 -638q73 -108 177 -182z"/>
<glyph glyph-name="parenright" horiz-adv-x="723" unicode=")" d="M651 564q0 -526 -255 -841q-107 -131 -256 -209l-51 137q101 74 173 191q172 279 172 722q0 381 -177 639q-74 108 -178 182l72 136q146 -67 250 -185q250 -283 250 -772z"/>
<glyph glyph-name="asterisk" horiz-adv-x="1033" unicode="*" d="M940 1058q0 -63 -82 -80q-32 -7 -135 -7q-43 0 -112 2l-8 -26q197 -169 197 -226q0 -41 -44 -81.5t-87 -40.5q-82 0 -151 292h-29q-105 -263 -177 -263q-42 0 -88 35.5t-46 76.5q0 72 232 214l-7 29q-100 12 -269 46q-39 13 -39 74q0 48 23 89t64 41q58 0 262 -156l23 16 q-43 203 -43 271q0 31 34.5 50.5t78.5 19.5q99 0 99 -70q0 -79 -71 -277l22 -20q200 125 260 125q38 0 65.5 -46t27.5 -88z"/>
<glyph glyph-name="plus" horiz-adv-x="1033" unicode="+" d="M926 409h-319v-340h-180v340h-320v180h320v340h180v-340h319v-180z"/>
<glyph glyph-name="comma" horiz-adv-x="516" unicode="," d="M428 156q0 -261 -320 -555l-89 76q136 151 136 327q-76 46 -76 149q0 72 51 126t141 54q74 0 115.5 -54t41.5 -123z"/>
<glyph glyph-name="period" horiz-adv-x="516" unicode="." d="M430 174q0 -73 -50.5 -128.5t-139.5 -55.5q-75 0 -117 48t-42 115q0 73 50.5 126.5t140.5 53.5q76 0 117 -46.5t41 -112.5z"/>
<glyph glyph-name="slash" d="M542 1455q0 -69 -178 -828.5t-178 -928.5h-181q0 65 179 816.5t179 940.5h179z" unicode="/"/>
<glyph glyph-name="zero" horiz-adv-x="1094" unicode="0" d="M757 466q0 183 -51 301t-168 118q-198 0 -198 -338q0 -201 51.5 -297.5t166.5 -96.5q199 0 199 313zM1004 529q0 -286 -120 -427.5t-348 -141.5q-221 0 -333.5 124.5t-112.5 395.5q0 279 121.5 438t349.5 159q219 0 331 -141.5t112 -406.5z"/>
<glyph glyph-name="one" horiz-adv-x="685" unicode="1" d="M525 0h-267q11 258 11 416q0 161 -7 344l-160 -70l-52 96l351 270h124q-11 -412 -11 -640q0 -153 11 -416z"/>
<glyph glyph-name="two" horiz-adv-x="982" unicode="2" d="M882 214l-21 -214h-761l21 201q422 235 422 472q0 197 -273 197q-73 0 -155 -14l19 186q87 22 247 22q204 0 311 -87t107 -237q0 -188 -139.5 -323t-295.5 -205v-13q221 0 518 15z"/>
<glyph glyph-name="three" horiz-adv-x="964" unicode="3" d="M874 147q0 -203 -193 -352q-221 -171 -614 -194l-27 167q263 17 416 107q159 92 159 237q0 238 -446 238l21 161q165 0 269.5 56.5t104.5 144.5q0 160 -250 160q-112 0 -199 -18l18 185q70 25 286 25q189 0 291 -77q94 -73 94 -197q0 -98 -71 -180q-65 -75 -159 -105v-15 q133 -22 216.5 -115t83.5 -228z"/>
<glyph glyph-name="four" horiz-adv-x="1099" unicode="4" d="M610 838h-14q0 -21 -171.5 -253t-171.5 -246v-13q127 0 340 5q7 280 17 507zM1009 346l-21 -217h-159q0 -187 12 -459h-264q9 253 9 459h-515l-21 189q0 18 257.5 365t259.5 372h274q-13 -336 -13 -718q89 0 181 9z"/>
<glyph glyph-name="five" horiz-adv-x="969" unicode="5" d="M879 174q0 -207 -192 -357q-211 -166 -566 -183l-28 164q244 19 380.5 107t136.5 224q0 145 -120.5 209t-399.5 64q59 467 59 653h650l-9 -218q-191 21 -472 21q-22 -144 -22 -277q583 0 583 -407z"/>
<glyph glyph-name="six" horiz-adv-x="1083" unicode="6" d="M755 384q0 109 -57 183q-65 84 -181 84q-112 0 -185 -83q0 -431 218 -431q95 0 153 77q52 70 52 170zM993 419q0 -183 -114 -313q-127 -146 -337 -146q-188 0 -310 122q-142 143 -142 416q0 811 733 846l19 -163q-455 -49 -504 -468h16q83 102 257 102q182 0 287 -122 q95 -110 95 -274z"/>
<glyph glyph-name="seven" horiz-adv-x="952" unicode="7" d="M882 1055q0 -191 -131 -489q-121 -249 -243 -498q-131 -272 -131 -398l-266 21q0 120 271 585.5t271 577.5q-206 0 -603 -20l9 221h823z"/>
<glyph glyph-name="eight" horiz-adv-x="1098" unicode="8" d="M727 1041q0 79 -48.5 125.5t-125.5 46.5q-75 0 -122.5 -39.5t-47.5 -104.5q0 -149 208 -248q136 69 136 220zM758 354q0 194 -251 306q-79 -29 -129 -107.5t-50 -168.5q0 -105 62 -167.5t159 -62.5q91 0 150 55.5t59 144.5zM1008 373q0 -174 -131 -285.5t-335 -111.5 q-201 0 -326.5 104.5t-125.5 270.5q0 120 67 217q72 105 206 159v16q-198 115 -198 307q0 140 114 230q113 87 284 87q167 0 272 -81.5t105 -209.5q0 -94 -51 -173q-56 -88 -156 -129v-16q275 -141 275 -385z"/>
<glyph glyph-name="nine" horiz-adv-x="1081" unicode="9" d="M745 465q0 215 -71 326q-59 93 -154 93q-91 0 -145 -75q-50 -69 -50 -168q0 -108 58 -184q66 -85 177 -85q117 0 185 93zM991 496q0 -417 -190 -650q-194 -236 -559 -252l-28 165q254 15 390 185q115 144 133 374h-10q-91 -106 -257 -106q-180 0 -285 124 q-95 113 -95 278q0 181 111 308q125 142 336 142q186 0 311 -134q143 -153 143 -434z"/>
<glyph glyph-name="colon" horiz-adv-x="516" unicode=":" d="M430 174q0 -73 -50.5 -128.5t-139.5 -55.5q-75 0 -117 48t-42 115q0 73 50.5 126.5t140.5 53.5q76 0 117 -46.5t41 -112.5zM430 798q0 -73 -50.5 -128.5t-139.5 -55.5q-75 0 -117 48t-42 115q0 73 50.5 126.5t140.5 53.5q76 0 117 -46.5t41 -112.5z"/>
<glyph glyph-name="semicolon" horiz-adv-x="516" unicode=";" d="M428 156q0 -261 -320 -555l-89 76q136 151 136 327q-76 46 -76 149q0 72 51 126t141 54q74 0 115.5 -54t41.5 -123zM430 798q0 -73 -50.5 -128.5t-139.5 -55.5q-75 0 -117 48t-42 115q0 73 50.5 126.5t140.5 53.5q76 0 117 -46.5t41 -112.5z"/>
<glyph glyph-name="less" horiz-adv-x="1033" unicode="&lt;" d="M926 203l-83 -188l-736 418v139l736 418l83 -187l-585 -290v-23z"/>
<glyph glyph-name="equal" horiz-adv-x="1033" unicode="=" d="M926 200h-819v180h819v-180zM926 619h-819v180h819v-180z"/>
<glyph glyph-name="greater" horiz-adv-x="1033" unicode="&gt;" d="M926 433l-736 -418l-83 188l584 288v23l-584 289l83 187l736 -418v-139z"/>
<glyph glyph-name="question" horiz-adv-x="723" unicode="?" d="M472 174q0 -73 -50.5 -128.5t-139.5 -55.5q-75 0 -117 48t-42 115q0 73 50.5 126.5t140.5 53.5q76 0 117 -46.5t41 -112.5zM681 1033q0 -216 -279 -345l-21 -151h-133l-38 213q215 63 215 208q0 177 -371 188l23 189q311 0 457.5 -65.5t146.5 -236.5z"/>
<glyph glyph-name="at" horiz-adv-x="2066" unicode="@" d="M1222 727q-57 50 -138 50q-125 0 -197.5 -119.5t-72.5 -269.5q0 -101 36 -168.5t103 -67.5q112 0 190.5 167.5t78.5 407.5zM1938 607q0 -262 -130 -449t-346 -187q-131 0 -201 60.5t-70 152.5h-12q-109 -213 -300 -213q-135 0 -208 113t-73 280q0 231 125 407t344 176 q122 0 179 -74h13l17 46l196 21q-74 -455 -74 -575q0 -112 30 -164.5t106 -52.5q78 0 132.5 123.5t54.5 294.5q0 307 -174 513t-510 206q-309 0 -492.5 -238.5t-183.5 -570.5q0 -316 176 -542.5t500 -226.5q168 0 310 52l24 -195q-143 -39 -338 -39q-430 0 -666 283.5 t-236 676.5q0 409 244 699.5t658 290.5q428 0 666.5 -252t238.5 -616z"/>
<glyph glyph-name="A" horiz-adv-x="1290" unicode="A" d="M817 565q-171 516 -171 558h-16q0 -39 -177 -558h364zM1279 0h-320q0 66 -91 374h-462q-94 -303 -94 -374h-301q0 39 233.5 640t233.5 662h378q0 -57 211.5 -652.5t211.5 -649.5z"/>
<glyph glyph-name="B" horiz-adv-x="1224" unicode="B" d="M804 941q0 179 -224 179q-103 0 -183 -15q11 -101 11 -347q38 -2 80 -2q316 0 316 185zM877 381q0 199 -349 199q-69 0 -119 -5q0 -209 9 -385q34 -8 102 -8q185 0 271 44.5t86 154.5zM1147 392q0 -398 -651 -398q-113 0 -352 6q13 302 13 681q0 364 -13 621h162 q46 0 154.5 3t169.5 3q443 0 443 -288q0 -222 -227 -294v-15q121 -19 211 -94.5t90 -224.5z"/>
<glyph glyph-name="C" horiz-adv-x="1131" unicode="C" d="M1076 237l-17 -230q-142 -34 -280 -34q-343 0 -522.5 189.5t-179.5 460.5q0 281 190.5 489t522.5 208q122 0 231 -28l-35 -231q-118 38 -226 38q-203 0 -302 -128.5t-99 -312.5q0 -188 117.5 -326t329.5 -138q124 0 270 43z"/>
<glyph glyph-name="D" horiz-adv-x="1321" unicode="D" d="M971 653q0 192 -112 323.5t-342 131.5q-43 0 -118 -9q10 -200 10 -418q0 -239 10 -474q65 -13 130 -13q215 0 318.5 133.5t103.5 325.5zM1244 696q0 -284 -182 -496t-510 -212q-148 0 -408 12q13 302 13 681q0 364 -13 621h175q43 0 128 3t111 3q361 0 523.5 -180 t162.5 -432z"/>
<glyph glyph-name="E" horiz-adv-x="1080" unicode="E" d="M1003 220l-8 -220h-851q13 302 13 681q0 364 -13 621h812l-11 -219q-300 16 -544 16q10 -139 10 -328q209 0 447 11v-209q-234 10 -447 10q0 -203 8 -380q274 0 584 17z"/>
<glyph glyph-name="F" horiz-adv-x="1005" unicode="F" d="M972 1302l-9 -219q-312 16 -565 16q13 -171 13 -379q193 0 438 10v-207q-248 9 -438 9q0 -283 9 -532h-276q13 302 13 681q0 364 -13 621h828z"/>
<glyph glyph-name="G" horiz-adv-x="1273" unicode="G" d="M1174 34q-238 -61 -398 -61q-344 0 -521.5 188.5t-177.5 457.5q0 283 193.5 492t536.5 209q161 0 284 -29l-33 -236q-157 41 -282 41q-211 0 -315 -129.5t-104 -316.5q0 -191 116.5 -333t321.5 -142q57 0 132 12q-15 111 -15 218q0 108 -21 243h283q-8 -154 -8 -310 q0 -113 8 -304z"/>
<glyph glyph-name="H" horiz-adv-x="1338" unicode="H" d="M1194 0h-283q10 331 10 574h-504q0 -218 10 -574h-283q13 330 13 681q0 355 -13 621h283q-12 -281 -12 -520h508q0 211 -12 520h283q-14 -254 -14 -621q0 -383 14 -681z"/>
<glyph glyph-name="I" horiz-adv-x="571" unicode="I" d="M427 0h-283q13 310 13 681q0 365 -13 621h283q-13 -252 -13 -621q0 -377 13 -681z"/>
<glyph glyph-name="J" horiz-adv-x="818" unicode="J" d="M696 1302q-12 -298 -12 -736q0 -333 -137 -473q-116 -120 -361 -120q-88 0 -175 21l18 215q67 -30 134 -30q131 0 190 57q85 82 85 310q0 457 -15 756h273z"/>
<glyph glyph-name="K" horiz-adv-x="1207" unicode="K" d="M1196 0h-327q0 46 -169 317q-180 289 -255 289h-30q0 -228 11 -606h-282q13 302 13 681q0 364 -13 621h282q-11 -277 -11 -520h22q44 0 222 246q173 239 173 274h298q0 -33 -183 -249q-189 -223 -276 -284v-15q102 -53 321 -395q204 -318 204 -359z"/>
<glyph glyph-name="L" horiz-adv-x="994" unicode="L" d="M983 218l-8 -218h-831q12 271 12 681q0 376 -12 621h281q-12 -227 -12 -621q0 -301 -13 -478q276 0 583 15z"/>
<glyph glyph-name="M" horiz-adv-x="1769" unicode="M" d="M1647 0h-291q0 170 -21 573.5t-22 503.5h-15q-10 -60 -53 -222t-161.5 -477.5t-118.5 -377.5h-221q0 64 -113.5 381t-148.5 444t-56 252h-15q-1 -125 -24.5 -536t-23.5 -541h-264q0 30 72.5 601t72.5 701h387q0 -112 122.5 -494t122.5 -489h15q0 108 139.5 490t139.5 493 h384q0 -207 46.5 -738.5t46.5 -563.5z"/>
<glyph glyph-name="N" horiz-adv-x="1361" unicode="N" d="M1217 0h-247q0 41 -275 433q-288 413 -328 565h-16q25 -219 25 -396q0 -247 14 -602h-246q15 310 15 681q0 365 -15 621h297q0 -53 247 -423q263 -393 302 -533h15q-24 223 -24 400q0 271 -14 556h250q-14 -248 -14 -621q0 -376 14 -681z"/>
<glyph glyph-name="O" horiz-adv-x="1427" unicode="O" d="M1074 646q0 209 -107 339t-264 130q-146 0 -248 -131t-102 -331q0 -208 107.5 -338.5t263.5 -130.5q146 0 248 131.5t102 330.5zM1350 675q0 -307 -188 -509t-465 -202q-264 0 -442 185.5t-178 471.5q0 307 188 509t465 202q264 0 442 -185t178 -472z"/>
<glyph glyph-name="P" horiz-adv-x="1138" unicode="P" d="M836 906q0 214 -284 214q-71 0 -150 -15q11 -189 11 -428q25 -2 58 -2q365 0 365 231zM1094 961q0 -239 -177.5 -353t-435.5 -114q-47 0 -67 2q0 -188 11 -496h-281q13 289 13 681q0 360 -13 621h174q37 0 142 3t182 3q190 0 321 -86t131 -261z"/>
<glyph glyph-name="Q" horiz-adv-x="1427" unicode="Q" d="M1074 646q0 209 -108 339t-263 130q-146 0 -248 -131t-102 -331q0 -208 108.5 -338.5t262.5 -130.5q146 0 248 131.5t102 330.5zM1389 -432l-293 -12q-56 257 -123.5 332.5t-275.5 75.5q-264 0 -442 185.5t-178 471.5q0 307 188 509t465 202q264 0 442 -185t178 -472 q0 -206 -90 -370.5t-244 -254.5v-16q163 -20 242 -114.5t131 -351.5z"/>
<glyph glyph-name="R" horiz-adv-x="1220" unicode="R" d="M823 920q0 199 -256 199q-94 0 -166 -14q11 -155 11 -404q55 -2 93 -2q318 0 318 221zM1198 0h-296q-116 354 -178 437t-200 83q-58 0 -111 -1q0 -257 9 -519h-278q13 302 13 681q0 364 -13 621h173q30 0 125.5 3t176.5 3q459 0 459 -314q0 -249 -262 -347v-15 q101 -28 177 -157.5t205 -474.5z"/>
<glyph glyph-name="S" horiz-adv-x="1071" unicode="S" d="M994 355q0 -391 -562 -391q-191 0 -355 46l49 223q162 -56 306 -56q160 0 230 31t70 104q0 76 -66 128q-57 46 -231 120q-158 68 -235 148q-97 101 -97 249q0 172 127.5 269t366.5 97q196 0 329 -33l-37 -222q-135 49 -292 49q-236 0 -236 -126q0 -67 55 -109 q48 -36 209 -101q171 -69 256 -152q113 -111 113 -274z"/>
<glyph glyph-name="T" horiz-adv-x="1077" unicode="T" d="M1055 1302l-7 -215q-200 15 -377 15q-2 -189 -2 -421q0 -360 11 -681h-280q13 318 13 681q0 228 -4 421q-141 0 -387 -16l8 216h1025z"/>
<glyph glyph-name="U" horiz-adv-x="1347" unicode="U" d="M1225 1302q-9 -336 -9 -672q0 -664 -544 -664q-269 0 -405 147t-136 528q0 336 -9 661h283q-13 -338 -13 -652q0 -275 70 -377t216 -102q153 0 221 101.5t68 379.5q0 305 -13 650h271z"/>
<glyph glyph-name="V" horiz-adv-x="1175" unicode="V" d="M1164 1302q0 -82 -228.5 -652t-228.5 -650h-275q0 77 -210.5 653t-210.5 649h317q0 -73 134 -518t134 -505h17q0 58 134.5 487t134.5 536h282z"/>
<glyph glyph-name="W" horiz-adv-x="1877" unicode="W" d="M1866 1302q0 -93 -200 -660t-200 -642h-264q0 79 -121 445q-129 392 -145 517h-17q-16 -126 -134 -521q-110 -369 -110 -441h-270q0 94 -197 669t-197 633h317q0 -63 114 -502t114 -521h16q0 82 122 511.5t122 511.5h285q0 -75 122 -520.5t122 -502.5h16q0 72 110.5 489 t110.5 534h284z"/>
<glyph glyph-name="X" horiz-adv-x="1203" unicode="X" d="M1192 0h-335q0 35 -114 257q-111 217 -159 283h-16q-43 -59 -144 -277q-104 -223 -104 -263h-309q0 30 194.5 337t249.5 361v15q-54 62 -213 304q-164 253 -164 285h322q0 -32 93 -215t131 -229h16q37 47 125.5 229t88.5 215h296q0 -28 -171.5 -277.5t-219.5 -296.5v-15 q66 -72 249.5 -374t183.5 -339z"/>
<glyph glyph-name="Y" horiz-adv-x="1130" unicode="Y" d="M1119 1302q0 -41 -114 -221q-175 -275 -213 -342q-114 -203 -114 -301q0 -220 12 -438h-284q11 219 11 441q0 102 -105 309q-49 96 -196 343q-105 177 -105 209h314q0 -36 125.5 -303.5t125.5 -345.5h16q0 72 122.5 328t122.5 321h282z"/>
<glyph glyph-name="Z" horiz-adv-x="1054" unicode="Z" d="M977 226l-7 -226h-893l15 205q109 144 323 478q232 362 232 407v16q-239 0 -553 -23l6 219h856l-14 -207q-110 -152 -308 -470q-224 -360 -224 -407v-15q210 0 567 23z"/>
<glyph glyph-name="bracketleft" horiz-adv-x="723" unicode="[" d="M599 -274l-10 -212l-471 11q12 501 12 946q0 467 -12 1037l481 13l-10 -211q-181 6 -261 6q-9 -475 -9 -845q0 -278 9 -763q74 2 271 18z"/>
<glyph glyph-name="backslash" d="M543 -302h-191q0 169 -173 928.5t-173 828.5h189q0 -189 174 -940.5t174 -816.5z" unicode="\"/>
<glyph glyph-name="bracketright" horiz-adv-x="723" unicode="]" d="M600 -472l-481 -13l10 211q181 -6 261 -6q9 475 9 845q0 278 -9 763q-74 -2 -271 -18l10 212l471 -11q-12 -501 -12 -946q0 -467 12 -1037z"/>
<glyph glyph-name="asciicircum" horiz-adv-x="1033" unicode="^" d="M1004 682l-179 -83l-298 593h-23l-295 -593l-180 83l418 735h139z"/>
<glyph glyph-name="underscore" horiz-adv-x="1033" unicode="_" d="M1033 -512h-1033v180h1033v-180z"/>
<glyph glyph-name="grave" horiz-adv-x="562" unicode="`" d="M512 1086h-175q0 16 -138 164t-138 160h271q0 -11 90 -159.5t90 -164.5z"/>
<glyph glyph-name="a" horiz-adv-x="1006" unicode="a" d="M658 209q-6 135 -6 233q-341 0 -341 -173q0 -119 150 -119q118 0 197 59zM925 1l-236 -8q-16 42 -16 76h-13q-110 -94 -297 -94q-125 0 -207.5 69.5t-82.5 184.5q0 152 128.5 249t450.5 103q2 18 2 34q0 108 -52 142.5t-191 34.5q-151 0 -295 -40l22 184q136 47 384 47 q181 0 279.5 -76t98.5 -266q0 -42 -3.5 -153t-3.5 -148q0 -207 32 -339z"/>
<glyph glyph-name="b" horiz-adv-x="1136" unicode="b" d="M801 490q0 125 -63.5 216.5t-174.5 91.5q-138 0 -202 -81q0 -342 15 -515q63 -49 163 -49q133 0 197.5 98.5t64.5 238.5zM1067 516q0 -217 -124 -381t-341 -164q-160 0 -226 68h-13l-20 -39h-235q13 351 13 743q0 369 -33 663l287 16q-10 -233 -10 -527h12q101 89 273 89 q192 0 304.5 -138.5t112.5 -329.5z"/>
<glyph glyph-name="c" horiz-adv-x="912" unicode="c" d="M868 210l-17 -191q-91 -48 -247 -48q-258 0 -396.5 144t-138.5 346q0 210 145 366.5t397 156.5q123 0 219 -28l-34 -204q-92 38 -206 38q-121 0 -191 -85.5t-70 -210.5q0 -136 83 -230t235 -94q89 0 221 40z"/>
<glyph glyph-name="d" horiz-adv-x="1127" unicode="d" d="M776 228q0 319 -15 528q-69 48 -165 48q-132 0 -196 -98t-64 -240q0 -126 62 -217.5t172 -91.5q147 0 206 71zM1027 1l-237 -8q-7 35 -7 73h-15q-110 -95 -281 -95q-192 0 -305 139t-113 330q0 219 123 381.5t342 162.5q142 0 213 -53h14q0 236 -23 475l283 8 q-16 -233 -16 -670q0 -443 22 -743z"/>
<glyph glyph-name="e" horiz-adv-x="1049" unicode="e" d="M746 586q0 230 -196 230q-187 0 -222 -238zM980 577q0 -51 -6 -133l-644 -11q14 -113 97 -188t218 -75q150 0 319 45l-20 -194q-138 -50 -342 -50q-258 0 -395.5 145t-137.5 349q0 213 130.5 369.5t362.5 156.5q212 0 315 -115t103 -299z"/>
<glyph glyph-name="f" horiz-adv-x="741" unicode="f" d="M737 1419l-36 -178q-57 14 -117 14q-72 0 -99 -66t-27 -256q89 0 245 8l-8 -199q-156 6 -237 6q0 -377 15 -748h-264q15 366 15 748q-59 0 -175 -6l8 198q106 -7 167 -7q0 503 338 503q101 0 175 -17z"/>
<glyph glyph-name="g" horiz-adv-x="1128" unicode="g" d="M706 650q0 90 -58 137t-133 47t-131.5 -45.5t-56.5 -133.5q0 -89 58 -135t135 -46q73 0 129.5 44.5t56.5 131.5zM824 -173q0 74 -56.5 107t-194.5 33q-112 0 -226 10q-88 -52 -88 -155q0 -192 256 -192q143 0 226 54t83 143zM1109 1088l-22 -186q-156 0 -195 -45v-13 q59 -75 59 -168q0 -143 -105.5 -244t-314.5 -101q-102 0 -167 16q-53 -24 -53 -63q0 -61 63.5 -85.5t295.5 -24.5q401 0 401 -273q0 -192 -167 -305t-406 -113q-468 0 -468 294q0 91 52.5 154.5t121.5 77.5v15q-84 53 -84 162q0 110 115 184v14q-162 81 -162 253 q0 147 111.5 246t344.5 99q159 0 258 -60h14q29 189 194 189q65 0 114 -23z"/>
<glyph glyph-name="h" horiz-adv-x="1126" unicode="h" d="M1015 0h-266q22 253 22 492q0 178 -45 233.5t-148 55.5q-109 0 -214 -73q0 -425 10 -708h-266q11 310 11 743q0 399 -31 663l283 16q-15 -322 -15 -560h13q132 121 302 121q161 0 252.5 -73t91.5 -257q0 -19 -2.5 -77.5t-2.5 -77.5q0 -167 5 -498z"/>
<glyph glyph-name="i" horiz-adv-x="510" unicode="i" d="M441 1252q0 -68 -46.5 -119t-129.5 -51q-70 0 -109.5 44t-39.5 106q0 68 46.5 118t130.5 50q71 0 109.5 -43.5t38.5 -104.5zM395 0h-269q14 207 14 475q0 266 -34 466l288 29q-13 -194 -13 -495q0 -257 14 -475z"/>
<glyph glyph-name="j" horiz-adv-x="510" unicode="j" d="M438 1253q0 -68 -47 -119t-130 -51q-70 0 -109.5 44t-39.5 106q0 68 47 118t131 50q71 0 109.5 -43.5t38.5 -104.5zM394 971q-14 -303 -14 -602q0 -78 4 -214.5t4 -182.5q0 -369 -295 -428l-73 140q71 57 96.5 167.5t25.5 465.5q0 403 -36 626z"/>
<glyph glyph-name="k" horiz-adv-x="1045" unicode="k" d="M1029 0h-306q0 37 -152 250.5t-194 213.5h-13q0 -205 12 -464h-265q12 467 12 743q0 382 -31 663l284 16q-14 -380 -14 -679q0 -38 1 -148h14q28 0 159 161.5t131 193.5h298q0 -31 -136 -173t-220 -196v-15q93 -65 256.5 -295.5t163.5 -270.5z"/>
<glyph glyph-name="l" horiz-adv-x="528" unicode="l" d="M410 0h-273q15 343 15 743q0 390 -31 663l289 16q-15 -283 -15 -679q0 -402 15 -743z"/>
<glyph glyph-name="m" horiz-adv-x="1704" unicode="m" d="M1593 0h-265q21 253 21 492q0 179 -46 234t-147 55q-81 0 -171 -59q-4 -125 -4 -224q0 -167 6 -498h-268q22 274 22 533q0 134 -37.5 191t-155.5 57q-109 0 -181 -73q5 -396 5 -708h-269q18 312 18 492q0 234 -49 451l256 28l17 -106h16q130 118 293 118q204 0 287 -118 h16q148 118 293 118q170 0 256.5 -73.5t86.5 -266.5q0 -19 -2 -72.5t-2 -72.5q0 -167 4 -498z"/>
<glyph glyph-name="n" horiz-adv-x="1126" unicode="n" d="M1015 0h-266q22 253 22 512q0 157 -46.5 213t-141.5 56q-114 0 -216 -78q5 -390 5 -703h-269q18 313 18 492q0 239 -49 451l256 28l17 -106h16q137 118 315 118q154 0 246.5 -72.5t92.5 -267.5q0 -29 -2.5 -77.5t-2.5 -99.5q0 -135 5 -466z"/>
<glyph glyph-name="o" horiz-adv-x="1144" unicode="o" d="M814 467q0 145 -68 243.5t-177 98.5q-106 0 -172.5 -92t-66.5 -230q0 -145 68 -243.5t177 -98.5q106 0 172.5 92t66.5 230zM1075 497q0 -252 -155 -394t-365 -142q-200 0 -343 129.5t-143 364.5q0 253 156 396t366 143q199 0 341.5 -130.5t142.5 -366.5z"/>
<glyph glyph-name="p" horiz-adv-x="1146" unicode="p" d="M810 490q0 126 -63 217t-174 91q-138 0 -202 -81q15 -281 15 -515q63 -49 163 -49q133 0 197 98.5t64 238.5zM1076 516q0 -217 -124 -381t-339 -164q-160 0 -220 68h-12q0 -245 7 -496h-272q18 287 18 662q0 484 -52 738l256 28l15 -86h16q107 99 291 99 q192 0 304 -138.5t112 -329.5z"/>
<glyph glyph-name="q" horiz-adv-x="1136" unicode="q" d="M778 239q0 329 -11 516q-75 49 -171 49q-131 0 -195.5 -97.5t-64.5 -240.5q0 -126 62 -217.5t172 -91.5q147 0 208 82zM1033 -455h-266q11 274 11 521h-16q-103 -95 -275 -95q-192 0 -305 139t-113 330q0 220 125 382t340 162q159 0 240 -59h14l35 25l210 16 q-13 -314 -13 -680q0 -419 13 -741z"/>
<glyph glyph-name="r" horiz-adv-x="789" unicode="r" d="M771 950l-58 -234q-74 30 -150 30q-147 0 -194 -132q0 -399 6 -614h-266q17 301 17 492q0 238 -50 451l255 28q17 -110 17 -129h16q92 141 245 141q72 0 162 -33z"/>
<glyph glyph-name="s" horiz-adv-x="859" unicode="s" d="M791 273q0 -300 -444 -300q-162 0 -283 35l34 197q125 -45 249 -45q120 0 166.5 20t46.5 67q0 73 -168 139q-147 58 -214 114q-92 78 -92 191q0 133 99 214t288 81q177 0 278 -31l-34 -198q-113 44 -244 44q-160 0 -160 -82q0 -42 34 -67.5t139 -64.5q145 -53 211 -109 q94 -80 94 -205z"/>
<glyph glyph-name="t" horiz-adv-x="743" unicode="t" d="M704 187l-17 -178q-70 -30 -176 -30q-162 0 -244 88t-82 339q0 151 2 342q-51 0 -138 -6l7 197q77 -6 143 -6q1 53 8 279l237 29q-15 -199 -15 -308q84 0 251 8l-8 -199q-152 6 -247 6q-2 -133 -2 -279q0 -178 36 -238.5t127 -60.5q55 0 118 17z"/>
<glyph glyph-name="u" horiz-adv-x="1107" unicode="u" d="M1005 1l-234 -8q-16 54 -16 86h-16q-131 -108 -306 -108q-165 0 -248.5 86.5t-83.5 345.5q0 31 1.5 87t1.5 98q0 111 -19 354l279 10q-16 -192 -16 -364q0 -245 36.5 -330t143.5 -85q117 0 202 56q0 526 -12 714l270 9q-10 -189 -10 -490q0 -223 27 -461z"/>
<glyph glyph-name="v" horiz-adv-x="1002" unicode="v" d="M976 950q0 -58 -179 -475t-179 -475h-273q0 64 -159 486.5t-159 463.5h292q0 -45 98.5 -347.5t98.5 -355.5h13q0 48 94 336t94 367h259z"/>
<glyph glyph-name="w" horiz-adv-x="1613" unicode="w" d="M1581 950q0 -57 -166.5 -468t-166.5 -482h-233q0 46 -82 283q-102 296 -130 403h-16q-26 -103 -124 -398q-79 -234 -79 -288h-234q0 61 -158.5 486.5t-158.5 463.5h288q0 -41 87.5 -343.5t87.5 -359.5h15q0 69 100 358.5t100 344.5h235q0 -38 97.5 -345t97.5 -358h14 q0 56 88.5 340.5t88.5 362.5h249z"/>
<glyph glyph-name="x" horiz-adv-x="1055" unicode="x" d="M1023 0h-313q0 27 -82 180q-78 145 -119 203h-14q-33 -45 -108 -200t-75 -183h-278q0 24 144.5 234t201.5 268v15q-48 52 -174 225q-134 185 -134 208h311q0 -26 67 -155q65 -125 100 -172h12q31 39 92.5 169.5t61.5 157.5h268q0 -19 -133.5 -200t-175.5 -220v-15 q57 -63 200 -271q148 -215 148 -244z"/>
<glyph glyph-name="y" horiz-adv-x="1002" unicode="y" d="M968 950q0 -65 -143 -412q-163 -399 -201 -544q-65 -250 -175 -345q-106 -92 -318 -92l-20 193q124 0 204 70.5t80 188.5q0 119 -180 520.5t-180 420.5h309q0 -35 91 -339t91 -372h14q0 58 82.5 342.5t82.5 368.5h263z"/>
<glyph glyph-name="z" horiz-adv-x="890" unicode="z" d="M834 200l-5 -200h-756l14 191q50 45 235 278q198 249 198 285v16q-238 0 -438 -17l5 197h726l-15 -192q-63 -69 -225 -280q-189 -246 -189 -282v-15q227 0 450 19z"/>
<glyph glyph-name="braceleft" horiz-adv-x="723" unicode="{" d="M692 -330l-68 -160q-432 90 -432 319q0 74 43.5 244t43.5 216q0 70 -75.5 106.5t-158.5 42.5v149q242 35 242 155q0 46 -47.5 209.5t-47.5 230.5q0 196 223 287q92 38 222 52l45 -156q-294 -38 -294 -275q0 -52 47 -180t47 -164q0 -113 -93 -176q-68 -47 -136 -47v-15 q68 0 148.5 -53.5t80.5 -165.5q0 -40 -47 -177.5t-47 -182.5q0 -187 304 -259z"/>
<glyph glyph-name="bar" horiz-adv-x="516" unicode="|" d="M365 -517h-213q13 566 13 988q0 415 -13 1079h213q-12 -645 -12 -1079q0 -433 12 -988z"/>
<glyph glyph-name="braceright" horiz-adv-x="723" unicode="}" d="M692 441q-235 -59 -235 -152q0 -46 44.5 -214t44.5 -240q0 -167 -218 -263q-91 -40 -218 -62l-60 159q286 58 286 260q0 47 -40.5 183.5t-40.5 175.5q0 112 93 173q68 44 137 44v14q-67 0 -148.5 56.5t-81.5 169.5q0 37 40.5 165.5t40.5 178.5q0 221 -282 275l51 157 q129 -18 221 -57q220 -93 220 -276q0 -69 -46.5 -234.5t-46.5 -211.5q0 -69 77.5 -107t161.5 -45v-149z"/>
<glyph glyph-name="asciitilde" horiz-adv-x="1033" unicode="~" d="M1029 611q-149 -264 -337 -264q-68 0 -168.5 33.5t-164.5 33.5q-118 0 -230 -128l-123 90q147 276 335 276q68 0 175.5 -32t171.5 -32q118 0 218 112z"/>
<glyph glyph-name="exclamdown" horiz-adv-x="516" unicode="¡" d="M435 814q0 -72 -50.5 -126t-140.5 -54q-76 0 -117 46.5t-41 112.5q0 74 50.5 129t139.5 55q75 0 117 -48t42 -115zM394 -181q0 -190 -160 -190q-145 0 -145 184q0 195 117 617h102q86 -435 86 -611z"/>
<glyph glyph-name="cent" horiz-adv-x="1033" unicode="¢" d="M900 241l-17 -191q-30 -12 -63 -20q-80 -20 -166 -22q0 -158 9 -281h-139q3 55 6 288q-201 28 -308.5 164.5t-107.5 316.5q0 185 111 334t307 183q-1 162 -8 305h139q-8 -148 -8 -295q114 -1 212 -29l-34 -200q-92 35 -190 35q-124 0 -195.5 -89.5t-71.5 -212.5 q0 -130 81.5 -225.5t231.5 -95.5q83 0 211 35z"/>
<glyph glyph-name="sterling" horiz-adv-x="909" unicode="£" d="M853 179l-19 -179h-776v159q53 20 89 57t36 122q0 62 -13 155q-65 0 -137 -5l6 147q49 -4 118 -4q-7 70 -7 130q0 215 93 316t267 101q102 0 179 -13l-25 -170q-59 13 -109 13q-90 0 -129 -48.5t-39 -151.5q0 -72 11 -177q74 0 194 5l-7 -147q-84 4 -169 4q6 -47 6 -88 q0 -167 -110 -235v-10q206 0 541 19z"/>
<glyph glyph-name="currency" horiz-adv-x="1000" unicode="¤" d="M673 467q0 81 -48.5 146.5t-132.5 65.5q-82 0 -129.5 -62t-47.5 -140q0 -81 48.5 -146.5t131.5 -65.5t130.5 62t47.5 140zM889 774l-111 -106q47 -72 47 -177q0 -110 -46 -188l94 -88l-102 -102l-86 91q-90 -64 -205 -64q-102 0 -181 49l-87 -92l-101 101l92 87 q-40 69 -40 165q0 129 61 215l-97 92l102 102l97 -104q82 49 182 49q95 0 170 -44l110 115z"/>
<glyph glyph-name="yen" horiz-adv-x="909" unicode="¥" d="M934 1068q0 -27 -78 -153.5t-156 -252.5q55 2 157 5v-122q-83 -1 -139 -1t-87 1q-23 -44 -34 -72h260v-122q-168 7 -286 7q1 -157 8 -358h-275q4 99 8 358q-92 0 -262 -7v122h237q-16 42 -30 72h-207v122q112 -5 144 -5q-17 30 -117.5 205t-100.5 201h312 q0 -27 92.5 -237t92.5 -267h14q0 55 87 263.5t87 240.5h273z"/>
<glyph glyph-name="brokenbar" horiz-adv-x="500" unicode="¦" d="M354 624h-208q12 334 12 422q0 87 -12 454h208q-12 -334 -12 -422q0 -87 12 -454zM354 -500h-208q12 334 12 422q0 87 -12 454h208q-12 -334 -12 -422q0 -87 12 -454z"/>
<glyph glyph-name="section" horiz-adv-x="859" unicode="§" d="M579 453q0 72 -157 197q-59 0 -90.5 -34.5t-31.5 -84.5q0 -70 161 -191q58 0 88 33.5t30 79.5zM791 -109q0 -325 -444 -325q-162 0 -283 35l34 197q125 -45 249 -45q213 0 213 108q0 64 -123 174q-212 189 -228 206q-123 133 -123 253q0 201 198 264q-198 176 -198 335 q0 137 95.5 228.5t280.5 91.5q177 0 289 -30l-34 -199q-124 44 -255 44q-147 0 -147 -106q0 -65 123 -169q202 -169 230 -198q123 -132 123 -265q0 -201 -186 -262q186 -167 186 -337z"/>
<glyph glyph-name="dieresis" horiz-adv-x="836" unicode="¨" d="M358 1251q0 -58 -39.5 -101.5t-110.5 -43.5q-59 0 -92.5 37.5t-33.5 90.5q0 58 40 100.5t111 42.5q60 0 92.5 -37t32.5 -89zM753 1251q0 -58 -39.5 -101.5t-110.5 -43.5q-60 0 -93.5 37.5t-33.5 90.5q0 57 40.5 100t111.5 43q60 0 92.5 -37t32.5 -89z"/>
<glyph glyph-name="copyright" horiz-adv-x="1353" unicode="©" d="M892 415l-8 -115q-82 -17 -140 -17q-173 0 -262 95t-89 230q0 140 95.5 244t260.5 104q61 0 116 -14l-18 -115q-58 19 -113 19q-100 0 -150 -64t-50 -157q0 -94 58.5 -163t164.5 -69q62 0 135 22zM1183 610q0 215 -151 367t-365 152q-215 0 -366.5 -152t-151.5 -367 t151.5 -366.5t366.5 -151.5q214 0 365 151.5t151 366.5zM1277 608q0 -253 -178.5 -430.5t-431.5 -177.5t-432.5 178t-179.5 430q0 253 179.5 432.5t432.5 179.5t431.5 -179.5t178.5 -432.5z"/>
<glyph glyph-name="ordfeminine" horiz-adv-x="574" unicode="ª" d="M349 898v2q-2 32 -2 99q-159 -9 -159 -78q0 -48 63 -48q57 0 98 25zM521 759l-158 -7q-6 12 -6 45h-7q-49 -51 -147 -51q-75 0 -124 38t-49 119q0 96 86.5 151t232.5 55q-1 52 -18.5 68.5t-90.5 16.5q-66 0 -184 -33l16 133q96 31 199 31q53 0 93.5 -9.5t73 -32t50.5 -62 t18 -92.5q0 -65 -1.5 -97.5t-1.5 -88.5q0 -92 18 -184z"/>
<glyph glyph-name="guillemotleft" horiz-adv-x="929" unicode="«" d="M446 244l-82 -118l-294 261v201l294 259l82 -117l-201 -242zM859 244l-82 -118l-294 261v201l294 259l82 -117l-201 -242z"/>
<glyph glyph-name="logicalnot" horiz-adv-x="1033" unicode="¬" d="M926 160h-159v457h-660v192h819v-649z"/>
<glyph glyph-name="registered" horiz-adv-x="1353" unicode="®" d="M776 926q0 99 -128 99q-47 0 -83 -7q5 -78 5 -202q27 -1 47 -1q159 0 159 111zM963 466h-148q-58 177 -89 218.5t-100 41.5q-29 0 -55 -1q0 -128 4 -259h-139q7 151 7 340q0 182 -7 311h87q15 0 62.5 1.5t88.5 1.5q229 0 229 -157q0 -125 -131 -174v-7q50 -14 88.5 -79 t102.5 -237zM1183 773q0 215 -151 366.5t-365 151.5q-215 0 -366.5 -151.5t-151.5 -366.5t151.5 -367t366.5 -152q214 0 365 152t151 367zM1277 771q0 -253 -178.5 -430.5t-431.5 -177.5t-432.5 178t-179.5 430q0 253 179.5 432.5t432.5 179.5t431.5 -179.5t178.5 -432.5z "/>
<glyph glyph-name="macron" horiz-adv-x="500" unicode="¯" d="M497 1335l-12 -174h-484l11 174h485z"/>
<glyph glyph-name="macron" horiz-adv-x="500" unicode="ˉ" d="M497 1335l-12 -174h-484l11 174h485z"/>
<glyph glyph-name="degree" d="M411 1273q0 56 -37 96t-103 40q-78 0 -121 -45.5t-43 -107.5q0 -57 36 -97.5t101 -40.5q78 0 122.5 46.5t44.5 108.5zM531 1281q0 -112 -78 -197t-217 -85q-117 0 -182.5 74.5t-65.5 176.5q0 112 77 195t218 83q118 0 183 -73t65 -174z" unicode="°"/>
<glyph glyph-name="plusminus" horiz-adv-x="1033" unicode="±" d="M926 45h-819v180h819v-180zM926 619h-319v-290h-180v290h-320v180h320v290h180v-290h319v-180z"/>
<glyph glyph-name="uni00B2" d="M506 738l-16 -131h-435l13 109q51 35 94 76.5t77.5 86t53 93.5t18.5 97q0 120 -128 120q-64 0 -122 -17l15 124q59 20 148 20q132 0 192.5 -62t60.5 -162q0 -181 -212 -352v-10q152 0 241 8z" unicode="²"/>
<glyph glyph-name="uni00B3" d="M504 833q0 -54 -27 -102.5t-80.5 -90.5t-143.5 -69t-209 -33l-25 107q162 18 238 61t76 109q0 111 -244 111l18 110q117 0 162 17t45 66q0 36 -26 53t-90 17q-43 0 -141 -21l9 126q82 22 190 22q90 0 153.5 -38t63.5 -122q0 -99 -101 -140v-8q57 -17 94.5 -56.5 t37.5 -118.5z" unicode="³"/>
<glyph glyph-name="acute" horiz-adv-x="562" unicode="´" d="M510 1410q0 -12 -138 -160t-138 -164h-175q0 16 90 164.5t90 159.5h271z"/>
<glyph glyph-name="uni00B5" horiz-adv-x="1128" unicode="µ" d="M1020 -1l-235 -8q-19 68 -19 103h-16q-85 -94 -215 -94q-136 0 -208 94h-16q0 -269 57 -549l-262 -20q13 400 13 743q0 399 -33 670l290 11q-9 -208 -9 -369q0 -239 44.5 -320t153.5 -81q105 0 179 67q0 507 -12 694l268 10q-11 -232 -11 -437q0 -232 31 -514z"/>
<glyph glyph-name="paragraph" horiz-adv-x="1371" unicode="¶" d="M1199 -413h-271q8 519 8 1128q0 262 -9 493q-32 3 -133 6q-11 -528 -11 -852q0 -497 13 -858h-186q12 365 12 858q0 85 -1 203q-246 3 -371 104t-125 336q0 194 134.5 300t318.5 106q74 0 188 -3t164 -3h269q-13 -275 -13 -711q0 -599 13 -1107z"/>
<glyph glyph-name="cedilla" horiz-adv-x="470" unicode="¸" d="M421 -287q0 -227 -246 -227l-24 112q40 0 69 29.5t29 65.5q0 101 -129 125l41 234l87 -14l-16 -130q189 -47 189 -195z"/>
<glyph glyph-name="uni00B9" d="M427 1304q-5 -174 -5 -351q0 -192 5 -346h-170q6 163 6 346q0 81 -3 161l-190 -99l-38 96l291 193h104z" unicode="¹"/>
<glyph glyph-name="ordmasculine" horiz-adv-x="637" unicode="º" d="M437 1030q0 76 -34.5 127t-84.5 51q-56 0 -87 -46t-31 -123q0 -74 34.5 -126t85.5 -52q56 0 86.5 45t30.5 124zM600 1047q0 -142 -85 -225.5t-207 -83.5q-112 0 -191.5 75t-79.5 205q0 146 84.5 229t208.5 83q112 0 191 -74.5t79 -208.5z"/>
<glyph glyph-name="guillemotright" horiz-adv-x="929" unicode="»" d="M446 387l-293 -261l-83 118l202 242l-202 244l83 117l293 -259v-201zM859 387l-293 -261l-83 118l202 242l-202 244l83 117l293 -259v-201z"/>
<glyph glyph-name="onequarter" horiz-adv-x="1550" unicode="¼" d="M457 1304q-5 -174 -5 -351q0 -192 5 -346h-170q6 163 6 346q0 81 -3 161l-190 -99l-38 96l291 193h104zM1330 1315q0 -66 -497.5 -666t-497.5 -691l-165 20q0 71 497 665.5t497 691.5zM1190 551h-5q-10 -41 -138 -215v-9h52q58 0 87 1q1 28 2 85q2 98 2 138zM1440 339 l-16 -132h-82q0 -47 2.5 -110t5.5 -126h-170q3 64 4.5 122t1.5 114h-273l-13 96q0 10 37 64.5t123 172t104 158.5h187q-3 -53 -6 -141t-3 -226q44 0 98 8z"/>
<glyph glyph-name="onehalf" horiz-adv-x="1550" unicode="½" d="M488 1304q-5 -174 -5 -351q0 -192 5 -346h-170q6 163 6 346q0 81 -3 161l-190 -99l-38 96l291 193h104zM1355 1315q0 -66 -497.5 -666t-497.5 -691l-165 20q0 71 497 665.5t497 691.5zM1420 132l-16 -131h-435l13 109q51 35 94 76.5t77.5 86t53 93.5t18.5 97 q0 120 -128 120q-64 0 -122 -17l15 124q59 20 148 20q132 0 192.5 -62t60.5 -162q0 -181 -212 -352v-10q152 0 241 8z"/>
<glyph glyph-name="threequarters" horiz-adv-x="1550" unicode="¾" d="M563 833q0 -54 -27 -102.5t-80.5 -90.5t-143.5 -69t-209 -33l-25 107q162 18 238 61t76 109q0 111 -244 111l18 110q117 0 162 17t45 66q0 36 -26 53t-90 17q-43 0 -141 -21l9 126q82 22 190 22q90 0 153.5 -38t63.5 -122q0 -99 -101 -140v-8q57 -17 94.5 -56.5 t37.5 -118.5zM1358 1315q0 -66 -497.5 -666t-497.5 -691l-165 20q0 71 497 665.5t497 691.5zM1178 551h-5q-10 -41 -138 -215v-9h52q58 0 87 1q1 28 2 85q2 98 2 138zM1428 339l-16 -132h-82q0 -47 2.5 -110t5.5 -126h-170q3 64 4.5 122t1.5 114h-273l-13 96q0 10 37 64.5 t123 172t104 158.5h187q-3 -53 -6 -141t-3 -226q44 0 98 8z"/>
<glyph glyph-name="questiondown" horiz-adv-x="723" unicode="¿" d="M600 821q0 -72 -50.5 -126t-140.5 -54q-76 0 -117 46.5t-41 112.5q0 74 50 129t140 55q75 0 117 -48t42 -115zM669 -172l-23 -189q-311 0 -457.5 65.5t-146.5 236.5q0 216 279 345l21 151h133l38 -213q-215 -62 -215 -208q0 -177 371 -188z"/>
<glyph glyph-name="Agrave" horiz-adv-x="1290" unicode="À" d="M817 565q-171 516 -171 558h-16q0 -39 -177 -558h364zM1279 0h-320q0 66 -91 374h-462q-94 -303 -94 -374h-301q0 39 233.5 640t233.5 662h378q0 -57 211.5 -652.5t211.5 -649.5zM787 1416h-175q-10 16 -143 139t-133 135h291q0 -11 80 -134.5t80 -139.5z"/>
<glyph glyph-name="Aacute" horiz-adv-x="1290" unicode="Á" d="M817 565q-171 516 -171 558h-16q0 -39 -177 -558h364zM1279 0h-320q0 66 -91 374h-462q-94 -303 -94 -374h-301q0 39 233.5 640t233.5 662h378q0 -57 211.5 -652.5t211.5 -649.5zM987 1690q0 -12 -133 -135t-143 -139h-175q0 16 80 139.5t80 134.5h291z"/>
<glyph glyph-name="Acircumflex" horiz-adv-x="1290" unicode="Â" d="M817 565q-171 516 -171 558h-16q0 -39 -177 -558h364zM1279 0h-320q0 66 -91 374h-462q-94 -303 -94 -374h-301q0 39 233.5 640t233.5 662h378q0 -57 211.5 -652.5t211.5 -649.5zM994 1416h-155q-10 16 -166 134q-156 -118 -166 -134h-155q0 16 100 139.5t100 134.5h242 q0 -11 100 -134.5t100 -139.5z"/>
<glyph glyph-name="Atilde" horiz-adv-x="1290" unicode="Ã" d="M817 565q-171 516 -171 558h-16q0 -39 -177 -558h364zM1279 0h-320q0 66 -91 374h-462q-94 -303 -94 -374h-301q0 39 233.5 640t233.5 662h378q0 -57 211.5 -652.5t211.5 -649.5zM1051 1625q-112 -196 -256 -196q-46 0 -121.5 23t-115.5 23q-91 0 -176 -67l-89 75 q112 186 256 186q50 0 124 -23t113 -23q91 0 176 77z"/>
<glyph glyph-name="Adieresis" horiz-adv-x="1290" unicode="Ä" d="M817 565q-171 516 -171 558h-16q0 -39 -177 -558h364zM1279 0h-320q0 66 -91 374h-462q-94 -303 -94 -374h-301q0 39 233.5 640t233.5 662h378q0 -57 211.5 -652.5t211.5 -649.5zM602 1567q0 -58 -39.5 -101.5t-110.5 -43.5q-59 0 -92.5 37.5t-33.5 90.5q0 58 40 100.5 t111 42.5q60 0 92.5 -37t32.5 -89zM997 1567q0 -58 -39.5 -101.5t-110.5 -43.5q-60 0 -93.5 37.5t-33.5 90.5q0 57 40.5 100t111.5 43q60 0 92.5 -37t32.5 -89z"/>
<glyph glyph-name="Aring" horiz-adv-x="1290" unicode="Å" d="M817 565q-171 516 -171 558h-16q0 -39 -177 -558h364zM1279 0h-320q0 66 -91 374h-462q-94 -303 -94 -374h-301q0 39 233.5 640t233.5 662h378q0 -57 211.5 -652.5t211.5 -649.5zM805 1596q0 60 -33.5 92t-81.5 32q-52 0 -92 -37t-40 -101q0 -60 33.5 -92.5t81.5 -32.5 q52 0 92 37.5t40 101.5zM919 1605q0 -115 -77.5 -182.5t-177.5 -67.5q-90 0 -155.5 57.5t-65.5 163.5q0 114 77.5 180t177.5 66q90 0 155.5 -56.5t65.5 -160.5z"/>
<glyph glyph-name="AE" horiz-adv-x="1695" unicode="Æ" d="M763 565q0 325 -10 534h-131q0 -39 -185 -534h326zM1618 220l-8 -220h-860q11 185 11 374h-371q-91 -290 -91 -374h-288q0 38 234 638t234 664h1091l-9 -219q-314 16 -558 16q12 -141 12 -328q194 0 460 8v-206q-247 10 -460 10q0 -193 7 -380q277 0 596 17z"/>
<glyph glyph-name="Ccedilla" horiz-adv-x="1131" unicode="Ç" d="M1076 237l-17 -230q-142 -34 -280 -34q-52 0 -99 5l-9 -70q189 -47 189 -195q0 -227 -246 -227l-24 112q40 0 69 29.5t29 65.5q0 101 -129 125l30 173q-211 41 -361.5 201t-150.5 431q0 279 191 488t522 209q122 0 231 -28l-35 -231q-118 38 -226 38q-201 0 -301 -128.5 t-100 -312.5q0 -188 117.5 -326t329.5 -138q124 0 270 43z"/>
<glyph glyph-name="Egrave" horiz-adv-x="1080" unicode="È" d="M1003 220l-8 -220h-851q13 302 13 681q0 364 -13 621h812l-11 -219q-300 16 -544 16q10 -139 10 -328q209 0 447 11v-209q-234 10 -447 10q0 -203 8 -380q274 0 584 17zM717 1416h-175q-10 16 -143 139t-133 135h291q0 -11 80 -134.5t80 -139.5z"/>
<glyph glyph-name="Eacute" horiz-adv-x="1080" unicode="É" d="M1003 220l-8 -220h-851q13 302 13 681q0 364 -13 621h812l-11 -219q-300 16 -544 16q10 -139 10 -328q209 0 447 11v-209q-234 10 -447 10q0 -203 8 -380q274 0 584 17zM919 1690q0 -12 -133 -135t-143 -139h-175q0 16 80 139.5t80 134.5h291z"/>
<glyph glyph-name="Ecircumflex" horiz-adv-x="1080" unicode="Ê" d="M1003 220l-8 -220h-851q13 302 13 681q0 364 -13 621h812l-11 -219q-300 16 -544 16q10 -139 10 -328q209 0 447 11v-209q-234 10 -447 10q0 -203 8 -380q274 0 584 17zM915 1416h-155q-10 16 -166 134q-156 -118 -166 -134h-155q0 16 100 139.5t100 134.5h242 q0 -11 100 -134.5t100 -139.5z"/>
<glyph glyph-name="Edieresis" horiz-adv-x="1080" unicode="Ë" d="M1003 220l-8 -220h-851q13 302 13 681q0 364 -13 621h812l-11 -219q-300 16 -544 16q10 -139 10 -328q209 0 447 11v-209q-234 10 -447 10q0 -203 8 -380q274 0 584 17zM507 1567q0 -58 -39.5 -101.5t-110.5 -43.5q-59 0 -92.5 37.5t-33.5 90.5q0 58 40 100.5t111 42.5 q60 0 92.5 -37t32.5 -89zM902 1567q0 -58 -39.5 -101.5t-110.5 -43.5q-60 0 -93.5 37.5t-33.5 90.5q0 57 40.5 100t111.5 43q60 0 92.5 -37t32.5 -89z"/>
<glyph glyph-name="Igrave" horiz-adv-x="571" unicode="Ì" d="M427 0h-283q13 310 13 681q0 365 -13 621h283q-13 -252 -13 -621q0 -377 13 -681zM413 1416h-175q-10 16 -143 139t-133 135h291q0 -11 80 -134.5t80 -139.5z"/>
<glyph glyph-name="Iacute" horiz-adv-x="571" unicode="Í" d="M427 0h-283q13 310 13 681q0 365 -13 621h283q-13 -252 -13 -621q0 -377 13 -681zM630 1690q0 -12 -133 -135t-143 -139h-175q0 16 80 139.5t80 134.5h291z"/>
<glyph glyph-name="Icircumflex" horiz-adv-x="571" unicode="Î" d="M427 0h-283q13 310 13 681q0 365 -13 621h283q-13 -252 -13 -621q0 -377 13 -681zM608 1416h-155q-10 16 -166 134q-156 -118 -166 -134h-155q0 16 100 139.5t100 134.5h242q0 -11 100 -134.5t100 -139.5z"/>
<glyph glyph-name="Idieresis" horiz-adv-x="571" unicode="Ï" d="M427 0h-283q13 310 13 681q0 365 -13 621h283q-13 -252 -13 -621q0 -377 13 -681zM227 1567q0 -58 -39.5 -101.5t-110.5 -43.5q-59 0 -92.5 37.5t-33.5 90.5q0 58 40 100.5t111 42.5q60 0 92.5 -37t32.5 -89zM622 1567q0 -58 -39.5 -101.5t-110.5 -43.5q-60 0 -93.5 37.5 t-33.5 90.5q0 57 40.5 100t111.5 43q60 0 92.5 -37t32.5 -89z"/>
<glyph glyph-name="Eth" horiz-adv-x="1321" unicode="Ð" d="M971 653q0 189 -115 322t-339 133q-51 0 -118 -8q11 -128 11 -315v-32q99 5 329 26l-9 -176q-70 0 -320 -7q0 -224 9 -389q65 -13 135 -13q210 0 313.5 133.5t103.5 325.5zM1244 696q0 -282 -181 -495t-502 -213q-157 0 -417 12q13 248 13 582q-56 -4 -146 -14l9 179 q80 -1 137 -1q0 307 -13 556h175q44 0 130 3t129 3q335 0 500.5 -176t165.5 -436z"/>
<glyph glyph-name="Ntilde" horiz-adv-x="1361" unicode="Ñ" d="M1217 0h-247q0 41 -275 433q-288 413 -328 565h-16q25 -219 25 -396q0 -247 14 -602h-246q15 310 15 681q0 365 -15 621h297q0 -53 247 -423q263 -393 302 -533h15q-24 223 -24 400q0 271 -14 556h250q-14 -248 -14 -621q0 -376 14 -681zM1063 1625q-112 -196 -256 -196 q-46 0 -121.5 23t-115.5 23q-91 0 -176 -67l-89 75q112 186 256 186q50 0 124 -23t113 -23q91 0 176 77z"/>
<glyph glyph-name="Ograve" horiz-adv-x="1427" unicode="Ò" d="M1074 646q0 209 -107 339t-264 130q-146 0 -248 -131t-102 -331q0 -208 107.5 -338.5t263.5 -130.5q146 0 248 131.5t102 330.5zM1350 675q0 -307 -188 -509t-465 -202q-264 0 -442 185.5t-178 471.5q0 307 188 509t465 202q264 0 442 -185t178 -472zM839 1416h-175 q-10 16 -143 139t-133 135h291q0 -11 80 -134.5t80 -139.5z"/>
<glyph glyph-name="Oacute" horiz-adv-x="1427" unicode="Ó" d="M1074 646q0 209 -107 339t-264 130q-146 0 -248 -131t-102 -331q0 -208 107.5 -338.5t263.5 -130.5q146 0 248 131.5t102 330.5zM1350 675q0 -307 -188 -509t-465 -202q-264 0 -442 185.5t-178 471.5q0 307 188 509t465 202q264 0 442 -185t178 -472zM1106 1690 q0 -12 -133 -135t-143 -139h-175q0 16 80 139.5t80 134.5h291z"/>
<glyph glyph-name="Ocircumflex" horiz-adv-x="1427" unicode="Ô" d="M1074 646q0 209 -107 339t-264 130q-146 0 -248 -131t-102 -331q0 -208 107.5 -338.5t263.5 -130.5q146 0 248 131.5t102 330.5zM1350 675q0 -307 -188 -509t-465 -202q-264 0 -442 185.5t-178 471.5q0 307 188 509t465 202q264 0 442 -185t178 -472zM1042 1416h-155 q-10 16 -166 134q-156 -118 -166 -134h-155q0 16 100 139.5t100 134.5h242q0 -11 100 -134.5t100 -139.5z"/>
<glyph glyph-name="Otilde" horiz-adv-x="1427" unicode="Õ" d="M1074 646q0 209 -107 339t-264 130q-146 0 -248 -131t-102 -331q0 -208 107.5 -338.5t263.5 -130.5q146 0 248 131.5t102 330.5zM1350 675q0 -307 -188 -509t-465 -202q-264 0 -442 185.5t-178 471.5q0 307 188 509t465 202q264 0 442 -185t178 -472zM1145 1625 q-112 -196 -256 -196q-46 0 -121.5 23t-115.5 23q-91 0 -176 -67l-89 75q112 186 256 186q50 0 124 -23t113 -23q91 0 176 77z"/>
<glyph glyph-name="Odieresis" horiz-adv-x="1427" unicode="Ö" d="M1074 646q0 209 -107 339t-264 130q-146 0 -248 -131t-102 -331q0 -208 107.5 -338.5t263.5 -130.5q146 0 248 131.5t102 330.5zM1350 675q0 -307 -188 -509t-465 -202q-264 0 -442 185.5t-178 471.5q0 307 188 509t465 202q264 0 442 -185t178 -472zM672 1567 q0 -58 -39.5 -101.5t-110.5 -43.5q-59 0 -92.5 37.5t-33.5 90.5q0 58 40 100.5t111 42.5q60 0 92.5 -37t32.5 -89zM1067 1567q0 -58 -39.5 -101.5t-110.5 -43.5q-60 0 -93.5 37.5t-33.5 90.5q0 57 40.5 100t111.5 43q60 0 92.5 -37t32.5 -89z"/>
<glyph glyph-name="multiply" horiz-adv-x="1024" unicode="×" d="M880 739l-241 -240l226 -226l-127 -127l-226 226l-240 -241l-128 128l241 240l-227 226l128 128l226 -227l240 241z"/>
<glyph glyph-name="Oslash" horiz-adv-x="1427" unicode="Ø" d="M1076 646q0 126 -43 227q-185 -209 -529 -603q96 -86 222 -86q146 0 248 131.5t102 330.5zM954 1004q-102 111 -249 111q-146 0 -248 -131t-102 -331q0 -151 61 -267q190 216 538 618zM1360 1322q0 -43 -144 -225q136 -177 136 -422q0 -307 -188 -509t-465 -202 q-200 0 -356 113q-130 -161 -130 -196l-147 42q0 40 171 249q-158 182 -158 449q0 307 188 509t465 202q218 0 381 -131q98 126 98 158z"/>
<glyph glyph-name="Ugrave" horiz-adv-x="1347" unicode="Ù" d="M1225 1302q-9 -336 -9 -672q0 -664 -544 -664q-269 0 -405 147t-136 528q0 336 -9 661h283q-13 -338 -13 -652q0 -275 70 -377t216 -102q153 0 221 101.5t68 379.5q0 305 -13 650h271zM804 1416h-175q-10 16 -143 139t-133 135h291q0 -11 80 -134.5t80 -139.5z"/>
<glyph glyph-name="Uacute" horiz-adv-x="1347" unicode="Ú" d="M1225 1302q-9 -336 -9 -672q0 -664 -544 -664q-269 0 -405 147t-136 528q0 336 -9 661h283q-13 -338 -13 -652q0 -275 70 -377t216 -102q153 0 221 101.5t68 379.5q0 305 -13 650h271zM1025 1690q0 -12 -133 -135t-143 -139h-175q0 16 80 139.5t80 134.5h291z"/>
<glyph glyph-name="Ucircumflex" horiz-adv-x="1347" unicode="Û" d="M1225 1302q-9 -336 -9 -672q0 -664 -544 -664q-269 0 -405 147t-136 528q0 336 -9 661h283q-13 -338 -13 -652q0 -275 70 -377t216 -102q153 0 221 101.5t68 379.5q0 305 -13 650h271zM997 1416h-155q-10 16 -166 134q-156 -118 -166 -134h-155q0 16 100 139.5t100 134.5 h242q0 -11 100 -134.5t100 -139.5z"/>
<glyph glyph-name="Udieresis" horiz-adv-x="1347" unicode="Ü" d="M1225 1302q-9 -336 -9 -672q0 -664 -544 -664q-269 0 -405 147t-136 528q0 336 -9 661h283q-13 -338 -13 -652q0 -275 70 -377t216 -102q153 0 221 101.5t68 379.5q0 305 -13 650h271zM623 1567q0 -58 -39.5 -101.5t-110.5 -43.5q-59 0 -92.5 37.5t-33.5 90.5 q0 58 40 100.5t111 42.5q60 0 92.5 -37t32.5 -89zM1018 1567q0 -58 -39.5 -101.5t-110.5 -43.5q-60 0 -93.5 37.5t-33.5 90.5q0 57 40.5 100t111.5 43q60 0 92.5 -37t32.5 -89z"/>
<glyph glyph-name="Yacute" horiz-adv-x="1130" unicode="Ý" d="M1119 1302q0 -41 -114 -221q-175 -275 -213 -342q-114 -203 -114 -301q0 -220 12 -438h-284q11 219 11 441q0 102 -105 309q-49 96 -196 343q-105 177 -105 209h314q0 -36 125.5 -303.5t125.5 -345.5h16q0 72 122.5 328t122.5 321h282zM944 1690q0 -12 -133 -135 t-143 -139h-175q0 16 80 139.5t80 134.5h291z"/>
<glyph glyph-name="Thorn" horiz-adv-x="1138" unicode="Þ" d="M836 743q0 214 -284 214q-66 0 -136 -15q-2 -191 -2 -430h57q365 0 365 231zM1094 798q0 -236 -178.5 -351.5t-454.5 -115.5h-47q0 -125 8 -331h-278q12 317 12 684q0 357 -12 618h284q-6 -72 -9 -162q115 5 223 5q190 0 321 -86t131 -261z"/>
<glyph glyph-name="germandbls" horiz-adv-x="1112" unicode="ß" d="M1046 270q0 -136 -107.5 -214t-265.5 -78q-111 0 -195 24l21 176q76 -28 166 -28q137 0 137 92q0 62 -131 185q-147 138 -147 261q0 86 65 173q60 68 121 136q65 75 65 132q0 131 -190 131q-100 0 -168 -82t-68 -261q0 -519 15 -917h-265q10 332 10 896 q0 267 152.5 403.5t349.5 136.5q167 0 268 -72t101 -206q0 -83 -61 -164q-56 -62 -113 -123q-61 -68 -61 -120q0 -63 119 -168q182 -160 182 -313z"/>
<glyph glyph-name="agrave" horiz-adv-x="1006" unicode="à" d="M658 209q-6 135 -6 233q-341 0 -341 -173q0 -119 150 -119q118 0 197 59zM925 1l-236 -8q-16 42 -16 76h-13q-110 -94 -297 -94q-125 0 -207.5 69.5t-82.5 184.5q0 152 128.5 249t450.5 103q2 18 2 34q0 108 -52 142.5t-191 34.5q-151 0 -295 -40l22 184q136 47 384 47 q181 0 279.5 -76t98.5 -266q0 -42 -3.5 -153t-3.5 -148q0 -207 32 -339zM612 1086h-175q0 16 -138 164t-138 160h271q0 -11 90 -159.5t90 -164.5z"/>
<glyph glyph-name="aacute" horiz-adv-x="1006" unicode="á" d="M658 209q-6 135 -6 233q-341 0 -341 -173q0 -119 150 -119q118 0 197 59zM925 1l-236 -8q-16 42 -16 76h-13q-110 -94 -297 -94q-125 0 -207.5 69.5t-82.5 184.5q0 152 128.5 249t450.5 103q2 18 2 34q0 108 -52 142.5t-191 34.5q-151 0 -295 -40l22 184q136 47 384 47 q181 0 279.5 -76t98.5 -266q0 -42 -3.5 -153t-3.5 -148q0 -207 32 -339zM830 1410q0 -12 -138 -160t-138 -164h-175q0 16 90 164.5t90 159.5h271z"/>
<glyph glyph-name="acircumflex" horiz-adv-x="1006" unicode="â" d="M658 209q-6 135 -6 233q-341 0 -341 -173q0 -119 150 -119q118 0 197 59zM925 1l-236 -8q-16 42 -16 76h-13q-110 -94 -297 -94q-125 0 -207.5 69.5t-82.5 184.5q0 152 128.5 249t450.5 103q2 18 2 34q0 108 -52 142.5t-191 34.5q-151 0 -295 -40l22 184q136 47 384 47 q181 0 279.5 -76t98.5 -266q0 -42 -3.5 -153t-3.5 -148q0 -207 32 -339zM801 1086h-155q0 16 -166 194q-166 -178 -166 -194h-155q0 16 95 164.5t95 159.5h262q0 -11 95 -159.5t95 -164.5z"/>
<glyph glyph-name="atilde" horiz-adv-x="1006" unicode="ã" d="M658 209q-6 135 -6 233q-341 0 -341 -173q0 -119 150 -119q118 0 197 59zM925 1l-236 -8q-16 42 -16 76h-13q-110 -94 -297 -94q-125 0 -207.5 69.5t-82.5 184.5q0 152 128.5 249t450.5 103q2 18 2 34q0 108 -52 142.5t-191 34.5q-151 0 -295 -40l22 184q136 47 384 47 q181 0 279.5 -76t98.5 -266q0 -42 -3.5 -153t-3.5 -148q0 -207 32 -339zM900 1355q-112 -226 -256 -226q-46 0 -121.5 23t-115.5 23q-91 0 -176 -107l-89 75q112 226 256 226q50 0 124 -23t113 -23q91 0 176 107z"/>
<glyph glyph-name="adieresis" horiz-adv-x="1006" unicode="ä" d="M658 209q-6 135 -6 233q-341 0 -341 -173q0 -119 150 -119q118 0 197 59zM925 1l-236 -8q-16 42 -16 76h-13q-110 -94 -297 -94q-125 0 -207.5 69.5t-82.5 184.5q0 152 128.5 249t450.5 103q2 18 2 34q0 108 -52 142.5t-191 34.5q-151 0 -295 -40l22 184q136 47 384 47 q181 0 279.5 -76t98.5 -266q0 -42 -3.5 -153t-3.5 -148q0 -207 32 -339zM438 1251q0 -58 -39.5 -101.5t-110.5 -43.5q-59 0 -92.5 37.5t-33.5 90.5q0 58 40 100.5t111 42.5q60 0 92.5 -37t32.5 -89zM833 1251q0 -58 -39.5 -101.5t-110.5 -43.5q-60 0 -93.5 37.5t-33.5 90.5 q0 57 40.5 100t111.5 43q60 0 92.5 -37t32.5 -89z"/>
<glyph glyph-name="aring" horiz-adv-x="1006" unicode="å" d="M658 209q-6 135 -6 233q-341 0 -341 -173q0 -119 150 -119q118 0 197 59zM925 1l-236 -8q-16 42 -16 76h-13q-110 -94 -297 -94q-125 0 -207.5 69.5t-82.5 184.5q0 152 128.5 249t450.5 103q2 18 2 34q0 108 -52 142.5t-191 34.5q-151 0 -295 -40l22 184q136 47 384 47 q181 0 279.5 -76t98.5 -266q0 -42 -3.5 -153t-3.5 -148q0 -207 32 -339zM629 1280q0 60 -33.5 92t-81.5 32q-52 0 -92 -37t-40 -101q0 -60 33.5 -92.5t81.5 -32.5q52 0 92 37.5t40 101.5zM743 1289q0 -115 -77.5 -182.5t-177.5 -67.5q-90 0 -155.5 57.5t-65.5 163.5 q0 114 77.5 180t177.5 66q90 0 155.5 -56.5t65.5 -160.5z"/>
<glyph glyph-name="ae" horiz-adv-x="1611" unicode="æ" d="M1308 586q0 230 -195 230t-219 -238zM696 235q-49 103 -49 207q-337 0 -337 -173q0 -119 150 -119q118 0 236 85zM1542 577q0 -51 -6 -133l-640 -11q14 -114 94.5 -188.5t215.5 -74.5q150 0 320 45l-20 -194q-139 -50 -343 -50q-252 0 -391 163h-16q-97 -87 -174.5 -123 t-218.5 -36q-125 0 -207.5 69.5t-82.5 184.5q0 152 128.5 249t450.5 103q2 18 2 34q0 108 -52.5 142.5t-191.5 34.5q-151 0 -295 -40l22 184q136 47 384 47q207 0 292 -102h16q124 110 296 110q212 0 314.5 -115t102.5 -299z"/>
<glyph glyph-name="ccedilla" horiz-adv-x="912" unicode="ç" d="M868 210l-17 -191q-101 -48 -247 -48q-35 0 -65 3l-10 -66q189 -47 189 -195q0 -227 -246 -227l-24 112q40 0 69 29.5t29 65.5q0 101 -129 125l29 170q-148 33 -262.5 152t-114.5 321q0 210 145 366.5t397 156.5q123 0 219 -28l-34 -204q-92 38 -206 38 q-121 0 -191 -85.5t-70 -210.5q0 -136 83 -230t235 -94q89 0 221 40z"/>
<glyph glyph-name="egrave" horiz-adv-x="1049" unicode="è" d="M746 586q0 230 -196 230q-187 0 -222 -238zM980 577q0 -51 -6 -133l-644 -11q14 -113 97 -188t218 -75q150 0 319 45l-20 -194q-138 -50 -342 -50q-258 0 -395.5 145t-137.5 349q0 213 130.5 369.5t362.5 156.5q212 0 315 -115t103 -299zM672 1086h-175q0 16 -138 164 t-138 160h271q0 -11 90 -159.5t90 -164.5z"/>
<glyph glyph-name="eacute" horiz-adv-x="1049" unicode="é" d="M746 586q0 230 -196 230q-187 0 -222 -238zM980 577q0 -51 -6 -133l-644 -11q14 -113 97 -188t218 -75q150 0 319 45l-20 -194q-138 -50 -342 -50q-258 0 -395.5 145t-137.5 349q0 213 130.5 369.5t362.5 156.5q212 0 315 -115t103 -299zM905 1410q0 -12 -138 -160 t-138 -164h-175q0 16 90 164.5t90 159.5h271z"/>
<glyph glyph-name="ecircumflex" horiz-adv-x="1049" unicode="ê" d="M746 586q0 230 -196 230q-187 0 -222 -238zM980 577q0 -51 -6 -133l-644 -11q14 -113 97 -188t218 -75q150 0 319 45l-20 -194q-138 -50 -342 -50q-258 0 -395.5 145t-137.5 349q0 213 130.5 369.5t362.5 156.5q212 0 315 -115t103 -299zM876 1086h-155q0 16 -166 194 q-166 -178 -166 -194h-155q0 16 95 164.5t95 159.5h262q0 -11 95 -159.5t95 -164.5z"/>
<glyph glyph-name="edieresis" horiz-adv-x="1049" unicode="ë" d="M746 586q0 230 -196 230q-187 0 -222 -238zM980 577q0 -51 -6 -133l-644 -11q14 -113 97 -188t218 -75q150 0 319 45l-20 -194q-138 -50 -342 -50q-258 0 -395.5 145t-137.5 349q0 213 130.5 369.5t362.5 156.5q212 0 315 -115t103 -299zM498 1251q0 -58 -39.5 -101.5 t-110.5 -43.5q-59 0 -92.5 37.5t-33.5 90.5q0 58 40 100.5t111 42.5q60 0 92.5 -37t32.5 -89zM893 1251q0 -58 -39.5 -101.5t-110.5 -43.5q-60 0 -93.5 37.5t-33.5 90.5q0 57 40.5 100t111.5 43q60 0 92.5 -37t32.5 -89z"/>
<glyph glyph-name="igrave" horiz-adv-x="510" unicode="ì" d="M395 0h-269q14 207 14 475q0 266 -34 466l288 29q-13 -194 -13 -495q0 -257 14 -475zM393 1086h-175q0 16 -138 164t-138 160h271q0 -11 90 -159.5t90 -164.5z"/>
<glyph glyph-name="iacute" horiz-adv-x="510" unicode="í" d="M395 0h-269q14 207 14 475q0 266 -34 466l288 29q-13 -194 -13 -495q0 -257 14 -475zM608 1410q0 -12 -138 -160t-138 -164h-175q0 16 90 164.5t90 159.5h271z"/>
<glyph glyph-name="icircumflex" horiz-adv-x="510" unicode="î" d="M395 0h-269q14 207 14 475q0 266 -34 466l288 29q-13 -194 -13 -495q0 -257 14 -475zM582 1086h-155q0 16 -166 194q-166 -178 -166 -194h-155q0 16 95 164.5t95 159.5h262q0 -11 95 -159.5t95 -164.5z"/>
<glyph glyph-name="idieresis" horiz-adv-x="510" unicode="ï" d="M395 0h-269q14 207 14 475q0 266 -34 466l288 29q-13 -194 -13 -495q0 -257 14 -475zM205 1251q0 -58 -39.5 -101.5t-110.5 -43.5q-59 0 -92.5 37.5t-33.5 90.5q0 58 40 100.5t111 42.5q60 0 92.5 -37t32.5 -89zM600 1251q0 -58 -39.5 -101.5t-110.5 -43.5 q-60 0 -93.5 37.5t-33.5 90.5q0 57 40.5 100t111.5 43q60 0 92.5 -37t32.5 -89z"/>
<glyph glyph-name="eth" horiz-adv-x="1130" unicode="ð" d="M808 494q0 130 -16 201q-97 61 -217 61q-115 0 -176.5 -93t-61.5 -212q0 -125 60 -213.5t168 -88.5q111 0 177 100t66 245zM1065 580q0 -261 -132.5 -439.5t-367.5 -178.5q-237 0 -365 144.5t-128 348.5q0 187 125 338.5t349 151.5q100 0 204 -64h16q-36 158 -120 258 q-88 -48 -162 -102l-89 142q40 17 174 69q-74 65 -133 110l129 101q56 -29 161 -115q75 46 166 111l88 -145q-40 -17 -150 -69q235 -249 235 -661z"/>
<glyph glyph-name="ntilde" horiz-adv-x="1126" unicode="ñ" d="M1015 0h-266q22 253 22 512q0 157 -46.5 213t-141.5 56q-114 0 -216 -78q5 -390 5 -703h-269q18 313 18 492q0 239 -49 451l256 28l17 -106h16q137 118 315 118q154 0 246.5 -72.5t92.5 -267.5q0 -29 -2.5 -77.5t-2.5 -99.5q0 -135 5 -466zM960 1355q-112 -226 -256 -226 q-46 0 -121.5 23t-115.5 23q-91 0 -176 -107l-89 75q112 226 256 226q50 0 124 -23t113 -23q91 0 176 107z"/>
<glyph glyph-name="ograve" horiz-adv-x="1144" unicode="ò" d="M814 467q0 145 -68 243.5t-177 98.5q-106 0 -172.5 -92t-66.5 -230q0 -145 68 -243.5t177 -98.5q106 0 172.5 92t66.5 230zM1075 497q0 -252 -155 -394t-365 -142q-200 0 -343 129.5t-143 364.5q0 253 156 396t366 143q199 0 341.5 -130.5t142.5 -366.5zM702 1086h-175 q0 16 -138 164t-138 160h271q0 -11 90 -159.5t90 -164.5z"/>
<glyph glyph-name="oacute" horiz-adv-x="1144" unicode="ó" d="M814 467q0 145 -68 243.5t-177 98.5q-106 0 -172.5 -92t-66.5 -230q0 -145 68 -243.5t177 -98.5q106 0 172.5 92t66.5 230zM1075 497q0 -252 -155 -394t-365 -142q-200 0 -343 129.5t-143 364.5q0 253 156 396t366 143q199 0 341.5 -130.5t142.5 -366.5zM925 1410 q0 -12 -138 -160t-138 -164h-175q0 16 90 164.5t90 159.5h271z"/>
<glyph glyph-name="ocircumflex" horiz-adv-x="1144" unicode="ô" d="M814 467q0 145 -68 243.5t-177 98.5q-106 0 -172.5 -92t-66.5 -230q0 -145 68 -243.5t177 -98.5q106 0 172.5 92t66.5 230zM1075 497q0 -252 -155 -394t-365 -142q-200 0 -343 129.5t-143 364.5q0 253 156 396t366 143q199 0 341.5 -130.5t142.5 -366.5zM911 1086h-155 q0 16 -166 194q-166 -178 -166 -194h-155q0 16 95 164.5t95 159.5h262q0 -11 95 -159.5t95 -164.5z"/>
<glyph glyph-name="otilde" horiz-adv-x="1144" unicode="õ" d="M814 467q0 145 -68 243.5t-177 98.5q-106 0 -172.5 -92t-66.5 -230q0 -145 68 -243.5t177 -98.5q106 0 172.5 92t66.5 230zM1075 497q0 -252 -155 -394t-365 -142q-200 0 -343 129.5t-143 364.5q0 253 156 396t366 143q199 0 341.5 -130.5t142.5 -366.5zM1000 1355 q-112 -226 -256 -226q-46 0 -121.5 23t-115.5 23q-91 0 -176 -107l-89 75q112 226 256 226q50 0 124 -23t113 -23q91 0 176 107z"/>
<glyph glyph-name="odieresis" horiz-adv-x="1144" unicode="ö" d="M814 467q0 145 -68 243.5t-177 98.5q-106 0 -172.5 -92t-66.5 -230q0 -145 68 -243.5t177 -98.5q106 0 172.5 92t66.5 230zM1075 497q0 -252 -155 -394t-365 -142q-200 0 -343 129.5t-143 364.5q0 253 156 396t366 143q199 0 341.5 -130.5t142.5 -366.5zM538 1251 q0 -58 -39.5 -101.5t-110.5 -43.5q-59 0 -92.5 37.5t-33.5 90.5q0 58 40 100.5t111 42.5q60 0 92.5 -37t32.5 -89zM933 1251q0 -58 -39.5 -101.5t-110.5 -43.5q-60 0 -93.5 37.5t-33.5 90.5q0 57 40.5 100t111.5 43q60 0 92.5 -37t32.5 -89z"/>
<glyph glyph-name="divide" horiz-adv-x="1033" unicode="÷" d="M658 844q0 -58 -37 -99q-42 -46 -113 -46q-60 0 -95 39q-32 36 -32 89q0 57 38 98q43 45 114 45q60 0 94 -39q31 -35 31 -87zM652 173q0 -58 -37 -99q-42 -46 -113 -46q-60 0 -95 39q-32 36 -32 89q0 57 38 98q43 45 114 45q60 0 94 -39q31 -35 31 -87zM921 409h-810v180 h810v-180z"/>
<glyph glyph-name="oslash" horiz-adv-x="1144" unicode="ø" d="M814 467q0 70 -20 132q-128 -133 -370 -387q64 -67 151 -67q106 0 172.5 92t66.5 230zM745 711q-69 98 -176 98q-106 0 -172.5 -92t-66.5 -230q0 -98 33 -176zM1100 981q0 -37 -117 -174q92 -125 92 -310q0 -253 -155 -394.5t-365 -141.5q-161 0 -284 84 q-118 -132 -118 -159l-111 42q0 35 142 193q-115 132 -115 334q0 253 156 396t366 143q182 0 313 -106q84 101 84 130z"/>
<glyph glyph-name="ugrave" horiz-adv-x="1107" unicode="ù" d="M1005 1l-234 -8q-16 54 -16 86h-16q-131 -108 -306 -108q-165 0 -248.5 86.5t-83.5 345.5q0 31 1.5 87t1.5 98q0 111 -19 354l279 10q-16 -192 -16 -364q0 -245 36.5 -330t143.5 -85q117 0 202 56q0 526 -12 714l270 9q-10 -189 -10 -490q0 -223 27 -461zM672 1086h-175 q0 16 -138 164t-138 160h271q0 -11 90 -159.5t90 -164.5z"/>
<glyph glyph-name="uacute" horiz-adv-x="1107" unicode="ú" d="M1005 1l-234 -8q-16 54 -16 86h-16q-131 -108 -306 -108q-165 0 -248.5 86.5t-83.5 345.5q0 31 1.5 87t1.5 98q0 111 -19 354l279 10q-16 -192 -16 -364q0 -245 36.5 -330t143.5 -85q117 0 202 56q0 526 -12 714l270 9q-10 -189 -10 -490q0 -223 27 -461zM885 1410 q0 -12 -138 -160t-138 -164h-175q0 16 90 164.5t90 159.5h271z"/>
<glyph glyph-name="ucircumflex" horiz-adv-x="1107" unicode="û" d="M1005 1l-234 -8q-16 54 -16 86h-16q-131 -108 -306 -108q-165 0 -248.5 86.5t-83.5 345.5q0 31 1.5 87t1.5 98q0 111 -19 354l279 10q-16 -192 -16 -364q0 -245 36.5 -330t143.5 -85q117 0 202 56q0 526 -12 714l270 9q-10 -189 -10 -490q0 -223 27 -461zM886 1086h-155 q0 16 -166 194q-166 -178 -166 -194h-155q0 16 95 164.5t95 159.5h262q0 -11 95 -159.5t95 -164.5z"/>
<glyph glyph-name="udieresis" horiz-adv-x="1107" unicode="ü" d="M1005 1l-234 -8q-16 54 -16 86h-16q-131 -108 -306 -108q-165 0 -248.5 86.5t-83.5 345.5q0 31 1.5 87t1.5 98q0 111 -19 354l279 10q-16 -192 -16 -364q0 -245 36.5 -330t143.5 -85q117 0 202 56q0 526 -12 714l270 9q-10 -189 -10 -490q0 -223 27 -461zM498 1251 q0 -58 -39.5 -101.5t-110.5 -43.5q-59 0 -92.5 37.5t-33.5 90.5q0 58 40 100.5t111 42.5q60 0 92.5 -37t32.5 -89zM893 1251q0 -58 -39.5 -101.5t-110.5 -43.5q-60 0 -93.5 37.5t-33.5 90.5q0 57 40.5 100t111.5 43q60 0 92.5 -37t32.5 -89z"/>
<glyph glyph-name="yacute" horiz-adv-x="1002" unicode="ý" d="M968 950q0 -65 -143 -412q-163 -399 -201 -544q-65 -250 -175 -345q-106 -92 -318 -92l-20 193q124 0 204 70.5t80 188.5q0 119 -180 520.5t-180 420.5h309q0 -35 91 -339t91 -372h14q0 58 82.5 342.5t82.5 368.5h263zM875 1410q0 -12 -138 -160t-138 -164h-175 q0 16 90 164.5t90 159.5h271z"/>
<glyph glyph-name="thorn" horiz-adv-x="1136" unicode="þ" d="M801 490q0 125 -64 216.5t-175 91.5q-138 0 -202 -81q0 -342 6 -515q62 -49 162 -49q134 0 203.5 99.5t69.5 237.5zM1067 516q0 -217 -124.5 -381t-341.5 -164q-155 0 -222 63h-14q0 -236 13 -491h-282q24 506 24 1159q0 395 -33 704l287 16q-10 -233 -10 -527h12 q106 89 284 89q191 0 299 -137.5t108 -330.5z"/>
<glyph glyph-name="ydieresis" horiz-adv-x="1002" unicode="ÿ" d="M968 950q0 -65 -143 -412q-163 -399 -201 -544q-65 -250 -175 -345q-106 -92 -318 -92l-20 193q124 0 204 70.5t80 188.5q0 119 -180 520.5t-180 420.5h309q0 -35 91 -339t91 -372h14q0 58 82.5 342.5t82.5 368.5h263zM478 1251q0 -58 -39.5 -101.5t-110.5 -43.5 q-59 0 -92.5 37.5t-33.5 90.5q0 58 40 100.5t111 42.5q60 0 92.5 -37t32.5 -89zM873 1251q0 -58 -39.5 -101.5t-110.5 -43.5q-60 0 -93.5 37.5t-33.5 90.5q0 57 40.5 100t111.5 43q60 0 92.5 -37t32.5 -89z"/>
<glyph glyph-name="Amacron" horiz-adv-x="1290" unicode="Ā" d="M817 565q-171 516 -171 558h-16q0 -39 -177 -558h364zM1279 0h-320q0 66 -91 374h-462q-94 -303 -94 -374h-301q0 39 233.5 640t233.5 662h378q0 -57 211.5 -652.5t211.5 -649.5zM920 1621l-12 -174h-504l11 174h505z"/>
<glyph glyph-name="amacron" horiz-adv-x="1006" unicode="ā" d="M658 209q-6 135 -6 233q-341 0 -341 -173q0 -119 150 -119q118 0 197 59zM925 1l-236 -8q-16 42 -16 76h-13q-110 -94 -297 -94q-125 0 -207.5 69.5t-82.5 184.5q0 152 128.5 249t450.5 103q2 18 2 34q0 108 -52 142.5t-191 34.5q-151 0 -295 -40l22 184q136 47 384 47 q181 0 279.5 -76t98.5 -266q0 -42 -3.5 -153t-3.5 -148q0 -207 32 -339zM751 1335l-12 -174h-484l11 174h485z"/>
<glyph glyph-name="Abreve" horiz-adv-x="1290" unicode="Ă" d="M817 565q-171 516 -171 558h-16q0 -39 -177 -558h364zM1279 0h-320q0 66 -91 374h-462q-94 -303 -94 -374h-301q0 39 233.5 640t233.5 662h378q0 -57 211.5 -652.5t211.5 -649.5zM981 1630q-94 -251 -327 -251q-246 0 -329 251l132 60q72 -147 196 -147q120 0 196 147z "/>
<glyph glyph-name="abreve" horiz-adv-x="1006" unicode="ă" d="M658 209q-6 135 -6 233q-341 0 -341 -173q0 -119 150 -119q118 0 197 59zM925 1l-236 -8q-16 42 -16 76h-13q-110 -94 -297 -94q-125 0 -207.5 69.5t-82.5 184.5q0 152 128.5 249t450.5 103q2 18 2 34q0 108 -52 142.5t-191 34.5q-151 0 -295 -40l22 184q136 47 384 47 q181 0 279.5 -76t98.5 -266q0 -42 -3.5 -153t-3.5 -148q0 -207 32 -339zM842 1360q-94 -286 -327 -286q-246 0 -329 286l132 60q92 -182 196 -182q100 0 196 182z"/>
<glyph glyph-name="Aogonek" horiz-adv-x="1290" unicode="Ą" d="M817 565q-171 516 -171 558h-16q0 -39 -177 -558h364zM1279 0q-280 -31 -280 -202q0 -127 119 -127q31 0 79 10l28 -149q-62 -18 -139 -18q-143 0 -207 57q-67 61 -67 159q0 164 147 270q0 66 -91 374h-462q-94 -303 -94 -374h-301q0 39 233.5 640t233.5 662h378 q0 -57 211.5 -652.5t211.5 -649.5z"/>
<glyph glyph-name="aogonek" horiz-adv-x="1006" unicode="ą" d="M658 209q-6 135 -6 233q-341 0 -341 -173q0 -119 150 -119q118 0 197 59zM925 0q-208 -31 -208 -202q0 -127 119 -127q31 0 79 10l28 -149q-62 -18 -139 -18q-143 0 -208.5 59t-65.5 157q0 164 159 264q-16 41 -16 75h-13q-110 -94 -297 -94q-125 0 -207.5 69.5 t-82.5 184.5q0 152 128.5 249t450.5 103q2 18 2 34q0 108 -52 142.5t-191 34.5q-151 0 -295 -40l22 184q136 47 384 47q181 0 279.5 -76t98.5 -266q0 -42 -3.5 -153t-3.5 -148q0 -207 32 -340z"/>
<glyph glyph-name="Cacute" horiz-adv-x="1131" unicode="Ć" d="M1076 237l-17 -230q-142 -34 -280 -34q-343 0 -522.5 189.5t-179.5 460.5q0 281 190.5 489t522.5 208q122 0 231 -28l-35 -231q-118 38 -226 38q-203 0 -302 -128.5t-99 -312.5q0 -188 117.5 -326t329.5 -138q124 0 270 43zM1125 1690q0 -12 -133 -135t-143 -139h-175 q0 16 80 139.5t80 134.5h291z"/>
<glyph glyph-name="cacute" horiz-adv-x="912" unicode="ć" d="M868 210l-17 -191q-91 -48 -247 -48q-258 0 -396.5 144t-138.5 346q0 210 145 366.5t397 156.5q123 0 219 -28l-34 -204q-92 38 -206 38q-121 0 -191 -85.5t-70 -210.5q0 -136 83 -230t235 -94q89 0 221 40zM919 1410q0 -12 -138 -160t-138 -164h-175q0 16 90 164.5 t90 159.5h271z"/>
<glyph glyph-name="Ccircumflex" horiz-adv-x="1131" unicode="Ĉ" d="M1076 237l-17 -230q-142 -34 -280 -34q-343 0 -522.5 189.5t-179.5 460.5q0 281 190.5 489t522.5 208q122 0 231 -28l-35 -231q-118 38 -226 38q-203 0 -302 -128.5t-99 -312.5q0 -188 117.5 -326t329.5 -138q124 0 270 43zM1055 1416h-155q-10 16 -166 134 q-156 -118 -166 -134h-155q0 16 100 139.5t100 134.5h242q0 -11 100 -134.5t100 -139.5z"/>
<glyph glyph-name="ccircumflex" horiz-adv-x="912" unicode="ĉ" d="M868 210l-17 -191q-91 -48 -247 -48q-258 0 -396.5 144t-138.5 346q0 210 145 366.5t397 156.5q123 0 219 -28l-34 -204q-92 38 -206 38q-121 0 -191 -85.5t-70 -210.5q0 -136 83 -230t235 -94q89 0 221 40zM863 1086h-155q0 16 -166 194q-166 -178 -166 -194h-155 q0 16 95 164.5t95 159.5h262q0 -11 95 -159.5t95 -164.5z"/>
<glyph glyph-name="Cdotaccent" horiz-adv-x="1131" unicode="Ċ" d="M1076 237l-17 -230q-142 -34 -280 -34q-343 0 -522.5 189.5t-179.5 460.5q0 281 190.5 489t522.5 208q122 0 231 -28l-35 -231q-118 38 -226 38q-203 0 -302 -128.5t-99 -312.5q0 -188 117.5 -326t329.5 -138q124 0 270 43zM914 1566q0 -68 -46.5 -119t-129.5 -51 q-70 0 -109.5 44t-39.5 106q0 68 46.5 118t130.5 50q71 0 109.5 -43.5t38.5 -104.5z"/>
<glyph glyph-name="cdotaccent" horiz-adv-x="912" unicode="ċ" d="M868 210l-17 -191q-91 -48 -247 -48q-258 0 -396.5 144t-138.5 346q0 210 145 366.5t397 156.5q123 0 219 -28l-34 -204q-92 38 -206 38q-121 0 -191 -85.5t-70 -210.5q0 -136 83 -230t235 -94q89 0 221 40zM752 1252q0 -68 -46.5 -119t-129.5 -51q-70 0 -109.5 44 t-39.5 106q0 68 46.5 118t130.5 50q71 0 109.5 -43.5t38.5 -104.5z"/>
<glyph glyph-name="Ccaron" horiz-adv-x="1131" unicode="Č" d="M1076 237l-17 -230q-142 -34 -280 -34q-343 0 -522.5 189.5t-179.5 460.5q0 281 190.5 489t522.5 208q122 0 231 -28l-35 -231q-118 38 -226 38q-203 0 -302 -128.5t-99 -312.5q0 -188 117.5 -326t329.5 -138q124 0 270 43zM1075 1690q0 -16 -100 -139.5t-100 -134.5 h-242q0 11 -100 134.5t-100 139.5h155q10 -16 166 -134q156 118 166 134h155z"/>
<glyph glyph-name="ccaron" horiz-adv-x="912" unicode="č" d="M868 210l-17 -191q-91 -48 -247 -48q-258 0 -396.5 144t-138.5 346q0 210 145 366.5t397 156.5q123 0 219 -28l-34 -204q-92 38 -206 38q-121 0 -191 -85.5t-70 -210.5q0 -136 83 -230t235 -94q89 0 221 40zM902 1410q0 -16 -95 -164.5t-95 -159.5h-262q0 11 -95 159.5 t-95 164.5h155q0 -16 166 -194q166 178 166 194h155z"/>
<glyph glyph-name="Dcaron" horiz-adv-x="1321" unicode="Ď" d="M971 653q0 192 -112 323.5t-342 131.5q-43 0 -118 -9q10 -200 10 -418q0 -239 10 -474q65 -13 130 -13q215 0 318.5 133.5t103.5 325.5zM1244 696q0 -284 -182 -496t-510 -212q-148 0 -408 12q13 302 13 681q0 364 -13 621h175q43 0 128 3t111 3q361 0 523.5 -180 t162.5 -432zM973 1690q0 -16 -100 -139.5t-100 -134.5h-242q0 11 -100 134.5t-100 139.5h155q10 -16 166 -134q156 118 166 134h155z"/>
<glyph glyph-name="dcaron" horiz-adv-x="1342" unicode="ď" d="M776 228q0 319 -15 528q-69 48 -165 48q-132 0 -196 -98t-64 -240q0 -126 62 -217.5t172 -91.5q147 0 206 71zM1027 1l-237 -8q-7 35 -7 73h-15q-110 -95 -281 -95q-192 0 -305 139t-113 330q0 219 123 381.5t342 162.5q142 0 213 -53h14q0 236 -23 475l283 8 q-16 -233 -16 -670q0 -443 22 -743zM1384 1177q0 -222 -204 -351l-66 55q54 89 54 174q-80 39 -80 120q0 62 43 107.5t119 45.5q63 0 98.5 -46t35.5 -105z"/>
<glyph glyph-name="Dcroat" horiz-adv-x="1321" unicode="Đ" d="M971 653q0 189 -115 322t-339 133q-51 0 -118 -8q11 -128 11 -315v-32q99 5 329 26l-9 -176q-70 0 -320 -7q0 -224 9 -389q65 -13 135 -13q210 0 313.5 133.5t103.5 325.5zM1244 696q0 -282 -181 -495t-502 -213q-157 0 -417 12q13 248 13 582q-56 -4 -146 -14l9 179 q80 -1 137 -1q0 307 -13 556h175q44 0 130 3t129 3q335 0 500.5 -176t165.5 -436z"/>
<glyph glyph-name="dcroat" horiz-adv-x="1136" unicode="đ" d="M776 228q0 319 -15 498q-69 48 -165 48q-133 0 -196.5 -98.5t-63.5 -224.5t62 -210t172 -84q147 0 206 71zM1133 1238l-9 -142h-116q-3 -156 -3 -352q0 -443 22 -743l-237 -10q-7 37 -7 76l-15 -1q-110 -95 -281 -95q-192 0 -305 131.5t-113 322.5q0 202 124 365.5 t341 163.5q142 0 213 -53h14q0 82 -3 195h-250l6 142h237q-5 84 -13 161l283 15q-6 -77 -9 -176h121z"/>
<glyph glyph-name="Emacron" horiz-adv-x="1080" unicode="Ē" d="M1003 220l-8 -220h-851q13 302 13 681q0 364 -13 621h812l-11 -219q-300 16 -544 16q10 -139 10 -328q209 0 447 11v-209q-234 10 -447 10q0 -203 8 -380q274 0 584 17zM841 1621l-12 -174h-504l11 174h505z"/>
<glyph glyph-name="emacron" horiz-adv-x="1049" unicode="ē" d="M746 586q0 230 -196 230q-187 0 -222 -238zM980 577q0 -51 -6 -133l-644 -11q14 -113 97 -188t218 -75q150 0 319 45l-20 -194q-138 -50 -342 -50q-258 0 -395.5 145t-137.5 349q0 213 130.5 369.5t362.5 156.5q212 0 315 -115t103 -299zM823 1335l-12 -174h-484l11 174 h485z"/>
<glyph glyph-name="Ebreve" horiz-adv-x="1080" unicode="Ĕ" d="M1003 220l-8 -220h-851q13 302 13 681q0 364 -13 621h812l-11 -219q-300 16 -544 16q10 -139 10 -328q209 0 447 11v-209q-234 10 -447 10q0 -203 8 -380q274 0 584 17zM921 1630q-94 -251 -327 -251q-246 0 -329 251l132 60q72 -147 196 -147q120 0 196 147z"/>
<glyph glyph-name="ebreve" horiz-adv-x="1049" unicode="ĕ" d="M746 586q0 230 -196 230q-187 0 -222 -238zM980 577q0 -51 -6 -133l-644 -11q14 -113 97 -188t218 -75q150 0 319 45l-20 -194q-138 -50 -342 -50q-258 0 -395.5 145t-137.5 349q0 213 130.5 369.5t362.5 156.5q212 0 315 -115t103 -299zM904 1360q-94 -286 -327 -286 q-246 0 -329 286l132 60q92 -182 196 -182q100 0 196 182z"/>
<glyph glyph-name="Edotaccent" horiz-adv-x="1080" unicode="Ė" d="M1003 220l-8 -220h-851q13 302 13 681q0 364 -13 621h812l-11 -219q-300 16 -544 16q10 -139 10 -328q209 0 447 11v-209q-234 10 -447 10q0 -203 8 -380q274 0 584 17zM754 1566q0 -68 -46.5 -119t-129.5 -51q-70 0 -109.5 44t-39.5 106q0 68 46.5 118t130.5 50 q71 0 109.5 -43.5t38.5 -104.5z"/>
<glyph glyph-name="edotaccent" horiz-adv-x="1049" unicode="ė" d="M746 586q0 230 -196 230q-187 0 -222 -238zM980 577q0 -51 -6 -133l-644 -11q14 -113 97 -188t218 -75q150 0 319 45l-20 -194q-138 -50 -342 -50q-258 0 -395.5 145t-137.5 349q0 213 130.5 369.5t362.5 156.5q212 0 315 -115t103 -299zM733 1252q0 -68 -46.5 -119 t-129.5 -51q-70 0 -109.5 44t-39.5 106q0 68 46.5 118t130.5 50q71 0 109.5 -43.5t38.5 -104.5z"/>
<glyph glyph-name="Eogonek" horiz-adv-x="1080" unicode="Ę" d="M983 -468q-62 -18 -139 -18q-143 0 -208.5 59t-65.5 157q0 164 167 260v10h-593q13 302 13 681q0 364 -13 621h810l-9 -219q-300 16 -544 16q10 -139 10 -328q209 0 447 11v-209q-234 10 -447 10q0 -203 8 -380q274 0 584 17l-8 -220q-238 -41 -238 -202q0 -127 119 -127 q31 0 79 10z"/>
<glyph glyph-name="eogonek" horiz-adv-x="1049" unicode="ę" d="M746 586q0 230 -196 230q-187 0 -222 -238zM980 577q0 -51 -6 -133l-644 -11q14 -113 97 -188t218 -75q150 0 319 45l-20 -194q-212 -78 -212 -223q0 -127 119 -127q31 0 79 10l28 -149q-62 -18 -139 -18q-143 0 -208.5 59t-65.5 157q0 164 144 234v10q-42 -3 -87 -3 q-258 0 -395.5 145t-137.5 349q0 213 130.5 369.5t362.5 156.5q212 0 315 -115t103 -299z"/>
<glyph glyph-name="Ecaron" horiz-adv-x="1080" unicode="Ě" d="M1003 220l-8 -220h-851q13 302 13 681q0 364 -13 621h812l-11 -219q-300 16 -544 16q10 -139 10 -328q209 0 447 11v-209q-234 10 -447 10q0 -203 8 -380q274 0 584 17zM918 1690q0 -16 -100 -139.5t-100 -134.5h-242q0 11 -100 134.5t-100 139.5h155q10 -16 166 -134 q156 118 166 134h155z"/>
<glyph glyph-name="ecaron" horiz-adv-x="1049" unicode="ě" d="M746 586q0 230 -196 230q-187 0 -222 -238zM980 577q0 -51 -6 -133l-644 -11q14 -113 97 -188t218 -75q150 0 319 45l-20 -194q-138 -50 -342 -50q-258 0 -395.5 145t-137.5 349q0 213 130.5 369.5t362.5 156.5q212 0 315 -115t103 -299zM906 1410q0 -16 -95 -164.5 t-95 -159.5h-262q0 11 -95 159.5t-95 164.5h155q0 -16 166 -194q166 178 166 194h155z"/>
<glyph glyph-name="Gcircumflex" horiz-adv-x="1273" unicode="Ĝ" d="M1174 34q-238 -61 -398 -61q-344 0 -521.5 188.5t-177.5 457.5q0 283 193.5 492t536.5 209q161 0 284 -29l-33 -236q-157 41 -282 41q-211 0 -315 -129.5t-104 -316.5q0 -191 116.5 -333t321.5 -142q57 0 132 12q-15 111 -15 218q0 108 -21 243h283q-8 -154 -8 -310 q0 -113 8 -304zM1070 1416h-155q-10 16 -166 134q-156 -118 -166 -134h-155q0 16 100 139.5t100 134.5h242q0 -11 100 -134.5t100 -139.5z"/>
<glyph glyph-name="gcircumflex" horiz-adv-x="1128" unicode="ĝ" d="M706 650q0 90 -58 137t-133 47t-131.5 -45.5t-56.5 -133.5q0 -89 58 -135t135 -46q73 0 129.5 44.5t56.5 131.5zM824 -173q0 74 -56.5 107t-194.5 33q-112 0 -226 10q-88 -52 -88 -155q0 -192 256 -192q143 0 226 54t83 143zM1109 1088l-22 -186q-156 0 -195 -45v-13 q59 -75 59 -168q0 -143 -105.5 -244t-314.5 -101q-102 0 -167 16q-53 -24 -53 -63q0 -61 63.5 -85.5t295.5 -24.5q401 0 401 -273q0 -192 -167 -305t-406 -113q-468 0 -468 294q0 91 52.5 154.5t121.5 77.5v15q-84 53 -84 162q0 110 115 184v14q-162 81 -162 253 q0 147 111.5 246t344.5 99q159 0 258 -60h14q29 189 194 189q65 0 114 -23zM833 1086h-155q0 16 -166 194q-166 -178 -166 -194h-155q0 16 95 164.5t95 159.5h262q0 -11 95 -159.5t95 -164.5z"/>
<glyph glyph-name="Gbreve" horiz-adv-x="1273" unicode="Ğ" d="M1174 34q-238 -61 -398 -61q-344 0 -521.5 188.5t-177.5 457.5q0 283 193.5 492t536.5 209q161 0 284 -29l-33 -236q-157 41 -282 41q-211 0 -315 -129.5t-104 -316.5q0 -191 116.5 -333t321.5 -142q57 0 132 12q-15 111 -15 218q0 108 -21 243h283q-8 -154 -8 -310 q0 -113 8 -304zM1081 1630q-94 -251 -327 -251q-246 0 -329 251l132 60q72 -147 196 -147q120 0 196 147z"/>
<glyph glyph-name="gbreve" horiz-adv-x="1128" unicode="ğ" d="M706 650q0 90 -58 137t-133 47t-131.5 -45.5t-56.5 -133.5q0 -89 58 -135t135 -46q73 0 129.5 44.5t56.5 131.5zM824 -173q0 74 -56.5 107t-194.5 33q-112 0 -226 10q-88 -52 -88 -155q0 -192 256 -192q143 0 226 54t83 143zM1109 1088l-22 -186q-156 0 -195 -45v-13 q59 -75 59 -168q0 -143 -105.5 -244t-314.5 -101q-102 0 -167 16q-53 -24 -53 -63q0 -61 63.5 -85.5t295.5 -24.5q401 0 401 -273q0 -192 -167 -305t-406 -113q-468 0 -468 294q0 91 52.5 154.5t121.5 77.5v15q-84 53 -84 162q0 110 115 184v14q-162 81 -162 253 q0 147 111.5 246t344.5 99q159 0 258 -60h14q29 189 194 189q65 0 114 -23zM867 1360q-94 -286 -327 -286q-246 0 -329 286l132 60q92 -182 196 -182q100 0 196 182z"/>
<glyph glyph-name="Gdotaccent" horiz-adv-x="1273" unicode="Ġ" d="M1174 34q-238 -61 -398 -61q-344 0 -521.5 188.5t-177.5 457.5q0 283 193.5 492t536.5 209q161 0 284 -29l-33 -236q-157 41 -282 41q-211 0 -315 -129.5t-104 -316.5q0 -191 116.5 -333t321.5 -142q57 0 132 12q-15 111 -15 218q0 108 -21 243h283q-8 -154 -8 -310 q0 -113 8 -304zM921 1566q0 -68 -46.5 -119t-129.5 -51q-70 0 -109.5 44t-39.5 106q0 68 46.5 118t130.5 50q71 0 109.5 -43.5t38.5 -104.5z"/>
<glyph glyph-name="gdotaccent" horiz-adv-x="1128" unicode="ġ" d="M706 650q0 90 -58 137t-133 47t-131.5 -45.5t-56.5 -133.5q0 -89 58 -135t135 -46q73 0 129.5 44.5t56.5 131.5zM824 -173q0 74 -56.5 107t-194.5 33q-112 0 -226 10q-88 -52 -88 -155q0 -192 256 -192q143 0 226 54t83 143zM1109 1088l-22 -186q-156 0 -195 -45v-13 q59 -75 59 -168q0 -143 -105.5 -244t-314.5 -101q-102 0 -167 16q-53 -24 -53 -63q0 -61 63.5 -85.5t295.5 -24.5q401 0 401 -273q0 -192 -167 -305t-406 -113q-468 0 -468 294q0 91 52.5 154.5t121.5 77.5v15q-84 53 -84 162q0 110 115 184v14q-162 81 -162 253 q0 147 111.5 246t344.5 99q159 0 258 -60h14q29 189 194 189q65 0 114 -23zM699 1252q0 -68 -46.5 -119t-129.5 -51q-70 0 -109.5 44t-39.5 106q0 68 46.5 118t130.5 50q71 0 109.5 -43.5t38.5 -104.5z"/>
<glyph glyph-name="Gcommaaccent" horiz-adv-x="1273" unicode="Ģ" d="M1174 34q-238 -61 -398 -61q-344 0 -521.5 188.5t-177.5 457.5q0 283 193.5 492t536.5 209q161 0 284 -29l-33 -236q-157 41 -282 41q-211 0 -315 -129.5t-104 -316.5q0 -191 116.5 -333t321.5 -142q57 0 132 12q-15 111 -15 218q0 108 -21 243h283q-8 -154 -8 -310 q0 -113 8 -304zM837 -210q0 -188 -200 -314l-64 54q58 75 58 156q-64 38 -64 102q0 61 37 100.5t102 39.5q61 0 96 -40t35 -98z"/>
<glyph glyph-name="gcommaaccent" horiz-adv-x="1128" unicode="ģ" d="M706 650q0 90 -58 137t-133 47t-131.5 -45.5t-56.5 -133.5q0 -89 58 -135t135 -46q73 0 129.5 44.5t56.5 131.5zM824 -173q0 74 -56.5 107t-194.5 33q-112 0 -226 10q-88 -52 -88 -155q0 -192 256 -192q143 0 226 54t83 143zM1109 1088l-22 -186q-156 0 -195 -45v-13 q59 -75 59 -168q0 -143 -105.5 -244t-314.5 -101q-102 0 -167 16q-53 -24 -53 -63q0 -61 63.5 -85.5t295.5 -24.5q401 0 401 -273q0 -192 -167 -305t-406 -113q-468 0 -468 294q0 91 52.5 154.5t121.5 77.5v15q-84 53 -84 162q0 110 115 184v14q-162 81 -162 253 q0 147 111.5 246t344.5 99q159 0 258 -60h14q29 189 194 189q65 0 114 -23zM692 1235q0 -62 -43 -107.5t-119 -45.5q-63 0 -98.5 46t-35.5 105q0 222 204 351l64 -54q-49 -66 -49 -159q77 -50 77 -136z"/>
<glyph glyph-name="Hcircumflex" horiz-adv-x="1338" unicode="Ĥ" d="M1194 0h-283q10 331 10 574h-504q0 -218 10 -574h-283q13 330 13 681q0 355 -13 621h283q-12 -281 -12 -520h508q0 211 -12 520h283q-14 -254 -14 -621q0 -383 14 -681zM983 1416h-155q-10 16 -166 134q-156 -118 -166 -134h-155q0 16 100 139.5t100 134.5h242 q0 -11 100 -134.5t100 -139.5z"/>
<glyph glyph-name="hcircumflex" horiz-adv-x="1126" unicode="ĥ" d="M1015 0h-266q22 253 22 492q0 178 -45 233.5t-148 55.5q-109 0 -214 -73q0 -425 10 -708h-266q11 310 11 743q0 399 -31 663l283 16q-15 -322 -15 -560h13q132 121 302 121q161 0 252.5 -73t91.5 -257q0 -19 -2.5 -77.5t-2.5 -77.5q0 -167 5 -498zM551 1416h-155 q-10 16 -166 134q-156 -118 -166 -134h-155q0 16 100 139.5t100 134.5h242q0 -11 100 -134.5t100 -139.5z"/>
<glyph glyph-name="Hbar" horiz-adv-x="1338" unicode="Ħ" d="M923 782q0 71 -2 154h-505q-1 -79 -1 -154h508zM1278 1084l-10 -148h-87q-1 -120 -1 -255q0 -383 14 -681h-283q10 331 10 574h-504q0 -218 10 -574h-283q13 330 13 681q0 134 -2 255h-96l10 148h83q-3 115 -8 218h283q-5 -113 -8 -218h499q-3 102 -7 218h283 q-6 -100 -9 -218h93z"/>
<glyph glyph-name="hbar" horiz-adv-x="1126" unicode="ħ" d="M1015 0h-266q22 253 22 492q0 152 -53 212q-42 47 -140 47q-109 0 -214 -73q0 -395 10 -678h-266q11 310 11 743q0 192 -7 353h-106l6 142h91q-6 90 -15 168l283 16q-5 -97 -8 -184h307l-6 -142h-305q-3 -126 -3 -264h13q134 121 292 121q169 0 254 -66q100 -79 100 -264 q0 -19 -2.5 -67.5t-2.5 -77.5q0 -147 5 -478z"/>
<glyph glyph-name="Itilde" horiz-adv-x="571" unicode="Ĩ" d="M427 0h-283q13 310 13 681q0 365 -13 621h283q-13 -252 -13 -621q0 -377 13 -681zM662 1625q-112 -196 -256 -196q-46 0 -121.5 23t-115.5 23q-91 0 -176 -67l-89 75q112 186 256 186q50 0 124 -23t113 -23q91 0 176 77z"/>
<glyph glyph-name="itilde" horiz-adv-x="510" unicode="ĩ" d="M395 0h-269q14 207 14 475q0 266 -34 466l288 29q-13 -194 -13 -495q0 -257 14 -475zM648 1355q-112 -226 -256 -226q-46 0 -121.5 23t-115.5 23q-91 0 -176 -107l-89 75q112 226 256 226q50 0 124 -23t113 -23q91 0 176 107z"/>
<glyph glyph-name="Imacron" horiz-adv-x="571" unicode="Ī" d="M427 0h-283q13 310 13 681q0 365 -13 621h283q-13 -252 -13 -621q0 -377 13 -681zM544 1621l-12 -174h-504l11 174h505z"/>
<glyph glyph-name="imacron" horiz-adv-x="510" unicode="ī" d="M395 0h-269q14 207 14 475q0 266 -34 466l288 29q-13 -194 -13 -495q0 -257 14 -475zM506 1335l-12 -174h-484l11 174h485z"/>
<glyph glyph-name="Ibreve" horiz-adv-x="571" unicode="Ĭ" d="M427 0h-283q13 310 13 681q0 365 -13 621h283q-13 -252 -13 -621q0 -377 13 -681zM614 1630q-94 -251 -327 -251q-246 0 -329 251l132 60q72 -147 196 -147q120 0 196 147z"/>
<glyph glyph-name="ibreve" horiz-adv-x="510" unicode="ĭ" d="M395 0h-269q14 207 14 475q0 266 -34 466l288 29q-13 -194 -13 -495q0 -257 14 -475zM593 1360q-94 -286 -327 -286q-246 0 -329 286l132 60q92 -182 196 -182q100 0 196 182z"/>
<glyph glyph-name="Iogonek" horiz-adv-x="571" unicode="Į" d="M430 -468q-62 -18 -139 -18q-143 0 -208.5 59t-65.5 157q0 164 127 270q13 310 13 681q0 365 -13 621h283q-13 -252 -13 -621q0 -377 13 -681q-223 -31 -223 -202q0 -127 119 -127q31 0 79 10z"/>
<glyph glyph-name="iogonek" horiz-adv-x="510" unicode="į" d="M441 1252q0 -68 -44 -116q-49 -54 -132 -54q-70 0 -112 46q-37 42 -37 104q0 68 44 115q49 53 133 53q71 0 111 -45q37 -42 37 -103zM412 -468q-62 -18 -139 -18q-143 0 -207 57q-67 61 -67 159q0 164 127 270q14 207 14 475q0 266 -34 466l288 29q-13 -194 -13 -495 q0 -257 14 -475h-1q-208 -31 -208 -202q0 -127 119 -127q31 0 79 10z"/>
<glyph glyph-name="Idotaccent" horiz-adv-x="571" unicode="İ" d="M427 0h-283q13 310 13 681q0 365 -13 621h283q-13 -252 -13 -621q0 -377 13 -681zM462 1566q0 -68 -46.5 -119t-129.5 -51q-70 0 -109.5 44t-39.5 106q0 68 46.5 118t130.5 50q71 0 109.5 -43.5t38.5 -104.5z"/>
<glyph glyph-name="dotlessi" horiz-adv-x="510" unicode="ı" d="M395 0h-269q14 207 14 475q0 266 -34 466l288 29q-13 -194 -13 -495q0 -257 14 -475z"/>
<glyph glyph-name="IJ" horiz-adv-x="1389" unicode="Ĳ" d="M427 0h-283q13 310 13 681q0 365 -13 621h283q-13 -252 -13 -621q0 -377 13 -681zM1267 1302q-12 -298 -12 -736q0 -333 -137 -473q-116 -120 -361 -120q-88 0 -175 21l18 215q67 -30 134 -30q131 0 190 57q85 82 85 310q0 457 -15 756h273z"/>
<glyph glyph-name="ij" horiz-adv-x="1020" unicode="ĳ" d="M441 1252q0 -68 -46.5 -119t-129.5 -51q-70 0 -109.5 44t-39.5 106q0 68 46.5 118t130.5 50q71 0 109.5 -43.5t38.5 -104.5zM395 0h-269q14 207 14 475q0 266 -34 466l288 29q-13 -194 -13 -495q0 -257 14 -475zM948 1253q0 -68 -47 -119t-130 -51q-70 0 -109.5 44 t-39.5 106q0 68 47 118t131 50q71 0 109.5 -43.5t38.5 -104.5zM904 971q-14 -303 -14 -602q0 -78 4 -214.5t4 -182.5q0 -369 -295 -428l-73 140q71 57 96.5 167.5t25.5 465.5q0 403 -36 626z"/>
<glyph glyph-name="Jcircumflex" horiz-adv-x="796" unicode="Ĵ" d="M696 1302q-12 -298 -12 -736q0 -333 -137 -473q-116 -120 -361 -120q-88 0 -175 21l18 215q67 -30 134 -30q131 0 190 57q85 82 85 310q0 457 -15 756h273zM881 1416h-155q-10 16 -166 134q-156 -118 -166 -134h-155q0 16 100 139.5t100 134.5h242q0 -11 100 -134.5 t100 -139.5z"/>
<glyph glyph-name="jcircumflex" horiz-adv-x="510" unicode="ĵ" d="M584 1086h-155q0 16 -166 194q-166 -178 -166 -194h-155q0 16 95 164.5t95 159.5h262q0 -11 95 -159.5t95 -164.5zM394 971q-14 -303 -14 -602q0 -78 4 -214.5t4 -182.5q0 -369 -295 -428l-73 140q71 57 93 152q29 126 29 481q0 403 -36 626z"/>
<glyph glyph-name="Kcommaaccent" horiz-adv-x="1207" unicode="Ķ" d="M1196 0h-327q0 46 -169 317q-180 289 -255 289h-30q0 -228 11 -606h-282q13 302 13 681q0 364 -13 621h282q-11 -277 -11 -520h22q44 0 222 246q173 239 173 274h298q0 -33 -183 -249q-189 -223 -276 -284v-15q102 -53 321 -395q204 -318 204 -359zM783 -210 q0 -188 -200 -314l-64 54q58 75 58 156q-64 38 -64 102q0 61 37 100.5t102 39.5q61 0 96 -40t35 -98z"/>
<glyph glyph-name="kcommaaccent" horiz-adv-x="1045" unicode="ķ" d="M1029 0h-306q0 37 -152 250.5t-194 213.5h-13q0 -205 12 -464h-265q12 467 12 743q0 382 -31 663l284 16q-14 -380 -14 -679q0 -38 1 -148h14q28 0 159 161.5t131 193.5h298q0 -31 -136 -173t-220 -196v-15q93 -65 256.5 -295.5t163.5 -270.5zM676 -210q0 -188 -200 -314 l-64 54q58 75 58 156q-64 38 -64 102q0 61 37 100.5t102 39.5q61 0 96 -40t35 -98z"/>
<glyph glyph-name="kgreenlandic" horiz-adv-x="1045" unicode="ĸ" d="M1029 0h-306q0 37 -150 248q-154 216 -196 216h-10q0 -205 9 -464h-265q12 215 12 566q0 158 -31 379l284 16q-11 -157 -11 -366h12q28 0 159 161.5t131 193.5h298q0 -31 -136 -173t-220 -196v-15q93 -65 261 -302q159 -224 159 -264z"/>
<glyph glyph-name="Lacute" horiz-adv-x="994" unicode="Ĺ" d="M983 218l-8 -218h-831q12 271 12 681q0 376 -12 621h281q-12 -227 -12 -621q0 -301 -13 -478q276 0 583 15zM632 1690q0 -12 -133 -135t-143 -139h-175q0 16 80 139.5t80 134.5h291z"/>
<glyph glyph-name="lacute" horiz-adv-x="528" unicode="ĺ" d="M410 0h-273q15 343 15 743q0 390 -31 663l289 16q-15 -283 -15 -679q0 -402 15 -743zM583 1790q0 -12 -133 -135t-143 -139h-175q0 16 80 139.5t80 134.5h291z"/>
<glyph glyph-name="Lcommaaccent" horiz-adv-x="994" unicode="Ļ" d="M983 218l-8 -218h-831q12 271 12 681q0 376 -12 621h281q-12 -227 -12 -621q0 -301 -13 -478q276 0 583 15zM696 -210q0 -188 -200 -314l-64 54q58 75 58 156q-64 38 -64 102q0 61 37 100.5t102 39.5q61 0 96 -40t35 -98z"/>
<glyph glyph-name="lcommaaccent" horiz-adv-x="528" unicode="ļ" d="M410 0h-273q15 343 15 743q0 390 -31 663l289 16q-15 -283 -15 -679q0 -402 15 -743zM409 -210q0 -188 -200 -314l-64 54q58 75 58 156q-64 38 -64 102q0 61 37 100.5t102 39.5q61 0 96 -40t35 -98z"/>
<glyph glyph-name="Lcaron" horiz-adv-x="994" unicode="Ľ" d="M983 218l-8 -218h-831q12 271 12 681q0 376 -12 621h281q-12 -227 -12 -621q0 -301 -13 -478q276 0 583 15zM1018 1177q0 -222 -204 -351l-66 55q54 89 54 174q-80 39 -80 120q0 62 43 107.5t119 45.5q63 0 98.5 -46t35.5 -105z"/>
<glyph glyph-name="lcaron" horiz-adv-x="730" unicode="ľ" d="M410 0h-273q15 343 15 743q0 390 -31 663l289 16q-15 -283 -15 -679q0 -402 15 -743zM772 1177q0 -222 -204 -351l-66 55q54 89 54 174q-80 39 -80 120q0 62 43 107.5t119 45.5q63 0 98.5 -46t35.5 -105z"/>
<glyph glyph-name="Ldot" horiz-adv-x="994" unicode="Ŀ" d="M983 218l-8 -218h-831q12 271 12 681q0 376 -12 621h281q-12 -227 -12 -621q0 -301 -13 -478q276 0 583 15zM1000 713q0 -68 -46.5 -119t-129.5 -51q-70 0 -109.5 44t-39.5 106q0 68 46.5 118t130.5 50q71 0 109.5 -43.5t38.5 -104.5z"/>
<glyph glyph-name="ldot" horiz-adv-x="779" unicode="ŀ" d="M410 0h-273q15 343 15 743q0 390 -31 663l289 16q-15 -283 -15 -679q0 -402 15 -743zM819 613q0 -68 -46.5 -119t-129.5 -51q-70 0 -109.5 44t-39.5 106q0 68 46.5 118t130.5 50q71 0 109.5 -43.5t38.5 -104.5z"/>
<glyph glyph-name="Lslash" horiz-adv-x="994" unicode="Ł" d="M983 218l-8 -218h-831q9 203 11 465l-97 -72l-82 128l180 114v46q0 376 -12 621h281q-10 -191 -12 -499l345 242l103 -136l-448 -273q-1 -264 -13 -433q276 0 583 15z"/>
<glyph glyph-name="lslash" horiz-adv-x="640" unicode="ł" d="M716 934l-272 -202q0 -315 14 -732h-274q6 122 15 538l-123 -110l-80 95l204 162q0 510 -31 721l289 16q-7 -115 -15 -534l168 149z"/>
<glyph glyph-name="Nacute" horiz-adv-x="1361" unicode="Ń" d="M1217 0h-247q0 41 -275 433q-288 413 -328 565h-16q25 -219 25 -396q0 -247 14 -602h-246q15 310 15 681q0 365 -15 621h297q0 -53 247 -423q263 -393 302 -533h15q-24 223 -24 400q0 271 -14 556h250q-14 -248 -14 -621q0 -376 14 -681zM1000 1690q0 -12 -133 -135 t-143 -139h-175q0 16 80 139.5t80 134.5h291z"/>
<glyph glyph-name="nacute" horiz-adv-x="1126" unicode="ń" d="M1015 0h-266q22 253 22 512q0 157 -46.5 213t-141.5 56q-114 0 -216 -78q5 -390 5 -703h-269q18 313 18 492q0 239 -49 451l256 28l17 -106h16q137 118 315 118q154 0 246.5 -72.5t92.5 -267.5q0 -29 -2.5 -77.5t-2.5 -99.5q0 -135 5 -466zM971 1410q0 -12 -138 -160 t-138 -164h-175q0 16 90 164.5t90 159.5h271z"/>
<glyph glyph-name="Ncommaaccent" horiz-adv-x="1361" unicode="Ņ" d="M1217 0h-247q0 41 -275 433q-288 413 -328 565h-16q25 -219 25 -396q0 -247 14 -602h-246q15 310 15 681q0 365 -15 621h297q0 -53 247 -423q263 -393 302 -533h15q-24 223 -24 400q0 271 -14 556h250q-14 -248 -14 -621q0 -376 14 -681zM812 -210q0 -188 -200 -314 l-64 54q58 75 58 156q-64 38 -64 102q0 61 37 100.5t102 39.5q61 0 96 -40t35 -98z"/>
<glyph glyph-name="ncommaaccent" horiz-adv-x="1126" unicode="ņ" d="M1015 0h-266q22 253 22 512q0 157 -46.5 213t-141.5 56q-114 0 -216 -78q5 -390 5 -703h-269q18 313 18 492q0 239 -49 451l256 28l17 -106h16q137 118 315 118q154 0 246.5 -72.5t92.5 -267.5q0 -29 -2.5 -77.5t-2.5 -99.5q0 -135 5 -466zM693 -210q0 -188 -200 -314 l-64 54q58 75 58 156q-64 38 -64 102q0 61 37 100.5t102 39.5q61 0 96 -40t35 -98z"/>
<glyph glyph-name="Ncaron" horiz-adv-x="1361" unicode="Ň" d="M1217 0h-247q0 41 -275 433q-288 413 -328 565h-16q25 -219 25 -396q0 -247 14 -602h-246q15 310 15 681q0 365 -15 621h297q0 -53 247 -423q263 -393 302 -533h15q-24 223 -24 400q0 271 -14 556h250q-14 -248 -14 -621q0 -376 14 -681zM1008 1690q0 -16 -100 -139.5 t-100 -134.5h-242q0 11 -100 134.5t-100 139.5h155q10 -16 166 -134q156 118 166 134h155z"/>
<glyph glyph-name="ncaron" horiz-adv-x="1126" unicode="ň" d="M1015 0h-266q22 253 22 512q0 157 -46.5 213t-141.5 56q-114 0 -216 -78q5 -390 5 -703h-269q18 313 18 492q0 239 -49 451l256 28l17 -106h16q137 118 315 118q154 0 246.5 -72.5t92.5 -267.5q0 -29 -2.5 -77.5t-2.5 -99.5q0 -135 5 -466zM930 1410q0 -16 -95 -164.5 t-95 -159.5h-262q0 11 -95 159.5t-95 164.5h155q0 -16 166 -194q166 178 166 194h155z"/>
<glyph glyph-name="napostrophe" horiz-adv-x="1446" unicode="ŉ" d="M1335 0h-266q22 253 22 512q0 157 -46.5 213t-141.5 56q-114 0 -216 -78q5 -390 5 -703h-269q18 313 18 492q0 239 -49 451l256 28l17 -106h16q137 118 315 118q154 0 246.5 -72.5t92.5 -267.5q0 -29 -2.5 -77.5t-2.5 -99.5q0 -135 5 -466zM414 1253q0 -262 -319 -555 l-89 76q136 151 136 329q-76 46 -76 147q0 73 50.5 126.5t140.5 53.5q74 0 115.5 -54t41.5 -123z"/>
<glyph glyph-name="Eng" horiz-adv-x="1361" unicode="Ŋ" d="M1217 0q0 -211 -99 -308q-134 -130 -436 -135l-22 200q148 5 237.5 78.5t89.5 200.5q-64 76 -292 397q-288 413 -328 565h-16q25 -219 25 -396q0 -247 14 -602h-246q15 310 15 681q0 365 -15 621h297q0 -53 247 -423q263 -393 302 -533h15q-24 223 -24 400q0 271 -14 556 h250q-14 -248 -14 -621q0 -185 6.5 -361.5t7 -230t0.5 -89.5z"/>
<glyph glyph-name="eng" horiz-adv-x="1126" unicode="ŋ" d="M1015 0q0 -211 -116.5 -324.5t-418.5 -118.5l-22 200q148 5 219 68.5t82.5 245.5t11.5 441q0 162 -47.5 215.5t-145.5 53.5q-109 0 -211 -78q5 -390 5 -703h-269q18 313 18 492q0 239 -49 451l256 28l17 -106h16q140 118 300 118q169 0 261.5 -72.5t92.5 -257.5 q0 -19 -2.5 -94.5t-2.5 -139.5q0 -117 2.5 -220.5t2.5 -198.5z"/>
<glyph glyph-name="Omacron" horiz-adv-x="1427" unicode="Ō" d="M1074 646q0 209 -107 339t-264 130q-146 0 -248 -131t-102 -331q0 -208 107.5 -338.5t263.5 -130.5q146 0 248 131.5t102 330.5zM1350 675q0 -307 -188 -509t-465 -202q-264 0 -442 185.5t-178 471.5q0 307 188 509t465 202q264 0 442 -185t178 -472zM973 1621l-12 -174 h-504l11 174h505z"/>
<glyph glyph-name="omacron" horiz-adv-x="1144" unicode="ō" d="M814 467q0 145 -68 243.5t-177 98.5q-106 0 -172.5 -92t-66.5 -230q0 -145 68 -243.5t177 -98.5q106 0 172.5 92t66.5 230zM1075 497q0 -252 -155 -394t-365 -142q-200 0 -343 129.5t-143 364.5q0 253 156 396t366 143q199 0 341.5 -130.5t142.5 -366.5zM847 1335 l-12 -174h-484l11 174h485z"/>
<glyph glyph-name="Obreve" horiz-adv-x="1427" unicode="Ŏ" d="M1074 646q0 209 -107 339t-264 130q-146 0 -248 -131t-102 -331q0 -208 107.5 -338.5t263.5 -130.5q146 0 248 131.5t102 330.5zM1350 675q0 -307 -188 -509t-465 -202q-264 0 -442 185.5t-178 471.5q0 307 188 509t465 202q264 0 442 -185t178 -472zM1054 1630 q-94 -251 -327 -251q-246 0 -329 251l132 60q72 -147 196 -147q120 0 196 147z"/>
<glyph glyph-name="obreve" horiz-adv-x="1144" unicode="ŏ" d="M814 467q0 145 -68 243.5t-177 98.5q-106 0 -172.5 -92t-66.5 -230q0 -145 68 -243.5t177 -98.5q106 0 172.5 92t66.5 230zM1075 497q0 -252 -155 -394t-365 -142q-200 0 -343 129.5t-143 364.5q0 253 156 396t366 143q199 0 341.5 -130.5t142.5 -366.5zM919 1360 q-94 -286 -327 -286q-246 0 -329 286l132 60q92 -182 196 -182q100 0 196 182z"/>
<glyph glyph-name="Ohungarumlaut" horiz-adv-x="1427" unicode="Ő" d="M1074 646q0 209 -107 339t-264 130q-146 0 -248 -131t-102 -331q0 -208 107.5 -338.5t263.5 -130.5q146 0 248 131.5t102 330.5zM1350 675q0 -307 -188 -509t-465 -202q-264 0 -442 185.5t-178 471.5q0 307 188 509t465 202q264 0 442 -185t178 -472zM1161 1690 q0 -22 -92 -140t-102 -134h-149q0 16 35 134.5t35 139.5h273zM774 1690q0 -22 -92 -140t-102 -134h-149q0 16 35 134.5t35 139.5h273z"/>
<glyph glyph-name="ohungarumlaut" horiz-adv-x="1144" unicode="ő" d="M814 467q0 145 -68 243.5t-177 98.5q-106 0 -172.5 -92t-66.5 -230q0 -145 68 -243.5t177 -98.5q106 0 172.5 92t66.5 230zM1075 497q0 -252 -155 -394t-365 -142q-200 0 -343 129.5t-143 364.5q0 253 156 396t366 143q199 0 341.5 -130.5t142.5 -366.5zM1032 1410 q0 -22 -92 -165t-92 -159h-149q0 16 35 159.5t35 164.5h263zM645 1410q0 -22 -92 -165t-92 -159h-149q0 16 35 159.5t35 164.5h263z"/>
<glyph glyph-name="OE" horiz-adv-x="1863" unicode="Œ" d="M930 681q0 231 -7 409q-98 25 -227 25q-163 0 -251 -135t-88 -322q0 -190 95 -331.5t260 -141.5q131 0 210 31q8 194 8 465zM1786 220l-9 -220h-834q-130 -35 -252 -35q-293 0 -453.5 196t-160.5 464q0 277 172.5 492t468.5 215q103 0 246 -30h774l-9 -219 q-337 16 -556 16q10 -141 10 -328q178 0 459 8v-206q-247 10 -459 10q0 -193 10 -380q226 0 593 17z"/>
<glyph glyph-name="oe" horiz-adv-x="1765" unicode="œ" d="M1462 586q0 230 -192 230q-188 0 -212 -238zM810 467q0 145 -68.5 243.5t-177.5 98.5q-106 0 -170 -91.5t-64 -230.5q0 -146 66 -244t174 -98q106 0 173 92t67 230zM1696 577q0 -51 -6 -133l-630 -11q14 -114 92.5 -188.5t212.5 -74.5q150 0 315 45l-20 -194 q-134 -50 -338 -50q-257 0 -382 167h-15q-129 -177 -375 -177q-199 0 -340 129.5t-141 364.5q0 254 153.5 396.5t363.5 142.5q238 0 351 -164h16q102 161 329 161q212 0 313 -114.5t101 -299.5z"/>
<glyph glyph-name="Racute" horiz-adv-x="1187" unicode="Ŕ" d="M791 920q0 199 -256 199q-94 0 -166 -14q11 -155 11 -404q55 -2 93 -2q318 0 318 221zM1166 0h-296q-116 354 -178 437t-200 83q-58 0 -111 -1q0 -257 9 -519h-278q13 302 13 681q0 364 -13 621h173q30 0 125.5 3t176.5 3q459 0 459 -314q0 -249 -262 -347v-15 q101 -28 177 -157.5t205 -474.5zM897 1690q0 -12 -133 -135t-143 -139h-175q0 16 80 139.5t80 134.5h291z"/>
<glyph glyph-name="racute" horiz-adv-x="789" unicode="ŕ" d="M771 950l-58 -234q-74 30 -150 30q-147 0 -194 -132q0 -399 6 -614h-266q17 301 17 492q0 238 -50 451l255 28q17 -110 17 -129h16q92 141 245 141q72 0 162 -33zM788 1410q0 -12 -138 -160t-138 -164h-175q0 16 90 164.5t90 159.5h271z"/>
<glyph glyph-name="Rcommaaccent" horiz-adv-x="1187" unicode="Ŗ" d="M791 920q0 199 -256 199q-94 0 -166 -14q11 -155 11 -404q55 -2 93 -2q318 0 318 221zM1166 0h-296q-116 354 -178 437t-200 83q-58 0 -111 -1q0 -257 9 -519h-278q13 302 13 681q0 364 -13 621h173q30 0 125.5 3t176.5 3q459 0 459 -314q0 -249 -262 -347v-15 q101 -28 177 -157.5t205 -474.5zM749 -210q0 -188 -200 -314l-64 54q58 75 58 156q-64 38 -64 102q0 61 37 100.5t102 39.5q61 0 96 -40t35 -98z"/>
<glyph glyph-name="rcommaaccent" horiz-adv-x="789" unicode="ŗ" d="M771 950l-58 -234q-74 30 -150 30q-147 0 -194 -132q0 -399 6 -614h-266q17 301 17 492q0 238 -50 451l255 28q17 -110 17 -129h16q92 141 245 141q72 0 162 -33zM379 -210q0 -188 -200 -314l-64 54q58 75 58 156q-64 38 -64 102q0 61 37 100.5t102 39.5q61 0 96 -40 t35 -98z"/>
<glyph glyph-name="Rcaron" horiz-adv-x="1187" unicode="Ř" d="M791 920q0 199 -256 199q-94 0 -166 -14q11 -155 11 -404q55 -2 93 -2q318 0 318 221zM1166 0h-296q-116 354 -178 437t-200 83q-58 0 -111 -1q0 -257 9 -519h-278q13 302 13 681q0 364 -13 621h173q30 0 125.5 3t176.5 3q459 0 459 -314q0 -249 -262 -347v-15 q101 -28 177 -157.5t205 -474.5zM903 1690q0 -16 -100 -139.5t-100 -134.5h-242q0 11 -100 134.5t-100 139.5h155q10 -16 166 -134q156 118 166 134h155z"/>
<glyph glyph-name="rcaron" horiz-adv-x="789" unicode="ř" d="M771 950l-58 -234q-74 30 -150 30q-147 0 -194 -132q0 -399 6 -614h-266q17 301 17 492q0 238 -50 451l255 28q17 -110 17 -129h16q92 141 245 141q72 0 162 -33zM784 1410q0 -16 -95 -164.5t-95 -159.5h-262q0 11 -95 159.5t-95 164.5h155q0 -16 166 -194 q166 178 166 194h155z"/>
<glyph glyph-name="Sacute" horiz-adv-x="1049" unicode="Ś" d="M984 355q0 -391 -562 -391q-191 0 -355 46l49 223q162 -56 306 -56q160 0 230 31t70 104q0 76 -66 128q-57 46 -231 120q-158 68 -235 148q-97 101 -97 249q0 172 127.5 269t366.5 97q196 0 329 -33l-37 -222q-135 49 -292 49q-236 0 -236 -126q0 -67 55 -109 q48 -36 209 -101q171 -69 256 -152q113 -111 113 -274zM911 1690q0 -12 -133 -135t-143 -139h-175q0 16 80 139.5t80 134.5h291z"/>
<glyph glyph-name="sacute" horiz-adv-x="859" unicode="ś" d="M791 273q0 -300 -444 -300q-162 0 -283 35l34 197q125 -45 249 -45q120 0 166.5 20t46.5 67q0 73 -168 139q-147 58 -214 114q-92 78 -92 191q0 133 99 214t288 81q177 0 278 -31l-34 -198q-113 44 -244 44q-160 0 -160 -82q0 -42 34 -67.5t139 -64.5q145 -53 211 -109 q94 -80 94 -205zM792 1410q0 -12 -138 -160t-138 -164h-175q0 16 90 164.5t90 159.5h271z"/>
<glyph glyph-name="Scircumflex" horiz-adv-x="1049" unicode="Ŝ" d="M984 355q0 -391 -562 -391q-191 0 -355 46l49 223q162 -56 306 -56q160 0 230 31t70 104q0 76 -66 128q-57 46 -231 120q-158 68 -235 148q-97 101 -97 249q0 172 127.5 269t366.5 97q196 0 329 -33l-37 -222q-135 49 -292 49q-236 0 -236 -126q0 -67 55 -109 q48 -36 209 -101q171 -69 256 -152q113 -111 113 -274zM873 1416h-155q-10 16 -166 134q-156 -118 -166 -134h-155q0 16 100 139.5t100 134.5h242q0 -11 100 -134.5t100 -139.5z"/>
<glyph glyph-name="scircumflex" horiz-adv-x="859" unicode="ŝ" d="M791 273q0 -300 -444 -300q-162 0 -283 35l34 197q125 -45 249 -45q120 0 166.5 20t46.5 67q0 73 -168 139q-147 58 -214 114q-92 78 -92 191q0 133 99 214t288 81q177 0 278 -31l-34 -198q-113 44 -244 44q-160 0 -160 -82q0 -42 34 -67.5t139 -64.5q145 -53 211 -109 q94 -80 94 -205zM760 1086h-155q0 16 -166 194q-166 -178 -166 -194h-155q0 16 95 164.5t95 159.5h262q0 -11 95 -159.5t95 -164.5z"/>
<glyph glyph-name="Scedilla" horiz-adv-x="1071" unicode="Ş" d="M994 355q0 -365 -491 -389l-10 -58q189 -47 189 -195q0 -227 -248 -227l-24 112q42 0 71 29.5t29 65.5q0 101 -129 125l25 146q-176 3 -329 46l49 223q162 -56 306 -56q160 0 230 31t70 104q0 76 -66 128q-57 46 -231 120q-158 68 -235 148q-97 101 -97 249 q0 172 127.5 269t366.5 97q196 0 329 -33l-37 -222q-135 49 -292 49q-236 0 -236 -126q0 -67 55 -109q48 -36 209 -101q171 -69 256 -152q113 -111 113 -274z"/>
<glyph glyph-name="scedilla" horiz-adv-x="859" unicode="ş" d="M791 273q0 -267 -352 -296l-8 -69q189 -47 189 -195q0 -227 -246 -227l-24 112q40 0 69 29.5t29 65.5q0 101 -129 125l27 155q-162 0 -282 35l34 197q125 -45 249 -45q120 0 168 21q45 19 45 66q0 73 -168 139q-147 58 -214 114q-92 78 -92 191q0 133 96 211 q102 84 291 84q177 0 278 -31l-34 -198q-113 44 -244 44q-160 0 -160 -82q0 -42 34 -67.5t139 -64.5q145 -53 211 -109q94 -80 94 -205z"/>
<glyph glyph-name="Scaron" horiz-adv-x="1049" unicode="Š" d="M984 355q0 -391 -562 -391q-191 0 -355 46l49 223q162 -56 306 -56q160 0 230 31t70 104q0 76 -66 128q-57 46 -231 120q-158 68 -235 148q-97 101 -97 249q0 172 127.5 269t366.5 97q196 0 329 -33l-37 -222q-135 49 -292 49q-236 0 -236 -126q0 -67 55 -109 q48 -36 209 -101q171 -69 256 -152q113 -111 113 -274zM888 1690q0 -16 -100 -139.5t-100 -134.5h-242q0 11 -100 134.5t-100 139.5h155q10 -16 166 -134q156 118 166 134h155z"/>
<glyph glyph-name="scaron" horiz-adv-x="859" unicode="š" d="M791 273q0 -300 -444 -300q-162 0 -283 35l34 197q125 -45 249 -45q120 0 166.5 20t46.5 67q0 73 -168 139q-147 58 -214 114q-92 78 -92 191q0 133 99 214t288 81q177 0 278 -31l-34 -198q-113 44 -244 44q-160 0 -160 -82q0 -42 34 -67.5t139 -64.5q145 -53 211 -109 q94 -80 94 -205zM771 1410q0 -16 -95 -164.5t-95 -159.5h-262q0 11 -95 159.5t-95 164.5h155q0 -16 166 -194q166 178 166 194h155z"/>
<glyph glyph-name="Tcommaaccent" horiz-adv-x="1077" unicode="Ţ" d="M1055 1302l-7 -215q-200 15 -377 15q-2 -189 -2 -421q0 -360 11 -681h-280q13 318 13 681q0 228 -4 421q-141 0 -387 -16l8 216h1025zM670 -210q0 -188 -200 -314l-64 54q58 75 58 156q-64 38 -64 102q0 61 37 100.5t102 39.5q61 0 96 -40t35 -98z"/>
<glyph glyph-name="Tcommaaccent" horiz-adv-x="1077" unicode="Ț" d="M1055 1302l-7 -215q-200 15 -377 15q-2 -189 -2 -421q0 -360 11 -681h-280q13 318 13 681q0 228 -4 421q-141 0 -387 -16l8 216h1025zM670 -210q0 -188 -200 -314l-64 54q58 75 58 156q-64 38 -64 102q0 61 37 100.5t102 39.5q61 0 96 -40t35 -98z"/>
<glyph glyph-name="tcommaaccent" horiz-adv-x="743" unicode="ţ" d="M704 187l-17 -178q-70 -30 -176 -30q-162 0 -244 88t-82 339q0 151 2 342q-51 0 -138 -6l7 197q77 -6 143 -6q1 53 8 279l237 29q-15 -199 -15 -308q84 0 251 8l-8 -199q-152 6 -247 6q-2 -133 -2 -279q0 -178 36 -238.5t127 -60.5q55 0 118 17zM557 -210 q0 -188 -200 -314l-64 54q58 75 58 156q-64 38 -64 102q0 61 37 100.5t102 39.5q61 0 96 -40t35 -98z"/>
<glyph glyph-name="tcommaaccent" horiz-adv-x="743" unicode="ț" d="M704 187l-17 -178q-70 -30 -176 -30q-162 0 -244 88t-82 339q0 151 2 342q-51 0 -138 -6l7 197q77 -6 143 -6q1 53 8 279l237 29q-15 -199 -15 -308q84 0 251 8l-8 -199q-152 6 -247 6q-2 -133 -2 -279q0 -178 36 -238.5t127 -60.5q55 0 118 17zM557 -210 q0 -188 -200 -314l-64 54q58 75 58 156q-64 38 -64 102q0 61 37 100.5t102 39.5q61 0 96 -40t35 -98z"/>
<glyph glyph-name="Tcaron" horiz-adv-x="1077" unicode="Ť" d="M1055 1302l-7 -215q-200 15 -377 15q-2 -189 -2 -421q0 -360 11 -681h-280q13 318 13 681q0 228 -4 421q-141 0 -387 -16l8 216h1025zM858 1690q0 -16 -100 -139.5t-100 -134.5h-242q0 11 -100 134.5t-100 139.5h155q10 -16 166 -134q156 118 166 134h155z"/>
<glyph glyph-name="tcaron" horiz-adv-x="952" unicode="ť" d="M704 187l-17 -178q-70 -30 -176 -30q-162 0 -244 88t-82 339q0 151 2 342q-51 0 -138 -6l7 197q77 -6 143 -6q1 53 8 279l237 29q-15 -199 -15 -308q84 0 251 8l-8 -199q-152 6 -247 6q-2 -133 -2 -279q0 -178 36 -238.5t127 -60.5q55 0 118 17zM994 1177 q0 -222 -204 -351l-66 55q54 89 54 174q-80 39 -80 120q0 62 43 107.5t119 45.5q63 0 98.5 -46t35.5 -105z"/>
<glyph glyph-name="Tbar" horiz-adv-x="1077" unicode="Ŧ" d="M1055 1302l-7 -215q-200 15 -377 15q-2 -146 -2 -319h322l-10 -148h-312q0 -335 11 -635h-280q12 297 13 635h-321l10 148h311q-1 170 -4 319q-141 0 -387 -16l8 216h1025z"/>
<glyph glyph-name="tbar" horiz-adv-x="743" unicode="ŧ" d="M704 187l-17 -178q-70 -30 -166 -30q-172 0 -254 88t-82 339v56h-119l6 142h113q1 68 2 144q-51 0 -138 -6l7 197q77 -6 143 -6q1 53 8 279l237 29q-15 -199 -15 -308q84 0 251 8l-8 -199q-152 6 -247 6q-1 -70 -2 -144h227l-6 -142h-221q1 -173 36.5 -232.5t126.5 -59.5 q55 0 118 17z"/>
<glyph glyph-name="Utilde" horiz-adv-x="1347" unicode="Ũ" d="M1225 1302q-9 -336 -9 -672q0 -664 -544 -664q-269 0 -405 147t-136 528q0 336 -9 661h283q-13 -338 -13 -652q0 -275 70 -377t216 -102q153 0 221 101.5t68 379.5q0 305 -13 650h271zM1082 1625q-112 -196 -256 -196q-46 0 -121.5 23t-115.5 23q-91 0 -176 -67l-89 75 q112 186 256 186q50 0 124 -23t113 -23q91 0 176 77z"/>
<glyph glyph-name="utilde" horiz-adv-x="1107" unicode="ũ" d="M1005 1l-234 -8q-16 54 -16 86h-16q-131 -108 -306 -108q-165 0 -248.5 86.5t-83.5 345.5q0 31 1.5 87t1.5 98q0 111 -19 354l279 10q-16 -192 -16 -364q0 -245 36.5 -330t143.5 -85q117 0 202 56q0 526 -12 714l270 9q-10 -189 -10 -490q0 -223 27 -461zM977 1355 q-112 -226 -256 -226q-46 0 -121.5 23t-115.5 23q-91 0 -176 -107l-89 75q112 226 256 226q50 0 124 -23t113 -23q91 0 176 107z"/>
<glyph glyph-name="Umacron" horiz-adv-x="1347" unicode="Ū" d="M1225 1302q-9 -336 -9 -672q0 -664 -544 -664q-269 0 -405 147t-136 528q0 336 -9 661h283q-13 -338 -13 -652q0 -275 70 -377t216 -102q153 0 221 101.5t68 379.5q0 305 -13 650h271zM936 1621l-12 -174h-504l11 174h505z"/>
<glyph glyph-name="umacron" horiz-adv-x="1107" unicode="ū" d="M1005 1l-234 -8q-16 54 -16 86h-16q-131 -108 -306 -108q-165 0 -248.5 86.5t-83.5 345.5q0 31 1.5 87t1.5 98q0 111 -19 354l279 10q-16 -192 -16 -364q0 -245 36.5 -330t143.5 -85q117 0 202 56q0 526 -12 714l270 9q-10 -189 -10 -490q0 -223 27 -461zM819 1335 l-12 -174h-484l11 174h485z"/>
<glyph glyph-name="Ubreve" horiz-adv-x="1347" unicode="Ŭ" d="M1225 1302q-9 -336 -9 -672q0 -664 -544 -664q-269 0 -405 147t-136 528q0 336 -9 661h283q-13 -338 -13 -652q0 -275 70 -377t216 -102q153 0 221 101.5t68 379.5q0 305 -13 650h271zM1017 1630q-94 -251 -327 -251q-246 0 -329 251l132 60q72 -147 196 -147 q120 0 196 147z"/>
<glyph glyph-name="ubreve" horiz-adv-x="1107" unicode="ŭ" d="M1005 1l-234 -8q-16 54 -16 86h-16q-131 -108 -306 -108q-165 0 -248.5 86.5t-83.5 345.5q0 31 1.5 87t1.5 98q0 111 -19 354l279 10q-16 -192 -16 -364q0 -245 36.5 -330t143.5 -85q117 0 202 56q0 526 -12 714l270 9q-10 -189 -10 -490q0 -223 27 -461zM885 1360 q-94 -286 -327 -286q-246 0 -329 286l132 60q92 -182 196 -182q100 0 196 182z"/>
<glyph glyph-name="Uring" horiz-adv-x="1347" unicode="Ů" d="M1225 1302q-9 -336 -9 -672q0 -664 -544 -664q-269 0 -405 147t-136 528q0 336 -9 661h283q-13 -338 -13 -652q0 -275 70 -377t216 -102q153 0 221 101.5t68 379.5q0 305 -13 650h271zM809 1596q0 60 -33.5 92t-81.5 32q-52 0 -92 -37t-40 -101q0 -60 33.5 -92.5 t81.5 -32.5q52 0 92 37.5t40 101.5zM923 1605q0 -115 -77.5 -182.5t-177.5 -67.5q-90 0 -155.5 57.5t-65.5 163.5q0 114 77.5 180t177.5 66q90 0 155.5 -56.5t65.5 -160.5z"/>
<glyph glyph-name="uring" horiz-adv-x="1107" unicode="ů" d="M1005 1l-234 -8q-16 54 -16 86h-16q-131 -108 -306 -108q-165 0 -248.5 86.5t-83.5 345.5q0 31 1.5 87t1.5 98q0 111 -19 354l279 10q-16 -192 -16 -364q0 -245 36.5 -330t143.5 -85q117 0 202 56q0 526 -12 714l270 9q-10 -189 -10 -490q0 -223 27 -461zM687 1280 q0 60 -33.5 92t-81.5 32q-52 0 -92 -37t-40 -101q0 -60 33.5 -92.5t81.5 -32.5q52 0 92 37.5t40 101.5zM801 1289q0 -115 -77.5 -182.5t-177.5 -67.5q-90 0 -155.5 57.5t-65.5 163.5q0 114 77.5 180t177.5 66q90 0 155.5 -56.5t65.5 -160.5z"/>
<glyph glyph-name="Uhungarumlaut" horiz-adv-x="1347" unicode="Ű" d="M1225 1302q-9 -336 -9 -672q0 -664 -544 -664q-269 0 -405 147t-136 528q0 336 -9 661h283q-13 -338 -13 -652q0 -275 70 -377t216 -102q153 0 221 101.5t68 379.5q0 305 -13 650h271zM1132 1690q0 -22 -92 -140t-102 -134h-149q0 16 35 134.5t35 139.5h273zM745 1690 q0 -22 -92 -140t-102 -134h-149q0 16 35 134.5t35 139.5h273z"/>
<glyph glyph-name="uhungarumlaut" horiz-adv-x="1107" unicode="ű" d="M1005 1l-234 -8q-16 54 -16 86h-16q-131 -108 -306 -108q-165 0 -248.5 86.5t-83.5 345.5q0 31 1.5 87t1.5 98q0 111 -19 354l279 10q-16 -192 -16 -364q0 -245 36.5 -330t143.5 -85q117 0 202 56q0 526 -12 714l270 9q-10 -189 -10 -490q0 -223 27 -461zM1011 1410 q0 -22 -92 -165t-92 -159h-149q0 16 35 159.5t35 164.5h263zM624 1410q0 -22 -92 -165t-92 -159h-149q0 16 35 159.5t35 164.5h263z"/>
<glyph glyph-name="Uogonek" horiz-adv-x="1347" unicode="Ų" d="M959 -468q-62 -18 -139 -18q-143 0 -208.5 59t-65.5 157q0 164 178 228v10q-25 -2 -82 -2q-233 0 -372 142t-139 563q0 306 -9 631h283q-13 -338 -13 -652q0 -275 70 -377t216 -102q153 0 221 102.5t68 387.5q0 296 -13 641h271q-9 -336 -9 -672q0 -484 -289 -615 q-194 -92 -194 -217q0 -127 119 -127q31 0 79 10z"/>
<glyph glyph-name="uogonek" horiz-adv-x="1107" unicode="ų" d="M1023 -468q-62 -18 -139 -18q-143 0 -208.5 59t-65.5 157q0 164 161 264q-16 53 -16 85h-16q-131 -108 -295 -108q-173 0 -258 81.5t-85 340.5q0 31 1.5 92t1.5 83q0 131 -19 375l279 8q-16 -191 -16 -363q0 -245 36.5 -330t143.5 -85q117 0 202 56q0 526 -12 714l270 8 q-10 -188 -10 -489q0 -223 27 -462q-208 -31 -208 -202q0 -127 119 -127q31 0 79 10z"/>
<glyph glyph-name="Wcircumflex" horiz-adv-x="1877" unicode="Ŵ" d="M1866 1302q0 -93 -200 -660t-200 -642h-264q0 79 -121 445q-129 392 -145 517h-17q-16 -126 -134 -521q-110 -369 -110 -441h-270q0 94 -197 669t-197 633h317q0 -63 114 -502t114 -521h16q0 82 122 511.5t122 511.5h285q0 -75 122 -520.5t122 -502.5h16q0 72 110.5 489 t110.5 534h284zM1277 1416h-155q-10 16 -166 134q-156 -118 -166 -134h-155q0 16 100 139.5t100 134.5h242q0 -11 100 -134.5t100 -139.5z"/>
<glyph glyph-name="wcircumflex" horiz-adv-x="1613" unicode="ŵ" d="M1581 950q0 -57 -166.5 -468t-166.5 -482h-233q0 46 -82 283q-102 296 -130 403h-16q-26 -103 -124 -398q-79 -234 -79 -288h-234q0 61 -158.5 486.5t-158.5 463.5h288q0 -41 87.5 -343.5t87.5 -359.5h15q0 69 100 358.5t100 344.5h235q0 -38 97.5 -345t97.5 -358h14 q0 56 88.5 340.5t88.5 362.5h249zM1140 1086h-155q0 16 -166 194q-166 -178 -166 -194h-155q0 16 95 164.5t95 159.5h262q0 -11 95 -159.5t95 -164.5z"/>
<glyph glyph-name="Ycircumflex" horiz-adv-x="1130" unicode="Ŷ" d="M1119 1302q0 -41 -114 -221q-175 -275 -213 -342q-114 -203 -114 -301q0 -220 12 -438h-284q11 219 11 441q0 102 -105 309q-49 96 -196 343q-105 177 -105 209h314q0 -36 125.5 -303.5t125.5 -345.5h16q0 72 122.5 328t122.5 321h282zM901 1416h-155q-10 16 -166 134 q-156 -118 -166 -134h-155q0 16 100 139.5t100 134.5h242q0 -11 100 -134.5t100 -139.5z"/>
<glyph glyph-name="ycircumflex" horiz-adv-x="1002" unicode="ŷ" d="M968 950q0 -65 -143 -412q-163 -399 -201 -544q-65 -250 -175 -345q-106 -92 -318 -92l-20 193q124 0 204 70.5t80 188.5q0 119 -180 520.5t-180 420.5h309q0 -35 91 -339t91 -372h14q0 58 82.5 342.5t82.5 368.5h263zM838 1086h-155q0 16 -166 194q-166 -178 -166 -194 h-155q0 16 95 164.5t95 159.5h262q0 -11 95 -159.5t95 -164.5z"/>
<glyph glyph-name="Ydieresis" horiz-adv-x="1130" unicode="Ÿ" d="M1119 1302q0 -41 -114 -221q-175 -275 -213 -342q-114 -203 -114 -301q0 -220 12 -438h-284q11 219 11 441q0 102 -105 309q-49 96 -196 343q-105 177 -105 209h314q0 -36 125.5 -303.5t125.5 -345.5h16q0 72 122.5 328t122.5 321h282zM519 1567q0 -58 -39.5 -101.5 t-110.5 -43.5q-59 0 -92.5 37.5t-33.5 90.5q0 58 40 100.5t111 42.5q60 0 92.5 -37t32.5 -89zM914 1567q0 -58 -39.5 -101.5t-110.5 -43.5q-60 0 -93.5 37.5t-33.5 90.5q0 57 40.5 100t111.5 43q60 0 92.5 -37t32.5 -89z"/>
<glyph glyph-name="Zacute" horiz-adv-x="1054" unicode="Ź" d="M977 226l-7 -226h-893l15 205q109 144 323 478q232 362 232 407v16q-239 0 -553 -23l6 219h856l-14 -207q-110 -152 -308 -470q-224 -360 -224 -407v-15q210 0 567 23zM891 1690q0 -12 -133 -135t-143 -139h-175q0 16 80 139.5t80 134.5h291z"/>
<glyph glyph-name="zacute" horiz-adv-x="890" unicode="ź" d="M834 200l-5 -200h-756l14 191q50 45 235 278q198 249 198 285v16q-238 0 -438 -17l5 197h726l-15 -192q-63 -69 -225 -280q-189 -246 -189 -282v-15q227 0 450 19zM813 1410q0 -12 -138 -160t-138 -164h-175q0 16 90 164.5t90 159.5h271z"/>
<glyph glyph-name="Zdotaccent" horiz-adv-x="1054" unicode="Ż" d="M977 226l-7 -226h-893l15 205q109 144 323 478q232 362 232 407v16q-239 0 -553 -23l6 219h856l-14 -207q-110 -152 -308 -470q-224 -360 -224 -407v-15q210 0 567 23zM721 1566q0 -68 -46.5 -119t-129.5 -51q-70 0 -109.5 44t-39.5 106q0 68 46.5 118t130.5 50 q71 0 109.5 -43.5t38.5 -104.5z"/>
<glyph glyph-name="zdotaccent" horiz-adv-x="890" unicode="ż" d="M834 200l-5 -200h-756l14 191q50 45 235 278q198 249 198 285v16q-238 0 -438 -17l5 197h726l-15 -192q-63 -69 -225 -280q-189 -246 -189 -282v-15q227 0 450 19zM626 1252q0 -68 -46.5 -119t-129.5 -51q-70 0 -109.5 44t-39.5 106q0 68 46.5 118t130.5 50 q71 0 109.5 -43.5t38.5 -104.5z"/>
<glyph glyph-name="Zcaron" horiz-adv-x="1054" unicode="Ž" d="M977 226l-7 -226h-893l15 205q109 144 323 478q232 362 232 407v16q-239 0 -553 -23l6 219h856l-14 -207q-110 -152 -308 -470q-224 -360 -224 -407v-15q210 0 567 23zM834 1690q0 -16 -100 -139.5t-100 -134.5h-242q0 11 -100 134.5t-100 139.5h155q10 -16 166 -134 q156 118 166 134h155z"/>
<glyph glyph-name="zcaron" horiz-adv-x="890" unicode="ž" d="M834 200l-5 -200h-756l14 191q50 45 235 278q198 249 198 285v16q-238 0 -438 -17l5 197h726l-15 -192q-63 -69 -225 -280q-189 -246 -189 -282v-15q227 0 450 19zM791 1410q0 -16 -95 -164.5t-95 -159.5h-262q0 11 -95 159.5t-95 164.5h155q0 -16 166 -194 q166 178 166 194h155z"/>
<glyph glyph-name="longs" horiz-adv-x="576" unicode="ſ" d="M627 1419l-36 -178q-57 14 -117 14q-74 0 -100 -66t-26 -256q0 -562 15 -933h-264q15 366 15 933q0 503 338 503q101 0 175 -17z"/>
<glyph glyph-name="florin" horiz-adv-x="1033" unicode="ƒ" d="M902 1304l-21 -177q-54 9 -93 9q-88 0 -121.5 -53t-48.5 -236q91 0 233 5l-8 -140q-109 5 -231 5q-27 -521 -72 -761.5t-132.5 -325t-257.5 -116.5l-64 184q106 30 154 97.5t76.5 264.5t57.5 657q-61 0 -158 -5l6 140q77 -5 166 -5q19 269 101.5 372.5t275.5 103.5 q61 0 137 -19z"/>
<glyph glyph-name="Aringacute" horiz-adv-x="1290" unicode="Ǻ" d="M817 565q-171 516 -171 558h-16q0 -39 -177 -558h364zM1279 0h-320q0 66 -91 374h-462q-94 -303 -94 -374h-301q0 39 233.5 640t233.5 662h378q0 -57 211.5 -652.5t211.5 -649.5zM759 1515q0 43 -24 66.5t-59 23.5q-38 0 -67 -27t-29 -74q0 -42 24.5 -65.5t58.5 -23.5 q38 0 67 27t29 73zM1029 1900q0 -12 -114.5 -90t-124.5 -94h-165q0 16 66.5 94.5t66.5 89.5h271zM858 1518q0 -90 -61 -143.5t-139 -53.5q-71 0 -123 45.5t-52 128.5q0 90 61 142.5t140 52.5q72 0 123 -45t51 -127z"/>
<glyph glyph-name="aringacute" horiz-adv-x="1006" unicode="ǻ" d="M658 209q-6 135 -6 233q-341 0 -341 -173q0 -119 150 -119q118 0 197 59zM925 1l-236 -8q-16 42 -16 76h-13q-110 -94 -297 -94q-125 0 -207.5 69.5t-82.5 184.5q0 152 128.5 249t450.5 103q2 18 2 34q0 108 -52 142.5t-191 34.5q-151 0 -295 -40l22 184q136 47 384 47 q181 0 279.5 -76t98.5 -266q0 -42 -3.5 -153t-3.5 -148q0 -207 32 -339zM629 1261q0 60 -33.5 92t-81.5 32q-52 0 -92 -37t-40 -101q0 -60 33.5 -92.5t81.5 -32.5q52 0 92 37.5t40 101.5zM743 1270q0 -115 -77.5 -182.5t-177.5 -67.5q-90 0 -155.5 57.5t-65.5 163.5 q0 114 77.5 180t177.5 66q90 0 155.5 -56.5t65.5 -160.5zM886 1792q0 -12 -133 -135t-143 -139h-175q0 16 80 139.5t80 134.5h291z"/>
<glyph glyph-name="AEacute" horiz-adv-x="1695" unicode="Ǽ" d="M763 565q0 325 -10 534h-131q0 -39 -185 -534h326zM1618 220l-8 -220h-860q11 185 11 374h-371q-91 -290 -91 -374h-288q0 38 234 638t234 664h1091l-9 -219q-314 16 -558 16q12 -141 12 -328q194 0 460 8v-206q-247 10 -460 10q0 -193 7 -380q277 0 596 17zM1366 1690 q0 -12 -133 -135t-143 -139h-175q0 16 80 139.5t80 134.5h291z"/>
<glyph glyph-name="aeacute" horiz-adv-x="1611" unicode="ǽ" d="M1308 586q0 230 -195 230t-219 -238zM696 235q-49 103 -49 207q-337 0 -337 -173q0 -119 150 -119q118 0 236 85zM1542 577q0 -51 -6 -133l-640 -11q14 -114 94.5 -188.5t215.5 -74.5q150 0 320 45l-20 -194q-139 -50 -343 -50q-252 0 -391 163h-16q-97 -87 -174.5 -123 t-218.5 -36q-125 0 -207.5 69.5t-82.5 184.5q0 152 128.5 249t450.5 103q2 18 2 34q0 108 -52.5 142.5t-191.5 34.5q-151 0 -295 -40l22 184q136 47 384 47q207 0 292 -102h16q124 110 296 110q212 0 314.5 -115t102.5 -299zM1188 1410q0 -12 -138 -160t-138 -164h-175 q0 16 90 164.5t90 159.5h271z"/>
<glyph glyph-name="Oslashacute" horiz-adv-x="1427" unicode="Ǿ" d="M1076 646q0 126 -43 227q-185 -209 -529 -603q96 -86 222 -86q146 0 248 131.5t102 330.5zM954 1004q-102 111 -249 111q-146 0 -248 -131t-102 -331q0 -151 61 -267q190 216 538 618zM1360 1322q0 -43 -144 -225q136 -177 136 -422q0 -307 -188 -509t-465 -202 q-200 0 -356 113q-130 -161 -130 -196l-147 42q0 40 171 249q-158 182 -158 449q0 307 188 509t465 202q218 0 381 -131q98 126 98 158zM1065 1690q0 -12 -133 -135t-143 -139h-175q0 16 80 139.5t80 134.5h291z"/>
<glyph glyph-name="oslashacute" horiz-adv-x="1144" unicode="ǿ" d="M814 467q0 70 -20 132q-128 -133 -370 -387q64 -67 151 -67q106 0 172.5 92t66.5 230zM745 711q-69 98 -176 98q-106 0 -172.5 -92t-66.5 -230q0 -98 33 -176zM1100 981q0 -37 -117 -174q92 -125 92 -310q0 -253 -155 -394.5t-365 -141.5q-161 0 -284 84 q-118 -132 -118 -159l-111 42q0 35 142 193q-115 132 -115 334q0 253 156 396t366 143q182 0 313 -106q84 101 84 130zM944 1410q0 -12 -138 -160t-138 -164h-175q0 16 90 164.5t90 159.5h271z"/>
<glyph glyph-name="Scommaaccent" horiz-adv-x="1049" unicode="Ș" d="M984 355q0 -391 -562 -391q-191 0 -355 46l49 223q162 -56 306 -56q160 0 230 31t70 104q0 76 -66 128q-57 46 -231 120q-158 68 -235 148q-97 101 -97 249q0 172 127.5 269t366.5 97q196 0 329 -33l-37 -222q-135 49 -292 49q-236 0 -236 -126q0 -67 55 -109 q48 -36 209 -101q171 -69 256 -152q113 -111 113 -274zM598 -210q0 -188 -200 -314l-64 54q58 75 58 156q-64 38 -64 102q0 61 37 100.5t102 39.5q61 0 96 -40t35 -98z"/>
<glyph glyph-name="scommaaccent" horiz-adv-x="859" unicode="ș" d="M791 273q0 -300 -444 -300q-162 0 -283 35l34 197q125 -45 249 -45q120 0 166.5 20t46.5 67q0 73 -168 139q-147 58 -214 114q-92 78 -92 191q0 133 99 214t288 81q177 0 278 -31l-34 -198q-113 44 -244 44q-160 0 -160 -82q0 -42 34 -67.5t139 -64.5q145 -53 211 -109 q94 -80 94 -205zM528 -210q0 -188 -200 -314l-64 54q58 75 58 156q-64 38 -64 102q0 61 37 100.5t102 39.5q61 0 96 -40t35 -98z"/>
<glyph glyph-name="circumflex" horiz-adv-x="782" unicode="ˆ" d="M711 1086h-155q0 16 -166 194q-166 -178 -166 -194h-155q0 16 95 164.5t95 159.5h262q0 -11 95 -159.5t95 -164.5z"/>
<glyph glyph-name="caron" horiz-adv-x="782" unicode="ˇ" d="M711 1410q0 -16 -95 -164.5t-95 -159.5h-262q0 11 -95 159.5t-95 164.5h155q0 -16 166 -194q166 178 166 194h155z"/>
<glyph glyph-name="breve" horiz-adv-x="782" unicode="˘" d="M719 1360q-94 -286 -327 -286q-246 0 -329 286l132 60q92 -182 196 -182q100 0 196 182z"/>
<glyph glyph-name="dotaccent" horiz-adv-x="526" unicode="˙" d="M441 1252q0 -68 -46.5 -119t-129.5 -51q-70 0 -109.5 44t-39.5 106q0 68 46.5 118t130.5 50q71 0 109.5 -43.5t38.5 -104.5z"/>
<glyph glyph-name="ring" horiz-adv-x="610" unicode="˚" d="M429 1280q0 60 -33.5 92t-81.5 32q-52 0 -92 -37t-40 -101q0 -60 33.5 -92.5t81.5 -32.5q52 0 92 37.5t40 101.5zM543 1289q0 -115 -77.5 -182.5t-177.5 -67.5q-90 0 -155.5 57.5t-65.5 163.5q0 114 77.5 180t177.5 66q90 0 155.5 -56.5t65.5 -160.5z"/>
<glyph glyph-name="ogonek" horiz-adv-x="470" unicode="˛" d="M412 -468q-62 -18 -139 -18q-143 0 -208.5 59t-65.5 157q0 164 127 290h188q-128 -71 -128 -222q0 -127 119 -127q31 0 79 10z"/>
<glyph glyph-name="tilde" horiz-adv-x="884" unicode="˜" d="M820 1355q-112 -226 -256 -226q-46 0 -121.5 23t-115.5 23q-91 0 -176 -107l-89 75q112 226 256 226q50 0 124 -23t113 -23q91 0 176 107z"/>
<glyph glyph-name="hungarumlaut" horiz-adv-x="882" unicode="˝" d="M802 1410q0 -22 -92 -165t-92 -159h-149q0 16 35 159.5t35 164.5h263zM415 1410q0 -22 -92 -165t-92 -159h-149q0 16 35 159.5t35 164.5h263z"/>
<glyph glyph-name="gravecomb" horiz-adv-x="0" unicode="̀" d="M-398 1086h-175q0 16 -138 164t-138 160h271q0 -11 90 -159.5t90 -164.5z"/>
<glyph glyph-name="acutecomb" horiz-adv-x="0" unicode="́" d="M-172 1410q0 -12 -138 -160t-138 -164h-175q0 16 90 164.5t90 159.5h271z"/>
<glyph glyph-name="uni0302" horiz-adv-x="0" unicode="̂" d="M-172 1086h-155q0 16 -166 194q-166 -178 -166 -194h-155q0 16 95 164.5t95 159.5h262q0 -11 95 -159.5t95 -164.5z"/>
<glyph glyph-name="tildecomb" horiz-adv-x="0" unicode="̃" d="M-127 1355q-112 -226 -256 -226q-46 0 -121.5 23t-115.5 23q-91 0 -176 -107l-89 75q112 226 256 226q50 0 124 -23t113 -23q91 0 176 107z"/>
<glyph glyph-name="uni0304" horiz-adv-x="0" unicode="̄" d="M-253 1335l-12 -174h-484l11 174h485z"/>
<glyph glyph-name="uni0306" horiz-adv-x="0" unicode="̆" d="M-168 1360q-94 -286 -327 -286q-246 0 -329 286l132 60q92 -182 196 -182q100 0 196 182z"/>
<glyph glyph-name="uni0307" horiz-adv-x="0" unicode="̇" d="M-332 1252q0 -68 -46.5 -119t-129.5 -51q-70 0 -109.5 44t-39.5 106q0 68 46.5 118t130.5 50q71 0 109.5 -43.5t38.5 -104.5z"/>
<glyph glyph-name="uni0308" horiz-adv-x="0" unicode="̈" d="M-540 1251q0 -58 -39.5 -101.5t-110.5 -43.5q-59 0 -92.5 37.5t-33.5 90.5q0 58 40 100.5t111 42.5q60 0 92.5 -37t32.5 -89zM-145 1251q0 -58 -39.5 -101.5t-110.5 -43.5q-60 0 -93.5 37.5t-33.5 90.5q0 57 40.5 100t111.5 43q60 0 92.5 -37t32.5 -89z"/>
<glyph glyph-name="uni030A" horiz-adv-x="0" unicode="̊" d="M-384 1280q0 60 -33.5 92t-81.5 32q-52 0 -92 -37t-40 -101q0 -60 33.5 -92.5t81.5 -32.5q52 0 92 37.5t40 101.5zM-270 1289q0 -115 -77.5 -182.5t-177.5 -67.5q-90 0 -155.5 57.5t-65.5 163.5q0 114 77.5 180t177.5 66q90 0 155.5 -56.5t65.5 -160.5z"/>
<glyph glyph-name="uni030B" horiz-adv-x="0" unicode="̋" d="M-70 1410q0 -22 -92 -165t-92 -159h-149q0 16 35 159.5t35 164.5h263zM-457 1410q0 -22 -92 -165t-92 -159h-149q0 16 35 159.5t35 164.5h263z"/>
<glyph glyph-name="uni030C" horiz-adv-x="0" unicode="̌" d="M-167 1410q0 -16 -95 -164.5t-95 -159.5h-262q0 11 -95 159.5t-95 164.5h155q0 -16 166 -194q166 178 166 194h155z"/>
<glyph glyph-name="uni0312" horiz-adv-x="0" unicode="̒" d="M-404 1235q0 -62 -43 -107.5t-119 -45.5q-63 0 -98.5 46t-35.5 105q0 222 204 351l64 -54q-49 -66 -49 -159q77 -50 77 -136z"/>
<glyph glyph-name="uni0315" horiz-adv-x="166" unicode="̕" d="M236 1177q0 -222 -204 -351l-66 55q54 89 54 174q-80 39 -80 120q0 62 43 107.5t119 45.5q63 0 98.5 -46t35.5 -105z"/>
<glyph glyph-name="uni0326" horiz-adv-x="0" unicode="̦" d="M-350 -210q0 -188 -200 -314l-64 54q58 75 58 156q-64 38 -64 102q0 61 37 100.5t102 39.5q61 0 96 -40t35 -98z"/>
<glyph glyph-name="uni0327" horiz-adv-x="0" unicode="̧" d="M-55 -287q0 -227 -246 -227l-24 112q40 0 69 29.5t29 65.5q0 101 -129 125l41 234l87 -14l-16 -130q189 -47 189 -195z"/>
<glyph glyph-name="uni0328" horiz-adv-x="0" unicode="̨" d="M-31 -468q-62 -18 -139 -18q-143 0 -208.5 59t-65.5 157q0 164 127 290h188q-128 -71 -128 -222q0 -127 119 -127q31 0 79 10z"/>
<glyph glyph-name="uni0344" horiz-adv-x="0" unicode="̈́" d="M-380 1256q0 -57 -39.5 -100t-109.5 -43q-59 0 -91.5 37t-32.5 89q0 57 39.5 99t109.5 42q59 0 91.5 -36t32.5 -88zM168 1256q0 -57 -39 -100t-109 -43q-59 0 -92 37t-33 89q0 57 40 99t110 42q59 0 91 -36t32 -88zM93 1650q0 -22 -139.5 -195t-139.5 -199h-156 q0 33 74.5 203t74.5 191h286z"/>
<glyph glyph-name="dieresistonos" horiz-adv-x="836" unicode="΅" d="M280 1256q0 -57 -39.5 -100t-109.5 -43q-59 0 -91.5 37t-32.5 89q0 57 39.5 99t109.5 42q59 0 91.5 -36t32.5 -88zM828 1256q0 -57 -39 -100t-109 -43q-59 0 -92 37t-33 89q0 57 40 99t110 42q59 0 91 -36t32 -88zM753 1650q0 -22 -139.5 -195t-139.5 -199h-156 q0 33 74.5 203t74.5 191h286z"/>
<glyph glyph-name="Wgrave" horiz-adv-x="1877" unicode="Ẁ" d="M1866 1302q0 -93 -200 -660t-200 -642h-264q0 79 -121 445q-129 392 -145 517h-17q-16 -126 -134 -521q-110 -369 -110 -441h-270q0 94 -197 669t-197 633h317q0 -63 114 -502t114 -521h16q0 82 122 511.5t122 511.5h285q0 -75 122 -520.5t122 -502.5h16q0 72 110.5 489 t110.5 534h284zM1052 1416h-175q-10 16 -143 139t-133 135h291q0 -11 80 -134.5t80 -139.5z"/>
<glyph glyph-name="wgrave" horiz-adv-x="1613" unicode="ẁ" d="M1581 950q0 -57 -166.5 -468t-166.5 -482h-233q0 46 -82 283q-102 296 -130 403h-16q-26 -103 -124 -398q-79 -234 -79 -288h-234q0 61 -158.5 486.5t-158.5 463.5h288q0 -41 87.5 -343.5t87.5 -359.5h15q0 69 100 358.5t100 344.5h235q0 -38 97.5 -345t97.5 -358h14 q0 56 88.5 340.5t88.5 362.5h249zM898 1086h-175q0 16 -138 164t-138 160h271q0 -11 90 -159.5t90 -164.5z"/>
<glyph glyph-name="Wacute" horiz-adv-x="1877" unicode="Ẃ" d="M1866 1302q0 -93 -200 -660t-200 -642h-264q0 79 -121 445q-129 392 -145 517h-17q-16 -126 -134 -521q-110 -369 -110 -441h-270q0 94 -197 669t-197 633h317q0 -63 114 -502t114 -521h16q0 82 122 511.5t122 511.5h285q0 -75 122 -520.5t122 -502.5h16q0 72 110.5 489 t110.5 534h284zM1290 1690q0 -12 -133 -135t-143 -139h-175q0 16 80 139.5t80 134.5h291z"/>
<glyph glyph-name="wacute" horiz-adv-x="1613" unicode="ẃ" d="M1581 950q0 -57 -166.5 -468t-166.5 -482h-233q0 46 -82 283q-102 296 -130 403h-16q-26 -103 -124 -398q-79 -234 -79 -288h-234q0 61 -158.5 486.5t-158.5 463.5h288q0 -41 87.5 -343.5t87.5 -359.5h15q0 69 100 358.5t100 344.5h235q0 -38 97.5 -345t97.5 -358h14 q0 56 88.5 340.5t88.5 362.5h249zM1170 1410q0 -12 -138 -160t-138 -164h-175q0 16 90 164.5t90 159.5h271z"/>
<glyph glyph-name="Wdieresis" horiz-adv-x="1877" unicode="Ẅ" d="M1866 1302q0 -93 -200 -660t-200 -642h-264q0 79 -121 445q-129 392 -145 517h-17q-16 -126 -134 -521q-110 -369 -110 -441h-270q0 94 -197 669t-197 633h317q0 -63 114 -502t114 -521h16q0 82 122 511.5t122 511.5h285q0 -75 122 -520.5t122 -502.5h16q0 72 110.5 489 t110.5 534h284zM885 1567q0 -58 -39.5 -101.5t-110.5 -43.5q-59 0 -92.5 37.5t-33.5 90.5q0 58 40 100.5t111 42.5q60 0 92.5 -37t32.5 -89zM1280 1567q0 -58 -39.5 -101.5t-110.5 -43.5q-60 0 -93.5 37.5t-33.5 90.5q0 57 40.5 100t111.5 43q60 0 92.5 -37t32.5 -89z"/>
<glyph glyph-name="wdieresis" horiz-adv-x="1613" unicode="ẅ" d="M1581 950q0 -57 -166.5 -468t-166.5 -482h-233q0 46 -82 283q-102 296 -130 403h-16q-26 -103 -124 -398q-79 -234 -79 -288h-234q0 61 -158.5 486.5t-158.5 463.5h288q0 -41 87.5 -343.5t87.5 -359.5h15q0 69 100 358.5t100 344.5h235q0 -38 97.5 -345t97.5 -358h14 q0 56 88.5 340.5t88.5 362.5h249zM768 1251q0 -58 -39.5 -101.5t-110.5 -43.5q-59 0 -92.5 37.5t-33.5 90.5q0 58 40 100.5t111 42.5q60 0 92.5 -37t32.5 -89zM1163 1251q0 -58 -39.5 -101.5t-110.5 -43.5q-60 0 -93.5 37.5t-33.5 90.5q0 57 40.5 100t111.5 43 q60 0 92.5 -37t32.5 -89z"/>
<glyph glyph-name="Ygrave" horiz-adv-x="1130" unicode="Ỳ" d="M1119 1302q0 -41 -114 -221q-175 -275 -213 -342q-114 -203 -114 -301q0 -220 12 -438h-284q11 219 11 441q0 102 -105 309q-49 96 -196 343q-105 177 -105 209h314q0 -36 125.5 -303.5t125.5 -345.5h16q0 72 122.5 328t122.5 321h282zM682 1416h-175q-10 16 -143 139 t-133 135h291q0 -11 80 -134.5t80 -139.5z"/>
<glyph glyph-name="ygrave" horiz-adv-x="1002" unicode="ỳ" d="M968 950q0 -65 -143 -412q-163 -399 -201 -544q-65 -250 -175 -345q-106 -92 -318 -92l-20 193q124 0 204 70.5t80 188.5q0 119 -180 520.5t-180 420.5h309q0 -35 91 -339t91 -372h14q0 58 82.5 342.5t82.5 368.5h263zM659 1086h-175q0 16 -138 164t-138 160h271 q0 -11 90 -159.5t90 -164.5z"/>
<glyph glyph-name="endash" horiz-adv-x="1024" unicode="–" d="M966 410h-909v180h909v-180z"/>
<glyph glyph-name="emdash" horiz-adv-x="2048" unicode="—" d="M2048 410h-2048v180h2048v-180z"/>
<glyph glyph-name="quoteleft" horiz-adv-x="516" unicode="‘" d="M463 1364q-136 -151 -136 -329q76 -46 76 -147q0 -73 -50.5 -126.5t-140.5 -53.5q-74 0 -115.5 54t-41.5 123q0 262 319 555z"/>
<glyph glyph-name="quoteright" horiz-adv-x="516" unicode="’" d="M463 1253q0 -262 -319 -555l-89 76q136 151 136 329q-76 46 -76 147q0 73 50.5 126.5t140.5 53.5q74 0 115.5 -54t41.5 -123z"/>
<glyph glyph-name="quotesinglbase" horiz-adv-x="516" unicode="‚" d="M428 156q0 -261 -320 -555l-89 76q136 151 136 327q-76 46 -76 149q0 72 51 126t141 54q74 0 115.5 -54t41.5 -123z"/>
<glyph glyph-name="quotedblleft" horiz-adv-x="1033" unicode="“" d="M463 1364q-136 -151 -136 -329q76 -46 76 -147q0 -73 -50.5 -126.5t-140.5 -53.5q-74 0 -115.5 54t-41.5 123q0 262 319 555zM972 1364q-136 -151 -136 -329q76 -46 76 -147q0 -73 -50.5 -126.5t-140.5 -53.5q-74 0 -115.5 54t-41.5 123q0 262 319 555z"/>
<glyph glyph-name="quotedblright" horiz-adv-x="1033" unicode="”" d="M463 1253q0 -262 -319 -555l-89 76q136 151 136 329q-76 46 -76 147q0 73 50.5 126.5t140.5 53.5q74 0 115.5 -54t41.5 -123zM972 1253q0 -262 -319 -555l-89 76q136 151 136 329q-76 46 -76 147q0 73 50.5 126.5t140.5 53.5q74 0 115.5 -54t41.5 -123z"/>
<glyph glyph-name="quotedblbase" horiz-adv-x="1033" unicode="„" d="M428 156q0 -261 -320 -555l-89 76q136 151 136 327q-76 46 -76 149q0 72 51 126t141 54q74 0 115.5 -54t41.5 -123zM960 156q0 -261 -320 -555l-89 76q136 151 136 327q-76 46 -76 149q0 72 51 126t141 54q74 0 115.5 -54t41.5 -123z"/>
<glyph glyph-name="bullet" horiz-adv-x="1351" unicode="•" d="M982 640q0 -154 -89.5 -240t-213.5 -86q-123 0 -213.5 85.5t-90.5 238.5q0 155 90.5 242t213.5 87t213 -86.5t90 -240.5z"/>
<glyph glyph-name="guilsinglleft" horiz-adv-x="516" unicode="‹" d="M446 244l-82 -118l-294 261v201l294 259l82 -117l-201 -242z"/>
<glyph glyph-name="guilsinglright" horiz-adv-x="516" unicode="›" d="M446 387l-293 -261l-83 118l202 242l-202 244l83 117l293 -259v-201z"/>
<glyph glyph-name="fraction" horiz-adv-x="300" unicode="⁄" d="M730 1315q0 -66 -497.5 -666t-497.5 -691l-165 20q0 71 497 665.5t497 691.5z"/>
<glyph glyph-name="fraction" horiz-adv-x="300" unicode="∕" d="M730 1315q0 -66 -497.5 -666t-497.5 -691l-165 20q0 71 497 665.5t497 691.5z"/>
<glyph glyph-name="uni2070" d="M358 926q0 136 -24 206.5t-66 70.5q-88 0 -88 -222q0 -143 25.5 -206.5t62.5 -63.5q90 0 90 215zM526 960q0 -159 -62.5 -261.5t-200.5 -102.5q-251 0 -251 350q0 145 60.5 258t202.5 113q132 0 191.5 -97.5t59.5 -259.5z" unicode="⁰"/>
<glyph glyph-name="uni2074" d="M294 1157h-5q-10 -41 -138 -215v-9h52q58 0 87 1q1 28 2 85q2 98 2 138zM544 945l-16 -132h-82q0 -47 2.5 -110t5.5 -126h-170q3 64 4.5 122t1.5 114h-273l-13 96q0 10 37 64.5t123 172t104 158.5h187q-3 -53 -6 -141t-3 -226q44 0 98 8z" unicode="⁴"/>
<glyph glyph-name="uni2075" d="M501 849q0 -140 -114.5 -214.5t-322.5 -87.5l-24 108q167 16 229 62.5t62 108.5q0 69 -65.5 91t-219.5 22q14 131 22 221t8 144h384l-6 -145q-65 8 -123.5 13t-116.5 6q-7 -55 -9 -113q134 -2 215 -53.5t81 -162.5z" unicode="⁵"/>
<glyph glyph-name="uni2076" d="M360 836q0 56 -32.5 91t-81.5 35q-42 0 -66 -27q0 -124 22 -168.5t68 -44.5q43 0 66.5 34t23.5 80zM528 850q0 -96 -64 -170t-196 -74q-116 0 -186 76.5t-70 218.5q0 411 421 436l12 -107q-144 -15 -197.5 -62.5t-62.5 -117.5h9q52 25 111 25q103 0 163 -61t60 -164z" unicode="⁶"/>
<glyph glyph-name="uni2077" d="M507 1304q0 -57 -19 -129t-129.5 -310t-120.5 -293l-171 19q0 65 115.5 272.5t132 247.5t22.5 68q-56 -1 -136.5 -5t-170.5 -10l20 140h457z" unicode="⁷"/>
<glyph glyph-name="uni2078" d="M333 1157q0 36 -19.5 54.5t-45.5 18.5q-23 0 -42 -13.5t-19 -44.5q0 -61 78 -103q23 14 35.5 36.5t12.5 51.5zM364 800q0 48 -27.5 82t-87.5 65q-28 -13 -53.5 -46t-25.5 -82q0 -55 29.5 -81t69.5 -26q45 0 70 26t25 62zM525 813q0 -98 -67.5 -157t-192.5 -59 q-105 0 -180 52.5t-75 156.5q0 67 31.5 113.5t99.5 74.5v12q-91 65 -91 151q0 78 60 128.5t161 50.5q102 0 160.5 -46t58.5 -121q0 -58 -33.5 -96t-61.5 -52v-12q66 -40 98 -86.5t32 -109.5z" unicode="⁸"/>
<glyph glyph-name="uni2079" d="M357 985q-1 113 -25 163.5t-72 50.5q-35 0 -58 -28.5t-23 -83.5q0 -58 31 -93t75 -35q45 0 72 26zM526 1012q0 -452 -431 -476l-26 108q114 8 188 65t88 164h-10q-32 -28 -97 -28q-111 0 -168.5 67.5t-57.5 159.5q0 94 65.5 169t200.5 75q112 0 180 -79.5t68 -224.5z" unicode="⁹"/>
<glyph glyph-name="uni207A" d="M519 922h-177v-189h-144v189h-177v133h177v187h144v-187h177v-133z" unicode="⁺"/>
<glyph glyph-name="uni207B" d="M519 921h-498v132h498v-132z" unicode="⁻"/>
<glyph glyph-name="uni207C" d="M519 815h-498v133h498v-133zM519 1027h-498v135h498v-135z" unicode="⁼"/>
<glyph glyph-name="uni207D" d="M495 434l-78 -92q-81 38 -139.5 92t-96 122t-55 149t-17.5 173q0 99 17.5 185.5t55.5 160t98 134.5t145 108l60 -100q-114 -91 -164 -214.5t-50 -273.5q0 -140 56 -249.5t168 -194.5z" unicode="⁽"/>
<glyph glyph-name="uni207E" d="M481 931q0 -99 -16.5 -186t-54 -162t-98 -135t-148.5 -106l-58 99q113 92 163 215t50 275q0 277 -224 444l79 91q84 -38 142 -92t95 -122t53.5 -148.5t16.5 -172.5z" unicode="⁾"/>
<glyph glyph-name="uni207F" horiz-adv-x="628" unicode="ⁿ" d="M564 607h-167q8 80 11 161t3 166q0 60 -23.5 85t-63.5 25q-54 0 -103 -36q1 -23 1.5 -61.5t1 -90t0.5 -114.5v-135h-170q5 90 8 167t3 118q0 60 -7.5 124.5t-21.5 134.5l166 23l5 -59l10 1q53 59 148 59q91 0 145 -51t54 -148q0 -42 -0.5 -71.5t-0.5 -72.5q0 -97 1 -225z "/>
<glyph glyph-name="uni2080" d="M358 15q0 136 -24 206.5t-66 70.5q-88 0 -88 -222q0 -143 25.5 -206.5t62.5 -63.5q90 0 90 215zM526 49q0 -159 -62.5 -261.5t-200.5 -102.5q-251 0 -251 350q0 145 60.5 258t202.5 113q132 0 191.5 -97.5t59.5 -259.5z" unicode="₀"/>
<glyph glyph-name="uni2081" d="M427 393q-5 -174 -5 -351q0 -192 5 -346h-170q6 163 6 346q0 81 -3 161l-190 -99l-38 96l291 193h104z" unicode="₁"/>
<glyph glyph-name="uni2082" d="M506 -173l-16 -131h-435l13 109q51 35 94 76.5t77.5 86t53 93.5t18.5 97q0 120 -128 120q-64 0 -122 -17l15 124q59 20 148 20q132 0 192.5 -62t60.5 -162q0 -181 -212 -352v-10q152 0 241 8z" unicode="₂"/>
<glyph glyph-name="uni2083" d="M504 -78q0 -54 -27 -102.5t-80.5 -90.5t-143.5 -69t-209 -33l-25 107q162 18 238 61t76 109q0 111 -244 111l18 110q117 0 162 17t45 66q0 36 -26 53t-90 17q-43 0 -141 -21l9 126q82 22 190 22q90 0 153.5 -38t63.5 -122q0 -99 -101 -140v-8q57 -17 94.5 -56.5 t37.5 -118.5z" unicode="₃"/>
<glyph glyph-name="uni2084" d="M294 246h-5q-10 -41 -138 -215v-9h52q58 0 87 1q1 28 2 85q2 98 2 138zM544 34l-16 -132h-82q0 -47 2.5 -110t5.5 -126h-170q3 64 4.5 122t1.5 114h-273l-13 96q0 10 37 64.5t123 172t104 158.5h187q-3 -53 -6 -141t-3 -226q44 0 98 8z" unicode="₄"/>
<glyph glyph-name="uni2085" d="M501 -62q0 -140 -114.5 -214.5t-322.5 -87.5l-24 108q167 16 229 62.5t62 108.5q0 69 -65.5 91t-219.5 22q14 131 22 221t8 144h384l-6 -145q-65 8 -123.5 13t-116.5 6q-7 -55 -9 -113q134 -2 215 -53.5t81 -162.5z" unicode="₅"/>
<glyph glyph-name="uni2086" d="M360 -75q0 56 -32.5 91t-81.5 35q-42 0 -66 -27q0 -124 22 -168.5t68 -44.5q43 0 66.5 34t23.5 80zM528 -61q0 -96 -64 -170t-196 -74q-116 0 -186 76.5t-70 218.5q0 411 421 436l12 -107q-144 -15 -197.5 -62.5t-62.5 -117.5h9q52 25 111 25q103 0 163 -61t60 -164z" unicode="₆"/>
<glyph glyph-name="uni2087" d="M507 393q0 -57 -19 -129t-129.5 -310t-120.5 -293l-171 19q0 65 115.5 272.5t132 247.5t22.5 68q-56 -1 -136.5 -5t-170.5 -10l20 140h457z" unicode="₇"/>
<glyph glyph-name="uni2088" d="M333 246q0 36 -19.5 54.5t-45.5 18.5q-23 0 -42 -13.5t-19 -44.5q0 -61 78 -103q23 14 35.5 36.5t12.5 51.5zM364 -111q0 48 -27.5 82t-87.5 65q-28 -13 -53.5 -46t-25.5 -82q0 -55 29.5 -81t69.5 -26q45 0 70 26t25 62zM525 -98q0 -98 -67.5 -157t-192.5 -59 q-105 0 -180 52.5t-75 156.5q0 67 31.5 113.5t99.5 74.5v12q-91 65 -91 151q0 78 60 128.5t161 50.5q102 0 160.5 -46t58.5 -121q0 -58 -33.5 -96t-61.5 -52v-12q66 -40 98 -86.5t32 -109.5z" unicode="₈"/>
<glyph glyph-name="uni2089" d="M357 74q-1 113 -25 163.5t-72 50.5q-35 0 -58 -28.5t-23 -83.5q0 -58 31 -93t75 -35q45 0 72 26zM526 101q0 -452 -431 -476l-26 108q114 8 188 65t88 164h-10q-32 -28 -97 -28q-111 0 -168.5 67.5t-57.5 159.5q0 94 65.5 169t200.5 75q112 0 180 -79.5t68 -224.5z" unicode="₉"/>
<glyph glyph-name="uni208A" d="M519 11h-177v-189h-144v189h-177v133h177v187h144v-187h177v-133z" unicode="₊"/>
<glyph glyph-name="uni208B" d="M519 10h-498v132h498v-132z" unicode="₋"/>
<glyph glyph-name="uni208C" d="M519 -96h-498v133h498v-133zM519 116h-498v135h498v-135z" unicode="₌"/>
<glyph glyph-name="uni208D" d="M495 -477l-78 -92q-81 38 -139.5 92t-96 122t-55 149t-17.5 173q0 99 17.5 185.5t55.5 160t98 134.5t145 108l60 -100q-114 -91 -164 -214.5t-50 -273.5q0 -140 56 -249.5t168 -194.5z" unicode="₍"/>
<glyph glyph-name="uni208E" d="M481 20q0 -99 -16.5 -186t-54 -162t-98 -135t-148.5 -106l-58 99q113 92 163 215t50 275q0 277 -224 444l79 91q84 -38 142 -92t95 -122t53.5 -148.5t16.5 -172.5z" unicode="₎"/>
<glyph glyph-name="Euro" horiz-adv-x="909" unicode="€" d="M827 188l-16 -175q-107 -39 -250 -39q-175 0 -286 114.5t-135 312.5h-112l22 110h85q-1 13 -1 26q0 26 3 51h-109l22 110h105q40 180 154.5 284t282.5 104q126 0 215 -20l-33 -185q-86 24 -191 24q-159 0 -196 -207q179 0 365 10l-19 -120h-356q-1 -13 -1 -28 q0 -22 2 -49h342l-21 -120q-143 10 -307 10q20 -118 80.5 -181t144.5 -63q123 0 210 31z"/>
<glyph glyph-name="a.superior" d="M349 748v2q-2 32 -2 99q-159 -9 -159 -78q0 -48 63 -48q57 0 98 25zM521 609l-158 -7q-6 12 -6 45h-7q-49 -51 -147 -51q-75 0 -124 38t-49 119q0 96 86.5 151t232.5 55q-1 52 -18.5 68.5t-90.5 16.5q-66 0 -184 -33l16 133q96 31 199 31q53 0 93.5 -9.5t73 -32t50.5 -62 t18 -92.5q0 -65 -1.5 -97.5t-1.5 -88.5q0 -92 18 -184z" horiz-adv-x="574"/>
<glyph glyph-name="o.superior" d="M437 880q0 76 -34.5 127t-84.5 51q-56 0 -87 -46t-31 -123q0 -74 34.5 -126t85.5 -52q56 0 86.5 45t30.5 124zM600 897q0 -142 -85 -225.5t-207 -83.5q-112 0 -191.5 75t-79.5 205q0 146 84.5 229t208.5 83q112 0 191 -74.5t79 -208.5z" horiz-adv-x="637"/>
<glyph glyph-name="glyph431" d="M512 1416h-175q-10 16 -143 139t-133 135h291q0 -11 80 -134.5t80 -139.5z" horiz-adv-x="562"/>
<glyph glyph-name="glyph435" d="M513 1690q0 -12 -133 -135t-143 -139h-175q0 16 80 139.5t80 134.5h291z" horiz-adv-x="562"/>
<glyph glyph-name="glyph439" d="M711 1416h-155q-10 16 -166 134q-156 -118 -166 -134h-155q0 16 100 139.5t100 134.5h242q0 -11 100 -134.5t100 -139.5z" horiz-adv-x="782"/>
<glyph glyph-name="glyph443" d="M711 1690q0 -16 -100 -139.5t-100 -134.5h-242q0 11 -100 134.5t-100 139.5h155q10 -16 166 -134q156 118 166 134h155z" horiz-adv-x="782"/>
<glyph glyph-name="glyph448" d="M820 1625q-112 -196 -256 -196q-46 0 -121.5 23t-115.5 23q-91 0 -176 -67l-89 75q112 186 256 186q50 0 124 -23t113 -23q91 0 176 77z" horiz-adv-x="884"/>
<glyph glyph-name="glyph452" d="M358 1567q0 -58 -39.5 -101.5t-110.5 -43.5q-59 0 -92.5 37.5t-33.5 90.5q0 58 40 100.5t111 42.5q60 0 92.5 -37t32.5 -89zM753 1567q0 -58 -39.5 -101.5t-110.5 -43.5q-60 0 -93.5 37.5t-33.5 90.5q0 57 40.5 100t111.5 43q60 0 92.5 -37t32.5 -89z" horiz-adv-x="836"/>
<glyph glyph-name="glyph456" d="M507 1621l-12 -174h-504l11 174h505z" horiz-adv-x="500"/>
<glyph glyph-name="glyph460" d="M719 1630q-94 -251 -327 -251q-246 0 -329 251l132 60q72 -147 196 -147q120 0 196 147z" horiz-adv-x="782"/>
<glyph glyph-name="glyph464" d="M429 1596q0 60 -33.5 92t-81.5 32q-52 0 -92 -37t-40 -101q0 -60 33.5 -92.5t81.5 -32.5q52 0 92 37.5t40 101.5zM543 1605q0 -115 -77.5 -182.5t-177.5 -67.5q-90 0 -155.5 57.5t-65.5 163.5q0 114 77.5 180t177.5 66q90 0 155.5 -56.5t65.5 -160.5z" horiz-adv-x="610"/>
<glyph glyph-name="glyph468" d="M819 1690q0 -22 -92 -140t-102 -134h-149q0 16 35 134.5t35 139.5h273zM432 1690q0 -22 -92 -140t-102 -134h-149q0 16 35 134.5t35 139.5h273z" horiz-adv-x="882"/>
<glyph glyph-name="glyph472" d="M441 1566q0 -68 -46.5 -119t-129.5 -51q-70 0 -109.5 44t-39.5 106q0 68 46.5 118t130.5 50q71 0 109.5 -43.5t38.5 -104.5z" horiz-adv-x="526"/>
</font>
</defs>
</svg>
