<?xml version="1.0" encoding="UTF-8" standalone="no"?>
<!DOCTYPE svg  PUBLIC '-//W3C//DTD SVG 1.1//EN'  'http://www.w3.org/Graphics/SVG/1.1/DTD/svg11.dtd'>
<svg xmlns="http://www.w3.org/2000/svg">
<defs>
<font id="AndaleSans-Regular" horiz-adv-x="1229">
<font-face underline-position="-250" font-weight="400" descent="-410" panose-1="2 11 6 3 2 1 4 2 2 3" units-per-em="2048" unicode-range="U+0020-2215" bbox="-123 -530 2058 2127" x-height="1042" underline-thickness="131" font-family="AndaleSans" ascent="1638" cap-height="1411"/>
<missing-glyph horiz-adv-x="2048"/>
<glyph glyph-name=".notdef" horiz-adv-x="2048"/>
<glyph glyph-name=".null" horiz-adv-x="0"/>
<glyph glyph-name="nonmarkingreturn" horiz-adv-x="2048"/>
<glyph glyph-name="space" horiz-adv-x="604" unicode=" "/>
<glyph glyph-name="exclam" horiz-adv-x="535" unicode="!" d="M256 221q51 0 86 -34t35 -85q0 -50 -35 -84t-86 -34q-50 0 -84.5 34t-34.5 84q0 51 34 85t85 34zM360 926l-32 -471h-123l-31 467v489h186v-485z"/>
<glyph glyph-name="quotedbl" horiz-adv-x="887" unicode='&quot;' d="M365 1178l-37 -287h-123l-35 283v237h195v-233zM717 1178l-37 -287h-123l-35 283v237h195v-233z"/>
<glyph glyph-name="numbersign" d="M793 887h-269l-75 -359h268zM1147 397h-318l-84 -397h-141l84 397h-268l-84 -397h-141l84 397h-191v131h219l76 359h-295v131h322l84 393h141l-84 -393h268l84 393h141l-83 -393h186v-131h-213l-76 -359h289v-131z" unicode="#"/>
<glyph glyph-name="dollar" horiz-adv-x="1139" unicode="$" d="M643 618v-460q162 69 162 233q0 141 -162 227zM524 864v404q-184 -50 -184 -203q0 -111 184 -201zM643 -10v-203h-119v186h-18q-172 0 -338 86l45 150q58 -32 143 -55t142 -23h26v545q-239 101 -301.5 191.5t-62.5 191.5q0 147 96 246.5t268 126.5v98h119v-92 q124 -2 277 -49l-46 -156q-109 41 -231 47v-467q192 -79 267 -175.5t75 -225.5q0 -159 -90.5 -270.5t-251.5 -151.5z"/>
<glyph glyph-name="percent" horiz-adv-x="1227" unicode="%" d="M897 94q139 0 139 213t-139 213t-139 -213t139 -213zM897 641q133 0 208 -92.5t75 -241.5q0 -147 -75.5 -240.5t-207.5 -93.5q-131 0 -207 94t-76 240q0 145 76.5 239.5t206.5 94.5zM1053 1411l-746 -1411h-139l745 1411h140zM330 891q139 0 139 213t-139 213 q-140 0 -140 -213t140 -213zM330 1438q133 0 207.5 -93t74.5 -241t-75 -241t-207 -93q-131 0 -207 93.5t-76 240.5q0 144 76.5 239t206.5 95z"/>
<glyph glyph-name="ampersand" horiz-adv-x="1331" unicode="&amp;" d="M803 270l-328 410q-115 -87 -158 -155t-43 -154q0 -104 79.5 -175t174.5 -71q167 0 275 145zM518 874q120 86 160.5 144.5t40.5 126.5q0 69 -43.5 109t-108.5 40q-70 0 -122 -46t-52 -122q0 -102 125 -252zM1268 14q-66 -24 -127 -24q-102 0 -244 166 q-145 -183 -373 -183q-181 0 -306.5 113.5t-125.5 282.5q0 108 65 203.5t234 211.5q-162 197 -162 334q0 143 95.5 231.5t240.5 88.5q135 0 222 -76.5t87 -210.5q0 -88 -51.5 -172.5t-222.5 -208.5l281 -346q65 165 100 233.5t97.5 118t160.5 49.5h16v-153h-16 q-56 0 -109.5 -60t-146.5 -315q79 -88 117.5 -120t85.5 -32q38 0 82 7v-138z"/>
<glyph glyph-name="quotesingle" horiz-adv-x="535" unicode="&apos;" d="M365 1178l-37 -287h-123l-35 283v237h195v-233z"/>
<glyph glyph-name="parenleft" horiz-adv-x="698" unicode="(" d="M670 -158l-62 -75q-220 165 -333 387t-113 479q0 527 446 864l62 -76q-316 -282 -316 -786q0 -510 316 -793z"/>
<glyph glyph-name="parenright" horiz-adv-x="698" unicode=")" d="M90 1497q447 -337 447 -864q0 -257 -113.5 -479t-333.5 -387l-61 75q315 283 315 793q0 504 -315 786z"/>
<glyph glyph-name="asterisk" horiz-adv-x="946" unicode="*" d="M838 862l-70 -110l-231 149v-272h-129v270l-232 -149l-70 112l246 158l-246 160l70 110l232 -149v270h129v-270l231 149l70 -110l-244 -160z"/>
<glyph glyph-name="plus" d="M1094 651h-408v-403h-143v403h-408v144h408v403h143v-403h408v-144z" unicode="+"/>
<glyph glyph-name="comma" horiz-adv-x="479" unicode="," d="M233 -27q-52 6 -86 43t-34 84q0 51 33.5 86t82.5 35q56 0 97 -45.5t41 -109.5q0 -196 -217 -306l-39 72q122 60 122 141z"/>
<glyph glyph-name="hyphen" horiz-adv-x="715" unicode="-" d="M655 446h-594v172h594v-172z"/>
<glyph glyph-name="period" horiz-adv-x="463" unicode="." d="M229 221q51 0 86 -34t35 -85q0 -50 -35 -84t-86 -34q-50 0 -84 34t-34 84q0 51 34 85t84 34z"/>
<glyph glyph-name="slash" horiz-adv-x="778" unicode="/" d="M780 1438l-620 -1465h-158l614 1465h164z"/>
<glyph glyph-name="zero" horiz-adv-x="1063" unicode="0" d="M530 121q125 0 187.5 135.5t62.5 445.5q0 313 -62.5 448.5t-187.5 135.5q-123 0 -185 -131.5t-62 -452.5q0 -317 62 -449t185 -132zM530 1438q219 0 331 -190t112 -546q0 -351 -112 -540t-331 -189q-218 0 -330 190t-112 539q0 353 112 544.5t330 191.5z"/>
<glyph glyph-name="one" horiz-adv-x="1063" unicode="1" d="M645 0h-184v1239l-250 -152v170l260 160h174v-1417z"/>
<glyph glyph-name="two" horiz-adv-x="1063" unicode="2" d="M909 0h-805v137q302 330 389.5 437t145 224.5t57.5 235.5q0 111 -73.5 181.5t-194.5 70.5q-110 0 -276 -63l-29 147q156 68 332 68q195 0 314.5 -108.5t119.5 -289.5q0 -119 -54 -232.5t-142 -223t-349 -402.5h565v-182z"/>
<glyph glyph-name="three" horiz-adv-x="1063" unicode="3" d="M629 748q128 -30 206 -121.5t78 -210.5q0 -188 -148 -315.5t-351 -127.5q-174 0 -318 76l41 144q143 -68 283 -68q135 0 220 75t85 206q0 114 -97 188t-253 74h-37v149h6q147 0 248.5 70.5t101.5 185.5q0 96 -74 154.5t-192 58.5q-107 0 -252 -63l-29 149q153 66 289 66 q194 0 320.5 -102.5t126.5 -260.5q0 -108 -76 -202t-178 -117v-8z"/>
<glyph glyph-name="four" horiz-adv-x="1063" unicode="4" d="M666 487v766l-437 -766h437zM1024 326h-174v-326h-184v326h-613v131l535 954h262v-924h174v-161z"/>
<glyph glyph-name="five" horiz-adv-x="1063" unicode="5" d="M330 852q87 18 147 18q205 0 321.5 -123t116.5 -311q0 -189 -141 -326t-330 -137t-325 64l41 145q134 -59 289 -59q122 0 199 84.5t77 234.5q0 129 -71 204t-185 75q-89 0 -170 -35l-113 51v674h672v-184h-528v-375z"/>
<glyph glyph-name="six" horiz-adv-x="1063" unicode="6" d="M299 592q0 -184 76.5 -329.5t197.5 -145.5q105 0 164.5 81.5t59.5 219.5q0 129 -66 210t-178 81q-137 0 -254 -117zM295 754q46 41 125 69.5t137 28.5q185 0 307.5 -116t122.5 -300q0 -202 -109 -332.5t-292 -130.5q-228 0 -356 203t-128 512q0 330 133.5 540t374.5 210 q169 0 299 -56l-32 -147q-137 55 -263 55q-311 0 -319 -536z"/>
<glyph glyph-name="seven" horiz-adv-x="1063" unicode="7" d="M967 1305l-561 -1305h-175l531 1223h-660v188h865v-106z"/>
<glyph glyph-name="eight" horiz-adv-x="1063" unicode="8" d="M532 702q-151 -43 -210.5 -125.5t-59.5 -175.5q0 -128 82.5 -204t192.5 -76q113 0 192.5 75.5t79.5 204.5q0 235 -277 301zM532 848q8 0 45 10.5t66 27t54.5 43t42 63t16.5 81.5q0 95 -65.5 156t-158.5 61q-89 0 -153 -62.5t-64 -154.5q0 -59 24 -102.5t58.5 -70 t77 -39.5t57.5 -13zM721 774q132 -50 203 -148t71 -225q0 -191 -130.5 -309.5t-327.5 -118.5q-204 0 -333.5 117t-129.5 309q0 127 72.5 225.5t207.5 149.5q-104 36 -165.5 119t-61.5 182q0 142 110.5 252.5t294.5 110.5q183 0 300.5 -109.5t117.5 -253.5q0 -97 -62.5 -180 t-166.5 -121z"/>
<glyph glyph-name="nine" horiz-adv-x="1063" unicode="9" d="M764 819q0 196 -68 335.5t-186 139.5q-109 0 -176.5 -84.5t-67.5 -216.5t61.5 -211.5t172.5 -79.5q65 0 136.5 31t117.5 76zM768 657q-46 -40 -129.5 -69t-142.5 -29q-184 0 -302 115.5t-118 300.5q0 197 117.5 330t304.5 133q223 0 343 -195t120 -520 q0 -315 -145.5 -532.5t-393.5 -217.5q-169 0 -299 56l33 147q137 -55 262 -55q160 0 252.5 141t97.5 395z"/>
<glyph glyph-name="colon" horiz-adv-x="463" unicode=":" d="M229 221q51 0 86 -34t35 -85q0 -50 -35 -84t-86 -34q-50 0 -84 34t-34 84q0 51 34 85t84 34zM229 1057q51 0 86 -34.5t35 -84.5t-35 -84.5t-86 -34.5q-50 0 -84 34.5t-34 84.5t34 84.5t84 34.5z"/>
<glyph glyph-name="semicolon" horiz-adv-x="479" unicode=";" d="M233 -27q-52 6 -86 43t-34 84q0 51 33.5 86t82.5 35q56 0 97 -45.5t41 -109.5q0 -196 -217 -306l-39 72q122 60 122 141zM231 1057q51 0 86 -34.5t35 -84.5t-35 -84.5t-86 -34.5q-50 0 -84 34.5t-34 84.5q0 51 34 85t84 34z"/>
<glyph glyph-name="less" d="M1090 211l-949 436v146l949 432v-146l-785 -360l785 -363v-145z" unicode="&lt;"/>
<glyph glyph-name="equal" d="M1094 457h-959v139h959v-139zM1094 850h-959v139h959v-139z" unicode="="/>
<glyph glyph-name="greater" d="M1087 647l-948 -436v145l785 363l-785 360v146l948 -432v-146z" unicode="&gt;"/>
<glyph glyph-name="question" horiz-adv-x="874" unicode="?" d="M352 221q51 0 86 -34t35 -85q0 -50 -35 -84t-86 -34q-50 0 -84.5 34t-34.5 84q0 51 34.5 85t84.5 34zM94 1358q54 30 144 55t147 25q185 0 289 -92t104 -269q0 -97 -48.5 -182.5t-174.5 -187.5q-68 -55 -91 -75t-42 -58t-19 -99v-41h-133v43q0 107 30.5 167t74.5 97 q97 83 132 121t62 92.5t27 114.5q0 86 -33.5 135t-83 67.5t-104.5 18.5q-103 0 -232 -67z"/>
<glyph glyph-name="at" horiz-adv-x="1686" unicode="@" d="M1053 913q-51 58 -129 58q-136 0 -236 -140t-100 -305q0 -82 32 -133t89 -51q73 0 172 105t102 118zM1303 -78q-220 -84 -453 -84q-319 0 -533.5 208t-214.5 511q0 243 104.5 444t285 315t380.5 114q316 0 520.5 -185.5t204.5 -488.5q0 -221 -147 -377t-363 -156 q-64 0 -102.5 32t-38.5 83q0 25 6 74q-148 -189 -295 -189q-101 0 -160 73.5t-59 195.5q0 213 143 403t343 190q85 0 151 -55l8 37h144l-81 -403q-32 -162 -37 -204.5t-5 -64.5q0 -53 41 -53q132 0 232 120t100 294q0 256 -166.5 408.5t-438.5 152.5q-263 0 -456 -219.5 t-193 -540.5q0 -259 180 -432.5t447 -173.5q241 0 424 61z"/>
<glyph glyph-name="A" horiz-adv-x="1298" unicode="A" d="M854 637l-205 555l-203 -555h408zM1282 0h-197l-176 481h-522l-176 -481h-195l545 1411h176z"/>
<glyph glyph-name="B" horiz-adv-x="1161" unicode="B" d="M354 156h162q160 0 254 71t94 197q0 264 -360 264h-150v-532zM354 844h168q136 0 215.5 57t79.5 158q0 196 -285 196h-178v-411zM745 770q148 -27 230 -120t82 -228q0 -189 -141 -305.5t-349 -116.5h-397v1411h387q210 0 329.5 -92t119.5 -258q0 -102 -68.5 -179 t-192.5 -112z"/>
<glyph glyph-name="C" horiz-adv-x="1223" unicode="C" d="M1153 115q-172 -142 -405 -142q-285 0 -461 207t-176 525q0 330 173 531.5t464 201.5q103 0 210.5 -32t171.5 -81l-67 -133q-149 86 -315 86q-211 0 -327 -152t-116 -421q0 -263 117 -419.5t326 -156.5q186 0 344 111z"/>
<glyph glyph-name="D" horiz-adv-x="1384" unicode="D" d="M354 156h260q199 0 331 153t132 396q0 241 -132 395.5t-331 154.5h-260v-1099zM170 1411h444q286 0 472 -198t186 -506q0 -293 -190 -500t-468 -207h-444v1411z"/>
<glyph glyph-name="E" horiz-adv-x="983" unicode="E" d="M879 0h-709v1411h702v-156h-518v-421h496v-156h-496v-522h525v-156z"/>
<glyph glyph-name="F" horiz-adv-x="981" unicode="F" d="M872 1255h-518v-495h496v-156h-496v-604h-184v1411h702v-156z"/>
<glyph glyph-name="G" horiz-adv-x="1341" unicode="G" d="M1180 121q-180 -148 -432 -148q-285 0 -461 207t-176 525q0 330 173.5 531.5t465.5 201.5q206 0 383 -107l-68 -139q-154 86 -315 86q-212 0 -328.5 -152.5t-116.5 -420.5q0 -263 117 -419.5t326 -156.5q159 0 247 61v342h-256v156h441v-567z"/>
<glyph glyph-name="H" horiz-adv-x="1366" unicode="H" d="M1196 0h-184v688h-658v-688h-184v1411h184v-567h658v567h184v-1411z"/>
<glyph glyph-name="I" horiz-adv-x="537" unicode="I" d="M360 0h-184v1411h184v-1411z"/>
<glyph glyph-name="J" horiz-adv-x="537" unicode="J" d="M360 96q0 -204 -89 -308.5t-261 -104.5q-66 0 -133 28l51 139q57 -12 92 -12q81 0 118.5 59t37.5 185v1329h184v-1315z"/>
<glyph glyph-name="K" horiz-adv-x="1231" unicode="K" d="M1210 0h-219l-493 680l-144 -150v-530h-184v1411h184v-661l633 661h215l-569 -596z"/>
<glyph glyph-name="L" horiz-adv-x="938" unicode="L" d="M879 0h-709v1411h184v-1255h525v-156z"/>
<glyph glyph-name="M" horiz-adv-x="1753" unicode="M" d="M1583 0h-176v1124l-449 -1124h-163l-447 1124v-1124h-178v1411h229l478 -1184l483 1184h223v-1411z"/>
<glyph glyph-name="N" horiz-adv-x="1456" unicode="N" d="M1286 0h-209l-727 1157v-1157h-180v1411h209l729 -1157v1157h178v-1411z"/>
<glyph glyph-name="O" horiz-adv-x="1495" unicode="O" d="M748 129q211 0 326.5 151.5t115.5 424.5q0 261 -120 419t-322 158q-203 0 -323 -158t-120 -419q0 -263 117 -419.5t326 -156.5zM748 1438q290 0 463 -201.5t173 -531.5q0 -313 -172.5 -522.5t-463.5 -209.5q-285 0 -461 207t-176 525q0 330 173 531.5t464 201.5z"/>
<glyph glyph-name="P" horiz-adv-x="1057" unicode="P" d="M354 774h133q137 0 210 63t73 181q0 109 -76 173t-198 64h-142v-481zM170 1411h334q208 0 334.5 -105t126.5 -286t-125 -291.5t-330 -110.5h-156v-618h-184v1411z"/>
<glyph glyph-name="Q" horiz-adv-x="1495" unicode="Q" d="M748 129q211 0 326.5 151.5t115.5 424.5q0 261 -120 419t-322 158q-203 0 -323 -158t-120 -419q0 -263 117 -419.5t326 -156.5zM868 -16q-64 -11 -120 -11q-285 0 -461 207t-176 525q0 330 173 531.5t464 201.5q290 0 463 -201.5t173 -531.5q0 -221 -90 -397t-256 -265 q34 -172 138 -172q75 0 137 16l37 -133q-105 -33 -191 -33q-220 0 -291 263z"/>
<glyph glyph-name="R" horiz-adv-x="1165" unicode="R" d="M354 782h168q126 0 209.5 72.5t83.5 177.5q0 223 -283 223h-178v-473zM1130 0h-210l-408 627h-158v-627h-184v1411h387q214 0 331.5 -97.5t117.5 -279.5q0 -133 -80 -229.5t-232 -138.5z"/>
<glyph glyph-name="S" horiz-adv-x="1001" unicode="S" d="M801 1233q-124 47 -250 47q-118 0 -201.5 -57.5t-83.5 -157.5q0 -120 211 -211q160 -70 214.5 -100t107 -78.5t82.5 -114t30 -149.5q0 -209 -142.5 -324t-336.5 -115q-172 0 -338 86l45 150q58 -32 143 -55t142 -23q134 0 220.5 71t86.5 189q0 95 -61.5 155.5 t-194.5 119.5q-155 68 -201.5 94t-92 71.5t-70.5 102.5t-25 125q0 177 130.5 278t330.5 101q138 0 299 -49z"/>
<glyph glyph-name="T" horiz-adv-x="1077" unicode="T" d="M1055 1255h-422v-1255h-184v1255h-426v156h1032v-156z"/>
<glyph glyph-name="U" horiz-adv-x="1393" unicode="U" d="M1237 502q0 -247 -141.5 -388t-401.5 -141q-248 0 -393 145t-145 380v913h184v-901q0 -177 96 -276t258 -99q168 0 269.5 100t101.5 279v897h172v-909z"/>
<glyph glyph-name="V" horiz-adv-x="1280" unicode="V" d="M1274 1411l-545 -1411h-176l-545 1411h197l436 -1192l438 1192h195z"/>
<glyph glyph-name="W" horiz-adv-x="1821" unicode="W" d="M1804 1411l-389 -1411h-176l-328 1149l-293 -1149h-176l-426 1411h197l322 -1132l284 1132h182l330 -1132l279 1132h194z"/>
<glyph glyph-name="X" horiz-adv-x="1192" unicode="X" d="M1167 0h-213l-362 549l-363 -549h-213l473 709l-469 702h207l365 -549l366 549h203l-467 -702z"/>
<glyph glyph-name="Y" horiz-adv-x="1075" unicode="Y" d="M1067 1411l-436 -846v-565h-185v565l-436 846h205l324 -647l335 647h193z"/>
<glyph glyph-name="Z" horiz-adv-x="1083" unicode="Z" d="M1051 1276l-789 -1120h778v-156h-1005v131l796 1124h-792v156h1012v-135z"/>
<glyph glyph-name="bracketleft" horiz-adv-x="610" unicode="[" d="M580 -270h-410v1806h410v-131h-236v-1544h236v-131z"/>
<glyph glyph-name="backslash" d="M983 -27h-162l-616 1465h160z" unicode="\"/>
<glyph glyph-name="bracketright" horiz-adv-x="610" unicode="]" d="M440 -270h-409v131h235v1544h-235v131h409v-1806z"/>
<glyph glyph-name="asciicircum" d="M1124 676h-143l-367 590l-360 -590h-143l436 735h131z" unicode="^"/>
<glyph glyph-name="underscore" d="M1237 -446h-1249v131h1249v-131z" unicode="_"/>
<glyph glyph-name="grave" d="M772 1194h-113l-311 301h225z" unicode="`"/>
<glyph glyph-name="a" horiz-adv-x="985" unicode="a" d="M678 281v217q-251 -20 -329.5 -77.5t-78.5 -144.5q0 -71 45.5 -112t102.5 -41q70 0 140 40.5t120 117.5zM883 0h-176q-21 66 -21 133q-129 -160 -328 -160q-109 0 -183.5 75.5t-74.5 213.5q0 106 47 173t120.5 101t142.5 46t268 32v48q0 134 -47 197t-152 63 q-128 0 -291 -88l-47 120q205 113 387 113q171 0 247.5 -92t76.5 -289v-438q0 -139 31 -248z"/>
<glyph glyph-name="b" horiz-adv-x="1153" unicode="b" d="M332 303q24 -70 97 -123t153 -53q136 0 210 104t74 295t-71 290t-207 99q-60 0 -113.5 -24t-98 -77t-44.5 -66v-445zM332 915q103 152 303 152q180 0 298 -144.5t118 -381.5q0 -259 -120 -413.5t-308 -154.5q-196 0 -291 138v-111h-174v1487h174v-572z"/>
<glyph glyph-name="c" horiz-adv-x="946" unicode="c" d="M866 47q-135 -74 -284 -74q-224 0 -352 146.5t-128 402.5q0 262 130 403.5t346 141.5q140 0 276 -57l-41 -140q-113 48 -233 48q-141 0 -217 -103t-76 -293t77.5 -294.5t217.5 -104.5q122 0 245 61z"/>
<glyph glyph-name="d" horiz-adv-x="1153" unicode="d" d="M821 305v445q-38 76 -105.5 122t-150.5 46q-136 0 -207 -99.5t-71 -290.5q0 -190 73.5 -294.5t210.5 -104.5q55 0 109.5 26t97.5 77.5t43 72.5zM995 0h-174v113q-95 -138 -291 -138q-188 0 -308 154.5t-120 413.5q0 241 118.5 383.5t297.5 142.5q200 0 303 -151v569h174 v-1487z"/>
<glyph glyph-name="e" horiz-adv-x="1042" unicode="e" d="M762 643q0 120 -59.5 197.5t-147.5 77.5q-111 0 -181.5 -76.5t-80.5 -198.5h469zM940 508h-653q0 -171 90 -278t231 -107q153 0 283 59l41 -139q-153 -70 -324 -70q-229 0 -367.5 149.5t-138.5 399.5q0 241 116 393t331 152q177 0 284 -134.5t107 -369.5v-55z"/>
<glyph glyph-name="f" horiz-adv-x="680" unicode="f" d="M717 1454l-41 -135q-95 33 -168 33q-61 0 -85 -49.5t-24 -157.5v-103h248v-153h-248v-889h-174v889h-182v153h182v127q0 181 68 256.5t213 75.5q93 0 211 -47z"/>
<glyph glyph-name="g" horiz-adv-x="1032" unicode="g" d="M387 27q-131 -88 -131 -187q0 -57 59.5 -92t165.5 -35q132 0 240 64t108 155q0 105 -131 105zM475 526q81 0 130.5 55.5t49.5 145.5q0 94 -48.5 147.5t-131.5 53.5q-81 0 -131.5 -54.5t-50.5 -146.5q0 -89 51.5 -145t130.5 -56zM784 899q45 -73 45 -172 q0 -144 -99.5 -242t-254.5 -98l-74 2q-10 0 -66 -42t-56 -79q0 -29 30.5 -49t83.5 -20l350 10q127 0 198 -65t71 -181q0 -178 -159.5 -283.5t-371.5 -105.5q-175 0 -287 73t-112 189q0 117 166 209q-60 29 -98.5 78t-38.5 98q0 113 178 205q-81 50 -125.5 130.5t-44.5 170.5 q0 147 102.5 243.5t253.5 96.5q110 0 197 -47l311 47v-168h-199z"/>
<glyph glyph-name="h" horiz-adv-x="1130" unicode="h" d="M979 0h-174v664q0 133 -42 192t-132 59q-132 0 -299 -170v-745h-174v1487h174v-592q163 172 346 172q301 0 301 -358v-709z"/>
<glyph glyph-name="i" horiz-adv-x="494" unicode="i" d="M334 0h-174v1042h174v-1042zM246 1491q43 0 74.5 -31.5t31.5 -75.5q0 -42 -31.5 -73t-74.5 -31t-74 31t-31 73q0 45 31 76t74 31z"/>
<glyph glyph-name="j" horiz-adv-x="494" unicode="j" d="M334 -70q0 -189 -62.5 -272.5t-218.5 -83.5q-57 0 -123 31l39 135q47 -16 82 -16q109 0 109 190v1128h174v-1112zM246 1491q43 0 74.5 -31.5t31.5 -75.5q0 -42 -31.5 -73t-74.5 -31t-74 31t-31 73q0 45 31 76t74 31z"/>
<glyph glyph-name="k" horiz-adv-x="1022" unicode="k" d="M1004 0h-193l-365 498l-114 -115v-383h-174v1487h174v-907l436 462h188l-401 -430z"/>
<glyph glyph-name="l" horiz-adv-x="514" unicode="l" d="M463 -6q-48 -21 -101 -21q-202 0 -202 267v1247h174v-1217q0 -69 22.5 -108t61.5 -39q6 0 16 2z"/>
<glyph glyph-name="m" horiz-adv-x="1714" unicode="m" d="M1563 0h-174v664q0 129 -35.5 190t-128.5 61q-55 0 -115.5 -32t-161.5 -135v-748h-174v664q0 141 -38.5 196t-125.5 55q-55 0 -115.5 -32.5t-162.5 -137.5v-745h-174v1042h174v-147q158 172 325 172q211 0 267 -176q170 176 348 176q149 0 220 -87.5t71 -270.5v-709z"/>
<glyph glyph-name="n" horiz-adv-x="1130" unicode="n" d="M979 0h-174v664q0 133 -42 192t-132 59q-132 0 -299 -170v-745h-174v1042h174v-147q163 172 346 172q301 0 301 -358v-709z"/>
<glyph glyph-name="o" horiz-adv-x="1161" unicode="o" d="M582 127q138 0 215 111t77 282q0 178 -76.5 285.5t-215.5 107.5q-142 0 -218.5 -106.5t-76.5 -286.5q0 -173 77 -283t218 -110zM582 1067q218 0 347.5 -150t129.5 -397t-129.5 -397t-347.5 -150q-221 0 -350.5 149.5t-129.5 397.5q0 244 128 395.5t352 151.5z"/>
<glyph glyph-name="p" horiz-adv-x="1149" unicode="p" d="M332 303q24 -70 97 -123t153 -53q136 0 210 104t74 295t-71 290t-207 99q-60 0 -113.5 -24t-98 -77t-44.5 -66v-445zM332 915q103 152 303 152q180 0 298 -144.5t118 -381.5q0 -259 -120 -413.5t-308 -154.5q-196 0 -291 138v-537h-174v1468h174v-127z"/>
<glyph glyph-name="q" horiz-adv-x="1147" unicode="q" d="M823 303v445q-38 76 -105.5 121.5t-150.5 45.5q-136 0 -207 -99t-71 -290t74 -295t210 -104q55 0 109.5 26t97.5 77.5t43 72.5zM997 -426h-174v537q-95 -138 -291 -138q-188 0 -308 154.5t-120 413.5q0 237 118 381.5t298 144.5q200 0 303 -152v127h174v-1468z"/>
<glyph glyph-name="r" horiz-adv-x="754" unicode="r" d="M743 1022l-51 -145q-54 28 -108 28t-102.5 -30.5t-99 -106.5t-50.5 -84v-684h-174v1042h174v-182q65 118 124 162.5t138 44.5q86 0 149 -45z"/>
<glyph glyph-name="s" horiz-adv-x="786" unicode="s" d="M616 887q-83 31 -172 31t-137.5 -34.5t-48.5 -95.5q0 -39 20 -70.5t50 -51.5t135 -76q151 -81 193 -148t42 -145q0 -151 -99.5 -237.5t-258.5 -86.5q-125 0 -248 64l31 139q121 -53 207 -53q198 0 198 153q0 50 -34 89.5t-116 83.5l-116 63q-174 93 -174 260 q0 133 95.5 214t262.5 81q105 0 209 -37z"/>
<glyph glyph-name="t" horiz-adv-x="696" unicode="t" d="M680 6q-105 -33 -191 -33q-140 0 -214 77t-74 224v615h-152v153h152v285h174v-285h248v-153h-248v-594q0 -172 131 -172q75 0 137 16z"/>
<glyph glyph-name="u" horiz-adv-x="1130" unicode="u" d="M973 0h-174v147q-165 -174 -346 -174q-301 0 -301 361v708h174v-663q0 -127 39.5 -189.5t134.5 -62.5q131 0 299 170v745h174v-1042z"/>
<glyph glyph-name="v" horiz-adv-x="944" unicode="v" d="M930 1042l-377 -1042h-160l-377 1042h179l278 -817l279 817h178z"/>
<glyph glyph-name="w" horiz-adv-x="1436" unicode="w" d="M1411 1042l-299 -1042h-149l-244 838l-244 -838h-149l-299 1042h180l199 -804l229 804h168l229 -804l199 804h180z"/>
<glyph glyph-name="x" horiz-adv-x="938" unicode="x" d="M909 0h-182l-260 395l-258 -395h-178l348 524l-342 518h186l248 -383l252 383h168l-334 -512z"/>
<glyph glyph-name="y" horiz-adv-x="932" unicode="y" d="M930 1042l-383 -1060q-70 -192 -160.5 -300t-261.5 -108q-79 0 -176 35l37 139q85 -24 153 -24q77 0 136.5 58.5t115.5 221.5l-375 1038h179l278 -780l279 780h178z"/>
<glyph glyph-name="z" horiz-adv-x="850" unicode="z" d="M788 0h-718v119l491 770h-477v153h696v-110l-491 -778h499v-154z"/>
<glyph glyph-name="braceleft" horiz-adv-x="623" unicode="{" d="M596 -426h-86q-147 0 -212 79t-65 290v178q0 186 -48.5 255.5t-157.5 69.5v177q108 0 157 69.5t49 255.5v178q0 211 65 290t212 79h86v-143h-37q-89 0 -124.5 -37t-35.5 -187v-145q0 -203 -45.5 -301t-154.5 -147q109 -49 154.5 -147.5t45.5 -301.5v-145 q0 -150 35.5 -187t124.5 -37h37v-143z"/>
<glyph glyph-name="bar" d="M692 -426h-166v1962h166v-1962z" unicode="|"/>
<glyph glyph-name="braceright" horiz-adv-x="623" unicode="}" d="M600 446q-109 0 -158 -69.5t-49 -255.5v-178q0 -211 -64.5 -290t-211.5 -79h-86v143h37q89 0 124 37t35 187v145q0 203 46 301.5t155 147.5q-109 49 -155 147t-46 301v145q0 131 -29.5 177.5t-129.5 46.5h-37v143h86q147 0 211.5 -79t64.5 -290v-178q0 -186 49 -255.5 t158 -69.5v-177z"/>
<glyph glyph-name="asciitilde" d="M1161 512q-155 -131 -299 -131q-84 0 -256 78q-176 78 -250 78q-116 0 -290 -138v144q157 131 305 131q86 0 258 -78t245 -78q118 0 287 137v-143z" unicode="~"/>
<glyph glyph-name="nonbreakingspace" horiz-adv-x="604" unicode=" "/>
<glyph glyph-name="exclamdown" horiz-adv-x="535" unicode="¡" d="M358 -360h-186v485l33 471h123l30 -467v-489zM276 1067q51 0 85 -34t34 -85q0 -50 -34 -84.5t-85 -34.5q-50 0 -85 34.5t-35 84.5t35 84.5t85 34.5z"/>
<glyph glyph-name="cent" horiz-adv-x="1139" unicode="¢" d="M573 303v770q-206 -61 -206 -383q0 -319 206 -387zM946 215q-116 -64 -254 -74v-168h-119v174q-188 31 -289.5 174t-101.5 369q0 227 102 368.5t289 170.5v172h119v-168q127 -6 242 -55l-41 -140q-88 39 -201 45v-792q103 7 215 61z"/>
<glyph glyph-name="sterling" horiz-adv-x="1139" unicode="£" d="M1071 94q-120 -110 -264 -110q-79 0 -209 59q-120 55 -186 55q-131 0 -269 -116v168q69 56 92.5 82.5t39.5 72t16 115.5v207h-197v149h197v156q0 261 99 383.5t304 122.5q141 0 277 -58l-41 -139q-113 47 -234 47q-115 0 -168 -85.5t-53 -272.5v-154h275v-149h-275v-189 q0 -126 -51 -178q70 0 201 -58q126 -57 192 -57q123 0 254 117v-168z"/>
<glyph glyph-name="currency" d="M612 385q127 0 218.5 90.5t91.5 216.5q0 127 -91.5 217t-218.5 90t-217 -90t-90 -217t90 -217t217 -90zM1157 184l-115 -96l-186 207q-1 -1 -4 -2t-4 -2q-108 -64 -236 -64q-125 0 -237 66h-2q0 2 -2 2l-185 -207l-114 96l184 211q-106 131 -106 295q0 168 106 295 l-184 213l114 100l185 -211q4 3 12 7q3 1 4 2q105 57 225 57q74 0 126.5 -16.5t117.5 -49.5l186 211l115 -100l-184 -213q104 -137 104 -295q0 -156 -96 -282l-8 -13z" unicode="¤"/>
<glyph glyph-name="yen" horiz-adv-x="1139" unicode="¥" d="M1100 1411l-377 -731h317v-150h-376v-133h376v-149h-376v-248h-185v248h-385v149h385v133h-385v150h326l-377 731h205l323 -647l336 647h193z"/>
<glyph glyph-name="brokenbar" d="M692 -426h-166v840h166v-840zM692 696h-166v840h166v-840z" unicode="¦"/>
<glyph glyph-name="section" horiz-adv-x="1024" unicode="§" d="M643 303q121 65 121 193q0 49 -20.5 87.5t-63.5 71t-114 61.5t-74 29q-66 0 -148 -48.5t-82 -141.5q0 -110 209 -186q154 -57 172 -66zM834 1237q-125 43 -250 43q-127 0 -206 -46t-79 -132q0 -58 48.5 -102t162.5 -87q164 -60 218 -86t106 -71t81 -105t29 -137 q0 -190 -156 -299q119 -99 119 -248q0 -179 -138.5 -286t-340.5 -107q-174 0 -338 78l45 147q173 -69 285 -69q134 0 220.5 59t86.5 160q0 77 -49.5 129.5t-206.5 111.5q-157 60 -202.5 83t-91 66.5t-70.5 97t-25 114.5q0 194 194 287q-157 94 -157 258q0 155 128.5 248.5 t332.5 93.5q141 0 299 -45z"/>
<glyph glyph-name="dieresis" d="M418 1438q46 0 76 -31t30 -78q0 -44 -31 -76t-75 -32t-76.5 32.5t-32.5 75.5q0 47 32 78t77 31zM813 1438q45 0 75 -31t30 -78q0 -44 -31 -76t-74 -32q-45 0 -76.5 32t-31.5 76q0 47 31 78t77 31z" unicode="¨"/>
<glyph glyph-name="copyright" horiz-adv-x="1597" unicode="©" d="M1051 381q-100 -86 -236 -86q-161 0 -260.5 116.5t-99.5 295.5q0 184 97 298.5t263 114.5q123 0 223 -67l-43 -90q-99 49 -180 49q-111 0 -172 -81.5t-61 -223.5q0 -140 61.5 -224t171.5 -84q104 0 193 68zM797 104q248 0 425 176.5t177 424.5t-176.5 424t-425.5 176 q-248 0 -424 -176.5t-176 -423.5q0 -249 175.5 -425t424.5 -176zM797 1419q295 0 504.5 -209t209.5 -503q0 -297 -209.5 -507t-504.5 -210q-297 0 -506 210t-209 507q0 295 209 503.5t506 208.5z"/>
<glyph glyph-name="ordfeminine" horiz-adv-x="743" unicode="ª" d="M473 952v123q-144 -7 -188.5 -41.5t-44.5 -85.5q0 -43 25.5 -65.5t60.5 -22.5q86 0 147 92zM631 766h-135q-8 21 -15 84q-31 -44 -87 -71t-109 -27q-70 0 -124.5 51t-54.5 137q0 203 367 217v23q0 155 -111 155q-85 0 -186 -57l-41 84q132 76 256 76q114 0 165.5 -59.5 t51.5 -184.5v-262q0 -86 23 -166z"/>
<glyph glyph-name="guillemotleft" horiz-adv-x="1014" unicode="«" d="M573 154l-98 -95l-381 443v121l381 444l98 -100l-344 -406zM942 154l-98 -95l-381 443v121l381 444l98 -100l-344 -406z"/>
<glyph glyph-name="logicalnot" d="M1087 500h-143v350h-801v139h944v-489z" unicode="¬"/>
<glyph glyph-name="uni00AD" horiz-adv-x="715" unicode="­" d="M655 446h-594v172h594v-172z"/>
<glyph glyph-name="registered" horiz-adv-x="1597" unicode="®" d="M678 754h84q62 0 105.5 39.5t43.5 93.5q0 57 -38 90t-107 33h-88v-256zM1114 309h-141l-223 350h-72v-350h-121v797h223q122 0 189 -56t67 -161q0 -150 -164 -205zM797 104q248 0 425 176.5t177 424.5t-176.5 424t-425.5 176q-248 0 -424 -176.5t-176 -423.5 q0 -249 175.5 -425t424.5 -176zM797 1419q295 0 504.5 -209t209.5 -503q0 -297 -209.5 -507t-504.5 -210q-297 0 -506 210t-209 507q0 295 209 503.5t506 208.5z"/>
<glyph glyph-name="uni00AF" d="M1237 1726h-1249v132h1249v-132z" unicode="¯"/>
<glyph glyph-name="degree" horiz-adv-x="805" unicode="°" d="M403 989q71 0 120.5 50t49.5 120t-49.5 119t-120.5 49q-70 0 -118.5 -49t-48.5 -119t48.5 -120t118.5 -50zM403 1436q115 0 196 -81t81 -196q0 -114 -81 -195t-196 -81q-114 0 -195 81t-81 195q0 115 81 196t195 81z"/>
<glyph glyph-name="plusminus" d="M1090 0h-947v143h947v-143zM1096 651h-408v-403h-143v403h-408v144h408v403h143v-403h408v-144z" unicode="±"/>
<glyph glyph-name="twosuperior" horiz-adv-x="682" unicode="²" d="M565 672h-436v96q221 242 257 308.5t36 125.5q0 49 -33 85t-82 36q-55 0 -153 -33l-21 99q95 38 186 38q105 0 170.5 -62t65.5 -163q0 -61 -38 -136t-224 -273h272v-121z"/>
<glyph glyph-name="threesuperior" horiz-adv-x="682" unicode="³" d="M401 1067q63 -9 106.5 -56.5t43.5 -111.5q0 -100 -79.5 -171t-188.5 -71q-99 0 -179 48l29 98q83 -39 154 -39q57 0 95 34.5t38 92.5q0 53 -42 87t-114 34h-37v98h21q65 0 111.5 32t46.5 83q0 42 -32.5 69t-82.5 27q-59 0 -141 -33l-21 98q93 39 166 39 q105 0 173.5 -55.5t68.5 -140.5q0 -56 -36.5 -99t-99.5 -61v-2z"/>
<glyph glyph-name="acute" d="M883 1495l-312 -301h-112l198 301h226z" unicode="´"/>
<glyph glyph-name="mu1" horiz-adv-x="1130" unicode="µ" d="M973 0h-174v147q-165 -174 -346 -174q-75 0 -127 21v-361h-174v1409h174v-663q0 -127 39.5 -189.5t134.5 -62.5q131 0 299 170v745h174v-1042z"/>
<glyph glyph-name="paragraph" horiz-adv-x="1169" unicode="¶" d="M1137 1276h-144v-1626h-151v1626h-203v-1626h-154v901q-160 0 -302 119t-142 297q0 204 139 324t371 120h586v-135z"/>
<glyph glyph-name="middot" horiz-adv-x="463" unicode="·" d="M229 831q51 0 86 -34t35 -84t-35 -84.5t-86 -34.5q-50 0 -84 34t-34 85q0 50 34 84t84 34z"/>
<glyph glyph-name="cedilla" d="M637 -53q129 -32 129 -135q0 -89 -68.5 -139t-167.5 -50q-40 0 -81 6v97q34 -5 55 -5q60 0 100.5 21t40.5 53q0 76 -137 76l45 129h100z" unicode="¸"/>
<glyph glyph-name="onesuperior" horiz-adv-x="682" unicode="¹" d="M428 674h-129v610l-125 -76v129l141 86h113v-749z"/>
<glyph glyph-name="ordmasculine" horiz-adv-x="772" unicode="º" d="M389 860q77 0 121.5 67t44.5 169q0 103 -44 168t-122 65q-80 0 -124 -63.5t-44 -169.5q0 -102 44.5 -169t123.5 -67zM389 1438q137 0 219 -94t82 -248t-81 -249t-220 -95t-221 94t-82 250q0 155 82 248.5t221 93.5z"/>
<glyph glyph-name="guillemotright" horiz-adv-x="1014" unicode="»" d="M551 502l-381 -443l-98 95l344 407l-344 406l98 100l381 -444v-121zM920 502l-381 -443l-99 95l344 407l-344 406l99 100l381 -444v-121z"/>
<glyph glyph-name="onequarter" horiz-adv-x="1372" unicode="¼" d="M408 674h-129v610l-125 -76v129l141 86h113v-749zM1042 1411l-602 -1411h-116l600 1411h118zM1051 274v318l-191 -318h191zM1286 156h-106v-156h-129v156h-328v98l297 491h160v-471h106v-118z"/>
<glyph glyph-name="onehalf" horiz-adv-x="1372" unicode="½" d="M428 674h-129v610l-125 -76v129l141 86h113v-749zM1042 1411l-602 -1411h-116l600 1411h118zM1233 0h-436v96q221 242 257 308.5t36 125.5q0 49 -33 85t-82 36q-55 0 -153 -33l-21 99q95 38 186 38q105 0 170.5 -62t65.5 -163q0 -61 -38 -136t-224 -273h272v-121z"/>
<glyph glyph-name="threequarters" horiz-adv-x="1372" unicode="¾" d="M401 1067q63 -9 106.5 -56.5t43.5 -111.5q0 -100 -79.5 -171t-188.5 -71q-99 0 -179 48l29 98q83 -39 154 -39q57 0 95 34.5t38 92.5q0 53 -42 87t-114 34h-37v98h21q65 0 111.5 32t46.5 83q0 42 -32.5 69t-82.5 27q-59 0 -141 -33l-21 98q93 39 166 39 q105 0 173.5 -55.5t68.5 -140.5q0 -56 -36.5 -99t-99.5 -61v-2zM1042 1411l-602 -1411h-116l600 1411h118zM1051 274v318l-191 -318h191zM1286 156h-106v-156h-129v156h-328v98l297 491h160v-471h106v-118z"/>
<glyph glyph-name="questiondown" horiz-adv-x="874" unicode="¿" d="M797 -307q-54 -31 -144 -55.5t-147 -24.5q-185 0 -289 91.5t-104 268.5q0 97 48.5 183t174.5 188q68 55 91 75t41.5 58t18.5 98v41h134v-43q0 -107 -30.5 -167t-74.5 -97q-97 -83 -132 -120.5t-62 -92t-27 -114.5q0 -110 58.5 -166t162.5 -56q102 0 232 68zM539 1067 q50 0 84 -34t34 -85q0 -50 -34 -84.5t-84 -34.5q-51 0 -86 34.5t-35 84.5q0 51 35 85t86 34z"/>
<glyph glyph-name="Agrave" horiz-adv-x="1298" unicode="À" d="M854 637l-205 555l-203 -555h408zM1282 0h-197l-176 481h-522l-176 -481h-195l545 1411h176zM824 1538h-113l-311 301h225z"/>
<glyph glyph-name="Aacute" horiz-adv-x="1298" unicode="Á" d="M854 637l-205 555l-203 -555h408zM1282 0h-197l-176 481h-522l-176 -481h-195l545 1411h176zM923 1839l-312 -301h-112l198 301h226z"/>
<glyph glyph-name="Acircumflex" horiz-adv-x="1298" unicode="Â" d="M854 637l-205 555l-203 -555h408zM1282 0h-197l-176 481h-522l-176 -481h-195l545 1411h176zM962 1538h-113l-199 192l-198 -192h-113l199 301h225z"/>
<glyph glyph-name="Atilde" horiz-adv-x="1298" unicode="Ã" d="M854 637l-205 555l-203 -555h408zM1282 0h-197l-176 481h-522l-176 -481h-195l545 1411h176zM1009 1774q-34 -230 -192 -230q-56 0 -172 51q-101 44 -151 44q-73 0 -87 -95h-94q34 230 192 230q56 0 172 -51q101 -44 151 -44q73 0 87 95h94z"/>
<glyph glyph-name="Adieresis" horiz-adv-x="1298" unicode="Ä" d="M854 637l-205 555l-203 -555h408zM1282 0h-197l-176 481h-522l-176 -481h-195l545 1411h176zM458 1778q46 0 76 -31t30 -78q0 -44 -31 -76t-75 -32t-76.5 32.5t-32.5 75.5q0 47 32 78t77 31zM853 1778q45 0 75 -31t30 -78q0 -44 -31 -76t-74 -32q-45 0 -76.5 32t-31.5 76 q0 47 31 78t77 31z"/>
<glyph glyph-name="Aring" horiz-adv-x="1298" unicode="Å" d="M854 637l-205 555l-203 -555h408zM649 1427q46 0 79.5 33.5t33.5 79.5t-33.5 79.5t-79.5 33.5t-79 -33.5t-33 -79.5t33 -79.5t79 -33.5zM1282 0h-197l-176 481h-522l-176 -481h-195l533 1378q-90 61 -90 162q0 78 56 134.5t134 56.5t134.5 -56.5t56.5 -134.5 q0 -101 -90 -162z"/>
<glyph glyph-name="AE" horiz-adv-x="1573" unicode="Æ" d="M760 598v557l-258 -557h258zM1468 0h-708v446h-332l-211 -446h-201l691 1411h755v-156h-518v-421h496v-156h-496v-522h524v-156z"/>
<glyph glyph-name="Ccedilla" horiz-adv-x="1223" unicode="Ç" d="M1153 115q-171 -140 -397 -142l-8 -26q118 -28 118 -125q0 -87 -64 -138t-161 -51q-41 0 -82 7v96q34 -4 55 -4q55 0 93 22.5t38 50.5q0 66 -127 66l39 109q-255 36 -400.5 238t-145.5 487q0 330 173 531.5t464 201.5q103 0 210.5 -32t171.5 -81l-67 -133 q-149 86 -315 86q-211 0 -327 -152t-116 -421q0 -263 117 -419.5t326 -156.5q186 0 344 111z"/>
<glyph glyph-name="Egrave" horiz-adv-x="983" unicode="È" d="M879 0h-709v1411h702v-156h-518v-421h496v-156h-496v-522h525v-156zM712 1538h-113l-311 301h225z"/>
<glyph glyph-name="Eacute" horiz-adv-x="983" unicode="É" d="M879 0h-709v1411h702v-156h-518v-421h496v-156h-496v-522h525v-156zM831 1839l-312 -301h-112l198 301h226z"/>
<glyph glyph-name="Ecircumflex" horiz-adv-x="983" unicode="Ê" d="M879 0h-709v1411h702v-156h-518v-421h496v-156h-496v-522h525v-156zM846 1538h-113l-199 192l-198 -192h-113l199 301h225z"/>
<glyph glyph-name="Edieresis" horiz-adv-x="983" unicode="Ë" d="M879 0h-709v1411h702v-156h-518v-421h496v-156h-496v-522h525v-156zM342 1774q46 0 76 -31t30 -78q0 -44 -31 -76t-75 -32t-76.5 32.5t-32.5 75.5q0 47 32 78t77 31zM737 1774q45 0 75 -31t30 -78q0 -44 -31 -76t-74 -32q-45 0 -76.5 32t-31.5 76q0 47 31 78t77 31z"/>
<glyph glyph-name="Igrave" horiz-adv-x="537" unicode="Ì" d="M360 0h-184v1411h184v-1411zM472 1538h-113l-311 301h225z"/>
<glyph glyph-name="Iacute" horiz-adv-x="537" unicode="Í" d="M360 0h-184v1411h184v-1411zM559 1839l-312 -301h-112l198 301h226z"/>
<glyph glyph-name="Icircumflex" horiz-adv-x="537" unicode="Î" d="M360 0h-184v1411h184v-1411zM578 1538h-113l-199 192l-198 -192h-113l199 301h225z"/>
<glyph glyph-name="Idieresis" horiz-adv-x="537" unicode="Ï" d="M360 0h-184v1411h184v-1411zM70 1778q46 0 76 -31t30 -78q0 -44 -31 -76t-75 -32t-76.5 32.5t-32.5 75.5q0 47 32 78t77 31zM465 1778q45 0 75 -31t30 -78q0 -44 -31 -76t-74 -32q-45 0 -76.5 32t-31.5 76q0 47 31 78t77 31z"/>
<glyph glyph-name="Eth" horiz-adv-x="1384" unicode="Ð" d="M354 156h260q199 0 331 153t132 396q0 241 -132 395.5t-331 154.5h-260v-452h305v-156h-305v-491zM170 1411h444q286 0 472 -198t186 -506q0 -293 -190 -500t-468 -207h-444v647h-170v156h170v608z"/>
<glyph glyph-name="Ntilde" horiz-adv-x="1456" unicode="Ñ" d="M1286 0h-209l-727 1157v-1157h-180v1411h209l729 -1157v1157h178v-1411zM1109 1774q-34 -230 -192 -230q-56 0 -172 51q-101 44 -151 44q-73 0 -87 -95h-94q34 230 192 230q56 0 172 -51q101 -44 151 -44q73 0 87 95h94z"/>
<glyph glyph-name="Ograve" horiz-adv-x="1495" unicode="Ò" d="M748 129q211 0 326.5 151.5t115.5 424.5q0 261 -120 419t-322 158q-203 0 -323 -158t-120 -419q0 -263 117 -419.5t326 -156.5zM748 1438q290 0 463 -201.5t173 -531.5q0 -313 -172.5 -522.5t-463.5 -209.5q-285 0 -461 207t-176 525q0 330 173 531.5t464 201.5z M936 1538h-113l-311 301h225z"/>
<glyph glyph-name="Oacute" horiz-adv-x="1495" unicode="Ó" d="M748 129q211 0 326.5 151.5t115.5 424.5q0 261 -120 419t-322 158q-203 0 -323 -158t-120 -419q0 -263 117 -419.5t326 -156.5zM748 1438q290 0 463 -201.5t173 -531.5q0 -313 -172.5 -522.5t-463.5 -209.5q-285 0 -461 207t-176 525q0 330 173 531.5t464 201.5z M1019 1839l-312 -301h-112l198 301h226z"/>
<glyph glyph-name="Ocircumflex" horiz-adv-x="1495" unicode="Ô" d="M748 129q211 0 326.5 151.5t115.5 424.5q0 261 -120 419t-322 158q-203 0 -323 -158t-120 -419q0 -263 117 -419.5t326 -156.5zM748 1438q290 0 463 -201.5t173 -531.5q0 -313 -172.5 -522.5t-463.5 -209.5q-285 0 -461 207t-176 525q0 330 173 531.5t464 201.5z M1058 1538h-113l-199 192l-198 -192h-113l199 301h225z"/>
<glyph glyph-name="Otilde" horiz-adv-x="1495" unicode="Õ" d="M748 129q211 0 326.5 151.5t115.5 424.5q0 261 -120 419t-322 158q-203 0 -323 -158t-120 -419q0 -263 117 -419.5t326 -156.5zM748 1438q290 0 463 -201.5t173 -531.5q0 -313 -172.5 -522.5t-463.5 -209.5q-285 0 -461 207t-176 525q0 330 173 531.5t464 201.5z M1085 1774q-34 -230 -192 -230q-56 0 -172 51q-101 44 -151 44q-73 0 -87 -95h-94q34 230 192 230q56 0 172 -51q101 -44 151 -44q73 0 87 95h94z"/>
<glyph glyph-name="Odieresis" horiz-adv-x="1495" unicode="Ö" d="M748 129q211 0 326.5 151.5t115.5 424.5q0 261 -120 419t-322 158q-203 0 -323 -158t-120 -419q0 -263 117 -419.5t326 -156.5zM748 1438q290 0 463 -201.5t173 -531.5q0 -313 -172.5 -522.5t-463.5 -209.5q-285 0 -461 207t-176 525q0 330 173 531.5t464 201.5z M550 1778q46 0 76 -31t30 -78q0 -44 -31 -76t-75 -32t-76.5 32.5t-32.5 75.5q0 47 32 78t77 31zM945 1778q45 0 75 -31t30 -78q0 -44 -31 -76t-74 -32q-45 0 -76.5 32t-31.5 76q0 47 31 78t77 31z"/>
<glyph glyph-name="multiply" d="M1038 412l-104 -97l-318 310l-319 -312l-98 99l315 313l-315 309l98 103l319 -316l316 309l102 -98l-317 -307z" unicode="×"/>
<glyph glyph-name="Oslash" horiz-adv-x="1495" unicode="Ø" d="M496 211q104 -82 252 -82q211 0 326.5 151.5t115.5 424.5q0 253 -113 411zM973 1217q-97 65 -225 65q-203 0 -323 -158t-120 -419q0 -233 92 -381zM1178 1274q206 -207 206 -569q0 -313 -172.5 -522.5t-463.5 -209.5q-191 0 -342 99q0 -2 -36 -58l-46 -71h-172l145 225 q-186 209 -186 537q0 330 173 531.5t464 201.5q177 0 315 -80l82 127h168z"/>
<glyph glyph-name="Ugrave" horiz-adv-x="1393" unicode="Ù" d="M1237 502q0 -247 -141.5 -388t-401.5 -141q-248 0 -393 145t-145 380v913h184v-901q0 -177 96 -276t258 -99q168 0 269.5 100t101.5 279v897h172v-909zM864 1538h-113l-311 301h225z"/>
<glyph glyph-name="Uacute" horiz-adv-x="1393" unicode="Ú" d="M1237 502q0 -247 -141.5 -388t-401.5 -141q-248 0 -393 145t-145 380v913h184v-901q0 -177 96 -276t258 -99q168 0 269.5 100t101.5 279v897h172v-909zM943 1839l-312 -301h-112l198 301h226z"/>
<glyph glyph-name="Ucircumflex" horiz-adv-x="1393" unicode="Û" d="M1237 502q0 -247 -141.5 -388t-401.5 -141q-248 0 -393 145t-145 380v913h184v-901q0 -177 96 -276t258 -99q168 0 269.5 100t101.5 279v897h172v-909zM1006 1538h-113l-199 192l-198 -192h-113l199 301h225z"/>
<glyph glyph-name="Udieresis" horiz-adv-x="1393" unicode="Ü" d="M1237 502q0 -247 -141.5 -388t-401.5 -141q-248 0 -393 145t-145 380v913h184v-901q0 -177 96 -276t258 -99q168 0 269.5 100t101.5 279v897h172v-909zM506 1778q46 0 76 -31t30 -78q0 -44 -31 -76t-75 -32t-76.5 32.5t-32.5 75.5q0 47 32 78t77 31zM901 1778 q45 0 75 -31t30 -78q0 -44 -31 -76t-74 -32q-45 0 -76.5 32t-31.5 76q0 47 31 78t77 31z"/>
<glyph glyph-name="Yacute" horiz-adv-x="1075" unicode="Ý" d="M1067 1411l-436 -846v-565h-185v565l-436 846h205l324 -647l335 647h193zM851 1839l-312 -301h-112l198 301h226z"/>
<glyph glyph-name="Thorn" horiz-adv-x="1057" unicode="Þ" d="M354 475h133q137 0 210 63t73 181q0 109 -76 173t-198 64h-142v-481zM354 1112h150q208 0 334.5 -105t126.5 -286q0 -182 -125 -292t-330 -110h-156v-319h-184v1411h184v-299z"/>
<glyph glyph-name="germandbls" horiz-adv-x="1128" unicode="ß" d="M158 0v1079q0 218 111.5 325t299.5 107q164 0 263.5 -78t99.5 -229q0 -71 -40 -143t-177 -177q-78 -59 -96.5 -84.5t-18.5 -45.5q0 -41 32.5 -65t172.5 -99q151 -81 193 -148t42 -145q0 -151 -99.5 -237.5t-258.5 -86.5q-125 0 -248 64l31 139q121 -53 207 -53 q198 0 198 153q0 44 -29.5 84t-152.5 107q-124 67 -164.5 96.5t-67 76.5t-26.5 112q0 43 28 89t135 127q112 85 141.5 134.5t29.5 97.5q0 79 -53 123.5t-148 44.5q-231 0 -231 -311v-1057h-174z"/>
<glyph glyph-name="agrave" horiz-adv-x="985" unicode="à" d="M678 281v217q-251 -20 -329.5 -77.5t-78.5 -144.5q0 -71 45.5 -112t102.5 -41q70 0 140 40.5t120 117.5zM883 0h-176q-21 66 -21 133q-129 -160 -328 -160q-109 0 -183.5 75.5t-74.5 213.5q0 106 47 173t120.5 101t142.5 46t268 32v48q0 134 -47 197t-152 63 q-128 0 -291 -88l-47 120q205 113 387 113q171 0 247.5 -92t76.5 -289v-438q0 -139 31 -248zM664 1194h-113l-311 301h225z"/>
<glyph glyph-name="aacute" horiz-adv-x="985" unicode="á" d="M678 281v217q-251 -20 -329.5 -77.5t-78.5 -144.5q0 -71 45.5 -112t102.5 -41q70 0 140 40.5t120 117.5zM883 0h-176q-21 66 -21 133q-129 -160 -328 -160q-109 0 -183.5 75.5t-74.5 213.5q0 106 47 173t120.5 101t142.5 46t268 32v48q0 134 -47 197t-152 63 q-128 0 -291 -88l-47 120q205 113 387 113q171 0 247.5 -92t76.5 -289v-438q0 -139 31 -248zM743 1495l-312 -301h-112l198 301h226z"/>
<glyph glyph-name="acircumflex" horiz-adv-x="985" unicode="â" d="M678 281v217q-251 -20 -329.5 -77.5t-78.5 -144.5q0 -71 45.5 -112t102.5 -41q70 0 140 40.5t120 117.5zM883 0h-176q-21 66 -21 133q-129 -160 -328 -160q-109 0 -183.5 75.5t-74.5 213.5q0 106 47 173t120.5 101t142.5 46t268 32v48q0 134 -47 197t-152 63 q-128 0 -291 -88l-47 120q205 113 387 113q171 0 247.5 -92t76.5 -289v-438q0 -139 31 -248zM818 1194h-113l-199 192l-198 -192h-113l199 301h225z"/>
<glyph glyph-name="atilde" horiz-adv-x="985" unicode="ã" d="M678 281v217q-251 -20 -329.5 -77.5t-78.5 -144.5q0 -71 45.5 -112t102.5 -41q70 0 140 40.5t120 117.5zM883 0h-176q-21 66 -21 133q-129 -160 -328 -160q-109 0 -183.5 75.5t-74.5 213.5q0 106 47 173t120.5 101t142.5 46t268 32v48q0 134 -47 197t-152 63 q-128 0 -291 -88l-47 120q205 113 387 113q171 0 247.5 -92t76.5 -289v-438q0 -139 31 -248zM833 1430q-34 -230 -192 -230q-56 0 -172 51q-101 44 -151 44q-73 0 -87 -95h-94q34 230 192 230q56 0 172 -51q101 -44 151 -44q73 0 87 95h94z"/>
<glyph glyph-name="adieresis" horiz-adv-x="985" unicode="ä" d="M678 281v217q-251 -20 -329.5 -77.5t-78.5 -144.5q0 -71 45.5 -112t102.5 -41q70 0 140 40.5t120 117.5zM883 0h-176q-21 66 -21 133q-129 -160 -328 -160q-109 0 -183.5 75.5t-74.5 213.5q0 106 47 173t120.5 101t142.5 46t268 32v48q0 134 -47 197t-152 63 q-128 0 -291 -88l-47 120q205 113 387 113q171 0 247.5 -92t76.5 -289v-438q0 -139 31 -248zM306 1438q46 0 76 -31t30 -78q0 -44 -31 -76t-75 -32t-76.5 32.5t-32.5 75.5q0 47 32 78t77 31zM701 1438q45 0 75 -31t30 -78q0 -44 -31 -76t-74 -32q-45 0 -76.5 32t-31.5 76 q0 47 31 78t77 31z"/>
<glyph glyph-name="aring" horiz-adv-x="985" unicode="å" d="M678 281v217q-251 -20 -329.5 -77.5t-78.5 -144.5q0 -71 45.5 -112t102.5 -41q70 0 140 40.5t120 117.5zM883 0h-176q-21 66 -21 133q-129 -160 -328 -160q-109 0 -183.5 75.5t-74.5 213.5q0 106 47 173t120.5 101t142.5 46t268 32v48q0 134 -47 197t-152 63 q-128 0 -291 -88l-47 120q205 113 387 113q171 0 247.5 -92t76.5 -289v-438q0 -139 31 -248zM502 1233q46 0 79.5 33.5t33.5 79.5q0 45 -33.5 78.5t-79.5 33.5q-45 0 -78.5 -33.5t-33.5 -78.5q0 -47 33 -80t79 -33zM502 1536q78 0 134.5 -56.5t56.5 -133.5 q0 -78 -56.5 -134.5t-134.5 -56.5t-134 56.5t-56 134.5q0 77 56 133.5t134 56.5z"/>
<glyph glyph-name="ae" horiz-adv-x="1618" unicode="æ" d="M678 281v217q-251 -20 -329.5 -77.5t-78.5 -144.5q0 -71 45.5 -112t102.5 -41q70 0 140 40.5t120 117.5zM1337 643q0 120 -59 197.5t-148 77.5q-110 0 -181 -76.5t-81 -198.5h469zM1516 508h-654q0 -171 90.5 -278t231.5 -107q152 0 282 59l41 -139q-153 -70 -323 -70 q-140 0 -254.5 63.5t-181.5 178.5q-73 -116 -174.5 -179t-215.5 -63q-109 0 -183.5 75.5t-74.5 213.5q0 106 47 173t120.5 101t142.5 46t268 32v48q0 134 -47 197t-152 63q-128 0 -291 -88l-47 120q205 113 387 113q205 0 277 -137q118 137 319 137q178 0 285 -134.5 t107 -369.5v-55z"/>
<glyph glyph-name="ccedilla" horiz-adv-x="946" unicode="ç" d="M866 47q-131 -70 -274 -74l-8 -26q129 -32 129 -135q0 -89 -68.5 -139t-167.5 -50q-41 0 -82 6v97q34 -5 56 -5q60 0 100.5 21t40.5 53q0 76 -137 76l39 109q-189 30 -290.5 173t-101.5 369q0 262 130 403.5t346 141.5q140 0 276 -57l-41 -140q-113 48 -233 48 q-141 0 -217 -103t-76 -293t77.5 -294.5t217.5 -104.5q122 0 245 61z"/>
<glyph glyph-name="egrave" horiz-adv-x="1042" unicode="è" d="M762 643q0 120 -59.5 197.5t-147.5 77.5q-111 0 -181.5 -76.5t-80.5 -198.5h469zM940 508h-653q0 -171 90 -278t231 -107q153 0 283 59l41 -139q-153 -70 -324 -70q-229 0 -367.5 149.5t-138.5 399.5q0 241 116 393t331 152q177 0 284 -134.5t107 -369.5v-55zM728 1194 h-113l-311 301h225z"/>
<glyph glyph-name="eacute" horiz-adv-x="1042" unicode="é" d="M762 643q0 120 -59.5 197.5t-147.5 77.5q-111 0 -181.5 -76.5t-80.5 -198.5h469zM940 508h-653q0 -171 90 -278t231 -107q153 0 283 59l41 -139q-153 -70 -324 -70q-229 0 -367.5 149.5t-138.5 399.5q0 241 116 393t331 152q177 0 284 -134.5t107 -369.5v-55zM823 1495 l-312 -301h-112l198 301h226z"/>
<glyph glyph-name="ecircumflex" horiz-adv-x="1042" unicode="ê" d="M762 643q0 120 -59.5 197.5t-147.5 77.5q-111 0 -181.5 -76.5t-80.5 -198.5h469zM940 508h-653q0 -171 90 -278t231 -107q153 0 283 59l41 -139q-153 -70 -324 -70q-229 0 -367.5 149.5t-138.5 399.5q0 241 116 393t331 152q177 0 284 -134.5t107 -369.5v-55zM862 1194 h-113l-199 192l-198 -192h-113l199 301h225z"/>
<glyph glyph-name="edieresis" horiz-adv-x="1042" unicode="ë" d="M762 643q0 120 -59.5 197.5t-147.5 77.5q-111 0 -181.5 -76.5t-80.5 -198.5h469zM940 508h-653q0 -171 90 -278t231 -107q153 0 283 59l41 -139q-153 -70 -324 -70q-229 0 -367.5 149.5t-138.5 399.5q0 241 116 393t331 152q177 0 284 -134.5t107 -369.5v-55zM330 1438 q46 0 76 -31t30 -78q0 -44 -31 -76t-75 -32t-76.5 32.5t-32.5 75.5q0 47 32 78t77 31zM725 1438q45 0 75 -31t30 -78q0 -44 -31 -76t-74 -32q-45 0 -76.5 32t-31.5 76q0 47 31 78t77 31z"/>
<glyph glyph-name="igrave" horiz-adv-x="494" unicode="ì" d="M334 0h-174v1042h174v-1042zM400 1194h-113l-311 301h225z"/>
<glyph glyph-name="iacute" horiz-adv-x="494" unicode="í" d="M334 0h-174v1042h174v-1042zM543 1495l-312 -301h-112l198 301h226z"/>
<glyph glyph-name="icircumflex" horiz-adv-x="494" unicode="î" d="M334 0h-174v1042h174v-1042zM558 1194h-113l-199 192l-198 -192h-113l199 301h225z"/>
<glyph glyph-name="idieresis" horiz-adv-x="494" unicode="ï" d="M334 0h-174v1042h174v-1042zM58 1438q46 0 76 -31t30 -78q0 -44 -31 -76t-75 -32t-76.5 32.5t-32.5 75.5q0 47 32 78t77 31zM453 1438q45 0 75 -31t30 -78q0 -44 -31 -76t-74 -32q-45 0 -76.5 32t-31.5 76q0 47 31 78t77 31z"/>
<glyph glyph-name="eth" horiz-adv-x="1161" unicode="ð" d="M582 127q138 0 215 111t77 282q0 178 -76.5 285.5t-215.5 107.5q-142 0 -218.5 -106.5t-76.5 -286.5q0 -173 77 -283t218 -110zM1059 520q0 -250 -128.5 -398.5t-348.5 -148.5q-221 0 -350.5 149.5t-129.5 397.5q0 244 128 395.5t352 151.5q26 0 80 -6q-75 86 -173 156 l-104 -125l-115 82l105 120q-55 35 -178 88l79 117q112 -37 205 -82l107 123l112 -80l-98 -114q222 -162 339.5 -372.5t117.5 -447.5v-6z"/>
<glyph glyph-name="ntilde" horiz-adv-x="1130" unicode="ñ" d="M979 0h-174v664q0 133 -42 192t-132 59q-132 0 -299 -170v-745h-174v1042h174v-147q163 172 346 172q301 0 301 -358v-709zM917 1430q-34 -230 -192 -230q-56 0 -172 51q-101 44 -151 44q-73 0 -87 -95h-94q34 230 192 230q56 0 172 -51q101 -44 151 -44q73 0 87 95h94z "/>
<glyph glyph-name="ograve" horiz-adv-x="1161" unicode="ò" d="M582 127q138 0 215 111t77 282q0 178 -76.5 285.5t-215.5 107.5q-142 0 -218.5 -106.5t-76.5 -286.5q0 -173 77 -283t218 -110zM582 1067q218 0 347.5 -150t129.5 -397t-129.5 -397t-347.5 -150q-221 0 -350.5 149.5t-129.5 397.5q0 244 128 395.5t352 151.5zM748 1194 h-113l-311 301h225z"/>
<glyph glyph-name="oacute" horiz-adv-x="1161" unicode="ó" d="M582 127q138 0 215 111t77 282q0 178 -76.5 285.5t-215.5 107.5q-142 0 -218.5 -106.5t-76.5 -286.5q0 -173 77 -283t218 -110zM582 1067q218 0 347.5 -150t129.5 -397t-129.5 -397t-347.5 -150q-221 0 -350.5 149.5t-129.5 397.5q0 244 128 395.5t352 151.5zM859 1495 l-312 -301h-112l198 301h226z"/>
<glyph glyph-name="ocircumflex" horiz-adv-x="1161" unicode="ô" d="M582 127q138 0 215 111t77 282q0 178 -76.5 285.5t-215.5 107.5q-142 0 -218.5 -106.5t-76.5 -286.5q0 -173 77 -283t218 -110zM582 1067q218 0 347.5 -150t129.5 -397t-129.5 -397t-347.5 -150q-221 0 -350.5 149.5t-129.5 397.5q0 244 128 395.5t352 151.5zM890 1194 h-113l-199 192l-198 -192h-113l199 301h225z"/>
<glyph glyph-name="otilde" horiz-adv-x="1161" unicode="õ" d="M582 127q138 0 215 111t77 282q0 178 -76.5 285.5t-215.5 107.5q-142 0 -218.5 -106.5t-76.5 -286.5q0 -173 77 -283t218 -110zM582 1067q218 0 347.5 -150t129.5 -397t-129.5 -397t-347.5 -150q-221 0 -350.5 149.5t-129.5 397.5q0 244 128 395.5t352 151.5zM937 1430 q-34 -230 -192 -230q-56 0 -172 51q-101 44 -151 44q-73 0 -87 -95h-94q34 230 192 230q56 0 172 -51q101 -44 151 -44q73 0 87 95h94z"/>
<glyph glyph-name="odieresis" horiz-adv-x="1161" unicode="ö" d="M582 127q138 0 215 111t77 282q0 178 -76.5 285.5t-215.5 107.5q-142 0 -218.5 -106.5t-76.5 -286.5q0 -173 77 -283t218 -110zM582 1067q218 0 347.5 -150t129.5 -397t-129.5 -397t-347.5 -150q-221 0 -350.5 149.5t-129.5 397.5q0 244 128 395.5t352 151.5zM378 1438 q46 0 76 -31t30 -78q0 -44 -31 -76t-75 -32t-76.5 32.5t-32.5 75.5q0 47 32 78t77 31zM773 1438q45 0 75 -31t30 -78q0 -44 -31 -76t-74 -32q-45 0 -76.5 32t-31.5 76q0 47 31 78t77 31z"/>
<glyph glyph-name="divide" d="M606 453q48 0 80.5 -32.5t32.5 -80.5t-33 -82.5t-80 -34.5q-46 0 -78 34.5t-32 82.5q0 49 31.5 81t78.5 32zM1087 657h-946v131h946v-131zM606 1223q48 0 80.5 -32.5t32.5 -80.5t-33 -82.5t-80 -34.5q-46 0 -78 34.5t-32 82.5q0 49 31.5 81t78.5 32z" unicode="÷"/>
<glyph glyph-name="oslash" horiz-adv-x="1161" unicode="ø" d="M428 172q65 -45 154 -45q138 0 215 111t77 282q0 156 -61 262zM719 879q-58 34 -137 34q-142 0 -218.5 -106.5t-76.5 -286.5q0 -139 53 -244zM1087 1217l-176 -279q148 -153 148 -418q0 -247 -129.5 -397t-347.5 -150q-138 0 -242 60l-111 -178h-155l164 260 q-136 152 -136 405q0 244 128 395.5t352 151.5q124 0 223 -51l127 201h155z"/>
<glyph glyph-name="ugrave" horiz-adv-x="1130" unicode="ù" d="M973 0h-174v147q-165 -174 -346 -174q-301 0 -301 361v708h174v-663q0 -127 39.5 -189.5t134.5 -62.5q131 0 299 170v745h174v-1042zM772 1194h-113l-311 301h225z"/>
<glyph glyph-name="uacute" horiz-adv-x="1130" unicode="ú" d="M973 0h-174v147q-165 -174 -346 -174q-301 0 -301 361v708h174v-663q0 -127 39.5 -189.5t134.5 -62.5q131 0 299 170v745h174v-1042zM823 1495l-312 -301h-112l198 301h226z"/>
<glyph glyph-name="ucircumflex" horiz-adv-x="1130" unicode="û" d="M973 0h-174v147q-165 -174 -346 -174q-301 0 -301 361v708h174v-663q0 -127 39.5 -189.5t134.5 -62.5q131 0 299 170v745h174v-1042zM874 1194h-113l-199 192l-198 -192h-113l199 301h225z"/>
<glyph glyph-name="udieresis" horiz-adv-x="1130" unicode="ü" d="M973 0h-174v147q-165 -174 -346 -174q-301 0 -301 361v708h174v-663q0 -127 39.5 -189.5t134.5 -62.5q131 0 299 170v745h174v-1042zM370 1438q46 0 76 -31t30 -78q0 -44 -31 -76t-75 -32t-76.5 32.5t-32.5 75.5q0 47 32 78t77 31zM765 1438q45 0 75 -31t30 -78 q0 -44 -31 -76t-74 -32q-45 0 -76.5 32t-31.5 76q0 47 31 78t77 31z"/>
<glyph glyph-name="yacute" horiz-adv-x="932" unicode="ý" d="M930 1042l-383 -1060q-70 -192 -160.5 -300t-261.5 -108q-79 0 -176 35l37 139q85 -24 153 -24q77 0 136.5 58.5t115.5 221.5l-375 1038h179l278 -780l279 780h178zM739 1495l-312 -301h-112l198 301h226z"/>
<glyph glyph-name="thorn" horiz-adv-x="1149" unicode="þ" d="M332 303q24 -70 97 -123t153 -53q136 0 210 104t74 295t-71 290t-207 99q-60 0 -113.5 -24t-98 -77t-44.5 -66v-445zM332 915q103 152 303 152q180 0 298 -144.5t118 -381.5q0 -259 -120 -413.5t-308 -154.5q-196 0 -291 138v-537h-174v1913h174v-572z"/>
<glyph glyph-name="ydieresis" horiz-adv-x="932" unicode="ÿ" d="M930 1042l-383 -1060q-70 -192 -160.5 -300t-261.5 -108q-79 0 -176 35l37 139q85 -24 153 -24q77 0 136.5 58.5t115.5 221.5l-375 1038h179l278 -780l279 780h178zM270 1438q46 0 76 -31t30 -78q0 -44 -31 -76t-75 -32t-76.5 32.5t-32.5 75.5q0 47 32 78t77 31z M665 1438q45 0 75 -31t30 -78q0 -44 -31 -76t-74 -32q-45 0 -76.5 32t-31.5 76q0 47 31 78t77 31z"/>
<glyph glyph-name="Amacron" horiz-adv-x="1298" unicode="Ā" d="M854 637l-205 555l-203 -555h408zM1282 0h-197l-176 481h-522l-176 -481h-195l545 1411h176zM970 1553h-678v135h678v-135z"/>
<glyph glyph-name="amacron" horiz-adv-x="985" unicode="ā" d="M678 281v217q-251 -20 -329.5 -77.5t-78.5 -144.5q0 -71 45.5 -112t102.5 -41q70 0 140 40.5t120 117.5zM883 0h-176q-21 66 -21 133q-129 -160 -328 -160q-109 0 -183.5 75.5t-74.5 213.5q0 106 47 173t120.5 101t142.5 46t268 32v48q0 134 -47 197t-152 63 q-128 0 -291 -88l-47 120q205 113 387 113q171 0 247.5 -92t76.5 -289v-438q0 -139 31 -248zM854 1217h-678v135h678v-135z"/>
<glyph glyph-name="Abreve" horiz-adv-x="1298" unicode="Ă" d="M854 637l-205 555l-203 -555h408zM1282 0h-197l-176 481h-522l-176 -481h-195l545 1411h176zM976 1804q-24 -124 -116 -194t-212 -70q-123 0 -216.5 70t-116.5 194h137q15 -60 71 -93.5t127 -33.5q68 0 120 33t67 94h139z"/>
<glyph glyph-name="abreve" horiz-adv-x="985" unicode="ă" d="M678 281v217q-251 -20 -329.5 -77.5t-78.5 -144.5q0 -71 45.5 -112t102.5 -41q70 0 140 40.5t120 117.5zM883 0h-176q-21 66 -21 133q-129 -160 -328 -160q-109 0 -183.5 75.5t-74.5 213.5q0 106 47 173t120.5 101t142.5 46t268 32v48q0 134 -47 197t-152 63 q-128 0 -291 -88l-47 120q205 113 387 113q171 0 247.5 -92t76.5 -289v-438q0 -139 31 -248zM836 1536q-24 -124 -116 -194t-212 -70q-123 0 -216.5 70t-116.5 194h137q15 -60 71 -93.5t127 -33.5q68 0 120 33t67 94h139z"/>
<glyph glyph-name="Aogonek" horiz-adv-x="1298" unicode="Ą" d="M854 637l-205 555l-203 -555h408zM1352 -334q-73 -33 -150 -33q-91 0 -149 51.5t-58 133.5q0 90 90 182l-176 481h-522l-176 -481h-195l545 1411h176l545 -1411h-94q-72 -89 -72 -141q0 -127 123 -127q36 0 113 22v-88z"/>
<glyph glyph-name="aogonek" horiz-adv-x="985" unicode="ą" d="M678 281v217q-251 -20 -329.5 -77.5t-78.5 -144.5q0 -71 45.5 -112t102.5 -41q70 0 140 40.5t120 117.5zM973 -334q-73 -33 -150 -33q-91 0 -149 51.5t-58 133.5q0 90 91 182q-21 66 -21 133q-129 -160 -328 -160q-109 0 -183.5 75.5t-74.5 213.5q0 106 47 173t120.5 101 t142.5 46t268 32v48q0 134 -47 197t-152 63q-128 0 -291 -88l-47 120q205 113 387 113q171 0 247.5 -92t76.5 -289v-438q0 -139 31 -248h-74q-72 -89 -72 -141q0 -127 123 -127q36 0 113 22v-88z"/>
<glyph glyph-name="Cacute" horiz-adv-x="1223" unicode="Ć" d="M1153 115q-172 -142 -405 -142q-285 0 -461 207t-176 525q0 330 173 531.5t464 201.5q103 0 210.5 -32t171.5 -81l-67 -133q-149 86 -315 86q-211 0 -327 -152t-116 -421q0 -263 117 -419.5t326 -156.5q186 0 344 111zM1015 1855l-312 -301h-112l198 301h226z"/>
<glyph glyph-name="cacute" horiz-adv-x="946" unicode="ć" d="M866 47q-135 -74 -284 -74q-224 0 -352 146.5t-128 402.5q0 262 130 403.5t346 141.5q140 0 276 -57l-41 -140q-113 48 -233 48q-141 0 -217 -103t-76 -293t77.5 -294.5t217.5 -104.5q122 0 245 61zM823 1495l-312 -301h-112l198 301h226z"/>
<glyph glyph-name="Ccircumflex" horiz-adv-x="1223" unicode="Ĉ" d="M1153 115q-172 -142 -405 -142q-285 0 -461 207t-176 525q0 330 173 531.5t464 201.5q103 0 210.5 -32t171.5 -81l-67 -133q-149 86 -315 86q-211 0 -327 -152t-116 -421q0 -263 117 -419.5t326 -156.5q186 0 344 111zM1030 1554h-113l-199 192l-198 -192h-113l199 301 h225z"/>
<glyph glyph-name="ccircumflex" horiz-adv-x="946" unicode="ĉ" d="M866 47q-135 -74 -284 -74q-224 0 -352 146.5t-128 402.5q0 262 130 403.5t346 141.5q140 0 276 -57l-41 -140q-113 48 -233 48q-141 0 -217 -103t-76 -293t77.5 -294.5t217.5 -104.5q122 0 245 61zM866 1194h-113l-199 192l-198 -192h-113l199 301h225z"/>
<glyph glyph-name="Cdotaccent" horiz-adv-x="1223" unicode="Ċ" d="M1153 115q-172 -142 -405 -142q-285 0 -461 207t-176 525q0 330 173 531.5t464 201.5q103 0 210.5 -32t171.5 -81l-67 -133q-149 86 -315 86q-211 0 -327 -152t-116 -421q0 -263 117 -419.5t326 -156.5q186 0 344 111zM714 1792q51 0 85 -34.5t34 -86.5q0 -49 -34.5 -85 t-84.5 -36q-48 0 -83 36.5t-35 84.5q0 51 34.5 86t83.5 35z"/>
<glyph glyph-name="cdotaccent" horiz-adv-x="946" unicode="ċ" d="M866 47q-135 -74 -284 -74q-224 0 -352 146.5t-128 402.5q0 262 130 403.5t346 141.5q140 0 276 -57l-41 -140q-113 48 -233 48q-141 0 -217 -103t-76 -293t77.5 -294.5t217.5 -104.5q122 0 245 61zM574 1440q51 0 85 -34.5t34 -86.5q0 -49 -34.5 -85t-84.5 -36 q-48 0 -83 36.5t-35 84.5q0 51 34.5 86t83.5 35z"/>
<glyph glyph-name="Ccaron" horiz-adv-x="1223" unicode="Č" d="M1153 115q-172 -142 -405 -142q-285 0 -461 207t-176 525q0 330 173 531.5t464 201.5q103 0 210.5 -32t171.5 -81l-67 -133q-149 86 -315 86q-211 0 -327 -152t-116 -421q0 -263 117 -419.5t326 -156.5q186 0 344 111zM1022 1853l-199 -301h-225l-199 301h113l198 -192 l199 192h113z"/>
<glyph glyph-name="ccaron" horiz-adv-x="946" unicode="č" d="M866 47q-135 -74 -284 -74q-224 0 -352 146.5t-128 402.5q0 262 130 403.5t346 141.5q140 0 276 -57l-41 -140q-113 48 -233 48q-141 0 -217 -103t-76 -293t77.5 -294.5t217.5 -104.5q122 0 245 61zM842 1497l-199 -301h-225l-199 301h113l198 -192l199 192h113z"/>
<glyph glyph-name="Dcaron" horiz-adv-x="1384" unicode="Ď" d="M354 156h260q199 0 331 153t132 396q0 241 -132 395.5t-331 154.5h-260v-1099zM170 1411h444q286 0 472 -198t186 -506q0 -293 -190 -500t-468 -207h-444v1411zM962 1853l-199 -301h-225l-199 301h113l198 -192l199 192h113z"/>
<glyph glyph-name="dcaron" horiz-adv-x="1307" unicode="ď" d="M821 305v445q-38 76 -105.5 122t-150.5 46q-136 0 -207 -99.5t-71 -290.5q0 -190 73.5 -294.5t210.5 -104.5q55 0 109.5 26t97.5 77.5t43 72.5zM995 0h-174v113q-95 -138 -291 -138q-188 0 -308 154.5t-120 413.5q0 241 118.5 383.5t297.5 142.5q200 0 303 -151v569h174 v-1487zM1192 1288q-45 6 -74 37.5t-29 72.5q0 42 29 72.5t70 30.5q49 0 83.5 -39.5t34.5 -95.5q0 -165 -186 -260l-33 63q105 50 105 119z"/>
<glyph glyph-name="Dcroat" horiz-adv-x="1384" unicode="Đ" d="M354 156h260q199 0 331 153t132 396q0 241 -132 395.5t-331 154.5h-260v-460h213v-146h-213v-493zM170 1411h444q286 0 472 -198t186 -506q0 -293 -190 -500t-468 -207h-444v649h-166v146h166v616z"/>
<glyph glyph-name="dcroat" horiz-adv-x="1153" unicode="đ" d="M821 305v445q-38 76 -105.5 122t-150.5 46q-136 0 -207 -99.5t-71 -290.5q0 -190 73.5 -294.5t210.5 -104.5q55 0 109.5 26t97.5 77.5t43 72.5zM1157 1219h-162v-1219h-174v113q-95 -138 -291 -138q-188 0 -308 154.5t-120 413.5q0 241 118.5 383.5t297.5 142.5 q200 0 303 -151v301h-239v122h239v146h174v-146h162v-122z"/>
<glyph glyph-name="Emacron" horiz-adv-x="983" unicode="Ē" d="M879 0h-709v1411h702v-156h-518v-421h496v-156h-496v-522h525v-156zM862 1553h-678v135h678v-135z"/>
<glyph glyph-name="emacron" horiz-adv-x="1042" unicode="ē" d="M762 643q0 120 -59.5 197.5t-147.5 77.5q-111 0 -181.5 -76.5t-80.5 -198.5h469zM940 508h-653q0 -171 90 -278t231 -107q153 0 283 59l41 -139q-153 -70 -324 -70q-229 0 -367.5 149.5t-138.5 399.5q0 241 116 393t331 152q177 0 284 -134.5t107 -369.5v-55zM882 1217 h-678v135h678v-135z"/>
<glyph glyph-name="Ebreve" horiz-adv-x="983" unicode="Ĕ" d="M879 0h-709v1411h702v-156h-518v-421h496v-156h-496v-522h525v-156zM860 1816q-24 -124 -116 -194t-212 -70q-123 0 -216.5 70t-116.5 194h137q15 -60 71 -93.5t127 -33.5q68 0 120 33t67 94h139z"/>
<glyph glyph-name="ebreve" horiz-adv-x="1042" unicode="ĕ" d="M762 643q0 120 -59.5 197.5t-147.5 77.5q-111 0 -181.5 -76.5t-80.5 -198.5h469zM940 508h-653q0 -171 90 -278t231 -107q153 0 283 59l41 -139q-153 -70 -324 -70q-229 0 -367.5 149.5t-138.5 399.5q0 241 116 393t331 152q177 0 284 -134.5t107 -369.5v-55zM888 1536 q-24 -124 -116 -194t-212 -70q-123 0 -216.5 70t-116.5 194h137q15 -60 71 -93.5t127 -33.5q68 0 120 33t67 94h139z"/>
<glyph glyph-name="Edotaccent" horiz-adv-x="983" unicode="Ė" d="M879 0h-709v1411h702v-156h-518v-421h496v-156h-496v-522h525v-156zM550 1792q51 0 85 -34.5t34 -86.5q0 -49 -34.5 -85t-84.5 -36q-48 0 -83 36.5t-35 84.5q0 51 34.5 86t83.5 35z"/>
<glyph glyph-name="edotaccent" horiz-adv-x="1042" unicode="ė" d="M762 643q0 120 -59.5 197.5t-147.5 77.5q-111 0 -181.5 -76.5t-80.5 -198.5h469zM940 508h-653q0 -171 90 -278t231 -107q153 0 283 59l41 -139q-153 -70 -324 -70q-229 0 -367.5 149.5t-138.5 399.5q0 241 116 393t331 152q177 0 284 -134.5t107 -369.5v-55zM562 1440 q51 0 85 -34.5t34 -86.5q0 -49 -34.5 -85t-84.5 -36q-48 0 -83 36.5t-35 84.5q0 51 34.5 86t83.5 35z"/>
<glyph glyph-name="Eogonek" horiz-adv-x="983" unicode="Ę" d="M879 0h-234q-72 -89 -72 -141q0 -127 123 -127q36 0 113 22v-88q-73 -33 -150 -33q-91 0 -148.5 51.5t-57.5 133.5q0 90 90 182h-373v1411h702v-156h-518v-421h496v-156h-496v-522h525v-156z"/>
<glyph glyph-name="eogonek" horiz-adv-x="1042" unicode="ę" d="M762 643q0 120 -59.5 197.5t-147.5 77.5q-111 0 -181.5 -76.5t-80.5 -198.5h469zM940 508h-653q0 -171 90 -278t231 -107q153 0 283 59l41 -139q-147 -67 -307 -70q-52 -74 -52 -114q0 -127 123 -127q36 0 113 22v-88q-73 -33 -150 -33q-91 0 -148.5 51.5t-57.5 133.5 t71 162q-199 28 -310.5 174.5t-111.5 367.5q0 241 116 393t331 152q177 0 284 -134.5t107 -369.5v-55z"/>
<glyph glyph-name="Ecaron" horiz-adv-x="983" unicode="Ě" d="M879 0h-709v1411h702v-156h-518v-421h496v-156h-496v-522h525v-156zM842 1853l-199 -301h-225l-199 301h113l198 -192l199 192h113z"/>
<glyph glyph-name="ecaron" horiz-adv-x="1042" unicode="ě" d="M762 643q0 120 -59.5 197.5t-147.5 77.5q-111 0 -181.5 -76.5t-80.5 -198.5h469zM940 508h-653q0 -171 90 -278t231 -107q153 0 283 59l41 -139q-153 -70 -324 -70q-229 0 -367.5 149.5t-138.5 399.5q0 241 116 393t331 152q177 0 284 -134.5t107 -369.5v-55zM866 1497 l-199 -301h-225l-199 301h113l198 -192l199 192h113z"/>
<glyph glyph-name="Gcircumflex" horiz-adv-x="1341" unicode="Ĝ" d="M1180 121q-180 -148 -432 -148q-285 0 -461 207t-176 525q0 330 173.5 531.5t465.5 201.5q206 0 383 -107l-68 -139q-154 86 -315 86q-212 0 -328.5 -152.5t-116.5 -420.5q0 -263 117 -419.5t326 -156.5q159 0 247 61v342h-256v156h441v-567zM1030 1554h-113l-199 192 l-198 -192h-113l199 301h225z"/>
<glyph glyph-name="gcircumflex" horiz-adv-x="1032" unicode="ĝ" d="M387 27q-131 -88 -131 -187q0 -57 59.5 -92t165.5 -35q132 0 240 64t108 155q0 105 -131 105zM475 526q81 0 130.5 55.5t49.5 145.5q0 94 -48.5 147.5t-131.5 53.5q-81 0 -131.5 -54.5t-50.5 -146.5q0 -89 51.5 -145t130.5 -56zM784 899q45 -73 45 -172 q0 -144 -99.5 -242t-254.5 -98l-74 2q-10 0 -66 -42t-56 -79q0 -29 30.5 -49t83.5 -20l350 10q127 0 198 -65t71 -181q0 -178 -159.5 -283.5t-371.5 -105.5q-175 0 -287 73t-112 189q0 117 166 209q-60 29 -98.5 78t-38.5 98q0 113 178 205q-81 50 -125.5 130.5t-44.5 170.5 q0 147 102.5 243.5t253.5 96.5q110 0 197 -47l311 47v-168h-199zM810 1194h-113l-199 192l-198 -192h-113l199 301h225z"/>
<glyph glyph-name="Gbreve" horiz-adv-x="1341" unicode="Ğ" d="M1180 121q-180 -148 -432 -148q-285 0 -461 207t-176 525q0 330 173.5 531.5t465.5 201.5q206 0 383 -107l-68 -139q-154 86 -315 86q-212 0 -328.5 -152.5t-116.5 -420.5q0 -263 117 -419.5t326 -156.5q159 0 247 61v342h-256v156h441v-567zM1060 1816 q-24 -124 -116 -194t-212 -70q-123 0 -216.5 70t-116.5 194h137q15 -60 71 -93.5t127 -33.5q68 0 120 33t67 94h139z"/>
<glyph glyph-name="gbreve" horiz-adv-x="1032" unicode="ğ" d="M387 27q-131 -88 -131 -187q0 -57 59.5 -92t165.5 -35q132 0 240 64t108 155q0 105 -131 105zM475 526q81 0 130.5 55.5t49.5 145.5q0 94 -48.5 147.5t-131.5 53.5q-81 0 -131.5 -54.5t-50.5 -146.5q0 -89 51.5 -145t130.5 -56zM784 899q45 -73 45 -172 q0 -144 -99.5 -242t-254.5 -98l-74 2q-10 0 -66 -42t-56 -79q0 -29 30.5 -49t83.5 -20l350 10q127 0 198 -65t71 -181q0 -178 -159.5 -283.5t-371.5 -105.5q-175 0 -287 73t-112 189q0 117 166 209q-60 29 -98.5 78t-38.5 98q0 113 178 205q-81 50 -125.5 130.5t-44.5 170.5 q0 147 102.5 243.5t253.5 96.5q110 0 197 -47l311 47v-168h-199zM816 1536q-24 -124 -116 -194t-212 -70q-123 0 -216.5 70t-116.5 194h137q15 -60 71 -93.5t127 -33.5q68 0 120 33t67 94h139z"/>
<glyph glyph-name="Gdotaccent" horiz-adv-x="1341" unicode="Ġ" d="M1180 121q-180 -148 -432 -148q-285 0 -461 207t-176 525q0 330 173.5 531.5t465.5 201.5q206 0 383 -107l-68 -139q-154 86 -315 86q-212 0 -328.5 -152.5t-116.5 -420.5q0 -263 117 -419.5t326 -156.5q159 0 247 61v342h-256v156h441v-567zM726 1792q51 0 85 -34.5 t34 -86.5q0 -49 -34.5 -85t-84.5 -36q-48 0 -83 36.5t-35 84.5q0 51 34.5 86t83.5 35z"/>
<glyph glyph-name="gdotaccent" horiz-adv-x="1032" unicode="ġ" d="M387 27q-131 -88 -131 -187q0 -57 59.5 -92t165.5 -35q132 0 240 64t108 155q0 105 -131 105zM475 526q81 0 130.5 55.5t49.5 145.5q0 94 -48.5 147.5t-131.5 53.5q-81 0 -131.5 -54.5t-50.5 -146.5q0 -89 51.5 -145t130.5 -56zM784 899q45 -73 45 -172 q0 -144 -99.5 -242t-254.5 -98l-74 2q-10 0 -66 -42t-56 -79q0 -29 30.5 -49t83.5 -20l350 10q127 0 198 -65t71 -181q0 -178 -159.5 -283.5t-371.5 -105.5q-175 0 -287 73t-112 189q0 117 166 209q-60 29 -98.5 78t-38.5 98q0 113 178 205q-81 50 -125.5 130.5t-44.5 170.5 q0 147 102.5 243.5t253.5 96.5q110 0 197 -47l311 47v-168h-199zM510 1440q51 0 85 -34.5t34 -86.5q0 -49 -34.5 -85t-84.5 -36q-48 0 -83 36.5t-35 84.5q0 51 34.5 86t83.5 35z"/>
<glyph glyph-name="Gcommaaccent" horiz-adv-x="1341" unicode="Ģ" d="M1180 121q-180 -148 -432 -148q-285 0 -461 207t-176 525q0 330 173.5 531.5t465.5 201.5q206 0 383 -107l-68 -139q-154 86 -315 86q-212 0 -328.5 -152.5t-116.5 -420.5q0 -263 117 -419.5t326 -156.5q159 0 247 61v342h-256v156h441v-567zM713 -348q-45 6 -74 37.5 t-29 72.5q0 42 29 72.5t70 30.5q49 0 83.5 -39.5t34.5 -95.5q0 -165 -186 -260l-33 63q105 50 105 119z"/>
<glyph glyph-name="gcommaaccent" horiz-adv-x="1032" unicode="ģ" d="M600 1524q-104 -50 -104 -119q44 -6 73 -38t29 -73q0 -42 -29 -72t-69 -30q-49 0 -84 39.5t-35 95.5q0 164 186 260zM387 27q-131 -88 -131 -187q0 -57 59.5 -92t165.5 -35q132 0 240 64t108 155q0 105 -131 105zM475 526q81 0 130.5 55.5t49.5 145.5q0 94 -48.5 147.5 t-131.5 53.5q-81 0 -131.5 -54.5t-50.5 -146.5q0 -89 51.5 -145t130.5 -56zM784 899q45 -73 45 -172q0 -144 -99.5 -242t-254.5 -98l-74 2q-10 0 -66 -42t-56 -79q0 -29 30.5 -49t83.5 -20l350 10q127 0 198 -65t71 -181q0 -178 -159.5 -283.5t-371.5 -105.5q-175 0 -287 73 t-112 189q0 117 166 209q-60 29 -98.5 78t-38.5 98q0 113 178 205q-81 50 -125.5 130.5t-44.5 170.5q0 147 102.5 243.5t253.5 96.5q110 0 197 -47l311 47v-168h-199z"/>
<glyph glyph-name="Hcircumflex" horiz-adv-x="1366" unicode="Ĥ" d="M1196 0h-184v688h-658v-688h-184v1411h184v-567h658v567h184v-1411zM986 1554h-113l-199 192l-198 -192h-113l199 301h225z"/>
<glyph glyph-name="hcircumflex" horiz-adv-x="1130" unicode="ĥ" d="M979 0h-174v664q0 133 -42 192t-132 59q-132 0 -299 -170v-745h-174v1487h174v-592q163 172 346 172q301 0 301 -358v-709zM926 1554h-113l-199 192l-198 -192h-113l199 301h225z"/>
<glyph glyph-name="Hbar" horiz-adv-x="1366" unicode="Ħ" d="M1012 844v198h-658v-198h658zM1321 1042h-125v-1042h-184v688h-658v-688h-184v1042h-125v144h125v225h184v-225h658v225h184v-225h125v-144z"/>
<glyph glyph-name="hbar" horiz-adv-x="1130" unicode="ħ" d="M979 0h-174v664q0 133 -42 192t-132 59q-132 0 -299 -170v-745h-174v1198h-129v123h129v166h174v-166h260v-123h-260v-303q163 172 346 172q301 0 301 -358v-709z"/>
<glyph glyph-name="Itilde" horiz-adv-x="537" unicode="Ĩ" d="M360 0h-184v1411h184v-1411zM621 1782q-34 -230 -192 -230q-56 0 -172 51q-101 44 -151 44q-73 0 -87 -95h-94q34 230 192 230q56 0 172 -51q101 -44 151 -44q73 0 87 95h94z"/>
<glyph glyph-name="itilde" horiz-adv-x="494" unicode="ĩ" d="M334 0h-174v1042h174v-1042zM601 1430q-34 -230 -192 -230q-56 0 -172 51q-101 44 -151 44q-73 0 -87 -95h-94q34 230 192 230q56 0 172 -51q101 -44 151 -44q73 0 87 95h94z"/>
<glyph glyph-name="Imacron" horiz-adv-x="537" unicode="Ī" d="M360 0h-184v1411h184v-1411zM610 1553h-678v135h678v-135z"/>
<glyph glyph-name="imacron" horiz-adv-x="494" unicode="ī" d="M334 0h-174v1042h174v-1042zM586 1217h-678v135h678v-135z"/>
<glyph glyph-name="Ibreve" horiz-adv-x="537" unicode="Ĭ" d="M360 0h-184v1411h184v-1411zM596 1816q-24 -124 -116 -194t-212 -70q-123 0 -216.5 70t-116.5 194h137q15 -60 71 -93.5t127 -33.5q68 0 120 33t67 94h139z"/>
<glyph glyph-name="ibreve" horiz-adv-x="494" unicode="ĭ" d="M334 0h-174v1042h174v-1042zM580 1536q-24 -124 -116 -194t-212 -70q-123 0 -216.5 70t-116.5 194h137q15 -60 71 -93.5t127 -33.5q68 0 120 33t67 94h139z"/>
<glyph glyph-name="Iogonek" horiz-adv-x="537" unicode="Į" d="M442 -334q-72 -33 -149 -33q-92 0 -149.5 51.5t-57.5 133.5q0 90 90 182v1411h184v-1411h-81q-72 -89 -72 -141q0 -127 123 -127q36 0 112 22v-88z"/>
<glyph glyph-name="iogonek" horiz-adv-x="494" unicode="į" d="M246 1491q43 0 74.5 -31.5t31.5 -75.5q0 -42 -31.5 -73t-74.5 -31t-74 31t-31 73q0 45 31 76t74 31zM426 -334q-73 -33 -150 -33q-91 0 -148.5 51.5t-57.5 133.5q0 90 90 182v1042h174v-1042h-72q-72 -89 -72 -141q0 -127 123 -127q36 0 113 22v-88z"/>
<glyph glyph-name="Idotaccent" horiz-adv-x="537" unicode="İ" d="M360 0h-184v1411h184v-1411zM266 1796q51 0 85 -34.5t34 -86.5q0 -49 -34.5 -85t-84.5 -36q-48 0 -83 36.5t-35 84.5q0 51 34.5 86t83.5 35z"/>
<glyph glyph-name="dotlessi" horiz-adv-x="494" unicode="ı" d="M334 0h-174v1042h174v-1042z"/>
<glyph glyph-name="IJ" horiz-adv-x="1049" unicode="Ĳ" d="M360 0h-184v1411h184v-1411zM872 96q0 -204 -89 -308.5t-261 -104.5q-66 0 -133 28l51 139q57 -12 92 -12q81 0 118.5 59t37.5 185v1329h184v-1315z"/>
<glyph glyph-name="ij" horiz-adv-x="977" unicode="ĳ" d="M334 0h-174v1042h174v-1042zM246 1491q43 0 74.5 -31.5t31.5 -75.5q0 -42 -31.5 -73t-74.5 -31t-74 31t-31 73q0 45 31 76t74 31zM818 -70q0 -189 -62.5 -272.5t-218.5 -83.5q-57 0 -123 31l39 135q47 -16 82 -16q109 0 109 190v1128h174v-1112zM730 1491 q43 0 74.5 -31.5t31.5 -75.5q0 -42 -31.5 -73t-74.5 -31t-74 31t-31 73q0 45 31 76t74 31z"/>
<glyph glyph-name="Jcircumflex" horiz-adv-x="537" unicode="Ĵ" d="M360 96q0 -204 -89 -308.5t-261 -104.5q-66 0 -133 28l51 139q57 -12 92 -12q81 0 118.5 59t37.5 185v1329h184v-1315zM578 1554h-113l-199 192l-198 -192h-113l199 301h225z"/>
<glyph glyph-name="jcircumflex" horiz-adv-x="494" unicode="ĵ" d="M334 -70q0 -189 -62.5 -272.5t-218.5 -83.5q-57 0 -123 31l39 135q47 -16 82 -16q109 0 109 190v1128h174v-1112zM557 1194h-113l-198 192l-199 -192h-113l199 301h225z"/>
<glyph glyph-name="Kcommaaccent" horiz-adv-x="1231" unicode="Ķ" d="M1210 0h-219l-493 680l-144 -150v-530h-184v1411h184v-661l633 661h215l-569 -596zM637 -348q-45 6 -74 37.5t-29 72.5q0 42 29 72.5t70 30.5q49 0 83.5 -39.5t34.5 -95.5q0 -165 -186 -260l-33 63q105 50 105 119z"/>
<glyph glyph-name="kcommaaccent" horiz-adv-x="1022" unicode="ķ" d="M1004 0h-193l-365 498l-114 -115v-383h-174v1487h174v-907l436 462h188l-401 -430zM553 -348q-45 6 -74 37.5t-29 72.5q0 42 29 72.5t70 30.5q49 0 83.5 -39.5t34.5 -95.5q0 -165 -186 -260l-33 63q105 50 105 119z"/>
<glyph glyph-name="kgreenlandic" horiz-adv-x="1026" unicode="ĸ" d="M1014 0h-213l-355 485l-114 -125v-360h-174v1042h174v-462q282 323 328 371t111.5 77t162.5 29h18v-154h-24q-52 0 -99 -21t-118 -101l-152 -171z"/>
<glyph glyph-name="Lacute" horiz-adv-x="938" unicode="Ĺ" d="M879 0h-709v1411h184v-1255h525v-156zM739 1855l-312 -301h-112l198 301h226z"/>
<glyph glyph-name="lacute" horiz-adv-x="514" unicode="ĺ" d="M463 -6q-48 -21 -101 -21q-202 0 -202 267v1247h174v-1217q0 -69 22.5 -108t61.5 -39q6 0 16 2zM535 1855l-312 -301h-112l198 301h226z"/>
<glyph glyph-name="Lcommaaccent" horiz-adv-x="938" unicode="Ļ" d="M879 0h-709v1411h184v-1255h525v-156zM521 -348q-45 6 -74 37.5t-29 72.5q0 42 29 72.5t70 30.5q49 0 83.5 -39.5t34.5 -95.5q0 -165 -186 -260l-33 63q105 50 105 119z"/>
<glyph glyph-name="lcommaaccent" horiz-adv-x="514" unicode="ļ" d="M463 -6q-48 -21 -101 -21q-202 0 -202 267v1247h174v-1217q0 -69 22.5 -108t61.5 -39q6 0 16 2zM305 -348q-45 6 -74 37.5t-29 72.5q0 42 29 72.5t70 30.5q49 0 83.5 -39.5t34.5 -95.5q0 -165 -186 -260l-33 63q105 50 105 119z"/>
<glyph glyph-name="Lcaron" horiz-adv-x="938" unicode="Ľ" d="M879 0h-709v1411h184v-1255h525v-156zM662 1288q-45 6 -74 37.5t-29 72.5q0 42 29 72.5t70 30.5q49 0 83.5 -39.5t34.5 -95.5q0 -165 -186 -260l-33 63q105 50 105 119z"/>
<glyph glyph-name="lcaron" horiz-adv-x="643" unicode="ľ" d="M463 -6q-48 -21 -101 -21q-202 0 -202 267v1247h174v-1217q0 -69 22.5 -108t61.5 -39q6 0 16 2zM529 1288q-45 6 -74 37.5t-29 72.5q0 42 29 72.5t70 30.5q49 0 83.5 -39.5t34.5 -95.5q0 -165 -186 -260l-33 63q105 50 105 119z"/>
<glyph glyph-name="Ldot" horiz-adv-x="938" unicode="Ŀ" d="M600 784q44 0 75.5 -31t31.5 -75q0 -46 -31.5 -79.5t-75.5 -33.5t-74 33t-30 80q0 45 30 75.5t74 30.5zM879 0h-709v1411h184v-1255h525v-156z"/>
<glyph glyph-name="ldot" horiz-adv-x="784" unicode="ŀ" d="M575 784q45 0 76 -31t31 -75q0 -46 -31.5 -79.5t-75.5 -33.5q-43 0 -73.5 33t-30.5 80q0 45 30 75.5t74 30.5zM463 -6q-48 -21 -101 -21q-202 0 -202 267v1247h174v-1217q0 -69 22.5 -108t61.5 -39q6 0 16 2z"/>
<glyph glyph-name="Lslash" horiz-adv-x="938" unicode="Ł" d="M879 0h-709v571l-133 -86l-70 111l203 133v682h184v-563l228 149l69 -110l-297 -195v-536h525v-156z"/>
<glyph glyph-name="lslash" horiz-adv-x="514" unicode="ł" d="M600 852l-266 -172v-410q0 -69 22.5 -108t61.5 -39q6 0 16 2l29 -131q-48 -21 -101 -21q-202 0 -202 267v327l-176 -114l-70 108l246 160v766h174v-651l192 125z"/>
<glyph glyph-name="Nacute" horiz-adv-x="1456" unicode="Ń" d="M1286 0h-209l-727 1157v-1157h-180v1411h209l729 -1157v1157h178v-1411zM1007 1855l-312 -301h-112l198 301h226z"/>
<glyph glyph-name="nacute" horiz-adv-x="1130" unicode="ń" d="M979 0h-174v664q0 133 -42 192t-132 59q-132 0 -299 -170v-745h-174v1042h174v-147q163 172 346 172q301 0 301 -358v-709zM863 1495l-312 -301h-112l198 301h226z"/>
<glyph glyph-name="Ncommaaccent" horiz-adv-x="1456" unicode="Ņ" d="M1286 0h-209l-727 1157v-1157h-180v1411h209l729 -1157v1157h178v-1411zM737 -348q-45 6 -74 37.5t-29 72.5q0 42 29 72.5t70 30.5q49 0 83.5 -39.5t34.5 -95.5q0 -165 -186 -260l-33 63q105 50 105 119z"/>
<glyph glyph-name="ncommaaccent" horiz-adv-x="1130" unicode="ņ" d="M979 0h-174v664q0 133 -42 192t-132 59q-132 0 -299 -170v-745h-174v1042h174v-147q163 172 346 172q301 0 301 -358v-709zM585 -348q-45 6 -74 37.5t-29 72.5q0 42 29 72.5t70 30.5q49 0 83.5 -39.5t34.5 -95.5q0 -165 -186 -260l-33 63q105 50 105 119z"/>
<glyph glyph-name="Ncaron" horiz-adv-x="1456" unicode="Ň" d="M1286 0h-209l-727 1157v-1157h-180v1411h209l729 -1157v1157h178v-1411zM1022 1853l-199 -301h-225l-199 301h113l198 -192l199 192h113z"/>
<glyph glyph-name="ncaron" horiz-adv-x="1130" unicode="ň" d="M979 0h-174v664q0 133 -42 192t-132 59q-132 0 -299 -170v-745h-174v1042h174v-147q163 172 346 172q301 0 301 -358v-709zM914 1497l-199 -301h-225l-199 301h113l198 -192l199 192h113z"/>
<glyph glyph-name="napostrophe" horiz-adv-x="1130" unicode="ŉ" d="M979 0h-174v664q0 133 -42 192t-132 59q-132 0 -299 -170v-745h-174v1042h174v-147q163 172 346 172q301 0 301 -358v-709zM109 1360q-45 6 -74 37.5t-29 72.5q0 42 29 72.5t70 30.5q49 0 83.5 -39.5t34.5 -95.5q0 -165 -186 -260l-33 63q105 50 105 119z"/>
<glyph glyph-name="Eng" horiz-adv-x="1456" unicode="Ŋ" d="M1286 -70q0 -197 -67.5 -276.5t-217.5 -79.5q-57 0 -122 31l39 135q46 -16 81 -16q109 0 109 190v86l-758 1157v-1157h-180v1411h209l729 -1137v1137h178v-1481z"/>
<glyph glyph-name="eng" horiz-adv-x="1130" unicode="ŋ" d="M979 -70q0 -189 -62.5 -272.5t-218.5 -83.5q-57 0 -123 31l39 135q47 -16 82 -16q109 0 109 190v750q0 133 -42 192t-132 59q-132 0 -299 -170v-745h-174v1042h174v-147q163 172 346 172q301 0 301 -358v-779z"/>
<glyph glyph-name="Omacron" horiz-adv-x="1495" unicode="Ō" d="M748 129q211 0 326.5 151.5t115.5 424.5q0 261 -120 419t-322 158q-203 0 -323 -158t-120 -419q0 -263 117 -419.5t326 -156.5zM748 1438q290 0 463 -201.5t173 -531.5q0 -313 -172.5 -522.5t-463.5 -209.5q-285 0 -461 207t-176 525q0 330 173 531.5t464 201.5z M1066 1553h-678v135h678v-135z"/>
<glyph glyph-name="omacron" horiz-adv-x="1161" unicode="ō" d="M582 127q138 0 215 111t77 282q0 178 -76.5 285.5t-215.5 107.5q-142 0 -218.5 -106.5t-76.5 -286.5q0 -173 77 -283t218 -110zM582 1067q218 0 347.5 -150t129.5 -397t-129.5 -397t-347.5 -150q-221 0 -350.5 149.5t-129.5 397.5q0 244 128 395.5t352 151.5zM918 1217 h-678v135h678v-135z"/>
<glyph glyph-name="Obreve" horiz-adv-x="1495" unicode="Ŏ" d="M748 129q211 0 326.5 151.5t115.5 424.5q0 261 -120 419t-322 158q-203 0 -323 -158t-120 -419q0 -263 117 -419.5t326 -156.5zM748 1438q290 0 463 -201.5t173 -531.5q0 -313 -172.5 -522.5t-463.5 -209.5q-285 0 -461 207t-176 525q0 330 173 531.5t464 201.5z M1068 1816q-24 -124 -116 -194t-212 -70q-123 0 -216.5 70t-116.5 194h137q15 -60 71 -93.5t127 -33.5q68 0 120 33t67 94h139z"/>
<glyph glyph-name="obreve" horiz-adv-x="1161" unicode="ŏ" d="M582 127q138 0 215 111t77 282q0 178 -76.5 285.5t-215.5 107.5q-142 0 -218.5 -106.5t-76.5 -286.5q0 -173 77 -283t218 -110zM582 1067q218 0 347.5 -150t129.5 -397t-129.5 -397t-347.5 -150q-221 0 -350.5 149.5t-129.5 397.5q0 244 128 395.5t352 151.5zM896 1536 q-24 -124 -116 -194t-212 -70q-123 0 -216.5 70t-116.5 194h137q15 -60 71 -93.5t127 -33.5q68 0 120 33t67 94h139z"/>
<glyph glyph-name="Ohungarumlaut" horiz-adv-x="1495" unicode="Ő" d="M748 129q211 0 326.5 151.5t115.5 424.5q0 261 -120 419t-322 158q-203 0 -323 -158t-120 -419q0 -263 117 -419.5t326 -156.5zM748 1438q290 0 463 -201.5t173 -531.5q0 -313 -172.5 -522.5t-463.5 -209.5q-285 0 -461 207t-176 525q0 330 173 531.5t464 201.5z M858 1855l-291 -301h-133l219 301h205zM1208 1855l-291 -301h-133l219 301h205z"/>
<glyph glyph-name="ohungarumlaut" horiz-adv-x="1161" unicode="ő" d="M582 127q138 0 215 111t77 282q0 178 -76.5 285.5t-215.5 107.5q-142 0 -218.5 -106.5t-76.5 -286.5q0 -173 77 -283t218 -110zM582 1067q218 0 347.5 -150t129.5 -397t-129.5 -397t-347.5 -150q-221 0 -350.5 149.5t-129.5 397.5q0 244 128 395.5t352 151.5zM670 1495 l-291 -301h-133l219 301h205zM1020 1495l-291 -301h-133l219 301h205z"/>
<glyph glyph-name="OE" horiz-adv-x="1716" unicode="Œ" d="M903 154v1099q-73 29 -155 29q-203 0 -323 -158t-120 -419q0 -263 117 -419.5t326 -156.5q87 0 155 25zM1612 0h-678q-93 -27 -186 -27q-285 0 -461 207t-176 525q0 330 173 531.5t464 201.5q33 0 65 -3.5t63 -9.5l62 -14h668v-156h-519v-421h496v-156h-496v-522h525 v-156z"/>
<glyph glyph-name="oe" horiz-adv-x="1815" unicode="œ" d="M582 127q138 0 215 111t77 282q0 178 -76.5 285.5t-215.5 107.5q-142 0 -218.5 -106.5t-76.5 -286.5q0 -173 77 -283t218 -110zM1534 643q0 120 -59.5 197.5t-147.5 77.5q-111 0 -181.5 -76.5t-80.5 -198.5h469zM1712 508h-653q0 -171 90 -278t231 -107q153 0 283 59 l41 -139q-153 -70 -324 -70q-270 0 -411 203q-132 -203 -387 -203q-221 0 -350.5 149.5t-129.5 397.5q0 244 128 395.5t352 151.5q248 0 381 -193q120 193 358 193q177 0 284 -134.5t107 -369.5v-55z"/>
<glyph glyph-name="Racute" horiz-adv-x="1165" unicode="Ŕ" d="M354 782h168q126 0 209.5 72.5t83.5 177.5q0 223 -283 223h-178v-473zM1130 0h-210l-408 627h-158v-627h-184v1411h387q214 0 331.5 -97.5t117.5 -279.5q0 -133 -80 -229.5t-232 -138.5zM843 1855l-312 -301h-112l198 301h226z"/>
<glyph glyph-name="racute" horiz-adv-x="754" unicode="ŕ" d="M743 1022l-51 -145q-54 28 -108 28t-102.5 -30.5t-99 -106.5t-50.5 -84v-684h-174v1042h174v-182q65 118 124 162.5t138 44.5q86 0 149 -45zM719 1495l-312 -301h-112l198 301h226z"/>
<glyph glyph-name="Rcommaaccent" horiz-adv-x="1165" unicode="Ŗ" d="M354 782h168q126 0 209.5 72.5t83.5 177.5q0 223 -283 223h-178v-473zM1130 0h-210l-408 627h-158v-627h-184v1411h387q214 0 331.5 -97.5t117.5 -279.5q0 -133 -80 -229.5t-232 -138.5zM629 -348q-45 6 -74 37.5t-29 72.5q0 42 29 72.5t70 30.5q49 0 83.5 -39.5 t34.5 -95.5q0 -165 -186 -260l-33 63q105 50 105 119z"/>
<glyph glyph-name="rcommaaccent" horiz-adv-x="754" unicode="ŗ" d="M743 1022l-51 -145q-54 28 -108 28t-102.5 -30.5t-99 -106.5t-50.5 -84v-684h-174v1042h174v-182q65 118 124 162.5t138 44.5q86 0 149 -45zM425 -348q-45 6 -74 37.5t-29 72.5q0 42 29 72.5t70 30.5q49 0 83.5 -39.5t34.5 -95.5q0 -165 -186 -260l-33 63q105 50 105 119 z"/>
<glyph glyph-name="Rcaron" horiz-adv-x="1165" unicode="Ř" d="M354 782h168q126 0 209.5 72.5t83.5 177.5q0 223 -283 223h-178v-473zM1130 0h-210l-408 627h-158v-627h-184v1411h387q214 0 331.5 -97.5t117.5 -279.5q0 -133 -80 -229.5t-232 -138.5zM854 1853l-199 -301h-225l-199 301h113l198 -192l199 192h113z"/>
<glyph glyph-name="rcaron" horiz-adv-x="754" unicode="ř" d="M743 1022l-51 -145q-54 28 -108 28t-102.5 -30.5t-99 -106.5t-50.5 -84v-684h-174v1042h174v-182q65 118 124 162.5t138 44.5q86 0 149 -45zM718 1497l-199 -301h-225l-199 301h113l198 -192l199 192h113z"/>
<glyph glyph-name="Sacute" horiz-adv-x="1001" unicode="Ś" d="M801 1233q-124 47 -250 47q-118 0 -201.5 -57.5t-83.5 -157.5q0 -120 211 -211q160 -70 214.5 -100t107 -78.5t82.5 -114t30 -149.5q0 -209 -142.5 -324t-336.5 -115q-172 0 -338 86l45 150q58 -32 143 -55t142 -23q134 0 220.5 71t86.5 189q0 95 -61.5 155.5 t-194.5 119.5q-155 68 -201.5 94t-92 71.5t-70.5 102.5t-25 125q0 177 130.5 278t330.5 101q138 0 299 -49zM779 1855l-312 -301h-112l198 301h226z"/>
<glyph glyph-name="sacute" horiz-adv-x="786" unicode="ś" d="M616 887q-83 31 -172 31t-137.5 -34.5t-48.5 -95.5q0 -39 20 -70.5t50 -51.5t135 -76q151 -81 193 -148t42 -145q0 -151 -99.5 -237.5t-258.5 -86.5q-125 0 -248 64l31 139q121 -53 207 -53q198 0 198 153q0 50 -34 89.5t-116 83.5l-116 63q-174 93 -174 260 q0 133 95.5 214t262.5 81q105 0 209 -37zM635 1495l-312 -301h-112l198 301h226z"/>
<glyph glyph-name="Scircumflex" horiz-adv-x="1001" unicode="Ŝ" d="M801 1233q-124 47 -250 47q-118 0 -201.5 -57.5t-83.5 -157.5q0 -120 211 -211q160 -70 214.5 -100t107 -78.5t82.5 -114t30 -149.5q0 -209 -142.5 -324t-336.5 -115q-172 0 -338 86l45 150q58 -32 143 -55t142 -23q134 0 220.5 71t86.5 189q0 95 -61.5 155.5 t-194.5 119.5q-155 68 -201.5 94t-92 71.5t-70.5 102.5t-25 125q0 177 130.5 278t330.5 101q138 0 299 -49zM814 1554h-113l-199 192l-198 -192h-113l199 301h225z"/>
<glyph glyph-name="scircumflex" horiz-adv-x="786" unicode="ŝ" d="M616 887q-83 31 -172 31t-137.5 -34.5t-48.5 -95.5q0 -39 20 -70.5t50 -51.5t135 -76q151 -81 193 -148t42 -145q0 -151 -99.5 -237.5t-258.5 -86.5q-125 0 -248 64l31 139q121 -53 207 -53q198 0 198 153q0 50 -34 89.5t-116 83.5l-116 63q-174 93 -174 260 q0 133 95.5 214t262.5 81q105 0 209 -37zM698 1194h-113l-199 192l-198 -192h-113l199 301h225z"/>
<glyph glyph-name="Scedilla" horiz-adv-x="1001" unicode="Ş" d="M801 1233q-124 47 -250 47q-118 0 -201.5 -57.5t-83.5 -157.5q0 -120 211 -211q160 -70 214.5 -100t107 -78.5t82.5 -114t30 -149.5q0 -209 -142.5 -324t-336.5 -115q-172 0 -338 86l45 150q58 -32 143 -55t142 -23q134 0 220.5 71t86.5 189q0 95 -61.5 155.5 t-194.5 119.5q-155 68 -201.5 94t-92 71.5t-70.5 102.5t-25 125q0 177 130.5 278t330.5 101q138 0 299 -49zM481 -348q-45 6 -74 37.5t-29 72.5q0 42 29 72.5t70 30.5q49 0 83.5 -39.5t34.5 -95.5q0 -165 -186 -260l-33 63q105 50 105 119z"/>
<glyph glyph-name="scedilla" horiz-adv-x="786" unicode="ş" d="M616 887q-83 31 -172 31t-137.5 -34.5t-48.5 -95.5q0 -39 20 -70.5t50 -51.5t135 -76q151 -81 193 -148t42 -145q0 -151 -99.5 -237.5t-258.5 -86.5q-125 0 -248 64l31 139q121 -53 207 -53q198 0 198 153q0 50 -34 89.5t-116 83.5l-116 63q-174 93 -174 260 q0 133 95.5 214t262.5 81q105 0 209 -37zM389 -348q-45 6 -74 37.5t-29 72.5q0 42 29 72.5t70 30.5q49 0 83.5 -39.5t34.5 -95.5q0 -165 -186 -260l-33 63q105 50 105 119z"/>
<glyph glyph-name="Scaron" horiz-adv-x="1001" unicode="Š" d="M801 1233q-124 47 -250 47q-118 0 -201.5 -57.5t-83.5 -157.5q0 -120 211 -211q160 -70 214.5 -100t107 -78.5t82.5 -114t30 -149.5q0 -209 -142.5 -324t-336.5 -115q-172 0 -338 86l45 150q58 -32 143 -55t142 -23q134 0 220.5 71t86.5 189q0 95 -61.5 155.5 t-194.5 119.5q-155 68 -201.5 94t-92 71.5t-70.5 102.5t-25 125q0 177 130.5 278t330.5 101q138 0 299 -49zM802 1853l-199 -301h-225l-199 301h113l198 -192l199 192h113z"/>
<glyph glyph-name="scaron" horiz-adv-x="786" unicode="š" d="M616 887q-83 31 -172 31t-137.5 -34.5t-48.5 -95.5q0 -39 20 -70.5t50 -51.5t135 -76q151 -81 193 -148t42 -145q0 -151 -99.5 -237.5t-258.5 -86.5q-125 0 -248 64l31 139q121 -53 207 -53q198 0 198 153q0 50 -34 89.5t-116 83.5l-116 63q-174 93 -174 260 q0 133 95.5 214t262.5 81q105 0 209 -37zM726 1497l-199 -301h-225l-199 301h113l198 -192l199 192h113z"/>
<glyph glyph-name="Tcommaaccent" horiz-adv-x="1077" unicode="Ţ" d="M1055 1255h-422v-1255h-184v1255h-426v156h1032v-156zM541 -348q-45 6 -74 37.5t-29 72.5q0 42 29 72.5t70 30.5q49 0 83.5 -39.5t34.5 -95.5q0 -165 -186 -260l-33 63q105 50 105 119z"/>
<glyph glyph-name="tcommaaccent" horiz-adv-x="696" unicode="ţ" d="M680 6q-105 -33 -191 -33q-140 0 -214 77t-74 224v615h-152v153h152v285h174v-285h248v-153h-248v-594q0 -172 131 -172q75 0 137 16zM421 -348q-45 6 -74 37.5t-29 72.5q0 42 29 72.5t70 30.5q49 0 83.5 -39.5t34.5 -95.5q0 -165 -186 -260l-33 63q105 50 105 119z"/>
<glyph glyph-name="Tcaron" horiz-adv-x="1077" unicode="Ť" d="M1055 1255h-422v-1255h-184v1255h-426v156h1032v-156zM854 1853l-199 -301h-225l-199 301h113l198 -192l199 192h113z"/>
<glyph glyph-name="tcaron" horiz-adv-x="696" unicode="ť" d="M680 6q-105 -33 -191 -33q-140 0 -214 77t-74 224v615h-152v153h152v285h174v-285h248v-153h-248v-594q0 -172 131 -172q75 0 137 16zM582 1288q-45 6 -74 37.5t-29 72.5q0 42 29 72.5t70 30.5q49 0 83.5 -39.5t34.5 -95.5q0 -165 -186 -260l-33 63q105 50 105 119z"/>
<glyph glyph-name="Tbar" horiz-adv-x="1077" unicode="Ŧ" d="M1055 1255h-422v-362h289v-143h-289v-750h-184v750h-289v143h289v362h-426v156h1032v-156z"/>
<glyph glyph-name="tbar" horiz-adv-x="696" unicode="ŧ" d="M680 6q-105 -33 -191 -33q-140 0 -214 77t-74 224v281h-178v123h178v211h-152v153h152v285h174v-285h248v-153h-248v-211h248v-123h-248v-260q0 -172 131 -172q75 0 137 16z"/>
<glyph glyph-name="Utilde" horiz-adv-x="1393" unicode="Ũ" d="M1237 502q0 -247 -141.5 -388t-401.5 -141q-248 0 -393 145t-145 380v913h184v-901q0 -177 96 -276t258 -99q168 0 269.5 100t101.5 279v897h172v-909zM1049 1774q-34 -230 -192 -230q-56 0 -172 51q-101 44 -151 44q-73 0 -87 -95h-94q34 230 192 230q56 0 172 -51 q101 -44 151 -44q73 0 87 95h94z"/>
<glyph glyph-name="utilde" horiz-adv-x="1130" unicode="ũ" d="M973 0h-174v147q-165 -174 -346 -174q-301 0 -301 361v708h174v-663q0 -127 39.5 -189.5t134.5 -62.5q131 0 299 170v745h174v-1042zM909 1430q-34 -230 -192 -230q-56 0 -172 51q-101 44 -151 44q-73 0 -87 -95h-94q34 230 192 230q56 0 172 -51q101 -44 151 -44 q73 0 87 95h94z"/>
<glyph glyph-name="Umacron" horiz-adv-x="1393" unicode="Ū" d="M1237 502q0 -247 -141.5 -388t-401.5 -141q-248 0 -393 145t-145 380v913h184v-901q0 -177 96 -276t258 -99q168 0 269.5 100t101.5 279v897h172v-909zM1034 1553h-678v135h678v-135z"/>
<glyph glyph-name="umacron" horiz-adv-x="1130" unicode="ū" d="M973 0h-174v147q-165 -174 -346 -174q-301 0 -301 361v708h174v-663q0 -127 39.5 -189.5t134.5 -62.5q131 0 299 170v745h174v-1042zM902 1217h-678v135h678v-135z"/>
<glyph glyph-name="Ubreve" horiz-adv-x="1393" unicode="Ŭ" d="M1237 502q0 -247 -141.5 -388t-401.5 -141q-248 0 -393 145t-145 380v913h184v-901q0 -177 96 -276t258 -99q168 0 269.5 100t101.5 279v897h172v-909zM1032 1816q-24 -124 -116 -194t-212 -70q-123 0 -216.5 70t-116.5 194h137q15 -60 71 -93.5t127 -33.5q68 0 120 33 t67 94h139z"/>
<glyph glyph-name="ubreve" horiz-adv-x="1130" unicode="ŭ" d="M973 0h-174v147q-165 -174 -346 -174q-301 0 -301 361v708h174v-663q0 -127 39.5 -189.5t134.5 -62.5q131 0 299 170v745h174v-1042zM888 1536q-24 -124 -116 -194t-212 -70q-123 0 -216.5 70t-116.5 194h137q15 -60 71 -93.5t127 -33.5q68 0 120 33t67 94h139z"/>
<glyph glyph-name="Uring" horiz-adv-x="1393" unicode="Ů" d="M1237 502q0 -247 -141.5 -388t-401.5 -141q-248 0 -393 145t-145 380v913h184v-901q0 -177 96 -276t258 -99q168 0 269.5 100t101.5 279v897h172v-909zM694 1629q46 0 79.5 33.5t33.5 79.5q0 45 -33.5 78.5t-79.5 33.5q-45 0 -78.5 -33.5t-33.5 -78.5q0 -47 33 -80 t79 -33zM694 1932q78 0 134.5 -56.5t56.5 -133.5q0 -78 -56.5 -134.5t-134.5 -56.5t-134 56.5t-56 134.5q0 77 56 133.5t134 56.5z"/>
<glyph glyph-name="uring" horiz-adv-x="1130" unicode="ů" d="M973 0h-174v147q-165 -174 -346 -174q-301 0 -301 361v708h174v-663q0 -127 39.5 -189.5t134.5 -62.5q131 0 299 170v745h174v-1042zM574 1233q46 0 79.5 33.5t33.5 79.5q0 45 -33.5 78.5t-79.5 33.5q-45 0 -78.5 -33.5t-33.5 -78.5q0 -47 33 -80t79 -33zM574 1536 q78 0 134.5 -56.5t56.5 -133.5q0 -78 -56.5 -134.5t-134.5 -56.5t-134 56.5t-56 134.5q0 77 56 133.5t134 56.5z"/>
<glyph glyph-name="Uhungarumlaut" horiz-adv-x="1393" unicode="Ű" d="M1237 502q0 -247 -141.5 -388t-401.5 -141q-248 0 -393 145t-145 380v913h184v-901q0 -177 96 -276t258 -99q168 0 269.5 100t101.5 279v897h172v-909zM794 1855l-291 -301h-133l219 301h205zM1144 1855l-291 -301h-133l219 301h205z"/>
<glyph glyph-name="uhungarumlaut" horiz-adv-x="1130" unicode="ű" d="M973 0h-174v147q-165 -174 -346 -174q-301 0 -301 361v708h174v-663q0 -127 39.5 -189.5t134.5 -62.5q131 0 299 170v745h174v-1042zM670 1495l-291 -301h-133l219 301h205zM1020 1495l-291 -301h-133l219 301h205z"/>
<glyph glyph-name="Uogonek" horiz-adv-x="1393" unicode="Ų" d="M1237 502q0 -236 -130.5 -376.5t-379.5 -152.5q-51 -71 -51 -114q0 -127 123 -127q36 0 112 22v-88q-72 -33 -149 -33q-92 0 -149.5 51.5t-57.5 133.5q0 79 70 159q-224 23 -346.5 165t-122.5 356v913h184v-901q0 -177 96 -276t258 -99q168 0 269.5 100t101.5 279v897 h172v-909z"/>
<glyph glyph-name="uogonek" horiz-adv-x="1130" unicode="ų" d="M1065 -334q-73 -33 -150 -33q-91 0 -148.5 51.5t-57.5 133.5q0 90 90 182v147q-165 -174 -346 -174q-301 0 -301 361v708h174v-663q0 -127 39.5 -189.5t134.5 -62.5q131 0 299 170v745h174v-1042h-72q-72 -89 -72 -141q0 -127 123 -127q36 0 113 22v-88z"/>
<glyph glyph-name="Wcircumflex" horiz-adv-x="1821" unicode="Ŵ" d="M1804 1411l-389 -1411h-176l-328 1149l-293 -1149h-176l-426 1411h197l322 -1132l284 1132h182l330 -1132l279 1132h194zM1222 1554h-113l-199 192l-198 -192h-113l199 301h225z"/>
<glyph glyph-name="wcircumflex" horiz-adv-x="1436" unicode="ŵ" d="M1411 1042l-299 -1042h-149l-244 838l-244 -838h-149l-299 1042h180l199 -804l229 804h168l229 -804l199 804h180zM1030 1194h-113l-199 192l-198 -192h-113l199 301h225z"/>
<glyph glyph-name="Ycircumflex" horiz-adv-x="1075" unicode="Ŷ" d="M1067 1411l-436 -846v-565h-185v565l-436 846h205l324 -647l335 647h193zM850 1554h-113l-199 192l-198 -192h-113l199 301h225z"/>
<glyph glyph-name="ycircumflex" horiz-adv-x="932" unicode="ŷ" d="M930 1042l-383 -1060q-70 -192 -160.5 -300t-261.5 -108q-79 0 -176 35l37 139q85 -24 153 -24q77 0 136.5 58.5t115.5 221.5l-375 1038h179l278 -780l279 780h178zM774 1194h-113l-199 192l-198 -192h-113l199 301h225z"/>
<glyph glyph-name="Ydieresis" horiz-adv-x="1075" unicode="Ÿ" d="M1067 1411l-436 -846v-565h-185v565l-436 846h205l324 -647l335 647h193zM338 1774q46 0 76 -31t30 -78q0 -44 -31 -76t-75 -32t-76.5 32.5t-32.5 75.5q0 47 32 78t77 31zM733 1774q45 0 75 -31t30 -78q0 -44 -31 -76t-74 -32q-45 0 -76.5 32t-31.5 76q0 47 31 78t77 31z "/>
<glyph glyph-name="Zacute" horiz-adv-x="1083" unicode="Ź" d="M1051 1276l-789 -1120h778v-156h-1005v131l796 1124h-792v156h1012v-135zM779 1855l-312 -301h-112l198 301h226z"/>
<glyph glyph-name="zacute" horiz-adv-x="850" unicode="ź" d="M788 0h-718v119l491 770h-477v153h696v-110l-491 -778h499v-154zM699 1495l-312 -301h-112l198 301h226z"/>
<glyph glyph-name="Zdotaccent" horiz-adv-x="1083" unicode="Ż" d="M1051 1276l-789 -1120h778v-156h-1005v131l796 1124h-792v156h1012v-135zM554 1792q51 0 85 -34.5t34 -86.5q0 -49 -34.5 -85t-84.5 -36q-48 0 -83 36.5t-35 84.5q0 51 34.5 86t83.5 35z"/>
<glyph glyph-name="zdotaccent" horiz-adv-x="850" unicode="ż" d="M788 0h-718v119l491 770h-477v153h696v-110l-491 -778h499v-154zM438 1440q51 0 85 -34.5t34 -86.5q0 -49 -34.5 -85t-84.5 -36q-48 0 -83 36.5t-35 84.5q0 51 34.5 86t83.5 35z"/>
<glyph glyph-name="Zcaron" horiz-adv-x="1083" unicode="Ž" d="M1051 1276l-789 -1120h778v-156h-1005v131l796 1124h-792v156h1012v-135zM834 1853l-199 -301h-225l-199 301h113l198 -192l199 192h113z"/>
<glyph glyph-name="zcaron" horiz-adv-x="850" unicode="ž" d="M788 0h-718v119l491 770h-477v153h696v-110l-491 -778h499v-154zM762 1497l-199 -301h-225l-199 301h113l198 -192l199 192h113z"/>
<glyph glyph-name="longs" horiz-adv-x="680" unicode="ſ" d="M717 1454l-41 -135q-95 33 -168 33q-61 0 -85 -49.5t-24 -157.5v-1145h-174v889h-182v153h182v127q0 181 68 256.5t213 75.5q93 0 211 -47z"/>
<glyph glyph-name="florin" d="M1171 1399l-43 -135q-80 24 -137 24q-61 0 -100 -42t-78 -204h238v-153h-273l-174 -768q-49 -213 -134 -307.5t-222 -94.5q-80 0 -191 39l58 144q66 -27 129 -27q66 0 109.5 57t74.5 195l170 762h-176v153h211q49 231 131 313.5t223 82.5q95 0 184 -39z" unicode="ƒ"/>
<glyph glyph-name="Aringacute" horiz-adv-x="1298" unicode="Ǻ" d="M854 637l-205 555l-203 -555h408zM649 1427q46 0 79.5 33.5t33.5 79.5t-33.5 79.5t-79.5 33.5t-79 -33.5t-33 -79.5t33 -79.5t79 -33.5zM1282 0h-197l-176 481h-522l-176 -481h-195l533 1378q-90 61 -90 162q0 78 56 134.5t134 56.5t134.5 -56.5t56.5 -134.5 q0 -101 -90 -162zM987 2127l-312 -301h-112l198 301h226z"/>
<glyph glyph-name="aringacute" horiz-adv-x="985" unicode="ǻ" d="M678 281v217q-251 -20 -329.5 -77.5t-78.5 -144.5q0 -71 45.5 -112t102.5 -41q70 0 140 40.5t120 117.5zM883 0h-176q-21 66 -21 133q-129 -160 -328 -160q-109 0 -183.5 75.5t-74.5 213.5q0 106 47 173t120.5 101t142.5 46t268 32v48q0 134 -47 197t-152 63 q-128 0 -291 -88l-47 120q205 113 387 113q171 0 247.5 -92t76.5 -289v-438q0 -139 31 -248zM823 1903l-312 -301h-112l198 301h226zM502 1233q46 0 79.5 33.5t33.5 79.5q0 45 -33.5 78.5t-79.5 33.5q-45 0 -78.5 -33.5t-33.5 -78.5q0 -47 33 -80t79 -33zM502 1536 q78 0 134.5 -56.5t56.5 -133.5q0 -78 -56.5 -134.5t-134.5 -56.5t-134 56.5t-56 134.5q0 77 56 133.5t134 56.5z"/>
<glyph glyph-name="AEacute" horiz-adv-x="1573" unicode="Ǽ" d="M760 598v557l-258 -557h258zM1468 0h-708v446h-332l-211 -446h-201l691 1411h755v-156h-518v-421h496v-156h-496v-522h524v-156zM1063 1839l-312 -301h-112l198 301h226z"/>
<glyph glyph-name="aeacute" horiz-adv-x="1618" unicode="ǽ" d="M678 281v217q-251 -20 -329.5 -77.5t-78.5 -144.5q0 -71 45.5 -112t102.5 -41q70 0 140 40.5t120 117.5zM1337 643q0 120 -59 197.5t-148 77.5q-110 0 -181 -76.5t-81 -198.5h469zM1516 508h-654q0 -171 90.5 -278t231.5 -107q152 0 282 59l41 -139q-153 -70 -323 -70 q-140 0 -254.5 63.5t-181.5 178.5q-73 -116 -174.5 -179t-215.5 -63q-109 0 -183.5 75.5t-74.5 213.5q0 106 47 173t120.5 101t142.5 46t268 32v48q0 134 -47 197t-152 63q-128 0 -291 -88l-47 120q205 113 387 113q205 0 277 -137q118 137 319 137q178 0 285 -134.5 t107 -369.5v-55zM1071 1495l-312 -301h-112l198 301h226z"/>
<glyph glyph-name="Oslashacute" horiz-adv-x="1495" unicode="Ǿ" d="M496 211q104 -82 252 -82q211 0 326.5 151.5t115.5 424.5q0 253 -113 411zM973 1217q-97 65 -225 65q-203 0 -323 -158t-120 -419q0 -233 92 -381zM1178 1274q206 -207 206 -569q0 -313 -172.5 -522.5t-463.5 -209.5q-191 0 -342 99q0 -2 -36 -58l-46 -71h-172l145 225 q-186 209 -186 537q0 330 173 531.5t464 201.5q177 0 315 -80l82 127h168zM987 1839l-312 -301h-112l198 301h226z"/>
<glyph glyph-name="oslashacute" horiz-adv-x="1161" unicode="ǿ" d="M428 172q65 -45 154 -45q138 0 215 111t77 282q0 156 -61 262zM719 879q-58 34 -137 34q-142 0 -218.5 -106.5t-76.5 -286.5q0 -139 53 -244zM1087 1217l-176 -279q148 -153 148 -418q0 -247 -129.5 -397t-347.5 -150q-138 0 -242 60l-111 -178h-155l164 260 q-136 152 -136 405q0 244 128 395.5t352 151.5q124 0 223 -51l127 201h155zM847 1495l-312 -301h-112l198 301h226z"/>
<glyph glyph-name="circumflex" d="M926 1194h-113l-199 192l-198 -192h-113l199 301h225z" unicode="ˆ"/>
<glyph glyph-name="caron" d="M926 1497l-199 -301h-225l-199 301h113l198 -192l199 192h113z" unicode="ˇ"/>
<glyph glyph-name="macron" d="M954 1217h-678v135h678v-135z" unicode="ˉ"/>
<glyph glyph-name="uni02CA" d="M883 1495l-312 -301h-112l198 301h226z" unicode="ˊ"/>
<glyph glyph-name="breve" d="M940 1536q-24 -124 -116 -194t-212 -70q-123 0 -216.5 70t-116.5 194h137q15 -60 71 -93.5t127 -33.5q68 0 120 33t67 94h139z" unicode="˘"/>
<glyph glyph-name="dotaccent" d="M614 1440q51 0 85 -34.5t34 -86.5q0 -49 -34.5 -85t-84.5 -36q-48 0 -83 36.5t-35 84.5q0 51 34.5 86t83.5 35z" unicode="˙"/>
<glyph glyph-name="ring" d="M614 1233q46 0 79.5 33.5t33.5 79.5q0 45 -33.5 78.5t-79.5 33.5q-45 0 -78.5 -33.5t-33.5 -78.5q0 -47 33 -80t79 -33zM614 1536q78 0 134.5 -56.5t56.5 -133.5q0 -78 -56.5 -134.5t-134.5 -56.5t-134 56.5t-56 134.5q0 77 56 133.5t134 56.5z" unicode="˚"/>
<glyph glyph-name="ogonek" d="M809 -334q-73 -33 -150 -33q-91 0 -148.5 51.5t-57.5 133.5q0 90 90 182h102q-72 -89 -72 -141q0 -127 123 -127q36 0 113 22v-88z" unicode="˛"/>
<glyph glyph-name="tilde" d="M989 1430q-34 -230 -192 -230q-56 0 -172 51q-101 44 -151 44q-73 0 -87 -95h-94q34 230 192 230q56 0 172 -51q101 -44 151 -44q73 0 87 95h94z" unicode="˜"/>
<glyph glyph-name="hungarumlaut" d="M670 1495l-291 -301h-133l219 301h205zM1020 1495l-291 -301h-133l219 301h205z" unicode="˝"/>
<glyph glyph-name="Wgrave" horiz-adv-x="1821" unicode="Ẁ" d="M1804 1411l-389 -1411h-176l-328 1149l-293 -1149h-176l-426 1411h197l322 -1132l284 1132h182l330 -1132l279 1132h194zM1028 1538h-113l-311 301h225z"/>
<glyph glyph-name="wgrave" horiz-adv-x="1436" unicode="ẁ" d="M1411 1042l-299 -1042h-149l-244 838l-244 -838h-149l-299 1042h180l199 -804l229 804h168l229 -804l199 804h180zM864 1194h-113l-311 301h225z"/>
<glyph glyph-name="Wacute" horiz-adv-x="1821" unicode="Ẃ" d="M1804 1411l-389 -1411h-176l-328 1149l-293 -1149h-176l-426 1411h197l322 -1132l284 1132h182l330 -1132l279 1132h194zM1227 1839l-312 -301h-112l198 301h226z"/>
<glyph glyph-name="wacute" horiz-adv-x="1436" unicode="ẃ" d="M1411 1042l-299 -1042h-149l-244 838l-244 -838h-149l-299 1042h180l199 -804l229 804h168l229 -804l199 804h180zM1015 1495l-312 -301h-112l198 301h226z"/>
<glyph glyph-name="Wdieresis" horiz-adv-x="1821" unicode="Ẅ" d="M1804 1411l-389 -1411h-176l-328 1149l-293 -1149h-176l-426 1411h197l322 -1132l284 1132h182l330 -1132l279 1132h194zM714 1778q46 0 76 -31t30 -78q0 -44 -31 -76t-75 -32t-76.5 32.5t-32.5 75.5q0 47 32 78t77 31zM1109 1778q45 0 75 -31t30 -78q0 -44 -31 -76 t-74 -32q-45 0 -76.5 32t-31.5 76q0 47 31 78t77 31z"/>
<glyph glyph-name="wdieresis" horiz-adv-x="1436" unicode="ẅ" d="M1411 1042l-299 -1042h-149l-244 838l-244 -838h-149l-299 1042h180l199 -804l229 804h168l229 -804l199 804h180zM522 1438q46 0 76 -31t30 -78q0 -44 -31 -76t-75 -32t-76.5 32.5t-32.5 75.5q0 47 32 78t77 31zM917 1438q45 0 75 -31t30 -78q0 -44 -31 -76t-74 -32 q-45 0 -76.5 32t-31.5 76q0 47 31 78t77 31z"/>
<glyph glyph-name="Ygrave" horiz-adv-x="1075" unicode="Ỳ" d="M1067 1411l-436 -846v-565h-185v565l-436 846h205l324 -647l335 647h193zM724 1542h-113l-311 301h225z"/>
<glyph glyph-name="ygrave" horiz-adv-x="932" unicode="ỳ" d="M930 1042l-383 -1060q-70 -192 -160.5 -300t-261.5 -108q-79 0 -176 35l37 139q85 -24 153 -24q77 0 136.5 58.5t115.5 221.5l-375 1038h179l278 -780l279 780h178zM731 1495l-312 -301h-112l198 301h226z"/>
<glyph glyph-name="endash" horiz-adv-x="1024" unicode="–" d="M1034 446h-1044v152h1044v-152z"/>
<glyph glyph-name="emdash" horiz-adv-x="2048" unicode="—" d="M2058 446h-2068v172h2068v-172z"/>
<glyph glyph-name="quoteleft" horiz-adv-x="469" unicode="‘" d="M358 1368q-122 -60 -122 -141q52 -6 86 -42.5t34 -84.5q0 -51 -33 -86t-83 -35q-56 0 -97 45.5t-41 110.5q0 195 217 305z"/>
<glyph glyph-name="quoteright" horiz-adv-x="469" unicode="’" d="M233 1190q-52 6 -86 42.5t-34 84.5q0 51 33.5 86t82.5 35q56 0 97 -45.5t41 -110.5q0 -195 -217 -305l-39 72q122 60 122 141z"/>
<glyph glyph-name="quotesinglbase" horiz-adv-x="479" unicode="‚" d="M233 -27q-52 6 -86 43t-34 84q0 51 33.5 86t82.5 35q56 0 97 -45.5t41 -109.5q0 -196 -217 -306l-39 72q122 60 122 141z"/>
<glyph glyph-name="quotedblleft" horiz-adv-x="846" unicode="“" d="M369 1368q-123 -60 -123 -141q53 -6 87 -42.5t34 -84.5q0 -51 -33.5 -86t-83.5 -35q-56 0 -96.5 45.5t-40.5 110.5q0 195 217 305zM735 1368q-123 -60 -123 -141q53 -6 87 -42.5t34 -84.5q0 -51 -33.5 -86t-83.5 -35q-55 0 -96 45.5t-41 110.5q0 195 217 305z"/>
<glyph glyph-name="quotedblright" horiz-adv-x="846" unicode="”" d="M233 1190q-52 6 -86 42.5t-34 84.5q0 51 33.5 86t82.5 35q56 0 97 -45.5t41 -110.5q0 -195 -217 -305l-39 72q122 60 122 141zM600 1190q-53 6 -87 42.5t-34 84.5q0 51 33.5 86t83.5 35q56 0 96.5 -45.5t40.5 -110.5q0 -195 -217 -305l-39 72q123 60 123 141z"/>
<glyph glyph-name="quotedblbase" horiz-adv-x="846" unicode="„" d="M233 -27q-52 6 -86 43t-34 84q0 51 33.5 86t82.5 35q56 0 97 -45.5t41 -109.5q0 -196 -217 -306l-39 72q122 60 122 141zM600 -27q-53 6 -87 43t-34 84q0 51 33.5 86t83.5 35q56 0 96.5 -45.5t40.5 -109.5q0 -196 -217 -306l-39 72q123 60 123 141z"/>
<glyph glyph-name="bullet" horiz-adv-x="1024" unicode="•" d="M512 952q104 0 179 -75t75 -179t-75 -179t-179 -75t-179 75t-75 179t75 179t179 75z"/>
<glyph glyph-name="guilsinglleft" d="M852 139l-92 -80l-381 443v121l381 440l92 -80l-358 -422z" unicode="‹"/>
<glyph glyph-name="guilsinglright" d="M852 502l-381 -443l-92 80l358 422l-358 422l92 80l381 -440v-121z" unicode="›"/>
<glyph glyph-name="uni2044" horiz-adv-x="778" unicode="⁄" d="M780 1438l-620 -1465h-158l614 1465h164z"/>
<glyph glyph-name="foursuperior" horiz-adv-x="682" unicode="⁴" d="M383 946v318l-191 -318h191zM618 828h-106v-156h-129v156h-328v98l297 491h160v-471h106v-118z"/>
<glyph glyph-name="fivesuperior" horiz-adv-x="682" unicode="⁵" d="M248 1137q29 6 63 6q118 0 187 -68.5t69 -167.5q0 -104 -77.5 -177t-194.5 -73q-104 0 -189 39l27 101q83 -33 164 -33q62 0 100.5 38.5t38.5 106.5q0 60 -36.5 94.5t-92.5 34.5q-41 0 -90 -18l-74 35v364h385v-123h-280v-159z"/>
<glyph glyph-name="sevensuperior" horiz-adv-x="682" unicode="⁷" d="M590 1358l-303 -684h-121l280 626h-342v121h486v-63z"/>
<glyph glyph-name="eightsuperior" horiz-adv-x="682" unicode="⁸" d="M342 770q56 0 93.5 33.5t37.5 93.5q0 28 -10.5 53t-31 44t-50.5 30.5t-43 11.5q-21 0 -74 -36.5t-53 -102.5q0 -62 40 -94.5t91 -32.5zM338 1137q16 0 61 22t45 78q0 44 -30.5 68t-75.5 24q-44 0 -72 -25t-28 -67q0 -56 42.5 -78t57.5 -22zM471 1087q127 -53 127 -184 q0 -104 -73.5 -170.5t-182.5 -66.5q-113 0 -185.5 65t-72.5 170q0 127 127 186q-45 19 -71.5 61t-26.5 91q0 84 61.5 139.5t163.5 55.5q106 0 171.5 -57t65.5 -140q0 -94 -104 -150z"/>
<glyph glyph-name="nsuperior" horiz-adv-x="682" unicode="ⁿ" d="M578 793h-119v350q0 112 -80 112q-71 0 -146 -77v-385h-118v553h118v-68q95 80 170 80q175 0 175 -193v-372z"/>
<glyph glyph-name="franc" horiz-adv-x="981" unicode="₣" d="M872 1255h-518v-495h496v-156h-496v-188h295v-150h-295v-266h-184v266h-150v150h150v995h702v-156z"/>
<glyph glyph-name="lira" horiz-adv-x="1139" unicode="₤" d="M1071 94q-120 -110 -264 -110q-79 0 -209 59q-120 55 -186 55q-131 0 -269 -116v168q69 56 92.5 82.5t39.5 72t16 115.5v39h-197v149h197v121h-197v150h197v53q0 261 99 383.5t304 122.5q141 0 277 -58l-41 -139q-113 47 -234 47q-115 0 -168 -85.5t-53 -272.5v-51h275 v-150h-275v-121h275v-149h-275v-21q0 -126 -51 -178q70 0 201 -58q126 -57 192 -57q123 0 254 117v-168z"/>
<glyph glyph-name="peseta" horiz-adv-x="1616" unicode="₧" d="M1487 461q-68 20 -115 20q-80 0 -80 -45q0 -21 51 -50q123 -72 160 -105t37 -99q0 -93 -65 -142.5t-162 -49.5q-71 0 -168 45l33 115q62 -35 129 -35q88 0 88 57q0 37 -85 79q-94 47 -128.5 82.5t-34.5 94.5q0 82 60 130t167 48q60 0 152 -28zM354 774h133q137 0 210 63 t73 181q0 109 -76 173t-198 64h-142v-481zM1122 16q-78 -26 -139 -26q-186 0 -186 184v311h-86v117h86v92q-123 -76 -287 -76h-156v-618h-184v1411h334q208 0 334.5 -105t126.5 -286q0 -160 -101 -268h80v-150h139v-117h-139v-313q0 -57 49 -57q33 0 99 18z"/>
<glyph glyph-name="Euro" horiz-adv-x="1139" unicode="€" d="M1090 88q-155 -115 -345 -115q-216 0 -361 139.5t-181 393.5h-131l53 129h68q-3 21 -3 70q0 53 3 75h-121l53 129h80q36 252 180.5 390.5t359.5 138.5q191 0 322 -95l-53 -129q-130 80 -269 80q-146 0 -244 -101t-124 -284h508l-56 -129h-462q-2 -22 -2 -75q0 -49 2 -70 h518l-56 -129h-452q24 -184 123 -286.5t245 -102.5q135 0 293 100z"/>
<glyph glyph-name="fraction" horiz-adv-x="1300" unicode="∕" d="M1264 1446l-1104 -1560h-123l1104 1560h123z"/>
<glyph glyph-name="glyph662" d="M1042 1411l-602 -1411h-116l600 1411h118z" horiz-adv-x="1372"/>
<glyph glyph-name="glyph663" d="M541 -348q-45 6 -74 37.5t-29 72.5q0 42 29 72.5t70 30.5q49 0 83.5 -39.5t34.5 -95.5q0 -165 -186 -260l-33 63q105 50 105 119z" horiz-adv-x="1077"/>
</font>
</defs>
</svg>
