<?xml version="1.0" encoding="UTF-8" standalone="no"?>
<!DOCTYPE svg  PUBLIC '-//W3C//DTD SVG 1.1//EN'  'http://www.w3.org/Graphics/SVG/1.1/DTD/svg11.dtd'>
<svg xmlns="http://www.w3.org/2000/svg">
<defs>
<font id="SonicCutThruBT-Heavy" horiz-adv-x="1395">
<font-face slope="-24.5" underline-position="-97" font-weight="400" descent="-410" panose-1="4 3 9 5 4 11 2 2 3 4" units-per-em="2048" unicode-range="U+0020-F000" bbox="-436 -520 2517 2025" x-height="1352" underline-thickness="256" font-family="SonicCutThruBT" ascent="1638" font-style="italic" cap-height="1352"/>
<missing-glyph horiz-adv-x="2048"/>
<glyph glyph-name=".notdef" horiz-adv-x="2048"/>
<glyph glyph-name=".null" horiz-adv-x="0"/>
<glyph glyph-name="nonmarkingreturn" horiz-adv-x="2048"/>
<glyph glyph-name="space" horiz-adv-x="696" unicode=" "/>
<glyph glyph-name="exclam" horiz-adv-x="692" unicode="!" d="M418 338l-156 -338h-446l155 338h447zM877 1352l-422 -928h-449l424 928h447z"/>
<glyph glyph-name="quotedbl" horiz-adv-x="793" unicode='&quot;' d="M870 1352v-557h-245v557h245zM506 1352v-557h-246v557h246z"/>
<glyph glyph-name="numbersign" horiz-adv-x="1247" unicode="#" d="M811 1352l-137 -297h233l135 297h267l-135 -297h198l-98 -215h-199l-102 -228h207l-101 -215h-202l-183 -397h-266l180 397h-223l-180 -397h-266l184 397h-205l100 215h201l103 228h-203l100 215h201l133 297h258zM821 840h-243l-105 -228h244z"/>
<glyph glyph-name="dollar" horiz-adv-x="1208" unicode="$" d="M1165 1352l-135 -297h-256q-77 0 -111 -26t-34 -85q0 -24 30.5 -44t149.5 -62q140 -51 193 -104.5t53 -139.5q0 -38 -18.5 -104.5t-59.5 -178.5q-23 -60 -49 -109t-54 -81q-52 -62 -115 -86.5t-224 -30.5l-74 -164h-268l71 160h-348l135 297h332q109 0 162 44.5t53 135.5 q0 54 -152 106q-21 7 -32 11q-158 55 -201 97t-43 110q0 32 9.5 76.5t27.5 99.5q24 69 50 129t48 96q43 69 74 96t70 37q35 8 79 12.5t93 4.5h51l71 159h269l-72 -159h225z"/>
<glyph glyph-name="percent" horiz-adv-x="2365" unicode="%" d="M1100 1211l-252 -552q-31 -67 -75.5 -92.5t-139.5 -25.5h-447q-53 0 -83.5 23.5t-30.5 64.5q0 12 3.5 24.5t10.5 26.5l250 553q30 67 75 93t140 26h446q55 0 86 -24t31 -64q0 -11 -4 -26t-10 -27zM729 1100q3 8 3.5 11t0.5 7q0 17 -18.5 25t-55.5 8t-57.5 -11.5 t-32.5 -37.5l-139 -309q-3 -7 -4.5 -12t-1.5 -9q0 -15 17 -23t51 -8q44 0 63 10.5t33 39.5zM1475 1352h303l-885 -1352h-303zM2284 672l-252 -553q-31 -68 -76 -93.5t-139 -25.5h-447q-54 0 -85.5 23.5t-31.5 64.5q0 11 3.5 23.5t11.5 28.5l252 552q30 67 75 93t140 26h446 q54 0 84.5 -23.5t30.5 -64.5q0 -13 -3 -26t-9 -25zM1911 560q1 3 1.5 6.5t0.5 11.5q0 16 -18 24t-54 8q-37 0 -57.5 -11t-32.5 -38l-139 -309q-3 -6 -4.5 -11t-1.5 -10q0 -15 16.5 -22.5t48.5 -7.5q46 0 65.5 10.5t32.5 37.5z"/>
<glyph glyph-name="ampersand" horiz-adv-x="1389" unicode="&amp;" d="M1233 680l-92 -207h-47l32 -253q3 -22 3.5 -31t0.5 -17q0 -88 -51 -131t-155 -43q-18 0 -27.5 0.5t-18.5 1.5h-786q-90 0 -141 39.5t-51 107.5q0 18 5.5 40.5t16.5 45.5l178 392q26 59 65.5 82.5t113.5 23.5h10q-36 24 -53 53t-17 68q0 18 6 40.5t17 45.5l98 215 q50 112 125.5 155.5t234.5 43.5h543l-131 -297h-262q-51 0 -83.5 -20.5t-53.5 -65.5l-56 -115h277l-80 -174h379zM758 297l-37 291h-176l-92 -203q-5 -8 -7 -16t-2 -17q0 -25 21.5 -40t58.5 -15h234z"/>
<glyph glyph-name="quotesingle" horiz-adv-x="442" unicode="&apos;" d="M504 1352v-557h-248v557h248z"/>
<glyph glyph-name="parenleft" horiz-adv-x="778" unicode="(" d="M428 1352h547l-111 -248h-170l-383 -856h170l-112 -248h-547z"/>
<glyph glyph-name="parenright" horiz-adv-x="778" unicode=")" d="M350 0h-549l113 248h170l383 856h-170l113 248h546z"/>
<glyph glyph-name="asterisk" horiz-adv-x="915" unicode="*" d="M682 1116l213 107l80 -248l-242 -35l176 -174l-211 -156l-112 221l-109 -221l-211 156l172 174l-239 33l82 250l215 -107l-39 236h262z"/>
<glyph glyph-name="plus" horiz-adv-x="1421" unicode="+" d="M858 1305v-486h481v-289h-481v-483h-295v483h-481v289h481v486h295z"/>
<glyph glyph-name="comma" horiz-adv-x="696" unicode="," d="M451 297l-476 -584h-301l265 584h512z"/>
<glyph glyph-name="hyphen" horiz-adv-x="797" unicode="-" d="M29 532l145 314h592l-143 -314h-594z"/>
<glyph glyph-name="period" horiz-adv-x="696" unicode="." d="M430 338l-156 -338h-471l158 338h469z"/>
<glyph glyph-name="slash" horiz-adv-x="645" unicode="/" d="M629 1352h332l-938 -1352h-332z"/>
<glyph glyph-name="zero" d="M1471 1119l-418 -922q-50 -111 -125.5 -154t-235.5 -43h-600q-89 0 -140.5 39.5t-51.5 107.5q0 20 5.5 41.5t16.5 44.5l418 922q51 111 125 154t235 43h600q90 0 141.5 -40t51.5 -108q0 -18 -6 -40.5t-16 -44.5zM930 965q5 13 6.5 19t1.5 11q0 27 -21 43.5t-57 16.5 q-46 0 -79.5 -22t-53.5 -64l-262 -582q-1 -2 -2 -5q-6 -19 -6 -28q0 -27 22.5 -42t63.5 -15q42 0 72.5 21.5t50.5 64.5z" unicode="0"/>
<glyph glyph-name="one" horiz-adv-x="858" unicode="1" d="M1001 1352l-614 -1352h-471l438 965q4 8 6 17t2 19q0 25 -19.5 39.5t-53.5 14.5h-99l134 297h677z"/>
<glyph glyph-name="two" horiz-adv-x="1190" unicode="2" d="M592 782q35 23 66 58t47 70l22 55q6 13 9 27t3 26q0 16 -15.5 26.5t-41.5 10.5h-477l137 297h745q87 0 139 -38.5t52 -101.5q0 -34 -9.5 -72t-27.5 -79l-88 -195q-45 -98 -107 -167t-153 -119l-516 -283h614l-135 -297h-1102l76 166q39 87 100 154.5t160 132.5z"/>
<glyph glyph-name="three" horiz-adv-x="1313" unicode="3" d="M1325 1118l-139 -305q-26 -58 -66 -82t-112 -24h-11q35 -22 52.5 -52.5t17.5 -68.5q0 -16 -5.5 -37t-17.5 -49l-137 -303q-50 -112 -124.5 -154.5t-235.5 -42.5h-762l141 297h457q51 0 83.5 20.5t53.5 65.5l35 80q1 2 2 5q6 19 6 30q0 25 -22 40t-62 15h-223l141 297h248 q45 0 76 18.5t45 55.5l16 40q3 9 4.5 17t1.5 14q0 28 -21 44t-58 16h-478l142 297h782q91 0 142 -40t51 -110q0 -18 -6 -39t-17 -45z"/>
<glyph glyph-name="four" horiz-adv-x="1270" unicode="4" d="M834 1028l-459 -475h243zM621 1204q82 81 166 114.5t204 33.5h461l-614 -1352h-471l135 297h-637l125 283z"/>
<glyph glyph-name="five" d="M528 297q52 0 84 20.5t54 65.5l36 79q4 8 5.5 15t1.5 21q0 25 -22.5 40t-61.5 15h-557l362 799h789q89 0 140.5 -40t51.5 -110q0 -19 -5.5 -40t-16.5 -43l-29 -64h-594l-92 -205h401q91 0 142 -39.5t51 -108.5q0 -18 -6 -40t-17 -46l-192 -419q-52 -112 -126.5 -154.5 t-234.5 -42.5h-872l133 297h575z" unicode="5"/>
<glyph glyph-name="six" d="M1470 1118l-28 -63h-578q-51 0 -83.5 -20.5t-53.5 -65.5l-35 -74h402q90 0 141 -39.5t51 -107.5q0 -18 -6 -40.5t-16 -45.5l-211 -465q-50 -112 -125 -154.5t-236 -42.5h-600q-90 0 -141 39.5t-51 107.5q0 18 5.5 40.5t16.5 45.5l418 922q51 111 125 154t235 43h600 q90 0 141.5 -40t51.5 -110q0 -17 -6 -38.5t-17 -45.5zM444 381q-4 -9 -6 -17t-2 -18q0 -30 25 -48.5t65 -18.5q52 0 88 24t60 74l59 129q6 14 9 26t3 23q0 29 -24 44t-72 15h-98z" unicode="6"/>
<glyph glyph-name="seven" horiz-adv-x="1042" unicode="7" d="M592 944q12 17 18 33t6 31q0 23 -22.5 35t-65.5 12h-374l137 297h745q91 0 143 -40.5t52 -109.5q0 -24 -6.5 -46t-18.5 -38l-776 -1118h-541z"/>
<glyph glyph-name="eight" d="M1470 1118l-139 -305q-25 -58 -65 -82t-113 -24h-10q35 -22 52 -51.5t17 -69.5q0 -20 -5.5 -41t-16.5 -45l-137 -303q-50 -112 -125 -154.5t-236 -42.5h-600q-90 0 -141 39.5t-51 107.5q0 20 5.5 41.5t16.5 44.5l146 320q42 91 90.5 122.5t137.5 31.5q-52 3 -79 25.5 t-27 62.5q0 12 3.5 26t9.5 29l137 305q51 112 123.5 154.5t236.5 42.5h600q90 0 141.5 -40t51.5 -110q0 -17 -6 -38.5t-17 -45.5zM717 467q4 8 6 17t2 20q0 30 -26.5 47.5t-73.5 17.5q-44 0 -76.5 -20.5t-50.5 -61.5l-48 -105q-5 -12 -7.5 -21.5t-2.5 -16.5 q0 -30 24.5 -46.5t67.5 -16.5q49 0 83 20.5t55 63.5zM944 967q3 9 4.5 17t1.5 17q0 31 -24.5 49.5t-67.5 18.5q-50 0 -84 -21t-51 -63l-27 -65q-4 -9 -6 -17.5t-2 -17.5q0 -31 24.5 -48.5t67.5 -17.5q51 0 86 21.5t52 62.5z" unicode="8"/>
<glyph glyph-name="nine" d="M1470 1118l-417 -921q-50 -112 -125 -154.5t-236 -42.5h-854l137 297h553q52 0 84 20.5t54 65.5l34 74h-401q-90 0 -141.5 39t-51.5 108q0 18 6 40.5t17 45.5l211 465q51 111 125 154t235 43h600q90 0 141.5 -40t51.5 -110q0 -17 -6 -38.5t-17 -45.5zM946 971 q5 8 6.5 16.5t1.5 18.5q0 29 -24.5 48t-65.5 19q-51 0 -87.5 -24t-59.5 -74l-58 -129q-7 -18 -10.5 -29t-3.5 -20q0 -30 25 -46t71 -16h99z" unicode="9"/>
<glyph glyph-name="colon" horiz-adv-x="721" unicode=":" d="M442 338l-155 -338h-471l155 338h471zM674 850l-156 -338h-471l156 338h471z"/>
<glyph glyph-name="semicolon" horiz-adv-x="721" unicode=";" d="M463 297l-475 -584h-303l266 584h512zM674 850l-156 -338h-471l156 338h471z"/>
<glyph glyph-name="less" horiz-adv-x="1706" unicode="&lt;" d="M1442 1214v-253l-854 -351l854 -348v-254l-1178 486v233z"/>
<glyph glyph-name="equal" horiz-adv-x="1421" unicode="=" d="M1339 578v-271h-1257v271h1257zM1339 1049v-271h-1257v271h1257z"/>
<glyph glyph-name="greater" horiz-adv-x="1706" unicode="&gt;" d="M264 1214l1178 -487v-233l-1178 -486v254l854 348l-854 351v253z"/>
<glyph glyph-name="question" horiz-adv-x="1042" unicode="?" d="M506 338l-154 -338h-471l156 338h469zM494 782q30 17 63.5 54.5t48.5 72.5l23 56q5 12 8.5 26.5t3.5 26.5q0 16 -15.5 26.5t-41.5 10.5h-369l137 297h604q88 0 140.5 -38.5t52.5 -101.5q0 -32 -9.5 -69t-29.5 -82l-119 -266q-36 -80 -72.5 -118t-99.5 -69l-151 -73 q-41 -20 -71 -47.5t-50 -63.5h-473l24 57q23 53 81.5 105t152.5 104z"/>
<glyph glyph-name="at" horiz-adv-x="2048" unicode="@" d="M1198 696q-9 76 -50 116t-110 40q-103 0 -181.5 -121.5t-78.5 -286.5q0 -83 35 -128.5t98 -45.5q84 0 148 59t88 158zM1161 262q-56 -82 -126.5 -120t-168.5 -38q-163 0 -247 87.5t-84 257.5q0 241 141.5 404t349.5 163q77 0 134 -30.5t95 -92.5l52 92h206l-153 -610 q0 -2 -1 -6q-3 -18 -3 -27q0 -30 16 -44.5t47 -14.5q137 0 240.5 143.5t103.5 335.5q0 239 -179.5 390t-467.5 151q-148 0 -274 -36.5t-230 -109.5q-155 -110 -239 -274.5t-84 -356.5q0 -302 203 -481.5t544 -179.5q164 0 316 47.5t280 138.5l97 -135q-156 -117 -329 -175 t-364 -58q-192 0 -354.5 49t-288.5 145q-157 122 -234 281.5t-77 361.5q0 169 53 320.5t156 277.5q148 183 359.5 278t467.5 95q170 0 320 -46t260 -132q136 -107 203 -243t67 -306q0 -167 -65.5 -307t-190.5 -240q-69 -56 -154 -85.5t-176 -29.5q-106 0 -161 40t-60 120z "/>
<glyph glyph-name="A" horiz-adv-x="1446" unicode="A" d="M582 1352h723q70 0 111.5 -37.5t41.5 -100.5q0 -14 -2.5 -29t-7.5 -32l-334 -1153h-1452l705 850h485l-422 -553h293l213 688q0 1 1 4q3 12 3 21q0 20 -15 32.5t-40 12.5h-434z"/>
<glyph glyph-name="B" horiz-adv-x="1384" unicode="B" d="M666 846h227l55 129q3 6 4.5 12.5t1.5 13.5q0 28 -20 46t-51 18h-119zM1053 197q-50 -111 -125.5 -154t-235.5 -43h-876l614 1352h870q90 0 141.5 -40t51.5 -110q0 -18 -5.5 -39t-17.5 -45l-161 -356q-26 -60 -65.5 -83.5t-113.5 -23.5h-10q36 -23 53 -52.5t17 -67.5 q0 -18 -6 -40.5t-17 -45.5zM645 297l78 180q3 6 4.5 13t1.5 14q0 26 -20.5 44.5t-51.5 18.5h-116l-121 -270h225z"/>
<glyph glyph-name="C" horiz-adv-x="1219" unicode="C" d="M985 297l-45 -100q-50 -113 -122 -155t-238 -42h-488q-89 0 -140.5 39.5t-51.5 107.5q0 20 5.5 41.5t16.5 44.5l418 922q50 112 122.5 154.5t237.5 42.5h457q91 0 142 -40t51 -110q0 -17 -6 -38.5t-17 -45.5l-29 -63h-434q-51 0 -84 -21t-53 -65l-260 -582q-4 -8 -6 -16 t-2 -17q0 -25 19 -41t50 -16h457z"/>
<glyph glyph-name="D" d="M1471 1119l-418 -922q-50 -112 -125 -154.5t-236 -42.5h-876l614 1352h870q90 0 141.5 -40t51.5 -108q0 -18 -6 -40.5t-16 -44.5zM930 965q4 8 6 16t2 16q0 26 -20.5 42t-53.5 16h-98l-344 -758h106q55 0 85 19t53 67z" unicode="D"/>
<glyph glyph-name="E" horiz-adv-x="1057" unicode="E" d="M1245 1352l-135 -297h-344l-92 -205h344l-135 -297h-344l-117 -256h344l-135 -297h-815l614 1352h815z"/>
<glyph glyph-name="F" horiz-adv-x="1024" unicode="F" d="M674 850h344l-135 -297h-344l-252 -553h-471l614 1352h815l-135 -297h-344z"/>
<glyph glyph-name="G" d="M1348 850l-295 -653q-50 -111 -125.5 -154t-235.5 -43h-600q-89 0 -140.5 39.5t-51.5 107.5q0 20 5.5 41.5t16.5 44.5l418 922q51 111 125 154t235 43h600q90 0 141.5 -40t51.5 -110q0 -17 -6 -38.5t-17 -45.5l-28 -63h-578q-51 0 -84 -21t-53 -65l-260 -584 q-4 -8 -6 -16t-2 -17q0 -26 22 -40.5t62 -14.5q51 0 83.5 20.5t53.5 65.5l78 170h-113l135 297h568z" unicode="G"/>
<glyph glyph-name="H" d="M1577 1352l-614 -1352h-471l251 553h-204l-252 -553h-471l614 1352h471l-227 -502h205l227 502h471z" unicode="H"/>
<glyph glyph-name="I" horiz-adv-x="717" unicode="I" d="M901 1352l-614 -1352h-471l614 1352h471z"/>
<glyph glyph-name="J" horiz-adv-x="819" unicode="J" d="M-152 297h105q50 0 84 21t53 65l440 969h471l-524 -1155q-50 -111 -125 -154t-235 -43h-404z"/>
<glyph glyph-name="K" horiz-adv-x="1597" unicode="K" d="M739 1036l9 -6l180 199q63 69 128.5 96t170.5 27h360l-135 -297h-143q-72 0 -126.5 -21t-95.5 -65l-161 -178q46 -10 83.5 -46.5t71.5 -105.5l316 -639h-471l-203 438q-2 4 -4 9q-50 106 -131 106h-49l-252 -553h-471l614 1352h471z"/>
<glyph glyph-name="L" horiz-adv-x="985" unicode="L" d="M901 1352l-479 -1055h364l-135 -297h-835l614 1352h471z"/>
<glyph glyph-name="M" horiz-adv-x="2058" unicode="M" d="M971 1055h-205l-479 -1055h-471l614 1352h1536q90 0 141.5 -40t51.5 -110q0 -17 -6 -38.5t-17 -45.5l-508 -1118h-471l438 964q3 6 4.5 13t2.5 14q0 27 -20.5 45.5t-51.5 18.5h-98l-480 -1055h-460z"/>
<glyph glyph-name="N" d="M1470 1118l-507 -1118h-471l438 965q3 8 4.5 15.5t1.5 14.5q0 29 -18.5 44.5t-53.5 15.5h-98l-479 -1055h-471l614 1352h870q90 0 141.5 -40t51.5 -110q0 -17 -6 -38.5t-17 -45.5z" unicode="N"/>
<glyph glyph-name="O" d="M1470 1118l-417 -921q-50 -112 -125 -154.5t-236 -42.5h-600q-89 0 -140.5 39.5t-51.5 107.5q0 17 6 38.5t18 47.5l416 922q51 111 125 154t235 43h600q90 0 142.5 -40t52.5 -108q0 -17 -6 -38.5t-19 -47.5zM930 965q5 13 6.5 19t1.5 11q0 27 -21 43.5t-57 16.5 q-46 0 -79.5 -22t-53.5 -64l-260 -578q-4 -8 -6 -17t-2 -20q0 -27 22 -42t64 -15q41 0 70.5 21t50.5 65z" unicode="O"/>
<glyph glyph-name="P" horiz-adv-x="1366" unicode="P" d="M631 754h207l92 211q3 8 4.5 15.5t1.5 14.5q0 26 -20 43t-52 17h-98zM496 457l-209 -457h-471l614 1352h870q90 0 141.5 -40t51.5 -110q0 -18 -5.5 -39t-17.5 -45l-215 -479q-48 -109 -106 -145.5t-197 -36.5h-456z"/>
<glyph glyph-name="Q" d="M1051 297h174l-135 -297h-998q-89 0 -140.5 39.5t-51.5 107.5q0 20 5.5 41.5t16.5 44.5l418 922q51 111 125 154t235 43h600q90 0 141.5 -40t51.5 -110q0 -17 -6 -38.5t-17 -45.5l-323 -712q-22 -48 -43.5 -71.5t-52.5 -37.5zM930 965q5 13 6.5 19t1.5 11q0 27 -21 43.5 t-57 16.5q-46 0 -79.5 -22t-53.5 -64l-262 -582q-1 -2 -2 -5q-6 -19 -6 -28q0 -27 22.5 -42t63.5 -15t72 21.5t51 64.5z" unicode="Q"/>
<glyph glyph-name="R" d="M664 836h231l53 132q3 8 4.5 15.5t1.5 15.5q0 27 -19.5 43.5t-51.5 16.5h-121zM721 463q3 6 4.5 12.5t1.5 13.5q0 27 -20.5 45.5t-51.5 18.5h-123l-251 -553h-465l614 1352h870q90 0 141.5 -40t51.5 -110q0 -18 -5.5 -39t-17.5 -45l-206 -459q-28 -58 -67.5 -82 t-111.5 -24h-12q35 -22 52.5 -52.5t17.5 -68.5q0 -18 -6 -40.5t-17 -45.5l-157 -346h-447z" unicode="R"/>
<glyph glyph-name="S" horiz-adv-x="1194" unicode="S" d="M1212 1352l-135 -297h-325q-63 0 -85 -9.5t-34 -35.5l-17 -36q-5 -10 -7.5 -18t-2.5 -14q0 -35 134 -77q53 -17 83 -27q148 -51 200 -96.5t52 -112.5q0 -25 -8.5 -60t-24.5 -69l-124 -283q-55 -124 -145.5 -170.5t-340.5 -46.5h-631l136 297h430q115 0 150.5 18t55.5 68 l31 72q7 15 10.5 29t3.5 24q0 52 -151 104q-36 12 -56 19q-169 60 -210 95t-41 89q0 25 8 57t22 64l119 266q37 83 107.5 116.5t224.5 33.5h571z"/>
<glyph glyph-name="T" horiz-adv-x="1085" unicode="T" d="M969 1055l-480 -1055h-471l480 1055h-348l135 297h1126l-135 -297h-307z"/>
<glyph glyph-name="U" d="M1577 1352l-524 -1155q-50 -111 -125.5 -154t-235.5 -43h-600q-89 0 -140.5 39.5t-51.5 107.5q0 20 5.5 41.5t16.5 44.5l508 1119h471l-432 -955q-5 -10 -7.5 -20.5t-2.5 -22.5q0 -28 21.5 -42.5t62.5 -14.5t72 21.5t51 64.5l440 969h471z" unicode="U"/>
<glyph glyph-name="V" horiz-adv-x="1374" unicode="V" d="M684 649l383 592q33 58 93 84.5t161 26.5h397l-135 -297h-35q-75 0 -122.5 -23.5t-88.5 -81.5l-712 -950h-285l-131 1352h450z"/>
<glyph glyph-name="W" horiz-adv-x="2202" unicode="W" d="M2085 950l-617 -950h-299l-94 754l-422 -754h-299l-145 1352h450l31 -713l430 713h287l66 -713l342 602q32 58 92.5 84.5t160.5 26.5h398l-135 -297h-35q-76 0 -123 -23.5t-88 -81.5z"/>
<glyph glyph-name="X" horiz-adv-x="1356" unicode="X" d="M569 360l-194 -215q-73 -80 -152.5 -112.5t-222.5 -32.5h-307l135 297h66q65 0 106 16.5t84 61.5l358 364l-202 613h442l88 -275l152 172q48 55 107.5 79t148.5 24h358l-135 -297h-37q-62 0 -103.5 -17t-84.5 -61l-279 -281l229 -696h-442z"/>
<glyph glyph-name="Y" d="M700 457h-401q-90 0 -141.5 39t-51.5 108q1 20 6.5 41.5t16.5 44.5l301 662h471l-227 -498q-5 -11 -6.5 -20t-1.5 -21q0 -30 20.5 -44.5t61.5 -14.5h86l272 598h471l-524 -1155q-50 -112 -125 -154.5t-236 -42.5h-876l135 297h577q52 0 84 20.5t54 65.5z" unicode="Y"/>
<glyph glyph-name="Z" horiz-adv-x="1139" unicode="Z" d="M1300 1147l-866 -850h475l-135 -297h-1059l86 188l879 867h-442l135 297h1020z"/>
<glyph glyph-name="bracketleft" horiz-adv-x="778" unicode="[" d="M975 1352l-111 -248h-39q-77 0 -114 -21t-62 -75l-287 -646q-6 -13 -9 -26.5t-3 -26.5q0 -32 23.5 -46.5t72.5 -14.5h64l-113 -248h-305q-89 0 -140.5 39.5t-51.5 107.5q0 17 6 38.5t18 47.5l416 922q51 111 125 154t235 43h275z"/>
<glyph glyph-name="backslash" horiz-adv-x="905" unicode="\" d="M530 1352l146 -1352h-293l-147 1352h294z"/>
<glyph glyph-name="bracketright" horiz-adv-x="778" unicode="]" d="M-201 0l111 248h39q77 0 114.5 21t61.5 75l289 645q6 14 9 27.5t3 25.5q0 32 -23 47t-73 15h-64l113 248h303q90 0 142.5 -40t52.5 -108q0 -17 -6.5 -38.5t-18.5 -47.5l-418 -921q-51 -112 -125 -154.5t-235 -42.5h-275z"/>
<glyph glyph-name="asciicircum" horiz-adv-x="2048" unicode="^" d="M879 1462h288l465 -563h-264l-344 342l-346 -342h-264z"/>
<glyph glyph-name="underscore" horiz-adv-x="1024" unicode="_" d="M0 -244h1024v-239h-1024v239z"/>
<glyph glyph-name="grave" horiz-adv-x="1024" unicode="`" d="M436 1823h346l164 -371h-215z"/>
<glyph glyph-name="a" horiz-adv-x="1446" unicode="a" d="M582 1352h723q70 0 111.5 -37.5t41.5 -100.5q0 -14 -2.5 -29t-7.5 -32l-334 -1153h-1452l705 850h485l-422 -553h293l213 688q0 1 1 4q3 12 3 21q0 20 -15 32.5t-40 12.5h-434z"/>
<glyph glyph-name="b" horiz-adv-x="1384" unicode="b" d="M666 846h227l55 129q3 6 4.5 12.5t1.5 13.5q0 28 -20 46t-51 18h-119zM1053 197q-50 -111 -125.5 -154t-235.5 -43h-876l614 1352h870q90 0 141.5 -40t51.5 -110q0 -18 -5.5 -39t-17.5 -45l-161 -356q-26 -60 -65.5 -83.5t-113.5 -23.5h-10q36 -23 53 -52.5t17 -67.5 q0 -18 -6 -40.5t-17 -45.5zM645 297l78 180q3 6 4.5 13t1.5 14q0 26 -20.5 44.5t-51.5 18.5h-116l-121 -270h225z"/>
<glyph glyph-name="c" horiz-adv-x="1219" unicode="c" d="M985 297l-45 -100q-50 -113 -122 -155t-238 -42h-488q-89 0 -140.5 39.5t-51.5 107.5q0 20 5.5 41.5t16.5 44.5l418 922q50 112 122.5 154.5t237.5 42.5h457q91 0 142 -40t51 -110q0 -17 -6 -38.5t-17 -45.5l-29 -63h-434q-51 0 -84 -21t-53 -65l-260 -582q-4 -8 -6 -16 t-2 -17q0 -25 19 -41t50 -16h457z"/>
<glyph glyph-name="d" d="M1471 1119l-418 -922q-50 -112 -125 -154.5t-236 -42.5h-876l614 1352h870q90 0 141.5 -40t51.5 -108q0 -18 -6 -40.5t-16 -44.5zM930 965q4 8 6 16t2 16q0 26 -20.5 42t-53.5 16h-98l-344 -758h106q55 0 85 19t53 67z" unicode="d"/>
<glyph glyph-name="e" horiz-adv-x="1057" unicode="e" d="M1245 1352l-135 -297h-344l-92 -205h344l-135 -297h-344l-117 -256h344l-135 -297h-815l614 1352h815z"/>
<glyph glyph-name="f" horiz-adv-x="1024" unicode="f" d="M674 850h344l-135 -297h-344l-252 -553h-471l614 1352h815l-135 -297h-344z"/>
<glyph glyph-name="g" d="M1348 850l-295 -653q-50 -111 -125.5 -154t-235.5 -43h-600q-89 0 -140.5 39.5t-51.5 107.5q0 20 5.5 41.5t16.5 44.5l418 922q51 111 125 154t235 43h600q90 0 141.5 -40t51.5 -110q0 -17 -6 -38.5t-17 -45.5l-28 -63h-578q-51 0 -84 -21t-53 -65l-260 -584 q-4 -8 -6 -16t-2 -17q0 -26 22 -40.5t62 -14.5q51 0 83.5 20.5t53.5 65.5l78 170h-113l135 297h568z" unicode="g"/>
<glyph glyph-name="h" d="M1577 1352l-614 -1352h-471l251 553h-204l-252 -553h-471l614 1352h471l-227 -502h205l227 502h471z" unicode="h"/>
<glyph glyph-name="i" horiz-adv-x="717" unicode="i" d="M901 1352l-614 -1352h-471l614 1352h471z"/>
<glyph glyph-name="j" horiz-adv-x="819" unicode="j" d="M-152 297h105q50 0 84 21t53 65l440 969h471l-524 -1155q-50 -111 -125 -154t-235 -43h-404z"/>
<glyph glyph-name="k" horiz-adv-x="1597" unicode="k" d="M739 1036l9 -6l180 199q63 69 128.5 96t170.5 27h360l-135 -297h-143q-72 0 -126.5 -21t-95.5 -65l-161 -178q46 -10 83.5 -46.5t71.5 -105.5l316 -639h-471l-203 438q-2 4 -4 9q-50 106 -131 106h-49l-252 -553h-471l614 1352h471z"/>
<glyph glyph-name="l" horiz-adv-x="985" unicode="l" d="M901 1352l-479 -1055h364l-135 -297h-835l614 1352h471z"/>
<glyph glyph-name="m" horiz-adv-x="2058" unicode="m" d="M971 1055h-205l-479 -1055h-471l614 1352h1536q90 0 141.5 -40t51.5 -110q0 -17 -6 -38.5t-17 -45.5l-508 -1118h-471l438 964q3 6 4.5 13t2.5 14q0 27 -20.5 45.5t-51.5 18.5h-98l-480 -1055h-460z"/>
<glyph glyph-name="n" d="M1470 1118l-507 -1118h-471l438 965q3 8 4.5 15.5t1.5 14.5q0 29 -18.5 44.5t-53.5 15.5h-98l-479 -1055h-471l614 1352h870q90 0 141.5 -40t51.5 -110q0 -17 -6 -38.5t-17 -45.5z" unicode="n"/>
<glyph glyph-name="o" d="M1470 1118l-417 -921q-50 -112 -125 -154.5t-236 -42.5h-600q-89 0 -140.5 39.5t-51.5 107.5q0 17 6 38.5t18 47.5l416 922q51 111 125 154t235 43h600q90 0 142.5 -40t52.5 -108q0 -17 -6 -38.5t-19 -47.5zM930 965q5 13 6.5 19t1.5 11q0 27 -21 43.5t-57 16.5 q-46 0 -79.5 -22t-53.5 -64l-260 -578q-4 -8 -6 -17t-2 -20q0 -27 22 -42t64 -15q41 0 70.5 21t50.5 65z" unicode="o"/>
<glyph glyph-name="p" horiz-adv-x="1366" unicode="p" d="M631 754h207l92 211q3 8 4.5 15.5t1.5 14.5q0 26 -20 43t-52 17h-98zM496 457l-209 -457h-471l614 1352h870q90 0 141.5 -40t51.5 -110q0 -18 -5.5 -39t-17.5 -45l-215 -479q-48 -109 -106 -145.5t-197 -36.5h-456z"/>
<glyph glyph-name="q" d="M1051 297h174l-135 -297h-998q-89 0 -140.5 39.5t-51.5 107.5q0 20 5.5 41.5t16.5 44.5l418 922q51 111 125 154t235 43h600q90 0 141.5 -40t51.5 -110q0 -17 -6 -38.5t-17 -45.5l-323 -712q-22 -48 -43.5 -71.5t-52.5 -37.5zM930 965q5 13 6.5 19t1.5 11q0 27 -21 43.5 t-57 16.5q-46 0 -79.5 -22t-53.5 -64l-262 -582q-1 -2 -2 -5q-6 -19 -6 -28q0 -27 22.5 -42t63.5 -15t72 21.5t51 64.5z" unicode="q"/>
<glyph glyph-name="r" d="M664 836h231l53 132q3 8 4.5 15.5t1.5 15.5q0 27 -19.5 43.5t-51.5 16.5h-121zM721 463q3 6 4.5 12.5t1.5 13.5q0 27 -20.5 45.5t-51.5 18.5h-123l-251 -553h-465l614 1352h870q90 0 141.5 -40t51.5 -110q0 -18 -5.5 -39t-17.5 -45l-206 -459q-28 -58 -67.5 -82 t-111.5 -24h-12q35 -22 52.5 -52.5t17.5 -68.5q0 -18 -6 -40.5t-17 -45.5l-157 -346h-447z" unicode="r"/>
<glyph glyph-name="s" horiz-adv-x="1194" unicode="s" d="M1212 1352l-135 -297h-325q-63 0 -85 -9.5t-34 -35.5l-17 -36q-5 -10 -7.5 -18t-2.5 -14q0 -35 134 -77q53 -17 83 -27q148 -51 200 -96.5t52 -112.5q0 -25 -8.5 -60t-24.5 -69l-124 -283q-55 -124 -145.5 -170.5t-340.5 -46.5h-631l136 297h430q115 0 150.5 18t55.5 68 l31 72q7 15 10.5 29t3.5 24q0 52 -151 104q-36 12 -56 19q-169 60 -210 95t-41 89q0 25 8 57t22 64l119 266q37 83 107.5 116.5t224.5 33.5h571z"/>
<glyph glyph-name="t" horiz-adv-x="1085" unicode="t" d="M969 1055l-480 -1055h-471l480 1055h-348l135 297h1126l-135 -297h-307z"/>
<glyph glyph-name="u" d="M1577 1352l-524 -1155q-50 -111 -125.5 -154t-235.5 -43h-600q-89 0 -140.5 39.5t-51.5 107.5q0 20 5.5 41.5t16.5 44.5l508 1119h471l-432 -955q-5 -10 -7.5 -20.5t-2.5 -22.5q0 -28 21.5 -42.5t62.5 -14.5t72 21.5t51 64.5l440 969h471z" unicode="u"/>
<glyph glyph-name="v" horiz-adv-x="1374" unicode="v" d="M684 649l383 592q33 58 93 84.5t161 26.5h397l-135 -297h-35q-75 0 -122.5 -23.5t-88.5 -81.5l-712 -950h-285l-131 1352h450z"/>
<glyph glyph-name="w" horiz-adv-x="2202" unicode="w" d="M2085 950l-617 -950h-299l-94 754l-422 -754h-299l-145 1352h450l31 -713l430 713h287l66 -713l342 602q32 58 92.5 84.5t160.5 26.5h398l-135 -297h-35q-76 0 -123 -23.5t-88 -81.5z"/>
<glyph glyph-name="x" horiz-adv-x="1356" unicode="x" d="M569 360l-194 -215q-73 -80 -152.5 -112.5t-222.5 -32.5h-307l135 297h66q65 0 106 16.5t84 61.5l358 364l-202 613h442l88 -275l152 172q48 55 107.5 79t148.5 24h358l-135 -297h-37q-62 0 -103.5 -17t-84.5 -61l-279 -281l229 -696h-442z"/>
<glyph glyph-name="y" d="M700 457h-401q-90 0 -141.5 39t-51.5 108q1 20 6.5 41.5t16.5 44.5l301 662h471l-227 -498q-5 -11 -6.5 -20t-1.5 -21q0 -30 20.5 -44.5t61.5 -14.5h86l272 598h471l-524 -1155q-50 -112 -125 -154.5t-236 -42.5h-876l135 297h577q52 0 84 20.5t54 65.5z" unicode="y"/>
<glyph glyph-name="z" horiz-adv-x="1139" unicode="z" d="M1300 1147l-866 -850h475l-135 -297h-1059l86 188l879 867h-442l135 297h1020z"/>
<glyph glyph-name="braceleft" horiz-adv-x="1024" unicode="{" d="M893 1477v-242q-7 0 -21 1t-20 1q-98 0 -132 -35.5t-34 -146.5v-240q0 -140 -46 -200t-165 -85q120 -24 165.5 -82.5t45.5 -199.5v-242q0 -110 33.5 -145t130.5 -35q7 0 21.5 1t21.5 1v-242q-15 0 -42 -1t-40 -1q-108 0 -179.5 12t-119.5 37q-59 32 -82.5 88.5 t-23.5 192.5v256q0 133 -49.5 187.5t-168.5 54.5q-4 0 -17 -1t-19 -1v241q6 0 18 -1t18 -1q118 0 168 55.5t50 188.5v254q0 136 24 193.5t82 89.5q48 25 120.5 37t180.5 12q12 0 38.5 -1t41.5 -1z"/>
<glyph glyph-name="bar" horiz-adv-x="1024" unicode="|" d="M393 1565h240v-2048h-240v2048z"/>
<glyph glyph-name="braceright" horiz-adv-x="1024" unicode="}" d="M133 1477q15 0 41.5 1t38.5 1q108 0 180 -12t121 -37q58 -32 82.5 -89.5t24.5 -193.5v-254q0 -134 49 -189t168 -55q6 0 18 1t18 1v-241q-6 0 -18 1t-18 1q-119 0 -168 -55t-49 -187v-256q0 -137 -24.5 -194.5t-82.5 -88.5q-45 -24 -113.5 -35.5t-177.5 -11.5 q-14 0 -44 1t-46 1v242q9 0 23 -1t20 -1q97 0 130.5 34.5t33.5 145.5v242q0 140 46 199t165 83q-120 25 -165.5 84t-45.5 201v240q0 111 -33.5 146.5t-126.5 35.5q-7 0 -22.5 -1t-24.5 -1v242z"/>
<glyph glyph-name="asciitilde" horiz-adv-x="1706" unicode="~" d="M1530 819v-254q-101 -69 -194 -103t-183 -34q-45 0 -89 7.5t-83 21.5q-13 4 -38 13q-255 89 -382 89q-84 0 -175.5 -37.5t-207.5 -120.5v254q112 73 207.5 108.5t179.5 35.5q63 0 126.5 -12t169.5 -46q16 -5 51 -17q159 -56 247 -56q84 0 173.5 36t197.5 115z"/>
<glyph glyph-name="nonbreakingspace" unicode=" "/>
<glyph glyph-name="exclamdown" horiz-adv-x="692" unicode="¡" d="M274 1014l156 338h447l-156 -338h-447zM-184 0l424 928h446l-424 -928h-446z"/>
<glyph glyph-name="cent" horiz-adv-x="1165" unicode="¢" d="M938 297l-45 -100q-50 -113 -122 -155t-239 -42h-36l-74 -160h-268l69 160h-131q-89 0 -140.5 39.5t-51.5 107.5q0 20 5.5 41.5t16.5 44.5l332 732q50 111 122.5 153.5t237.5 42.5h39l72 160h270l-71 -160h82q90 0 141 -39.5t51 -109.5q0 -18 -5.5 -39.5t-16.5 -44.5 l-29 -64h-369q-51 0 -84 -20.5t-53 -65.5l-174 -391q-4 -8 -6 -16t-2 -17q0 -25 19 -41t50 -16h410z"/>
<glyph glyph-name="sterling" horiz-adv-x="1262" unicode="£" d="M1274 1118l-29 -63h-297q-51 0 -83.5 -20.5t-53.5 -65.5l-35 -74l-31 -72h267l-117 -256h-268l-121 -270h559l-135 -297h-1030l258 567h-187l119 256h184l150 332q49 111 123.5 154t236.5 43h320q90 0 141 -40t51 -110q0 -17 -5.5 -38.5t-16.5 -45.5z"/>
<glyph glyph-name="currency" horiz-adv-x="1241" unicode="¤" d="M178 1444l203 -201q54 37 113.5 55.5t126.5 18.5q69 0 130 -18.5t113 -55.5l201 201l119 -117l-201 -205q35 -53 52.5 -112t17.5 -125t-17.5 -125.5t-52.5 -112.5l201 -203l-119 -118l-201 202q-52 -37 -111.5 -55t-129.5 -18t-128.5 17.5t-113.5 55.5l-203 -202 l-117 118l201 203q-36 54 -54 113t-18 125q0 67 18.5 126.5t53.5 110.5l-201 205zM623 1145q-107 0 -184 -77t-77 -183q0 -108 76 -184t185 -76q107 0 183.5 76t76.5 184q0 106 -76.5 183t-183.5 77z"/>
<glyph glyph-name="yen" d="M219 0l203 453h-410l66 147h383l-41 141h-318l66 150h211l-133 461h403l103 -539l407 539h422l-395 -461h207l-68 -150h-264l-121 -141h360l-67 -147h-387l-207 -453h-420z" unicode="¥"/>
<glyph glyph-name="brokenbar" horiz-adv-x="1024" unicode="¦" d="M393 1432h240v-758h-240v758zM393 408h240v-758h-240v758z"/>
<glyph glyph-name="section" horiz-adv-x="1085" unicode="§" d="M1055 1352l-111 -219h-213q-70 0 -94.5 -16t-24.5 -56q0 -24 100 -67q37 -16 59 -26q3 -1 13 -6q232 -107 232 -204q0 -10 -1.5 -21t-4.5 -22q-24 -79 -53 -146.5t-52 -103.5q-34 -55 -68.5 -73.5t-95.5 -18.5q-17 0 -27 0.5t-17 0.5q43 -34 58 -60.5t15 -63.5 q0 -17 -2 -31t-6 -26q-24 -74 -48.5 -131t-39.5 -76q-39 -48 -97 -67t-186 -19h-485l112 219h281q73 0 96 16t23 58q0 19 -109 70q-23 11 -37 18q-19 9 -53 25q-205 94 -205 196q0 21 11 55.5t39 96.5l2 5q56 132 92 175q19 22 53 32.5t90 10.5h35q-41 30 -58.5 59t-17.5 68 q0 17 2 30.5t6 26.5q23 73 47.5 130t40.5 77q38 46 95 65t188 19h416zM424 537l174 -84l55 118q8 19 12.5 36.5t4.5 31.5q0 28 -15.5 48.5t-46.5 35.5l-174 86l-53 -119q-8 -16 -12 -33.5t-4 -33.5q0 -30 14.5 -51.5t44.5 -34.5z"/>
<glyph glyph-name="dieresis" horiz-adv-x="1024" unicode="¨" d="M1047 1798h301l-144 -323h-301zM655 1798h301l-143 -323h-301z"/>
<glyph glyph-name="copyright" horiz-adv-x="1706" unicode="©" d="M852 1485q154 0 289.5 -56t242.5 -163q106 -106 160.5 -240.5t54.5 -288.5q0 -153 -54 -287t-159 -237q-109 -108 -247 -165.5t-287 -57.5q-148 0 -283.5 57t-242.5 164t-163.5 241.5t-56.5 284.5q0 148 57.5 285t164.5 246q105 106 238 161.5t286 55.5zM854 1350 q-126 0 -235 -45.5t-195 -133.5q-88 -89 -135 -201t-47 -233q0 -119 47 -230.5t135 -199.5q87 -87 198 -133.5t232 -46.5t234 47t202 135q86 84 130 193t44 235q0 125 -45 235.5t-131 196.5q-88 89 -198.5 135t-235.5 46zM1221 891h-213q-7 67 -47.5 104t-108.5 37 q-83 0 -129.5 -77t-46.5 -216q0 -140 47.5 -212t138.5 -72q67 0 106.5 40.5t45.5 114.5h215q-6 -143 -107.5 -230t-263.5 -87q-190 0 -301 117.5t-111 320.5q0 207 111 329t299 122q157 0 257 -80t108 -211z"/>
<glyph glyph-name="ordfeminine" horiz-adv-x="954" unicode="ª" d="M383 1352h477q47 0 75 -22.5t28 -59.5q0 -9 -1.5 -18t-5.5 -20l-221 -691h-958l465 510h321l-278 -332h192l141 414q1 2 1.5 6t1.5 8q0 12 -10 19.5t-27 7.5h-287z"/>
<glyph glyph-name="guillemotleft" horiz-adv-x="1219" unicode="«" d="M35 588l438 477l199 -203l-305 -321l157 -365l-268 -102zM518 549l438 473l199 -201l-305 -319l158 -365l-269 -102z"/>
<glyph glyph-name="logicalnot" horiz-adv-x="1706" unicode="¬" d="M254 866h1198v-501h-229v274h-969v227z"/>
<glyph glyph-name="sfthyphen" horiz-adv-x="797" unicode="­" d="M29 532l145 314h592l-143 -314h-594z"/>
<glyph glyph-name="registered" horiz-adv-x="1706" unicode="®" d="M852 1485q156 0 294 -57.5t245 -167.5q101 -104 154.5 -238t53.5 -285q0 -155 -56.5 -291t-164.5 -239q-109 -105 -245 -161t-281 -56q-151 0 -287 58t-243 169q-105 108 -160.5 241.5t-55.5 278.5q0 151 59 290t169 247q105 104 237 157.5t281 53.5zM854 1350 q-124 0 -232 -44t-194 -128q-90 -90 -137 -203t-47 -238q0 -121 44 -229t130 -195q87 -90 199 -138t235 -48q121 0 232.5 45.5t199.5 130.5t134 196.5t46 237.5q0 124 -44 233.5t-128 194.5q-89 91 -200.5 138t-237.5 47zM537 1163h329q174 0 264.5 -60t90.5 -177 q0 -81 -46 -139t-128 -82l182 -361h-248l-154 326h-65v-326h-225v819zM762 1022v-219h80q74 0 110.5 26.5t36.5 79.5q0 59 -38 86t-122 27h-67z"/>
<glyph glyph-name="macron" horiz-adv-x="1024" unicode="¯" d="M674 1763h614l-102 -235h-615z"/>
<glyph glyph-name="degree" horiz-adv-x="674" unicode="°" d="M338 1466q129 0 220 -91t91 -220q0 -128 -91.5 -219.5t-221.5 -91.5q-129 0 -219 90.5t-90 220.5q0 131 90.5 221t220.5 90zM338 1321q-69 0 -117.5 -48t-48.5 -116q0 -70 48 -118t118 -48q68 0 116 49t48 117t-48 116t-116 48z"/>
<glyph glyph-name="plusminus" horiz-adv-x="1706" unicode="±" d="M735 1241h238v-319h479v-232h-479v-319h-238v319h-481v232h481v319zM254 213h1198v-231h-1198v231z"/>
<glyph glyph-name="twosuperior" horiz-adv-x="784" unicode="²" d="M391 1010q24 14 44 35t30 41l14 34q4 7 6 15t2 16q0 10 -9.5 16.5t-26.5 6.5h-316l90 178h492q58 0 92.5 -23t34.5 -61q0 -21 -6.5 -43.5t-18.5 -46.5l-57 -117q-31 -60 -71.5 -100.5t-100.5 -71.5l-342 -170h405l-88 -178h-727l49 100q27 52 67 92.5t105 79.5z"/>
<glyph glyph-name="threesuperior" horiz-adv-x="866" unicode="³" d="M875 1213l-93 -185q-16 -34 -42.5 -48.5t-73.5 -14.5h-9q24 -13 36 -31t12 -41q0 -14 -14 -51l-1 -2l-92 -181q-32 -66 -82 -92t-156 -26h-501l92 178h301q34 0 55.5 12t36.5 39l23 49q0 2 2 6q4 9 4 15q0 14 -15.5 23t-42.5 9h-145l92 179h164q30 0 50 11t30 34l10 24 q3 8 3.5 11.5t0.5 7.5q0 16 -14 25.5t-39 9.5h-313l92 178h516q60 0 93.5 -24t33.5 -66q0 -10 -4 -23t-10 -26z"/>
<glyph glyph-name="acute" horiz-adv-x="1024" unicode="´" d="M934 1823h389l-391 -371h-230z"/>
<glyph glyph-name="mu" horiz-adv-x="1315" unicode="µ" d="M193 1090h358l-80 -529q-6 -41 -9 -77.5t-3 -65.5q0 -85 35.5 -127.5t107.5 -42.5q88 0 138.5 68.5t74.5 220.5l88 553h357l-175 -1090h-321l18 125q-40 -75 -89.5 -108t-119.5 -33q-59 0 -106.5 31t-77.5 89l-82 -532h-352z"/>
<glyph glyph-name="paragraph" horiz-adv-x="1024" unicode="¶" d="M997 1479v-123h-106v-1356h-176v1356h-150v-1356h-174v784q-164 6 -263 101t-99 245q0 158 106 253.5t283 95.5h579z"/>
<glyph glyph-name="periodcentered" horiz-adv-x="696" unicode="·" d="M135 676q0 85 59.5 145t145.5 60q84 0 144.5 -60.5t60.5 -144.5q0 -85 -60 -145t-145 -60q-86 0 -145.5 59.5t-59.5 145.5z"/>
<glyph glyph-name="cedilla" horiz-adv-x="1024" unicode="¸" d="M137 0h152l-43 -92h8q121 0 181.5 -43.5t60.5 -130.5q0 -116 -86 -185t-230 -69q-60 0 -134.5 15.5t-162.5 45.5l68 154q63 -24 116 -36.5t89 -12.5q41 0 66.5 19.5t25.5 51.5q0 35 -37 50.5t-125 15.5h-41z"/>
<glyph glyph-name="onesuperior" horiz-adv-x="567" unicode="¹" d="M662 1352l-406 -811h-311l289 580q2 3 4 9t2 11q0 14 -13.5 23.5t-36.5 9.5h-65l88 178h449z"/>
<glyph glyph-name="ordmasculine" horiz-adv-x="920" unicode="º" d="M971 1213l-277 -554q-33 -67 -82.5 -92.5t-154.5 -25.5h-396q-59 0 -93 23.5t-34 64.5q0 12 4.5 24.5t12.5 26.5l274 553q33 67 82 93t156 26h395q60 0 94.5 -24t34.5 -64q0 -10 -4 -22.5t-12 -28.5zM614 1120q3 8 3.5 11.5t0.5 7.5q0 16 -13.5 25.5t-37.5 9.5 q-31 0 -52.5 -13t-35.5 -39l-172 -346q-2 -9 -3 -14.5t-1 -7.5q0 -17 15 -26t42 -9t47 12.5t33 38.5z"/>
<glyph glyph-name="guillemotright" horiz-adv-x="1219" unicode="»" d="M621 551l-439 -477l-198 202l305 322l-158 365l268 102zM1104 510l-438 -475l-199 203l305 319l-158 365l269 100z"/>
<glyph glyph-name="onequarter" horiz-adv-x="1683" unicode="¼" d="M631 1352l-387 -758h-297l276 540q3 5 4.5 10t1.5 11q0 13 -13 21t-34 8h-61l84 168h426zM1014 1352h305l-911 -1352h-304zM1407 575l-289 -266h154zM1274 674q52 46 105.5 65t127.5 19h291l-387 -758h-297l84 166h-401l80 158z"/>
<glyph glyph-name="onehalf" horiz-adv-x="1632" unicode="½" d="M631 1352l-387 -758h-297l276 540q3 5 4.5 10t1.5 11q0 13 -13 21t-34 8h-61l84 168h426zM1014 1352h305l-911 -1352h-304zM1255 438q23 13 42.5 32.5t29.5 39.5l14 30q3 8 4.5 15t2.5 14q0 10 -9.5 15.5t-25.5 5.5h-301l86 168h471q53 0 86 -22t33 -56q-1 -20 -6.5 -41 t-16.5 -45l-55 -109q-30 -55 -69 -93.5t-95 -67.5l-326 -158h387l-86 -166h-694l49 92q23 48 61 85.5t103 76.5z"/>
<glyph glyph-name="threequarters" horiz-adv-x="1968" unicode="¾" d="M836 1221l-88 -172q-17 -33 -42 -46.5t-71 -13.5h-6q21 -12 32 -29t11 -38q0 -10 -3.5 -22t-11.5 -26l-86 -169q-32 -63 -79 -87t-148 -24h-479l88 166h289q32 0 52 11.5t34 37.5l22 45q3 8 3.5 11.5t0.5 6.5q0 15 -14 23t-39 8h-139l88 166h156q28 0 48 11.5t30 32.5 l10 22l3 10.5t1 5.5q0 15 -13.5 24t-38.5 9h-301l91 168h491q57 0 90 -22.5t33 -61.5q0 -10 -3.5 -22t-10.5 -25zM1300 1352h306l-912 -1352h-303zM1694 575l-289 -266h154zM1561 674q52 46 105 65t128 19h291l-387 -758h-297l84 166h-402l80 158z"/>
<glyph glyph-name="questiondown" horiz-adv-x="1042" unicode="¿" d="M543 1014l155 338h469l-155 -338h-469zM555 569q-31 -17 -64 -54.5t-49 -72.5l-22 -55q-6 -13 -9 -27t-3 -26q0 -17 15.5 -27t41.5 -10h369l-138 -297h-604q-87 0 -138.5 37.5t-51.5 99.5q0 36 9 74t28 80l118 266q36 80 73 118t99 68l152 74q42 20 71.5 46.5t49.5 62.5 h473l-25 -56q-23 -53 -82 -106t-151 -105z"/>
<glyph glyph-name="Agrave" horiz-adv-x="1446" unicode="À" d="M582 1352h723q70 0 111.5 -37.5t41.5 -100.5q0 -14 -2.5 -29t-7.5 -32l-334 -1153h-1452l705 850h485l-422 -553h293l213 688q0 1 1 4q3 12 3 21q0 20 -15 32.5t-40 12.5h-434zM647 1823h346l164 -371h-215z"/>
<glyph glyph-name="Aacute" horiz-adv-x="1446" unicode="Á" d="M582 1352h723q70 0 111.5 -37.5t41.5 -100.5q0 -14 -2.5 -29t-7.5 -32l-334 -1153h-1452l705 850h485l-422 -553h293l213 688q0 1 1 4q3 12 3 21q0 20 -15 32.5t-40 12.5h-434zM1145 1823h389l-391 -371h-230z"/>
<glyph glyph-name="Acircumflex" horiz-adv-x="1446" unicode="Â" d="M582 1352h723q70 0 111.5 -37.5t41.5 -100.5q0 -14 -2.5 -29t-7.5 -32l-334 -1153h-1452l705 850h485l-422 -553h293l213 688q0 1 1 4q3 12 3 21q0 20 -15 32.5t-40 12.5h-434zM1047 1823h340l45 -371h-179l-90 180l-258 -180h-200z"/>
<glyph glyph-name="Atilde" horiz-adv-x="1446" unicode="Ã" d="M582 1352h723q70 0 111.5 -37.5t41.5 -100.5q0 -14 -2.5 -29t-7.5 -32l-334 -1153h-1452l705 850h485l-422 -553h293l213 688q0 1 1 4q3 12 3 21q0 20 -15 32.5t-40 12.5h-434zM1378 1806h144q-65 -165 -129 -234t-150 -69q-24 0 -48.5 4t-49.5 13l-76 24 q-17 5 -32.5 7.5t-30.5 2.5q-30 0 -58 -18t-73 -72h-144q80 188 140 251t147 63q19 0 42.5 -4.5t61.5 -16.5l78 -24q18 -6 33.5 -8.5t30.5 -2.5q36 0 64 21t50 63z"/>
<glyph glyph-name="Adieresis" horiz-adv-x="1446" unicode="Ä" d="M582 1352h723q70 0 111.5 -37.5t41.5 -100.5q0 -14 -2.5 -29t-7.5 -32l-334 -1153h-1452l705 850h485l-422 -553h293l213 688q0 1 1 4q3 12 3 21q0 20 -15 32.5t-40 12.5h-434zM1258 1798h301l-144 -323h-301zM866 1798h301l-143 -323h-301z"/>
<glyph glyph-name="Aring" horiz-adv-x="1446" unicode="Å" d="M582 1352h723q70 0 111.5 -37.5t41.5 -100.5q0 -14 -2.5 -29t-7.5 -32l-334 -1153h-1452l705 850h485l-422 -553h293l213 688q0 1 1 4q3 12 3 21q0 20 -15 32.5t-40 12.5h-434zM1038 1802q-38 0 -63 -26t-25 -66q0 -37 25.5 -62.5t62.5 -25.5q38 0 64 26t26 62 q0 38 -26.5 65t-63.5 27zM1038 2011q126 0 212.5 -87t86.5 -212q0 -126 -86.5 -211.5t-212.5 -85.5t-211.5 85.5t-85.5 211.5t86 212.5t211 86.5z"/>
<glyph glyph-name="AE" horiz-adv-x="1831" unicode="Æ" d="M684 1352h1335l-135 -297h-366l-93 -205h367l-135 -297h-367l-116 -256h366l-135 -297h-1739l707 850h483l-420 -553h291l309 688q1 2 2 5q4 11 4 20q0 20 -15.5 32.5t-41.5 12.5h-434z"/>
<glyph glyph-name="Ccedilla" horiz-adv-x="1219" unicode="Ç" d="M985 297l-45 -100q-50 -113 -122 -155t-238 -42h-488q-89 0 -140.5 39.5t-51.5 107.5q0 20 5.5 41.5t16.5 44.5l418 922q50 112 122.5 154.5t237.5 42.5h457q91 0 142 -40t51 -110q0 -17 -6 -38.5t-17 -45.5l-29 -63h-434q-51 0 -84 -21t-53 -65l-260 -582q-4 -8 -6 -16 t-2 -17q0 -25 19 -41t50 -16h457zM243 0h152l-43 -92h8q121 0 181.5 -43.5t60.5 -130.5q0 -116 -86 -185t-230 -69q-60 0 -134.5 15.5t-162.5 45.5l68 154q63 -24 116 -36.5t89 -12.5q41 0 66.5 19.5t25.5 51.5q0 35 -37 50.5t-125 15.5h-41z"/>
<glyph glyph-name="Egrave" horiz-adv-x="1057" unicode="È" d="M1245 1352l-135 -297h-344l-92 -205h344l-135 -297h-344l-117 -256h344l-135 -297h-815l614 1352h815zM452 1823h346l164 -371h-215z"/>
<glyph glyph-name="Eacute" horiz-adv-x="1057" unicode="É" d="M1245 1352l-135 -297h-344l-92 -205h344l-135 -297h-344l-117 -256h344l-135 -297h-815l614 1352h815zM950 1823h389l-391 -371h-230z"/>
<glyph glyph-name="Ecircumflex" horiz-adv-x="1057" unicode="Ê" d="M1245 1352l-135 -297h-344l-92 -205h344l-135 -297h-344l-117 -256h344l-135 -297h-815l614 1352h815zM852 1823h340l45 -371h-179l-90 180l-258 -180h-200z"/>
<glyph glyph-name="Edieresis" horiz-adv-x="1057" unicode="Ë" d="M1245 1352l-135 -297h-344l-92 -205h344l-135 -297h-344l-117 -256h344l-135 -297h-815l614 1352h815zM1063 1798h301l-144 -323h-301zM671 1798h301l-143 -323h-301z"/>
<glyph glyph-name="Igrave" horiz-adv-x="717" unicode="Ì" d="M901 1352l-614 -1352h-471l614 1352h471zM282 1823h346l164 -371h-215z"/>
<glyph glyph-name="Iacute" horiz-adv-x="717" unicode="Í" d="M901 1352l-614 -1352h-471l614 1352h471zM780 1823h389l-391 -371h-230z"/>
<glyph glyph-name="Icircumflex" horiz-adv-x="717" unicode="Î" d="M901 1352l-614 -1352h-471l614 1352h471zM682 1823h340l45 -371h-179l-90 180l-258 -180h-200z"/>
<glyph glyph-name="Idieresis" horiz-adv-x="717" unicode="Ï" d="M901 1352l-614 -1352h-471l614 1352h471zM893 1798h301l-144 -323h-301zM501 1798h301l-143 -323h-301z"/>
<glyph glyph-name="Eth" horiz-adv-x="1413" unicode="Ð" d="M1489 1118l-418 -921q-50 -112 -125 -154.5t-235 -42.5h-877l260 569h-135l121 267h137l232 516h870q90 0 142 -40t52 -108q0 -17 -6 -38.5t-18 -47.5zM948 965q4 8 6 16t2 16q0 26 -20 42t-53 16h-99l-98 -219h107l-123 -267h-105l-125 -272h107q55 0 84.5 19t52.5 67z "/>
<glyph glyph-name="Ntilde" d="M1470 1118l-507 -1118h-471l438 965q3 8 4.5 15.5t1.5 14.5q0 29 -18.5 44.5t-53.5 15.5h-98l-479 -1055h-471l614 1352h870q90 0 141.5 -40t51.5 -110q0 -17 -6 -38.5t-17 -45.5zM1284 1806h144q-65 -165 -129 -234t-150 -69q-24 0 -48.5 4t-49.5 13l-76 24 q-17 5 -32.5 7.5t-30.5 2.5q-30 0 -58 -18t-73 -72h-144q80 188 140 251t147 63q19 0 42.5 -4.5t61.5 -16.5l78 -24q18 -6 33.5 -8.5t30.5 -2.5q36 0 64 21t50 63z" unicode="Ñ"/>
<glyph glyph-name="Ograve" d="M1470 1118l-417 -921q-50 -112 -125 -154.5t-236 -42.5h-600q-89 0 -140.5 39.5t-51.5 107.5q0 17 6 38.5t18 47.5l416 922q51 111 125 154t235 43h600q90 0 142.5 -40t52.5 -108q0 -17 -6 -38.5t-19 -47.5zM930 965q5 13 6.5 19t1.5 11q0 27 -21 43.5t-57 16.5 q-46 0 -79.5 -22t-53.5 -64l-260 -578q-4 -8 -6 -17t-2 -20q0 -27 22 -42t64 -15q41 0 70.5 21t50.5 65zM622 1823h346l164 -371h-215z" unicode="Ò"/>
<glyph glyph-name="Oacute" d="M1470 1118l-417 -921q-50 -112 -125 -154.5t-236 -42.5h-600q-89 0 -140.5 39.5t-51.5 107.5q0 17 6 38.5t18 47.5l416 922q51 111 125 154t235 43h600q90 0 142.5 -40t52.5 -108q0 -17 -6 -38.5t-19 -47.5zM930 965q5 13 6.5 19t1.5 11q0 27 -21 43.5t-57 16.5 q-46 0 -79.5 -22t-53.5 -64l-260 -578q-4 -8 -6 -17t-2 -20q0 -27 22 -42t64 -15q41 0 70.5 21t50.5 65zM1120 1823h389l-391 -371h-230z" unicode="Ó"/>
<glyph glyph-name="Ocircumflex" d="M1470 1118l-417 -921q-50 -112 -125 -154.5t-236 -42.5h-600q-89 0 -140.5 39.5t-51.5 107.5q0 17 6 38.5t18 47.5l416 922q51 111 125 154t235 43h600q90 0 142.5 -40t52.5 -108q0 -17 -6 -38.5t-19 -47.5zM930 965q5 13 6.5 19t1.5 11q0 27 -21 43.5t-57 16.5 q-46 0 -79.5 -22t-53.5 -64l-260 -578q-4 -8 -6 -17t-2 -20q0 -27 22 -42t64 -15q41 0 70.5 21t50.5 65zM1022 1823h340l45 -371h-179l-90 180l-258 -180h-200z" unicode="Ô"/>
<glyph glyph-name="Otilde" d="M1470 1118l-417 -921q-50 -112 -125 -154.5t-236 -42.5h-600q-89 0 -140.5 39.5t-51.5 107.5q0 17 6 38.5t18 47.5l416 922q51 111 125 154t235 43h600q90 0 142.5 -40t52.5 -108q0 -17 -6 -38.5t-19 -47.5zM930 965q5 13 6.5 19t1.5 11q0 27 -21 43.5t-57 16.5 q-46 0 -79.5 -22t-53.5 -64l-260 -578q-4 -8 -6 -17t-2 -20q0 -27 22 -42t64 -15q41 0 70.5 21t50.5 65zM1353 1806h144q-65 -165 -129 -234t-150 -69q-24 0 -48.5 4t-49.5 13l-76 24q-17 5 -32.5 7.5t-30.5 2.5q-30 0 -58 -18t-73 -72h-144q80 188 140 251t147 63 q19 0 42.5 -4.5t61.5 -16.5l78 -24q18 -6 33.5 -8.5t30.5 -2.5q36 0 64 21t50 63z" unicode="Õ"/>
<glyph glyph-name="Odieresis" d="M1470 1118l-417 -921q-50 -112 -125 -154.5t-236 -42.5h-600q-89 0 -140.5 39.5t-51.5 107.5q0 17 6 38.5t18 47.5l416 922q51 111 125 154t235 43h600q90 0 142.5 -40t52.5 -108q0 -17 -6 -38.5t-19 -47.5zM930 965q5 13 6.5 19t1.5 11q0 27 -21 43.5t-57 16.5 q-46 0 -79.5 -22t-53.5 -64l-260 -578q-4 -8 -6 -17t-2 -20q0 -27 22 -42t64 -15q41 0 70.5 21t50.5 65zM1233 1798h301l-144 -323h-301zM841 1798h301l-143 -323h-301z" unicode="Ö"/>
<glyph glyph-name="multiply" horiz-adv-x="1421" unicode="×" d="M1298 1065l-387 -391l387 -387l-198 -199l-389 387l-387 -387l-201 201l387 389l-387 387l199 201l387 -389l389 389z"/>
<glyph glyph-name="Oslash" d="M1657 1270l-232 -185v-8q0 -32 -8.5 -66.5t-30.5 -82.5l-333 -731q-50 -112 -125 -154.5t-236 -42.5h-473q-33 0 -61.5 7t-53.5 22l-206 -170l-179 209l261 217v10q0 31 8 64t30 83l322 713q49 111 123.5 154t236.5 43h476q33 0 61.5 -7.5t52.5 -21.5l191 154zM930 965 q5 13 6.5 19t1.5 11q0 28 -23 44t-63 16q-42 0 -74.5 -22.5t-50.5 -63.5l-260 -578q-4 -8 -6 -17t-2 -20q0 -27 22 -42t64 -15q41 0 70.5 21t50.5 65z" unicode="Ø"/>
<glyph glyph-name="Ugrave" d="M1577 1352l-524 -1155q-50 -111 -125.5 -154t-235.5 -43h-600q-89 0 -140.5 39.5t-51.5 107.5q0 20 5.5 41.5t16.5 44.5l508 1119h471l-432 -955q-5 -10 -7.5 -20.5t-2.5 -22.5q0 -28 21.5 -42.5t62.5 -14.5t72 21.5t51 64.5l440 969h471zM602 1823h346l164 -371h-215z " unicode="Ù"/>
<glyph glyph-name="Uacute" d="M1577 1352l-524 -1155q-50 -111 -125.5 -154t-235.5 -43h-600q-89 0 -140.5 39.5t-51.5 107.5q0 20 5.5 41.5t16.5 44.5l508 1119h471l-432 -955q-5 -10 -7.5 -20.5t-2.5 -22.5q0 -28 21.5 -42.5t62.5 -14.5t72 21.5t51 64.5l440 969h471zM1100 1823h389l-391 -371h-230z " unicode="Ú"/>
<glyph glyph-name="Ucircumflex" d="M1577 1352l-524 -1155q-50 -111 -125.5 -154t-235.5 -43h-600q-89 0 -140.5 39.5t-51.5 107.5q0 20 5.5 41.5t16.5 44.5l508 1119h471l-432 -955q-5 -10 -7.5 -20.5t-2.5 -22.5q0 -28 21.5 -42.5t62.5 -14.5t72 21.5t51 64.5l440 969h471zM1002 1823h340l45 -371h-179 l-90 180l-258 -180h-200z" unicode="Û"/>
<glyph glyph-name="Udieresis" d="M1577 1352l-524 -1155q-50 -111 -125.5 -154t-235.5 -43h-600q-89 0 -140.5 39.5t-51.5 107.5q0 20 5.5 41.5t16.5 44.5l508 1119h471l-432 -955q-5 -10 -7.5 -20.5t-2.5 -22.5q0 -28 21.5 -42.5t62.5 -14.5t72 21.5t51 64.5l440 969h471zM1213 1798h301l-144 -323h-301z M821 1798h301l-143 -323h-301z" unicode="Ü"/>
<glyph glyph-name="Yacute" d="M700 457h-401q-90 0 -141.5 39t-51.5 108q1 20 6.5 41.5t16.5 44.5l301 662h471l-227 -498q-5 -11 -6.5 -20t-1.5 -21q0 -30 20.5 -44.5t61.5 -14.5h86l272 598h471l-524 -1155q-50 -112 -125 -154.5t-236 -42.5h-876l135 297h577q52 0 84 20.5t54 65.5zM1120 1823h389 l-391 -371h-230z" unicode="Ý"/>
<glyph glyph-name="Thorn" horiz-adv-x="1366" unicode="Þ" d="M541 551h207l89 210q4 9 5.5 16.5t1.5 15.5q0 26 -19 42.5t-51 16.5h-96zM406 254l-119 -254h-471l614 1352h475l-90 -203h395q91 0 142 -39.5t51 -108.5q0 -18 -5.5 -39.5t-17.5 -46.5l-215 -479q-48 -108 -106.5 -145t-196.5 -37h-456z"/>
<glyph glyph-name="germandbls" horiz-adv-x="2388" unicode="ß" d="M1212 1352l-135 -297h-325q-63 0 -85 -9.5t-34 -35.5l-17 -36q-5 -10 -7.5 -18t-2.5 -14q0 -35 134 -77q53 -17 83 -27q148 -51 200 -96.5t52 -112.5q0 -25 -8.5 -60t-24.5 -69l-124 -283q-55 -124 -145.5 -170.5t-340.5 -46.5h-631l136 297h430q115 0 150.5 18t55.5 68 l31 72q7 15 10.5 29t3.5 24q0 52 -151 104q-36 12 -56 19q-169 60 -210 95t-41 89q0 25 8 57t22 64l119 266q37 83 107.5 116.5t224.5 33.5h571zM2406 1352l-135 -297h-325q-63 0 -85 -9.5t-34 -35.5l-17 -36q-5 -10 -7.5 -18t-2.5 -14q0 -35 134 -77q53 -17 83 -27 q148 -51 200 -96.5t52 -112.5q0 -25 -8.5 -60t-24.5 -69l-124 -283q-55 -124 -145.5 -170.5t-340.5 -46.5h-631l136 297h430q115 0 150.5 18t55.5 68l31 72q7 15 10.5 29t3.5 24q0 52 -151 104q-36 12 -56 19q-169 60 -210 95t-41 89q0 25 8 57t22 64l119 266 q37 83 107.5 116.5t224.5 33.5h571z"/>
<glyph glyph-name="agrave" horiz-adv-x="1446" unicode="à" d="M582 1352h723q70 0 111.5 -37.5t41.5 -100.5q0 -14 -2.5 -29t-7.5 -32l-334 -1153h-1452l705 850h485l-422 -553h293l213 688q0 1 1 4q3 12 3 21q0 20 -15 32.5t-40 12.5h-434zM647 1823h346l164 -371h-215z"/>
<glyph glyph-name="aacute" horiz-adv-x="1446" unicode="á" d="M582 1352h723q70 0 111.5 -37.5t41.5 -100.5q0 -14 -2.5 -29t-7.5 -32l-334 -1153h-1452l705 850h485l-422 -553h293l213 688q0 1 1 4q3 12 3 21q0 20 -15 32.5t-40 12.5h-434zM1145 1823h389l-391 -371h-230z"/>
<glyph glyph-name="acircumflex" horiz-adv-x="1446" unicode="â" d="M582 1352h723q70 0 111.5 -37.5t41.5 -100.5q0 -14 -2.5 -29t-7.5 -32l-334 -1153h-1452l705 850h485l-422 -553h293l213 688q0 1 1 4q3 12 3 21q0 20 -15 32.5t-40 12.5h-434zM1047 1823h340l45 -371h-179l-90 180l-258 -180h-200z"/>
<glyph glyph-name="atilde" horiz-adv-x="1446" unicode="ã" d="M582 1352h723q70 0 111.5 -37.5t41.5 -100.5q0 -14 -2.5 -29t-7.5 -32l-334 -1153h-1452l705 850h485l-422 -553h293l213 688q0 1 1 4q3 12 3 21q0 20 -15 32.5t-40 12.5h-434zM1378 1806h144q-65 -165 -129 -234t-150 -69q-24 0 -48.5 4t-49.5 13l-76 24 q-17 5 -32.5 7.5t-30.5 2.5q-30 0 -58 -18t-73 -72h-144q80 188 140 251t147 63q19 0 42.5 -4.5t61.5 -16.5l78 -24q18 -6 33.5 -8.5t30.5 -2.5q36 0 64 21t50 63z"/>
<glyph glyph-name="adieresis" horiz-adv-x="1446" unicode="ä" d="M582 1352h723q70 0 111.5 -37.5t41.5 -100.5q0 -14 -2.5 -29t-7.5 -32l-334 -1153h-1452l705 850h485l-422 -553h293l213 688q0 1 1 4q3 12 3 21q0 20 -15 32.5t-40 12.5h-434zM1258 1798h301l-144 -323h-301zM866 1798h301l-143 -323h-301z"/>
<glyph glyph-name="aring" horiz-adv-x="1446" unicode="å" d="M582 1352h723q70 0 111.5 -37.5t41.5 -100.5q0 -14 -2.5 -29t-7.5 -32l-334 -1153h-1452l705 850h485l-422 -553h293l213 688q0 1 1 4q3 12 3 21q0 20 -15 32.5t-40 12.5h-434zM1038 1802q-38 0 -63 -26t-25 -66q0 -37 25.5 -62.5t62.5 -25.5q38 0 64 26t26 62 q0 38 -26.5 65t-63.5 27zM1038 2011q126 0 212.5 -87t86.5 -212q0 -126 -86.5 -211.5t-212.5 -85.5t-211.5 85.5t-85.5 211.5t86 212.5t211 86.5z"/>
<glyph glyph-name="ae" horiz-adv-x="1831" unicode="æ" d="M684 1352h1335l-135 -297h-366l-93 -205h367l-135 -297h-367l-116 -256h366l-135 -297h-1739l707 850h483l-420 -553h291l309 688q1 2 2 5q4 11 4 20q0 20 -15.5 32.5t-41.5 12.5h-434z"/>
<glyph glyph-name="ccedilla" horiz-adv-x="1219" unicode="ç" d="M985 297l-45 -100q-50 -113 -122 -155t-238 -42h-488q-89 0 -140.5 39.5t-51.5 107.5q0 20 5.5 41.5t16.5 44.5l418 922q50 112 122.5 154.5t237.5 42.5h457q91 0 142 -40t51 -110q0 -17 -6 -38.5t-17 -45.5l-29 -63h-434q-51 0 -84 -21t-53 -65l-260 -582q-4 -8 -6 -16 t-2 -17q0 -25 19 -41t50 -16h457zM243 0h152l-43 -92h8q121 0 181.5 -43.5t60.5 -130.5q0 -116 -86 -185t-230 -69q-60 0 -134.5 15.5t-162.5 45.5l68 154q63 -24 116 -36.5t89 -12.5q41 0 66.5 19.5t25.5 51.5q0 35 -37 50.5t-125 15.5h-41z"/>
<glyph glyph-name="egrave" horiz-adv-x="1057" unicode="è" d="M1245 1352l-135 -297h-344l-92 -205h344l-135 -297h-344l-117 -256h344l-135 -297h-815l614 1352h815zM452 1823h346l164 -371h-215z"/>
<glyph glyph-name="eacute" horiz-adv-x="1057" unicode="é" d="M1245 1352l-135 -297h-344l-92 -205h344l-135 -297h-344l-117 -256h344l-135 -297h-815l614 1352h815zM950 1823h389l-391 -371h-230z"/>
<glyph glyph-name="ecircumflex" horiz-adv-x="1057" unicode="ê" d="M1245 1352l-135 -297h-344l-92 -205h344l-135 -297h-344l-117 -256h344l-135 -297h-815l614 1352h815zM852 1823h340l45 -371h-179l-90 180l-258 -180h-200z"/>
<glyph glyph-name="edieresis" horiz-adv-x="1057" unicode="ë" d="M1245 1352l-135 -297h-344l-92 -205h344l-135 -297h-344l-117 -256h344l-135 -297h-815l614 1352h815zM1063 1798h301l-144 -323h-301zM671 1798h301l-143 -323h-301z"/>
<glyph glyph-name="igrave" horiz-adv-x="717" unicode="ì" d="M901 1352l-614 -1352h-471l614 1352h471zM282 1823h346l164 -371h-215z"/>
<glyph glyph-name="iacute" horiz-adv-x="717" unicode="í" d="M901 1352l-614 -1352h-471l614 1352h471zM780 1823h389l-391 -371h-230z"/>
<glyph glyph-name="icircumflex" horiz-adv-x="717" unicode="î" d="M901 1352l-614 -1352h-471l614 1352h471zM682 1823h340l45 -371h-179l-90 180l-258 -180h-200z"/>
<glyph glyph-name="idieresis" horiz-adv-x="717" unicode="ï" d="M901 1352l-614 -1352h-471l614 1352h471zM893 1798h301l-144 -323h-301zM501 1798h301l-143 -323h-301z"/>
<glyph glyph-name="eth" horiz-adv-x="1413" unicode="ð" d="M1489 1118l-418 -921q-50 -112 -125 -154.5t-235 -42.5h-877l260 569h-135l121 267h137l232 516h870q90 0 142 -40t52 -108q0 -17 -6 -38.5t-18 -47.5zM948 965q4 8 6 16t2 16q0 26 -20 42t-53 16h-99l-98 -219h107l-123 -267h-105l-125 -272h107q55 0 84.5 19t52.5 67z "/>
<glyph glyph-name="ntilde" d="M1470 1118l-507 -1118h-471l438 965q3 8 4.5 15.5t1.5 14.5q0 29 -18.5 44.5t-53.5 15.5h-98l-479 -1055h-471l614 1352h870q90 0 141.5 -40t51.5 -110q0 -17 -6 -38.5t-17 -45.5zM1284 1806h144q-65 -165 -129 -234t-150 -69q-24 0 -48.5 4t-49.5 13l-76 24 q-17 5 -32.5 7.5t-30.5 2.5q-30 0 -58 -18t-73 -72h-144q80 188 140 251t147 63q19 0 42.5 -4.5t61.5 -16.5l78 -24q18 -6 33.5 -8.5t30.5 -2.5q36 0 64 21t50 63z" unicode="ñ"/>
<glyph glyph-name="ograve" d="M1470 1118l-417 -921q-50 -112 -125 -154.5t-236 -42.5h-600q-89 0 -140.5 39.5t-51.5 107.5q0 17 6 38.5t18 47.5l416 922q51 111 125 154t235 43h600q90 0 142.5 -40t52.5 -108q0 -17 -6 -38.5t-19 -47.5zM930 965q5 13 6.5 19t1.5 11q0 27 -21 43.5t-57 16.5 q-46 0 -79.5 -22t-53.5 -64l-260 -578q-4 -8 -6 -17t-2 -20q0 -27 22 -42t64 -15q41 0 70.5 21t50.5 65zM622 1823h346l164 -371h-215z" unicode="ò"/>
<glyph glyph-name="oacute" d="M1470 1118l-417 -921q-50 -112 -125 -154.5t-236 -42.5h-600q-89 0 -140.5 39.5t-51.5 107.5q0 17 6 38.5t18 47.5l416 922q51 111 125 154t235 43h600q90 0 142.5 -40t52.5 -108q0 -17 -6 -38.5t-19 -47.5zM930 965q5 13 6.5 19t1.5 11q0 27 -21 43.5t-57 16.5 q-46 0 -79.5 -22t-53.5 -64l-260 -578q-4 -8 -6 -17t-2 -20q0 -27 22 -42t64 -15q41 0 70.5 21t50.5 65zM1120 1823h389l-391 -371h-230z" unicode="ó"/>
<glyph glyph-name="ocircumflex" d="M1470 1118l-417 -921q-50 -112 -125 -154.5t-236 -42.5h-600q-89 0 -140.5 39.5t-51.5 107.5q0 17 6 38.5t18 47.5l416 922q51 111 125 154t235 43h600q90 0 142.5 -40t52.5 -108q0 -17 -6 -38.5t-19 -47.5zM930 965q5 13 6.5 19t1.5 11q0 27 -21 43.5t-57 16.5 q-46 0 -79.5 -22t-53.5 -64l-260 -578q-4 -8 -6 -17t-2 -20q0 -27 22 -42t64 -15q41 0 70.5 21t50.5 65zM1022 1823h340l45 -371h-179l-90 180l-258 -180h-200z" unicode="ô"/>
<glyph glyph-name="otilde" d="M1470 1118l-417 -921q-50 -112 -125 -154.5t-236 -42.5h-600q-89 0 -140.5 39.5t-51.5 107.5q0 17 6 38.5t18 47.5l416 922q51 111 125 154t235 43h600q90 0 142.5 -40t52.5 -108q0 -17 -6 -38.5t-19 -47.5zM930 965q5 13 6.5 19t1.5 11q0 27 -21 43.5t-57 16.5 q-46 0 -79.5 -22t-53.5 -64l-260 -578q-4 -8 -6 -17t-2 -20q0 -27 22 -42t64 -15q41 0 70.5 21t50.5 65zM1353 1806h144q-65 -165 -129 -234t-150 -69q-24 0 -48.5 4t-49.5 13l-76 24q-17 5 -32.5 7.5t-30.5 2.5q-30 0 -58 -18t-73 -72h-144q80 188 140 251t147 63 q19 0 42.5 -4.5t61.5 -16.5l78 -24q18 -6 33.5 -8.5t30.5 -2.5q36 0 64 21t50 63z" unicode="õ"/>
<glyph glyph-name="odieresis" d="M1470 1118l-417 -921q-50 -112 -125 -154.5t-236 -42.5h-600q-89 0 -140.5 39.5t-51.5 107.5q0 17 6 38.5t18 47.5l416 922q51 111 125 154t235 43h600q90 0 142.5 -40t52.5 -108q0 -17 -6 -38.5t-19 -47.5zM930 965q5 13 6.5 19t1.5 11q0 27 -21 43.5t-57 16.5 q-46 0 -79.5 -22t-53.5 -64l-260 -578q-4 -8 -6 -17t-2 -20q0 -27 22 -42t64 -15q41 0 70.5 21t50.5 65zM1233 1798h301l-144 -323h-301zM841 1798h301l-143 -323h-301z" unicode="ö"/>
<glyph glyph-name="divide" horiz-adv-x="1421" unicode="÷" d="M858 342v-295h-295v295h295zM1339 819v-289h-1257v289h1257zM858 1305v-295h-295v295h295z"/>
<glyph glyph-name="oslash" d="M1657 1270l-232 -185v-8q0 -32 -8.5 -66.5t-30.5 -82.5l-333 -731q-50 -112 -125 -154.5t-236 -42.5h-473q-33 0 -61.5 7t-53.5 22l-206 -170l-179 209l261 217v10q0 31 8 64t30 83l322 713q49 111 123.5 154t236.5 43h476q33 0 61.5 -7.5t52.5 -21.5l191 154zM930 965 q5 13 6.5 19t1.5 11q0 28 -23 44t-63 16q-42 0 -74.5 -22.5t-50.5 -63.5l-260 -578q-4 -8 -6 -17t-2 -20q0 -27 22 -42t64 -15q41 0 70.5 21t50.5 65z" unicode="ø"/>
<glyph glyph-name="ugrave" d="M1577 1352l-524 -1155q-50 -111 -125.5 -154t-235.5 -43h-600q-89 0 -140.5 39.5t-51.5 107.5q0 20 5.5 41.5t16.5 44.5l508 1119h471l-432 -955q-5 -10 -7.5 -20.5t-2.5 -22.5q0 -28 21.5 -42.5t62.5 -14.5t72 21.5t51 64.5l440 969h471zM602 1823h346l164 -371h-215z " unicode="ù"/>
<glyph glyph-name="uacute" d="M1577 1352l-524 -1155q-50 -111 -125.5 -154t-235.5 -43h-600q-89 0 -140.5 39.5t-51.5 107.5q0 20 5.5 41.5t16.5 44.5l508 1119h471l-432 -955q-5 -10 -7.5 -20.5t-2.5 -22.5q0 -28 21.5 -42.5t62.5 -14.5t72 21.5t51 64.5l440 969h471zM1100 1823h389l-391 -371h-230z " unicode="ú"/>
<glyph glyph-name="ucircumflex" d="M1577 1352l-524 -1155q-50 -111 -125.5 -154t-235.5 -43h-600q-89 0 -140.5 39.5t-51.5 107.5q0 20 5.5 41.5t16.5 44.5l508 1119h471l-432 -955q-5 -10 -7.5 -20.5t-2.5 -22.5q0 -28 21.5 -42.5t62.5 -14.5t72 21.5t51 64.5l440 969h471zM1002 1823h340l45 -371h-179 l-90 180l-258 -180h-200z" unicode="û"/>
<glyph glyph-name="udieresis" d="M1577 1352l-524 -1155q-50 -111 -125.5 -154t-235.5 -43h-600q-89 0 -140.5 39.5t-51.5 107.5q0 20 5.5 41.5t16.5 44.5l508 1119h471l-432 -955q-5 -10 -7.5 -20.5t-2.5 -22.5q0 -28 21.5 -42.5t62.5 -14.5t72 21.5t51 64.5l440 969h471zM1213 1798h301l-144 -323h-301z M821 1798h301l-143 -323h-301z" unicode="ü"/>
<glyph glyph-name="yacute" d="M700 457h-401q-90 0 -141.5 39t-51.5 108q1 20 6.5 41.5t16.5 44.5l301 662h471l-227 -498q-5 -11 -6.5 -20t-1.5 -21q0 -30 20.5 -44.5t61.5 -14.5h86l272 598h471l-524 -1155q-50 -112 -125 -154.5t-236 -42.5h-876l135 297h577q52 0 84 20.5t54 65.5zM1120 1823h389 l-391 -371h-230z" unicode="ý"/>
<glyph glyph-name="thorn" horiz-adv-x="1366" unicode="þ" d="M541 551h207l89 210q4 9 5.5 16.5t1.5 15.5q0 26 -19 42.5t-51 16.5h-96zM406 254l-119 -254h-471l614 1352h475l-90 -203h395q91 0 142 -39.5t51 -108.5q0 -18 -5.5 -39.5t-17.5 -46.5l-215 -479q-48 -108 -106.5 -145t-196.5 -37h-456z"/>
<glyph glyph-name="ydieresis" d="M700 457h-401q-90 0 -141.5 39t-51.5 108q1 20 6.5 41.5t16.5 44.5l301 662h471l-227 -498q-5 -11 -6.5 -20t-1.5 -21q0 -30 20.5 -44.5t61.5 -14.5h86l272 598h471l-524 -1155q-50 -112 -125 -154.5t-236 -42.5h-876l135 297h577q52 0 84 20.5t54 65.5zM1233 1798h301 l-144 -323h-301zM841 1798h301l-143 -323h-301z" unicode="ÿ"/>
<glyph glyph-name="Cacute" horiz-adv-x="1219" unicode="Ć" d="M985 297l-45 -100q-50 -113 -122 -155t-238 -42h-488q-89 0 -140.5 39.5t-51.5 107.5q0 20 5.5 41.5t16.5 44.5l418 922q50 112 122.5 154.5t237.5 42.5h457q91 0 142 -40t51 -110q0 -17 -6 -38.5t-17 -45.5l-29 -63h-434q-51 0 -84 -21t-53 -65l-260 -582q-4 -8 -6 -16 t-2 -17q0 -25 19 -41t50 -16h457zM1032 1823h389l-391 -371h-230z"/>
<glyph glyph-name="cacute" horiz-adv-x="1219" unicode="ć" d="M985 297l-45 -100q-50 -113 -122 -155t-238 -42h-488q-89 0 -140.5 39.5t-51.5 107.5q0 20 5.5 41.5t16.5 44.5l418 922q50 112 122.5 154.5t237.5 42.5h457q91 0 142 -40t51 -110q0 -17 -6 -38.5t-17 -45.5l-29 -63h-434q-51 0 -84 -21t-53 -65l-260 -582q-4 -8 -6 -16 t-2 -17q0 -25 19 -41t50 -16h457zM1032 1823h389l-391 -371h-230z"/>
<glyph glyph-name="Ccaron" horiz-adv-x="1219" unicode="Č" d="M985 297l-45 -100q-50 -113 -122 -155t-238 -42h-488q-89 0 -140.5 39.5t-51.5 107.5q0 20 5.5 41.5t16.5 44.5l418 922q50 112 122.5 154.5t237.5 42.5h457q91 0 142 -40t51 -110q0 -17 -6 -38.5t-17 -45.5l-29 -63h-434q-51 0 -84 -21t-53 -65l-260 -582q-4 -8 -6 -16 t-2 -17q0 -25 19 -41t50 -16h457zM1110 1452h-340l-45 371h178l90 -181l258 181h199z"/>
<glyph glyph-name="ccaron" horiz-adv-x="1219" unicode="č" d="M985 297l-45 -100q-50 -113 -122 -155t-238 -42h-488q-89 0 -140.5 39.5t-51.5 107.5q0 20 5.5 41.5t16.5 44.5l418 922q50 112 122.5 154.5t237.5 42.5h457q91 0 142 -40t51 -110q0 -17 -6 -38.5t-17 -45.5l-29 -63h-434q-51 0 -84 -21t-53 -65l-260 -582q-4 -8 -6 -16 t-2 -17q0 -25 19 -41t50 -16h457zM1110 1452h-340l-45 371h178l90 -181l258 181h199z"/>
<glyph glyph-name="dcroat" horiz-adv-x="1413" unicode="đ" d="M1489 1118l-418 -921q-50 -112 -125 -154.5t-235 -42.5h-877l260 569h-135l121 267h137l232 516h870q90 0 142 -40t52 -108q0 -17 -6 -38.5t-18 -47.5zM948 965q4 8 6 16t2 16q0 26 -20 42t-53 16h-99l-98 -219h107l-123 -267h-105l-125 -272h107q55 0 84.5 19t52.5 67z "/>
<glyph glyph-name="Gbreve" d="M1348 850l-295 -653q-50 -111 -125.5 -154t-235.5 -43h-600q-89 0 -140.5 39.5t-51.5 107.5q0 20 5.5 41.5t16.5 44.5l418 922q51 111 125 154t235 43h600q90 0 141.5 -40t51.5 -110q0 -17 -6 -38.5t-17 -45.5l-28 -63h-578q-51 0 -84 -21t-53 -65l-260 -584 q-4 -8 -6 -16t-2 -17q0 -26 22 -40.5t62 -14.5q51 0 83.5 20.5t53.5 65.5l78 170h-113l135 297h568zM798 1790h174q-1 -7 -1.5 -14t-0.5 -21q0 -51 27.5 -72.5t93.5 -21.5q88 0 132 28.5t71 100.5h176q-43 -183 -135.5 -257.5t-271.5 -74.5q-137 0 -208 58t-71 170 q0 19 3 43t11 61z" unicode="Ğ"/>
<glyph glyph-name="gbreve" d="M1348 850l-295 -653q-50 -111 -125.5 -154t-235.5 -43h-600q-89 0 -140.5 39.5t-51.5 107.5q0 20 5.5 41.5t16.5 44.5l418 922q51 111 125 154t235 43h600q90 0 141.5 -40t51.5 -110q0 -17 -6 -38.5t-17 -45.5l-28 -63h-578q-51 0 -84 -21t-53 -65l-260 -584 q-4 -8 -6 -16t-2 -17q0 -26 22 -40.5t62 -14.5q51 0 83.5 20.5t53.5 65.5l78 170h-113l135 297h568zM798 1790h174q-1 -7 -1.5 -14t-0.5 -21q0 -51 27.5 -72.5t93.5 -21.5q88 0 132 28.5t71 100.5h176q-43 -183 -135.5 -257.5t-271.5 -74.5q-137 0 -208 58t-71 170 q0 19 3 43t11 61z" unicode="ğ"/>
<glyph glyph-name="Idotaccent" horiz-adv-x="717" unicode="İ" d="M901 1352l-614 -1352h-471l614 1352h471zM680 1819h337l-163 -365h-336z"/>
<glyph glyph-name="dotlessi" horiz-adv-x="717" unicode="ı" d="M901 1352l-614 -1352h-471l614 1352h471z"/>
<glyph glyph-name="Lslash" horiz-adv-x="1006" unicode="Ł" d="M920 1352l-215 -475l249 131l-151 -334l-250 -131l-113 -246h365l-135 -297h-836l191 414l-183 -101l150 336l184 99l273 604h471z"/>
<glyph glyph-name="lslash" horiz-adv-x="1006" unicode="ł" d="M920 1352l-215 -475l249 131l-151 -334l-250 -131l-113 -246h365l-135 -297h-836l191 414l-183 -101l150 336l184 99l273 604h471z"/>
<glyph glyph-name="OE" horiz-adv-x="1735" unicode="Œ" d="M700 1352h1223l-137 -297h-367l-92 -205h369l-135 -297h-369l-117 -256h369l-135 -297h-1217q-89 0 -140.5 39.5t-51.5 107.5q0 17 6 38.5t18 47.5l416 922q51 111 125 154t235 43zM630 297l350 758q-12 1 -26.5 1.5t-42.5 0.5q-83 0 -122.5 -19.5t-61.5 -68.5l-260 -578 q-4 -9 -6 -18.5t-2 -18.5q0 -30 29 -45.5t85 -15.5q10 0 21 0.5t36 3.5z"/>
<glyph glyph-name="oe" horiz-adv-x="1735" unicode="œ" d="M700 1352h1223l-137 -297h-367l-92 -205h369l-135 -297h-369l-117 -256h369l-135 -297h-1217q-89 0 -140.5 39.5t-51.5 107.5q0 17 6 38.5t18 47.5l416 922q51 111 125 154t235 43zM630 297l350 758q-12 1 -26.5 1.5t-42.5 0.5q-83 0 -122.5 -19.5t-61.5 -68.5l-260 -578 q-4 -9 -6 -18.5t-2 -18.5q0 -30 29 -45.5t85 -15.5q10 0 21 0.5t36 3.5z"/>
<glyph glyph-name="Scedilla" horiz-adv-x="1194" unicode="Ş" d="M1212 1352l-135 -297h-325q-63 0 -85 -9.5t-34 -35.5l-17 -36q-5 -10 -7.5 -18t-2.5 -14q0 -35 134 -77q53 -17 83 -27q148 -51 200 -96.5t52 -112.5q0 -25 -8.5 -60t-24.5 -69l-124 -283q-55 -124 -145.5 -170.5t-340.5 -46.5h-631l136 297h430q115 0 150.5 18t55.5 68 l31 72q7 15 10.5 29t3.5 24q0 52 -151 104q-36 12 -56 19q-169 60 -210 95t-41 89q0 25 8 57t22 64l119 266q37 83 107.5 116.5t224.5 33.5h571zM223 0h152l-43 -92h8q121 0 181.5 -43.5t60.5 -130.5q0 -116 -86 -185t-230 -69q-60 0 -134.5 15.5t-162.5 45.5l68 154 q63 -24 116 -36.5t89 -12.5q41 0 66.5 19.5t25.5 51.5q0 35 -37 50.5t-125 15.5h-41z"/>
<glyph glyph-name="scedilla" horiz-adv-x="1194" unicode="ş" d="M1212 1352l-135 -297h-325q-63 0 -85 -9.5t-34 -35.5l-17 -36q-5 -10 -7.5 -18t-2.5 -14q0 -35 134 -77q53 -17 83 -27q148 -51 200 -96.5t52 -112.5q0 -25 -8.5 -60t-24.5 -69l-124 -283q-55 -124 -145.5 -170.5t-340.5 -46.5h-631l136 297h430q115 0 150.5 18t55.5 68 l31 72q7 15 10.5 29t3.5 24q0 52 -151 104q-36 12 -56 19q-169 60 -210 95t-41 89q0 25 8 57t22 64l119 266q37 83 107.5 116.5t224.5 33.5h571zM223 0h152l-43 -92h8q121 0 181.5 -43.5t60.5 -130.5q0 -116 -86 -185t-230 -69q-60 0 -134.5 15.5t-162.5 45.5l68 154 q63 -24 116 -36.5t89 -12.5q41 0 66.5 19.5t25.5 51.5q0 35 -37 50.5t-125 15.5h-41z"/>
<glyph glyph-name="Scaron" horiz-adv-x="1194" unicode="Š" d="M1212 1352l-135 -297h-325q-63 0 -85 -9.5t-34 -35.5l-17 -36q-5 -10 -7.5 -18t-2.5 -14q0 -35 134 -77q53 -17 83 -27q148 -51 200 -96.5t52 -112.5q0 -25 -8.5 -60t-24.5 -69l-124 -283q-55 -124 -145.5 -170.5t-340.5 -46.5h-631l136 297h430q115 0 150.5 18t55.5 68 l31 72q7 15 10.5 29t3.5 24q0 52 -151 104q-36 12 -56 19q-169 60 -210 95t-41 89q0 25 8 57t22 64l119 266q37 83 107.5 116.5t224.5 33.5h571zM1098 1452h-340l-45 371h178l90 -181l258 181h199z"/>
<glyph glyph-name="scaron" horiz-adv-x="1194" unicode="š" d="M1212 1352l-135 -297h-325q-63 0 -85 -9.5t-34 -35.5l-17 -36q-5 -10 -7.5 -18t-2.5 -14q0 -35 134 -77q53 -17 83 -27q148 -51 200 -96.5t52 -112.5q0 -25 -8.5 -60t-24.5 -69l-124 -283q-55 -124 -145.5 -170.5t-340.5 -46.5h-631l136 297h430q115 0 150.5 18t55.5 68 l31 72q7 15 10.5 29t3.5 24q0 52 -151 104q-36 12 -56 19q-169 60 -210 95t-41 89q0 25 8 57t22 64l119 266q37 83 107.5 116.5t224.5 33.5h571zM1098 1452h-340l-45 371h178l90 -181l258 181h199z"/>
<glyph glyph-name="Ydieresis" d="M700 457h-401q-90 0 -141.5 39t-51.5 108q1 20 6.5 41.5t16.5 44.5l301 662h471l-227 -498q-5 -11 -6.5 -20t-1.5 -21q0 -30 20.5 -44.5t61.5 -14.5h86l272 598h471l-524 -1155q-50 -112 -125 -154.5t-236 -42.5h-876l135 297h577q52 0 84 20.5t54 65.5zM1233 1798h301 l-144 -323h-301zM841 1798h301l-143 -323h-301z" unicode="Ÿ"/>
<glyph glyph-name="Zcaron" horiz-adv-x="1139" unicode="Ž" d="M1300 1147l-866 -850h475l-135 -297h-1059l86 188l879 867h-442l135 297h1020zM1069 1452h-340l-45 371h178l90 -181l258 181h199z"/>
<glyph glyph-name="zcaron" horiz-adv-x="1139" unicode="ž" d="M1300 1147l-866 -850h475l-135 -297h-1059l86 188l879 867h-442l135 297h1020zM1069 1452h-340l-45 371h178l90 -181l258 181h199z"/>
<glyph glyph-name="florin" horiz-adv-x="1139" unicode="ƒ" d="M901 954l-63 -131h268l-119 -256h-266l-283 -624q-56 -123 -119 -162t-206 -39h-375l135 297h37q99 0 135 21t64 81l196 426h-266l117 256h266l149 330q56 122 118.5 161.5t205.5 39.5h375l-135 -297h-35q-100 0 -135.5 -21.5t-63.5 -81.5z"/>
<glyph glyph-name="circumflex" horiz-adv-x="1024" unicode="ˆ" d="M836 1823h340l45 -371h-179l-90 180l-258 -180h-200z"/>
<glyph glyph-name="caron" horiz-adv-x="1024" unicode="ˇ" d="M1012 1452h-340l-45 371h178l90 -181l258 181h199z"/>
<glyph glyph-name="breve" horiz-adv-x="1024" unicode="˘" d="M612 1790h174q-1 -7 -1.5 -14t-0.5 -21q0 -51 27.5 -72.5t93.5 -21.5q88 0 132 28.5t71 100.5h176q-43 -183 -135.5 -257.5t-271.5 -74.5q-137 0 -208 58t-71 170q0 19 3 43t11 61z"/>
<glyph glyph-name="dotaccent" horiz-adv-x="1024" unicode="˙" d="M834 1819h337l-163 -365h-336z"/>
<glyph glyph-name="ring" horiz-adv-x="1024" unicode="˚" d="M864 2025q126 0 212.5 -86t86.5 -210q0 -126 -86.5 -212.5t-212.5 -86.5q-125 0 -211 86t-86 213q0 125 85.5 210.5t211.5 85.5zM866 1817q-39 0 -64.5 -25.5t-25.5 -65.5q0 -37 26 -62.5t64 -25.5q37 0 62.5 26t25.5 62q0 39 -25.5 65t-62.5 26z"/>
<glyph glyph-name="ogonek" horiz-adv-x="1024" unicode="˛" d="M137 0h154q-63 -61 -98 -115.5t-35 -89.5q0 -26 21 -37.5t71 -11.5h106l-100 -213h-115q-112 0 -168.5 38.5t-56.5 115.5q0 70 54 146.5t167 166.5z"/>
<glyph glyph-name="tilde" horiz-adv-x="1024" unicode="˜" d="M1167 1806h144q-65 -165 -129 -234t-150 -69q-24 0 -48.5 4t-49.5 13l-76 24q-17 5 -32.5 7.5t-30.5 2.5q-30 0 -58 -18t-73 -72h-144q80 188 140 251t147 63q19 0 42.5 -4.5t61.5 -16.5l78 -24q18 -6 33.5 -8.5t30.5 -2.5q36 0 64 21t50 63z"/>
<glyph glyph-name="hungarumlaut" horiz-adv-x="1024" unicode="˝" d="M795 1823h321l-360 -371h-181zM1159 1823h340l-409 -371h-181z"/>
<glyph glyph-name="endash" horiz-adv-x="1024" unicode="–" d="M-74 561l119 256h1053l-119 -256h-1053z"/>
<glyph glyph-name="emdash" horiz-adv-x="2048" unicode="—" d="M-74 561l119 256h2077l-119 -256h-2077z"/>
<glyph glyph-name="quoteleft" horiz-adv-x="721" unicode="‘" d="M125 768l475 584h303l-266 -584h-512z"/>
<glyph glyph-name="quoteright" horiz-adv-x="721" unicode="’" d="M944 1352l-475 -584h-303l266 584h512z"/>
<glyph glyph-name="quotesinglbase" horiz-adv-x="721" unicode="‚" d="M463 297l-475 -584h-303l266 584h512z"/>
<glyph glyph-name="quotedblleft" horiz-adv-x="1337" unicode="“" d="M125 768l475 584h303l-266 -584h-512zM739 768l475 584h304l-267 -584h-512z"/>
<glyph glyph-name="quotedblright" horiz-adv-x="1337" unicode="”" d="M944 1352l-475 -584h-303l266 584h512zM1559 1352l-476 -584h-303l267 584h512z"/>
<glyph glyph-name="quotedblbase" horiz-adv-x="1337" unicode="„" d="M463 297l-475 -584h-303l266 584h512zM1077 297l-475 -584h-303l266 584h512z"/>
<glyph glyph-name="bullet" horiz-adv-x="1208" unicode="•" d="M307 762q0 123 87 209t210 86q122 0 208.5 -86.5t86.5 -208.5t-87.5 -209.5t-209.5 -87.5q-123 0 -209 87t-86 210z"/>
<glyph glyph-name="guilsinglleft" horiz-adv-x="721" unicode="‹" d="M35 588l438 477l199 -203l-305 -321l157 -365l-268 -102z"/>
<glyph glyph-name="guilsinglright" horiz-adv-x="721" unicode="›" d="M621 551l-439 -477l-198 202l305 322l-158 365l268 102z"/>
<glyph glyph-name="franc" horiz-adv-x="2419" unicode="₣" d="M674 850h344l-135 -297h-344l-252 -553h-471l614 1352h815l-135 -297h-344zM1688 836h231l53 132q3 8 4.5 15.5t1.5 15.5q0 27 -19.5 43.5t-51.5 16.5h-121zM1745 463q3 6 4.5 12.5t1.5 13.5q0 27 -20.5 45.5t-51.5 18.5h-123l-251 -553h-465l614 1352h870 q90 0 141.5 -40t51.5 -110q0 -18 -5.5 -39t-17.5 -45l-206 -459q-28 -58 -67.5 -82t-111.5 -24h-12q35 -22 52.5 -52.5t17.5 -68.5q0 -18 -6 -40.5t-17 -45.5l-157 -346h-447z"/>
<glyph glyph-name="fraction" horiz-adv-x="342" unicode="∕" d="M473 1352h305l-911 -1352h-303z"/>
<glyph glyph-name="apple" horiz-adv-x="1618" unicode="" d="M1505 403q-114 -247 -205 -342.5t-204 -95.5q-50 0 -131.5 33t-122.5 33q-45 0 -131 -33t-127 -33q-64 0 -128.5 44t-129.5 132q-102 140 -157.5 295.5t-55.5 300.5q0 219 125 356.5t323 137.5q68 0 155 -34t124 -34q34 0 121.5 35t152.5 35q110 0 198 -40t161 -124 q-102 -65 -151.5 -145.5t-49.5 -182.5q0 -113 60 -200t173 -138zM836 1216q-1 6 -1.5 14t-0.5 23q0 124 95 229.5t236 131.5q1 -10 1.5 -23t0.5 -39q0 -131 -103.5 -234.5t-203.5 -103.5h-8q-3 0 -7.5 1t-8.5 1z"/>
</font>
</defs>
</svg>
