<?xml version="1.0" encoding="UTF-8" standalone="no"?>
<!DOCTYPE svg  PUBLIC '-//W3C//DTD SVG 1.1//EN'  'http://www.w3.org/Graphics/SVG/1.1/DTD/svg11.dtd'>
<svg xmlns="http://www.w3.org/2000/svg">
<defs>
<font id="BuxomD-Regular" horiz-adv-x="1226">
<font-face underline-position="-119" font-weight="400" descent="-410" panose-1="4 2 9 5 2 11 2 7 2 4" units-per-em="2048" unicode-range="U+0020-F000" bbox="-617 -347 2351 1789" x-height="1365" underline-thickness="174" font-family="BuxomD" ascent="1638" cap-height="1365"/>
<missing-glyph horiz-adv-x="2048"/>
<glyph glyph-name=".notdef" horiz-adv-x="2048"/>
<glyph glyph-name="glyph1" horiz-adv-x="0"/>
<glyph glyph-name="glyph2" horiz-adv-x="2048"/>
<glyph glyph-name="space" horiz-adv-x="512" unicode=" "/>
<glyph glyph-name="exclam" horiz-adv-x="944" unicode="!" d="M395 278v141h133v-141h-133zM361 244h201v209h-201v-209zM394 604l-34 699h218l-48 -699h-136zM361 570h201l53 767h-291zM139 373l191 187l-40 767l-193 -192zM143 53l184 186v186l-184 -186v-186zM830 0h-718v251l58 53h-58l-44 843l219 218h348l239 -230l-44 -831h-49 l49 -53v-251z"/>
<glyph glyph-name="quotedbl" horiz-adv-x="1154" unicode='&quot;' d="M658 1031l-20 273h161l-20 -273h-121zM632 997h173l31 341h-234zM371 1031l-21 273h162l-21 -273h-120zM344 997h174l30 341h-234zM106 782l211 214l-30 323l-211 -203zM867 1365l239 -233l-34 -381h-990l-34 381l243 233h576z"/>
<glyph glyph-name="numbersign" d="M265 459l-179 -157l-35 -247l181 166zM189 700l-177 -148l-29 -205l176 144zM243 1087l-176 -143l-30 -208l178 149zM387 1329l-178 -152l-15 -102l72 56h94zM645 721h-84l23 164h84zM675 687l32 231h-153l-32 -231h153zM814 530l-35 -255h-162l36 255h-153l-36 -255 h-161l36 255h-109l22 157h109l32 231h-108l22 157h108l32 229h161l-32 -229h153l32 229h162l-32 -229h100l-22 -157h-100l-33 -231h100l-22 -157h-100zM844 496h100l32 225h-100l23 164h100l31 224h-100l32 229h-230l-32 -229h-85l33 229h-231l-32 -229h-108l-32 -224h109 l-23 -164h-109l-31 -225h108l-35 -250h230l35 250h84l-35 -250h231zM1212 1188l-21 -156l90 -76l-41 -290h-101l-4 -27l91 -73l-41 -291h-101l-39 -275h-447l-51 216l34 243h-27l-34 -241l-57 -218h-444l39 275h-112l41 291l126 100h-112l41 291l126 101l18 129l206 178h290 l-33 -234h26l33 234h297z" unicode="#"/>
<glyph glyph-name="dollar" d="M556 -13v215q-120 41 -162 120.5t-44 269.5h178v-38q0 -99 6 -133q7 -35 31 -57t55 -22q40 0 66.5 31t26.5 76q0 52 -37.5 97t-146.5 125q-103 75 -142.5 139t-39.5 157q0 157 105 238q43 33 121 57v185h92v-186q123 -31 181 -117q30 -44 41 -93t11 -137v-30h-201v73 q0 80 -11 108q-20 48 -69 48q-38 0 -61.5 -30t-23.5 -78q0 -58 29.5 -98t109.5 -92q122 -79 169 -142q59 -78 59 -180q0 -67 -27 -128.5t-72 -98.5q-52 -43 -150 -60v-219h-94zM562 602q72 -56 94 -85t22 -68q0 -31 -16.5 -52t-41.5 -21q-43 0 -53 53q-5 29 -5 126v47z M662 860q-97 62 -97 145q0 34 14 54t37 20q27 0 36.5 -24.5t9.5 -97.5v-97zM522 -47h162v225q83 16 137 61q52 43 82 111t30 143q0 161 -123 261q-44 35 -130 95h250q2 40 2 72q0 172 -73 262q-62 76 -160 104v194h-161v-194q-224 -78 -224 -320q0 -152 97 -243 q22 -21 119 -98h-212q-2 -36 -2 -63q0 -165 49 -256.5t157 -128.5v-225zM314 1169q3 3 36 38q56 60 156 99v172l-192 -104v-205zM314 826q-31 60 -31 140q0 78 31 155q-103 -67 -166 -171t-63 -206q0 -55 19 -110zM359 259q-75 110 -75 279q0 15 1 43l-178 -181 q20 -193 100 -274zM261 -219l229 174v204q-45 15 -92 54l-137 -160v-272zM230 -253v314q-140 103 -156 354l76 79q-94 100 -94 250q0 217 229 393v258l221 121h236l209 -158v-221q91 -63 159 -173q62 -100 62 -262q0 -34 -2 -80h-219l219 -183v-26q-1 -103 -19.5 -159 t-71.5 -114q-37 -42 -128 -104v-289h-721z" unicode="$"/>
<glyph glyph-name="percent" horiz-adv-x="1919" unicode="%" d="M1471 784q36 0 48 -49q9 -36 9 -165t-9 -165q-12 -49 -49 -49q-35 0 -47 49q-9 37 -9 164q0 132 9 166q12 48 48 49zM1471 819q-27 0 -49.5 -20.5t-31.5 -53.5q-10 -40 -10 -173q0 -134 10 -176q18 -74 80 -74q28 0 51 20.5t31 53.5q10 40 10 175q0 136 -10 174 q-19 73 -81 74zM1470 901q91 0 134 -76t43 -235q0 -163 -36 -257q-37 -94 -145 -94q-99 0 -138 77t-39 274q0 173 55 248q45 62 126 63zM1470 935q-97 0 -153 -76q-33 -45 -47.5 -108t-14.5 -163q0 -181 34 -269q45 -114 174 -114q114 0 166 91.5t52 294.5q0 182 -55 265 q-23 35 -65.5 56.5t-90.5 22.5zM655 264l544 1036h101l-545 -1036h-100zM599 230h177l580 1105h-178zM475 1228q35 0 47 -49q9 -36 9 -165q0 -130 -9 -166q-12 -49 -49 -49q-35 0 -46 49q-9 38 -9 165q0 132 9 166q12 48 48 49zM475 1262q-28 0 -50 -20.5t-31 -53.5 q-10 -40 -10 -173q0 -134 10 -176q18 -74 79 -74q28 0 51 20.5t31 53.5q10 40 10 175t-10 174q-19 73 -80 74zM477 1342q88 0 131 -76.5t43 -232.5q0 -168 -36 -258q-17 -43 -58 -69t-92 -26q-95 0 -133.5 78t-38.5 271q0 178 55 250q48 62 129 63zM477 1376 q-43 0 -86.5 -21t-69.5 -55q-62 -81 -62 -272q0 -180 34 -268q44 -114 172 -114q60 0 110 31.5t71 83.5q39 96 39 272q0 181 -55 264q-22 35 -64.5 56.5t-88.5 22.5zM1290 242q-67 107 -67 320q0 138 28 233l-83 -94q-59 -67 -77 -112.5t-18 -125.5q0 -228 67 -326zM397 80 l166 150l551 1050l-139 -97zM296 683q-39 69 -54 140.5t-15 186.5q0 154 28 226l-92 -103q-44 -50 -64 -96.5t-20 -100.5q0 -115 18 -234q11 -69 47 -125zM318 0l200 381q-29 -1 -41 -1q-300 0 -390 243q-39 105 -39 313q0 65 23.5 116t81.5 114l145 159q78 85 179 85 q127 0 237 -132l80 -95q43 -53 55.5 -74t19.5 -59l81 154l228 161h209l210 -199l-104 -201q65 -11 112 -40t108 -97l60 -67q46 -51 61 -73t24 -52q16 -53 16 -145q0 -230 -70 -372q-45 -90 -117 -132q-88 -51 -225 -51q-264 0 -370 220l-79 -156h-695z"/>
<glyph glyph-name="ampersand" horiz-adv-x="1272" unicode="&amp;" d="M697 595q-28 -142 -87 -142q-23 0 -35 24.5t-12 54.5q0 7 1 15l1 13v37q0 49 21 49q5 0 14 -7q10 -7 63 -30q24 -10 34 -14zM737 618q-54 18 -115 47q-29 16 -39 16q-21 0 -36.5 -24.5t-15.5 -58.5v-37l-1 -15q-1 -8 -1 -16q0 -44 21.5 -77t59.5 -33q90 0 127 198z M788 901h184q-6 -103 -22 -180h44q-12 -73 -38 -149l-36 9q-2 -4 -18 -46q-52 -138 -97 -185q-79 -83 -195 -83q-142 0 -221 115q-30 44 -39 84t-9 130q0 103 10.5 130.5t71.5 84.5q-44 42 -61 87t-17 115q0 97 41 173q34 61 99 99t138 38q62 0 123 -29t96 -76 q44 -60 44 -130v-15v-3v-45h-187v59q0 44 -20.5 69t-56.5 25q-37 0 -60 -25.5t-26 -68.5l-3 -40v-14q0 -104 53 -153q72 -68 194 -92q8 57 8 116zM752 935q3 -36 3 -59q0 -24 -4 -50q-80 18 -141 75q-43 39 -43 129v12l3 39q4 63 52 63q43 0 43 -61v-92h255v78v4q1 8 1 16 q0 30 -13.5 72.5t-38.5 77.5q-39 53 -107 85.5t-139 32.5q-115 0 -204 -78q-108 -94 -108 -266q0 -131 64 -201q-47 -45 -58 -79t-11 -136q0 -96 10.5 -141t43.5 -94q89 -130 249 -130q131 0 220 94q49 51 112 215l36 -9q53 122 53 213v10h-39q15 75 15 152q0 6 -2 28h-252z M289 906q-11 54 -11 102q0 75 27 165l-80 -72q-100 -91 -122 -149q-10 -25 -17.5 -77t-7.5 -76q0 -9 1 -15v-5v-74zM314 375q-24 47 -32 93.5t-8 139.5q0 74 7 114l-204 -202q14 -174 95 -279zM1148 375q-39 -109 -100 -186q-71 -87 -171 -141q-126 -68 -268 -68 q-212 0 -374 140q-186 161 -187 415l66 67q-7 -1 -10 -1q-56 0 -56 93v93q0 121 26 179.5t122 148.5l161 153q129 122 266 122q146 0 266 -121l167 -169q67 -68 91 -141q24 -71 24 -134q0 -19 -6 -45l50 -50q-12 -66 -29 -120l45 -44q-19 -127 -66 -198z"/>
<glyph glyph-name="quotesingle" horiz-adv-x="866" unicode="&apos;" d="M371 1031l-21 273h162l-21 -273h-120zM344 997h174l30 341h-234zM106 782l211 214l-30 323l-211 -203zM82 751l-34 381l243 233h288l240 -233l-34 -381h-703z"/>
<glyph glyph-name="parenleft" horiz-adv-x="958" unicode="(" d="M525 40q-103 191 -140 296q-63 175 -63 336q0 157 52.5 315.5t191.5 421.5h97q-115 -212 -161 -340q-73 -204 -73 -383q0 -134 36.5 -266.5t141.5 -379.5h-82zM505 6h155q-39 71 -90 206q-59 156 -83 260t-24 201q0 176 59.5 357.5t192.5 412.5h-172q-94 -184 -121 -241 q-135 -279 -135 -540q0 -109 28.5 -220.5t94.5 -256.5q48 -107 95 -179zM330 -129l134 135q-42 72 -86 168q-67 147 -96 262.5t-29 234.5q0 161 59 341.5t185 406.5l-213 -120q-96 -141 -148 -313t-52 -348q0 -282 130 -573q56 -125 116 -194zM316 -177q-268 363 -268 811 q0 141 27 261t89 258q44 98 93 169l265 153h209l201 -176q-194 -295 -194 -587q0 -121 26 -258.5t88 -352.5q50 -171 93 -278h-629z"/>
<glyph glyph-name="parenright" horiz-adv-x="959" unicode=")" d="M436 46h-82q88 193 124 309q55 179 55 334q0 160 -52.5 324t-178.5 394h93q123 -230 169 -356q75 -206 75 -374q0 -138 -43 -272t-160 -359zM456 12q39 60 91 178q69 157 97.5 264.5t28.5 213.5q0 255 -134 534q-36 75 -121 240h-172q69 -109 126 -239q126 -287 126 -516 q0 -140 -55 -328.5t-142 -346.5h155zM69 -117l204 145q87 160 139.5 338t52.5 311q0 334 -243 744l-152 -139q186 -292 186 -571q0 -162 -41 -344t-146 -484zM14 -177q88 219 148.5 472t60.5 405q0 154 -41 278.5t-153 306.5l202 190h211l264 -151q205 -320 205 -673 q0 -221 -71.5 -444.5t-192.5 -383.5h-633z"/>
<glyph glyph-name="asterisk" d="M359 1204l-201 -149l-38 -115l209 158zM509 1322l-95 -78l95 -25v103zM658 1298v-166l154 46l23 -76l-144 -49l89 -138l-75 -46l-91 136l-101 -137l-67 48l96 134l-148 46l25 86l158 -48v164h81zM690 1333h-149v-156l-144 42l-44 -142l133 -44l-86 -122l124 -93l89 124 l90 -125l124 91l-89 132l145 44l-50 141l-143 -44v152zM726 1365l380 -282l62 -203l-121 -46l84 -119l-179 -126l-344 126l-321 -140l-177 131l78 112l-130 44l64 202l386 301h218z" unicode="*"/>
<glyph glyph-name="plus" d="M451 931v151l-153 -151h153zM449 628l-159 -153v-207l159 158v202zM59 690v-213l184 175v221zM517 713h-205v150h205v192h150v-192h206v-150h-206v-193h-150v193zM483 678v-192h219v192h206v219h-206v192h-219v-192h-205v-219h205zM258 426h-233v273l424 424h287 l465 -424v-273h-232v-199h-711v199z" unicode="+"/>
<glyph glyph-name="comma" horiz-adv-x="820" unicode="," d="M340 225v125h152v-147l-69 -82h-35l45 104h-93zM306 191h75l-45 -104h103l87 104v193h-220v-193zM157 -51l128 100l39 92l-115 -103zM97 38l178 152v191l-178 -154v-189zM68 0v243l207 177h274l203 -209v-211h-97l69 -112h-627l50 112h-79z"/>
<glyph glyph-name="hyphen" horiz-adv-x="1009" unicode="-" d="M293 696v169h398v-169h-398zM259 662h466v238h-466v-238zM31 454l193 194v236l-193 -191v-239zM0 400v309l224 224h521l264 -224v-309h-1009z"/>
<glyph glyph-name="period" horiz-adv-x="819" unicode="." d="M333 233v142h153v-142h-153zM298 198h222v211h-222v-211zM97 32l169 147v203l-169 -158v-192zM68 0v235l215 206h257l211 -217v-224h-683z"/>
<glyph glyph-name="slash" horiz-adv-x="1411" unicode="/" d="M337 97l676 1315h102l-673 -1315h-105zM281 64h182l708 1383h-179zM72 -100l170 158l690 1334l-140 -101zM691 -177h-691l767 1488l226 164h209l209 -184z"/>
<glyph glyph-name="zero" d="M666 1079v-572q0 -64 -47 -64q-48 0 -48 64v572q0 63 48 63q47 0 47 -63zM700 507v572q0 43 -15 64q-25 34 -66 34q-38 0 -60 -26t-22 -72v-572q0 -46 22 -71.5t60 -25.5q39 0 60 25.5t21 71.5zM349 566v465q0 95 38 158q38 62 103 98.5t137 36.5q133 0 214 -102 q45 -57 45 -143v-513q0 -107 -41 -175q-35 -60 -95.5 -94t-129.5 -34q-65 0 -126 31t-98 83q-30 41 -38.5 75.5t-8.5 113.5zM919 566v513q0 98 -52 164q-92 115 -241 115q-118 0 -209 -81q-102 -90 -102 -246v-465q0 -85 10 -124t43 -85q42 -59 110 -94t141 -35 q79 0 146.5 38.5t108.5 106.5q45 76 45 193zM347 330q-38 53 -50.5 99t-12.5 134v474q1 84 27 136l-109 -109q-88 -87 -105 -124t-17 -140v-210q0 -155 26 -243.5t92 -159.5zM48 590v210q0 108 20.5 152.5t110.5 131.5l190 187q119 118 260 118q137 0 242 -106l175 -174 q64 -63 79 -82.5t31 -58.5q15 -36 18.5 -63.5t3.5 -104.5v-263q0 -169 -79 -302q-63 -105 -168 -175q-146 -97 -318 -97q-214 0 -383 145q-144 123 -173 314q-9 58 -9 168z" unicode="0"/>
<glyph glyph-name="one" d="M536 280v863h-69v96l69 65h192v-1024h-192zM502 246h259v1092h-239l-89 -84v-145h69v-863zM192 911l213 192v127l-213 -197v-122zM254 48l218 200v812l-218 -200v-812zM225 0v860h-60v185l344 320h300l224 -230v-1135h-808z" unicode="1"/>
<glyph glyph-name="two" d="M895 444v-164h-550v56q0 105 10.5 158.5t42.5 111.5t63 96.5t135 149.5q66 70 89 115t23 102q0 112 -80 112q-85 0 -85 -120v-103h-198v51q0 114 43 184q39 63 104.5 99.5t140.5 36.5q132 0 211 -100q51 -64 51 -139v-69q0 -73 -25 -119t-128 -161q-100 -112 -127.5 -158 t-27.5 -100q0 -13 1 -39h307zM929 478h-308v12q0 41 26.5 82t119.5 146q107 120 134.5 171.5t27.5 131.5v69q0 87 -58 160q-89 112 -239 112q-89 0 -165.5 -45t-117.5 -122q-39 -73 -39 -186v-85h266v137q0 86 52 86q25 0 35.5 -17t10.5 -57q0 -65 -25 -103t-167 -188 q-99 -105 -135.5 -199.5t-36.5 -246.5v-90h619v232zM280 912v97q1 108 33 170l-84 -77q-99 -93 -126.5 -146t-27.5 -153v-91zM280 221v114q0 133 18 204t71 147q59 83 185 215q-154 -79 -297 -255q-163 -201 -163 -510q0 -40 5 -87zM929 499l243 -245v-254h-1097 q-8 73 -8 131q0 336 186 555h-207v117q0 109 28 164t137 160l171 163q109 104 247 104q146 0 245 -100l190 -192q69 -71 93 -119.5t24 -120.5q0 -77 -30 -126.5t-122 -121.5q-48 -38 -67.5 -60.5t-32.5 -54.5z" unicode="2"/>
<glyph glyph-name="three" d="M502 722v162h95q56 0 78 21.5t22 76.5v108q0 41 -21.5 66t-58.5 25t-60.5 -25.5t-23.5 -65.5v-63h-192v20q0 76 39 143q37 63 103.5 100.5t140.5 37.5q126 0 207 -97q56 -66 56 -141v-190q0 -24 -10.5 -40.5t-44.5 -46.5q33 -21 44 -35.5t11 -37.5v-175q0 -62 -7 -94 t-30 -72q-78 -136 -238 -136q-70 0 -132.5 33t-97.5 89q-41 65 -41 185h192v-47q0 -61 20 -84q24 -26 60 -26q84 0 84 110v117q2 82 -84 82h-8h-103zM467 688h139h4q53 0 52 -48v-118q0 -75 -49 -75q-25 0 -35 16.5t-10 58.5v82h-261v-24q0 -82 9.5 -126t36.5 -87 q39 -64 109 -101.5t150 -37.5q84 0 155 40.5t112 113.5q42 72 42 182v176q-1 50 -37 76q37 34 37 84v189q0 88 -64 164q-92 109 -233 109q-89 0 -165.5 -46t-116.5 -125q-35 -68 -35 -164v-35h261v97q0 58 49 58q45 0 45 -58v-108q0 -40 -11.5 -51.5t-52.5 -11.5h-131v-230z M273 983v46q0 68 20 135l-105 -102q-73 -71 -95 -119t-22 -134v-20zM257 611l33 30h98l46 50v242l-177 -168v-154zM341 333q-67 80 -67 254l-184 -181q14 -57 45.5 -118t63.5 -93zM225 583v182h-184v44q0 98 22.5 148t103.5 129l197 193q116 113 256 113q142 0 244 -99 l181 -177q57 -54 71.5 -71.5t31.5 -51.5q31 -65 31 -158v-122v-14q0 -119 -85 -134q70 -46 70 -124q0 -112 -100 -243q-67 -88 -158 -143q-137 -83 -295 -83q-181 0 -332 104q-158 109 -226 336z" unicode="3"/>
<glyph glyph-name="four" d="M621 737h-75l75 123v-123zM655 703v279l-170 -279h170zM648 280v264h-350v159l356 601h196v-601h82v-159h-82v-264h-202zM615 246h270v265h82v226h-82v601h-249l-372 -625v-202h351v-265zM54 538l150 135l361 610l-149 -140zM30 292l203 185v178l-203 -178v-185zM387 45 l197 178v254l-197 -185v-247zM356 0v259h-356v239l391 663l226 204h293l231 -235v-575l78 -78v-218h-78v-259h-785z" unicode="4"/>
<glyph glyph-name="five" d="M832 1304v-153h-302v-224q49 41 80.5 55.5t70.5 14.5q94 0 146 -67.5t52 -188.5v-127q0 -83 -8 -126t-32 -85q-34 -60 -96.5 -95.5t-132.5 -35.5q-66 0 -127 31.5t-97 85.5q-30 43 -38.5 83.5t-8.5 141.5v34h191v-116q0 -110 80 -110q79 0 79 110v221q0 43 -21.5 69 t-56.5 26q-62 0 -81 -73h-191v529h493zM866 1338h-562v-598h260v12q0 27 13 44t34 17q45 0 45 -61v-220q0 -76 -45 -76q-26 0 -36.5 17t-10.5 59v150h-260v-68q0 -107 9.5 -151.5t43.5 -93.5q41 -60 109.5 -95.5t143.5 -35.5q80 0 149.5 40t108.5 107q26 46 35.5 93.5 t9.5 135.5v126q0 123 -49 195q-64 96 -182 96q-68 0 -118 -37v123h302v221zM279 481l-165 -176q22 -55 74 -109l153 143q-57 68 -62 142zM108 555l164 165v601l-164 -166v-600zM78 518v653l193 194h605l211 -182v-301h-177q8 -8 16 -17q103 -107 129 -137t47 -66 q53 -94 53 -184q0 -187 -150 -337q-85 -86 -202 -130q-99 -38 -205 -38q-218 0 -392 162q-84 79 -128 178l196 205h-196z" unicode="5"/>
<glyph glyph-name="six" d="M573 519v177q0 27 13 44t34 17q46 0 46 -61v-177q0 -72 -46 -72q-25 0 -36 17t-11 55zM700 519v177q0 41 -16 62q-26 33 -64 33q-36 0 -59 -27t-23 -68v-177q0 -52 17 -74q26 -32 64 -32t59.5 28t21.5 78zM538 892q94 47 153 47q98 0 160 -68q40 -45 40 -132v-151 q0 -119 -42 -191q-30 -50 -82 -85q-71 -47 -151 -47q-123 0 -205 96q-60 72 -60 179l1 78v415q0 92 41 158q38 61 102.5 96.5t135.5 35.5q63 0 122 -28.5t96 -75.5q41 -54 41 -155v-11h-181v23q0 102 -84 102q-40 0 -63.5 -24.5t-23.5 -66.5v-195zM573 945v142q0 57 52 57 q51 0 51 -68v-57h249q0 18 -1 23q-1 87 -9.5 123t-37.5 74q-42 54 -108 86t-137 32q-81 0 -153 -40t-115 -108q-46 -74 -46 -176v-414q0 -106 4 -138.5t23 -74.5q39 -89 130 -139q67 -36 142 -36q79 0 151 41t111 108q46 79 46 208v152q0 99 -48 153q-71 79 -188 79 q-57 0 -116 -27zM346 336q-37 57 -47 106t-10 170v418q0 58 5.5 84.5t25.5 67.5l-99 -94q-93 -90 -116 -140t-23 -166v-204q0 -141 25.5 -222t92.5 -159zM1009 757q54 -50 77 -74q83 -91 83 -216q0 -179 -145 -329q-88 -92 -210 -137q-96 -36 -198 -36q-194 0 -348 119 q-165 127 -204 320q-11 56 -11 174v204q0 124 25 180t123 149l195 185q99 94 239 94q137 0 228 -89l199 -193q119 -116 119 -287q0 -24 -2 -64h-170z" unicode="6"/>
<glyph glyph-name="seven" d="M377 1155v149h469v-175q-55 -110 -88 -326t-43 -523h-220q41 527 201 875h-319zM343 1121h300q-73 -163 -125 -410.5t-58 -464.5h293q-4 52 -4 66q0 98 15.5 261.5t34.5 266.5q36 193 81 281v217h-537v-217zM429 236q2 184 46 411t114 417l-114 -102 q-91 -148 -157.5 -403t-75.5 -492zM135 962l179 158v184l-179 -167v-175zM104 900v246l233 219h555l223 -219v-246q-59 -130 -94.5 -368t-39.5 -532h-779q7 225 62 466t144 434h-304z" unicode="7"/>
<glyph glyph-name="eight" d="M568 514v122q0 26 13.5 42t36.5 16q47 0 47 -58v-132q0 -63 -46 -63q-51 0 -51 73zM699 504v132q0 41 -22 66.5t-59 25.5t-60.5 -25.5t-23.5 -66.5v-122q0 -107 85 -107q80 0 80 97zM568 969v115q0 26 13.5 42t36.5 16q47 0 47 -58v-126q0 -62 -46 -62q-51 0 -51 73z M698 958v126q0 41 -22 66.5t-58 25.5q-37 0 -60.5 -26t-23.5 -66v-115q0 -107 84 -107q38 0 59 25.5t21 70.5zM440 793q-57 38 -75 72t-18 104v52q0 67 12.5 108t45.5 82q89 111 225 111q134 0 218 -116q36 -49 36 -122v-126q0 -67 -17 -95.5t-85 -76.5q63 -30 82.5 -57 t19.5 -84v-82q0 -67 -10 -105.5t-37 -78.5q-79 -117 -222 -117q-76 0 -139.5 37.5t-97.5 102.5q-19 37 -25 67t-6 94v53q0 61 17.5 94t75.5 83zM386 790q-73 -64 -73 -174v-53q0 -68 6.5 -102.5t28.5 -74.5q36 -68 101 -110q75 -48 167 -48q162 0 250 132q30 44 41.5 87.5 t11.5 115.5v82q1 106 -74 145q44 34 59 68t15 100v125q0 93 -54 158q-95 115 -234 115q-78 0 -148 -37t-116 -102q-31 -43 -42.5 -85.5t-11.5 -110.5v-52q0 -128 73 -179zM300 854q-17 40 -17 119v53q0 68 22 140l-82 -80q-89 -88 -116 -142t-27 -145v-93q1 -40 5 -54z M347 332q-64 77 -64 243v15v60l-202 -194q17 -165 121 -272zM140 551q-58 29 -73.5 60.5t-15.5 120.5v67q0 100 29 157t131 157l163 158q119 116 257 116q134 0 246 -113l161 -163q85 -86 111 -145t26 -167v-135q0 -45 -17.5 -64.5t-61.5 -22.5q77 -52 77 -121 q0 -48 -26 -117t-67 -128q-66 -97 -163 -159q-140 -90 -303 -90q-207 0 -375 140q-172 143 -188 365z" unicode="8"/>
<glyph glyph-name="nine" d="M570 904v168q0 73 49 73q45 0 45 -73v-182q0 -81 -46 -81q-28 0 -38 20.5t-10 74.5zM698 890v182q0 107 -78 107q-40 0 -62 -28.5t-22 -78.5v-168q0 -62 13 -86q22 -43 69 -43q80 0 80 115zM342 514h194q0 -110 81 -110q43 0 62 30.5t19 100.5v119q-98 -39 -146 -39 q-89 0 -149 59.5t-60 149.5v234q0 80 47 145q42 57 105 90.5t130 33.5q60 0 118.5 -27.5t97.5 -75.5q27 -32 37 -65t10 -87v-468q0 -84 -8.5 -127.5t-32.5 -85.5q-30 -53 -79 -87q-69 -47 -156 -47q-112 0 -190.5 75t-79.5 182zM309 548q-1 -19 -1 -27q0 -121 85 -208 q88 -89 218 -89q85 0 155.5 40t110.5 110q26 46 35.5 94.5t9.5 135.5v468q0 108 -54 174q-44 54 -109.5 85t-133.5 31q-127 0 -221.5 -90.5t-94.5 -213.5v-235q0 -84 46 -145q73 -98 197 -98q49 0 112 24v-69q0 -55 -10 -76t-38 -21q-25 0 -35.5 18.5t-10.5 65.5v26h-261z M303 704q-23 39 -24 125v229q0 64 20 114l-115 -112q-72 -71 -92 -119t-20 -152v-188q1 -86 15 -109zM336 328q-59 91 -60 196l-173 -171q28 -91 88 -162zM130 424q-50 6 -69.5 41t-19.5 117v207q0 113 23 166.5t106 133.5l218 208q101 97 235 97q152 0 270 -122l153 -157 q79 -81 105.5 -138.5t26.5 -147.5v-284q0 -170 -68 -293q-71 -127 -196 -205q-140 -88 -304 -88q-183 0 -332 107q-85 61 -139.5 139.5t-66.5 156.5z" unicode="9"/>
<glyph glyph-name="colon" horiz-adv-x="819" unicode=":" d="M97 615l169 148v203l-169 -158v-193zM333 816v142h153v-142h-153zM299 781h221v211h-221v-211zM68 583v235l216 206h256l211 -217v-224h-683zM97 32l169 148v203l-169 -158v-193zM333 233v142h153v-142h-153zM299 198h221v211h-221v-211zM68 0v235l216 206h256l211 -217 v-224h-683z"/>
<glyph glyph-name="semicolon" horiz-adv-x="820" unicode=";" d="M97 615l169 148v203l-169 -158v-193zM333 816v142h153v-142h-153zM299 781h221v211h-221v-211zM68 583v235l216 206h256l211 -217v-224h-683zM157 -51l128 100l39 92l-115 -103zM97 38l178 153v191l-178 -154v-190zM340 226v125h152v-147l-69 -83h-35l45 105h-93z M306 191h75l-45 -104h103l87 104v194h-220v-194zM68 0v244l207 177h274l203 -210v-211h-97l69 -112h-627l51 112h-80z"/>
<glyph glyph-name="less" d="M1056 1203v-190l-684 -321l684 -321v-189l-887 429v163z" unicode="&lt;"/>
<glyph glyph-name="equal" d="M319 568v150h562v-150h-562zM285 534h630v218h-630v-218zM57 325l193 195v218l-193 -192v-221zM319 857v150h562v-150h-562zM285 823h630v219h-630v-219zM57 615l193 194v219l-193 -193v-220zM26 272v579l224 224h685l264 -224v-579h-1173z" unicode="="/>
<glyph glyph-name="greater" d="M170 181v190l684 321l-684 321v189l887 -429v-163z" unicode="&gt;"/>
<glyph glyph-name="question" horiz-adv-x="1196" unicode="?" d="M454 567q7 88 32.5 142t92.5 119q87 85 110 126t23 112q0 108 -80 108q-88 0 -88 -124v-94h-195v78q0 83 35 147q32 57 93 97q75 48 157 48q109 0 189 -76.5t80 -181.5v-44q0 -85 -23.5 -131.5t-106.5 -125.5q-73 -70 -91 -100t-26 -100h-202zM418 533h272v21 q0 57 18 88.5t88 99.5q88 84 114.5 136.5t26.5 144.5v45q0 95 -60 172q-44 56 -109 88t-135 32q-125 0 -222 -91q-96 -90 -96 -236v-112h263v128q0 49 12 69.5t40 20.5q48 0 48 -75q0 -61 -21 -97.5t-102 -114.5q-77 -75 -104.5 -138.5t-32.5 -180.5zM452 304v160h203v-160 h-203zM418 270h271v229h-271v-229zM281 911v133q1 81 37 141l-92 -88q-70 -66 -90.5 -91t-36.5 -61q-29 -63 -29 -194v-42zM386 533q1 171 95 278q-112 -45 -183.5 -165.5t-71.5 -262.5zM226 77l160 162v210l-160 -155v-217zM196 0v297l42 43h-42v9q0 101 23 186t69 148 h-247v68q0 93 5 130t23 77q33 70 127 157l190 175q111 102 245 102q149 0 259 -112l200 -204q98 -100 98 -217q0 -85 -37 -142t-125 -110q-67 -40 -89.5 -71.5t-22.5 -86.5v-109h-50l50 -46v-294h-718z"/>
<glyph glyph-name="at" horiz-adv-x="1722" unicode="@" d="M357 1081l-131 -135q-144 -148 -144 -348t170 -377q58 -59 123 -98l160 170q-81 53 -129 121q-124 172 -124 380q0 131 75 287zM857 894q11 0 11 -23q0 -49 -13 -111t-23 -62t-10 29q0 51 12.5 109.5t22.5 57.5zM862 934q-30 0 -51.5 -57t-21.5 -136q0 -83 39 -83 q30 0 50 56t20 141q0 78 -36 79zM916 1052h145l-39 -313q-3 -23 -3 -33q0 -38 51 -38q69 0 129 59q58 57 58 159q0 136 -106 237q-109 104 -261 104q-168 0 -292 -119q-131 -126 -131 -314q0 -196 139 -324q123 -113 291 -113q150 0 287 102h147q-90 -101 -165 -143 q-129 -71 -273 -71q-211 0 -368 143q-175 162 -175 404q0 233 164 393q74 72 171 112q100 42 205 42q93 0 182.5 -34t155.5 -94q146 -133 146 -331q0 -132 -82 -226q-114 -132 -311 -132q-51 0 -78 16.5t-42 56.5q-47 -68 -103 -68q-53 0 -83 50.5t-30 140.5q0 148 50.5 246 t126.5 98q61 0 87 -74zM893 1086l-2 -20q-34 30 -74 30q-46 0 -87.5 -32t-67.5 -88q-52 -109 -52 -260q0 -91 30 -147q40 -76 119 -76q59 0 97 54q15 -30 43 -42t86 -12q177 0 294 100q129 110 129 288q0 138 -74 256q-78 124 -218 187q-109 49 -227 49q-157 0 -296 -84 q-144 -87 -218 -239q-60 -121 -60 -258q0 -257 187 -428q166 -153 391 -153q173 0 321 95q77 49 193 188h-235q-133 -103 -275 -103q-155 0 -269 104q-128 118 -128 299q0 173 121 289q114 110 269 110q138 0 237 -95q96 -90 96 -217q0 -91 -50 -139q-47 -46 -96 -46 q-22 0 -22 21q0 4 3 38l41 331h-206zM1582 393l54 -48q-79 -152 -191 -229q-106 -72 -239 -111q-159 -48 -323 -48q-339 0 -584 171q-150 105 -216 276q-35 92 -35 187q0 230 200 425l159 154q118 115 204 159q136 70 283 70q129 0 232.5 -46.5t201.5 -148.5l184 -191 q62 -64 80 -87t39 -66q43 -91 43 -198q0 -77 -20 -136t-72 -133z"/>
<glyph glyph-name="A" horiz-adv-x="1294" unicode="A" d="M614 758l10 97l17 -97h-27zM576 723h105l-57 333zM516 1304h221l211 -1024h-198l-43 269h-151l-34 -269h-189zM487 1338l-195 -1092h260l34 269h92l43 -269h269l-225 1092h-278zM29 34l233 205l196 1091l-238 -226zM-7 0l201 1121l260 244h329l286 -226l231 -1139h-568 l-41 239h-107l-25 -239h-566z"/>
<glyph glyph-name="B" horiz-adv-x="1278" unicode="B" d="M606 468v208h34q32 0 40.5 -8.5t8.5 -39.5v-111q0 -32 -8.5 -40.5t-40.5 -8.5h-34zM572 434h43q64 0 86 18.5t22 73.5v96q0 52 -20 70t-79 18h-52v-276zM606 908v205h34q32 0 40.5 -8.5t8.5 -39.5v-108q0 -32 -8.5 -40.5t-40.5 -8.5h-34zM572 873h43q64 0 86 18.5 t22 73.5v93q0 53 -20 71t-79 18h-52v-274zM375 280v1024h243q21 1 40 1q263 0 263 -197v-12v-131q0 -83 -13.5 -112t-59.5 -46q42 -19 57.5 -48t15.5 -86v-169q0 -76 -10 -109t-43 -64q-35 -33 -76.5 -42t-163.5 -9h-253zM340 246h288q99 0 129.5 2.5t60.5 13.5 q75 28 106 83t31 159v169q1 105 -49 132q49 22 49 160v131q0 69 -18 110.5t-63 75.5q-46 35 -94.5 45.5t-162.5 10.5h-277v-1092zM96 36l214 203v1087l-214 -202v-1088zM68 0v1138l242 227h313q92 0 131 -5t82 -23q94 -39 195 -132.5t153 -188.5q46 -86 46 -179 q0 -107 -10.5 -147.5t-43.5 -58.5q35 -34 44.5 -81.5t9.5 -187.5q0 -197 -89 -282q-49 -46 -112 -63t-183 -17h-778z"/>
<glyph glyph-name="C" horiz-adv-x="1223" unicode="C" d="M699 677h188v-80q0 -81 -6.5 -118.5t-29.5 -77.5q-31 -58 -86 -95q-69 -45 -151 -45q-74 0 -137.5 36.5t-96.5 97.5q-22 40 -28 75.5t-6 126.5v391q0 154 61 229q86 105 222 105q133 0 213 -102q27 -35 36 -65t9 -84v-149h-188v160q0 94 -79 94q-37 0 -59.5 -25.5 t-22.5 -68.5v-559q0 -112 81 -112q80 0 80 112v154zM665 711v-188q0 -77 -46 -77q-26 0 -36.5 17.5t-10.5 59.5v559q0 59 48 59q45 0 45 -59v-194h256v183q0 60 -11 95.5t-41 74.5q-90 115 -240 115q-78 0 -148 -36t-114 -98q-56 -80 -56 -234v-391q0 -96 6.5 -134.5 t31.5 -83.5q32 -59 91 -99q79 -52 174 -52q126 0 215 87q53 52 72.5 111.5t19.5 170.5v114h-256zM199 193l143 139q-36 50 -48 103t-12 162v383q0 83 7.5 124t29.5 84l-110 -110q-81 -81 -106.5 -131.5t-25.5 -132.5v-236q0 -137 25 -216t97 -169zM952 707l223 -227 q-5 -115 -67 -223q-67 -116 -173 -189q-146 -101 -321 -101q-201 0 -361 129q-151 123 -191 302q-14 61 -14 180v236q0 89 28 145t115 140l173 168q121 118 264 118q142 0 264 -121l145 -143q56 -56 75 -80.5t36 -64.5q27 -65 27 -162v-107h-223z"/>
<glyph glyph-name="D" horiz-adv-x="1269" unicode="D" d="M98 41l214 197v1089l-214 -201v-1085zM625 500h26v344h-26v-344zM594 469v642h31h3q55 0 55 -61v-6v-514q0 -37 -9.5 -49t-38.5 -12h-41zM560 435h75h2q81 0 81 95v514q0 51 -23 76t-70 25h-65v-710zM378 280v1024h263h21q258 0 258 -199q0 -13 -1 -26v-535 q0 -156 -44.5 -210t-172.5 -54h-324zM344 246h357q90 0 135.5 18t75.5 65q23 37 32 83t9 132v535q0 85 -17.5 128t-67.5 78q-42 30 -91 41.5t-137 11.5h-296v-1092zM68 0v1139l244 226h314q117 0 171.5 -14t132.5 -63q150 -95 220.5 -213t70.5 -274v-379q1 -22 1 -42 q0 -380 -360 -380h-13h-781z"/>
<glyph glyph-name="E" horiz-adv-x="1189" unicode="E" d="M373 280v1024h481v-155h-280v-271h280v-162h-280v-292h280v-144h-481zM339 246h549v212h-280v223h280v231h-280v203h280v223h-549v-1092zM97 27l213 201v1088l-213 -219v-1070zM68 0v1111l247 254h593l233 -234v-224h-233l233 -226v-225h-233l233 -228v-228h-1073z"/>
<glyph glyph-name="F" horiz-adv-x="1147" unicode="F" d="M369 280v1024h430v-163h-240v-302h240v-177h-240v-382h-190zM334 246h258v381h241v246h-241v233h241v232h-499v-1092zM98 39l206 189v1099l-206 -195v-1093zM68 0v1143l236 222h567l228 -250v-274h-200l200 -213v-271h-228v-357h-803z"/>
<glyph glyph-name="G" d="M887 871v-595h-162q-23 1 -27 35q-36 -43 -92 -43q-72 0 -138 41t-98 106q-16 34 -20.5 62t-4.5 101v451q0 125 63 198q85 100 211 100q71 0 133 -33t95 -88q40 -65 40 -156v-79h-191v105q0 105 -79 105q-82 0 -82 -105v-556q0 -101 79 -101q38 0 60 27t22 74v213h-130 v138h321zM569 699h93v-179q0 -67 -48 -67q-45 0 -45 67v179zM921 905h-352v171q0 71 48 71q45 0 45 -71v-139h259v113q0 112 -56 191q-38 54 -105.5 87t-139.5 33q-74 0 -141 -34.5t-112 -95.5q-56 -76 -56 -202v-451q0 -82 6.5 -116.5t28.5 -74.5q40 -69 111 -111t149 -42 q46 0 80 21q11 -13 27 -13h208v663zM343 338q-39 51 -50.5 96t-11.5 149v446q1 94 28 153l-100 -99q-92 -91 -112.5 -136.5t-20.5 -163.5v-219q0 -121 26.5 -201.5t94.5 -164.5zM1172 0h-397l-33 69q-78 -86 -188 -86q-82 0 -169.5 38t-160.5 105q-124 115 -161 271 q-15 64 -15 186v200q0 125 22.5 177.5t112.5 140.5l201 194q100 97 236 97q148 0 278 -134l159 -162q47 -49 61 -67.5t29 -54.5q16 -38 20.5 -66t4.5 -100v-808z" unicode="G"/>
<glyph glyph-name="H" horiz-adv-x="1294" unicode="H" d="M376 280v1024h184v-409h179v409h190v-1024h-190v449h-179v-449h-184zM342 246h252v448h111v-448h258v1092h-258v-409h-111v409h-252v-1092zM95 49l217 197v1092l-217 -209v-1080zM68 0v1142l234 223h324v-408h46v408h326l227 -255v-1110h-488l-65 231v213h-46v-213 l-67 -231h-491z"/>
<glyph glyph-name="I" horiz-adv-x="935" unicode="I" d="M370 280v1024h189v-1024h-189zM336 246h257v1092h-257v-1092zM96 31l211 201v1087l-211 -204v-1084zM68 0v1132l243 233h315l240 -233v-1132h-798z"/>
<glyph glyph-name="J" horiz-adv-x="1210" unicode="J" d="M322 732h187v-214q0 -57 14 -78q25 -36 69 -36q86 0 86 114v786h193v-679q0 -103 -4 -133.5t-24 -73.5q-30 -66 -91 -110q-74 -53 -162 -53q-82 0 -151 47t-98 123q-12 34 -15.5 71.5t-3.5 148.5v87zM287 766v-121q0 -124 5 -166t24 -84q34 -72 99 -118q80 -56 175 -56 q135 0 229 102q74 79 84 189q1 14 1 113v713h-261v-820q0 -43 -12 -61.5t-39 -18.5q-28 0 -38.5 17t-10.5 63v248h-256zM399 799h176v-291q0 -36 17 -36t17 36v804l-210 -187v-326zM55 589v-43q0 -130 26 -210.5t90 -148.5l147 145q-40 52 -51.5 110.5t-11.5 205.5v115z M367 799v338l256 228h290l242 -261v-503q0 -110 -4 -147t-20 -87q-64 -194 -235 -306q-145 -94 -311 -94q-238 0 -412 175q-81 81 -113.5 170.5t-32.5 233.5v55l225 198h115z"/>
<glyph glyph-name="K" horiz-adv-x="1345" unicode="K" d="M366 280v1024h201v-378l213 378h171l-218 -394l275 -630h-204l-181 418l-56 -85v-333h-201zM332 246h270v357l15 23l166 -380h278l-289 662l238 430h-249l-159 -282v282h-270v-1092zM98 45l204 194v1079l-204 -196v-1077zM68 0v1136l242 229h324v-190l105 190h290 l251 -267l-231 -414l296 -684h-500l-214 520v-281l-31 -239h-532z"/>
<glyph glyph-name="L" horiz-adv-x="1129" unicode="L" d="M368 280v1024h198v-856h251v-168h-449zM334 246h517v236h-251v856h-266v-1092zM95 34l209 206v1085l-209 -208v-1083zM68 0v1130l236 235h318l246 -248v-591l247 -235v-291h-1047z"/>
<glyph glyph-name="M" horiz-adv-x="1455" unicode="M" d="M368 280v1024h259l89 -380l98 380h269v-1024h-191v596l-113 -596h-97l-122 571v-571h-192zM333 246h261v284l60 -284h153l51 271v-271h259v1092h-329l-71 -272l-63 272h-321v-1092zM96 50l205 230v1044l-205 -199v-1075zM68 0v1141l233 224h380l37 -170l44 170h371 l254 -240v-1125h-472l-72 194l-40 -194h-145l-40 194l-64 -194h-486z"/>
<glyph glyph-name="N" horiz-adv-x="1278" unicode="N" d="M378 280v1024h174l174 -525v525h194v-1024h-204l-148 414v-414h-190zM344 246h258v251l90 -251h262v1092h-262v-347l-115 347h-233v-1092zM97 36l215 197v1094l-215 -203v-1088zM68 0v1140l244 225h289l62 -187v187h305l241 -241v-1124h-475l-103 313v-106l-80 -207h-483 z"/>
<glyph glyph-name="O" d="M664 1071v-554q0 -38 -10.5 -53.5t-36.5 -15.5q-27 0 -37.5 15.5t-10.5 53.5v554q0 38 10.5 53.5t37.5 15.5q26 0 36.5 -15.5t10.5 -53.5zM535 1071v-554q0 -103 81 -103t81 103v554q0 103 -81 103t-81 -103zM346 578v424q0 82 13 128.5t47 86.5q89 105 219 105 q128 0 212 -100q30 -35 38.5 -63t8.5 -88v-504q0 -60 -6.5 -90.5t-26.5 -67.5q-32 -59 -85 -96q-69 -47 -151 -47q-69 0 -134.5 36t-100.5 94q-21 36 -27.5 70.5t-6.5 111.5zM919 567v503q0 71 -13.5 108.5t-54.5 79.5q-94 98 -226 98q-75 0 -144 -36t-115 -98 q-31 -43 -43 -91.5t-12 -128.5v-424q0 -82 7.5 -120.5t31.5 -78.5q37 -62 104 -101q77 -46 161 -46q83 0 154.5 43t112.5 117q22 41 29.5 76t7.5 99zM198 187l149 143q-42 57 -53.5 101t-11.5 144v416v9q0 111 25 170l-125 -128q-75 -77 -89.5 -113t-14.5 -149v-171 q0 -170 21.5 -246t98.5 -176zM48 609v171q1 118 20 165q12 29 24 44t70 72l196 199q122 125 265 125q78 0 143 -31.5t137 -104.5l143 -146q85 -86 108.5 -141.5t23.5 -173.5v-244q0 -132 -35 -221q-62 -159 -208 -257q-148 -100 -325 -100q-216 0 -377 144 q-142 128 -174 299q-11 58 -11 200z" unicode="O"/>
<glyph glyph-name="P" horiz-adv-x="1236" unicode="P" d="M608 912v200h11q36 0 48.5 -13t12.5 -51v-72q0 -39 -12.5 -51.5t-50.5 -12.5h-9zM574 879q28 -1 38 -1q57 0 79.5 21.5t22.5 76.5v74q0 53 -22.5 75.5t-75.5 22.5q-13 0 -42 -2v-267zM374 280v1024h235q89 0 128.5 -7t81.5 -31q59 -33 79.5 -93.5t20.5 -199.5 q0 -164 -42 -210q-28 -29 -62 -37t-135 -8h-97v-438h-209zM339 246h277v438h64q119 0 156 14q67 25 92 83t25 188q0 198 -46 265q-43 64 -144 92q-45 12 -155 12h-269v-1092zM97 51l211 200v1065l-211 -192v-1073zM68 0v1134l251 231h297q122 0 186 -22t143 -91l117 -103 q88 -77 117 -133t29 -148v-131q0 -94 -18 -143.5t-66 -83.5q-29 -22 -90 -36.5t-120 -14.5h-25v-459h-821z"/>
<glyph glyph-name="Q" d="M575 544v535q0 64 45 64t45 -64v-535q0 -59 -9.5 -79t-36.5 -20q-28 0 -36 18t-8 81zM699 545v535q0 47 -20 72.5t-58 25.5q-36 0 -57.5 -27t-21.5 -71v-535q0 -68 9 -89q19 -44 68 -44q50 0 71 47q9 20 9 86zM650 262q-144 1 -222 74.5t-78 208.5v497q0 63 10 97t39 69 q92 115 230 115q73 0 137.5 -36t98.5 -95q16 -27 20 -50t4 -83v-453q0 -99 -2.5 -124.5t-16.5 -59.5q-23 -54 -77 -92v-30q3 -59 71 -59h7h120v-184h-256q-48 0 -67 11.5t-19 40.5l1 50v103zM827 312q59 44 78 101t19 192v453q0 63 -5 90.5t-24 59.5q-34 60 -96 98 q-80 50 -170 50q-79 0 -150 -38t-119 -105q-25 -36 -34.5 -72t-9.5 -100v-497q0 -106 35 -167q39 -67 111.5 -108t153.5 -42v-69l-1 -52q0 -84 121 -84h289v253h-154q-42 0 -44 25v12zM347 331q-38 46 -50 88.5t-12 128.5v489q1 95 22 134l-108 -103q-79 -76 -100 -124.5 t-21 -155.5v-192q0 -161 25.5 -245.5t95.5 -158.5zM380 6v-25q0 -62 7.5 -86.5t33.5 -47.5l195 178q-31 28 -31 78l1 48v41zM1280 -8v-207h-727q-76 0 -110.5 10.5t-60.5 41.5q-21 25 -27.5 57.5t-6.5 111.5v28q-140 83 -215 190q-51 74 -68 147.5t-17 224.5v192 q0 116 24 171.5t110 136.5l192 180q117 110 254 110q82 0 148 -32t141 -107l148 -151q68 -69 90.5 -132t22.5 -185v-267v-14q0 -138 -90 -276z" unicode="Q"/>
<glyph glyph-name="R" horiz-adv-x="1249" unicode="R" d="M598 906v199h32q25 0 34 -12t9 -46v-82q0 -37 -9.5 -48t-41.5 -11h-24zM564 872h58q85 0 85 85v8v82q1 92 -74 92h-3h-66v-267zM364 280v1024h289h16q233 0 233 -203v-241q0 -47 -15 -73.5t-58 -51.5q73 -38 73 -109v-7v-247q0 -54 12 -92h-171q-26 0 -31 8t-5 53v267 q0 60 -19 82.5t-69 22.5h-55v-433h-200zM329 246h269v433h21q35 0 44.5 -12.5t9.5 -58.5v-267q0 -59 13.5 -77t56.5 -18h245q-35 29 -43.5 49t-8.5 77v247v5q0 73 -52 111q50 39 52 125v241q0 120 -70 178.5t-213 58.5h-324v-1092zM99 62l200 187v1069l-200 -186v-1070z M68 0v1143l238 222h344q116 0 158.5 -15t117.5 -82l142 -125q74 -67 103.5 -128.5t29.5 -151.5v-149q0 -68 -32.5 -102.5t-100.5 -40.5q69 -50 94 -87q26 -38 32.5 -70.5t6.5 -124.5v-123q0 -95 5.5 -122.5t28.5 -43.5h-454l-125 277h-29v-43l-100 -234h-459z"/>
<glyph glyph-name="S" horiz-adv-x="1196" unicode="S" d="M330 660h185v-96q0 -77 11 -104q20 -50 74 -50q81 0 81 106q0 67 -17.5 94t-90.5 76q-78 52 -157 126q-84 80 -84 207q0 149 84 229q80 75 193 75q71 0 133.5 -32t97.5 -87q36 -56 36 -157v-109h-193v126q0 107 -77 107q-81 0 -81 -119q0 -57 27 -93q20 -27 100 -83 l77 -53q95 -66 122.5 -110.5t27.5 -131.5t-28 -156q-27 -69 -90 -114q-71 -51 -157 -51q-73 0 -141.5 39t-102.5 101q-20 36 -25 69t-5 128v63zM549 660l9 -7q66 -46 77 -64t11 -78q0 -67 -47 -67q-31 0 -40.5 23t-9.5 97v96zM648 918q-59 45 -74 68t-15 69q0 82 46 82 q24 0 33.5 -16.5t9.5 -56.5v-146zM296 694v-97q0 -100 6 -136t28 -77q36 -65 105 -108q81 -50 168 -50q135 0 227 101q83 93 83 254q0 96 -31.5 147.5t-133.5 122.5l-76 53h238v143q0 111 -41 175q-32 50 -85 83q-80 51 -175 51q-146 0 -237 -105q-74 -86 -74 -233 q0 -101 39.5 -163t167.5 -161h-209zM283 899q-16 52 -16 111q0 92 33 180l-100 -94q-73 -67 -101 -126t-28 -145q0 -60 18 -111zM88 479v-7q0 -165 96 -278l145 140q-39 49 -51 98t-12 159v73zM917 688l138 -107q58 -44 75 -72.5t17 -80.5q0 -126 -111 -256 q-69 -80 -157 -130q-131 -75 -279 -75q-163 0 -306 89q-123 78 -180 184q-56 104 -56 249v5l73 75q-90 108 -90 255q0 91 30.5 156.5t104.5 134.5l154 142q74 69 138.5 98.5t139.5 29.5q157 0 282 -129l137 -141q128 -132 128 -282l-2 -97v-48h-236z"/>
<glyph glyph-name="T" horiz-adv-x="1154" unicode="T" d="M477 280v850h-165v174h549v-174h-187v-850h-197zM443 246h266v850h187v242h-618v-242h165v-850zM43 908l203 192v216l-203 -202v-206zM189 46l223 200v836l-223 -218v-818zM158 0v853h-144v269l243 243h654l230 -247v-265h-147v-853h-836z"/>
<glyph glyph-name="U" horiz-adv-x="1237" unicode="U" d="M352 1304h189v-785q0 -49 22 -75.5t61 -26.5q40 0 63 27.5t23 74.5v785h183v-706q0 -92 -10 -133.5t-43 -86.5q-39 -52 -97 -82t-120 -30q-69 0 -133.5 36.5t-99.5 95.5q-24 39 -31 76t-7 124v706zM317 1338v-740q0 -93 8 -133.5t34 -84.5q34 -56 92 -94q81 -54 172 -54 q70 0 135 33.5t109 92.5q37 49 48.5 95.5t11.5 144.5v740h-252v-819q0 -68 -52 -68q-48 0 -48 68v819h-258zM84 1121v-552q0 -135 26 -214.5t97 -162.5l147 144q-41 50 -54 99.5t-13 154.5v717zM55 1134l247 231h288l36 -48l41 48h281l235 -247v-549q0 -107 -16 -174.5 t-58 -140.5q-69 -119 -187 -195q-142 -92 -305 -92q-159 0 -302 90q-187 116 -242 311q-18 65 -18 201v565z"/>
<glyph glyph-name="V" horiz-adv-x="1209" unicode="V" d="M482 1304l129 -519l115 519h206l-227 -1024h-177l-244 1024h198zM509 1338h-269l261 -1092h231l242 1092h-275l-90 -404zM281 45l191 194l-263 1090l-184 -196zM262 0l-269 1146l206 219h336l73 -303l65 303h319l224 -219l-258 -1146h-696z"/>
<glyph glyph-name="W" horiz-adv-x="1496" unicode="W" d="M702 280h-203l-218 1024h196l118 -539l75 539h152l89 -562l105 562h202l-198 -1024h-205l-69 318zM731 246l22 158l35 -158h260l211 1092h-272l-73 -396l-63 396h-210l-53 -380l-83 380h-266l232 -1092h260zM258 59l185 172l-237 1103l-181 -170zM240 0l-247 1174 l202 191h334l52 -241l34 241h261l40 -241l45 241h316l226 -201l-226 -1164h-464l-56 249l-31 -249h-486z"/>
<glyph glyph-name="X" horiz-adv-x="1191" unicode="X" d="M511 280h-199l164 529l-185 495h201l91 -226l69 226h201l-154 -496l169 -528h-191l-89 247zM627 1338l-49 -158l-63 158h-273l198 -530l-174 -562h270l54 174l63 -174h262l-180 562l164 530h-272zM218 709l182 116l-191 504l-166 -159zM40 51l190 183l172 554l-172 -111z M-7 0l208 677l-194 497l194 191h338l36 -94l28 94h324l206 -191l-155 -497l220 -677h-496l-111 319l-96 -319h-502z"/>
<glyph glyph-name="Y" horiz-adv-x="1178" unicode="Y" d="M502 280v420l-195 604h181l114 -334l99 334h174l-166 -595v-429h-207zM468 246h275v458l177 634h-245l-75 -255l-87 255h-253l208 -644v-448zM221 523l207 190l-196 603l-205 -192zM224 29l212 199v452l-212 -194v-457zM193 0v508l-200 624l247 233h297l60 -180l53 180 h296l239 -214l-173 -627v-524h-819z"/>
<glyph glyph-name="Z" horiz-adv-x="1181" unicode="Z" d="M326 280v176l322 669h-322v179h530v-186l-316 -662h316v-176h-530zM291 246h599v244h-297l297 620v228h-599v-247h302l-302 -627v-218zM57 894l201 184v231l-201 -183v-232zM86 332l180 161l272 558l-183 -170zM57 39l201 180v222l-201 -175v-227zM27 0v280l285 584h-285 v275l250 226h643l234 -239v-191l-221 -459l221 -196v-280h-1127z"/>
<glyph glyph-name="bracketleft" horiz-adv-x="958" unicode="[" d="M165 -143l171 149v1423l-171 -153v-1419zM404 1406h259v-75h-163v-1216h163v-75h-259v1366zM370 1441v-1435h328v143h-164v1148h164v144h-328zM937 -177h-806v1467l205 185h396l205 -185v-184h-205v-930l205 -169v-184z"/>
<glyph glyph-name="backslash" horiz-adv-x="1411" unicode="\" d="M38 1282l699 -1424l190 182l-714 1395zM1074 97h-105l-673 1315h102zM1130 64l-711 1383h-179l708 -1383h182zM720 -177l-720 1468l209 184h209l226 -164l767 -1488h-691z"/>
<glyph glyph-name="bracketright" horiz-adv-x="958" unicode="]" d="M56 -146l171 129v153l-171 -139v-143zM261 176h130v1080l-130 -123v-957zM56 1133l171 143v153l-171 -153v-143zM554 1406v-1366h-259v75h163v1216h-163v75h259zM589 1441h-328v-144h164v-1148h-164v-143h328v1435zM22 -177v184l205 169v930h-205v184l205 185h396 l205 -185v-1467h-806z"/>
<glyph glyph-name="asciicircum" horiz-adv-x="1024" unicode="^" d="M239 725h-203l350 646h251l350 -646h-204l-272 494z"/>
<glyph glyph-name="underscore" horiz-adv-x="1024" unicode="_" d="M0 -119h1024v-174h-1024v174z"/>
<glyph glyph-name="grave" horiz-adv-x="1024" unicode="`" d="M482 1499l-98 145h128l55 -145h-85zM464 1464h152l-81 214h-215zM102 1463l157 -173l172 173l-134 197zM244 1258l-184 205l240 245h248l307 -450h-611z"/>
<glyph glyph-name="a" horiz-adv-x="1294" unicode="a" d="M614 758l10 97l17 -97h-27zM576 723h105l-57 333zM516 1304h221l211 -1024h-198l-43 269h-151l-34 -269h-189zM487 1338l-195 -1092h260l34 269h92l43 -269h269l-225 1092h-278zM29 34l233 205l196 1091l-238 -226zM-7 0l201 1121l260 244h329l286 -226l231 -1139h-568 l-41 239h-107l-25 -239h-566z"/>
<glyph glyph-name="b" horiz-adv-x="1278" unicode="b" d="M606 468v208h34q32 0 40.5 -8.5t8.5 -39.5v-111q0 -32 -8.5 -40.5t-40.5 -8.5h-34zM572 434h43q64 0 86 18.5t22 73.5v96q0 52 -20 70t-79 18h-52v-276zM606 908v205h34q32 0 40.5 -8.5t8.5 -39.5v-108q0 -32 -8.5 -40.5t-40.5 -8.5h-34zM572 873h43q64 0 86 18.5 t22 73.5v93q0 53 -20 71t-79 18h-52v-274zM375 280v1024h243q21 1 40 1q263 0 263 -197v-12v-131q0 -83 -13.5 -112t-59.5 -46q42 -19 57.5 -48t15.5 -86v-169q0 -76 -10 -109t-43 -64q-35 -33 -76.5 -42t-163.5 -9h-253zM340 246h288q99 0 129.5 2.5t60.5 13.5 q75 28 106 83t31 159v169q1 105 -49 132q49 22 49 160v131q0 69 -18 110.5t-63 75.5q-46 35 -94.5 45.5t-162.5 10.5h-277v-1092zM96 36l214 203v1087l-214 -202v-1088zM68 0v1138l242 227h313q92 0 131 -5t82 -23q94 -39 195 -132.5t153 -188.5q46 -86 46 -179 q0 -107 -10.5 -147.5t-43.5 -58.5q35 -34 44.5 -81.5t9.5 -187.5q0 -197 -89 -282q-49 -46 -112 -63t-183 -17h-778z"/>
<glyph glyph-name="c" horiz-adv-x="1223" unicode="c" d="M699 677h188v-80q0 -81 -6.5 -118.5t-29.5 -77.5q-31 -58 -86 -95q-69 -45 -151 -45q-74 0 -137.5 36.5t-96.5 97.5q-22 40 -28 75.5t-6 126.5v391q0 154 61 229q86 105 222 105q133 0 213 -102q27 -35 36 -65t9 -84v-149h-188v160q0 94 -79 94q-37 0 -59.5 -25.5 t-22.5 -68.5v-559q0 -112 81 -112q80 0 80 112v154zM665 711v-188q0 -77 -46 -77q-26 0 -36.5 17.5t-10.5 59.5v559q0 59 48 59q45 0 45 -59v-194h256v183q0 60 -11 95.5t-41 74.5q-90 115 -240 115q-78 0 -148 -36t-114 -98q-56 -80 -56 -234v-391q0 -96 6.5 -134.5 t31.5 -83.5q32 -59 91 -99q79 -52 174 -52q126 0 215 87q53 52 72.5 111.5t19.5 170.5v114h-256zM199 193l143 139q-36 50 -48 103t-12 162v383q0 83 7.5 124t29.5 84l-110 -110q-81 -81 -106.5 -131.5t-25.5 -132.5v-236q0 -137 25 -216t97 -169zM952 707l223 -227 q-5 -115 -67 -223q-67 -116 -173 -189q-146 -101 -321 -101q-201 0 -361 129q-151 123 -191 302q-14 61 -14 180v236q0 89 28 145t115 140l173 168q121 118 264 118q142 0 264 -121l145 -143q56 -56 75 -80.5t36 -64.5q27 -65 27 -162v-107h-223z"/>
<glyph glyph-name="d" horiz-adv-x="1269" unicode="d" d="M98 41l214 197v1089l-214 -201v-1085zM625 500h26v344h-26v-344zM594 469v642h31h3q55 0 55 -61v-6v-514q0 -37 -9.5 -49t-38.5 -12h-41zM560 435h75h2q81 0 81 95v514q0 51 -23 76t-70 25h-65v-710zM378 280v1024h263h21q258 0 258 -199q0 -13 -1 -26v-535 q0 -156 -44.5 -210t-172.5 -54h-324zM344 246h357q90 0 135.5 18t75.5 65q23 37 32 83t9 132v535q0 85 -17.5 128t-67.5 78q-42 30 -91 41.5t-137 11.5h-296v-1092zM68 0v1139l244 226h314q117 0 171.5 -14t132.5 -63q150 -95 220.5 -213t70.5 -274v-379q1 -22 1 -42 q0 -380 -360 -380h-13h-781z"/>
<glyph glyph-name="e" horiz-adv-x="1189" unicode="e" d="M373 280v1024h481v-155h-280v-271h280v-162h-280v-292h280v-144h-481zM339 246h549v212h-280v223h280v231h-280v203h280v223h-549v-1092zM97 27l213 201v1088l-213 -219v-1070zM68 0v1111l247 254h593l233 -234v-224h-233l233 -226v-225h-233l233 -228v-228h-1073z"/>
<glyph glyph-name="f" horiz-adv-x="1147" unicode="f" d="M369 280v1024h430v-163h-240v-302h240v-177h-240v-382h-190zM334 246h258v381h241v246h-241v233h241v232h-499v-1092zM98 39l206 189v1099l-206 -195v-1093zM68 0v1143l236 222h567l228 -250v-274h-200l200 -213v-271h-228v-357h-803z"/>
<glyph glyph-name="g" d="M887 871v-595h-162q-23 1 -27 35q-36 -43 -92 -43q-72 0 -138 41t-98 106q-16 34 -20.5 62t-4.5 101v451q0 125 63 198q85 100 211 100q71 0 133 -33t95 -88q40 -65 40 -156v-79h-191v105q0 105 -79 105q-82 0 -82 -105v-556q0 -101 79 -101q38 0 60 27t22 74v213h-130 v138h321zM569 699h93v-179q0 -67 -48 -67q-45 0 -45 67v179zM921 905h-352v171q0 71 48 71q45 0 45 -71v-139h259v113q0 112 -56 191q-38 54 -105.5 87t-139.5 33q-74 0 -141 -34.5t-112 -95.5q-56 -76 -56 -202v-451q0 -82 6.5 -116.5t28.5 -74.5q40 -69 111 -111t149 -42 q46 0 80 21q11 -13 27 -13h208v663zM343 338q-39 51 -50.5 96t-11.5 149v446q1 94 28 153l-100 -99q-92 -91 -112.5 -136.5t-20.5 -163.5v-219q0 -121 26.5 -201.5t94.5 -164.5zM1172 0h-397l-33 69q-78 -86 -188 -86q-82 0 -169.5 38t-160.5 105q-124 115 -161 271 q-15 64 -15 186v200q0 125 22.5 177.5t112.5 140.5l201 194q100 97 236 97q148 0 278 -134l159 -162q47 -49 61 -67.5t29 -54.5q16 -38 20.5 -66t4.5 -100v-808z" unicode="g"/>
<glyph glyph-name="h" horiz-adv-x="1294" unicode="h" d="M376 280v1024h184v-409h179v409h190v-1024h-190v449h-179v-449h-184zM342 246h252v448h111v-448h258v1092h-258v-409h-111v409h-252v-1092zM95 49l217 197v1092l-217 -209v-1080zM68 0v1142l234 223h324v-408h46v408h326l227 -255v-1110h-488l-65 231v213h-46v-213 l-67 -231h-491z"/>
<glyph glyph-name="i" horiz-adv-x="935" unicode="i" d="M370 280v1024h189v-1024h-189zM336 246h257v1092h-257v-1092zM96 31l211 201v1087l-211 -204v-1084zM68 0v1132l243 233h315l240 -233v-1132h-798z"/>
<glyph glyph-name="j" horiz-adv-x="1210" unicode="j" d="M322 732h187v-214q0 -57 14 -78q25 -36 69 -36q86 0 86 114v786h193v-679q0 -103 -4 -133.5t-24 -73.5q-30 -66 -91 -110q-74 -53 -162 -53q-82 0 -151 47t-98 123q-12 34 -15.5 71.5t-3.5 148.5v87zM287 766v-121q0 -124 5 -166t24 -84q34 -72 99 -118q80 -56 175 -56 q135 0 229 102q74 79 84 189q1 14 1 113v713h-261v-820q0 -43 -12 -61.5t-39 -18.5q-28 0 -38.5 17t-10.5 63v248h-256zM399 799h176v-291q0 -36 17 -36t17 36v804l-210 -187v-326zM55 589v-43q0 -130 26 -210.5t90 -148.5l147 145q-40 52 -51.5 110.5t-11.5 205.5v115z M367 799v338l256 228h290l242 -261v-503q0 -110 -4 -147t-20 -87q-64 -194 -235 -306q-145 -94 -311 -94q-238 0 -412 175q-81 81 -113.5 170.5t-32.5 233.5v55l225 198h115z"/>
<glyph glyph-name="k" horiz-adv-x="1345" unicode="k" d="M366 280v1024h201v-378l213 378h171l-218 -394l275 -630h-204l-181 418l-56 -85v-333h-201zM332 246h270v357l15 23l166 -380h278l-289 662l238 430h-249l-159 -282v282h-270v-1092zM98 45l204 194v1079l-204 -196v-1077zM68 0v1136l242 229h324v-190l105 190h290 l251 -267l-231 -414l296 -684h-500l-214 520v-281l-31 -239h-532z"/>
<glyph glyph-name="l" horiz-adv-x="1129" unicode="l" d="M368 280v1024h198v-856h251v-168h-449zM334 246h517v236h-251v856h-266v-1092zM95 34l209 206v1085l-209 -208v-1083zM68 0v1130l236 235h318l246 -248v-591l247 -235v-291h-1047z"/>
<glyph glyph-name="m" horiz-adv-x="1455" unicode="m" d="M368 280v1024h259l89 -380l98 380h269v-1024h-191v596l-113 -596h-97l-122 571v-571h-192zM333 246h261v284l60 -284h153l51 271v-271h259v1092h-329l-71 -272l-63 272h-321v-1092zM96 50l205 230v1044l-205 -199v-1075zM68 0v1141l233 224h380l37 -170l44 170h371 l254 -240v-1125h-472l-72 194l-40 -194h-145l-40 194l-64 -194h-486z"/>
<glyph glyph-name="n" horiz-adv-x="1278" unicode="n" d="M378 280v1024h174l174 -525v525h194v-1024h-204l-148 414v-414h-190zM344 246h258v251l90 -251h262v1092h-262v-347l-115 347h-233v-1092zM97 36l215 197v1094l-215 -203v-1088zM68 0v1140l244 225h289l62 -187v187h305l241 -241v-1124h-475l-103 313v-106l-80 -207h-483 z"/>
<glyph glyph-name="o" d="M664 1071v-554q0 -38 -10.5 -53.5t-36.5 -15.5q-27 0 -37.5 15.5t-10.5 53.5v554q0 38 10.5 53.5t37.5 15.5q26 0 36.5 -15.5t10.5 -53.5zM535 1071v-554q0 -103 81 -103t81 103v554q0 103 -81 103t-81 -103zM346 578v424q0 82 13 128.5t47 86.5q89 105 219 105 q128 0 212 -100q30 -35 38.5 -63t8.5 -88v-504q0 -60 -6.5 -90.5t-26.5 -67.5q-32 -59 -85 -96q-69 -47 -151 -47q-69 0 -134.5 36t-100.5 94q-21 36 -27.5 70.5t-6.5 111.5zM919 567v503q0 71 -13.5 108.5t-54.5 79.5q-94 98 -226 98q-75 0 -144 -36t-115 -98 q-31 -43 -43 -91.5t-12 -128.5v-424q0 -82 7.5 -120.5t31.5 -78.5q37 -62 104 -101q77 -46 161 -46q83 0 154.5 43t112.5 117q22 41 29.5 76t7.5 99zM198 187l149 143q-42 57 -53.5 101t-11.5 144v416v9q0 111 25 170l-125 -128q-75 -77 -89.5 -113t-14.5 -149v-171 q0 -170 21.5 -246t98.5 -176zM48 609v171q1 118 20 165q12 29 24 44t70 72l196 199q122 125 265 125q78 0 143 -31.5t137 -104.5l143 -146q85 -86 108.5 -141.5t23.5 -173.5v-244q0 -132 -35 -221q-62 -159 -208 -257q-148 -100 -325 -100q-216 0 -377 144 q-142 128 -174 299q-11 58 -11 200z" unicode="o"/>
<glyph glyph-name="p" horiz-adv-x="1236" unicode="p" d="M608 912v200h11q36 0 48.5 -13t12.5 -51v-72q0 -39 -12.5 -51.5t-50.5 -12.5h-9zM574 879q28 -1 38 -1q57 0 79.5 21.5t22.5 76.5v74q0 53 -22.5 75.5t-75.5 22.5q-13 0 -42 -2v-267zM374 280v1024h235q89 0 128.5 -7t81.5 -31q59 -33 79.5 -93.5t20.5 -199.5 q0 -164 -42 -210q-28 -29 -62 -37t-135 -8h-97v-438h-209zM339 246h277v438h64q119 0 156 14q67 25 92 83t25 188q0 198 -46 265q-43 64 -144 92q-45 12 -155 12h-269v-1092zM97 51l211 200v1065l-211 -192v-1073zM68 0v1134l251 231h297q122 0 186 -22t143 -91l117 -103 q88 -77 117 -133t29 -148v-131q0 -94 -18 -143.5t-66 -83.5q-29 -22 -90 -36.5t-120 -14.5h-25v-459h-821z"/>
<glyph glyph-name="q" d="M575 544v535q0 64 45 64t45 -64v-535q0 -59 -9.5 -79t-36.5 -20q-28 0 -36 18t-8 81zM699 545v535q0 47 -20 72.5t-58 25.5q-36 0 -57.5 -27t-21.5 -71v-535q0 -68 9 -89q19 -44 68 -44q50 0 71 47q9 20 9 86zM650 262q-144 1 -222 74.5t-78 208.5v497q0 63 10 97t39 69 q92 115 230 115q73 0 137.5 -36t98.5 -95q16 -27 20 -50t4 -83v-453q0 -99 -2.5 -124.5t-16.5 -59.5q-23 -54 -77 -92v-30q3 -59 71 -59h7h120v-184h-256q-48 0 -67 11.5t-19 40.5l1 50v103zM827 312q59 44 78 101t19 192v453q0 63 -5 90.5t-24 59.5q-34 60 -96 98 q-80 50 -170 50q-79 0 -150 -38t-119 -105q-25 -36 -34.5 -72t-9.5 -100v-497q0 -106 35 -167q39 -67 111.5 -108t153.5 -42v-69l-1 -52q0 -84 121 -84h289v253h-154q-42 0 -44 25v12zM347 331q-38 46 -50 88.5t-12 128.5v489q1 95 22 134l-108 -103q-79 -76 -100 -124.5 t-21 -155.5v-192q0 -161 25.5 -245.5t95.5 -158.5zM380 6v-25q0 -62 7.5 -86.5t33.5 -47.5l195 178q-31 28 -31 78l1 48v41zM1280 -8v-207h-727q-76 0 -110.5 10.5t-60.5 41.5q-21 25 -27.5 57.5t-6.5 111.5v28q-140 83 -215 190q-51 74 -68 147.5t-17 224.5v192 q0 116 24 171.5t110 136.5l192 180q117 110 254 110q82 0 148 -32t141 -107l148 -151q68 -69 90.5 -132t22.5 -185v-267v-14q0 -138 -90 -276z" unicode="q"/>
<glyph glyph-name="r" horiz-adv-x="1249" unicode="r" d="M598 906v199h32q25 0 34 -12t9 -46v-82q0 -37 -9.5 -48t-41.5 -11h-24zM564 872h58q85 0 85 85v8v82q1 92 -74 92h-3h-66v-267zM364 280v1024h289h16q233 0 233 -203v-241q0 -47 -15 -73.5t-58 -51.5q73 -38 73 -109v-7v-247q0 -54 12 -92h-171q-26 0 -31 8t-5 53v267 q0 60 -19 82.5t-69 22.5h-55v-433h-200zM329 246h269v433h21q35 0 44.5 -12.5t9.5 -58.5v-267q0 -59 13.5 -77t56.5 -18h245q-35 29 -43.5 49t-8.5 77v247v5q0 73 -52 111q50 39 52 125v241q0 120 -70 178.5t-213 58.5h-324v-1092zM99 62l200 187v1069l-200 -186v-1070z M68 0v1143l238 222h344q116 0 158.5 -15t117.5 -82l142 -125q74 -67 103.5 -128.5t29.5 -151.5v-149q0 -68 -32.5 -102.5t-100.5 -40.5q69 -50 94 -87q26 -38 32.5 -70.5t6.5 -124.5v-123q0 -95 5.5 -122.5t28.5 -43.5h-454l-125 277h-29v-43l-100 -234h-459z"/>
<glyph glyph-name="s" horiz-adv-x="1196" unicode="s" d="M330 660h185v-96q0 -77 11 -104q20 -50 74 -50q81 0 81 106q0 67 -17.5 94t-90.5 76q-78 52 -157 126q-84 80 -84 207q0 149 84 229q80 75 193 75q71 0 133.5 -32t97.5 -87q36 -56 36 -157v-109h-193v126q0 107 -77 107q-81 0 -81 -119q0 -57 27 -93q20 -27 100 -83 l77 -53q95 -66 122.5 -110.5t27.5 -131.5t-28 -156q-27 -69 -90 -114q-71 -51 -157 -51q-73 0 -141.5 39t-102.5 101q-20 36 -25 69t-5 128v63zM549 660l9 -7q66 -46 77 -64t11 -78q0 -67 -47 -67q-31 0 -40.5 23t-9.5 97v96zM648 918q-59 45 -74 68t-15 69q0 82 46 82 q24 0 33.5 -16.5t9.5 -56.5v-146zM296 694v-97q0 -100 6 -136t28 -77q36 -65 105 -108q81 -50 168 -50q135 0 227 101q83 93 83 254q0 96 -31.5 147.5t-133.5 122.5l-76 53h238v143q0 111 -41 175q-32 50 -85 83q-80 51 -175 51q-146 0 -237 -105q-74 -86 -74 -233 q0 -101 39.5 -163t167.5 -161h-209zM283 899q-16 52 -16 111q0 92 33 180l-100 -94q-73 -67 -101 -126t-28 -145q0 -60 18 -111zM88 479v-7q0 -165 96 -278l145 140q-39 49 -51 98t-12 159v73zM917 688l138 -107q58 -44 75 -72.5t17 -80.5q0 -126 -111 -256 q-69 -80 -157 -130q-131 -75 -279 -75q-163 0 -306 89q-123 78 -180 184q-56 104 -56 249v5l73 75q-90 108 -90 255q0 91 30.5 156.5t104.5 134.5l154 142q74 69 138.5 98.5t139.5 29.5q157 0 282 -129l137 -141q128 -132 128 -282l-2 -97v-48h-236z"/>
<glyph glyph-name="t" horiz-adv-x="1154" unicode="t" d="M477 280v850h-165v174h549v-174h-187v-850h-197zM443 246h266v850h187v242h-618v-242h165v-850zM43 908l203 192v216l-203 -202v-206zM189 46l223 200v836l-223 -218v-818zM158 0v853h-144v269l243 243h654l230 -247v-265h-147v-853h-836z"/>
<glyph glyph-name="u" horiz-adv-x="1237" unicode="u" d="M352 1304h189v-785q0 -49 22 -75.5t61 -26.5q40 0 63 27.5t23 74.5v785h183v-706q0 -92 -10 -133.5t-43 -86.5q-39 -52 -97 -82t-120 -30q-69 0 -133.5 36.5t-99.5 95.5q-24 39 -31 76t-7 124v706zM317 1338v-740q0 -93 8 -133.5t34 -84.5q34 -56 92 -94q81 -54 172 -54 q70 0 135 33.5t109 92.5q37 49 48.5 95.5t11.5 144.5v740h-252v-819q0 -68 -52 -68q-48 0 -48 68v819h-258zM84 1121v-552q0 -135 26 -214.5t97 -162.5l147 144q-41 50 -54 99.5t-13 154.5v717zM55 1134l247 231h288l36 -48l41 48h281l235 -247v-549q0 -107 -16 -174.5 t-58 -140.5q-69 -119 -187 -195q-142 -92 -305 -92q-159 0 -302 90q-187 116 -242 311q-18 65 -18 201v565z"/>
<glyph glyph-name="v" horiz-adv-x="1209" unicode="v" d="M482 1304l129 -519l115 519h206l-227 -1024h-177l-244 1024h198zM509 1338h-269l261 -1092h231l242 1092h-275l-90 -404zM281 45l191 194l-263 1090l-184 -196zM262 0l-269 1146l206 219h336l73 -303l65 303h319l224 -219l-258 -1146h-696z"/>
<glyph glyph-name="w" horiz-adv-x="1496" unicode="w" d="M702 280h-203l-218 1024h196l118 -539l75 539h152l89 -562l105 562h202l-198 -1024h-205l-69 318zM731 246l22 158l35 -158h260l211 1092h-272l-73 -396l-63 396h-210l-53 -380l-83 380h-266l232 -1092h260zM258 59l185 172l-237 1103l-181 -170zM240 0l-247 1174 l202 191h334l52 -241l34 241h261l40 -241l45 241h316l226 -201l-226 -1164h-464l-56 249l-31 -249h-486z"/>
<glyph glyph-name="x" horiz-adv-x="1191" unicode="x" d="M511 280h-199l164 529l-185 495h201l91 -226l69 226h201l-154 -496l169 -528h-191l-89 247zM627 1338l-49 -158l-63 158h-273l198 -530l-174 -562h270l54 174l63 -174h262l-180 562l164 530h-272zM218 709l182 116l-191 504l-166 -159zM40 51l190 183l172 554l-172 -111z M-7 0l208 677l-194 497l194 191h338l36 -94l28 94h324l206 -191l-155 -497l220 -677h-496l-111 319l-96 -319h-502z"/>
<glyph glyph-name="y" horiz-adv-x="1178" unicode="y" d="M502 280v420l-195 604h181l114 -334l99 334h174l-166 -595v-429h-207zM468 246h275v458l177 634h-245l-75 -255l-87 255h-253l208 -644v-448zM221 523l207 190l-196 603l-205 -192zM224 29l212 199v452l-212 -194v-457zM193 0v508l-200 624l247 233h297l60 -180l53 180 h296l239 -214l-173 -627v-524h-819z"/>
<glyph glyph-name="z" horiz-adv-x="1181" unicode="z" d="M326 280v176l322 669h-322v179h530v-186l-316 -662h316v-176h-530zM291 246h599v244h-297l297 620v228h-599v-247h302l-302 -627v-218zM57 894l201 184v231l-201 -183v-232zM86 332l180 161l272 558l-183 -170zM57 39l201 180v222l-201 -175v-227zM27 0v280l285 584h-285 v275l250 226h643l234 -239v-191l-221 -459l221 -196v-280h-1127z"/>
<glyph glyph-name="braceleft" horiz-adv-x="958" unicode="{" d="M141 391v-199q0 -164 8 -204t46 -79l183 166q-25 40 -32.5 79t-7.5 136v284zM226 794l-211 -183v-110l211 190v103zM352 1330l-126 -116q-56 -53 -70.5 -80t-14.5 -81v-295l85 78h10q76 4 89 13t13 61v294v10q0 74 14 116zM290 723v59q79 2 96.5 31t17.5 159v240 q-1 140 93 184q38 16 167 17v-75q-92 -2 -123 -19q-23 -14 -32 -46t-9 -98v-276q-1 -118 -99 -148q59 -23 79 -58t20 -114v-292q0 -98 29 -131.5t116 -33.5q4 0 19 1v-75q-131 0 -178 22q-44 21 -63 63.5t-19 119.5v305q-1 72 -5.5 96t-21.5 40q-26 25 -87 29zM256 692 q85 -5 99.5 -22t15.5 -112v-305v-12q0 -178 141 -215q51 -12 187 -12v144q-36 -1 -48 -1q-76 0 -96.5 22.5t-20.5 107.5v293q0 78 -12 110.5t-53 60.5q63 38 65 149v275q0 62 7 86.5t28 32.5q24 8 129 11v142h-16q-153 0 -198 -19q-114 -52 -113 -216v-239 q0 -123 -12 -139.5t-103 -18.5v-123zM970 1263v-207q-103 -1 -134 -23t-31 -92v-289q0 -51 -12.5 -72.5t-55.5 -45.5q67 -30 68 -110v-257l165 -146v-198h-596q-129 1 -199 63q-38 32 -50.5 72t-12.5 125v226q0 70 -5 90t-27 32q-23 13 -83 13h-9v183l124 108v307 q0 75 17 105t108 114l139 126q72 65 112.5 76.5t200.5 11.5h46z"/>
<glyph glyph-name="bar" horiz-adv-x="1024" unicode="|" d="M416 1365h191v-1706h-191v1706z"/>
<glyph glyph-name="braceright" horiz-adv-x="958" unicode="}" d="M233 168l-213 -160v-159l213 158v161zM395 630l-150 -116q-36 -28 -47 -50.5t-11 -68.5v-208h122q62 0 73.5 16t12.5 107v320zM394 1143l-208 -186v-244l208 186v244zM233 1276v158l-213 -192v-156zM668 723q-73 -6 -93.5 -35t-20.5 -131v-304q0 -77 -19 -119.5 t-62 -63.5q-46 -22 -168 -22h-11v75q15 -1 22 -1q84 0 113 33.5t29 131.5v292q0 79 20 114t79 58q-52 17 -75.5 51.5t-23.5 96.5v276q0 106 -27 133t-137 30v75q129 -1 167 -17q94 -44 93 -185v-239q0 -95 3 -119t17 -42q23 -28 94 -29v-59zM702 692v123q-91 2 -103 18.5 t-12 139.5v239v6q0 158 -113 210q-46 19 -198 19h-16v-142q51 -2 65 -2q67 -1 83 -21.5t16 -106.5v-275q2 -110 65 -149q-41 -28 -53 -60.5t-12 -110.5v-293q0 -83 -20.5 -106.5t-93.5 -23.5q-18 0 -51 1v-144q149 0 201 16q127 43 127 213v10v305q1 95 15.5 112t99.5 22z M-12 1263l235 212h46q160 0 200.5 -11.5t112.5 -76.5l139 -126q91 -84 108 -114t17 -105v-307l124 -108v-183h-7q-69 0 -93 -18q-16 -13 -20 -31.5t-4 -85.5v-226q0 -85 -12.5 -125t-50.5 -72q-70 -62 -199 -63h-596v198l165 126v277q1 80 68 110q-43 24 -55.5 45.5 t-12.5 72.5v289q0 71 -31 92.5t-134 22.5v207z"/>
<glyph glyph-name="asciitilde" horiz-adv-x="1365" unicode="~" d="M297 1176l-109 71q46 96 75 137q84 117 216 117q74 0 223 -65q91 -38 124 -48.5t68 -10.5q55 0 91 27t80 100l112 -65q-63 -130 -126 -181q-82 -65 -183 -65q-39 0 -95 18.5t-194 76.5q-67 29 -115 29q-51 0 -89 -32t-78 -109z"/>
<glyph glyph-name="nbspace" horiz-adv-x="512" unicode=""/>
<glyph glyph-name="exclamdown" horiz-adv-x="1015" unicode="" d="M426 1301h133v-141h-133v141zM392 1335v-209h201v209h-201zM425 976h136l48 -699h-218zM392 1009l-37 -766h291l-53 766h-201zM170 924l194 208v181l-194 -193v-196zM105 32l219 204l40 754l-194 -187zM68 0l69 823l51 45l-51 24v240l227 233h263l221 -172v-269l-35 -43 l11 -13l123 -868h-879z"/>
<glyph glyph-name="cent" d="M344 -96l161 157v226l-161 -155v-228zM571 334q-169 41 -169 230q0 14 1 28v293v11q0 194 168 243v199h93v-195q78 -16 122 -67.5t44 -127.5v-95h-162v103q0 60 -48 60q-24 0 -38.5 -16.5t-14.5 -43.5v-420q0 -73 52 -73q49 0 49 73v99h162v-91q0 -74 -45.5 -131.5 t-120.5 -76.5v-226h-93v224zM537 1164q-167 -65 -167 -269v-10v-293q-1 -14 -1 -27q0 -197 168 -257v-232h161v234q167 63 167 259q0 11 -1 23v77h-230v-133q0 -39 -15 -39q-17 0 -17 39v420q0 25 15 26q17 1 17 -26v-137h230v129q0 81 -42.5 138t-123.5 84v202h-161v-208z M345 1050q71 84 160 136v168l-160 -146v-158zM278 222l133 132q-72 70 -71 203v318q0 64 6 96t25 66l-92 -84q-60 -56 -81.5 -100.5t-21.5 -114.5v-196q0 -114 21 -179.5t81 -140.5zM312 145q-91 77 -129 167t-38 230v196q0 73 23.5 119.5t95.5 116.5l48 47v200l201 185h209 l201 -185v-186l43 -42q70 -70 92.5 -119.5t22.5 -135.5v-69h-186l186 -188q-4 -198 -158 -331v-280h-611v275z" unicode=""/>
<glyph glyph-name="sterling" d="M383 310l82 469h-123v104h142q39 194 90 272q107 167 262 167q83 0 139 -39l-8 -96q-28 14 -58 14q-62 0 -120 -34.5t-97 -95.5q-46 -72 -60 -188h233v-104h-257l-33 -318h399v-151h-591zM342 276h667v219h-396l25 250h261v172h-228q10 76 50 136q75 115 192 115 q46 0 85 -28l14 161q-91 55 -178 55q-112 0 -207 -85q-68 -60 -105 -137.5t-66 -216.5h-148v-172h117zM432 950q23 128 67.5 209t135.5 160q-103 -15 -207.5 -120t-160.5 -249h165zM-12 557l287 182v166l-287 -185v-163zM89 48l220 204l72 411l-190 -130zM49 0l108 523h-197 v216l260 166q54 185 191 316q94 90 217 135q97 36 180 36q163 0 288 -104l150 -142v-228h-318l241 -179v-243h-140l233 -205v-291h-1213z" unicode=""/>
<glyph glyph-name="currency" horiz-adv-x="1452" unicode="" d="M240 448l78 79h-186l-80 -79h188zM232 1011l-86 -84l75 -80q-58 -62 -78.5 -107t-20.5 -110q0 -36 9 -81h197q-36 89 -36 178q0 99 40 181zM726 893q72 0 121 -54q42 -46 42 -110q0 -67 -48 -114t-118 -47t-119 54q-41 46 -41 108q0 68 47 115t116 48zM726 928 q-87 0 -146 -65q-51 -56 -51 -132q0 -88 65 -146q56 -51 129 -51q91 0 149 65q51 57 51 131q0 87 -65 147q-54 50 -132 51zM919 1048l109 109l125 -124l-109 -109q54 -92 54 -193q0 -103 -54 -194l109 -109l-125 -124l-108 108q-92 -54 -194 -54q-104 0 -193 55l-109 -109 l-125 124l109 109q-54 92 -54 193q0 103 54 194l-109 109l125 124l109 -109q94 55 194 55q103 0 192 -55zM914 1091q-102 46 -186 46q-51 0 -89 -9.5t-101 -36.5l-114 115l-173 -173l114 -115q-27 -61 -36 -99t-9 -89q0 -50 9 -88t37 -99l-115 -115l173 -172l114 114 q61 -27 99 -36.5t89 -9.5t89 9.5t99 36.5l114 -114l173 172l-114 115q45 103 45 188t-45 188l114 114l-173 173zM1348 923l-73 -76q84 -95 84 -224q0 -45 -15 -96l108 -109l-429 -422l-110 110q-97 -59 -188 -59q-59 0 -98 12.5t-84 45.5l-113 -110l-430 432l107 100 q-11 59 -11 96q0 65 20 115t70 111l-79 80l320 316l122 -121q91 38 177 38q90 0 179 -40l123 123z"/>
<glyph glyph-name="yen" d="M457 643l-209 -199v-415l209 198v416zM248 1316l-199 -192l111 -336l88 84h148zM248 832l-199 -184v-154l199 183v155zM524 711h-215v104h177l-157 489h181l114 -334l99 334h174l-136 -489h193v-104h-223v-431h-207v431zM490 677v-431h274v431h224v172h-183l136 489h-245 l-75 -255l-86 255h-254l159 -489h-166v-172h216zM215 418h-197v241l116 105l-116 368l243 233h298l59 -180l53 180h297l239 -214l-101 -361l156 -139v-233h-229v-418h-818v418z" unicode=""/>
<glyph glyph-name="brokenbar" horiz-adv-x="1024" unicode="" d="M416 314h191v-655h-191v655zM416 1365h191v-691h-191v691z"/>
<glyph glyph-name="section" d="M318 147q-31 43 -41 90.5t-10 145.5l-208 -205q-1 -107 92 -201zM272 606q-20 43 -20 92q0 29 8 64l-120 -122q-51 -53 -67.5 -86.5t-16.5 -86.5q0 -28 8 -72zM290 983q-15 51 -15 92q0 50 20 107l-137 -133q-78 -76 -78 -174q0 -35 21 -76zM613 771q54 0 54 -42t-55 -42 q-54 0 -54 42q0 41 55 42zM613 805q-41 0 -65 -21t-24 -57q0 -34 23.5 -54t63.5 -20q41 0 65.5 20.5t24.5 54.5q0 35 -23.5 55.5t-64.5 21.5zM877 1086h-185q-3 93 -75 93q-32 0 -55 -20.5t-23 -49.5q0 -55 100 -104q102 -50 148 -79q117 -73 117 -200q0 -113 -107 -177 q54 -54 76.5 -100.5t22.5 -107.5q0 -106 -77 -173q-81 -72 -217 -72q-120 0 -195 61q-45 36 -57 76.5t-13 153.5h184q0 -65 6 -86q13 -54 79 -54q85 0 85 82q0 58 -55 102q-23 18 -142 75q-172 81 -172 205q0 100 126 176q-59 46 -82 88t-23 103q0 123 88 190q75 56 194 56 q75 0 135 -26t86 -70q31 -51 31 -142zM911 1052v40q0 150 -92 213q-79 53 -195 53q-152 0 -238 -85q-77 -75 -77 -194q0 -113 82 -188q-59 -49 -81.5 -88t-22.5 -92q0 -146 192 -236q125 -59 146 -80q32 -30 32 -67q0 -47 -51 -47q-39 0 -46 28q-3 12 -5 112h-252 q0 -116 6 -158q14 -98 104 -153q80 -49 189 -49q175 0 267 108q61 72 61 172q0 112 -80 202q53 52 70.5 89t17.5 95q0 102 -58 165.5t-225 143.5q-81 38 -81 73q0 14 13 25t30 11q24 0 32.5 -16.5t8.5 -62.5v-14h253zM23 200l55 52q-60 97 -60 192q0 80 29.5 138.5 t97.5 112.5q-98 80 -98 182q0 57 22.5 99.5t86.5 106.5l171 170q72 72 138 101.5t157 29.5q162 0 237 -78l175 -179q66 -68 106.5 -157.5t40.5 -167.5v-17h-33q60 -101 60 -216q0 -84 -22 -142t-74 -110q74 -87 74 -187q0 -160 -158 -258q-71 -44 -155.5 -61.5t-223.5 -17.5 q-171 0 -286.5 29t-199.5 94q-76 58 -108 123t-32 161z" unicode=""/>
<glyph glyph-name="dieresis" horiz-adv-x="1024" unicode="" d="M35 1306l180 146v198l-180 -160v-184zM602 1497v140h150v-140h-150zM568 1462h218v209h-218v-209zM282 1497v140h143v-140h-143zM248 1462h212v208h-212v-208zM9 1272v229l218 200h258l52 -52v52h277l201 -200v-229h-1006z"/>
<glyph glyph-name="copyright" horiz-adv-x="1783" unicode="" d="M949 734h107v-46q0 -73 -20 -112q-42 -79 -146 -79t-144 76q-19 37 -19 115v223q0 191 173 191q72 0 114 -38.5t42 -104.5v-85h-107v91q0 54 -57 54q-56 0 -56 -54v-319q0 -35 13 -49t45 -14q55 0 55 63v88zM915 768v-122q0 -29 -21 -29q-15 0 -19 5t-4 24v319 q0 20 17 20t22 -3.5t5 -16.5v-125h175v119q0 63 -33 106q-55 71 -157 71q-99 0 -153 -58.5t-54 -166.5v-223q0 -87 23 -130q50 -95 174 -95t176 97q24 46 24 128v80h-175zM892 1208q184 0 309 -138q107 -119 107 -282q0 -108 -56 -205t-152 -152q-97 -56 -215 -56 q-83 0 -164 36.5t-139 101.5q-107 119 -107 278q0 183 138 310q114 104 279 107zM892 1242q-199 0 -335 -149q-116 -128 -116 -302q0 -200 149 -334q129 -116 295 -116q208 0 342 149q116 129 116 298q0 201 -150 338q-123 113 -301 116zM892 1337q242 0 406 -181 q140 -155 140 -369q0 -142 -73 -269t-200 -200t-282 -73q-137 0 -264 73q-127 74 -200 200q-73 128 -73 273q0 240 181 405q150 137 365 141zM892 1371q-257 0 -432 -192q-149 -165 -149 -388q0 -155 78 -290t212 -212q135 -78 281 -78q268 0 441 192q82 91 120 207 q29 90 29 177q0 259 -193 435q-159 145 -387 149zM357 1081l-131 -135q-64 -66 -104 -163t-40 -187q0 -141 77 -265t216 -208l160 170q-82 60 -129 121q-58 74 -91 174.5t-33 202.5q0 134 75 290zM248 1015l159 155q89 87 122 113t88 54q126 64 279 64q144 0 257 -52.5 t230 -174.5l153 -159q99 -103 140 -183q60 -118 60 -242q0 -166 -102 -312q-123 -175 -353 -257q-171 -60 -389 -60q-362 0 -593 167q-151 109 -216 275q-35 92 -35 188q0 230 200 424z"/>
<glyph glyph-name="ordfeminine" horiz-adv-x="1096" unicode="" d="M283 597v166l-208 -209v-164zM350 867q-52 99 -52 216q0 89 26 171l-126 -128q-105 -107 -105 -255q0 -119 75 -183zM350 642v101h398v-101h-398zM316 607h466v170h-466v-170zM544 1094q0 -75 -12 -75q-10 0 -10 76t10 76q12 -1 12 -77zM533 1212q-46 0 -46 -122 q0 -121 46 -121q44 0 44 120q0 122 -44 123zM568 1315h127v-453h-127v51q-33 -60 -84 -60q-56 0 -89.5 64.5t-33.5 172.5q0 111 32 172.5t90 61.5q54 0 85 -65v56zM541 1349q-36 8 -55 8q-76 0 -117.5 -69.5t-41.5 -197.5q0 -129 46 -204q18 -29 48 -48t57 -19q20 0 56 11 l195 -2v521h-188zM1001 1132v-527l48 -49v-201h-1001v211l97 99q-80 77 -80 205q0 155 106 263l164 167q55 55 78.5 70t56.5 15q13 0 43 -2q10 -1 29 -1h216z"/>
<glyph glyph-name="guillemotleft" horiz-adv-x="1137" unicode="" d="M671 577l-130 211l117 208h112l-118 -209l129 -210h-110zM652 543h191l-152 245l137 242h-190l-137 -242zM410 577l-124 211l124 208h106l-120 -208l120 -211h-106zM391 543h184l-140 245l140 243h-184l-145 -243zM119 671l82 91l126 221zM229 339l140 175l-140 234 l-159 -178zM211 301l-184 269l322 494h516l188 -156l-141 -262l170 -345h-871z"/>
<glyph glyph-name="logicalnot" horiz-adv-x="1024" unicode="" d="M764 0v368h-696v178h887v-546h-191z"/>
<glyph glyph-name="sfthyphen" horiz-adv-x="1009" unicode="" d="M293 696v169h398v-169h-398zM259 662h466v238h-466v-238zM31 454l193 194v236l-193 -191v-239zM0 400v309l224 224h521l264 -224v-309h-1009z"/>
<glyph glyph-name="registered" horiz-adv-x="1783" unicode="" d="M880 879v84h24q10 0 10 -18v-50q0 -11 -2.5 -13.5t-12.5 -2.5h-19zM846 845h53q49 0 49 47v6v47q1 52 -42 52h-2h-58v-152zM1066 508h-95q-17 0 -19.5 4t-3.5 35v148q2 60 -48 60h-2h-52v-247h-114v583h185h9q133 0 133 -115v-138q0 -47 -42 -71q44 -22 42 -66v-141 q0 -31 7 -52zM1113 474q-20 45 -20 86v142q0 40 -22 66q21 27 22 71v137q0 74 -44.5 112t-131.5 38h-220v-652h183v247h18q11 0 13.5 -4t2.5 -22v-153q-1 -68 52 -68h3h144zM892 1208q184 0 309 -138q107 -118 107 -282q0 -108 -56 -205q-56 -96 -152 -152q-97 -56 -215 -56 q-84 0 -164.5 36.5t-138.5 101.5q-107 119 -107 278q0 184 138 310q114 104 279 107zM892 1242q-199 0 -335 -149q-116 -128 -116 -302q0 -200 149 -334q129 -116 295 -116q208 0 342 149q116 129 116 298q0 201 -150 338q-123 113 -301 116zM892 1337q242 0 406 -181 q140 -155 140 -369q0 -142 -73 -269t-200 -200t-282 -73q-137 0 -264 73q-127 74 -200 200q-73 128 -73 273q0 240 181 405q150 137 365 141zM892 1371q-257 0 -432 -192q-149 -165 -149 -388q0 -155 78 -290t212 -212q135 -78 281 -78q268 0 441 192q82 91 120 207 q29 90 29 177q0 259 -193 435q-159 145 -387 149zM357 1081l-131 -135q-64 -66 -104 -163t-40 -187q0 -141 77 -265t216 -208l160 170q-82 60 -129 121q-58 74 -91 174.5t-33 202.5q0 134 75 290zM248 1015l159 155q89 87 122 113t88 54q126 64 279 64q144 0 257 -52.5 t230 -174.5l153 -159q99 -103 140 -183q60 -118 60 -242q0 -166 -102 -312q-123 -175 -353 -257q-171 -60 -389 -60q-362 0 -593 167q-151 109 -216 275q-35 92 -35 188q0 230 200 424z"/>
<glyph glyph-name="overscore" horiz-adv-x="1024" unicode="" d="M0 1789h1024v-172h-1024v172z"/>
<glyph glyph-name="degree" horiz-adv-x="1190" unicode="" d="M397 853q-105 127 -105 219q0 33 20 120l-138 -137q-93 -93 -93 -207q0 -118 115 -197zM595 1137q20 0 33.5 -14t13.5 -33q0 -20 -14 -33.5t-34 -13.5q-19 0 -32.5 14t-13.5 33t13.5 33t33.5 14zM595 1171q-33 0 -57 -24t-24 -57q0 -34 23.5 -58t56.5 -24q34 0 58 23.5 t24 57.5t-23.5 57.5t-57.5 24.5zM595 1331q107 0 179 -80q62 -68 62 -163q0 -106 -80 -178q-69 -62 -165 -62q-103 0 -175 80q-62 68 -62 161q0 107 80 180q66 60 161 62zM595 1365q-122 0 -204 -91q-71 -78 -71 -185q0 -123 91 -204q79 -71 180 -71q127 0 209 91 q70 78 70 182q0 124 -91 207q-76 69 -184 71zM847 1260l184 -183q111 -110 111 -244q0 -293 -553 -293q-138 0 -230.5 18t-164.5 59q-68 38 -107.5 99t-39.5 127q0 120 110 230l177 176q62 65 86 84q72 57 174 57q92 0 171 -49q16 -11 82 -81z"/>
<glyph glyph-name="plusminus" d="M320 296v150h561v-150h-561zM286 262h630v219h-630v-219zM58 53l193 195v219l-193 -193v-221zM451 960v150l-153 -150h153zM449 656l-146 -141h146v141zM59 718v-212l184 174v222zM517 741h-205v150h205v192h150v-192h206v-150h-206v-192h-150v192zM483 707v-192h219v192 h206v218h-206v193h-219v-193h-205v-218h205zM192 454h-167v273l424 425h287l465 -425v-273h-195l194 -164v-290h-1173v290z" unicode=""/>
<glyph glyph-name="twosuperior" horiz-adv-x="770" unicode="" d="M171 1094v48q0 45 11 84l-33 -31q-60 -55 -76 -86t-16 -90v-37zM171 652v87q0 106 26 163t119 156q-141 -104 -193.5 -200.5t-52.5 -251.5q0 -14 1 -49zM554 799v-98h-330v34q0 97 25.5 150t125.5 159q39 42 53 69t14 61q0 67 -48 67q-51 0 -51 -72v-41h-119v17 q0 61 26 103q50 82 147 82q64 0 110.5 -42.5t46.5 -101.5v-41q0 -43 -15 -71t-77 -97q-60 -67 -76.5 -94.5t-16.5 -60.5q0 -7 1 -23h184zM582 826h-185q0 23 15.5 47t70.5 86q65 73 82 105t17 82v40q0 55 -37 101q-55 69 -148 69q-55 0 -103 -28t-74 -76q-24 -45 -24 -114 v-37h174v68q0 45 25 45q20 0 20 -36q0 -38 -14.5 -60.5t-98.5 -110.5q-61 -64 -83.5 -122.5t-22.5 -150.5v-61h386v153zM591 835l143 -145v-171h-684q-6 52 -6 92q0 107 24.5 182.5t86.5 157.5h-124v64q0 68 18 103.5t85 99.5l103 98q69 66 158 66q94 0 157 -64l113 -115 q43 -43 58.5 -75t15.5 -78q0 -49 -19.5 -82t-76.5 -78q-42 -34 -52 -55z"/>
<glyph glyph-name="threesuperior" horiz-adv-x="770" unicode="" d="M167 1116v39q0 32 7 65l-50 -49q-45 -44 -56.5 -70.5t-12.5 -92.5zM166 915l14 12h83v159l-97 -91v-80zM206 737q-19 27 -27 55t-11 86l-101 -99q8 -31 25 -65.5t35 -52.5zM318 966v97h58h4q56 0 55 58v65q0 55 -47 55q-22 0 -36 -15.5t-14 -39.5v-38h-116v11q0 47 23 87 q22 38 62 60.5t85 22.5q62 0 109.5 -43t47.5 -100v-114q0 -22 -33 -51q33 -22 33 -44v-106q0 -61 -22 -99q-47 -82 -142 -82q-94 0 -139 73q-23 38 -24 111h116v-28q0 -66 47 -66q50 0 50 66v71q1 49 -50 49h-4h-63zM290 938h90q28 0 27 -22v-71q0 -38 -23 -38q-20 0 -20 38 v56h-170v-21q0 -86 28 -132q54 -86 161 -86q87 0 140 57.5t53 150.5v107q0 23 -19 46q19 25 19 49v114q0 68 -55.5 119t-129.5 51q-55 0 -102.5 -28.5t-72.5 -77.5q-22 -42 -22 -101v-28h170v65q0 28 23 28q20 0 20 -28v-65q0 -21 -5 -26t-27 -5h-85v-152zM138 887v91h-110 v40q0 62 15 95t64 81l118 115q74 72 164 72t156 -63l109 -106q51 -49 67.5 -84.5t16.5 -93.5v-74q0 -39 -7 -56t-30 -38q28 -32 28 -68q0 -73 -63 -155q-108 -141 -283 -141q-112 0 -207 65q-98 67 -143 216z"/>
<glyph glyph-name="acute" horiz-adv-x="1024" unicode="" d="M478 1488l57 157h117l-104 -157h-70zM429 1453h138l148 226h-204zM265 1339l131 112l80 207zM179 1257l298 451h262l215 -257l-160 -194h-615z"/>
<glyph glyph-name="mu" horiz-adv-x="1024" unicode="" d="M80 -347v1330h191v-543q0 -104 16 -159t58 -95q68 -65 165 -65q110 0 178 87q36 46 50.5 101t14.5 145v529h191v-983h-191v153q-36 -77 -76 -113q-71 -64 -172 -64q-77 0 -132.5 33.5t-101.5 107.5v-464h-191z"/>
<glyph glyph-name="paragraph" d="M515 735l-188 -193v-675l188 190v678zM101 683l193 192q-21 67 -21 147q0 85 23 166l-156 -163q-41 -43 -57 -84t-16 -104q0 -85 34 -154zM578 800q-34 -1 -48 -1q-109 0 -151 49.5t-42 178.5q0 157 64.5 217t232.5 60h275v-1188h-149v1079h-33v-1079h-149v684zM543 765 v-683h400v1256h-310q-182 0 -256.5 -70t-74.5 -242q0 -147 52.5 -204t188.5 -57zM1211 1120v-1284h-915v687q-103 10 -159 54q-102 81 -102 253q0 70 23 121.5t79 109.5l172 178q70 72 122 95q75 30 228 31h317z" unicode=""/>
<glyph glyph-name="middot" horiz-adv-x="819" unicode="" d="M318 756v171h184v-171h-184zM277 716h266v252h-266v-252zM35 516l203 177v243l-203 -189v-231zM0 478v282l259 247h307l253 -260v-269h-819z"/>
<glyph glyph-name="cedilla" horiz-adv-x="1024" unicode="" d="M442 9v125h152v-147l-69 -82h-35l45 104h-93zM408 -25h75l-45 -104h103l87 104v193h-220v-193zM259 -267l128 100l39 92l-115 -103zM199 -178l178 152v191l-178 -154v-189zM170 -216v243l207 177h274l203 -209v-211h-97l69 -112h-627l50 112h-79z"/>
<glyph glyph-name="onesuperior" horiz-adv-x="770" unicode="" d="M128 1074l118 106v84l-118 -109v-81zM165 556l121 111v495l-121 -111v-495zM339 700v518h-41v58l41 39h115v-615h-115zM311 673h170v669h-154l-57 -54v-97h41v-518zM139 519v516h-36v131l214 199h192l142 -146v-700h-512z"/>
<glyph glyph-name="ordmasculine" horiz-adv-x="1092" unicode="" d="M284 576v185l-214 -209v-183zM366 884q-55 81 -55 197q0 70 21 147l-163 -169q-85 -88 -85 -205q0 -99 69 -183zM347 642v101h398v-101h-398zM313 607h466v170h-466v-170zM535 1069v22v22q0 55 10 55q12 0 12 -78q0 -76 -12 -76q-10 0 -10 55zM547 1210q-46 0 -46 -122 t46 -122q44 0 44 121q0 122 -44 123zM547 1324q83 0 127 -61.5t44 -177.5q0 -101 -38 -161q-44 -71 -133 -71q-91 0 -134 73q-38 67 -38 162q0 110 45.5 172t126.5 64zM547 1358q-111 0 -164 -90q-43 -74 -43 -179t43 -180q53 -90 164 -90q96 0 150.5 70.5t54.5 195.5 q0 119 -43 186q-55 86 -162 87zM1053 558v-203h-1010v205l95 87q-47 61 -63.5 102t-16.5 98q0 140 116 255l176 173q71 72 105.5 91t92.5 19q52 0 91.5 -19t87.5 -67l187 -191q112 -115 112 -267q0 -110 -59 -195z"/>
<glyph glyph-name="guillemotright" horiz-adv-x="1191" unicode="" d="M640 574l131 217l-111 207h114l113 -205l-134 -219h-113zM580 540h192l155 252l-133 240h-191l129 -240zM390 574l127 219l-125 205h124l113 -205l-133 -219h-106zM331 540h184l154 252l-133 240h-205l146 -240zM292 690l147 95l-141 231l-143 -107zM137 382l133 118 l127 218l-109 -72zM266 673l-156 242l201 149h509l344 -480l-203 -283h-906z"/>
<glyph glyph-name="onequarter" horiz-adv-x="1458" unicode="" d="M831 1235l-159 -302l97 68l163 310zM312 131l239 454l-102 -76l-234 -446zM718 190l113 103v108l-113 -99v-112zM933 36l108 98v159l-108 -102v-155zM1071 463h-26l26 43v-43zM1099 436v167l-102 -167h102zM1095 182v159h-211v95l215 360h117v-360h49v-95h-49v-159h-121z M1067 154h176v159h49v150h-49v360h-160l-226 -380v-130h210v-159zM510 182h-96l594 1129h100zM534 149l625 1189h-178l-624 -1189h177zM128 1074l118 106v84l-118 -109v-81zM165 556l121 111v495l-121 -111v-495zM339 700v518h-41v58l41 39h115v-615h-115zM311 673h170v669 h-154l-57 -54v-97h41v-518zM651 947l156 297l173 121h205l119 -115l-212 -403h164l147 -150v-345l48 -47v-150h-48v-155h-498v155h-178l-82 -155h-492l273 519h-287v516h-36v131l214 199h192l142 -146v-272z"/>
<glyph glyph-name="onehalf" horiz-adv-x="1458" unicode="" d="M831 1234l-159 -301l97 68l163 309zM312 131l239 454l-101 -76l-235 -446zM859 133v87q0 106 26 163t119 156q-141 -104 -193.5 -200.5t-52.5 -251.5q0 -13 1 -49zM1242 280v-98h-330v34q0 97 25.5 150t125.5 159q39 42 53 68.5t14 61.5q0 67 -48 67q-51 0 -51 -72v-41 h-119v17q0 61 26 103q50 82 147 82q64 0 110.5 -42.5t46.5 -101.5v-41q0 -43 -15 -71t-77 -97q-60 -67 -76.5 -94.5t-16.5 -60.5q0 -7 1 -23h184zM1270 307h-185q0 23 15 46.5t71 86.5q65 73 82 105t17 82v41q0 54 -37 100q-55 70 -148 70q-55 0 -102.5 -28t-73.5 -76 q-24 -45 -24 -115v-37h173v69q0 44 24 44q21 0 21 -36q0 -38 -14.5 -60t-98.5 -112q-60 -64 -82.5 -121.5t-22.5 -149.5v-62h385v153zM511 182h-97l594 1129h100zM534 149l625 1189h-178l-624 -1189h177zM128 1074l118 106v84l-118 -109v-81zM165 556l121 111v495l-121 -111 v-495zM339 700v518h-41v58l41 39h115v-615h-115zM311 673h170v669h-154l-57 -54v-97h41v-518zM651 946l156 298l173 121h205l120 -115l-204 -387q81 -6 138 -63l114 -116q43 -43 58.5 -75t15.5 -78q0 -49 -20 -82t-76 -78q-42 -33 -52 -55l143 -145v-171h-684q-6 52 -6 94 q0 36 4 79l-91 -173h-492l273 519h-287v516h-36v131l214 199h192l142 -146v-273z"/>
<glyph glyph-name="threequarters" horiz-adv-x="1458" unicode="" d="M312 131l239 454l-102 -76l-234 -446zM718 190l113 103v108l-113 -99v-112zM932 36l109 98v159l-109 -102v-155zM1071 463h-26l26 43v-43zM1098 436v167l-102 -167h102zM1094 182v159h-210v95l214 360h117v-360h49v-95h-49v-159h-121zM1067 154h176v159h49v150h-49v360 h-160l-226 -380v-130h210v-159zM511 182h-97l594 1129h100zM534 149l625 1189h-178l-623 -1189h176zM167 1116v39q0 32 7 65l-50 -49q-45 -43 -56.5 -70t-12.5 -93zM166 915l14 12h83v159l-97 -91v-80zM206 737q-19 27 -27 55t-11 86l-101 -99q8 -31 25 -65.5t35 -52.5z M318 966v97h58h4q56 0 55 58v65q0 55 -47 55q-22 0 -36 -15.5t-14 -39.5v-38h-116v11q0 47 23 87q22 38 62 60.5t85 22.5q62 0 109.5 -43t47.5 -100v-114q0 -22 -33 -51q33 -22 33 -44v-106q0 -61 -22 -99q-47 -82 -142 -82q-94 0 -139 73q-23 38 -24 111h116v-29 q0 -65 47 -65q50 0 50 65v72q1 49 -50 49h-4h-63zM290 938h90q27 0 27 -22v-70q0 -38 -23 -38q-20 0 -20 38v55h-170v-21q0 -85 28 -131q54 -86 161 -86q87 0 140 57t53 151v106q0 23 -19 46q19 25 19 49v114q0 68 -55.5 119t-129.5 51q-87 0 -142 -58t-55 -149v-28h170v65 q0 28 23 28q20 0 20 -28v-65q0 -21 -5 -26t-27 -5h-85v-152zM1092 847h165l146 -149v-346l47 -47v-150h-47v-155h-498v155h-179l-82 -155h-491l265 504q-27 -2 -37 -2q-110 0 -205 65q-98 68 -143 217l105 103v91h-110v40q0 61 15 94.5t64 81.5l118 115q74 72 164 72 t156 -63l109 -106q40 -39 52 -56.5t25 -56.5l76 145l173 121h205l120 -115z"/>
<glyph glyph-name="questiondown" horiz-adv-x="1155" unicode="" d="M740 1036q-6 -88 -32 -141.5t-93 -118.5q-87 -85 -110 -126t-23 -112q0 -108 81 -108q87 0 87 124v94h195v-78q0 -83 -35 -147q-32 -59 -93 -97q-72 -46 -158 -46q-135 0 -214 104q-59 77 -59 182q0 78 29 131t120 140q55 53 75.5 92t27.5 107h202zM776 1071h-271v-21 q0 -55 -20.5 -96.5t-73.5 -91.5q-82 -80 -109 -123q-50 -79 -50 -173q0 -117 66 -203q90 -117 241 -117q138 0 229 92t91 232v112h-263v-128q0 -49 -12 -69.5t-40 -20.5q-47 0 -47 75q0 62 20.5 98t101.5 114q77 75 104.5 139t32.5 181zM742 1300v-160h-203v160h203z M776 1333h-272v-228h272v228zM308 928l167 156v211l-167 -165v-202zM290 348q-68 109 -68 218q0 129 88 232q18 21 95 98q56 59 63 96q-16 -16 -81 -84q-25 -25 -159 -139q-104 -90 -146.5 -159.5t-42.5 -151.5q0 -136 103 -244zM891 704l223 -229q-21 -117 -65 -207 q-56 -115 -149 -179q-137 -94 -329 -94q-146 0 -276 61q-136 64 -219 186q-69 102 -69 223q0 163 200 325q87 71 104 88l-35 23v244l221 220h316l195 -201v-263z"/>
<glyph glyph-name="Agrave" horiz-adv-x="1294" unicode="" d="M576 1499l-98 145h127l55 -145h-84zM558 1464h151l-80 214h-215zM195 1463l158 -173l171 173l-134 197zM614 758l10 96l17 -96h-27zM576 723h105l-57 333zM516 1304h221l211 -1024h-198l-43 269h-151l-34 -269h-189zM487 1338l-195 -1092h260l34 269h92l43 -269h269 l-225 1092h-278zM29 34l233 205l196 1091l-238 -226zM340 1258l-186 205l240 245h247l308 -450h-31l151 -119l231 -1139h-568l-41 239h-107l-25 -239h-566l201 1122z"/>
<glyph glyph-name="Aacute" horiz-adv-x="1294" unicode="" d="M599 1488l57 157h117l-103 -157h-71zM550 1453h138l149 226h-205zM386 1339l132 112l79 207zM614 758l10 96l17 -96h-27zM576 723h105l-57 333zM516 1304h221l211 -1024h-198l-43 269h-151l-34 -269h-189zM487 1338l-195 -1092h260l34 269h92l43 -269h269l-225 1092h-278 zM29 34l233 205l196 1091l-238 -226zM340 1258h-40l299 450h261l215 -257l-158 -192l152 -120l231 -1139h-568l-41 239h-107l-25 -239h-566l201 1122z"/>
<glyph glyph-name="Acircumflex" horiz-adv-x="1294" unicode="" d="M417 1491l112 153h208l115 -153h-109l-113 124l-112 -124h-101zM350 1457h183l97 108l98 -108h193l-167 222h-243zM305 1442l111 158l-199 -221zM614 758l10 96l17 -96h-27zM576 723h105l-57 333zM516 1304h221l211 -1024h-198l-43 269h-151l-34 -269h-189zM487 1338 l-195 -1092h260l34 269h92l43 -269h269l-225 1092h-278zM29 34l233 205l196 1091l-238 -226zM355 1273h-262l384 435h294l375 -435h-246l169 -134l231 -1139h-568l-41 239h-107l-25 -239h-566l201 1122z"/>
<glyph glyph-name="Atilde" horiz-adv-x="1294" unicode="" d="M375 1490v24q0 71 21 101.5t71 30.5q40 0 127 -26q89 -26 125 -26q48 0 85 51h62q0 -68 -12 -101q-11 -29 -36 -47.5t-53 -18.5q-32 0 -124 32q-87 31 -120 31q-54 0 -80 -51h-66zM341 1456h126q8 52 54 52q27 0 108 -29q98 -35 137 -35q63 0 99 50t36 138q0 21 -3 47 h-117q-16 -51 -65 -51q-27 0 -112 25q-93 27 -136 27q-66 0 -96.5 -40t-30.5 -126v-58zM312 1416v104q1 69 21 107q-65 -34 -111 -122.5t-46 -179.5q0 -23 4 -57zM614 758l10 96l16 -96h-26zM576 723h105l-57 333zM516 1304h221l211 -1024h-198l-43 269h-151l-34 -269h-189z M487 1338l-195 -1092h260l34 269h92l43 -269h269l-225 1092h-278zM29 34l233 205l196 1091l-238 -226zM308 1228h-153q-4 57 -4 94q0 163 103 275q103 111 215 111q42 0 138 -29q73 -22 97 -22q46 0 59 50h159l190 -187q1 -30 1 -43q0 -97 -40.5 -150.5t-136.5 -83.5 l133 -104l231 -1139h-568l-41 239h-107l-25 -239h-566l201 1121z"/>
<glyph glyph-name="Adieresis" horiz-adv-x="1294" unicode="" d="M149 1306l180 146v198l-180 -160v-184zM716 1497v140h150v-140h-150zM682 1462h219v209h-219v-209zM397 1497v140h143v-140h-143zM363 1462h212v209h-212v-209zM615 758l10 96l16 -96h-26zM576 723h105l-57 333zM516 1304h221l211 -1024h-198l-43 269h-151l-34 -269h-189 zM487 1338l-195 -1092h259l35 269h91l44 -269h268l-225 1092h-277zM29 34l232 205l197 1091l-238 -226zM355 1273h-232v228l218 200h258l52 -51v51h277l201 -200v-228h-230l169 -134l232 -1139h-568l-42 239h-106l-25 -239h-566l201 1122z"/>
<glyph glyph-name="Aring" horiz-adv-x="1294" unicode="" d="M618 1557q-17 0 -28.5 -11.5t-11.5 -27.5q0 -17 11.5 -28.5t28.5 -11.5q16 0 27.5 11.5t11.5 28.5q0 16 -11 27t-28 12zM620 1616q39 0 67.5 -29t28.5 -69t-28.5 -68.5t-69.5 -28.5q-40 0 -68.5 28.5t-28.5 69.5t29 69t70 28zM621 1650q-56 0 -95 -38t-39 -93t38.5 -94 t93.5 -39t93.5 38.5t38.5 93.5q0 54 -37.5 92t-92.5 40zM501 1403q-48 49 -48 113q0 17 6 42l-112 -102q-36 -33 -47.5 -53.5t-11.5 -50.5t13 -58t33 -42zM614 758l10 96l17 -96h-27zM576 723h105l-57 333zM516 1304h221l211 -1024h-198l-43 269h-151l-34 -269h-189z M487 1338l-195 -1092h260l34 269h92l43 -269h269l-225 1092h-278zM29 34l233 205l196 1091l-238 -226zM311 1231q-54 54 -54 121q0 39 15.5 65t66.5 72l144 129q69 62 135 62q75 0 138 -74l100 -117q64 -76 64 -140q0 -33 -20 -76l169 -134l231 -1139h-568l-41 239h-107 l-25 -239h-566l201 1121z"/>
<glyph glyph-name="AE" horiz-adv-x="1654" unicode="" d="M768 758l30 97l-3 -97h-27zM723 723h105l11 334zM1319 1304v-155h-280v-271h280v-162h-280v-292h280v-144h-512l11 269h-150l-89 -269h-189l391 1024h538zM1353 1338h-594l-417 -1092h259l90 269h91l-11 -269h582v212h-280v223h280v231h-280v203h280v223zM308 238 l418 1090l-280 -222l-408 -1071zM1373 1365l233 -234v-224h-233l233 -226v-225h-233l233 -228v-228h-1613l429 1122l310 243h641z"/>
<glyph glyph-name="Ccedilla" horiz-adv-x="1223" unicode="" d="M542 9v125h152v-147l-69 -82h-35l45 104h-93zM507 -25h76l-45 -104h103l87 104v193h-221v-193zM360 -267l126 100l39 92l-114 -103zM299 -178l177 152v191l-177 -154v-189zM699 677h188v-80q0 -81 -6.5 -118.5t-29.5 -77.5q-31 -58 -86 -95q-69 -45 -151 -45 q-75 0 -138.5 36.5t-96.5 97.5q-21 40 -27 76t-6 126v391q0 154 60 229q86 105 223 105q133 0 213 -102q27 -35 36 -65t9 -84v-149h-188v160q0 94 -79 94q-37 0 -59.5 -25.5t-22.5 -68.5v-559q0 -111 81 -111q80 0 80 111v154zM665 711v-188q0 -77 -46 -77q-26 0 -36.5 17.5 t-10.5 59.5v559q0 59 48 59q45 0 45 -59v-194h256v184q0 59 -11 94.5t-41 74.5q-90 115 -240 115q-78 0 -148 -36t-114 -98q-56 -80 -56 -234v-391q0 -96 6.5 -135t31.5 -83q32 -60 91 -100q79 -52 174 -52q126 0 215 88q53 52 72.5 111.5t19.5 170.5v114h-256zM199 193 l143 139q-36 50 -48 103t-12 162v383q0 83 7.5 124t29.5 84l-109 -110q-82 -81 -107.5 -131.5t-25.5 -132.5v-236q0 -137 25.5 -216.5t96.5 -168.5zM903 47l51 -52v-211h-97l68 -112h-626l50 112h-79v244l35 30q-136 91 -196.5 213.5t-60.5 306.5v236q0 89 28 144.5 t115 140.5l173 168q121 118 264 118q142 0 264 -121l145 -143q84 -82 111 -142.5t27 -164.5v-107h-223l223 -227q-6 -126 -78.5 -242t-193.5 -191z"/>
<glyph glyph-name="Egrave" horiz-adv-x="1189" unicode="" d="M565 1499l-98 145h127l55 -145h-84zM546 1464h152l-81 214h-214zM184 1463l89 -98h142l98 98l-134 197zM373 280v1024h481v-155h-280v-271h280v-162h-280v-292h280v-144h-481zM339 246h549v212h-280v223h280v231h-280v203h280v223h-549v-1092zM97 27l213 201v1088 l-213 -219v-1070zM271 1320l-128 143l240 245h247l234 -343h44l233 -234v-224h-233l233 -226v-225h-233l233 -228v-228h-1073v1111z"/>
<glyph glyph-name="Eacute" horiz-adv-x="1189" unicode="" d="M560 1488l58 157h117l-104 -157h-71zM511 1453h138l149 226h-204zM558 1658l-188 -291l109 84zM373 280v1024h481v-155h-280v-271h280v-162h-280v-292h280v-144h-481zM339 246h549v212h-280v223h280v231h-280v203h280v223h-549v-1092zM97 27l213 201v1088l-213 -219 v-1070zM333 1365l227 343h261l215 -257l-97 -117l202 -203v-224h-233l233 -226v-225h-233l233 -228v-228h-1073v1111l247 254h18z"/>
<glyph glyph-name="Ecircumflex" horiz-adv-x="1189" unicode="" d="M379 1491l111 153h208l116 -153h-110l-112 124l-113 -124h-100zM312 1457h182l98 108l97 -108h193l-167 222h-242zM267 1442l111 158l-199 -221zM373 280v1024h481v-155h-280v-271h280v-162h-280v-292h280v-144h-481zM339 246h549v212h-280v223h280v231h-280v203h280v223 h-549v-1092zM97 27l213 201v1088l-213 -219v-1070zM225 1273h-171l384 435h295l374 -435h-107l141 -142v-224h-233l233 -226v-225h-233l233 -228v-228h-1073v1111z"/>
<glyph glyph-name="Edieresis" horiz-adv-x="1189" unicode="" d="M117 1306l181 146v198l-181 -160v-184zM685 1497v140h150v-140h-150zM651 1462h218v209h-218v-209zM365 1497v140h143v-140h-143zM331 1462h212v209h-212v-209zM373 280v1024h481v-155h-280v-271h280v-162h-280v-292h280v-144h-481zM339 246h549v212h-280v223h280v231 h-280v203h280v223h-549v-1092zM97 27l213 201v1088l-213 -219v-1070zM225 1273h-134v228l219 200h257l52 -51v51h278l201 -200v-228h-97l140 -142v-224h-233l233 -226v-225h-233l233 -228v-228h-1073v1111z"/>
<glyph glyph-name="Igrave" horiz-adv-x="935" unicode="" d="M451 1499l-98 145h128l55 -145h-85zM433 1464h152l-80 214h-215zM71 1463l158 -173l171 173l-134 197zM371 280v1024h189v-1024h-189zM336 246h258v1092h-258v-1092zM96 31l211 201v1087l-211 -203v-1085zM206 1265l-177 198l240 245h248l308 -450h-88l130 -126v-1132 h-799v1132z"/>
<glyph glyph-name="Iacute" horiz-adv-x="935" unicode="" d="M426 1488l57 157h117l-103 -157h-71zM377 1453h138l149 226h-205zM213 1340l131 111l80 207zM370 280v1024h189v-1024h-189zM336 246h257v1092h-257v-1092zM96 31l211 201v1087l-211 -203v-1085zM199 1258h-71l298 450h261l215 -257l-166 -193l130 -126v-1132h-798v1132z "/>
<glyph glyph-name="Icircumflex" horiz-adv-x="935" unicode="" d="M252 1491l111 153h208l116 -153h-110l-112 124l-113 -124h-100zM185 1457h183l97 108l98 -108h193l-167 222h-243zM140 1442l111 158l-199 -221zM371 280v1024h189v-1024h-189zM336 246h258v1092h-258v-1092zM96 31l211 201v1087l-211 -203v-1085zM215 1273h-288l384 435 h295l375 -435h-259l145 -141v-1132h-799v1132z"/>
<glyph glyph-name="Idieresis" horiz-adv-x="935" unicode="" d="M4 1306l180 146v198l-180 -163v-181zM544 1497v140h150v-140h-150zM510 1462h218v209h-218v-209zM251 1497v140h143v-140h-143zM217 1462h212v209h-212v-209zM371 280v1024h189v-1024h-189zM336 246h258v1092h-258v-1092zM96 31l211 201v1087l-211 -203v-1085zM215 1273 h-237v228l218 200h561l200 -200v-228h-235l145 -141v-1132h-799v1132z"/>
<glyph glyph-name="Eth" horiz-adv-x="1269" unicode="" d="M98 42l214 197v447l-214 -201v-443zM594 728h58v135h-58v248h32h3q55 0 55 -61v-6v-513q0 -38 -9.5 -49.5t-38.5 -11.5h-42v258zM561 762v-327h74q45 0 64 22t19 73v514q0 51 -23 76t-70 25h-64v-316h56v-67h-56zM379 762h-96v67h96v475h262h22q257 0 257 -198 q0 -13 -1 -26v-536q0 -156 -44.5 -210t-172.5 -54h-323v482zM344 728v-482h357q90 0 135.5 18t75.5 65q23 37 32 83t9 132v536q0 84 -17.5 127t-67.5 78q-42 30 -91 41.5t-137 11.5h-296v-475h-95v-135h95zM21 519l193 195v133l-193 -190v-138zM98 779l119 115h95v433 l-214 -201v-347zM68 465h-78v208l78 78v388l244 226h314q117 0 171.5 -14t132.5 -63q150 -95 220.5 -213t70.5 -274v-380q1 -22 1 -42q0 -379 -360 -379h-13h-781v465z"/>
<glyph glyph-name="Ntilde" horiz-adv-x="1278" unicode="" d="M381 1490v24q0 71 21 101.5t71 30.5q40 0 127 -26q89 -26 125 -26q48 0 85 51h62q0 -68 -12 -101q-11 -29 -36 -47.5t-53 -18.5q-32 0 -125 32q-86 31 -119 31q-54 0 -80 -51h-66zM347 1456h126q8 52 54 52q26 0 108 -29q98 -35 136 -35q63 0 99 50t36 138q0 21 -3 47 h-116q-17 -51 -65 -51q-28 0 -113 25q-92 27 -135 27q-66 0 -96.5 -40t-30.5 -126v-58zM318 1416v104q1 69 21 107q-65 -34 -111 -122.5t-46 -179.5q0 -23 4 -57zM378 280v1024h174l174 -525v525h194v-1024h-204l-148 414v-414h-190zM344 246h258v251l90 -251h262v1092h-262 v-347l-115 347h-233v-1092zM97 36l215 197v1094l-215 -203v-1088zM162 1228q-7 51 -7 90q0 167 104 279q104 111 215 111q42 0 138 -29q73 -22 98 -22q46 0 58 50h159l190 -187q2 -31 2 -42q0 -65 -16.5 -105t-59.5 -82l166 -167v-1124h-475l-103 313v-106l-80 -207h-483 v1140z"/>
<glyph glyph-name="Ograve" d="M583 1499l-98 145h128l54 -145h-84zM565 1464h152l-81 214h-215zM203 1463l158 -173l171 173l-134 197zM664 1070v-553q0 -38 -10.5 -53.5t-36.5 -15.5q-27 0 -37.5 15.5t-10.5 53.5v553q0 39 10.5 54.5t37.5 15.5q26 0 36.5 -15.5t10.5 -54.5zM535 1071v-554 q0 -103 81 -103t81 103v554q0 103 -81 103t-81 -103zM346 578v424q0 82 13 128.5t47 86.5q89 105 219 105q128 0 212 -100q30 -35 38.5 -63t8.5 -88v-504q0 -60 -6.5 -90.5t-26.5 -67.5q-32 -59 -85 -96q-69 -47 -151 -47q-69 0 -134.5 36t-100.5 94q-21 36 -27.5 70.5 t-6.5 111.5zM919 567v504q0 70 -13.5 107.5t-54.5 80.5q-93 97 -226 97q-75 0 -144.5 -36t-114.5 -98q-31 -42 -43 -90.5t-12 -129.5v-424q0 -82 7.5 -120.5t31.5 -78.5q37 -62 104 -101q77 -46 161 -46q83 0 154.5 43t112.5 117q22 41 29.5 76t7.5 99zM198 187l149 143 q-42 57 -53.5 101t-11.5 144v416v9q0 111 25 170l-125 -128q-75 -77 -89.5 -113t-14.5 -148v-171q0 -171 21.5 -247t98.5 -176zM355 1258h-11l-183 205l240 245h248l307 -450h-62l152 -154q85 -87 108.5 -142.5t23.5 -172.5v-245q0 -132 -35 -221q-62 -159 -208 -257 q-148 -100 -325 -100q-216 0 -377 144q-142 128 -174 299q-11 59 -11 201v171q1 117 20 164q12 29 24 44t70 73z" unicode=""/>
<glyph glyph-name="Oacute" d="M579 1488l57 157h117l-104 -157h-70zM530 1453h138l149 226h-204zM367 1339l131 112l79 207zM664 1070v-553q0 -38 -10.5 -54t-36.5 -16q-27 0 -37.5 16t-10.5 54v553q0 39 10.5 54.5t37.5 15.5q26 0 36.5 -15.5t10.5 -54.5zM535 1071v-554q0 -103 81 -103t81 103v554 q0 103 -81 103t-81 -103zM346 578v424q0 82 13 128.5t47 86.5q89 105 219 105q128 0 212 -100q30 -35 38.5 -63t8.5 -88v-504q0 -60 -6.5 -90.5t-26.5 -67.5q-32 -59 -85 -96q-69 -47 -151 -47q-69 0 -134.5 36t-100.5 94q-21 36 -27.5 70.5t-6.5 111.5zM919 567v504 q0 70 -13.5 107.5t-54.5 80.5q-93 97 -226 97q-75 0 -144.5 -36t-114.5 -98q-31 -42 -43 -90.5t-12 -129.5v-424q0 -82 7.5 -120.5t31.5 -78.5q37 -62 104 -101q77 -46 161 -46q83 0 154.5 43t112.5 117q22 41 29.5 76t7.5 99zM198 187l149 143q-42 57 -53.5 101t-11.5 144 v416v9q0 111 25 170l-125 -128q-75 -77 -89.5 -113t-14.5 -148v-171q0 -171 21.5 -247t98.5 -176zM355 1258h-75l298 450h262l216 -257l-162 -193l152 -154q85 -87 108.5 -142.5t23.5 -172.5v-245q0 -132 -35 -221q-62 -159 -208 -257q-148 -100 -325 -100q-216 0 -377 144 q-142 128 -174 299q-11 59 -11 201v171q1 117 20 164q12 29 24 44t70 73z" unicode=""/>
<glyph glyph-name="Ocircumflex" d="M397 1491l112 153h208l116 -153h-110l-113 124l-112 -124h-101zM331 1457h182l98 108l97 -108h193l-167 222h-242zM286 1442l111 158l-199 -221zM664 1070v-553q0 -38 -10.5 -53.5t-36.5 -15.5q-27 0 -37.5 15.5t-10.5 53.5v553q0 39 10.5 54.5t37.5 15.5 q26 0 36.5 -15.5t10.5 -54.5zM535 1071v-554q0 -103 81 -103t81 103v554q0 103 -81 103t-81 -103zM346 578v424q0 82 13 128.5t47 86.5q89 105 219 105q128 0 212 -100q30 -35 38.5 -63t8.5 -88v-504q0 -60 -6.5 -90.5t-26.5 -67.5q-32 -59 -85 -96q-69 -47 -151 -47 q-69 0 -134.5 36t-100.5 94q-21 36 -27.5 70.5t-6.5 111.5zM919 567v504q0 70 -13.5 107.5t-54.5 80.5q-93 97 -226 97q-75 0 -144.5 -35.5t-114.5 -98.5q-31 -42 -43 -90.5t-12 -129.5v-424q0 -82 7.5 -120.5t31.5 -78.5q37 -61 104 -101q77 -46 161 -46q83 0 154.5 43 t112.5 117q22 41 29.5 76t7.5 99zM198 187l149 143q-42 57 -53.5 101.5t-11.5 143.5v416v9q0 111 25 170l-125 -128q-75 -77 -89.5 -113t-14.5 -148v-171q0 -171 21.5 -247t98.5 -176zM370 1273h-297l384 435h295l375 -435h-248l167 -169q85 -86 108.5 -142t23.5 -173v-244 q0 -133 -35 -222q-62 -159 -208 -257q-148 -100 -325 -100q-216 0 -377 144q-142 127 -174 299q-11 59 -11 201v171q1 117 20 164q12 29 24 44t70 73z" unicode=""/>
<glyph glyph-name="Otilde" d="M355 1490v24q0 71 21 101.5t71 30.5q40 0 127 -26q89 -26 125 -26q48 0 85 51h62q0 -68 -12 -101q-11 -29 -36 -47.5t-53 -18.5q-32 0 -124 32q-87 31 -120 31q-54 0 -80 -51h-66zM321 1456h127q8 52 54 52q26 0 108 -29q98 -35 136 -35q63 0 99 50t36 138q0 19 -3 47 h-116q-17 -51 -65 -51q-27 0 -113 25q-93 27 -136 27q-66 0 -96.5 -40t-30.5 -126v-58zM292 1416v104q1 69 21 107q-65 -34 -111 -122.5t-46 -179.5q0 -23 4 -58zM664 1071v-554q0 -38 -10.5 -53.5t-36.5 -15.5q-27 0 -37.5 15.5t-10.5 53.5v554q0 38 10.5 53.5t37.5 15.5 q26 0 36.5 -15.5t10.5 -53.5zM535 1071v-554q0 -103 81 -103t81 103v554q0 103 -81 103t-81 -103zM346 578v424q0 82 13 128.5t47 86.5q89 105 219 105q128 0 212 -100q30 -35 38.5 -63t8.5 -88v-504q0 -60 -6.5 -90.5t-26.5 -67.5q-32 -59 -85 -96q-69 -47 -151 -47 q-69 0 -134.5 36t-100.5 94q-21 36 -27.5 70.5t-6.5 111.5zM919 567v503q0 71 -13.5 108.5t-54.5 79.5q-93 98 -226 98q-75 0 -144 -36t-115 -98q-31 -42 -43 -90.5t-12 -129.5v-424q0 -82 7.5 -120.5t31.5 -78.5q37 -62 104 -101q77 -46 161 -46q83 0 154.5 43t112.5 117 q22 41 29.5 76t7.5 99zM198 187l149 143q-42 57 -53.5 101t-11.5 144v416v9q0 111 25 170l-125 -128q-75 -77 -89.5 -113t-14.5 -149v-170q0 -171 21.5 -247t98.5 -176zM325 1228h-190q-4 55 -4 94q0 163 102 275q103 111 216 111q42 0 137 -29q73 -22 99 -22q45 0 58 50 h159l190 -188q2 -30 2 -42q0 -98 -43 -153t-141 -82l136 -139q86 -86 109 -141.5t23 -173.5v-244q0 -132 -35 -221q-62 -159 -208 -257q-148 -100 -325 -100q-216 0 -377 144q-142 128 -174 299q-11 58 -11 201v170q1 118 20 165q12 29 24 44t70 72z" unicode=""/>
<glyph glyph-name="Odieresis" d="M136 1306l180 146v198l-180 -160v-184zM703 1497v140h150v-140h-150zM669 1462h218v209h-218v-209zM384 1497v140h143v-140h-143zM349 1462h212v209h-212v-209zM664 1070v-553q0 -38 -10.5 -53.5t-36.5 -15.5q-27 0 -37.5 15.5t-10.5 53.5v553q0 39 10.5 54.5t37.5 15.5 q26 0 36.5 -15.5t10.5 -54.5zM535 1071v-554q0 -103 81 -103t81 103v554q0 103 -81 103t-81 -103zM346 578v424q0 82 13 128.5t47 86.5q89 105 219 105q128 0 212 -100q30 -35 38.5 -63t8.5 -88v-504q0 -60 -6.5 -90.5t-26.5 -67.5q-32 -59 -85 -96q-69 -47 -151 -47 q-69 0 -134.5 36t-100.5 94q-21 36 -27.5 70.5t-6.5 111.5zM919 567v504q0 70 -13.5 107.5t-54.5 80.5q-93 97 -226 97q-76 0 -145 -35.5t-114 -98.5q-31 -42 -43 -90.5t-12 -129.5v-424q0 -82 7.5 -120.5t31.5 -78.5q37 -61 104 -101q77 -46 161 -46q83 0 154.5 43 t112.5 117q22 41 29.5 76t7.5 99zM198 187l149 143q-42 57 -53.5 101.5t-11.5 143.5v416v9q0 111 25 170l-125 -128q-75 -77 -89.5 -113t-14.5 -148v-171q0 -171 21.5 -247t98.5 -176zM370 1273h-260v228l218 200h258l52 -51v51h278l200 -200v-228h-237l167 -169 q58 -59 79.5 -89t35.5 -72q12 -36 14.5 -58t2.5 -96v-244q0 -133 -35 -222q-63 -159 -208 -257q-148 -100 -325 -100q-216 0 -377 144q-142 127 -174 299q-11 59 -11 201v171q1 117 20 164q12 29 24 44t70 73z" unicode=""/>
<glyph glyph-name="multiply" d="M393 779h-158l-145 -148h144zM248 922l-63 -60l56 -58h125zM593 681l-165 -164l-106 114l165 148l-165 173l106 107l165 -165l165 165l106 -107l-165 -173l165 -148l-106 -114zM593 631l165 -163l154 163l-165 148l165 173l-154 155l-165 -165l-165 165l-154 -155 l164 -173l-164 -148l154 -163zM760 1150l290 -289l-76 -82l170 -165l-420 -420l-130 126l-125 -127l-427 427l170 172l-71 70l286 288l169 -167z" unicode=""/>
<glyph glyph-name="Oslash" horiz-adv-x="1224" unicode="" d="M570 519v550q0 39 8 50q14 21 39 21q27 0 37.5 -16t10.5 -55v-550q0 -77 -48 -77q-26 0 -36.5 17t-10.5 60zM699 519v550q0 105 -81 105q-51 0 -73 -45q-8 -15 -8 -60v-550q0 -55 15 -76q25 -35 65 -35t61 28.5t21 82.5zM177 165l-52 42l224 284l-1 36v46v427 q0 82 13 129t47 88q89 106 219 106q82 0 147.5 -43.5t103.5 -122.5l159 201l50 -40l-201 -253v-503q0 -61 -6.5 -91.5t-26.5 -67.5q-32 -59 -85 -96q-69 -48 -151 -48q-78 0 -143 40.5t-102 112.5zM313 502l-237 -300l106 -85l185 236q24 -33 53 -56q87 -71 196 -71 q83 0 154.5 43t112.5 118q22 41 29.5 76t7.5 99v491l215 271l-104 82l-148 -186q-96 137 -257 137q-75 0 -144 -36t-114 -99q-31 -43 -43 -91.5t-12 -130.5v-426v-72zM884 1266l119 152l-256 -57q79 -30 137 -95zM78 497h206v551q0 57 26 121l-124 -121q-74 -72 -91 -114 t-17 -152v-285zM-154 200h189l212 266h-187zM177 -131l-388 311l259 317v285q0 113 18.5 160.5t89.5 117.5l212 208q119 117 252 117q26 0 61 -6l344 76l151 -124v-212l-65 -86q66 -86 65 -218v-266q0 -171 -63 -288q-71 -132 -205 -212q-139 -82 -301 -82q-158 0 -288 78z "/>
<glyph glyph-name="Ugrave" horiz-adv-x="1237" unicode="" d="M589 1499l-98 145h127l55 -145h-84zM571 1464h152l-81 214h-215zM209 1463l88 -98h144l97 98l-135 197zM352 1304h189v-785q0 -49 22 -75.5t61 -26.5q40 0 63 27.5t23 74.5v785h183v-706q0 -92 -10 -133.5t-43 -86.5q-39 -52 -97 -82t-120 -30q-69 0 -133.5 36.5 t-99.5 95.5q-24 39 -31 76t-7 124v706zM317 1338v-740q0 -93 8 -133.5t34 -84.5q34 -56 92 -94q81 -54 172 -54q70 0 135 33.5t109 92.5q37 49 48.5 95.5t11.5 144.5v740h-252v-819q0 -68 -52 -68q-48 0 -48 68v819h-258zM84 1121v-552q0 -135 26 -214.5t97 -162.5l147 144 q-41 50 -54 99.5t-13 154.5v717zM276 1341l-110 122l240 245h248l234 -343h60l235 -247v-549q0 -107 -16 -174.5t-58 -140.5q-69 -119 -187 -195q-142 -92 -305 -92q-159 0 -302 90q-187 116 -242 311q-18 65 -18 201v565z"/>
<glyph glyph-name="Uacute" horiz-adv-x="1237" unicode="" d="M585 1488l57 157h117l-104 -157h-70zM536 1453h138l149 226h-205zM583 1658l-196 -296l117 89zM352 1304h189v-785q0 -49 22 -75.5t61 -26.5q40 0 63 27.5t23 74.5v785h183v-706q0 -92 -10 -133.5t-43 -86.5q-39 -52 -97 -82t-120 -30q-69 0 -133.5 36.5t-99.5 95.5 q-24 39 -31 76t-7 124v706zM317 1338v-740q0 -93 8 -133.5t34 -84.5q34 -56 92 -94q81 -54 172 -54q70 0 135 33.5t109 92.5q37 49 48.5 95.5t11.5 144.5v740h-252v-819q0 -68 -52 -68q-48 0 -48 68v819h-258zM84 1121v-552q0 -135 26 -214.5t97 -162.5l147 144 q-41 50 -54 99.5t-13 154.5v717zM357 1365l227 343h262l215 -257l-90 -110l212 -223v-549q0 -107 -16 -174.5t-58 -140.5q-69 -119 -187 -195q-142 -92 -305 -92q-159 0 -302 90q-187 116 -242 311q-18 65 -18 201v565l247 231h55z"/>
<glyph glyph-name="Ucircumflex" horiz-adv-x="1237" unicode="" d="M403 1491l112 153h208l115 -153h-109l-113 124l-112 -124h-101zM336 1457h183l97 108l98 -108h193l-167 222h-243zM291 1442l111 158l-199 -221zM352 1304h189v-785q0 -49 22 -75.5t61 -26.5q40 0 63 27.5t23 74.5v785h183v-706q0 -92 -10 -133.5t-43 -86.5 q-39 -52 -97 -82t-120 -30q-69 0 -133.5 36.5t-99.5 95.5q-24 39 -31 76t-7 124v706zM317 1338v-740q0 -93 8 -133.5t34 -84.5q34 -55 92 -94q81 -54 172 -54q70 0 135 33.5t109 92.5q37 49 48.5 95.5t11.5 144.5v740h-252v-819q0 -68 -52 -68q-48 0 -48 68v819h-258z M84 1121v-552q0 -135 26 -214.5t97 -162.5l147 144q-41 50 -54 99.5t-13 155.5v716zM203 1273h-125l385 435h294l375 -435h-96l147 -155v-549q0 -107 -16 -174.5t-58 -139.5q-69 -120 -187 -196q-143 -92 -305 -92q-159 0 -302 90q-187 116 -242 312q-18 64 -18 200v565z "/>
<glyph glyph-name="Udieresis" horiz-adv-x="1237" unicode="" d="M142 1306l180 146v198l-180 -160v-184zM709 1497v140h150v-140h-150zM675 1462h218v209h-218v-209zM389 1497v140h143v-140h-143zM355 1462h212v209h-212v-209zM352 1304h189v-785q0 -49 21.5 -75.5t61.5 -26.5t63 27.5t23 74.5v785h183v-706q0 -92 -10 -133.5t-43 -86.5 q-39 -52 -97 -82t-120 -30q-69 0 -133.5 36.5t-100.5 95.5q-23 39 -30 75.5t-7 124.5v706zM317 1338v-740q0 -93 8 -133.5t34 -84.5q34 -55 92 -94q81 -54 172 -54q70 0 135 34t109 92q37 49 48.5 95.5t11.5 144.5v740h-252v-819q0 -68 -51 -68q-49 0 -49 68v819h-258z M84 1121v-552q0 -134 26 -214t97 -163l147 144q-41 50 -54 99.5t-13 155.5v716zM203 1273h-87v228l217 200h259l52 -51v51h277l201 -200v-228h-86l147 -155v-549q0 -107 -16 -174t-58 -140q-69 -120 -187 -196q-142 -92 -304 -92q-226 0 -396 162q-127 120 -157 275 q-10 51 -10 165v565z"/>
<glyph glyph-name="Yacute" horiz-adv-x="1178" unicode="" d="M555 1488l57 157h117l-104 -157h-70zM506 1453h138l149 226h-205zM553 1658l-196 -296l116 89zM502 280v420l-195 604h181l114 -334l99 334h174l-166 -595v-429h-207zM468 246h275v458l177 634h-245l-75 -255l-87 255h-253l208 -644v-448zM221 523l207 190l-196 603 l-205 -192zM224 29l212 199v452l-212 -194v-457zM327 1365l228 343h261l215 -257l-77 -93l231 -207l-173 -627v-524h-819v508l-200 624l247 233h87z"/>
<glyph glyph-name="Thorn" horiz-adv-x="1236" unicode="" d="M608 735v199q46 0 59 -11.5t13 -51.5v-73q0 -40 -12.5 -51t-59.5 -12zM574 701q28 -1 38 -1q57 0 79.5 21.5t22.5 76.5v74q0 53 -22.5 75.5t-75.5 22.5q-14 0 -42 -1v-268zM374 280v1024h209v-178q35 1 50 1q185 0 246 -89q40 -59 40 -243q0 -164 -42 -210 q-28 -29 -62 -37t-135 -8h-97v-260h-209zM339 246h277v260h64q120 0 157 14q67 25 92 83t25 189q0 198 -46 265q-71 104 -274 104h-18v177h-277v-1092zM97 51l211 200v1065l-211 -192v-1073zM68 0v1134l251 231h331v-177q100 -2 161.5 -25.5t134.5 -88.5l117 -103 q88 -78 116.5 -133.5t28.5 -147.5v-131q0 -94 -18 -143t-65 -84q-29 -21 -90 -35.5t-120 -14.5h-25v-282h-822z"/>
<glyph glyph-name="germandbls" horiz-adv-x="2393" unicode="" d="M1526 660h185v-96q0 -77 11 -104q20 -50 74 -50q81 0 81 106q0 67 -17 94t-91 76q-77 52 -157 126q-84 79 -84 207q0 150 84 229q80 75 193 75q71 0 133.5 -32t97.5 -87q36 -56 36 -157v-109h-193v126q0 107 -78 107q-80 0 -80 -119q0 -57 27 -93q20 -27 100 -83l77 -53 q95 -66 122.5 -110.5t27.5 -131.5t-28 -156q-27 -69 -90 -114q-71 -51 -157 -51q-73 0 -141.5 39t-102.5 101q-20 36 -25 69t-5 128v63zM1745 660l9 -7q66 -47 77 -64.5t11 -77.5q0 -67 -47 -67q-31 0 -40.5 23t-9.5 97v96zM1844 918q-59 44 -74 67.5t-15 69.5q0 82 46 82 q24 0 33.5 -16.5t9.5 -56.5v-146zM1492 694v-97q0 -100 6 -136t28 -77q36 -65 105 -108q81 -50 168 -50q135 0 227 101q83 93 83 254q0 96 -31.5 147.5t-133.5 122.5l-76 53h238v143q0 110 -41 175q-32 50 -85 83q-79 51 -175 51q-146 0 -237 -105q-74 -87 -74 -233 q0 -101 39.5 -163t168.5 -161h-210zM1479 899q-16 52 -16 111q0 91 33 180l-100 -94q-73 -68 -101 -127t-28 -144q0 -61 18 -111zM1284 479v-7q0 -165 96 -278l145 140q-39 49 -51 98t-12 159v73zM2112 688l139 -107q58 -44 75 -72.5t17 -80.5q0 -126 -111 -256 q-69 -80 -157 -130q-131 -75 -279 -75q-163 0 -306 89q-123 77 -179.5 182t-56.5 251v5l73 75q-90 108 -90 255q0 91 30.5 156.5t104.5 134.5l154 142q74 69 138.5 98.5t139.5 29.5q157 0 282 -129l137 -141q64 -67 90 -122q38 -85 38 -160l-2 -97v-48h-237zM330 660h185 v-96q0 -77 11 -104q20 -50 73 -50q81 0 81 106q0 67 -17 94t-91 76q-76 52 -156 126q-84 79 -84 207q0 149 84 229q80 75 193 75q70 0 132.5 -32t97.5 -87q36 -56 36 -157v-109h-193v126q0 107 -77 107q-80 0 -80 -119q0 -57 27 -93q20 -27 100 -83l76 -53 q95 -67 122.5 -111t27.5 -131t-28 -156q-27 -69 -90 -114q-71 -51 -157 -51q-72 0 -140.5 39.5t-102.5 100.5q-20 36 -25 69t-5 128v63zM549 660l9 -7q66 -46 77 -64t11 -78q0 -67 -47 -67q-31 0 -40.5 23t-9.5 97v96zM648 918q-59 45 -74 68t-15 69q0 82 46 82 q24 0 33.5 -16.5t9.5 -56.5v-146zM296 694v-97q0 -100 6 -136t28 -77q36 -65 105 -108q81 -50 168 -50q135 0 227 101q83 93 83 254q0 96 -31.5 147.5t-133.5 122.5l-76 53h238v143q0 111 -41 175q-32 50 -85 83q-80 51 -175 51q-146 0 -237 -105q-74 -86 -74 -233 q0 -101 39.5 -163t167.5 -161h-209zM283 899q-16 52 -16 111q0 92 33 180l-100 -94q-73 -67 -101 -126t-28 -145q0 -60 18 -111zM88 479v-7q0 -165 96 -278l145 140q-39 49 -51 98t-12 159v73zM917 688l138 -107q58 -44 75 -72.5t17 -80.5q0 -126 -111 -256 q-69 -80 -157 -130q-131 -75 -279 -75q-163 0 -306 89q-123 78 -179.5 182.5t-56.5 250.5v5l73 75q-90 108 -90 255q0 91 30.5 156.5t104.5 134.5l154 142q74 69 138.5 98.5t139.5 29.5q157 0 282 -129l137 -141q128 -132 128 -282l-2 -97v-48h-236z"/>
<glyph glyph-name="agrave" horiz-adv-x="1294" unicode="" d="M576 1499l-98 145h127l55 -145h-84zM558 1464h151l-80 214h-215zM195 1463l158 -173l171 173l-134 197zM614 758l10 96l17 -96h-27zM576 723h105l-57 333zM516 1304h221l211 -1024h-198l-43 269h-151l-34 -269h-189zM487 1338l-195 -1092h260l34 269h92l43 -269h269 l-225 1092h-278zM29 34l233 205l196 1091l-238 -226zM340 1258l-186 205l240 245h247l308 -450h-31l151 -119l231 -1139h-568l-41 239h-107l-25 -239h-566l201 1122z"/>
<glyph glyph-name="aacute" horiz-adv-x="1294" unicode="" d="M599 1488l57 157h117l-103 -157h-71zM550 1453h138l149 226h-205zM386 1339l132 112l79 207zM614 758l10 96l17 -96h-27zM576 723h105l-57 333zM516 1304h221l211 -1024h-198l-43 269h-151l-34 -269h-189zM487 1338l-195 -1092h260l34 269h92l43 -269h269l-225 1092h-278 zM29 34l233 205l196 1091l-238 -226zM340 1258h-40l299 450h261l215 -257l-158 -192l152 -120l231 -1139h-568l-41 239h-107l-25 -239h-566l201 1122z"/>
<glyph glyph-name="acircumflex" horiz-adv-x="1294" unicode="" d="M417 1491l112 153h208l115 -153h-109l-113 124l-112 -124h-101zM350 1457h183l97 108l98 -108h193l-167 222h-243zM305 1442l111 158l-199 -221zM614 758l10 96l17 -96h-27zM576 723h105l-57 333zM516 1304h221l211 -1024h-198l-43 269h-151l-34 -269h-189zM487 1338 l-195 -1092h260l34 269h92l43 -269h269l-225 1092h-278zM29 34l233 205l196 1091l-238 -226zM355 1273h-262l384 435h294l375 -435h-246l169 -134l231 -1139h-568l-41 239h-107l-25 -239h-566l201 1122z"/>
<glyph glyph-name="atilde" horiz-adv-x="1294" unicode="" d="M375 1490v24q0 71 21 101.5t71 30.5q40 0 127 -26q89 -26 125 -26q48 0 85 51h62q0 -68 -12 -101q-11 -29 -36 -47.5t-53 -18.5q-32 0 -124 32q-87 31 -120 31q-54 0 -80 -51h-66zM341 1456h126q8 52 54 52q27 0 108 -29q98 -35 137 -35q63 0 99 50t36 138q0 21 -3 47 h-117q-16 -51 -65 -51q-27 0 -112 25q-93 27 -136 27q-66 0 -96.5 -40t-30.5 -126v-58zM312 1416v104q1 69 21 107q-65 -34 -111 -122.5t-46 -179.5q0 -23 4 -57zM614 758l10 96l16 -96h-26zM576 723h105l-57 333zM516 1304h221l211 -1024h-198l-43 269h-151l-34 -269h-189z M487 1338l-195 -1092h260l34 269h92l43 -269h269l-225 1092h-278zM29 34l233 205l196 1091l-238 -226zM308 1228h-153q-4 57 -4 94q0 163 103 275q103 111 215 111q42 0 138 -29q73 -22 97 -22q46 0 59 50h159l190 -187q1 -30 1 -43q0 -97 -40.5 -150.5t-136.5 -83.5 l133 -104l231 -1139h-568l-41 239h-107l-25 -239h-566l201 1121z"/>
<glyph glyph-name="adieresis" horiz-adv-x="1294" unicode="" d="M149 1306l180 146v198l-180 -160v-184zM716 1497v140h150v-140h-150zM682 1462h219v209h-219v-209zM397 1497v140h143v-140h-143zM363 1462h212v209h-212v-209zM615 758l10 96l16 -96h-26zM576 723h105l-57 333zM516 1304h221l211 -1024h-198l-43 269h-151l-34 -269h-189 zM487 1338l-195 -1092h259l35 269h91l44 -269h268l-225 1092h-277zM29 34l232 205l197 1091l-238 -226zM355 1273h-232v228l218 200h258l52 -51v51h277l201 -200v-228h-230l169 -134l232 -1139h-568l-42 239h-106l-25 -239h-566l201 1122z"/>
<glyph glyph-name="aring" horiz-adv-x="1294" unicode="" d="M618 1557q-17 0 -28.5 -11.5t-11.5 -27.5q0 -17 11.5 -28.5t28.5 -11.5q16 0 27.5 11.5t11.5 28.5q0 16 -11 27t-28 12zM620 1616q39 0 67.5 -29t28.5 -69t-28.5 -68.5t-69.5 -28.5q-40 0 -68.5 28.5t-28.5 69.5t29 69t70 28zM621 1650q-56 0 -95 -38t-39 -93t38.5 -94 t93.5 -39t93.5 38.5t38.5 93.5q0 54 -37.5 92t-92.5 40zM501 1403q-48 49 -48 113q0 17 6 42l-112 -102q-36 -33 -47.5 -53.5t-11.5 -50.5t13 -58t33 -42zM614 758l10 96l17 -96h-27zM576 723h105l-57 333zM516 1304h221l211 -1024h-198l-43 269h-151l-34 -269h-189z M487 1338l-195 -1092h260l34 269h92l43 -269h269l-225 1092h-278zM29 34l233 205l196 1091l-238 -226zM311 1231q-54 54 -54 121q0 39 15.5 65t66.5 72l144 129q69 62 135 62q75 0 138 -74l100 -117q64 -76 64 -140q0 -33 -20 -76l169 -134l231 -1139h-568l-41 239h-107 l-25 -239h-566l201 1121z"/>
<glyph glyph-name="ae" horiz-adv-x="1654" unicode="" d="M768 758l30 97l-3 -97h-27zM723 723h105l11 334zM1319 1304v-155h-280v-271h280v-162h-280v-292h280v-144h-512l11 269h-150l-89 -269h-189l391 1024h538zM1353 1338h-594l-417 -1092h259l90 269h91l-11 -269h582v212h-280v223h280v231h-280v203h280v223zM308 238 l418 1090l-280 -222l-408 -1071zM1373 1365l233 -234v-224h-233l233 -226v-225h-233l233 -228v-228h-1613l429 1122l310 243h641z"/>
<glyph glyph-name="ccedilla" horiz-adv-x="1223" unicode="" d="M542 9v125h152v-147l-69 -82h-35l45 104h-93zM507 -25h76l-45 -104h103l87 104v193h-221v-193zM360 -267l126 100l39 92l-114 -103zM299 -178l177 152v191l-177 -154v-189zM699 677h188v-80q0 -81 -6.5 -118.5t-29.5 -77.5q-31 -58 -86 -95q-69 -45 -151 -45 q-75 0 -138.5 36.5t-96.5 97.5q-21 40 -27 76t-6 126v391q0 154 60 229q86 105 223 105q133 0 213 -102q27 -35 36 -65t9 -84v-149h-188v160q0 94 -79 94q-37 0 -59.5 -25.5t-22.5 -68.5v-559q0 -111 81 -111q80 0 80 111v154zM665 711v-188q0 -77 -46 -77q-26 0 -36.5 17.5 t-10.5 59.5v559q0 59 48 59q45 0 45 -59v-194h256v184q0 59 -11 94.5t-41 74.5q-90 115 -240 115q-78 0 -148 -36t-114 -98q-56 -80 -56 -234v-391q0 -96 6.5 -135t31.5 -83q32 -60 91 -100q79 -52 174 -52q126 0 215 88q53 52 72.5 111.5t19.5 170.5v114h-256zM199 193 l143 139q-36 50 -48 103t-12 162v383q0 83 7.5 124t29.5 84l-109 -110q-82 -81 -107.5 -131.5t-25.5 -132.5v-236q0 -137 25.5 -216.5t96.5 -168.5zM903 47l51 -52v-211h-97l68 -112h-626l50 112h-79v244l35 30q-136 91 -196.5 213.5t-60.5 306.5v236q0 89 28 144.5 t115 140.5l173 168q121 118 264 118q142 0 264 -121l145 -143q84 -82 111 -142.5t27 -164.5v-107h-223l223 -227q-6 -126 -78.5 -242t-193.5 -191z"/>
<glyph glyph-name="egrave" horiz-adv-x="1189" unicode="" d="M565 1499l-98 145h127l55 -145h-84zM546 1464h152l-81 214h-214zM184 1463l89 -98h142l98 98l-134 197zM373 280v1024h481v-155h-280v-271h280v-162h-280v-292h280v-144h-481zM339 246h549v212h-280v223h280v231h-280v203h280v223h-549v-1092zM97 27l213 201v1088 l-213 -219v-1070zM271 1320l-128 143l240 245h247l234 -343h44l233 -234v-224h-233l233 -226v-225h-233l233 -228v-228h-1073v1111z"/>
<glyph glyph-name="eacute" horiz-adv-x="1189" unicode="" d="M560 1488l58 157h117l-104 -157h-71zM511 1453h138l149 226h-204zM558 1658l-188 -291l109 84zM373 280v1024h481v-155h-280v-271h280v-162h-280v-292h280v-144h-481zM339 246h549v212h-280v223h280v231h-280v203h280v223h-549v-1092zM97 27l213 201v1088l-213 -219 v-1070zM333 1365l227 343h261l215 -257l-97 -117l202 -203v-224h-233l233 -226v-225h-233l233 -228v-228h-1073v1111l247 254h18z"/>
<glyph glyph-name="ecircumflex" horiz-adv-x="1189" unicode="" d="M379 1491l111 153h208l116 -153h-110l-112 124l-113 -124h-100zM312 1457h182l98 108l97 -108h193l-167 222h-242zM267 1442l111 158l-199 -221zM373 280v1024h481v-155h-280v-271h280v-162h-280v-292h280v-144h-481zM339 246h549v212h-280v223h280v231h-280v203h280v223 h-549v-1092zM97 27l213 201v1088l-213 -219v-1070zM225 1273h-171l384 435h295l374 -435h-107l141 -142v-224h-233l233 -226v-225h-233l233 -228v-228h-1073v1111z"/>
<glyph glyph-name="edieresis" horiz-adv-x="1189" unicode="" d="M117 1306l181 146v198l-181 -160v-184zM685 1497v140h150v-140h-150zM651 1462h218v209h-218v-209zM365 1497v140h143v-140h-143zM331 1462h212v209h-212v-209zM373 280v1024h481v-155h-280v-271h280v-162h-280v-292h280v-144h-481zM339 246h549v212h-280v223h280v231 h-280v203h280v223h-549v-1092zM97 27l213 201v1088l-213 -219v-1070zM225 1273h-134v228l219 200h257l52 -51v51h278l201 -200v-228h-97l140 -142v-224h-233l233 -226v-225h-233l233 -228v-228h-1073v1111z"/>
<glyph glyph-name="igrave" horiz-adv-x="935" unicode="" d="M451 1499l-98 145h128l55 -145h-85zM433 1464h152l-80 214h-215zM71 1463l158 -173l171 173l-134 197zM371 280v1024h189v-1024h-189zM336 246h258v1092h-258v-1092zM96 31l211 201v1087l-211 -203v-1085zM206 1265l-177 198l240 245h248l308 -450h-88l130 -126v-1132 h-799v1132z"/>
<glyph glyph-name="iacute" horiz-adv-x="935" unicode="" d="M426 1488l57 157h117l-103 -157h-71zM377 1453h138l149 226h-205zM213 1340l131 111l80 207zM370 280v1024h189v-1024h-189zM336 246h257v1092h-257v-1092zM96 31l211 201v1087l-211 -203v-1085zM199 1258h-71l298 450h261l215 -257l-166 -193l130 -126v-1132h-798v1132z "/>
<glyph glyph-name="icircumflex" horiz-adv-x="935" unicode="" d="M252 1491l111 153h208l116 -153h-110l-112 124l-113 -124h-100zM185 1457h183l97 108l98 -108h193l-167 222h-243zM140 1442l111 158l-199 -221zM371 280v1024h189v-1024h-189zM336 246h258v1092h-258v-1092zM96 31l211 201v1087l-211 -203v-1085zM215 1273h-288l384 435 h295l375 -435h-259l145 -141v-1132h-799v1132z"/>
<glyph glyph-name="idieresis" horiz-adv-x="935" unicode="" d="M4 1306l180 146v198l-180 -163v-181zM544 1497v140h150v-140h-150zM510 1462h218v209h-218v-209zM251 1497v140h143v-140h-143zM217 1462h212v209h-212v-209zM371 280v1024h189v-1024h-189zM336 246h258v1092h-258v-1092zM96 31l211 201v1087l-211 -203v-1085zM215 1273 h-237v228l218 200h561l200 -200v-228h-235l145 -141v-1132h-799v1132z"/>
<glyph glyph-name="eth" horiz-adv-x="1269" unicode="" d="M98 42l214 197v447l-214 -201v-443zM594 728h58v135h-58v248h32h3q55 0 55 -61v-6v-513q0 -38 -9.5 -49.5t-38.5 -11.5h-42v258zM561 762v-327h74q45 0 64 22t19 73v514q0 51 -23 76t-70 25h-64v-316h56v-67h-56zM379 762h-96v67h96v475h262h22q257 0 257 -198 q0 -13 -1 -26v-536q0 -156 -44.5 -210t-172.5 -54h-323v482zM344 728v-482h357q90 0 135.5 18t75.5 65q23 37 32 83t9 132v536q0 84 -17.5 127t-67.5 78q-42 30 -91 41.5t-137 11.5h-296v-475h-95v-135h95zM21 519l193 195v133l-193 -190v-138zM98 779l119 115h95v433 l-214 -201v-347zM68 465h-78v208l78 78v388l244 226h314q117 0 171.5 -14t132.5 -63q150 -95 220.5 -213t70.5 -274v-380q1 -22 1 -42q0 -379 -360 -379h-13h-781v465z"/>
<glyph glyph-name="ntilde" horiz-adv-x="1278" unicode="" d="M381 1490v24q0 71 21 101.5t71 30.5q40 0 127 -26q89 -26 125 -26q48 0 85 51h62q0 -68 -12 -101q-11 -29 -36 -47.5t-53 -18.5q-32 0 -125 32q-86 31 -119 31q-54 0 -80 -51h-66zM347 1456h126q8 52 54 52q26 0 108 -29q98 -35 136 -35q63 0 99 50t36 138q0 21 -3 47 h-116q-17 -51 -65 -51q-28 0 -113 25q-92 27 -135 27q-66 0 -96.5 -40t-30.5 -126v-58zM318 1416v104q1 69 21 107q-65 -34 -111 -122.5t-46 -179.5q0 -23 4 -57zM378 280v1024h174l174 -525v525h194v-1024h-204l-148 414v-414h-190zM344 246h258v251l90 -251h262v1092h-262 v-347l-115 347h-233v-1092zM97 36l215 197v1094l-215 -203v-1088zM162 1228q-7 51 -7 90q0 167 104 279q104 111 215 111q42 0 138 -29q73 -22 98 -22q46 0 58 50h159l190 -187q2 -31 2 -42q0 -65 -16.5 -105t-59.5 -82l166 -167v-1124h-475l-103 313v-106l-80 -207h-483 v1140z"/>
<glyph glyph-name="ograve" d="M583 1499l-98 145h128l54 -145h-84zM565 1464h152l-81 214h-215zM203 1463l158 -173l171 173l-134 197zM664 1070v-553q0 -38 -10.5 -53.5t-36.5 -15.5q-27 0 -37.5 15.5t-10.5 53.5v553q0 39 10.5 54.5t37.5 15.5q26 0 36.5 -15.5t10.5 -54.5zM535 1071v-554 q0 -103 81 -103t81 103v554q0 103 -81 103t-81 -103zM346 578v424q0 82 13 128.5t47 86.5q89 105 219 105q128 0 212 -100q30 -35 38.5 -63t8.5 -88v-504q0 -60 -6.5 -90.5t-26.5 -67.5q-32 -59 -85 -96q-69 -47 -151 -47q-69 0 -134.5 36t-100.5 94q-21 36 -27.5 70.5 t-6.5 111.5zM919 567v504q0 70 -13.5 107.5t-54.5 80.5q-93 97 -226 97q-75 0 -144.5 -36t-114.5 -98q-31 -42 -43 -90.5t-12 -129.5v-424q0 -82 7.5 -120.5t31.5 -78.5q37 -62 104 -101q77 -46 161 -46q83 0 154.5 43t112.5 117q22 41 29.5 76t7.5 99zM198 187l149 143 q-42 57 -53.5 101t-11.5 144v416v9q0 111 25 170l-125 -128q-75 -77 -89.5 -113t-14.5 -148v-171q0 -171 21.5 -247t98.5 -176zM355 1258h-11l-183 205l240 245h248l307 -450h-62l152 -154q85 -87 108.5 -142.5t23.5 -172.5v-245q0 -132 -35 -221q-62 -159 -208 -257 q-148 -100 -325 -100q-216 0 -377 144q-142 128 -174 299q-11 59 -11 201v171q1 117 20 164q12 29 24 44t70 73z" unicode=""/>
<glyph glyph-name="oacute" d="M579 1488l57 157h117l-104 -157h-70zM530 1453h138l149 226h-204zM367 1339l131 112l79 207zM664 1070v-553q0 -38 -10.5 -54t-36.5 -16q-27 0 -37.5 16t-10.5 54v553q0 39 10.5 54.5t37.5 15.5q26 0 36.5 -15.5t10.5 -54.5zM535 1071v-554q0 -103 81 -103t81 103v554 q0 103 -81 103t-81 -103zM346 578v424q0 82 13 128.5t47 86.5q89 105 219 105q128 0 212 -100q30 -35 38.5 -63t8.5 -88v-504q0 -60 -6.5 -90.5t-26.5 -67.5q-32 -59 -85 -96q-69 -47 -151 -47q-69 0 -134.5 36t-100.5 94q-21 36 -27.5 70.5t-6.5 111.5zM919 567v504 q0 70 -13.5 107.5t-54.5 80.5q-93 97 -226 97q-75 0 -144.5 -36t-114.5 -98q-31 -42 -43 -90.5t-12 -129.5v-424q0 -82 7.5 -120.5t31.5 -78.5q37 -62 104 -101q77 -46 161 -46q83 0 154.5 43t112.5 117q22 41 29.5 76t7.5 99zM198 187l149 143q-42 57 -53.5 101t-11.5 144 v416v9q0 111 25 170l-125 -128q-75 -77 -89.5 -113t-14.5 -148v-171q0 -171 21.5 -247t98.5 -176zM355 1258h-75l298 450h262l216 -257l-162 -193l152 -154q85 -87 108.5 -142.5t23.5 -172.5v-245q0 -132 -35 -221q-62 -159 -208 -257q-148 -100 -325 -100q-216 0 -377 144 q-142 128 -174 299q-11 59 -11 201v171q1 117 20 164q12 29 24 44t70 73z" unicode=""/>
<glyph glyph-name="ocircumflex" d="M397 1491l112 153h208l116 -153h-110l-113 124l-112 -124h-101zM331 1457h182l98 108l97 -108h193l-167 222h-242zM286 1442l111 158l-199 -221zM664 1070v-553q0 -38 -10.5 -53.5t-36.5 -15.5q-27 0 -37.5 15.5t-10.5 53.5v553q0 39 10.5 54.5t37.5 15.5 q26 0 36.5 -15.5t10.5 -54.5zM535 1071v-554q0 -103 81 -103t81 103v554q0 103 -81 103t-81 -103zM346 578v424q0 82 13 128.5t47 86.5q89 105 219 105q128 0 212 -100q30 -35 38.5 -63t8.5 -88v-504q0 -60 -6.5 -90.5t-26.5 -67.5q-32 -59 -85 -96q-69 -47 -151 -47 q-69 0 -134.5 36t-100.5 94q-21 36 -27.5 70.5t-6.5 111.5zM919 567v504q0 70 -13.5 107.5t-54.5 80.5q-93 97 -226 97q-75 0 -144.5 -35.5t-114.5 -98.5q-31 -42 -43 -90.5t-12 -129.5v-424q0 -82 7.5 -120.5t31.5 -78.5q37 -61 104 -101q77 -46 161 -46q83 0 154.5 43 t112.5 117q22 41 29.5 76t7.5 99zM198 187l149 143q-42 57 -53.5 101.5t-11.5 143.5v416v9q0 111 25 170l-125 -128q-75 -77 -89.5 -113t-14.5 -148v-171q0 -171 21.5 -247t98.5 -176zM370 1273h-297l384 435h295l375 -435h-248l167 -169q85 -86 108.5 -142t23.5 -173v-244 q0 -133 -35 -222q-62 -159 -208 -257q-148 -100 -325 -100q-216 0 -377 144q-142 127 -174 299q-11 59 -11 201v171q1 117 20 164q12 29 24 44t70 73z" unicode=""/>
<glyph glyph-name="otilde" d="M355 1490v24q0 71 21 101.5t71 30.5q40 0 127 -26q89 -26 125 -26q48 0 85 51h62q0 -68 -12 -101q-11 -29 -36 -47.5t-53 -18.5q-32 0 -124 32q-87 31 -120 31q-54 0 -80 -51h-66zM321 1456h127q8 52 54 52q26 0 108 -29q98 -35 136 -35q63 0 99 50t36 138q0 19 -3 47 h-116q-17 -51 -65 -51q-27 0 -113 25q-93 27 -136 27q-66 0 -96.5 -40t-30.5 -126v-58zM292 1416v104q1 69 21 107q-65 -34 -111 -122.5t-46 -179.5q0 -23 4 -58zM664 1071v-554q0 -38 -10.5 -53.5t-36.5 -15.5q-27 0 -37.5 15.5t-10.5 53.5v554q0 38 10.5 53.5t37.5 15.5 q26 0 36.5 -15.5t10.5 -53.5zM535 1071v-554q0 -103 81 -103t81 103v554q0 103 -81 103t-81 -103zM346 578v424q0 82 13 128.5t47 86.5q89 105 219 105q128 0 212 -100q30 -35 38.5 -63t8.5 -88v-504q0 -60 -6.5 -90.5t-26.5 -67.5q-32 -59 -85 -96q-69 -47 -151 -47 q-69 0 -134.5 36t-100.5 94q-21 36 -27.5 70.5t-6.5 111.5zM919 567v503q0 71 -13.5 108.5t-54.5 79.5q-93 98 -226 98q-75 0 -144 -36t-115 -98q-31 -42 -43 -90.5t-12 -129.5v-424q0 -82 7.5 -120.5t31.5 -78.5q37 -62 104 -101q77 -46 161 -46q83 0 154.5 43t112.5 117 q22 41 29.5 76t7.5 99zM198 187l149 143q-42 57 -53.5 101t-11.5 144v416v9q0 111 25 170l-125 -128q-75 -77 -89.5 -113t-14.5 -149v-170q0 -171 21.5 -247t98.5 -176zM325 1228h-190q-4 55 -4 94q0 163 102 275q103 111 216 111q42 0 137 -29q73 -22 99 -22q45 0 58 50 h159l190 -188q2 -30 2 -42q0 -98 -43 -153t-141 -82l136 -139q86 -86 109 -141.5t23 -173.5v-244q0 -132 -35 -221q-62 -159 -208 -257q-148 -100 -325 -100q-216 0 -377 144q-142 128 -174 299q-11 58 -11 201v170q1 118 20 165q12 29 24 44t70 72z" unicode=""/>
<glyph glyph-name="odieresis" d="M136 1306l180 146v198l-180 -160v-184zM703 1497v140h150v-140h-150zM669 1462h218v209h-218v-209zM384 1497v140h143v-140h-143zM349 1462h212v209h-212v-209zM664 1070v-553q0 -38 -10.5 -53.5t-36.5 -15.5q-27 0 -37.5 15.5t-10.5 53.5v553q0 39 10.5 54.5t37.5 15.5 q26 0 36.5 -15.5t10.5 -54.5zM535 1071v-554q0 -103 81 -103t81 103v554q0 103 -81 103t-81 -103zM346 578v424q0 82 13 128.5t47 86.5q89 105 219 105q128 0 212 -100q30 -35 38.5 -63t8.5 -88v-504q0 -60 -6.5 -90.5t-26.5 -67.5q-32 -59 -85 -96q-69 -47 -151 -47 q-69 0 -134.5 36t-100.5 94q-21 36 -27.5 70.5t-6.5 111.5zM919 567v504q0 70 -13.5 107.5t-54.5 80.5q-93 97 -226 97q-76 0 -145 -35.5t-114 -98.5q-31 -42 -43 -90.5t-12 -129.5v-424q0 -82 7.5 -120.5t31.5 -78.5q37 -61 104 -101q77 -46 161 -46q83 0 154.5 43 t112.5 117q22 41 29.5 76t7.5 99zM198 187l149 143q-42 57 -53.5 101.5t-11.5 143.5v416v9q0 111 25 170l-125 -128q-75 -77 -89.5 -113t-14.5 -148v-171q0 -171 21.5 -247t98.5 -176zM370 1273h-260v228l218 200h258l52 -51v51h278l200 -200v-228h-237l167 -169 q58 -59 79.5 -89t35.5 -72q12 -36 14.5 -58t2.5 -96v-244q0 -133 -35 -222q-63 -159 -208 -257q-148 -100 -325 -100q-216 0 -377 144q-142 127 -174 299q-11 59 -11 201v171q1 117 20 164q12 29 24 44t70 73z" unicode=""/>
<glyph glyph-name="divide" d="M507 434v150h184v-150h-184zM467 395h264v229h-264v-229zM225 194l202 177v222l-202 -189v-210zM507 1001v150h184v-150h-184zM467 961h264v230h-264v-230zM225 937h202v223l-202 -190v-33zM319 713v150h562v-150h-562zM285 678h630v219h-630v-219zM57 469l193 195v219 l-193 -193v-221zM189 869v115l259 247h307l254 -260v-103l190 -162v-290h-190v-260h-820v260h-163v290z" unicode=""/>
<glyph glyph-name="oslash" horiz-adv-x="1224" unicode="" d="M570 519v550q0 39 8 50q14 21 39 21q27 0 37.5 -16t10.5 -55v-550q0 -77 -48 -77q-26 0 -36.5 17t-10.5 60zM699 519v550q0 105 -81 105q-51 0 -73 -45q-8 -15 -8 -60v-550q0 -55 15 -76q25 -35 65 -35t61 28.5t21 82.5zM177 165l-52 42l224 284l-1 36v46v427 q0 82 13 129t47 88q89 106 219 106q82 0 147.5 -43.5t103.5 -122.5l159 201l50 -40l-201 -253v-503q0 -61 -6.5 -91.5t-26.5 -67.5q-32 -59 -85 -96q-69 -48 -151 -48q-78 0 -143 40.5t-102 112.5zM313 502l-237 -300l106 -85l185 236q24 -33 53 -56q87 -71 196 -71 q83 0 154.5 43t112.5 118q22 41 29.5 76t7.5 99v491l215 271l-104 82l-148 -186q-96 137 -257 137q-75 0 -144 -36t-114 -99q-31 -43 -43 -91.5t-12 -130.5v-426v-72zM884 1266l119 152l-256 -57q79 -30 137 -95zM78 497h206v551q0 57 26 121l-124 -121q-74 -72 -91 -114 t-17 -152v-285zM-154 200h189l212 266h-187zM177 -131l-388 311l259 317v285q0 113 18.5 160.5t89.5 117.5l212 208q119 117 252 117q26 0 61 -6l344 76l151 -124v-212l-65 -86q66 -86 65 -218v-266q0 -171 -63 -288q-71 -132 -205 -212q-139 -82 -301 -82q-158 0 -288 78z "/>
<glyph glyph-name="ugrave" horiz-adv-x="1237" unicode="" d="M589 1499l-98 145h127l55 -145h-84zM571 1464h152l-81 214h-215zM209 1463l88 -98h144l97 98l-135 197zM352 1304h189v-785q0 -49 22 -75.5t61 -26.5q40 0 63 27.5t23 74.5v785h183v-706q0 -92 -10 -133.5t-43 -86.5q-39 -52 -97 -82t-120 -30q-69 0 -133.5 36.5 t-99.5 95.5q-24 39 -31 76t-7 124v706zM317 1338v-740q0 -93 8 -133.5t34 -84.5q34 -56 92 -94q81 -54 172 -54q70 0 135 33.5t109 92.5q37 49 48.5 95.5t11.5 144.5v740h-252v-819q0 -68 -52 -68q-48 0 -48 68v819h-258zM84 1121v-552q0 -135 26 -214.5t97 -162.5l147 144 q-41 50 -54 99.5t-13 154.5v717zM276 1341l-110 122l240 245h248l234 -343h60l235 -247v-549q0 -107 -16 -174.5t-58 -140.5q-69 -119 -187 -195q-142 -92 -305 -92q-159 0 -302 90q-187 116 -242 311q-18 65 -18 201v565z"/>
<glyph glyph-name="uacute" horiz-adv-x="1237" unicode="" d="M585 1488l57 157h117l-104 -157h-70zM536 1453h138l149 226h-205zM583 1658l-196 -296l117 89zM352 1304h189v-785q0 -49 22 -75.5t61 -26.5q40 0 63 27.5t23 74.5v785h183v-706q0 -92 -10 -133.5t-43 -86.5q-39 -52 -97 -82t-120 -30q-69 0 -133.5 36.5t-99.5 95.5 q-24 39 -31 76t-7 124v706zM317 1338v-740q0 -93 8 -133.5t34 -84.5q34 -56 92 -94q81 -54 172 -54q70 0 135 33.5t109 92.5q37 49 48.5 95.5t11.5 144.5v740h-252v-819q0 -68 -52 -68q-48 0 -48 68v819h-258zM84 1121v-552q0 -135 26 -214.5t97 -162.5l147 144 q-41 50 -54 99.5t-13 154.5v717zM357 1365l227 343h262l215 -257l-90 -110l212 -223v-549q0 -107 -16 -174.5t-58 -140.5q-69 -119 -187 -195q-142 -92 -305 -92q-159 0 -302 90q-187 116 -242 311q-18 65 -18 201v565l247 231h55z"/>
<glyph glyph-name="ucircumflex" horiz-adv-x="1237" unicode="" d="M403 1491l112 153h208l115 -153h-109l-113 124l-112 -124h-101zM336 1457h183l97 108l98 -108h193l-167 222h-243zM291 1442l111 158l-199 -221zM352 1304h189v-785q0 -49 22 -75.5t61 -26.5q40 0 63 27.5t23 74.5v785h183v-706q0 -92 -10 -133.5t-43 -86.5 q-39 -52 -97 -82t-120 -30q-69 0 -133.5 36.5t-99.5 95.5q-24 39 -31 76t-7 124v706zM317 1338v-740q0 -93 8 -133.5t34 -84.5q34 -55 92 -94q81 -54 172 -54q70 0 135 33.5t109 92.5q37 49 48.5 95.5t11.5 144.5v740h-252v-819q0 -68 -52 -68q-48 0 -48 68v819h-258z M84 1121v-552q0 -135 26 -214.5t97 -162.5l147 144q-41 50 -54 99.5t-13 155.5v716zM203 1273h-125l385 435h294l375 -435h-96l147 -155v-549q0 -107 -16 -174.5t-58 -139.5q-69 -120 -187 -196q-143 -92 -305 -92q-159 0 -302 90q-187 116 -242 312q-18 64 -18 200v565z "/>
<glyph glyph-name="udieresis" horiz-adv-x="1237" unicode="" d="M142 1306l180 146v198l-180 -160v-184zM709 1497v140h150v-140h-150zM675 1462h218v209h-218v-209zM389 1497v140h143v-140h-143zM355 1462h212v209h-212v-209zM352 1304h189v-785q0 -49 21.5 -75.5t61.5 -26.5t63 27.5t23 74.5v785h183v-706q0 -92 -10 -133.5t-43 -86.5 q-39 -52 -97 -82t-120 -30q-69 0 -133.5 36.5t-100.5 95.5q-23 39 -30 75.5t-7 124.5v706zM317 1338v-740q0 -93 8 -133.5t34 -84.5q34 -55 92 -94q81 -54 172 -54q70 0 135 34t109 92q37 49 48.5 95.5t11.5 144.5v740h-252v-819q0 -68 -51 -68q-49 0 -49 68v819h-258z M84 1121v-552q0 -134 26 -214t97 -163l147 144q-41 50 -54 99.5t-13 155.5v716zM203 1273h-87v228l217 200h259l52 -51v51h277l201 -200v-228h-86l147 -155v-549q0 -107 -16 -174t-58 -140q-69 -120 -187 -196q-142 -92 -304 -92q-226 0 -396 162q-127 120 -157 275 q-10 51 -10 165v565z"/>
<glyph glyph-name="yacute" horiz-adv-x="1178" unicode="" d="M555 1488l57 157h117l-104 -157h-70zM506 1453h138l149 226h-205zM553 1658l-196 -296l116 89zM502 280v420l-195 604h181l114 -334l99 334h174l-166 -595v-429h-207zM468 246h275v458l177 634h-245l-75 -255l-87 255h-253l208 -644v-448zM221 523l207 190l-196 603 l-205 -192zM224 29l212 199v452l-212 -194v-457zM327 1365l228 343h261l215 -257l-77 -93l231 -207l-173 -627v-524h-819v508l-200 624l247 233h87z"/>
<glyph glyph-name="thorn" horiz-adv-x="1236" unicode="" d="M608 735v199q46 0 59 -11.5t13 -51.5v-73q0 -40 -12.5 -51t-59.5 -12zM574 701q28 -1 38 -1q57 0 79.5 21.5t22.5 76.5v74q0 53 -22.5 75.5t-75.5 22.5q-14 0 -42 -1v-268zM374 280v1024h209v-178q35 1 50 1q185 0 246 -89q40 -59 40 -243q0 -164 -42 -210 q-28 -29 -62 -37t-135 -8h-97v-260h-209zM339 246h277v260h64q120 0 157 14q67 25 92 83t25 189q0 198 -46 265q-71 104 -274 104h-18v177h-277v-1092zM97 51l211 200v1065l-211 -192v-1073zM68 0v1134l251 231h331v-177q100 -2 161.5 -25.5t134.5 -88.5l117 -103 q88 -78 116.5 -133.5t28.5 -147.5v-131q0 -94 -18 -143t-65 -84q-29 -21 -90 -35.5t-120 -14.5h-25v-282h-822z"/>
<glyph glyph-name="ydieresis" horiz-adv-x="1178" unicode="" d="M112 1306l180 146v198l-180 -160v-184zM679 1497v140h150v-140h-150zM645 1462h218v209h-218v-209zM359 1497v140h143v-140h-143zM325 1462h212v209h-212v-209zM502 280v420l-195 604h181l114 -334l99 334h174l-166 -595v-429h-207zM468 246h275v458l177 634h-245 l-75 -254l-87 254h-253l208 -644v-448zM221 523l207 190l-196 603l-205 -192zM224 29l212 199v453l-212 -195v-457zM142 1273h-56v228l218 200h258l52 -51v51h278l200 -200v-228h-42l135 -121l-173 -628v-524h-819v508l-200 625z"/>
<glyph glyph-name="Cacute" horiz-adv-x="1223" unicode="" d="M605 1488l57 157h117l-104 -157h-70zM556 1453h138l148 226h-203zM392 1339l132 112l79 207zM699 677h188v-80q0 -81 -6.5 -118.5t-29.5 -77.5q-31 -58 -86 -95q-69 -45 -151 -45q-74 0 -137.5 36.5t-96.5 97.5q-22 40 -28 75.5t-6 126.5v391q0 154 61 229 q86 105 222 105q133 0 213 -102q27 -35 36 -65t9 -84v-149h-188v160q0 94 -79 94q-37 0 -59.5 -25.5t-22.5 -68.5v-559q0 -112 81 -112q80 0 80 112v154zM665 711v-188q0 -77 -46 -77q-26 0 -36.5 17.5t-10.5 59.5v559q0 59 48 59q45 0 45 -59v-194h256v184q0 59 -11 94.5 t-41 74.5q-90 115 -240 115q-78 0 -148 -36t-114 -98q-56 -80 -56 -234v-391q0 -96 6.5 -134.5t31.5 -83.5q32 -59 91 -99q79 -52 174 -52q126 0 215 87q53 52 72.5 111.5t19.5 170.5v114h-256zM199 193l143 139q-36 50 -48 103t-12 162v383q0 83 7.5 124t29.5 85l-110 -111 q-81 -81 -106.5 -131.5t-25.5 -132.5v-236q0 -137 25 -216t97 -169zM354 1258h-48l299 450h261l215 -257l-160 -193h-22l138 -136q57 -57 75.5 -81.5t35.5 -64.5q27 -65 27 -162v-107h-223l223 -227q-5 -115 -67 -223q-67 -116 -173 -189q-146 -101 -321 -101 q-201 0 -361 129q-151 123 -191 302q-14 61 -14 180v236q0 89 28 144.5t115 140.5z"/>
<glyph glyph-name="cacute" horiz-adv-x="1223" unicode="" d="M605 1488l57 157h117l-104 -157h-70zM556 1453h138l148 226h-203zM392 1339l132 112l79 207zM699 677h188v-80q0 -81 -6.5 -118.5t-29.5 -77.5q-31 -58 -86 -95q-69 -45 -151 -45q-74 0 -137.5 36.5t-96.5 97.5q-22 40 -28 75.5t-6 126.5v391q0 154 61 229 q86 105 222 105q133 0 213 -102q27 -35 36 -65t9 -84v-149h-188v160q0 94 -79 94q-37 0 -59.5 -25.5t-22.5 -68.5v-559q0 -112 81 -112q80 0 80 112v154zM665 711v-188q0 -77 -46 -77q-26 0 -36.5 17.5t-10.5 59.5v559q0 59 48 59q45 0 45 -59v-194h256v184q0 59 -11 94.5 t-41 74.5q-90 115 -240 115q-78 0 -148 -36t-114 -98q-56 -80 -56 -234v-391q0 -96 6.5 -134.5t31.5 -83.5q32 -59 91 -99q79 -52 174 -52q126 0 215 87q53 52 72.5 111.5t19.5 170.5v114h-256zM199 193l143 139q-36 50 -48 103t-12 162v383q0 83 7.5 124t29.5 85l-110 -111 q-81 -81 -106.5 -131.5t-25.5 -132.5v-236q0 -137 25 -216t97 -169zM354 1258h-48l299 450h261l215 -257l-160 -193h-22l138 -136q57 -57 75.5 -81.5t35.5 -64.5q27 -65 27 -162v-107h-223l223 -227q-5 -115 -67 -223q-67 -116 -173 -189q-146 -101 -321 -101 q-201 0 -361 129q-151 123 -191 302q-14 61 -14 180v236q0 89 28 144.5t115 140.5z"/>
<glyph glyph-name="Ccaron" horiz-adv-x="1223" unicode="" d="M464 1457l-172 222l-162 -155l170 -237zM832 1644l-109 -152h-208l-112 152h109l109 -121l113 121h98zM899 1679h-177l-100 -106l-94 106h-193l164 -222h243zM699 677h188v-80q0 -81 -6.5 -118.5t-29.5 -77.5q-31 -58 -86 -95q-69 -45 -151 -45q-74 0 -137.5 36.5 t-96.5 97.5q-22 40 -28 75.5t-6 126.5v391q0 154 61 229q86 105 222 105q133 0 213 -102q27 -35 36 -65t9 -84v-149h-188v159q0 95 -79 95q-37 0 -59.5 -25.5t-22.5 -69.5v-558q0 -112 81 -112q80 0 80 112v154zM665 711v-188q0 -77 -46 -77q-26 0 -36.5 17.5t-10.5 59.5 v559q0 59 48 59q45 0 45 -59v-194h256v183q0 60 -11 95.5t-41 74.5q-90 115 -240 115q-78 0 -148 -36t-114 -99q-56 -79 -56 -233v-391q0 -96 6.5 -134.5t31.5 -83.5q32 -59 91 -99q79 -52 174 -52q126 0 215 87q53 52 72.5 111.5t19.5 170.5v114h-256zM199 193l143 139 q-36 50 -48 103t-12 162v383q0 83 7.5 124t29.5 84l-110 -110q-81 -81 -106.5 -131.5t-25.5 -132.5v-236q0 -137 25 -216t97 -169zM362 1265h-82l-194 262l183 180h270l84 -88l83 88h251l180 -184l-186 -258h-60l146 -144q56 -56 75 -80.5t36 -64.5q27 -65 27 -162v-107 h-223l223 -227q-5 -115 -67 -223q-67 -116 -173 -189q-146 -101 -321 -101q-201 0 -361 129q-151 123 -191 302q-14 61 -14 180v236q0 88 28 144.5t115 140.5z"/>
<glyph glyph-name="ccaron" horiz-adv-x="1223" unicode="" d="M464 1457l-172 222l-162 -155l170 -237zM832 1644l-109 -152h-208l-112 152h109l109 -121l113 121h98zM899 1679h-177l-100 -106l-94 106h-193l164 -222h243zM699 677h188v-80q0 -81 -6.5 -118.5t-29.5 -77.5q-31 -58 -86 -95q-69 -45 -151 -45q-74 0 -137.5 36.5 t-96.5 97.5q-22 40 -28 75.5t-6 126.5v391q0 154 61 229q86 105 222 105q133 0 213 -102q27 -35 36 -65t9 -84v-149h-188v159q0 95 -79 95q-37 0 -59.5 -25.5t-22.5 -69.5v-558q0 -112 81 -112q80 0 80 112v154zM665 711v-188q0 -77 -46 -77q-26 0 -36.5 17.5t-10.5 59.5 v559q0 59 48 59q45 0 45 -59v-194h256v183q0 60 -11 95.5t-41 74.5q-90 115 -240 115q-78 0 -148 -36t-114 -99q-56 -79 -56 -233v-391q0 -96 6.5 -134.5t31.5 -83.5q32 -59 91 -99q79 -52 174 -52q126 0 215 87q53 52 72.5 111.5t19.5 170.5v114h-256zM199 193l143 139 q-36 50 -48 103t-12 162v383q0 83 7.5 124t29.5 84l-110 -110q-81 -81 -106.5 -131.5t-25.5 -132.5v-236q0 -137 25 -216t97 -169zM362 1265h-82l-194 262l183 180h270l84 -88l83 88h251l180 -184l-186 -258h-60l146 -144q56 -56 75 -80.5t36 -64.5q27 -65 27 -162v-107 h-223l223 -227q-5 -115 -67 -223q-67 -116 -173 -189q-146 -101 -321 -101q-201 0 -361 129q-151 123 -191 302q-14 61 -14 180v236q0 88 28 144.5t115 140.5z"/>
<glyph glyph-name="dmacron" horiz-adv-x="1269" unicode="" d="M98 42l214 197v447l-214 -201v-443zM594 728h58v135h-58v248h32h3q55 0 55 -61v-6v-513q0 -38 -9.5 -49.5t-38.5 -11.5h-42v258zM561 762v-327h74q45 0 64 22t19 73v514q0 51 -23 76t-70 25h-64v-316h56v-67h-56zM379 762h-96v67h96v475h262h22q257 0 257 -198 q0 -13 -1 -26v-536q0 -156 -44.5 -210t-172.5 -54h-323v482zM344 728v-482h357q90 0 135.5 18t75.5 65q23 37 32 83t9 132v536q0 84 -17.5 127t-67.5 78q-42 30 -91 41.5t-137 11.5h-296v-475h-95v-135h95zM21 519l193 195v133l-193 -190v-138zM98 779l119 115h95v433 l-214 -201v-347zM68 465h-78v208l78 78v388l244 226h314q117 0 171.5 -14t132.5 -63q150 -95 220.5 -213t70.5 -274v-380q1 -22 1 -42q0 -379 -360 -379h-13h-781v465z"/>
<glyph glyph-name="Gbreve" d="M887 871v-595h-162q-23 1 -27 35q-36 -43 -92 -43q-72 0 -138 41t-98 106q-16 34 -20.5 62t-4.5 101v451q0 125 63 198q85 100 211 100q71 0 133 -33t95 -88q40 -65 40 -156v-79h-191v105q0 105 -79 105q-82 0 -82 -105v-556q0 -101 79 -101q38 0 60 27t22 74v213h-130 v138h321zM569 699h93v-179q0 -67 -48 -67q-45 0 -45 67v179zM921 905h-352v171q0 71 48 71q45 0 45 -71v-139h259v113q0 112 -56 191q-38 54 -105.5 87t-139.5 33q-74 0 -141 -34.5t-112 -95.5q-56 -76 -56 -202v-451q0 -83 6.5 -117t28.5 -74q40 -69 111 -111t149 -42 q46 0 80 21q11 -13 27 -13h208v663zM413 1454q-109 43 -109 211v9l-162 -160q6 -80 33 -126t90 -85zM791 1648h69q-7 -70 -33 -102q-53 -67 -211 -67q-127 0 -187 41t-63 128h73q30 -36 69.5 -51t104.5 -15q128 0 178 66zM774 1682q-26 -37 -64.5 -52.5t-102.5 -15.5 q-110 0 -157 68h-116v-23q0 -83 34 -128q63 -81 244 -81q207 0 260 104q20 40 21 128h-119zM344 338q-40 50 -51.5 95.5t-11.5 148.5v447q1 93 28 153l-100 -98q-92 -91 -112.5 -137t-20.5 -164v-220q0 -120 27 -201.5t94 -163.5zM330 1242q-105 26 -159 97.5t-59 190.5 l193 186h167l54 -55q30 -17 80 -17q63 0 94.5 15.5t49.5 56.5h180l184 -189q1 -20 1 -35q0 -78 -57 -146t-148 -99l147 -151q47 -48 61 -67t29 -54q16 -39 20.5 -67t4.5 -100v-808h-397l-33 69q-79 -86 -188 -86q-81 0 -169 38t-161 105q-124 114 -161 271q-15 63 -15 185 v201q0 126 22.5 178t112.5 140z" unicode=""/>
<glyph glyph-name="gbreve" d="M887 871v-595h-162q-23 1 -27 35q-36 -43 -92 -43q-72 0 -138 41t-98 106q-16 34 -20.5 62t-4.5 101v451q0 125 63 198q85 100 211 100q71 0 133 -33t95 -88q40 -65 40 -156v-79h-191v105q0 105 -79 105q-82 0 -82 -105v-556q0 -101 79 -101q38 0 60 27t22 74v213h-130 v138h321zM569 699h93v-179q0 -67 -48 -67q-45 0 -45 67v179zM921 905h-352v171q0 71 48 71q45 0 45 -71v-139h259v113q0 112 -56 191q-38 54 -105.5 87t-139.5 33q-74 0 -141 -34.5t-112 -95.5q-56 -76 -56 -202v-451q0 -83 6.5 -117t28.5 -74q40 -69 111 -111t149 -42 q46 0 80 21q11 -13 27 -13h208v663zM413 1454q-109 43 -109 211v9l-162 -160q6 -80 33 -126t90 -85zM791 1648h69q-7 -70 -33 -102q-53 -67 -211 -67q-127 0 -187 41t-63 128h73q30 -36 69.5 -51t104.5 -15q128 0 178 66zM774 1682q-26 -37 -64.5 -52.5t-102.5 -15.5 q-110 0 -157 68h-116v-23q0 -83 34 -128q63 -81 244 -81q207 0 260 104q20 40 21 128h-119zM344 338q-40 50 -51.5 95.5t-11.5 148.5v447q1 93 28 153l-100 -98q-92 -91 -112.5 -137t-20.5 -164v-220q0 -120 27 -201.5t94 -163.5zM330 1242q-105 26 -159 97.5t-59 190.5 l193 186h167l54 -55q30 -17 80 -17q63 0 94.5 15.5t49.5 56.5h180l184 -189q1 -20 1 -35q0 -78 -57 -146t-148 -99l147 -151q47 -48 61 -67t29 -54q16 -39 20.5 -67t4.5 -100v-808h-397l-33 69q-79 -86 -188 -86q-81 0 -169 38t-161 105q-124 114 -161 271q-15 63 -15 185 v201q0 126 22.5 178t112.5 140z" unicode=""/>
<glyph glyph-name="Idot" horiz-adv-x="935" unicode="" d="M142 1306l181 146v198l-181 -160v-184zM390 1497v140h143v-140h-143zM356 1462h212v209h-212v-209zM370 280v1024h189v-1024h-189zM336 246h257v1092h-257v-1092zM96 31l211 201v1087l-211 -203v-1085zM215 1273h-99v228l219 200h257l201 -200v-228h-72l145 -141v-1132 h-798v1132z"/>
<glyph glyph-name="dotlessi" horiz-adv-x="935" unicode="" d="M370 280v1024h189v-1024h-189zM336 246h257v1092h-257v-1092zM96 31l211 201v1087l-211 -204v-1084zM68 0v1132l243 233h315l240 -233v-1132h-798z"/>
<glyph glyph-name="Lslash" horiz-adv-x="1129" unicode="" d="M302 361l-207 -207v-121l207 205v123zM207 659l-209 -203v-186l209 205v184zM302 1324l-207 -207v-520l207 210v517zM368 686l-96 -95v91l96 96v526h198v-354l166 166v-94l-166 -165v-409h251v-168h-449v406zM334 604v-358h517v236h-251v361l166 165v191l-166 -166v305 h-266v-546l-96 -96v-188zM68 106l-97 92v274l97 95v563l236 235h318l246 -248v-591l247 -235v-291h-1047v106z"/>
<glyph glyph-name="lslash" horiz-adv-x="1129" unicode="" d="M302 361l-207 -207v-121l207 205v123zM207 659l-209 -203v-186l209 205v184zM302 1324l-207 -207v-520l207 210v517zM368 686l-96 -95v91l96 96v526h198v-354l166 166v-94l-166 -165v-409h251v-168h-449v406zM334 604v-358h517v236h-251v361l166 165v191l-166 -166v305 h-266v-546l-96 -96v-188zM68 106l-97 92v274l97 95v563l236 235h318l246 -248v-591l247 -235v-291h-1047v106z"/>
<glyph glyph-name="OE" horiz-adv-x="1514" unicode="" d="M664 1071v-554q0 -38 -10.5 -53.5t-36.5 -15.5q-27 0 -37.5 15.5t-10.5 53.5v554q0 38 10.5 53.5t37.5 15.5q26 0 36.5 -15.5t10.5 -53.5zM535 1071v-553q0 -104 82 -104q81 0 81 104v553q0 103 -81 103q-82 0 -82 -103zM724 1304h455v-155h-280v-271h280v-162h-280v-292 h280v-144h-480q-45 -14 -81 -14q-71 0 -137 36t-101 94q-21 36 -27.5 71t-6.5 111v424q0 82 13 128.5t47 86.5q89 105 220 105q46 0 98 -18zM729 1338q-54 18 -103 18q-77 0 -146 -35.5t-114 -98.5q-31 -42 -43 -90.5t-12 -129.5v-424q0 -82 7.5 -120.5t31.5 -78.5 q37 -62 104 -101q77 -46 163 -46q40 0 87 14h509v212h-280v223h280v231h-280v203h280v223h-484zM198 187l149 143q-41 56 -53 101t-12 144v416v9q0 111 25 170l-125 -128q-75 -76 -89.5 -112.5t-14.5 -149.5v-171q0 -170 21.5 -246t98.5 -176zM737 1365h496l233 -234v-224 h-233l233 -226v-225h-233l233 -228v-228h-663q-96 -34 -191 -34q-218 0 -379 144q-142 128 -174 299q-11 59 -11 200v171q1 118 20 165q12 29 24 44t70 73l196 199q122 124 266 124q54 0 113 -20z"/>
<glyph glyph-name="oe" horiz-adv-x="1514" unicode="" d="M664 1071v-554q0 -38 -10.5 -53.5t-36.5 -15.5q-27 0 -37.5 15.5t-10.5 53.5v554q0 38 10.5 53.5t37.5 15.5q26 0 36.5 -15.5t10.5 -53.5zM535 1071v-553q0 -104 82 -104q81 0 81 104v553q0 103 -81 103q-82 0 -82 -103zM724 1304h455v-155h-280v-271h280v-162h-280v-292 h280v-144h-480q-45 -14 -81 -14q-71 0 -137 36t-101 94q-21 36 -27.5 71t-6.5 111v424q0 82 13 128.5t47 86.5q89 105 220 105q46 0 98 -18zM729 1338q-54 18 -103 18q-77 0 -146 -35.5t-114 -98.5q-31 -42 -43 -90.5t-12 -129.5v-424q0 -82 7.5 -120.5t31.5 -78.5 q37 -62 104 -101q77 -46 163 -46q40 0 87 14h509v212h-280v223h280v231h-280v203h280v223h-484zM198 187l149 143q-41 56 -53 101t-12 144v416v9q0 111 25 170l-125 -128q-75 -76 -89.5 -112.5t-14.5 -149.5v-171q0 -170 21.5 -246t98.5 -176zM737 1365h496l233 -234v-224 h-233l233 -226v-225h-233l233 -228v-228h-663q-96 -34 -191 -34q-218 0 -379 144q-142 128 -174 299q-11 59 -11 200v171q1 118 20 165q12 29 24 44t70 73l196 199q122 124 266 124q54 0 113 -20z"/>
<glyph glyph-name="Scedilla" horiz-adv-x="1196" unicode="" d="M528 9v125h152v-147l-69 -82h-35l45 104h-93zM494 -25h75l-45 -104h103l87 104v193h-220v-193zM346 -267l127 100l39 92l-114 -103zM286 -178l177 152v191l-177 -154v-189zM330 660h185v-96q0 -77 11 -104q20 -50 74 -50q81 0 81 106q0 67 -17.5 94.5t-90.5 76.5 q-78 51 -157 126q-84 79 -84 206q0 150 84 229q80 75 193 75q71 0 133.5 -32t97.5 -87q36 -56 36 -157v-109h-193v126q0 107 -77 107q-81 0 -81 -119q0 -57 27 -93q20 -27 100 -83l76 -53q97 -69 124 -112t27 -130q0 -88 -28 -157q-27 -68 -91 -114q-71 -51 -156 -51 q-73 0 -141.5 39.5t-102.5 100.5q-20 37 -25 70t-5 128v63zM549 660l63 -45q34 -24 34 -104q0 -67 -47 -67q-31 0 -40.5 23t-9.5 97v96zM648 918q-60 46 -74.5 68.5t-14.5 68.5q0 82 46 82q24 0 33.5 -16.5t9.5 -56.5v-146zM296 694v-97q0 -100 6 -136.5t28 -77.5 q36 -65 105 -108q81 -50 168 -50q135 0 227 102q83 92 83 254q0 96 -31.5 147.5t-133.5 122.5l-76 53h238v143q0 111 -41 175q-32 50 -85 84q-80 50 -175 50q-146 0 -237 -105q-74 -86 -74 -232q0 -102 40 -164t167 -161h-209zM283 899q-16 52 -16 111q0 92 33 180l-101 -93 q-72 -67 -100 -126.5t-28 -145.5q0 -61 18 -111zM88 479v-10q0 -163 96 -275l145 140q-39 48 -51 97.5t-12 159.5v73zM890 48l50 -53v-211h-97l69 -112h-626l50 112h-80v244l35 29q-234 153 -234 420v18l73 74q-89 108 -89 255q0 91 30.5 157t104.5 134l154 142 q74 69 138.5 98.5t139.5 29.5q157 0 282 -129l137 -141q65 -67 90 -122q38 -85 38 -160l-2 -97v-48h-237l139 -107q58 -44 75 -72.5t17 -80.5q0 -98 -72 -205t-185 -175z"/>
<glyph glyph-name="scedilla" horiz-adv-x="1196" unicode="" d="M528 9v125h152v-147l-69 -82h-35l45 104h-93zM494 -25h75l-45 -104h103l87 104v193h-220v-193zM346 -267l127 100l39 92l-114 -103zM286 -178l177 152v191l-177 -154v-189zM330 660h185v-96q0 -77 11 -104q20 -50 74 -50q81 0 81 106q0 67 -17.5 94.5t-90.5 76.5 q-78 51 -157 126q-84 79 -84 206q0 150 84 229q80 75 193 75q71 0 133.5 -32t97.5 -87q36 -56 36 -157v-109h-193v126q0 107 -77 107q-81 0 -81 -119q0 -57 27 -93q20 -27 100 -83l76 -53q97 -69 124 -112t27 -130q0 -88 -28 -157q-27 -68 -91 -114q-71 -51 -156 -51 q-73 0 -141.5 39.5t-102.5 100.5q-20 37 -25 70t-5 128v63zM549 660l63 -45q34 -24 34 -104q0 -67 -47 -67q-31 0 -40.5 23t-9.5 97v96zM648 918q-60 46 -74.5 68.5t-14.5 68.5q0 82 46 82q24 0 33.5 -16.5t9.5 -56.5v-146zM296 694v-97q0 -100 6 -136.5t28 -77.5 q36 -65 105 -108q81 -50 168 -50q135 0 227 102q83 92 83 254q0 96 -31.5 147.5t-133.5 122.5l-76 53h238v143q0 111 -41 175q-32 50 -85 84q-80 50 -175 50q-146 0 -237 -105q-74 -86 -74 -232q0 -102 40 -164t167 -161h-209zM283 899q-16 52 -16 111q0 92 33 180l-101 -93 q-72 -67 -100 -126.5t-28 -145.5q0 -61 18 -111zM88 479v-10q0 -163 96 -275l145 140q-39 48 -51 97.5t-12 159.5v73zM890 48l50 -53v-211h-97l69 -112h-626l50 112h-80v244l35 29q-234 153 -234 420v18l73 74q-89 108 -89 255q0 91 30.5 157t104.5 134l154 142 q74 69 138.5 98.5t139.5 29.5q157 0 282 -129l137 -141q65 -67 90 -122q38 -85 38 -160l-2 -97v-48h-237l139 -107q58 -44 75 -72.5t17 -80.5q0 -98 -72 -205t-185 -175z"/>
<glyph glyph-name="Scaron" horiz-adv-x="1196" unicode="" d="M451 1457l-173 222l-162 -155l170 -237zM819 1644l-109 -152h-208l-113 152h110l108 -121l113 121h99zM886 1679h-177l-100 -106l-95 106h-193l164 -222h244zM330 660h185v-96q0 -77 11 -104q20 -50 74 -50q81 0 81 106q0 66 -17.5 93.5t-90.5 76.5q-78 52 -157 126 q-84 79 -84 206q0 150 84 229q79 75 193 75q71 0 133.5 -32t97.5 -86q36 -56 36 -157v-109h-193v126q0 106 -77 106q-81 0 -81 -118q0 -57 27 -94q20 -27 100 -82l77 -53q95 -66 122.5 -110.5t27.5 -131.5t-28 -156q-27 -69 -90 -114q-71 -51 -157 -51q-73 0 -141.5 39 t-102.5 101q-20 36 -25 69t-5 128v63zM549 660q8 -6 10 -8q65 -46 76 -63.5t11 -77.5q0 -67 -47 -67q-31 0 -40.5 23t-9.5 97v96zM648 918q-59 45 -74 68t-15 69q0 82 46 82q24 0 33.5 -16.5t9.5 -56.5v-146zM296 694v-97q0 -100 6 -136t28 -77q36 -65 105 -108 q81 -50 168 -50q135 0 227 101q83 93 83 254q0 96 -31.5 147.5t-133.5 122.5l-76 53h238v143q0 111 -41 176q-32 49 -85 83q-80 51 -175 51q-146 0 -237 -106q-74 -86 -74 -232q0 -102 40 -164t167 -161h-209zM283 899q-16 52 -16 111q0 92 33 180l-100 -94 q-73 -67 -101 -126t-28 -145q0 -60 18 -111zM88 479v-7q0 -165 96 -278l145 140q-39 49 -51 98t-12 159v73zM339 1265h-73l-193 262l182 180h270l84 -88l83 88h252l180 -184l-187 -258h-56l146 -150q128 -132 128 -282l-2 -97v-48h-236l138 -107q58 -44 75 -72.5t17 -80.5 q0 -126 -111 -256q-69 -80 -157 -130q-131 -75 -279 -75q-163 0 -306 89q-123 78 -179.5 182.5t-56.5 250.5v5l73 75q-90 108 -90 255q0 91 30.5 156.5t104.5 134.5z"/>
<glyph glyph-name="scaron" horiz-adv-x="1196" unicode="" d="M451 1457l-173 222l-162 -155l170 -237zM819 1644l-109 -152h-208l-113 152h110l108 -121l113 121h99zM886 1679h-177l-100 -106l-95 106h-193l164 -222h244zM330 660h185v-96q0 -77 11 -104q20 -50 74 -50q81 0 81 106q0 66 -17.5 93.5t-90.5 76.5q-78 52 -157 126 q-84 79 -84 206q0 150 84 229q79 75 193 75q71 0 133.5 -32t97.5 -86q36 -56 36 -157v-109h-193v126q0 106 -77 106q-81 0 -81 -118q0 -57 27 -94q20 -27 100 -82l77 -53q95 -66 122.5 -110.5t27.5 -131.5t-28 -156q-27 -69 -90 -114q-71 -51 -157 -51q-73 0 -141.5 39 t-102.5 101q-20 36 -25 69t-5 128v63zM549 660q8 -6 10 -8q65 -46 76 -63.5t11 -77.5q0 -67 -47 -67q-31 0 -40.5 23t-9.5 97v96zM648 918q-59 45 -74 68t-15 69q0 82 46 82q24 0 33.5 -16.5t9.5 -56.5v-146zM296 694v-97q0 -100 6 -136t28 -77q36 -65 105 -108 q81 -50 168 -50q135 0 227 101q83 93 83 254q0 96 -31.5 147.5t-133.5 122.5l-76 53h238v143q0 111 -41 176q-32 49 -85 83q-80 51 -175 51q-146 0 -237 -106q-74 -86 -74 -232q0 -102 40 -164t167 -161h-209zM283 899q-16 52 -16 111q0 92 33 180l-100 -94 q-73 -67 -101 -126t-28 -145q0 -60 18 -111zM88 479v-7q0 -165 96 -278l145 140q-39 49 -51 98t-12 159v73zM339 1265h-73l-193 262l182 180h270l84 -88l83 88h252l180 -184l-187 -258h-56l146 -150q128 -132 128 -282l-2 -97v-48h-236l138 -107q58 -44 75 -72.5t17 -80.5 q0 -126 -111 -256q-69 -80 -157 -130q-131 -75 -279 -75q-163 0 -306 89q-123 78 -179.5 182.5t-56.5 250.5v5l73 75q-90 108 -90 255q0 91 30.5 156.5t104.5 134.5z"/>
<glyph glyph-name="Ydieresis" horiz-adv-x="1178" unicode="" d="M112 1306l180 146v198l-180 -160v-184zM679 1497v140h150v-140h-150zM645 1462h218v209h-218v-209zM359 1497v140h143v-140h-143zM325 1462h212v209h-212v-209zM502 280v420l-195 604h181l114 -334l99 334h174l-166 -595v-429h-207zM468 246h275v458l177 634h-245 l-75 -254l-87 254h-253l208 -644v-448zM221 523l207 190l-196 603l-205 -192zM224 29l212 199v453l-212 -195v-457zM142 1273h-56v228l218 200h258l52 -51v51h278l200 -200v-228h-42l135 -121l-173 -628v-524h-819v508l-200 625z"/>
<glyph glyph-name="Zcaron" horiz-adv-x="1181" unicode="" d="M443 1457l-172 222l-162 -155l138 -193l33 34h74zM811 1644l-109 -152h-208l-112 152h109l108 -121l113 121h99zM877 1679h-177l-99 -106l-95 106h-192l163 -222h243zM326 280v176l322 669h-322v179h530v-186l-316 -662h316v-176h-530zM291 246h599v244h-297l297 620v228 h-599v-247h302l-302 -627v-218zM57 894l201 184v231l-201 -183v-232zM86 332l180 161l272 558l-183 -170zM57 39l201 180v222l-201 -175v-227zM221 1315l-156 212l182 180h270l84 -88l83 88h252l180 -184l-149 -206l187 -191v-191l-221 -459l221 -196v-280h-1127v280 l285 584h-285v275z"/>
<glyph glyph-name="zcaron" horiz-adv-x="1181" unicode="" d="M443 1457l-172 222l-162 -155l138 -193l33 34h74zM811 1644l-109 -152h-208l-112 152h109l108 -121l113 121h99zM877 1679h-177l-99 -106l-95 106h-192l163 -222h243zM326 280v176l322 669h-322v179h530v-186l-316 -662h316v-176h-530zM291 246h599v244h-297l297 620v228 h-599v-247h302l-302 -627v-218zM57 894l201 184v231l-201 -183v-232zM86 332l180 161l272 558l-183 -170zM57 39l201 180v222l-201 -175v-227zM221 1315l-156 212l182 180h270l84 -88l83 88h252l180 -184l-149 -206l187 -191v-191l-221 -459l221 -196v-280h-1127v280 l285 584h-285v275z"/>
<glyph glyph-name="florin" d="M422 974l-239 -231l-31 -181l243 236zM327 7l134 772l-284 -267l-112 -704zM501 1016l21 125q19 111 37 147l-161 -150q-152 -141 -170 -313l198 191h75zM487 961h70l39 221q13 71 30 106.5t51 62.5q61 48 153 48q41 0 82 -16l-32 -184q-17 10 -34 10q-29 0 -44 -21 t-25 -76l-27 -151h88l-23 -131h-88l-134 -762h-193l134 762h-70zM459 995l-35 -200h69l-134 -761h262l135 761h87l35 200h-87l19 112q10 48 15.5 58.5t20.5 10.5q22 0 59 -30l46 259q-70 29 -123 29q-120 0 -191 -70q-52 -51 -74 -175l-34 -194h-70zM1191 1210l-58 -318 q-16 27 -30 27q-20 0 -32 -55l47 -48l-44 -253h-54l-138 -781h-848l116 714h-34l45 260l35 35l3 31q14 170 191 341l162 159q60 58 89 80q79 58 184 58q92 0 158 -40z" unicode=""/>
<glyph glyph-name="circumflex" horiz-adv-x="1024" unicode="" d="M296 1491l111 153h208l116 -153h-110l-112 124l-113 -124h-100zM229 1457h182l98 107l97 -107h193l-167 221h-242zM184 1442l111 157l-199 -220zM-29 1272l385 436h294l375 -436h-398l-118 175l-130 -175h-408z"/>
<glyph glyph-name="caron" horiz-adv-x="1024" unicode="" d="M365 1458l-172 221l-162 -155l170 -237zM733 1644l-109 -152h-208l-112 152h109l108 -121l113 121h99zM800 1679h-178l-99 -106l-95 106h-192l163 -222h243zM858 1707l180 -185l-186 -257h-672l-193 261l183 181h269l84 -89l83 89h252z"/>
<glyph glyph-name="macron" horiz-adv-x="1024" unicode="" d="M21 1306l180 146v198l-180 -160v-184zM268 1497v140h497v-140h-497zM234 1462h566v208h-566v-208zM-5 1272v229l218 200h615l200 -200v-229h-1033z"/>
<glyph glyph-name="breve" horiz-adv-x="1024" unicode="" d="M312 1454q-110 43 -110 214v6l-161 -160q6 -79 33 -125.5t90 -85.5zM689 1648h69q-7 -69 -32 -101q-54 -67 -212 -67q-126 0 -186.5 40.5t-62.5 127.5h73q30 -36 69 -50.5t105 -14.5q127 0 177 65zM673 1682q-27 -37 -65 -52.5t-103 -15.5q-109 0 -156 68h-116 q-1 -17 -1 -23q0 -83 34 -128q63 -81 244 -81q208 0 260 104q20 40 22 128h-119zM829 1716l184 -189q1 -22 1 -35q0 -82 -60 -149q-70 -78 -161 -100q-116 -28 -264 -28q-258 0 -363 51q-80 39 -115.5 99t-39.5 165l193 186h166l54 -55q31 -17 80 -17q63 0 94.5 15.5 t49.5 56.5h181z"/>
<glyph glyph-name="dotaccent" horiz-adv-x="1024" unicode="" d="M200 1306l180 146v198l-180 -160v-184zM447 1497v140h143v-140h-143zM413 1462h212v208h-212v-208zM174 1272v229l218 200h258l201 -200v-229h-677z"/>
<glyph glyph-name="ring" horiz-adv-x="1024" unicode="" d="M515 1557q-17 0 -28.5 -11.5t-11.5 -27.5q0 -17 11.5 -28.5t27.5 -11.5q17 0 28.5 11.5t11.5 27.5q0 17 -11 28t-28 12zM517 1616q39 0 67.5 -29t28.5 -69t-28.5 -68.5t-68.5 -28.5q-41 0 -69.5 28.5t-28.5 69.5t29 69t70 28zM518 1650q-56 0 -95 -38t-39 -92 q0 -56 38.5 -94.5t93.5 -38.5q54 0 92.5 38.5t38.5 93.5q0 54 -37.5 91.5t-91.5 39.5zM398 1404q-48 48 -48 113q0 17 6 42l-112 -103q-36 -32 -47.5 -52.5t-11.5 -51.5q0 -29 13 -57t33 -42zM208 1231q-54 54 -54 120q0 41 15.5 66.5t66.5 71.5l144 129q69 62 135 62 q75 0 138 -74l100 -117q63 -74 63 -139q0 -70 -51 -119h-557z"/>
<glyph glyph-name="ogonek" horiz-adv-x="1024" unicode="" d="M507 141l-149 -156q-30 -31 -30 -65q0 -48 34.5 -84.5t91.5 -49.5l133 143q-42 21 -66.5 60t-24.5 84q0 24 11 68zM762 98l40 -60q-66 -56 -132 -56q-42 0 -72.5 29t-30.5 69q0 79 103 167h68q-81 -80 -81 -129q0 -42 45 -42q28 0 60 22zM771 137q-30 -20 -55 -20 q-21 0 -21 17q0 32 109 146h-149q-75 -73 -99 -111t-24 -85q0 -59 41.5 -99t102.5 -40q45 0 81.5 15.5t100.5 63.5zM1082 -195q-138 -76 -383 -76q-206 0 -319 57q-84 43 -84 122q0 33 12 57.5t46 59.5l285 293h244l149 -149q-107 -72 -107 -139q0 -10 7 -24z"/>
<glyph glyph-name="tilde" horiz-adv-x="1024" unicode="" d="M254 1490v24q0 71 21 101.5t71 30.5q40 0 127 -26q89 -26 125 -26q48 0 85 51h62q0 -68 -12 -101q-11 -29 -36 -47.5t-53 -18.5q-32 0 -124 32q-87 31 -120 31q-54 0 -80 -51h-66zM220 1456h126q8 52 54 52q27 0 108 -29q98 -35 136 -35q63 0 99 50t36 138q0 18 -2 47 h-116q-17 -51 -65 -51q-28 0 -113 26q-92 27 -136 27q-66 0 -96.5 -40t-30.5 -127v-58zM191 1416v104q1 69 21 107q-65 -34 -111 -122.5t-46 -179.5q0 -23 4 -58zM34 1228q-4 55 -4 94q0 163 103 275q102 111 215 111q43 0 137 -29q73 -22 98 -22q46 0 59 50h158l191 -187 q1 -30 1 -43q0 -120 -72 -183q-31 -27 -92 -46.5t-115 -19.5h-679z"/>
<glyph glyph-name="hungarumlaut" horiz-adv-x="1024" unicode="" d="M598 1488l57 157h117l-104 -157h-70zM549 1453h138l148 226h-204zM359 1488l57 157h117l-104 -157h-70zM310 1453h138l148 226h-204zM146 1339l131 112l80 207zM60 1257l298 451h501l215 -257l-159 -194h-855z"/>
<glyph glyph-name="endash" horiz-adv-x="1310" unicode="" d="M361 696v169h562v-169h-562zM327 662h630v238h-630v-238zM99 454l193 194v236l-193 -191v-239zM68 400v309l224 224h685l264 -224v-309h-1173z"/>
<glyph glyph-name="emdash" horiz-adv-x="1692" unicode="" d="M361 696v169h944v-169h-944zM327 662h1012v238h-1012v-238zM99 454l193 194v236l-193 -191v-239zM68 400v309l224 224h1067l264 -224v-309h-1555z"/>
<glyph glyph-name="quoteleft" horiz-adv-x="793" unicode="" d="M85 1047v-178l170 146v192zM401 1297h29l-47 -103h86v-124h-149v148zM391 1331l-106 -104v-191h220v191h-74l44 104h-84zM373 1365h132l195 -152l-36 -91l75 -75v-212h-684v225z"/>
<glyph glyph-name="quoteright" horiz-adv-x="793" unicode="" d="M327 1170v125h152v-147l-69 -82h-35l45 104h-93zM293 1136h75l-45 -104h103l87 104v193h-220v-193zM144 894l128 99l39 93l-115 -103zM84 983l178 152v191l-178 -154v-189zM55 944v244l207 177h274l203 -209v-212h-97l69 -111h-627l50 111h-79z"/>
<glyph glyph-name="quotesinglbase" horiz-adv-x="820" unicode="" d="M340 225v125h152v-147l-69 -82h-35l45 104h-93zM306 191h75l-45 -104h103l87 104v193h-220v-193zM157 -51l128 100l39 92l-115 -103zM97 38l178 152v191l-178 -154v-189zM68 0v243l207 177h274l203 -209v-211h-97l69 -112h-627l50 112h-79z"/>
<glyph glyph-name="quotedblleft" horiz-adv-x="1077" unicode="" d="M684 1297h29l-47 -103h86v-124h-149v148zM674 1331l-106 -104v-191h220v191h-74l44 104h-84zM85 1047v-178l170 146v192zM401 1297h29l-47 -103h86v-124h-149v148zM391 1331l-106 -104v-191h220v191h-74l44 104h-84zM373 1365h415l195 -152l-35 -91l74 -75v-212h-967v225 z"/>
<glyph glyph-name="quotedblright" horiz-adv-x="1001" unicode="" d="M566 1163v135h151v-136l-74 -90h-27l40 91h-90zM532 1128h72l-40 -90h95l92 111v183h-219v-204zM318 1163v135h151v-136l-74 -90h-27l40 91h-90zM284 1128h72l-40 -90h95l92 111v183h-219v-204zM376 878l131 107l49 97l-118 -97zM84 985l170 143v187l-170 -149v-181z M123 878l131 107l50 97l-119 -97zM67 831l62 114h-74v235l212 185h502l178 -199v-221h-106l78 -114h-852z"/>
<glyph glyph-name="quotedblbase" horiz-adv-x="1001" unicode="" d="M566 217v135h151v-136l-74 -90h-27l40 91h-90zM532 183h72l-40 -91h95l92 112v183h-219v-204zM318 217v135h151v-136l-74 -90h-27l40 91h-90zM284 183h72l-40 -91h95l92 112v183h-219v-204zM376 -67l131 106l49 98l-118 -98zM84 39l170 144v187l-170 -149v-182zM123 -67 l131 106l50 98l-119 -98zM67 -114l62 114h-74v235l212 185h502l178 -199v-221h-106l78 -114h-852z"/>
<glyph glyph-name="bullet" horiz-adv-x="1365" unicode="" d="M689 978q113 0 196 -83q84 -83 84 -201t-83 -201t-201 -83q-116 0 -199 82q-85 84 -85 202q0 121 84 202q86 82 204 82z"/>
<glyph glyph-name="guilsinglleft" horiz-adv-x="878" unicode="" d="M410 577l-124 211l124 208h106l-120 -208l120 -211h-106zM391 543h184l-140 245l140 243h-184l-145 -243zM119 671l82 91l126 221zM229 339l140 175l-140 234l-159 -178zM211 301l-184 269l322 494h257l188 -156l-141 -262l170 -345h-612z"/>
<glyph glyph-name="guilsinglright" horiz-adv-x="932" unicode="" d="M390 574l127 219l-125 205h124l113 -205l-133 -219h-106zM331 540h184l154 252l-133 240h-205l146 -240zM292 690l147 95l-141 231l-143 -107zM137 382l133 118l127 218l-109 -72zM266 673l-156 242l201 149h251l343 -480l-203 -283h-647z"/>
<glyph glyph-name="franc" horiz-adv-x="1525" unicode="" d="M840 966h191v-83q66 98 159 108v-186q-17 3 -29 3q-52 0 -86 -24q-27 -19 -35.5 -47t-8.5 -99v-358h-191v686zM806 1000v-754h259v393q0 89 20 109q25 26 72 26q25 0 67 -9v265q-104 -10 -159 -56v26h-259zM369 280v1024h430v-163h-240v-302h172v-177h-172v-382h-190z M334 246h258v381h173v246h-173v233h241v232h-499v-1092zM98 39l206 189v1099l-206 -195v-1093zM1099 1032q59 28 151 31l241 -247v-335q-26 26 -64 26q-47 0 -73.5 -34.5t-26.5 -95.5v-377h-1259v1143l236 222h567l228 -250v-83z"/>
<glyph glyph-name="fraction" horiz-adv-x="0" unicode="" d="M-260 182h-97l594 1129h101zM-237 149l626 1189h-178l-624 -1189h176zM-458 131l620 1180l-102 -76l-615 -1172zM534 1250l-660 -1250h-491l654 1244l173 121h204z"/>
<glyph glyph-name="apple" horiz-adv-x="1365" unicode="" d="M1277 935q-65 -50 -98 -92q-67 -84 -67 -192q0 -103 54 -184t149 -122q-66 -161 -139 -256q-110 -143 -208 -143q-30 0 -50.5 6.5t-114.5 45.5q-16 7 -78 7q-52 0 -75 -5.5t-107 -39.5q-42 -17 -79 -17q-55 0 -114 43.5t-112 123.5q-73 108 -118 231q-54 149 -54 288 q0 183 100 314q103 134 283 134q66 0 158 -36q68 -26 97 -26q35 0 89 21q80 30 111.5 37.5t76.5 7.5q189 0 296 -146zM984 1416v-21q0 -161 -127 -265q-48 -39 -86 -54t-91 -15q3 146 84.5 241.5t219.5 113.5z"/>
</font>
</defs>
</svg>
