<?xml version="1.0" encoding="UTF-8" standalone="no"?>
<!DOCTYPE svg  PUBLIC '-//W3C//DTD SVG 1.1//EN'  'http://www.w3.org/Graphics/SVG/1.1/DTD/svg11.dtd'>
<svg xmlns="http://www.w3.org/2000/svg">
<defs>
<font id="CenturionOldItalic-Regular" horiz-adv-x="1104">
<font-face slope="1" underline-position="-75" font-weight="400" descent="-410" panose-1="2 11 5 0 0 0 0 0 0 0" units-per-em="2048" unicode-range="U+0020-203A" bbox="-293 -428 2253 2019" x-height="1024" underline-thickness="50" font-family="CenturionOldItalic" ascent="1638" font-style="italic" cap-height="1499"/>
<missing-glyph horiz-adv-x="2048"/>
<glyph glyph-name=".notdef" horiz-adv-x="2048"/>
<glyph glyph-name=".null" horiz-adv-x="0"/>
<glyph glyph-name="nonmarkingreturn" horiz-adv-x="0"/>
<glyph glyph-name="space" horiz-adv-x="553" unicode=" "/>
<glyph glyph-name="exclam" horiz-adv-x="629" unicode="!" d="M209 -25q-50 0 -87.5 37.5t-37.5 87.5q0 51 37 87t88 36q49 0 86 -36t37 -87q0 -50 -37.5 -87.5t-85.5 -37.5zM268 440q42 190 68 315t50 277t34 277q8 82 44 146.5t107 64.5q44 0 72.5 -34t28.5 -77q0 -27 -17 -82q-25 -74 -76 -198.5t-102 -251.5t-85 -236t-52 -217z "/>
<glyph glyph-name="quotedbl" horiz-adv-x="709" unicode='&quot;' d="M520 903l113 481q19 115 92 115q20 0 35.5 -13.5t15.5 -33.5q0 -51 -28 -109l-181 -440l-11 -22t-12.5 -19.5t-19.5 -13.5q-12 6 -12 29q0 6 8 26zM201 903l110 481q19 115 92 115q22 0 38 -13t16 -34q0 -49 -29 -109l-180 -440q-24 -45 -43 -55q-12 6 -12 29q0 6 8 26z "/>
<glyph glyph-name="numbersign" d="M793 881h-269l-45 -306h269zM1067 575v-106h-219l-68 -469h-116l67 469h-266l-74 -469h-110l67 469h-213v106h230l43 306h-224v106h244l59 445h117l-63 -445h268l63 445h115l-63 -445h192v-106h-213l-39 -306h203z" unicode="#"/>
<glyph glyph-name="dollar" d="M592 827l121 453q-87 0 -151 -22t-103 -64t-51 -102q-4 -19 -5.5 -35.5t-3.5 -28.5q3 -76 50 -121t143 -80zM492 84q64 0 127 18.5t114 54.5t81 88t30 120q0 145 -215 227zM373 0q-102 12 -180 54.5t-121 107t-43 135.5q0 55 32 89t78 34q53 0 79 -37.5t37 -91.5t21 -107 q17 -77 119 -96l146 537q-82 33 -139.5 68.5t-92.5 75t-49 83.5q-16 76 -20 109q3 90 42 164t107.5 128t157 82.5t184.5 28.5l45 160h96l-41 -160q62 -9 118 -34.5t99 -65t66 -83.5t23 -94q0 -107 -109 -126q-55 8 -75 41.5t-33.5 104t-34 110.5t-76.5 55l-125 -475 q81 -30 138.5 -62t100 -73.5t68 -102.5t25.5 -143q-6 -101 -54.5 -179t-128.5 -131.5t-175.5 -79.5t-188.5 -26l-57 -219h-101z" unicode="$"/>
<glyph glyph-name="percent" horiz-adv-x="1427" unicode="%" d="M907 360q-39 -148 -43 -204q6 -107 92 -113q86 0 144 113q32 56 76 192q41 143 41 227q-8 93 -89 93q-72 0 -123 -76t-98 -232zM780 391q60 156 158.5 250t202.5 94q61 0 106 -39t68.5 -98.5t23.5 -122.5q0 -49 -12 -102q-23 -87 -77 -180t-133 -155.5t-169 -62.5 q-93 0 -145 71.5t-64 168.5q6 84 41 176zM356 1104q-41 -150 -45 -207q3 -55 24 -79.5t64 -29.5q90 0 132.5 80t89.5 224q43 139 43 231q-8 92 -89 92q-48 0 -87.5 -37t-70.5 -104.5t-61 -169.5zM223 1141q44 105 102 181t126.5 119.5t136.5 43.5q64 0 109.5 -40.5 t68 -101.5t22.5 -122t-19.5 -127.5t-52 -123t-79.5 -106.5q-117 -143 -242 -143q-95 4 -145 75t-62 173q10 101 35 172zM252 -12l907 1476h113l-903 -1476h-117z"/>
<glyph glyph-name="ampersand" horiz-adv-x="1532" unicode="&amp;" d="M655 940q131 47 233.5 139.5t102.5 212.5q0 67 -37 109.5t-102 42.5q-82 0 -128 -50.5t-62.5 -123.5t-20.5 -154q4 -99 14 -176zM836 88q-89 -55 -182.5 -81.5t-184.5 -26.5q-82 0 -137 16q-250 73 -256 340q0 92 40 191t132 192.5t244 161.5q-4 39 -8.5 76t-8 66.5 t-4.5 43.5q10 93 31 163.5t61 137.5q50 70 127 113t174 43q121 0 197 -69t76 -171q0 -81 -44.5 -144t-117 -112.5t-143 -80.5t-164.5 -66q102 -424 252 -621q88 93 151 208t66 212q0 73 -31 98.5t-137 32.5l14 70h524l-18 -70q-155 0 -250 -190q-19 -40 -49.5 -101.5 t-60.5 -113.5t-70.5 -106.5t-89.5 -102.5q96 -97 219 -97q61 0 129.5 26.5t109.5 70.5l37 -54q-85 -75 -178.5 -119t-193.5 -44q-149 0 -256 108zM793 143q-65 81 -117 177.5t-93 213.5t-79 263q-98 -64 -158.5 -156.5t-73.5 -200.5q0 -32 -4 -53q3 -109 66 -193.5 t166 -109.5q11 -2 34 -4t33 -4q123 6 226 67z"/>
<glyph glyph-name="quotesingle" horiz-adv-x="424" unicode="&apos;" d="M377 1251q0 17 -6.5 25t-26.5 33q-46 33 -51 100q35 115 131 115q46 0 81.5 -36.5t35.5 -103.5q0 -131 -103.5 -236.5t-236.5 -174.5l-29 47q74 41 135 113q32 31 51 62.5t19 55.5z"/>
<glyph glyph-name="parenleft" horiz-adv-x="936" unicode="(" d="M584 -188q-121 88 -192.5 220.5t-88.5 286.5q-2 17 -2 54q0 117 33 244t91.5 252t123.5 214q109 148 218.5 251.5t268.5 189.5l29 -56q-127 -95 -236.5 -223t-191 -278t-127.5 -311.5t-49 -323.5q9 -105 25 -180.5t50.5 -152t88.5 -138.5z"/>
<glyph glyph-name="parenright" horiz-adv-x="936" unicode=")" d="M412 1524q59 -43 108 -99.5t84.5 -122t56.5 -138t27 -148.5q4 -46 4 -66q0 -87 -19 -181t-52 -183.5t-77.5 -173t-99.5 -160.5q-100 -141 -211 -245t-276 -195l-29 53q230 171 365 403q80 132 132.5 257t79.5 243.5t27 230.5q0 129 -40.5 256.5t-118.5 221.5z"/>
<glyph glyph-name="asterisk" horiz-adv-x="1200" unicode="*" d="M815 1192l209 20q45 0 87 -15.5t42 -51.5t-31.5 -53t-72.5 -17q-40 0 -76 5t-81.5 15.5t-76.5 16.5q41 -82 68.5 -150t27.5 -114q0 -28 -14.5 -50t-40.5 -22q-38 0 -63 47q-17 31 -27.5 79.5t-16 98t-10.5 86.5q-9 -8 -68.5 -62.5t-105 -84t-78.5 -29.5q-24 0 -39.5 14.5 t-15.5 39.5q0 38 51 79q33 25 69.5 45t78 38.5t61.5 27.5q-41 21 -99 51.5t-97 66t-52 87.5q11 26 21.5 38.5t30.5 12.5q36 0 70 -20t61.5 -47t65 -68.5t50.5 -54.5q1 3 10.5 55.5t21.5 98t26 77.5q25 72 76 72q27 0 41 -21.5t14 -50.5q0 -44 -33 -109.5t-84 -150.5z"/>
<glyph glyph-name="plus" d="M129 629h399v395h109v-395h399v-109h-399v-403h-109v403h-399v109z" unicode="+"/>
<glyph glyph-name="comma" horiz-adv-x="553" unicode="," d="M236 -55q-7 30 -35 55q-45 43 -49 96q13 60 43.5 89.5t89.5 29.5q26 0 52.5 -15t44 -47t17.5 -77q0 -129 -103.5 -235t-236.5 -177l-26 51q70 41 135 109q68 78 68 121z"/>
<glyph glyph-name="hyphen" horiz-adv-x="508" unicode="-" d="M41 612h508l-41 -155h-508z"/>
<glyph glyph-name="period" horiz-adv-x="553" unicode="." d="M172 -25q-49 0 -87 37t-38 88q0 52 37.5 87.5t87.5 35.5t87.5 -35.5t37.5 -87.5q0 -33 -17 -61.5t-45.5 -46t-62.5 -17.5z"/>
<glyph glyph-name="slash" horiz-adv-x="940" unicode="/" d="M965 1516h122l-1099 -1743h-119z"/>
<glyph glyph-name="zero" d="M131 780q77 198 183.5 351.5t229.5 239t249 85.5q110 0 189.5 -74.5t119 -186t39.5 -218.5q0 -96 -22.5 -193t-61.5 -187t-87 -172.5t-114 -172.5q-104 -138 -219.5 -207.5t-220.5 -69.5q-88 4 -153.5 45t-109 111t-63.5 147t-27 162q5 85 20.5 168t47.5 172zM332 725 q-43 -138 -64 -240t-24 -186q6 -216 164 -236q178 0 292 222q47 88 87.5 183t84.5 237q54 191 71.5 263t17.5 152q0 102 -44 177t-137 75t-170.5 -76t-143.5 -216.5t-134 -354.5z" unicode="0"/>
<glyph glyph-name="one" d="M139 0l17 68q93 0 150.5 15t96.5 60.5t66 141.5l215 827q8 50 8 64q0 44 -31.5 57.5t-111.5 13.5h-125l16 70q118 4 238 30.5t291 84.5l-310 -1160q-9 -34 -16 -88q0 -50 29 -76t71.5 -33.5t116.5 -11.5q21 5 47 5l-18 -68h-750z" unicode="1"/>
<glyph glyph-name="two" d="M184 156h211q105 0 150 -4q127 6 182 16q78 21 127 69.5t98 143.5l72 -29l-143 -352h-914q51 127 140 235t188 191.5t255 203t234 189.5q80 72 127.5 153.5t53.5 155.5q0 109 -57 175t-160 69q-66 0 -116 -27t-73 -73q-17 -33 -25.5 -107.5t-22 -115t-58.5 -58.5 q-25 -8 -50 -10q-44 2 -74 33.5t-30 93.5q0 104 74 183t183 122t208 43q83 -3 157 -29.5t131 -71.5t90.5 -111t33.5 -148q0 -94 -51.5 -173.5t-127 -141t-196.5 -135.5t-150 -93q-97 -66 -139 -95.5t-103.5 -80t-115.5 -102.5t-109 -119z" unicode="2"/>
<glyph glyph-name="three" d="M696 748q82 -9 144.5 -50t97.5 -107t35 -151q0 -140 -80 -244.5t-205.5 -160t-263.5 -55.5q-152 0 -272 69t-132 207q19 147 119 147q27 0 53 -12t44.5 -35t19.5 -49q0 -33 -20 -131q7 -110 159 -121q110 0 195.5 66t131.5 168t46 203q0 96 -55.5 146t-153.5 50 q-12 0 -43 -5t-47 -7q-4 4 -12 4q-62 0 -70 55q20 38 28.5 48t37.5 10q34 0 80 -4.5t71 -4.5q92 10 158 66t100 133.5t37 153.5q0 110 -39.5 173t-120.5 66q-179 0 -227 -209q-13 -54 -38 -82.5t-71 -31.5q-16 7 -44 17t-42 25t-18 50q0 10 -2 14q13 95 77.5 160.5t158.5 99 t188 33.5q72 0 139.5 -22t122 -64t88 -105.5t33.5 -144.5q-6 -99 -52.5 -171.5t-111 -114.5t-131 -62t-113.5 -20z" unicode="3"/>
<glyph glyph-name="four" d="M641 449l195 718l-5 4l-647 -722h457zM831 449h205l-28 -109h-207l-20 -76t-12 -49t-9 -55q3 -45 34.5 -68.5t104.5 -23.5l-18 -68h-512l16 68q64 0 104 21t61 57t37 97t25 97h-579l26 109l885 983h148z" unicode="4"/>
<glyph glyph-name="five" d="M377 856q122 68 248 68q104 0 191 -52.5t137.5 -143.5t50.5 -196q0 -145 -77 -273.5t-205.5 -203.5t-272.5 -75q-98 0 -194 35t-157 104t-61 162q3 53 39.5 92.5t83.5 42.5q48 0 82 -33.5t34 -97.5q0 -20 -6 -60t-6 -61q6 -46 55 -76t113 -33q116 14 201 93t128.5 192 t43.5 231q0 84 -28.5 142.5t-77.5 86t-111 27.5q-89 -3 -165 -45.5t-155 -130.5l-67 25l274 756h649l-41 -156h-555z" unicode="5"/>
<glyph glyph-name="six" d="M303 324q0 -132 53.5 -201t135.5 -72q105 8 182.5 85.5t119 188.5t46.5 216q0 97 -47 166t-138 69q-101 0 -181.5 -71t-125.5 -177.5t-45 -203.5zM315 608q76 145 179.5 217t214.5 72q94 0 170.5 -53.5t118.5 -142t42 -185.5q-1 -104 -46 -202.5t-121 -173.5 t-175.5 -117.5t-201.5 -42.5q-81 0 -153.5 31.5t-126 94t-83 155t-29.5 208.5q10 214 103 418t213 338q105 110 227.5 168.5t237.5 58.5q86 0 165 -36t87 -111q0 -52 -22 -70.5t-83 -46.5q-77 6 -129 92q-58 88 -115 88q-15 0 -49 -8q-65 -27 -139.5 -106.5t-120.5 -161.5 q-66 -120 -102 -228.5t-66 -251.5z" unicode="6"/>
<glyph glyph-name="seven" d="M1083 1276h-290q-93 0 -175 -12.5t-147 -59.5q-78 -64 -172 -213l-76 29l217 412h877l-453 -601q-232 -300 -336 -679q-29 -87 -55 -129.5t-88 -42.5q-49 0 -81 36t-32 97q10 74 52 163t110 188.5t132 180t139 170.5z" unicode="7"/>
<glyph glyph-name="eight" d="M700 793q256 150 256 366q-6 105 -75 159t-168 54q-111 0 -196.5 -67.5t-88.5 -180.5q0 -54 21 -101t83 -105t168 -125zM520 680q-129 -49 -215 -148t-86 -233q1 -72 41.5 -128t105.5 -86t138 -30q92 2 165.5 35.5t115.5 95.5t42 146q0 62 -30 112.5t-72 85t-107 78.5 t-98 72zM461 727q-186 115 -193 305q10 118 73 215t164.5 152.5t221.5 56.5q116 0 204 -42.5t134.5 -115.5t46.5 -161q0 -91 -49.5 -166t-126 -130.5t-164.5 -92.5q236 -149 236 -353q0 -129 -76 -224t-195 -144t-250 -52q-131 0 -234.5 49t-159.5 129t-56 171q0 24 6 53 q14 59 39 104.5t75.5 90t125 83.5t178.5 72z" unicode="8"/>
<glyph glyph-name="nine" d="M920 1112q0 85 -26 146t-70.5 91.5t-98.5 30.5q-64 0 -133 -49q-86 -63 -146.5 -179t-64.5 -255q0 -228 182 -246q101 10 183.5 80.5t128 174t45.5 206.5zM903 823q-48 -95 -114 -160t-138.5 -96.5t-146.5 -34.5q-31 9 -51 9q-77 13 -139.5 64t-98 132.5t-35.5 177.5 q4 137 81.5 262t202 202t261.5 77q112 0 202 -57t141.5 -168t51.5 -266q-6 -111 -35.5 -222t-75.5 -211.5t-98.5 -180.5t-109.5 -138q-104 -113 -227 -173t-238 -60q-90 0 -165 34.5t-83 114.5q0 55 27.5 83t72.5 28q43 0 70.5 -22t61 -68t55 -66t57.5 -25q94 21 176 101 t135 180q63 116 101.5 232.5t62.5 246.5z" unicode="9"/>
<glyph glyph-name="colon" horiz-adv-x="553" unicode=":" d="M252 899q0 51 37 88t88 37q49 0 86 -37t37 -88t-37 -87t-86 -36q-51 0 -88 36t-37 87zM43 100q0 52 37.5 87.5t87.5 35.5t87.5 -35.5t37.5 -87.5q0 -33 -17 -61.5t-45.5 -46t-62.5 -17.5q-49 0 -87 37t-38 88z"/>
<glyph glyph-name="semicolon" horiz-adv-x="553" unicode=";" d="M260 899q0 51 37 88t88 37t87 -37t36 -88t-36 -87t-87 -36t-88 36t-37 87zM129 -55q0 24 -33 55q-26 28 -38 48.5t-15 55.5q22 59 50 85t83 26q28 0 55.5 -15.5t44.5 -47t17 -76.5q0 -128 -103.5 -233.5t-236.5 -178.5l-29 51q81 47 135 109q70 73 70 121z"/>
<glyph glyph-name="less" d="M1075 197v-113l-966 440v101l966 446v-115l-844 -385z" unicode="&lt;"/>
<glyph glyph-name="equal" d="M129 492h907v-107h-907v107zM129 760h907v-113h-907v113z" unicode="="/>
<glyph glyph-name="greater" d="M109 197l839 374l-839 385v115l966 -446v-101l-966 -440v113z" unicode="&gt;"/>
<glyph glyph-name="question" horiz-adv-x="981" unicode="?" d="M365 453l127 471q46 -19 92 -25q78 1 129 55t73.5 131t22.5 154q0 81 -42.5 145t-119.5 64q-36 0 -56 -17.5t-45 -59t-40.5 -61t-44.5 -30.5l-41 -8q-92 9 -92 117q9 58 87 94.5t181 36.5q107 0 193.5 -42.5t137 -123.5t50.5 -191q0 -82 -24.5 -159t-74 -143.5 t-118 -105.5t-152.5 -42q-49 7 -76 14l-75 -295zM324 -25q-50 0 -86.5 37.5t-36.5 87.5q0 51 36 87t87 36q50 0 87.5 -35.5t37.5 -87.5q0 -33 -17.5 -61.5t-46 -46t-61.5 -17.5z"/>
<glyph glyph-name="at" horiz-adv-x="1608" unicode="@" d="M1065 961q6 36 6 55q0 56 -28 94.5t-87 38.5q-73 -6 -146 -84t-129 -187t-93 -223q-37 -119 -43 -186q6 -56 29 -81t77 -36q101 9 166.5 90t114.5 199zM877 412q-50 -52 -122.5 -84t-142.5 -35q-77 7 -108 31q-99 70 -105 235q4 25 4 66q17 130 88.5 265t184 224.5 t244.5 89.5q74 0 133 -30t67 -91l39 93h172l-260 -613q-35 -95 -47 -143q0 -29 11.5 -42t35.5 -18q93 10 173.5 68t137 144t87 183.5t30.5 188.5q-1 106 -49.5 197.5t-130 157.5t-179.5 101.5t-204 35.5q-146 0 -275.5 -61.5t-228 -171t-152 -246.5t-53.5 -281 q1 -119 41 -226t111 -189.5t170 -133.5t215 -64q20 -2 59 -2q106 0 220 38t217 117.5t176 195.5h88q-62 -137 -180.5 -236t-259 -149t-271.5 -50q-37 0 -53 3q-167 14 -311 101.5t-231 239.5t-87 351q0 160 59.5 311t163 267.5t246.5 188.5t303 81q12 1 21.5 1.5t23.5 0.5 q161 0 305.5 -67t235 -197t94.5 -302q0 -121 -40 -237.5t-113.5 -209.5t-174 -150t-215.5 -66q-145 7 -163 119z"/>
<glyph glyph-name="A" horiz-adv-x="1368" unicode="A" d="M897 629l-37 694l-399 -694h436zM-139 68q89 0 142 39t110 133l718 1216l209 68l84 -1293q8 -96 34.5 -129.5t113.5 -33.5h41l-21 -68h-565l21 68q73 0 110 8.5t51.5 33t14.5 74.5v21l-17 327h-504l-151 -268q-47 -83 -51 -129q3 -34 36 -50.5t115 -16.5l-20 -68h-492z "/>
<glyph glyph-name="B" horiz-adv-x="1384" unicode="B" d="M932 801q105 -13 179 -55t117.5 -123.5t43.5 -202.5q-8 -144 -100.5 -239.5t-235 -138t-307.5 -42.5h-662l21 68q83 0 131 39.5t69 123.5l265 994q16 57 16 110q0 55 -36 76t-130 21l21 67h544q283 0 408 -96t125 -275q-7 -78 -55.5 -139.5t-120.5 -102t-150 -61 t-143 -20.5v-4zM559 848h176q132 0 205 21t147 83q48 40 74.5 105t26.5 135q0 85 -35 143q-69 97 -260 97q-97 0 -145 -31t-76 -125zM537 764l-146 -537q-2 -15 -4 -29t-6 -34q1 -41 22.5 -62.5t55.5 -27.5t86 -6q195 0 323.5 69.5t180.5 265.5q12 61 12 113 q0 100 -51.5 155t-126 74t-156.5 19h-190z"/>
<glyph glyph-name="C" horiz-adv-x="1339" unicode="C" d="M1331 1092q-28 152 -112.5 242t-198.5 102q-14 2 -45 2q-68 0 -135.5 -27t-131.5 -80.5t-120 -134.5q-38 -53 -83 -137t-84 -203t-48 -248q-4 -56 -4 -80q0 -128 39.5 -218.5t110 -141t161.5 -59.5q14 -3 43 -3q80 0 168 35t168.5 100.5t144.5 157.5l60 -39 q-61 -94 -136 -166.5t-162.5 -120.5t-176 -70.5t-177.5 -22.5q-127 6 -232 79t-165.5 205t-60.5 311q0 41 2 62q10 165 82 326t190 288.5t264.5 200t302.5 72.5q57 -1 99.5 -10t81 -21t80 -24t61.5 -13q58 7 92 60h2l8 -424h-88z"/>
<glyph glyph-name="D" horiz-adv-x="1528" unicode="D" d="M395 244q-8 -53 -10 -72q0 -39 16.5 -60.5t47.5 -31.5t79 -12q27 4 76 4q169 13 294.5 88.5t209.5 214.5t135 352q33 138 33 254q0 202 -84 319q-35 48 -83 77t-105 42t-119 13q-98 0 -146.5 -34.5t-74.5 -137.5zM-25 68q59 0 101.5 17t71 60t49.5 123l264 1000 q8 48 8 63q0 58 -39 79.5t-131 21.5l20 67h545q169 0 291 -50t195 -136t106 -192.5t33 -231.5q0 -115 -25.5 -217t-73.5 -195.5t-110 -169.5q-129 -154 -320.5 -230.5t-447.5 -76.5h-553z"/>
<glyph glyph-name="E" horiz-adv-x="1343" unicode="E" d="M1356 1499l49 -362l-82 -13q-56 166 -157 237t-273 71q-84 0 -129.5 -24t-66 -66t-46.5 -142l-96 -364q125 0 198 10t131.5 55t88.5 143h94l-160 -587h-92q12 45 12 96q0 182 -247 182h-52l-112 -436q-6 -31 -12 -59t-9 -52q3 -67 46.5 -93.5t142.5 -26.5 q149 0 252.5 33.5t189 106.5t182.5 195l60 -38l-168 -365h-1141l16 68q73 0 117 26.5t66.5 71.5t42.5 123l239 895q29 101 29 147q0 56 -37 78.5t-133 22.5l20 67h1037z"/>
<glyph glyph-name="F" horiz-adv-x="1251" unicode="F" d="M1356 1499l49 -362l-82 -13q-56 166 -157 237t-273 71q-84 0 -129.5 -24t-66 -66t-46.5 -142l-96 -364q125 0 198 10t131.5 55t88.5 143h94l-160 -587h-92q12 45 12 96q0 182 -247 182h-52l-112 -436q-27 -112 -29 -135q3 -54 41 -75t127 -21l-18 -68h-578l16 68 q73 0 117 26.5t66.5 71.5t42.5 123l239 895q29 101 29 147q0 56 -37 78.5t-133 22.5l20 67h1037z"/>
<glyph glyph-name="G" horiz-adv-x="1477" unicode="G" d="M1327 1083q-24 108 -73 187t-119 124t-148 46q-80 0 -157 -37.5t-146.5 -109.5t-128.5 -173q-56 -95 -100 -210.5t-69 -231.5t-34 -238q6 -121 43 -204q42 -86 115.5 -130t157.5 -47q104 4 193 55t140.5 137.5t51.5 192.5q0 101 -164 101l18 67h570l-17 -67 q-102 0 -158.5 -58.5t-80.5 -167.5l-80 -286q-25 4 -76 4q-73 0 -198.5 -29t-182.5 -33q-181 0 -303 76.5t-181 207.5t-61 294q8 78 8 106q19 166 96.5 322t198 279.5t260 193.5t275.5 70q62 0 104.5 -7.5t91 -22t60.5 -17.5q12 -5 27 -11.5t27.5 -10t29.5 -3.5q54 0 92 47 l10 -416h-92z"/>
<glyph glyph-name="H" horiz-adv-x="1569" unicode="H" d="M553 823h627l96 361q29 107 29 147q0 56 -36 78.5t-128 22.5l14 67h574l-17 -67q-79 0 -123 -28.5t-64.5 -75t-39.5 -128.5l-238 -885q-8 -46 -15.5 -83.5t-10.5 -63.5q3 -53 40 -76.5t128 -23.5l-21 -68h-575l22 68q77 0 121 29.5t64 74t44 127.5l109 428h-629 l-108 -412q-29 -106 -31 -155q2 -34 17 -53t51 -29t100 -10l-16 -68h-578l21 68q110 0 152 57t73 174l235 885q25 113 25 147q0 38 -15 59.5t-50 31.5t-101 10l20 67h578l-20 -67q-79 0 -121 -27.5t-62.5 -73.5t-42.5 -131z"/>
<glyph glyph-name="I" horiz-adv-x="739" unicode="I" d="M209 299l235 885q27 87 27 139q0 58 -37.5 83.5t-130.5 25.5l16 67h580l-18 -67q-110 0 -151.5 -53.5t-78.5 -178.5l-231 -885q-28 -91 -33 -147q3 -53 41 -76.5t127 -23.5l-14 -68h-582l21 68q112 0 155 57t74 174z"/>
<glyph glyph-name="J" horiz-adv-x="700" unicode="J" d="M-268 -252q0 47 31.5 82.5t72.5 38.5q60 -7 92 -78q36 -67 76 -67q49 0 68 79l372 1430q17 74 17 98q0 57 -37.5 79t-126.5 22l14 67h574l-21 -67q-97 0 -143.5 -45t-73.5 -148l-307 -1155q-29 -116 -87.5 -222t-149.5 -177.5t-207 -71.5q-73 0 -118.5 35t-45.5 100z"/>
<glyph glyph-name="K" horiz-adv-x="1401" unicode="K" d="M524 743l543 474q20 15 43 33t41.5 36t31.5 38.5t13 43.5q0 64 -121 64l21 67h503l-16 -67q-60 -3 -111 -26.5t-99 -60.5t-101 -85l-391 -336l235 -635q26 -80 48 -124t64 -70.5t115 -26.5l-20 -68h-563l20 68q25 0 35 -5q72 4 100.5 27.5t28.5 73.5q0 32 -37 125 l-186 499l-242 -208l-71 -265q-23 -113 -27 -151q3 -53 38.5 -74.5t129.5 -21.5l-21 -68h-569l21 68q109 0 151.5 56t77.5 175l231 885q29 107 29 151q0 53 -37 75t-129 22l16 67h570l-17 -67q-78 0 -122.5 -29.5t-64.5 -74t-42 -128.5z"/>
<glyph glyph-name="L" horiz-adv-x="1184" unicode="L" d="M-41 0l21 68q109 0 151.5 56t77.5 175l231 885q29 107 29 151q0 55 -36 76t-130 21l16 67h574l-16 -67q-112 0 -154.5 -55t-75.5 -177l-256 -960q-4 -21 -14 -93q3 -42 36 -60.5t115 -18.5q105 0 191.5 18.5t158 58t135 101t128.5 153.5l76 -30l-164 -369h-1094z"/>
<glyph glyph-name="M" horiz-adv-x="1839" unicode="M" d="M1595 1352l-852 -1352l-143 1368h-4l-277 -1049q-21 -98 -26 -143q3 -51 39.5 -78t120.5 -30l-21 -68h-483l14 68q72 0 120.5 34t78.5 89.5t51 127.5l227 865q31 98 31 147q0 44 -25.5 66.5t-62 28.5t-80.5 6l21 67h473l96 -1100l690 1100h418l-21 -67 q-76 0 -119.5 -30.5t-65.5 -78t-44 -123.5l-231 -885q-25 -85 -31 -151q3 -52 39.5 -74t128.5 -22l-17 -68h-565l21 68q76 0 119.5 30t62.5 72.5t45 132.5l276 1045z"/>
<glyph glyph-name="N" horiz-adv-x="1516" unicode="N" d="M651 1499l490 -1071l202 756q29 107 29 151q0 53 -36.5 75t-127.5 22l17 67h479l-16 -67q-82 0 -128.5 -29.5t-67 -74t-44.5 -128.5l-315 -1204h-17l-567 1221l-230 -873q-24 -93 -30 -168q3 -53 37.5 -80.5t117.5 -27.5l-20 -68h-465l21 68q104 3 152.5 76t82.5 200 l225 840q29 107 29 151q0 53 -35 73.5t-131 23.5l16 67h332z"/>
<glyph glyph-name="O" horiz-adv-x="1511" unicode="O" d="M193 885q51 142 130.5 256.5t185.5 201.5t223 132.5t241 48.5q160 0 277 -88t176 -228.5t59 -292.5q0 -91 -19.5 -180t-56.5 -175t-89 -164.5t-116 -147.5q-87 -92 -181.5 -151.5t-191 -88t-190.5 -28.5q-156 3 -277.5 86t-183.5 233q-44 135 -49 260q7 168 62 326z M412 801q-62 -215 -68 -385q3 -163 68.5 -252.5t179.5 -100.5q162 0 283 90t198 224t127 287q35 115 53.5 222.5t18.5 200.5q0 66 -16.5 128.5t-52 114t-89 81t-127.5 29.5q-178 -3 -329 -173.5t-246 -465.5z"/>
<glyph glyph-name="P" horiz-adv-x="1208" unicode="P" d="M549 819h190q94 0 173 27t124 74q52 52 80.5 128.5t28.5 155.5q0 40 -8 88q-42 140 -248 140q-85 -3 -128 -23t-64 -58.5t-46 -129.5zM-20 68q98 0 143.5 45.5t81.5 179.5l252 944q12 52 12 90q0 60 -38 82.5t-128 22.5l16 67h646q84 0 153.5 -20t123 -62.5t84 -111 t30.5 -160.5q-6 -90 -52 -168t-126 -135.5t-187 -89t-227 -31.5h-240l-133 -481q-2 -18 -4 -31t-6 -41q2 -38 19 -59.5t55 -31t98 -9.5l-21 -68h-573z"/>
<glyph glyph-name="Q" horiz-adv-x="1532" unicode="Q" d="M756 88q0 25 -4 37v94q0 84 -35.5 146.5t-116.5 62.5q-71 0 -121.5 -57t-50.5 -131q1 -55 30.5 -96t78.5 -62.5t100 -22.5q77 7 119 29zM213 881q51 140 132 258.5t182.5 202.5t219.5 131.5t236 50.5q123 0 220.5 -51.5t162.5 -137t99 -195.5t34 -225q0 -180 -73 -353.5 t-204.5 -312t-293.5 -212.5q4 -56 33.5 -108.5t82.5 -57.5q56 0 99 46t74 83q22 -20 30 -28l13 -13q-39 -71 -122 -143t-182 -72q-94 0 -147.5 65.5t-65.5 165.5q4 4 4.5 6t0.5 3q-27 -4 -97 -4q-88 0 -170.5 29t-156 103t-123.5 203q-44 126 -49 256q3 82 16.5 154.5 t44.5 155.5zM432 801q-43 -143 -53 -241t-10 -261h4q9 58 41.5 105.5t82.5 73.5t111 26q132 0 207.5 -105.5t87.5 -246.5q101 69 191 221.5t144 339t54 352.5q0 30 -4 84q-33 291 -284 291q-121 -2 -229.5 -75t-196 -215t-146.5 -349z"/>
<glyph glyph-name="R" horiz-adv-x="1321" unicode="R" d="M545 819h180q110 0 184 23t127 78q50 56 79.5 133.5t29.5 154.5q0 71 -33.5 121.5t-92 76.5t-130.5 26q-82 0 -126.5 -20.5t-65.5 -60t-46 -130.5zM-20 68q98 0 143.5 45.5t81.5 179.5l252 944q12 52 12 90q0 60 -38 82.5t-128 22.5l16 67h596q201 0 321 -84t120 -262 q-6 -105 -71 -199.5t-171.5 -156t-232.5 -76.5q9 -29 21 -75.5t28.5 -107.5t37.5 -136t44 -150q31 -103 79 -143.5t142 -40.5v-68h-361l-192 721h-156l-133 -481q-2 -18 -4 -31t-6 -41q2 -38 19 -59.5t55 -31t98 -9.5l-21 -68h-573z"/>
<glyph glyph-name="S" horiz-adv-x="1163" unicode="S" d="M92 440h88q34 -151 143.5 -253.5t260.5 -114.5q81 2 150.5 39.5t110 104t40.5 149.5q0 78 -31.5 133t-76 87.5t-131.5 80.5t-114 65q-73 49 -122.5 93t-82 106.5t-32.5 146.5q0 29 2 43q8 107 66.5 199t156 148t207.5 57q53 0 81.5 -9t110.5 -37.5t130 -33.5q61 6 96 55 l31 -420h-80q-36 144 -127.5 250.5t-225.5 106.5q-104 0 -183 -64.5t-85 -167.5q0 -51 18.5 -93t58 -80t89 -70t131.5 -80q93 -51 156.5 -108t101 -136.5t37.5 -183.5q-1 -140 -66.5 -249t-176.5 -169t-236 -60q-78 3 -129 20.5t-123 51t-103 33.5q-8 0 -24 -4 q-41 -12 -62.5 -34t-33.5 -62h-33z"/>
<glyph glyph-name="T" horiz-adv-x="1300" unicode="T" d="M344 1499h1116l35 -395l-72 -17q-21 91 -69 171t-122 127t-171 47q-41 0 -60.5 -19.5t-27.5 -64.5l-273 -1033q-28 -102 -32 -151q3 -52 40.5 -74t127.5 -22l-21 -68h-592l17 68q90 0 137 23t72.5 70t50.5 138l272 1040q8 42 8 54q0 39 -37 39q-99 0 -200.5 -48 t-188.5 -122.5t-157 -157.5l-66 37z"/>
<glyph glyph-name="U" horiz-adv-x="1468" unicode="U" d="M1217 1499h466l-18 -67q-112 0 -156 -59.5t-73 -172.5l-140 -524q-41 -167 -77.5 -281t-94.5 -198q-150 -222 -448 -222q-127 0 -231.5 45.5t-165 138t-60.5 222.5q0 56 19 148.5t61 254t64 240t45 160.5q28 103 28 147q0 53 -36 77t-124 24l21 67h567l-20 -67 q-115 0 -159.5 -58t-68.5 -174q-9 -41 -39.5 -149.5t-71.5 -262.5t-65 -261t-24 -158q0 -89 38.5 -156t108 -102t158.5 -35q108 0 186.5 47t132.5 129q31 49 50 96t36.5 102.5t34 119t27.5 106.5l133 508q8 30 13.5 50.5t11.5 45.5t6 47q0 53 -32.5 79t-119.5 26z"/>
<glyph glyph-name="V" horiz-adv-x="1280" unicode="V" d="M387 -37l-18 1024q0 62 -13 322q-3 72 -40.5 97.5t-131.5 25.5l17 67h596l-21 -67q-91 0 -134.5 -10t-63 -46.5t-19.5 -120.5l16 -940l566 877q37 61 54 95.5t17 64.5q0 80 -129 80l17 67h473l-21 -67q-103 -3 -158 -58t-130 -174l-799 -1237h-78z"/>
<glyph glyph-name="W" horiz-adv-x="1804" unicode="W" d="M1040 1079l-587 -1116h-72l-12 742l-13 512q-2 90 -10 131.5t-41 62.5t-112 21l16 67h543l-21 -67q-72 0 -108.5 -12t-50 -47.5t-13.5 -112.5l-4 -900l4 -4l477 883v37q0 72 -16 104q-32 52 -156 52h-20l16 67h567l-16 -67q-74 0 -110.5 -12t-49 -48t-12.5 -112l4 -904h4 l445 844q57 94 59 152q0 28 -13 45t-34 23.5t-48.5 8.5t-43.5 3l20 67h436l-20 -67q-60 -4 -108 -46.5t-77.5 -90.5t-74.5 -132l-647 -1200h-80l-17 1116h-4z"/>
<glyph glyph-name="X" horiz-adv-x="1317" unicode="X" d="M764 903l297 348q22 27 33.5 41.5t22.5 37t11 42.5q0 60 -79 60h-25l20 67h459l-18 -67q-71 -3 -122 -28t-92.5 -65t-94.5 -102l-375 -440l186 -508q8 -21 26.5 -65t46.5 -78t75 -56t112 -22l-18 -68h-586l16 68q82 0 117 15t35 64q0 48 -31 134l-137 356l-303 -361 q-15 -18 -39.5 -48.5t-40.5 -57t-16 -45.5q0 -32 28 -43.5t80 -18.5q17 5 33 5l-20 -68h-517l21 68q72 0 132.5 31.5t102 72.5t115.5 127l389 453l-143 385q-44 118 -66 167.5t-67.5 88.5t-122.5 39l14 67h561l-16 -67h-43q-100 0 -100 -89q0 -22 9.5 -57t12.5 -49z"/>
<glyph glyph-name="Y" horiz-adv-x="1247" unicode="Y" d="M705 721l407 491q76 103 76 148q0 40 -34 56t-105 16l16 67h508l-21 -67q-95 0 -164.5 -54t-162.5 -170l-482 -587l-92 -345q-11 -56 -18 -112q3 -54 43.5 -75t146.5 -21l-18 -68h-625l21 68q91 0 138.5 22t71.5 70t50 147l76 297l-168 633q-23 81 -45.5 120.5t-65 57 t-119.5 17.5l17 67h604l-21 -67q-36 4 -51 4q-72 0 -102.5 -29t-32.5 -80q2 -38 27 -119z"/>
<glyph glyph-name="Z" horiz-adv-x="1163" unicode="Z" d="M373 1499h979l-1129 -1399q80 0 121 -4q134 2 222 11t165 37.5t153 90.5t156 164l68 -43l-176 -356h-1041l1137 1405q-206 0 -322 -20t-212 -79.5t-222 -185.5l-71 43z"/>
<glyph glyph-name="bracketleft" horiz-adv-x="936" unicode="[" d="M152 -180l499 1696h402l-21 -68h-235l-461 -1561h235l-16 -67h-403z"/>
<glyph glyph-name="backslash" horiz-adv-x="553" unicode="\" d="M483 0l-534 1516h123l532 -1516h-121z"/>
<glyph glyph-name="bracketright" horiz-adv-x="936" unicode="]" d="M840 1516l-500 -1696h-399l18 67h238l454 1561h-231l16 68h404z"/>
<glyph glyph-name="asciicircum" d="M965 537l-377 839l-387 -839h-113l444 962h101l442 -962h-110z" unicode="^"/>
<glyph glyph-name="underscore" horiz-adv-x="1024" unicode="_" d="M1024 -285h-1024v156h1024v-156z"/>
<glyph glyph-name="grave" horiz-adv-x="797" unicode="`" d="M784 1124l-288 224q-41 33 -63.5 56t-29.5 52q0 32 20 56t52 24q42 0 71.5 -29t78.5 -92l194 -252z"/>
<glyph glyph-name="a" d="M244 328q-17 -82 -21 -127q4 -8 4 -25q8 -39 32.5 -66t64.5 -30q113 20 184 119t147 262q56 118 84.5 212t28.5 150q-3 55 -31.5 82t-68.5 27q-87 0 -164 -68q-66 -62 -121 -160t-90.5 -199.5t-48.5 -176.5zM608 244q-62 -141 -153.5 -205t-190.5 -64 q-110 10 -166.5 89.5t-56.5 203.5q3 112 37 215.5t91.5 197t118 158.5t120.5 105q52 40 113 60t126 20q136 0 176 -117l29 97h180l-227 -648q-9 -27 -25 -93.5t-32 -98.5q6 -15 8.5 -18.5t7 -7t12.5 -9.5q43 11 80.5 49t66.5 85t58 102l55 -37q-80 -133 -140 -214t-112 -110 q-42 -24 -92 -24q-36 0 -58.5 16t-33 38.5t-25.5 65.5q7 67 37 140z" unicode="a"/>
<glyph glyph-name="b" horiz-adv-x="932" unicode="b" d="M240 260q-2 -11 -4 -34t-5 -33q8 -102 66 -121q5 -2 19 -4.5t20 -4.5q51 5 97.5 37t82.5 88q47 71 82 161.5t52.5 189t17.5 186.5q0 195 -97 195q-96 0 -176 -152q-46 -92 -85.5 -220.5t-69.5 -287.5zM391 881l4 -4q104 143 238 143q77 0 128 -50.5t75 -130.5t24 -171 q-6 -87 -29.5 -161.5t-55 -136.5t-66.5 -118q-55 -88 -123.5 -150.5t-143 -94.5t-143.5 -32q-63 3 -113 30.5t-81.5 86.5t-32.5 144q6 87 28 180l228 856q2 15 7 36t5 27q0 54 -88 54h-51l18 67l344 60z"/>
<glyph glyph-name="c" horiz-adv-x="844" unicode="c" d="M684 285l55 -45q-70 -86 -138.5 -143t-138.5 -87t-138 -30q-82 6 -142 54t-91.5 125t-31.5 173q6 78 37 168.5t81.5 176.5t119.5 163q50 54 106 96t113.5 65t116.5 23q52 0 97 -27.5t71 -73t26 -96.5q0 -53 -25.5 -90t-76.5 -37q-46 0 -67 39t-21 70q3 20 6 63 q0 22 -14 41t-41 19q-58 0 -148 -135q-89 -116 -140.5 -273.5t-51.5 -304.5q0 -71 30 -109.5t87 -41.5q12 4 30 4q125 27 289 213z"/>
<glyph glyph-name="d" horiz-adv-x="1036" unicode="d" d="M240 315q-10 -67 -13 -92q6 -20 12.5 -55t20.5 -56t47 -32q79 14 140 73t98 127t88 185q84 196 84 346q-3 56 -30.5 88.5t-65.5 32.5q-41 0 -72.5 -18.5t-69.5 -57.5q-83 -94 -148 -253t-91 -288zM571 219q-65 -107 -146 -173t-185 -66q-98 0 -147.5 86.5t-49.5 193.5 q1 82 27 173.5t68.5 176t102.5 164t124 133.5q133 117 251 117q80 0 160 -55l88 331q4 17 4 39q0 29 -20 39.5t-68 10.5h-53l21 67l348 60l-348 -1276q-17 -51 -17 -84q0 -51 29 -56q28 7 51 35q46 51 121 213l59 -29q-142 -339 -319 -339q-57 0 -81.5 31.5t-37.5 88.5 q1 24 22 115z"/>
<glyph glyph-name="e" horiz-adv-x="868" unicode="e" d="M299 344q-6 -33 -6 -96q0 -83 26.5 -127.5t96.5 -44.5q63 0 155 59.5t177 183.5l53 -30q-61 -101 -135 -170.5t-147 -102t-134 -32.5q-129 0 -201 87.5t-80 235.5q0 55 15.5 124.5t45 143.5t69.5 140.5t90 120.5q93 105 173.5 148.5t170.5 43.5q83 0 138 -43t58 -137 q0 -74 -39 -141t-108 -132q-73 -67 -190 -130t-228 -101zM307 420q66 19 167 85.5t176.5 158t76.5 184.5q0 32 -14 60t-54 28q-49 -3 -102 -45.5t-104 -110.5q-44 -56 -87 -161t-59 -199z"/>
<glyph glyph-name="f" horiz-adv-x="508" unicode="f" d="M256 868h-176l33 113h172q33 99 61.5 157.5t89.5 149.5q84 129 174 182.5t166 53.5q60 -6 96.5 -37.5t42.5 -71.5q0 -48 -31 -77t-79 -29q-17 1 -29 7t-38 22t-38.5 23t-27.5 7q-80 0 -127 -113q-10 -21 -24.5 -59t-28.5 -83.5t-23.5 -79t-15.5 -52.5h227l-33 -113h-223 l-92 -364q-46 -182 -103 -328.5t-118 -250t-115 -156.5q-84 -97 -180 -97q-45 0 -77 23.5t-32 64.5q0 52 28 69.5t93 35.5q10 0 33 -2t35 -2q97 0 124 114q33 126 52.5 201.5t48 186.5t46 178t89.5 327z"/>
<glyph glyph-name="g" horiz-adv-x="928" unicode="g" d="M289 537q0 -83 30 -127.5t80 -49.5q126 15 185 139t59 265q-1 87 -32.5 127.5t-82.5 40.5q-41 0 -100 -39q-59 -49 -99 -155t-40 -201zM252 12q-125 -47 -178.5 -99.5t-53.5 -96.5q4 -63 88 -95t216 -32q104 3 177.5 41.5t73.5 97.5q0 45 -28.5 75.5t-97.5 53.5 q-40 16 -112 33t-85 22zM109 51q-60 16 -94.5 34t-34.5 58q0 37 28 66q18 21 100 79.5t97 71.5q-81 63 -88 199q5 113 59 221t148 176t208 68q106 0 193 -72q18 15 47 38.5t66.5 43t72.5 19.5q50 0 77.5 -29.5t27.5 -67.5q0 -35 -27 -59.5t-74 -24.5q-20 0 -43 10.5 t-41 10.5q-13 0 -47 -21q27 -53 27 -141q0 -83 -29 -162.5t-82 -144t-127 -104.5t-161 -44q-68 9 -119 27q-60 -37 -74 -76q8 -17 33 -26q39 -17 147 -45t177.5 -55.5t118 -80.5t48.5 -141q0 -73 -46 -136t-141 -102.5t-241 -43.5q-137 0 -240 28t-160.5 73.5t-66.5 96.5 q0 51 27.5 97t87.5 87t146 72z"/>
<glyph glyph-name="h" horiz-adv-x="1065" unicode="h" d="M4 0l336 1276q12 36 12 63q0 50 -88 50h-49l16 67l340 60l-303 -1131l8 -4q212 392 349 543q96 96 172 96q37 0 66.5 -22.5t45 -58t15.5 -75.5q0 -42 -13 -84q-8 -38 -47 -159t-89 -268.5t-54 -159.5q-16 -39 -16 -58q0 -31 30 -31q31 9 76 64q62 82 113 172l59 -37 q-25 -42 -61.5 -102t-75.5 -107.5t-90 -80.5t-109 -33q-51 0 -80.5 41.5t-29.5 99.5q0 37 26 139l164 465q21 68 21 94q0 49 -35 49h-13q-35 -15 -112 -108q-50 -62 -79 -106t-54 -91.5t-65 -125t-75 -138.5q-72 -126 -147 -299h-164z"/>
<glyph glyph-name="i" horiz-adv-x="641" unicode="i" d="M528 1276q-53 0 -91 37t-38 88q0 49 38 86t91 37q51 0 87 -37t36 -86q0 -51 -36 -88t-87 -37zM76 696q26 42 48.5 79t47.5 71t55 69q100 109 176 109q49 0 77 -35t28 -90q0 -41 -16 -119q-12 -44 -46 -148.5t-75.5 -228.5t-73.5 -210q-12 -43 -12 -62q0 -27 30 -27 q31 9 76 64q66 87 113 172l59 -37q-34 -56 -68 -110.5t-72 -101t-86.5 -79t-105.5 -32.5q-54 0 -86 40.5t-32 100.5q5 49 39 155l151 449q25 81 25 94q0 29 -9 37q0 12 -20 12h-6q-49 -22 -158 -213z"/>
<glyph glyph-name="j" horiz-adv-x="545" unicode="j" d="M416 1401q0 50 36.5 86.5t88.5 36.5q50 0 84 -36.5t34 -86.5q0 -52 -34 -88.5t-84 -36.5q-52 0 -88.5 36.5t-36.5 88.5zM117 672l-54 49q47 65 103.5 131t123 119t118.5 53t82 -35.5t30 -89.5q0 -26 -11 -71.5t-25 -91.5t-27 -89l-181 -538q-56 -167 -120.5 -263.5 t-132 -135t-136.5 -38.5q-43 0 -76.5 27t-33.5 70q0 33 27 56t61 23q33 0 66.5 -24.5t43.5 -24.5q26 0 37 45l287 852q37 96 37 135q0 41 -29 41q-35 0 -89 -63t-101 -137z"/>
<glyph glyph-name="k" horiz-adv-x="981" unicode="k" d="M12 0l332 1243q16 74 16 92q0 29 -19.5 41.5t-72.5 12.5h-53l16 67l357 60l-203 -760l2 -4q68 117 149 194.5t185 77.5q57 0 99 -27.5t64.5 -76.5t22.5 -109q-9 -76 -58.5 -142t-119.5 -114.5t-133 -71.5q26 -147 37 -211q8 -58 19.5 -99.5t39.5 -41.5q54 0 148 193 l63 -25q-26 -55 -55 -108t-63 -101t-77.5 -81.5t-91.5 -33.5q-26 0 -44 9.5t-41 55.5t-46.5 139t-48.5 253l-147 -41l-105 -391h-172zM307 469q75 11 174 54.5t166 97.5q100 76 105 172q0 43 -25.5 73.5t-67.5 30.5q-94 0 -190 -121q-86 -102 -162 -307z"/>
<glyph glyph-name="l" horiz-adv-x="559" unicode="l" d="M584 1516l-344 -1289q-4 -23 -9.5 -47t-7.5 -37q0 -13 6.5 -26t18.5 -13q18 0 34.5 14.5t31.5 36.5t26 38q22 31 38 60.5t32 60.5t22 42l55 -28q-76 -158 -143.5 -255.5t-163.5 -97.5q-50 0 -86 42t-39 114q10 82 13 92q26 97 49 187t63.5 245t75 284.5t80.5 303.5 q16 82 16 92q0 32 -18 43t-66 11h-53l16 67z"/>
<glyph glyph-name="m" horiz-adv-x="1679" unicode="m" d="M76 0l243 717q29 84 29 106q0 19 -7.5 34t-25.5 15q-25 0 -67 -55t-72 -104l-51 -76l-57 35q111 182 187 267t148 85q56 0 84.5 -45t28.5 -107q-3 -91 -51.5 -223t-136.5 -342l4 -4q27 45 73 128t78.5 140t83.5 146q41 68 94 139t113.5 119.5t122.5 48.5q44 0 74 -21 t45.5 -57t15.5 -78q-3 -56 -24.5 -131t-54.5 -157.5t-63.5 -152.5t-49.5 -120l4 -4q173 338 319 533q66 81 129.5 134.5t130.5 53.5q58 0 89.5 -44.5t31.5 -107.5q0 -69 -21.5 -143t-62.5 -184l-117 -326q-20 -65 -20 -84q0 -25 20 -31q60 29 108 88.5t93 143.5l60 -33 q-42 -64 -94 -142.5t-110.5 -132t-123.5 -53.5q-48 0 -86 34.5t-41 103.5q8 70 27 123q32 88 68.5 193.5t67.5 196t31 91.5q24 46 33 102q0 21 -13 37t-36 16q-1 0 -6 -2t-8 -2q-23 -9 -61 -44t-111.5 -137.5t-184.5 -295.5l-225 -391h-151l251 717q11 20 20 53.5t9 56.5 q0 45 -49 45q-58 0 -106 -84q-56 -82 -106.5 -163t-117 -194.5t-143.5 -246t-107 -184.5h-155z"/>
<glyph glyph-name="n" horiz-adv-x="1149" unicode="n" d="M348 328q39 67 85 141.5t94 150.5t94 148q48 83 78 129t78.5 86.5t107.5 40.5q38 0 66 -20.5t42.5 -54.5t14.5 -77q0 -61 -21.5 -141t-58.5 -186l-113 -330q0 -2 -4.5 -16t-7.5 -22.5t-5.5 -19t-4.5 -22.5q0 -29 22 -35q4 5 21.5 12t23.5 13q79 77 152 207l59 -33 q-36 -56 -88 -135.5t-111.5 -132.5t-132.5 -56q-47 0 -79 34t-35 100q7 65 26 135q21 56 64 183t63 187l33 99q25 67 25 102q0 53 -35 53q-17 0 -25 -4q-23 -16 -56.5 -66.5t-87 -140.5t-108.5 -178l-293 -479h-151l235 680q11 23 22 67t11 64q0 61 -29 61q-28 0 -59 -49 q-69 -87 -84 -118l-51 -76l-57 30q111 187 189 276t151 89q53 0 82.5 -49t29.5 -107q-3 -93 -50 -222.5t-126 -313.5z"/>
<glyph glyph-name="o" horiz-adv-x="969" unicode="o" d="M227 260q0 -15 -8 -59q6 -135 129 -158q81 8 134.5 71t105.5 162q60 121 98.5 257t38.5 260q0 40 -13.5 77.5t-40.5 61.5t-67 24q-63 0 -129 -63q-35 -38 -69 -91.5t-69.5 -137t-63 -181t-46.5 -223.5zM55 365q26 146 88 271t137 208t148 129q86 51 180 51 q80 0 146 -40.5t104.5 -116.5t38.5 -179q0 -130 -51.5 -264.5t-143.5 -243.5t-206 -164q-78 -36 -156 -36q-120 0 -205 91t-88 226q8 44 8 68z"/>
<glyph glyph-name="p" horiz-adv-x="1028" unicode="p" d="M289 80q143 0 250 84.5t166 217t67 269.5q0 124 -44 194t-136 70q-36 0 -80 -12zM-113 -293q68 6 90 11t40.5 32.5t37.5 97.5l260 979q-33 -26 -47.5 -35.5t-55 -38.5t-95.5 -69l-45 51q76 73 130 113.5t146 91.5l123 373h145l-79 -318q50 25 122 25q77 0 142 -37.5 t104 -119t39 -208.5q-8 -166 -94.5 -320.5t-238.5 -250.5t-343 -96q-30 -86 -55 -211q7 -44 36 -57t87 -13l-17 -67h-448z"/>
<glyph glyph-name="q" horiz-adv-x="1004" unicode="q" d="M612 932q-123 0 -239 -248q-39 -78 -70.5 -168.5t-49 -166.5t-17.5 -126q0 -56 18 -99.5t65 -43.5q61 0 130 72q102 102 198 348q28 73 43.5 123t25 95.5t9.5 74.5q0 59 -28.5 99t-84.5 40zM965 1024l-289 -1087q-34 -135 -35 -156q2 -43 27.5 -58.5t95.5 -15.5l-16 -67 h-449l20 67q73 0 106.5 20.5t49.5 79.5l117 420l-4 4q-23 -46 -55.5 -90.5t-76 -81.5t-91.5 -58t-101 -21q-77 0 -139 55t-74 184q0 100 25 199t70 193t98 165q51 68 113.5 123t135.5 90t148 35q99 0 160 -109z"/>
<glyph glyph-name="r" horiz-adv-x="811" unicode="r" d="M373 420l4 -4q88 170 134.5 257t104.5 175q55 80 103 128t108 48q44 0 70.5 -29.5t26.5 -74.5q0 -49 -28 -73.5t-76 -37t-85 -21.5q-47 -12 -89 -57t-105 -151q-37 -60 -79 -135t-81 -149.5t-87 -168t-67 -127.5h-147l248 725q2 7 11 41.5t9 48.5q0 20 -8 36.5t-25 16.5 h-12q-37 -18 -67.5 -56.5t-56 -84.5t-54.5 -98l-57 35q124 221 225 309q57 51 110 51q51 0 80 -39.5t29 -91.5q0 -59 -12.5 -114.5t-32 -111.5t-50.5 -133t-44 -114z"/>
<glyph glyph-name="s" horiz-adv-x="725" unicode="s" d="M-33 168q0 55 28 88t68 33q37 0 67.5 -27t41.5 -78q29 -109 131 -116q158 26 158 176q-5 42 -32.5 77.5t-68.5 71t-88 76.5q-74 68 -115 128.5t-44 133.5q11 81 55.5 148.5t118 106t170.5 38.5q71 -6 126.5 -32.5t88.5 -68.5t33 -92q0 -45 -27.5 -69t-65.5 -27 q-24 8 -32 8q-35 13 -72.5 77.5t-55.5 86t-67 21.5q-55 0 -76.5 -35.5t-36.5 -104.5q1 -31 17 -61.5t32.5 -49.5t53 -52.5t69.5 -61.5q81 -62 129 -131t48 -168q-6 -84 -56.5 -150t-127.5 -100t-161 -34q-70 0 -139.5 22t-116.5 65t-53 101z"/>
<glyph glyph-name="t" horiz-adv-x="608" unicode="t" d="M408 1352h155l-94 -348h195l-31 -115h-193l-176 -666q-2 -11 -10 -41t-10 -43q0 -13 7 -24t21 -11t39 21q36 27 72 77t78 117l59 -43q-44 -75 -90 -139t-106 -113t-123 -49q-118 0 -125 142q1 34 11 81t21.5 88t16.5 62l143 541h-176l33 115h172z"/>
<glyph glyph-name="u" horiz-adv-x="1153" unicode="u" d="M793 655q-42 -69 -67.5 -111t-60.5 -100t-51.5 -85t-72.5 -123q-77 -121 -140.5 -188.5t-152.5 -67.5q-57 0 -94 42.5t-37 106.5q0 42 16.5 102t40 124.5t41.5 113.5l109 307l10 38l10 38q0 20 -25 20q-22 0 -43 -28q-41 -30 -71 -71.5t-76 -117.5l-61 45q65 96 109 156 t105.5 114t120.5 54q53 -3 85 -47.5t32 -99.5q0 -47 -24 -121q-22 -73 -97 -271t-75 -200q-38 -108 -43 -142q7 -21 18 -30q2 0 25 -9q34 11 45 21q26 25 64.5 82t96.5 154t95 159l290 484h152q-23 -71 -61.5 -178.5t-89.5 -251.5t-81.5 -241t-54.5 -194q7 -26 25 -30 q6 0 10 -5q30 6 66 52q21 26 50.5 68.5t29.5 47.5l51 80l59 -37q-205 -340 -346 -340q-54 0 -81.5 41.5t-27.5 100.5q5 52 22 112.5t44.5 135.5t59 151t55.5 135z"/>
<glyph glyph-name="v" horiz-adv-x="969" unicode="v" d="M125 643l-53 41q71 123 164.5 231.5t179.5 108.5q50 0 75 -36.5t25 -90.5q0 -22 -9 -64.5t-24 -93t-22 -80.5l-109 -344q-37 -105 -37 -147q0 -32 20 -60t52 -28q74 0 171.5 94t166 231t68.5 259q0 37 -20 79t-40 83t-20 77q0 55 26 88t72 33q60 0 84.5 -68t24.5 -147 q-3 -113 -48 -255t-125.5 -276.5t-186.5 -218.5t-228 -84q-74 0 -131.5 49t-57.5 136q1 57 30 154t90 285t65 224v4q0 13 -8 21t-17 8q-18 0 -56.5 -41.5t-76 -98t-45.5 -73.5z"/>
<glyph glyph-name="w" horiz-adv-x="1415" unicode="w" d="M1012 1004l-51 -203q-46 -196 -69.5 -320t-23.5 -229q0 -148 68 -148q38 0 90.5 58.5t104 153t84 193.5t32.5 171q0 30 -10 56t-27.5 57.5t-28 55t-14.5 50.5q12 37 20 63.5t26 44t55 17.5q58 0 85 -52.5t27 -127.5v-43q-19 -148 -92.5 -344.5t-183.5 -339t-227 -142.5 q-93 0 -137 80t-44 181q0 53 23.5 161t60.5 219l-4 5q-75 -233 -196.5 -439.5t-280.5 -206.5q-68 0 -112 56.5t-44 124.5q0 29 6 64.5t16.5 72t22.5 76.5l115 356q29 56 29 90q0 37 -25 37h-10q-39 -16 -65 -48t-56 -81.5t-51 -75.5l-53 37q76 120 170.5 230t165.5 110 q54 0 81.5 -35t30.5 -96q0 -41 -40 -172t-90 -273l-50 -141q-26 -93 -29 -119q6 -57 54 -57q66 0 142 103.5t143.5 250.5t122 295t75.5 224h164z"/>
<glyph glyph-name="x" horiz-adv-x="840" unicode="x" d="M324 465l-39 227q-9 42 -15.5 83t-17.5 61q-7 20 -25 20q-16 0 -47 -55q-40 -92 -67 -180l-70 16q97 256 184 340q50 47 92 47q77 0 97 -127l41 -221q80 144 143 227q84 121 164 121q48 0 78 -27t30 -69q0 -60 -35.5 -85t-103 -39t-82.5 -20q-39 -13 -84 -84l-88 -159 l53 -297q3 -14 7.5 -50.5t13 -59t27.5 -30.5q26 13 47 38.5t37.5 58.5t24 52.5t28.5 70.5l59 -27q-64 -158 -135.5 -237.5t-136.5 -79.5q-43 0 -74.5 37.5t-42.5 103.5l-43 203l-131 -203q-99 -141 -209 -141q-43 0 -75.5 24.5t-32.5 67.5t23.5 67.5t54.5 33t86.5 15 t68.5 9.5q36 11 64 59z"/>
<glyph glyph-name="y" horiz-adv-x="815" unicode="y" d="M365 29l-134 739q-1 7 -5 29.5t-10.5 36.5t-18.5 14q-24 0 -41 -39q-6 -12 -26.5 -67.5t-33.5 -86.5l-63 21q84 224 160 305q41 43 88 43q82 0 110 -168l109 -612q7 15 51.5 95.5t71.5 136t44 112t17 112.5q0 41 -25.5 111.5t-25.5 103.5q0 47 31 78t88 31 q39 -9 61 -38.5t31 -92.5q0 -122 -54 -265.5t-147 -324.5q-110 -214 -211 -348.5t-192 -218.5q-151 -127 -277 -127q-55 0 -91 26.5t-36 71.5t38.5 75t88.5 30q31 0 75 -10.5t71 -10.5q45 3 90.5 41t107.5 121z"/>
<glyph glyph-name="z" horiz-adv-x="797" unicode="z" d="M139 184l4 -4q59 56 125 56q48 0 84 -22.5t83 -65t77 -60.5q3 0 29 -8q14 7 14 8q12 12 12 21q0 17 -16.5 49t-22.5 51q3 36 22.5 58.5t49.5 25.5q47 0 82 -29t35 -92q0 -89 -64 -140.5t-153 -51.5q-55 0 -121 25t-132.5 50t-121.5 25q-88 0 -117 -105h-67 q30 130 103 244.5t166 207t243 215t188 155.5l-4 4q-21 -13 -78 -21q-28 8 -47 8q-26 8 -60 24t-61.5 26t-54.5 10q-99 0 -180 -176l-56 24q16 34 47 100.5t63.5 114t80 80.5t104.5 33q34 0 65.5 -12t76 -37t71.5 -36.5t60 -14.5q91 0 112 80h76q-85 -210 -223 -371 q-69 -82 -143.5 -150t-141.5 -120.5t-128.5 -101t-80.5 -77.5z"/>
<glyph glyph-name="braceleft" horiz-adv-x="936" unicode="{" d="M424 676v-4q58 -15 83 -46t25 -89q0 -47 -12 -109l-96 -385q-6 -21 -8.5 -38.5t-7.5 -47.5q3 -58 27 -90t73 -47v-4q-66 0 -114.5 9.5t-81.5 43t-36 102.5q3 13 6 41.5t7 42.5l98 406q8 52 8 80q0 101 -98 131v4q94 25 130.5 65.5t59.5 135.5l84 356q29 116 69.5 178.5 t95.5 84.5t136 22q15 0 25.5 -0.5t22.5 -1.5v-5q-77 -17 -120.5 -65t-68.5 -150l-98 -397q-23 -87 -65 -143.5t-144 -79.5z"/>
<glyph glyph-name="bar" horiz-adv-x="553" unicode="|" d="M219 0v1516h109v-1516h-109z"/>
<glyph glyph-name="braceright" horiz-adv-x="936" unicode="}" d="M592 655v4q-111 25 -117 134q5 39 21 110l92 385q12 52 12 92q0 104 -96 131v5q106 0 168.5 -29.5t62.5 -130.5q0 -22 -8 -80l-98 -404q-10 -39 -17 -88q3 -49 27.5 -78.5t77.5 -46.5v-4q-63 -15 -100 -37t-57.5 -60.5t-35.5 -100.5l-84 -357q-29 -119 -68 -180 t-93 -83.5t-138 -22.5q-12 1 -22 1.5t-27 0.5v4q81 18 123.5 65t69.5 152l96 395q21 89 65.5 147.5t145.5 75.5z"/>
<glyph glyph-name="asciitilde" d="M109 508q113 192 268 192q56 0 114.5 -18t141 -52t123.5 -46q32 -6 55 -13q53 3 98.5 37.5t85.5 100.5l80 -54q-51 -82 -110.5 -129t-141.5 -57q-52 4 -88 16t-120.5 45t-134 47.5t-103.5 14.5q-58 0 -102 -34.5t-87 -104.5z" unicode="~"/>
<glyph glyph-name="nonbreakingspace" horiz-adv-x="1536" unicode=" "/>
<glyph glyph-name="exclamdown" horiz-adv-x="629" unicode="¡" d="M420 1024q51 0 88 -35t37 -90q0 -52 -37.5 -87.5t-87.5 -35.5q-51 0 -87 36t-36 87q0 54 35.5 89.5t87.5 35.5zM391 680q-53 -241 -91.5 -452t-63.5 -412q-8 -85 -44 -150t-108 -65q-44 0 -70 36t-26 82q0 39 12 72q21 54 95.5 240.5t105.5 268.5t64 187.5t54 212.5z"/>
<glyph glyph-name="cent" d="M487 281l213 806q-62 -52 -111.5 -138t-96.5 -222q-59 -188 -64 -295q7 -115 59 -151zM735 1221l41 151h84l-41 -151q103 0 175.5 -39t72.5 -129q0 -42 -30.5 -74t-71.5 -35q-44 3 -63 29.5t-34 79.5q-4 33 -12.5 50t-36.5 17q-18 0 -26 -4l-226 -848q70 17 136 64.5 t153 150.5l47 -43q-44 -67 -98 -119.5t-121 -88.5t-139 -48l-53 -196h-84l53 196q-109 21 -167 112t-58 208q0 110 58 249t150 255q145 172 291 213z" unicode="¢"/>
<glyph glyph-name="sterling" d="M416 633h-203l43 98h172q17 134 25.5 195.5t28 127.5t50.5 117q48 80 118.5 145t154 102.5t168.5 37.5q76 0 142 -29t103 -80t37 -114q0 -75 -47.5 -139t-120.5 -70q-19 6 -33 13.5t-22 21t-12 33.5q3 26 29 81t26 87q0 47 -31 78t-79 34q-64 0 -133.5 -36t-114.5 -107 q-41 -72 -63.5 -156t-30.5 -157.5t-15 -184.5h303l-39 -98h-292q-26 -125 -61.5 -212.5t-102.5 -193.5q19 -7 82.5 -38t104 -44.5t81.5 -13.5q84 0 161.5 53t158.5 189l57 -25q-65 -119 -133 -200.5t-145 -124.5t-167 -43q-147 0 -317 129q-56 -65 -120.5 -97t-127.5 -32 q-58 0 -92.5 29.5t-34.5 82.5q0 64 35 113.5t92 75.5t121 26q96 0 172 -43q72 230 72 369zM264 143q-104 79 -160 84q-47 0 -81.5 -34.5t-34.5 -75.5q0 -67 88 -74q12 4 33 4q40 6 76 29.5t79 66.5z" unicode="£"/>
<glyph glyph-name="currency" d="M545 977q-69 0 -130.5 -26.5t-108 -73t-74 -110t-27.5 -130.5q0 -91 45.5 -170t123.5 -126.5t167 -47.5q90 0 170 45t127 123.5t47 171.5q0 70 -26.5 132.5t-72.5 109.5t-110 74.5t-131 27.5zM109 256l104 104q-106 121 -113 273q3 74 32 144.5t81 133.5l-104 101l55 55 l100 -98q61 50 132.5 76t144.5 26q150 0 278 -102l105 98l53 -55l-100 -101q104 -130 104 -282q0 -146 -104 -269l100 -104l-53 -51l-105 98q-131 -104 -274 -110q-154 6 -281 110l-100 -98z" unicode="¤"/>
<glyph glyph-name="yen" d="M915 924h240l-27 -97h-280l-113 -176h348l-26 -96h-373l-76 -287q-19 -99 -20 -104q3 -56 45.5 -76t150.5 -20l-20 -68h-625l17 68q81 0 123.5 11t73 52.5t50.5 128.5l80 295h-415l28 96h379l-18 176h-318l29 97h272l-28 192q-13 86 -29.5 136t-59 81t-122.5 31l14 68 h512l-14 -68q-75 0 -100.5 -22t-28.5 -74q4 -17 4 -43l63 -537l289 440q48 68 70 104t22 73q0 59 -88 59l17 68h415l-16 -68q-161 -5 -311 -240z" unicode="¥"/>
<glyph glyph-name="brokenbar" horiz-adv-x="1460" unicode="¦" d="M219 0v1516h109v-1516h-109z"/>
<glyph glyph-name="section" horiz-adv-x="1200" unicode="§" d="M788 244q47 -59 72 -127.5t25 -141.5q0 -105 -59.5 -185t-155 -125t-201.5 -50q-84 0 -161 22t-137 63.5t-93.5 96.5t-34.5 119q7 87 51.5 153t124.5 66q48 0 76.5 -29.5t28.5 -76.5q0 -26 -10.5 -46t-35.5 -53t-36 -56.5t-11 -53.5q4 -51 67.5 -84t145.5 -33 q68 0 128 27.5t96.5 79t36.5 118.5q0 72 -33.5 123.5t-108.5 128.5q-29 34 -99 103t-114 120.5t-75 111t-35 128.5q1 74 42 140t104.5 113t137.5 73q-81 103 -88 223q1 92 56.5 168.5t147 120t196.5 43.5q63 -2 122.5 -21.5t107 -56t76.5 -90.5t29 -117q0 -65 -26.5 -107 t-69.5 -53q-14 0 -26 -4q-40 0 -69 28t-32 68q2 12 20.5 68t18.5 82q0 34 -20.5 59.5t-53 40t-65.5 19.5q-47 0 -95 -17t-83 -55.5t-45 -95.5q0 -82 49.5 -161.5t147.5 -184t122 -133.5q61 -79 87 -127.5t26 -110.5q0 -110 -77 -191.5t-192 -119.5zM571 911 q-154 -83 -159 -206q7 -88 92 -173l223 -233q154 75 154 188q0 93 -84 185z"/>
<glyph glyph-name="dieresis" horiz-adv-x="936" unicode="¨" d="M784 1335q0 49 33 81t80 32q44 0 77.5 -32.5t33.5 -80.5q0 -46 -34 -80t-77 -34q-46 0 -79.5 33.5t-33.5 80.5zM373 1335q0 48 31.5 80.5t78.5 32.5q46 0 79.5 -32.5t33.5 -80.5q0 -46 -34 -80t-79 -34q-46 0 -78 33.5t-32 80.5z"/>
<glyph glyph-name="copyright" horiz-adv-x="1608" unicode="©" d="M797 -25q-202 0 -376 106.5t-276 285t-102 381.5q0 159 58.5 299.5t164.5 249.5t243.5 168t291.5 59q159 0 299.5 -58.5t246 -165t164 -247.5t58.5 -301q0 -159 -59.5 -301.5t-166.5 -249.5t-248 -166.5t-298 -59.5zM801 1440q-137 0 -258.5 -53.5t-214.5 -147.5 t-146 -220.5t-53 -262.5q0 -142 53 -269.5t147.5 -223.5t220 -150t261.5 -54q138 0 262 54.5t216.5 150t144 221.5t51.5 267q0 142 -52.5 269t-145 220t-219 146t-267.5 53zM1067 911q0 102 -64.5 172t-162.5 70q-104 0 -174 -57t-104 -154.5t-34 -216.5q6 -79 33 -147.5 t72.5 -119t105.5 -73.5q55 -18 113 -25q164 9 260 168l55 -20q-25 -66 -81.5 -116t-133.5 -77.5t-164 -29.5q-16 2 -45 4t-43 4q-91 16 -170.5 70.5t-129.5 147t-56 220.5q0 102 35 192.5t98.5 158t150 105.5t183.5 38q75 0 159 -16t167 -46v-252h-70z"/>
<glyph glyph-name="ordfeminine" horiz-adv-x="664" unicode="ª" d="M567 1300q29 67 29 109q-8 64 -68 64q-40 0 -78 -23.5t-65 -60.5q-56 -64 -95.5 -159t-45.5 -181q0 -38 17.5 -61.5t45.5 -26.5q67 7 117.5 63t82 124t60.5 152zM496 1057h-9q-71 -152 -202 -160q-73 0 -115 45t-45 119q4 14 4 43q11 72 43 145t83.5 136t118 101 t142.5 38q36 0 71 -18.5t46 -49.5l14 55h121l-139 -356q-31 -85 -45 -143q0 -2 6 -11t10 -14q58 9 135 141l33 -20q-102 -190 -219 -211q-29 0 -50 23t-24 61q8 48 21 76zM96 756v59h537v-59h-537z"/>
<glyph glyph-name="guillemotleft" horiz-adv-x="911" unicode="«" d="M461 197l-58 -29l-235 356l424 353l37 -50l-281 -303zM776 197l-55 -29l-238 356l424 353l37 -50l-285 -303z"/>
<glyph glyph-name="logicalnot" d="M928 209v438h-799v113h907v-551h-108z" unicode="¬"/>
<glyph glyph-name="registered" horiz-adv-x="1608" unicode="®" d="M688 801h37q133 0 206 37.5t73 160.5q0 93 -58 141t-149 48q-51 0 -71.5 -4.5t-29 -23.5t-8.5 -68v-291zM688 748v-252q0 -66 5.5 -87.5t25 -26.5t78.5 -5v-41h-357v41q21 0 31 -4q41 3 57.5 16t16.5 51v697q0 55 -105 55v47h361q89 0 168 -18.5t131.5 -69t52.5 -139.5 q0 -62 -35 -114.5t-92 -85t-119 -36.5v-4q111 -22 193 -219q18 -40 32.5 -70t30 -52.5t38.5 -38t54 -15.5v-41h-59q-25 0 -43 -4q-82 8 -109 24q-21 16 -37 46t-30 65.5t-25 64.5q-31 79 -42.5 106t-32 54t-56.5 41.5t-94 14.5h-39zM797 59q140 0 266.5 52t222.5 147 t149.5 220.5t53.5 269.5t-52.5 272.5t-144.5 222t-218.5 147.5t-268.5 54q-138 0 -264.5 -54.5t-220 -150.5t-146.5 -223.5t-53 -267.5q0 -184 90.5 -343t246 -252.5t339.5 -93.5zM797 -25q-154 0 -292 59.5t-243.5 169t-163 249t-57.5 295.5q0 206 101 385t275 285t380 106 q157 0 298 -58t249.5 -164t168.5 -246.5t60 -299.5q0 -160 -60 -302t-168 -250t-250 -168.5t-298 -60.5z"/>
<glyph glyph-name="plusminus" d="M1036 0h-907v109h907v-109zM129 684h399v340h109v-340h399v-113h-399v-340h-109v340h-399v113z" unicode="±"/>
<glyph glyph-name="twosuperior" horiz-adv-x="721" unicode="²" d="M236 717h217q84 0 118 8q47 12 79 41t63 78l43 -17l-97 -211h-591q39 77 97.5 141t115.5 109t162.5 122.5t156.5 123.5q109 94 109 197q0 54 -34 86t-95 32q-66 0 -94.5 -27t-49.5 -87q0 -80 -51 -105q-3 0 -29 -8q-30 3 -50.5 24.5t-20.5 55.5q0 64 50 110.5t122 70.5 t135 24q67 0 127 -26t98.5 -75.5t38.5 -115.5q0 -59 -33 -107t-83 -85.5t-106.5 -69t-117.5 -66.5q-83 -48 -153 -101t-127 -122z"/>
<glyph glyph-name="threesuperior" horiz-adv-x="721" unicode="³" d="M549 1061q51 0 91.5 -23.5t63.5 -65.5t23 -91q0 -115 -95.5 -191t-215.5 -82q-31 0 -51 -4q-101 7 -173 44t-83 120q7 40 24 64t55 24q15 0 34 -8.5t30.5 -21t11.5 -29.5q0 -13 -7 -41t-9 -39q7 -61 104 -66q69 0 124.5 36.5t87.5 95.5t32 124q0 55 -36 88t-95 33 q-11 0 -37 -2t-37 -2q-36 0 -43 29q13 24 20.5 31.5t30.5 7.5q22 0 72 -9q8 4 16 4q89 7 139 73t54 136q0 138 -100 144q-60 0 -99.5 -31t-48.5 -88q-20 -69 -72 -74q-7 3 -27.5 9t-30 16t-9.5 33q4 0 -4 8q13 58 54 96.5t97 57t115 18.5q101 0 178.5 -51.5t77.5 -157.5 q-8 -76 -55.5 -123t-105.5 -67.5t-101 -20.5v-4z"/>
<glyph glyph-name="acute" horiz-adv-x="637" unicode="´" d="M360 1124l-36 39l204 256q46 61 73 89t63 28q34 0 54.5 -19t20.5 -53q0 -31 -22.5 -57.5t-61.5 -54.5z"/>
<glyph glyph-name="mu" horiz-adv-x="1153" unicode="µ" d="M121 121q0 38 15 98t37.5 128t41.5 122l109 307l10 38l10 38q0 20 -25 20q-22 0 -43 -28q-41 -30 -71 -71.5t-76 -117.5l-61 45q65 96 109 156t105.5 114t120.5 54q53 -3 85 -47.5t32 -99.5q0 -47 -24 -121q-22 -73 -97 -271t-75 -200q-38 -108 -43 -142q7 -21 18 -30 q2 0 25 -9q34 11 45 21q26 25 64.5 82t96.5 154t95 159l290 484h152q-23 -71 -61.5 -178.5t-89.5 -251.5t-81.5 -241t-54.5 -194q7 -26 25 -30q6 0 10 -5q30 6 66 52q21 26 50.5 68.5t29.5 47.5l51 80l59 -37q-205 -340 -346 -340q-54 0 -81.5 41.5t-27.5 100.5 q5 52 22 112.5t44.5 135.5t59 151t55.5 135l-4 4q-204 -340 -252 -419q-54 -81 -90.5 -127t-99 -85.5t-142.5 -39.5q-14 -50 -35.5 -125t-30.5 -95q-43 -159 -139 -159q-33 0 -50 31t-17 67q0 29 13 71l13 42q21 43 52.5 104t66.5 127t39 74z"/>
<glyph glyph-name="paragraph" horiz-adv-x="1255" unicode="¶" d="M655 815l156 617q-138 0 -211 -52q-125 -97 -143 -389q8 -28 8 -43q9 -53 56 -90t134 -43zM1124 1432h-143l-428 -1659h-338l21 67q68 0 108.5 21.5t65 64t43.5 111.5l180 694q-98 2 -169.5 15t-128 67.5t-56.5 169.5q0 37 6 84q12 103 72.5 199.5t129.5 142.5 q136 90 402 90h584l-21 -67q-70 0 -110.5 -23.5t-64.5 -65t-37.5 -96.5t-22.5 -94l-285 -1120q-17 -70 -21 -96q3 -49 41.5 -73t130.5 -24l-18 -67h-369z"/>
<glyph glyph-name="cedilla" horiz-adv-x="709" unicode="¸" d="M193 0h75l-59 -113q65 0 106 -35.5t41 -99.5q0 -57 -36 -98t-91.5 -61.5t-107.5 -20.5q-43 0 -85 13.5t-70.5 42t-28.5 69.5q0 51 67 51q23 -6 33.5 -25t18.5 -46.5t19.5 -42.5t37.5 -15q53 0 90 44.5t37 100.5q0 34 -20.5 57.5t-63.5 26.5q-35 -7 -64 -16z"/>
<glyph glyph-name="onesuperior" horiz-adv-x="721" unicode="¹" d="M100 629l13 39q66 0 100.5 8.5t58.5 40t43 98.5l138 477q8 42 8 43q0 27 -18 34t-70 7h-88l12 39q79 3 151 19.5t207 54.5l-198 -696q-7 -37 -13 -62q0 -39 34 -51t106 -16q16 4 32 4l-12 -39h-504z"/>
<glyph glyph-name="ordmasculine" horiz-adv-x="664" unicode="º" d="M96 815h541v-59h-541v59zM231 1239q38 86 90.5 149.5t115 99.5t126.5 36q51 0 93 -30t64.5 -77t22.5 -96q0 -91 -49 -193t-131.5 -168.5t-177.5 -66.5q-159 5 -188 190q8 91 34 156zM348 1212q-40 -125 -45 -184q6 -86 82 -92q73 0 139 104q30 45 72 160q41 112 41 193 q-3 39 -23 64t-55 28q-61 0 -116.5 -76.5t-94.5 -196.5z"/>
<glyph glyph-name="guillemotright" horiz-adv-x="911" unicode="»" d="M500 852l55 25l238 -357l-424 -352l-37 47l280 305zM184 852l56 25l235 -357l-424 -352l-35 47l281 305z"/>
<glyph glyph-name="onequarter" horiz-adv-x="1800" unicode="¼" d="M160 629l12 39q100 0 140.5 25t68.5 122l135 477q4 13 4 35q0 28 -18 38.5t-66 10.5h-92l16 39q78 3 144 18.5t213 55.5l-201 -696q-3 -15 -6.5 -33t-5.5 -29q3 -42 43.5 -52.5t128.5 -10.5l-12 -39h-504zM1313 201h-377l16 75l576 584h112l-172 -584h136l-21 -75h-131 q-27 -94 -29 -105q3 -29 24 -42t69 -13l-13 -41h-350l10 41q53 0 80 19.5t36 42t34 98.5zM1040 276h291l125 424l4 5h-4zM449 0l907 1464h112l-905 -1464h-114z"/>
<glyph glyph-name="onehalf" horiz-adv-x="1800" unicode="½" d="M1116 100h215q93 0 156 27.5t104 99.5l45 -14l-92 -213h-596q39 82 98 146t118.5 109.5t161.5 119t155 121.5q106 95 106 196q0 123 -127 123q-62 0 -95.5 -29.5t-47.5 -89.5q0 -82 -53 -104q-7 0 -27 -8q-31 3 -52.5 23t-21.5 57q0 64 51 112t123.5 72t135.5 24 q99 -3 181.5 -62t82.5 -155q0 -59 -34.5 -108.5t-85 -86.5t-120.5 -75t-100 -57q-108 -69 -166.5 -113t-114.5 -115zM408 0l909 1464h110l-903 -1464h-116zM121 629l10 39q68 0 103.5 8.5t60.5 40t45 98.5l135 477q4 13 4 35q0 29 -17.5 39t-66.5 10h-92l12 39q82 3 147 18 t214 56l-201 -696q-2 -15 -4 -27t-6 -35q0 -39 33.5 -51t105.5 -16q17 4 33 4l-12 -39h-504z"/>
<glyph glyph-name="threequarters" horiz-adv-x="1800" unicode="¾" d="M555 1061q81 0 128.5 -52.5t47.5 -131.5t-45.5 -138t-116.5 -92.5t-149 -38.5q-29 0 -51 -4q-236 17 -252 160q8 44 23 68t53 24q26 0 50.5 -16t24.5 -43q0 -49 -12 -76q7 -65 100 -70q70 0 126.5 36.5t89 95t32.5 124.5q0 55 -37 88t-96 33q-9 0 -35 -2t-37 -2 q-36 0 -43 29q10 22 18.5 30.5t28.5 8.5q22 0 72 -9q12 4 21 4q89 7 138.5 73.5t53.5 135.5q0 139 -100 144q-76 0 -117 -43q-15 -19 -29.5 -62t-29 -63.5t-47.5 -24.5q-5 4 -21 4q-28 6 -37 35t-10 31q20 82 97 125t169 43q101 0 178.5 -51.5t77.5 -157.5 q-12 -109 -100 -160t-164 -51v-4zM449 0l907 1464h112l-905 -1464h-114zM1040 276h291l125 424l4 5h-4zM1313 201h-377l16 75l576 584h112l-172 -584h136l-21 -75h-131q-27 -94 -29 -105q3 -29 24 -42t69 -13l-13 -41h-350l10 41q53 0 80 19.5t36 42t34 98.5z"/>
<glyph glyph-name="questiondown" horiz-adv-x="981" unicode="¿" d="M700 1024q51 0 87 -37t36 -88t-36 -87t-87 -36q-50 0 -87.5 36.5t-37.5 86.5t37.5 87.5t87.5 37.5zM688 664l-129 -467q-46 18 -94 18q-63 0 -104 -32t-64.5 -82.5t-31.5 -90.5t-25 -131q4 -81 45 -146t114 -65q35 0 57.5 18.5t46 56.5t42.5 61t47 32q4 2 18.5 4.5 t18.5 3.5q96 -8 96 -112q-6 -39 -46 -70t-101.5 -48t-133.5 -17q-158 0 -263 100t-105 260q0 107 45 209t129 167.5t194 65.5q28 0 76 -8l76 297z"/>
<glyph glyph-name="Agrave" horiz-adv-x="1368" unicode="À" d="M1077 1599l-289 224q-40 32 -62.5 55.5t-29.5 52.5q0 32 20 56t52 24q42 0 71.5 -29t78.5 -92l194 -252zM897 629l-37 694l-399 -694h436zM-139 68q89 0 142 39t110 133l718 1216l209 68l84 -1293q8 -96 34.5 -129.5t113.5 -33.5h41l-21 -68h-565l21 68q73 0 110 8.5 t51.5 33t14.5 74.5v21l-17 327h-504l-151 -268q-47 -83 -51 -129q3 -34 36 -50.5t115 -16.5l-20 -68h-492z"/>
<glyph glyph-name="Aacute" horiz-adv-x="1368" unicode="Á" d="M913 1599l-36 39l204 256q46 61 73 89t63 28q34 0 54.5 -19t20.5 -53q0 -31 -22.5 -57.5t-61.5 -54.5zM897 629l-37 694l-399 -694h436zM-139 68q89 0 142 39t110 133l718 1216l209 68l84 -1293q8 -96 34.5 -129.5t113.5 -33.5h41l-21 -68h-565l21 68q73 0 110 8.5 t51.5 33t14.5 74.5v21l-17 327h-504l-151 -268q-47 -83 -51 -129q3 -34 36 -50.5t115 -16.5l-20 -68h-492z"/>
<glyph glyph-name="Acircumflex" horiz-adv-x="1368" unicode="Â" d="M991 1851l-270 -252l-53 56l268 305q29 32 45.5 45.5t42.5 13.5q64 0 88 -133l64 -256l-76 -31zM897 629l-37 694l-399 -694h436zM-139 68q89 0 142 39t110 133l718 1216l209 68l84 -1293q8 -96 34.5 -129.5t113.5 -33.5h41l-21 -68h-565l21 68q73 0 110 8.5t51.5 33 t14.5 74.5v21l-17 327h-504l-151 -268q-47 -83 -51 -129q3 -34 36 -50.5t115 -16.5l-20 -68h-492z"/>
<glyph glyph-name="Atilde" horiz-adv-x="1368" unicode="Ã" d="M559 1700q10 13 46.5 60.5t68.5 80t69.5 53.5t75.5 21q45 0 88.5 -15.5t108 -44t92.5 -36.5q4 -2 17 -4t18 -5q35 5 67.5 27.5t83.5 77.5l62 -47q-65 -92 -123.5 -149t-132.5 -68q-36 5 -63.5 16t-86 39.5t-96 40.5t-76.5 12q-32 0 -66.5 -24t-88.5 -84zM897 629l-37 694 l-399 -694h436zM-139 68q89 0 142 39t110 133l718 1216l209 68l84 -1293q8 -96 34.5 -129.5t113.5 -33.5h41l-21 -68h-565l21 68q73 0 110 8.5t51.5 33t14.5 74.5v21l-17 327h-504l-151 -268q-47 -83 -51 -129q3 -34 36 -50.5t115 -16.5l-20 -68h-492z"/>
<glyph glyph-name="Adieresis" horiz-adv-x="1368" unicode="Ä" d="M1057 1806q0 48 33.5 80.5t78.5 32.5q46 0 78.5 -32.5t32.5 -80.5q0 -46 -33 -80t-78 -34q-44 0 -78 34t-34 80zM645 1806q0 48 31.5 80.5t79.5 32.5q47 0 79.5 -32.5t32.5 -80.5q0 -46 -33 -80t-79 -34q-47 0 -79 33.5t-32 80.5zM897 629l-37 694l-399 -694h436z M-139 68q89 0 142 39t110 133l718 1216l209 68l84 -1293q8 -96 34.5 -129.5t113.5 -33.5h41l-21 -68h-565l21 68q73 0 110 8.5t51.5 33t14.5 74.5v21l-17 327h-504l-151 -268q-47 -83 -51 -129q3 -34 36 -50.5t115 -16.5l-20 -68h-492z"/>
<glyph glyph-name="Aring" horiz-adv-x="1368" unicode="Å" d="M864 1788q0 -44 31.5 -74.5t73.5 -30.5q43 0 74.5 30.5t31.5 74.5t-31 74t-75 30q-43 0 -74 -30t-31 -74zM793 1788q0 46 23.5 88t64.5 67t88 25q48 0 89 -25t65 -67t24 -88q0 -48 -24 -90t-65.5 -66t-88.5 -24q-46 0 -87.5 24t-65 66t-23.5 90zM897 629l-37 694 l-399 -694h436zM-139 68q89 0 142 39t110 133l718 1216l209 68l84 -1293q8 -96 34.5 -129.5t113.5 -33.5h41l-21 -68h-565l21 68q73 0 110 8.5t51.5 33t14.5 74.5v21l-17 327h-504l-151 -268q-47 -83 -51 -129q3 -34 36 -50.5t115 -16.5l-20 -68h-492z"/>
<glyph glyph-name="AE" horiz-adv-x="1935" unicode="Æ" d="M881 633l211 799h-5l-595 -799h389zM739 1499h1209l45 -354l-88 -17q-60 166 -154 235t-266 69q-72 0 -115 -19.5t-67.5 -54t-35 -69.5t-34.5 -130l-84 -323h80q94 0 160 14.5t113.5 61t58.5 132.5h96l-162 -587h-90q10 58 10 98q0 73 -32 113t-85 53.5t-127 13.5h-55 l-100 -383q-26 -119 -29 -151q3 -67 49 -100t160 -33q100 0 180 24t153 71t129 101t134 144l68 -39l-177 -369h-1134l14 68q58 0 99 16.5t69 56t49 111.5l72 285h-428l-184 -252q-69 -102 -76 -138q0 -25 11 -41.5t30.5 -25.5t39 -11.5t40.5 -5.5q8 5 14 5l-18 -68h-486 l21 68q45 0 88.5 24t79 59t65.5 72.5t72 91.5l647 869q20 27 42 57t36 58.5t14 60.5q0 39 -32 55.5t-107 16.5z"/>
<glyph glyph-name="Ccedilla" horiz-adv-x="1339" unicode="Ç" d="M664 -25l-48 -88q65 0 106.5 -35.5t41.5 -99.5q0 -59 -35.5 -99t-90.5 -60.5t-110 -20.5q-73 0 -123.5 31.5t-64.5 93.5q6 51 72 51q23 -6 33.5 -25t19 -47.5t19 -42.5t36.5 -14q55 0 91 44.5t36 100.5q0 35 -20 58t-64 26q-45 -10 -63 -16l88 148q-123 16 -222.5 91 t-155.5 203t-56 297q0 43 2 66q10 165 82 326t190 288.5t264.5 200t302.5 72.5q89 0 193 -31.5t129 -32.5q60 6 92 56h2l8 -424h-88q-28 152 -112.5 242t-198.5 102q-14 2 -45 2q-68 0 -135.5 -27t-131.5 -80.5t-120 -134.5q-38 -53 -83 -137t-84 -203t-48 -248 q-4 -52 -4 -78q0 -129 39 -220t110.5 -141.5t161.5 -59.5q102 0 195.5 32.5t178 99.5t150.5 158l60 -39q-78 -125 -177 -208.5t-208 -127t-215 -49.5z"/>
<glyph glyph-name="Egrave" horiz-adv-x="1343" unicode="È" d="M1061 1599l-289 224q-3 3 -21 17.5t-32.5 29t-25 30.5t-13.5 31q0 32 20 56t52 24q43 0 71.5 -29t77.5 -92l195 -252zM1356 1499l49 -362l-82 -13q-56 166 -157 237t-273 71q-84 0 -129.5 -24t-66 -66t-46.5 -142l-96 -364q125 0 198 10t131.5 55t88.5 143h94l-160 -587 h-92q12 45 12 96q0 182 -247 182h-52l-112 -436q-6 -31 -12 -59t-9 -52q3 -67 46.5 -93.5t142.5 -26.5q149 0 252.5 33.5t189 106.5t182.5 195l60 -38l-168 -365h-1141l16 68q73 0 117 26.5t66.5 71.5t42.5 123l239 895q29 101 29 147q0 56 -37 78.5t-133 22.5l20 67h1037z "/>
<glyph glyph-name="Eacute" horiz-adv-x="1343" unicode="É" d="M860 1604l-37 38l205 256q10 14 35.5 46.5t49.5 51.5t50 19q34 0 55 -20t21 -51q0 -32 -20 -55t-64 -58zM1356 1499l49 -362l-82 -13q-56 166 -157 237t-273 71q-84 0 -129.5 -24t-66 -66t-46.5 -142l-96 -364q125 0 198 10t131.5 55t88.5 143h94l-160 -587h-92 q12 45 12 96q0 182 -247 182h-52l-112 -436q-6 -31 -12 -59t-9 -52q3 -67 46.5 -93.5t142.5 -26.5q149 0 252.5 33.5t189 106.5t182.5 195l60 -38l-168 -365h-1141l16 68q73 0 117 26.5t66.5 71.5t42.5 123l239 895q29 101 29 147q0 56 -37 78.5t-133 22.5l20 67h1037z"/>
<glyph glyph-name="Ecircumflex" horiz-adv-x="1343" unicode="Ê" d="M1038 1851l-270 -252l-53 56l268 305q10 11 25 26.5t29.5 24t33.5 8.5q64 0 88 -133l64 -256l-76 -31zM1356 1499l49 -362l-82 -13q-56 166 -157 237t-273 71q-84 0 -129.5 -24t-66 -66t-46.5 -142l-96 -364q125 0 198 10t131.5 55t88.5 143h94l-160 -587h-92 q12 45 12 96q0 182 -247 182h-52l-112 -436q-6 -31 -12 -59t-9 -52q3 -67 46.5 -93.5t142.5 -26.5q149 0 252.5 33.5t189 106.5t182.5 195l60 -38l-168 -365h-1141l16 68q73 0 117 26.5t66.5 71.5t42.5 123l239 895q29 101 29 147q0 56 -37 78.5t-133 22.5l20 67h1037z"/>
<glyph glyph-name="Edieresis" horiz-adv-x="1343" unicode="Ë" d="M1053 1815q0 49 33.5 80.5t78.5 31.5q46 0 78.5 -31.5t32.5 -80.5q0 -47 -33 -81t-78 -34q-44 0 -78 34t-34 81zM641 1815q0 49 31.5 80.5t79.5 31.5q47 0 79.5 -31.5t32.5 -80.5q0 -47 -33 -81t-79 -34q-47 0 -79 33.5t-32 81.5zM1356 1499l49 -362l-82 -13 q-56 166 -157 237t-273 71q-84 0 -129.5 -24t-66 -66t-46.5 -142l-96 -364q125 0 198 10t131.5 55t88.5 143h94l-160 -587h-92q12 45 12 96q0 182 -247 182h-52l-112 -436q-6 -31 -12 -59t-9 -52q3 -67 46.5 -93.5t142.5 -26.5q149 0 252.5 33.5t189 106.5t182.5 195l60 -38 l-168 -365h-1141l16 68q73 0 117 26.5t66.5 71.5t42.5 123l239 895q29 101 29 147q0 56 -37 78.5t-133 22.5l20 67h1037z"/>
<glyph glyph-name="Igrave" horiz-adv-x="739" unicode="Ì" d="M760 1599l-289 224q-3 3 -21 17.5t-32.5 29t-25 30.5t-13.5 31q0 32 19 56t53 24q43 0 71.5 -29t77.5 -92l195 -252zM209 299l235 885q27 87 27 139q0 58 -37.5 83.5t-130.5 25.5l16 67h580l-18 -67q-110 0 -151.5 -53.5t-78.5 -178.5l-231 -885q-28 -91 -33 -147 q3 -53 41 -76.5t127 -23.5l-14 -68h-582l21 68q112 0 155 57t74 174z"/>
<glyph glyph-name="Iacute" horiz-adv-x="739" unicode="Í" d="M492 1604l-37 38l204 256q46 61 73 89t63 28q33 0 54 -19t21 -52q0 -32 -20 -55t-64 -58zM209 299l235 885q27 87 27 139q0 58 -37.5 83.5t-130.5 25.5l16 67h580l-18 -67q-110 0 -151.5 -53.5t-78.5 -178.5l-231 -885q-28 -91 -33 -147q3 -53 41 -76.5t127 -23.5 l-14 -68h-582l21 68q112 0 155 57t74 174z"/>
<glyph glyph-name="Icircumflex" horiz-adv-x="739" unicode="Î" d="M698 1851l-270 -252l-53 56l268 305q10 11 25 26.5t29.5 24t33.5 8.5q64 0 88 -133l64 -256l-76 -31zM209 299l235 885q27 87 27 139q0 58 -37.5 83.5t-130.5 25.5l16 67h580l-18 -67q-110 0 -151.5 -53.5t-78.5 -178.5l-231 -885q-28 -91 -33 -147q3 -53 41 -76.5 t127 -23.5l-14 -68h-582l21 68q112 0 155 57t74 174z"/>
<glyph glyph-name="Idieresis" horiz-adv-x="739" unicode="Ï" d="M748 1810q0 48 33.5 80.5t78.5 32.5q46 0 78.5 -32.5t32.5 -80.5q0 -46 -33 -80t-78 -34q-44 0 -78 34t-34 80zM336 1810q0 48 31.5 80.5t78.5 32.5q46 0 79.5 -32.5t33.5 -80.5q0 -46 -34 -80t-79 -34q-46 0 -78 33.5t-32 80.5zM209 299l235 885q27 87 27 139 q0 58 -37.5 83.5t-130.5 25.5l16 67h580l-18 -67q-110 0 -151.5 -53.5t-78.5 -178.5l-231 -885q-28 -91 -33 -147q3 -53 41 -76.5t127 -23.5l-14 -68h-582l21 68q112 0 155 57t74 174z"/>
<glyph glyph-name="Ntilde" horiz-adv-x="1516" unicode="Ñ" d="M637 1700q10 13 45 59.5t69 80.5t70.5 54.5t75.5 20.5q45 0 88.5 -15.5t108 -44t92.5 -36.5q4 -2 17 -4t18 -5q34 4 64.5 25t86.5 80l62 -47q-65 -92 -123.5 -149t-132.5 -68q-36 5 -63.5 16t-86 39.5t-96 40.5t-76.5 12q-32 0 -67 -23.5t-89 -84.5zM651 1499l490 -1071 l202 756q29 107 29 151q0 53 -36.5 75t-127.5 22l17 67h479l-16 -67q-82 0 -128.5 -29.5t-67 -74t-44.5 -128.5l-315 -1204h-17l-567 1221l-230 -873q-24 -93 -30 -168q3 -53 37.5 -80.5t117.5 -27.5l-20 -68h-465l21 68q104 3 152.5 76t82.5 200l225 840q29 107 29 151 q0 53 -35 73.5t-131 23.5l16 67h332z"/>
<glyph glyph-name="Ograve" horiz-adv-x="1511" unicode="Ò" d="M1083 1599l-288 224q-41 33 -63.5 56t-29.5 52q0 32 20 56t52 24q42 0 71.5 -29t78.5 -92l194 -252zM193 885q51 142 130.5 256.5t185.5 201.5t223 132.5t241 48.5q160 0 277 -88t176 -228.5t59 -292.5q0 -91 -19.5 -180t-56.5 -175t-89 -164.5t-116 -147.5 q-87 -92 -181.5 -151.5t-191 -88t-190.5 -28.5q-156 3 -277.5 86t-183.5 233q-44 135 -49 260q7 168 62 326zM412 801q-62 -215 -68 -385q3 -163 68.5 -252.5t179.5 -100.5q162 0 283 90t198 224t127 287q35 115 53.5 222.5t18.5 200.5q0 66 -16.5 128.5t-52 114t-89 81 t-127.5 29.5q-178 -3 -329 -173.5t-246 -465.5z"/>
<glyph glyph-name="Oacute" horiz-adv-x="1511" unicode="Ó" d="M989 1604l-37 38l205 256q10 14 35.5 46.5t49.5 51.5t50 19q34 0 55 -20t21 -51q0 -32 -20 -55t-64 -58zM193 885q51 142 130.5 256.5t185.5 201.5t223 132.5t241 48.5q160 0 277 -88t176 -228.5t59 -292.5q0 -91 -19.5 -180t-56.5 -175t-89 -164.5t-116 -147.5 q-87 -92 -181.5 -151.5t-191 -88t-190.5 -28.5q-156 3 -277.5 86t-183.5 233q-44 135 -49 260q7 168 62 326zM412 801q-62 -215 -68 -385q3 -163 68.5 -252.5t179.5 -100.5q162 0 283 90t198 224t127 287q35 115 53.5 222.5t18.5 200.5q0 66 -16.5 128.5t-52 114t-89 81 t-127.5 29.5q-178 -3 -329 -173.5t-246 -465.5z"/>
<glyph glyph-name="Ocircumflex" horiz-adv-x="1511" unicode="Ô" d="M1038 1847l-270 -252l-53 56l268 305q10 11 25 26.5t29.5 24t33.5 8.5q64 0 88 -133l64 -256l-76 -31zM193 885q51 142 130.5 256.5t185.5 201.5t223 132.5t241 48.5q160 0 277 -88t176 -228.5t59 -292.5q0 -91 -19.5 -180t-56.5 -175t-89 -164.5t-116 -147.5 q-87 -92 -181.5 -151.5t-191 -88t-190.5 -28.5q-156 3 -277.5 86t-183.5 233q-44 135 -49 260q7 168 62 326zM412 801q-62 -215 -68 -385q3 -163 68.5 -252.5t179.5 -100.5q162 0 283 90t198 224t127 287q35 115 53.5 222.5t18.5 200.5q0 66 -16.5 128.5t-52 114t-89 81 t-127.5 29.5q-178 -3 -329 -173.5t-246 -465.5z"/>
<glyph glyph-name="Otilde" horiz-adv-x="1511" unicode="Õ" d="M633 1700q10 13 45 59.5t69 80.5t70.5 54.5t75.5 20.5q45 0 88.5 -15.5t108 -44t92.5 -36.5q4 -2 17 -4t18 -5q34 4 64.5 25t86.5 80l62 -47q-65 -92 -123.5 -149t-132.5 -68q-36 5 -63.5 16t-86 39.5t-96 40.5t-76.5 12q-32 0 -67 -23.5t-89 -84.5zM193 885 q51 142 130.5 256.5t185.5 201.5t223 132.5t241 48.5q160 0 277 -88t176 -228.5t59 -292.5q0 -91 -19.5 -180t-56.5 -175t-89 -164.5t-116 -147.5q-87 -92 -181.5 -151.5t-191 -88t-190.5 -28.5q-156 3 -277.5 86t-183.5 233q-44 135 -49 260q7 168 62 326zM412 801 q-62 -215 -68 -385q3 -163 68.5 -252.5t179.5 -100.5q162 0 283 90t198 224t127 287q35 115 53.5 222.5t18.5 200.5q0 66 -16.5 128.5t-52 114t-89 81t-127.5 29.5q-178 -3 -329 -173.5t-246 -465.5z"/>
<glyph glyph-name="Odieresis" horiz-adv-x="1511" unicode="Ö" d="M1133 1815q0 49 33.5 80.5t78.5 31.5q46 0 78.5 -31.5t32.5 -80.5q0 -47 -33 -81t-78 -34q-44 0 -78 34t-34 81zM721 1815q0 49 31.5 80.5t78.5 31.5q46 0 79.5 -31.5t33.5 -80.5q0 -47 -34 -81t-79 -34q-46 0 -78 33.5t-32 81.5zM193 885q51 142 130.5 256.5 t185.5 201.5t223 132.5t241 48.5q160 0 277 -88t176 -228.5t59 -292.5q0 -91 -19.5 -180t-56.5 -175t-89 -164.5t-116 -147.5q-87 -92 -181.5 -151.5t-191 -88t-190.5 -28.5q-156 3 -277.5 86t-183.5 233q-44 135 -49 260q7 168 62 326zM412 801q-62 -215 -68 -385 q3 -163 68.5 -252.5t179.5 -100.5q162 0 283 90t198 224t127 287q35 115 53.5 222.5t18.5 200.5q0 66 -16.5 128.5t-52 114t-89 81t-127.5 29.5q-178 -3 -329 -173.5t-246 -465.5z"/>
<glyph glyph-name="Oslash" horiz-adv-x="1511" unicode="Ø" d="M219 223q-82 150 -88 336q6 124 29 213q53 207 177 378t291.5 272.5t340.5 101.5q94 -1 172 -29t128 -67.5t74 -75.5l205 204l64 -63l-211 -217q84 -155 84 -340q0 -170 -64.5 -340.5t-181.5 -311t-272.5 -222.5t-329.5 -82q-114 0 -202.5 43.5t-162.5 128.5l-204 -203 l-64 59zM369 248q33 -104 103 -146.5t157 -42.5q158 6 282.5 114.5t203.5 270.5t120 334t41 303q0 26 -4 68zM348 352l899 903q-31 90 -103.5 137.5t-174.5 47.5q-131 -9 -246 -110.5t-200 -265t-130 -349t-45 -363.5z"/>
<glyph glyph-name="Ugrave" horiz-adv-x="1468" unicode="Ù" d="M1120 1604l-289 223q-40 32 -62.5 55.5t-29.5 52.5q0 32 20 56t52 24q42 0 71.5 -29t78.5 -92l194 -252zM1217 1499h466l-18 -67q-112 0 -156 -59.5t-73 -172.5l-140 -524q-41 -167 -77.5 -281t-94.5 -198q-150 -222 -448 -222q-127 0 -231.5 45.5t-165 138t-60.5 222.5 q0 56 19 148.5t61 254t64 240t45 160.5q28 103 28 147q0 53 -36 77t-124 24l21 67h567l-20 -67q-115 0 -159.5 -58t-68.5 -174q-9 -41 -39.5 -149.5t-71.5 -262.5t-65 -261t-24 -158q0 -89 38.5 -156t108 -102t158.5 -35q108 0 186.5 47t132.5 129q31 49 50 96t36.5 102.5 t34 119t27.5 106.5l133 508q8 30 13.5 50.5t11.5 45.5t6 47q0 53 -32.5 79t-119.5 26z"/>
<glyph glyph-name="Uacute" horiz-adv-x="1468" unicode="Ú" d="M1001 1599l-36 39l204 256q46 61 73 89t63 28q34 0 54.5 -19t20.5 -53q0 -31 -22.5 -57.5t-61.5 -54.5zM1217 1499h466l-18 -67q-112 0 -156 -59.5t-73 -172.5l-140 -524q-41 -167 -77.5 -281t-94.5 -198q-150 -222 -448 -222q-127 0 -231.5 45.5t-165 138t-60.5 222.5 q0 56 19 148.5t61 254t64 240t45 160.5q28 103 28 147q0 53 -36 77t-124 24l21 67h567l-20 -67q-115 0 -159.5 -58t-68.5 -174q-9 -41 -39.5 -149.5t-71.5 -262.5t-65 -261t-24 -158q0 -89 38.5 -156t108 -102t158.5 -35q108 0 186.5 47t132.5 129q31 49 50 96t36.5 102.5 t34 119t27.5 106.5l133 508q8 30 13.5 50.5t11.5 45.5t6 47q0 53 -32.5 79t-119.5 26z"/>
<glyph glyph-name="Ucircumflex" horiz-adv-x="1468" unicode="Û" d="M1100 1851l-271 -252l-53 56l268 305q7 7 23 24t31.5 26t34.5 9q61 0 88 -133l63 -256l-76 -31zM1217 1499h466l-18 -67q-112 0 -156 -59.5t-73 -172.5l-140 -524q-41 -167 -77.5 -281t-94.5 -198q-150 -222 -448 -222q-127 0 -231.5 45.5t-165 138t-60.5 222.5 q0 56 19 148.5t61 254t64 240t45 160.5q28 103 28 147q0 53 -36 77t-124 24l21 67h567l-20 -67q-115 0 -159.5 -58t-68.5 -174q-9 -41 -39.5 -149.5t-71.5 -262.5t-65 -261t-24 -158q0 -89 38.5 -156t108 -102t158.5 -35q108 0 186.5 47t132.5 129q31 49 50 96t36.5 102.5 t34 119t27.5 106.5l133 508q8 30 13.5 50.5t11.5 45.5t6 47q0 53 -32.5 79t-119.5 26z"/>
<glyph glyph-name="Udieresis" horiz-adv-x="1468" unicode="Ü" d="M1141 1810q0 48 33.5 80.5t78.5 32.5q46 0 78.5 -32.5t32.5 -80.5q0 -46 -33 -80t-78 -34q-44 0 -78 34t-34 80zM729 1810q0 48 31.5 80.5t79.5 32.5q47 0 79.5 -32.5t32.5 -80.5q0 -46 -33 -80t-79 -34q-47 0 -79 33.5t-32 80.5zM1217 1499h466l-18 -67 q-112 0 -156 -59.5t-73 -172.5l-140 -524q-41 -167 -77.5 -281t-94.5 -198q-150 -222 -448 -222q-127 0 -231.5 45.5t-165 138t-60.5 222.5q0 56 19 148.5t61 254t64 240t45 160.5q28 103 28 147q0 53 -36 77t-124 24l21 67h567l-20 -67q-115 0 -159.5 -58t-68.5 -174 q-9 -41 -39.5 -149.5t-71.5 -262.5t-65 -261t-24 -158q0 -89 38.5 -156t108 -102t158.5 -35q108 0 186.5 47t132.5 129q31 49 50 96t36.5 102.5t34 119t27.5 106.5l133 508q8 30 13.5 50.5t11.5 45.5t6 47q0 53 -32.5 79t-119.5 26z"/>
<glyph glyph-name="germandbls" horiz-adv-x="1075" unicode="ß" d="M-80 68q64 0 94 11.5t45 39.5t33 90l223 848q26 100 74 203t141 183t230 81q94 0 171 -32.5t93 -111.5q8 -56 8 -84q0 -65 -23.5 -113.5t-65 -91t-96 -86.5t-87.5 -77q-7 -7 -17 -35q4 -18 11.5 -32t13.5 -25l168 -383q29 -65 29 -146q0 -91 -45 -165.5t-123.5 -118 t-167.5 -43.5q-98 0 -177 51.5t-79 148.5q0 49 31 84t75 35q49 0 66 -36.5t26 -102.5q0 -21 -4 -31q5 -24 14.5 -38.5t24 -20.5t41.5 -11q78 11 119 48.5t45 111.5q0 34 -24 103.5t-55 141t-72.5 160t-75.5 156.5q-19 38 -29 80q34 65 129 153t141.5 150.5t46.5 163.5 q0 54 -28 89.5t-80 35.5q-107 0 -163.5 -100t-96.5 -248l-295 -1104h-309z"/>
<glyph glyph-name="agrave" d="M813 1124l-289 224q-40 32 -63.5 56.5t-28.5 51.5q0 32 20 56t52 24q43 0 71.5 -29t77.5 -92l195 -252zM244 328q-17 -82 -21 -127q4 -8 4 -25q8 -39 32.5 -66t64.5 -30q113 20 184 119t147 262q56 118 84.5 212t28.5 150q-3 55 -31.5 82t-68.5 27q-87 0 -164 -68 q-66 -62 -121 -160t-90.5 -199.5t-48.5 -176.5zM608 244q-62 -141 -153.5 -205t-190.5 -64q-110 10 -166.5 89.5t-56.5 203.5q3 112 37 215.5t91.5 197t118 158.5t120.5 105q52 40 113 60t126 20q136 0 176 -117l29 97h180l-227 -648q-9 -27 -25 -93.5t-32 -98.5 q6 -15 8.5 -18.5t7 -7t12.5 -9.5q43 11 80.5 49t66.5 85t58 102l55 -37q-80 -133 -140 -214t-112 -110q-42 -24 -92 -24q-36 0 -58.5 16t-33 38.5t-25.5 65.5q7 67 37 140z" unicode="à"/>
<glyph glyph-name="aacute" d="M596 1124l-37 39l205 256q10 14 35.5 46.5t49.5 51.5t50 19q35 0 55.5 -19.5t20.5 -52.5q0 -31 -22.5 -57.5t-61.5 -54.5zM244 328q-17 -82 -21 -127q4 -8 4 -25q8 -39 32.5 -66t64.5 -30q113 20 184 119t147 262q56 118 84.5 212t28.5 150q-3 55 -31.5 82t-68.5 27 q-87 0 -164 -68q-66 -62 -121 -160t-90.5 -199.5t-48.5 -176.5zM608 244q-62 -141 -153.5 -205t-190.5 -64q-110 10 -166.5 89.5t-56.5 203.5q3 112 37 215.5t91.5 197t118 158.5t120.5 105q52 40 113 60t126 20q136 0 176 -117l29 97h180l-227 -648q-9 -27 -25 -93.5 t-32 -98.5q6 -15 8.5 -18.5t7 -7t12.5 -9.5q43 11 80.5 49t66.5 85t58 102l55 -37q-80 -133 -140 -214t-112 -110q-42 -24 -92 -24q-36 0 -58.5 16t-33 38.5t-25.5 65.5q7 67 37 140z" unicode="á"/>
<glyph glyph-name="acircumflex" d="M799 1376l-271 -252l-53 56l268 305q7 7 23 24t31.5 26t33.5 9q26 0 44.5 -21.5t28 -49t16.5 -62.5l63 -256l-76 -31zM244 328q-17 -82 -21 -127q4 -8 4 -25q8 -39 32.5 -66t64.5 -30q113 20 184 119t147 262q56 118 84.5 212t28.5 150q-3 55 -31.5 82t-68.5 27 q-87 0 -164 -68q-66 -62 -121 -160t-90.5 -199.5t-48.5 -176.5zM608 244q-62 -141 -153.5 -205t-190.5 -64q-110 10 -166.5 89.5t-56.5 203.5q3 112 37 215.5t91.5 197t118 158.5t120.5 105q52 40 113 60t126 20q136 0 176 -117l29 97h180l-227 -648q-9 -27 -25 -93.5 t-32 -98.5q6 -15 8.5 -18.5t7 -7t12.5 -9.5q43 11 80.5 49t66.5 85t58 102l55 -37q-80 -133 -140 -214t-112 -110q-42 -24 -92 -24q-36 0 -58.5 16t-33 38.5t-25.5 65.5q7 67 37 140z" unicode="â"/>
<glyph glyph-name="atilde" d="M369 1225q24 32 53.5 70.5t62 71t69 53t75.5 20.5q45 0 88 -15.5t106.5 -43.5t94.5 -38q4 -2 16 -4t18 -4q34 3 67 26.5t85 78.5l61 -47q-58 -85 -120.5 -146t-135.5 -71q-36 5 -81.5 25t-86 39t-78.5 31.5t-75 12.5q-32 0 -67 -23.5t-89 -84.5zM244 328 q-17 -82 -21 -127q4 -8 4 -25q8 -39 32.5 -66t64.5 -30q113 20 184 119t147 262q56 118 84.5 212t28.5 150q-3 55 -31.5 82t-68.5 27q-87 0 -164 -68q-66 -62 -121 -160t-90.5 -199.5t-48.5 -176.5zM608 244q-62 -141 -153.5 -205t-190.5 -64q-110 10 -166.5 89.5 t-56.5 203.5q3 112 37 215.5t91.5 197t118 158.5t120.5 105q52 40 113 60t126 20q136 0 176 -117l29 97h180l-227 -648q-9 -27 -25 -93.5t-32 -98.5q6 -15 8.5 -18.5t7 -7t12.5 -9.5q43 11 80.5 49t66.5 85t58 102l55 -37q-80 -133 -140 -214t-112 -110q-42 -24 -92 -24 q-36 0 -58.5 16t-33 38.5t-25.5 65.5q7 67 37 140z" unicode="ã"/>
<glyph glyph-name="adieresis" d="M868 1335q0 49 33 81t80 32q44 0 77.5 -32.5t33.5 -80.5q0 -46 -34 -80t-77 -34q-46 0 -79.5 33.5t-33.5 80.5zM457 1335q0 48 31.5 80.5t78.5 32.5q46 0 79.5 -32.5t33.5 -80.5q0 -46 -34 -80t-79 -34q-46 0 -78 33.5t-32 80.5zM244 328q-17 -82 -21 -127q4 -8 4 -25 q8 -39 32.5 -66t64.5 -30q113 20 184 119t147 262q56 118 84.5 212t28.5 150q-3 55 -31.5 82t-68.5 27q-87 0 -164 -68q-66 -62 -121 -160t-90.5 -199.5t-48.5 -176.5zM608 244q-62 -141 -153.5 -205t-190.5 -64q-110 10 -166.5 89.5t-56.5 203.5q3 112 37 215.5t91.5 197 t118 158.5t120.5 105q52 40 113 60t126 20q136 0 176 -117l29 97h180l-227 -648q-9 -27 -25 -93.5t-32 -98.5q6 -15 8.5 -18.5t7 -7t12.5 -9.5q43 11 80.5 49t66.5 85t58 102l55 -37q-80 -133 -140 -214t-112 -110q-42 -24 -92 -24q-36 0 -58.5 16t-33 38.5t-25.5 65.5 q7 67 37 140z" unicode="ä"/>
<glyph glyph-name="aring" d="M672 1352q0 -44 30.5 -74.5t73.5 -30.5q46 0 76.5 30.5t30.5 74.5t-31 74t-76 30q-42 0 -73 -30t-31 -74zM600 1352q0 46 24 88t64.5 67t87.5 25q48 0 89 -25t65 -67t24 -88q0 -49 -24 -91t-65.5 -66t-88.5 -24q-46 0 -87 24t-65 66t-24 91zM244 328q-17 -82 -21 -127 q4 -8 4 -25q8 -39 32.5 -66t64.5 -30q113 20 184 119t147 262q56 118 84.5 212t28.5 150q-3 55 -31.5 82t-68.5 27q-87 0 -164 -68q-66 -62 -121 -160t-90.5 -199.5t-48.5 -176.5zM608 244q-62 -141 -153.5 -205t-190.5 -64q-110 10 -166.5 89.5t-56.5 203.5q3 112 37 215.5 t91.5 197t118 158.5t120.5 105q52 40 113 60t126 20q136 0 176 -117l29 97h180l-227 -648q-9 -27 -25 -93.5t-32 -98.5q6 -15 8.5 -18.5t7 -7t12.5 -9.5q43 11 80.5 49t66.5 85t58 102l55 -37q-80 -133 -140 -214t-112 -110q-42 -24 -92 -24q-36 0 -58.5 16t-33 38.5 t-25.5 65.5q7 67 37 140z" unicode="å"/>
<glyph glyph-name="ae" horiz-adv-x="1423" unicode="æ" d="M768 809l43 195h170l-82 -216l4 -4q34 62 78.5 115t102 87t120.5 34q74 0 127 -46t62 -110q0 -112 -77.5 -212.5t-206 -179.5t-290.5 -136q-4 -27 -4 -76q0 -91 34.5 -140t94.5 -52q37 2 80 20t82.5 47t81 73.5t84.5 106.5l55 -30q-78 -129 -183.5 -217t-232.5 -88 q-100 0 -179.5 62.5t-98.5 176.5q-85 -128 -176 -186t-176 -58q-99 0 -156 73t-62 192q0 192 106 397t263 315q98 72 189 72q143 0 143 -213zM831 412q162 66 291 178t129 254q0 88 -80 88q-43 -6 -98.5 -59.5t-111.5 -141.5q-39 -60 -72.5 -147t-57.5 -172zM612 920 q-77 0 -200 -172q-56 -83 -93.5 -167t-60 -173.5t-27.5 -184.5q8 -139 76 -151q59 0 129 63t128 156t83 170q24 63 36.5 134t12.5 140q0 88 -23.5 136.5t-60.5 48.5z"/>
<glyph glyph-name="ccedilla" horiz-adv-x="844" unicode="ç" d="M391 -16l-55 -97q64 0 107.5 -35.5t43.5 -99.5q0 -59 -35.5 -99t-91 -60.5t-108.5 -20.5q-63 0 -116.5 24.5t-67.5 63.5q0 6 -9 33q6 55 76 55q22 -5 33.5 -24.5t20 -48t19 -42.5t36.5 -14q35 0 64 20.5t47 53t18 67.5q0 34 -21.5 57.5t-66.5 26.5q-8 -2 -30 -5t-32 -7 l88 148q-116 13 -184 113t-68 239q6 78 37 168.5t81.5 176.5t119.5 163q50 54 106 96t113.5 65t116.5 23q52 0 97 -27.5t71 -73t26 -96.5q0 -53 -25.5 -90t-76.5 -37q-46 0 -67 39t-21 70q3 20 6 63q0 22 -14 41t-41 19q-58 0 -148 -135q-89 -116 -140.5 -273.5 t-51.5 -304.5q0 -71 30 -109.5t87 -41.5q12 4 30 4q125 27 289 213l55 -45q-84 -107 -178 -175.5t-170 -80.5z"/>
<glyph glyph-name="egrave" horiz-adv-x="868" unicode="è" d="M725 1124l-289 224q-40 32 -63.5 56.5t-28.5 51.5q0 32 20 56t52 24q43 0 71.5 -29t77.5 -92l195 -252zM299 344q-6 -33 -6 -96q0 -83 26.5 -127.5t96.5 -44.5q63 0 155 59.5t177 183.5l53 -30q-61 -101 -135 -170.5t-147 -102t-134 -32.5q-129 0 -201 87.5t-80 235.5 q0 55 15.5 124.5t45 143.5t69.5 140.5t90 120.5q93 105 173.5 148.5t170.5 43.5q83 0 138 -43t58 -137q0 -74 -39 -141t-108 -132q-73 -67 -190 -130t-228 -101zM307 420q66 19 167 85.5t176.5 158t76.5 184.5q0 32 -14 60t-54 28q-49 -3 -102 -45.5t-104 -110.5 q-44 -56 -87 -161t-59 -199z"/>
<glyph glyph-name="eacute" horiz-adv-x="868" unicode="é" d="M471 1124l-35 39l205 256q10 14 35.5 46.5t49.5 51.5t50 19q34 0 55 -19.5t21 -52.5q0 -31 -22.5 -57.5t-61.5 -54.5zM272 344q-8 -33 -8 -96q0 -83 27 -127.5t96 -44.5q64 0 155 58t179 185l51 -30q-61 -101 -135 -170.5t-147 -102t-134 -32.5q-129 0 -201.5 88 t-78.5 235q0 55 15.5 124.5t44 141t70 140.5t91.5 123q92 106 172 149t172 43q82 0 137 -43.5t58 -136.5q0 -132 -148 -273q-74 -68 -189 -130.5t-227 -100.5zM281 420q66 20 166 86t176 158t77 184q0 30 -14.5 59t-52.5 29q-51 -3 -104 -45t-105 -111q-46 -64 -88 -165.5 t-55 -194.5z"/>
<glyph glyph-name="ecircumflex" horiz-adv-x="868" unicode="ê" d="M684 1380l-272 -252l-52 56l269 305q22 27 41.5 43t46.5 16q64 0 88 -133l63 -256l-75 -31zM272 344q-8 -33 -8 -96q0 -83 27 -127.5t96 -44.5q64 0 155 58t179 185l51 -30q-61 -101 -135 -170.5t-147 -102t-134 -32.5q-129 0 -201.5 88t-78.5 235q0 55 15.5 124.5 t44 141t70 140.5t91.5 123q92 106 172 149t172 43q82 0 137 -43.5t58 -136.5q0 -132 -148 -273q-74 -68 -189 -130.5t-227 -100.5zM281 420q66 20 166 86t176 158t77 184q0 30 -14.5 59t-52.5 29q-51 -3 -104 -45t-105 -111q-46 -64 -88 -165.5t-55 -194.5z"/>
<glyph glyph-name="edieresis" horiz-adv-x="868" unicode="ë" d="M688 1339q0 48 33.5 80.5t79.5 32.5q45 0 77.5 -32.5t32.5 -80.5q0 -46 -33 -80t-77 -34q-45 0 -79 34t-34 80zM276 1339q0 49 32 81t79 32q46 0 79.5 -32.5t33.5 -80.5q0 -46 -34 -80t-79 -34q-46 0 -78.5 33.5t-32.5 80.5zM276 340q-8 -33 -8 -96q0 -83 27 -127.5 t96 -44.5q64 0 155 58t179 185l51 -30q-61 -101 -135 -170.5t-147 -102t-134 -32.5q-129 0 -201.5 88t-78.5 235q0 55 15.5 124.5t45 143.5t69.5 140.5t89 119.5q92 104 173 148.5t171 44.5q83 0 138.5 -43t58.5 -137q0 -132 -148 -273q-70 -64 -186.5 -127t-229.5 -104z M285 416q66 20 166 86.5t175.5 156.5t78.5 185q0 30 -14.5 59t-53.5 29q-51 -3 -104 -45t-105 -111q-47 -66 -88.5 -166.5t-54.5 -193.5z"/>
<glyph glyph-name="igrave" horiz-adv-x="641" unicode="ì" d="M485 1120l-288 223q-32 25 -46 38t-28.5 32.5t-18.5 38.5q0 32 20 56t52 24q42 0 71.5 -29t78.5 -92l194 -252zM76 696q26 42 48.5 79t47.5 71t55 69q100 109 176 109q49 0 77 -35t28 -90q0 -41 -16 -119q-12 -44 -46 -148.5t-75.5 -228.5t-73.5 -210q-12 -43 -12 -62 q0 -27 30 -27q31 9 76 64q66 87 113 172l59 -37q-34 -56 -68 -110.5t-72 -101t-86.5 -79t-105.5 -32.5q-54 0 -86 40.5t-32 100.5q5 49 39 155l151 449q25 81 25 94q0 29 -9 37q0 12 -20 12h-6q-49 -22 -158 -213z"/>
<glyph glyph-name="iacute" horiz-adv-x="641" unicode="í" d="M360 1124l-36 39l204 256q46 61 73 89t63 28q34 0 54.5 -19t20.5 -53q0 -31 -22.5 -57.5t-61.5 -54.5zM76 696q26 42 48.5 79t47.5 71t55 69q100 109 176 109q49 0 77 -35t28 -90q0 -41 -16 -119q-12 -44 -46 -148.5t-75.5 -228.5t-73.5 -210q-12 -43 -12 -62 q0 -27 30 -27q31 9 76 64q66 87 113 172l59 -37q-34 -56 -68 -110.5t-72 -101t-86.5 -79t-105.5 -32.5q-54 0 -86 40.5t-32 100.5q5 49 39 155l151 449q25 81 25 94q0 29 -9 37q0 12 -20 12h-6q-49 -22 -158 -213z"/>
<glyph glyph-name="icircumflex" horiz-adv-x="641" unicode="î" d="M479 1376l-270 -252l-53 56l268 305q29 32 45.5 45.5t42.5 13.5q64 0 88 -133l64 -256l-76 -31zM76 696q26 42 48.5 79t47.5 71t55 69q100 109 176 109q49 0 77 -35t28 -90q0 -41 -16 -119q-12 -44 -46 -148.5t-75.5 -228.5t-73.5 -210q-12 -43 -12 -62q0 -27 30 -27 q31 9 76 64q66 87 113 172l59 -37q-34 -56 -68 -110.5t-72 -101t-86.5 -79t-105.5 -32.5q-54 0 -86 40.5t-32 100.5q5 49 39 155l151 449q25 81 25 94q0 29 -9 37q0 12 -20 12h-6q-49 -22 -158 -213z"/>
<glyph glyph-name="idieresis" horiz-adv-x="641" unicode="ï" d="M637 1335q0 48 33.5 80.5t79.5 32.5q45 0 77.5 -32.5t32.5 -80.5q0 -46 -33 -80t-77 -34q-45 0 -79 34t-34 80zM225 1335q0 48 31.5 80.5t79.5 32.5q47 0 80 -32t33 -81q0 -31 -16 -57.5t-42 -41.5t-55 -15q-47 0 -79 33.5t-32 80.5zM76 696q26 42 48.5 79t47.5 71t55 69 q100 109 176 109q49 0 77 -35t28 -90q0 -41 -16 -119q-12 -44 -46 -148.5t-75.5 -228.5t-73.5 -210q-12 -43 -12 -62q0 -27 30 -27q31 9 76 64q66 87 113 172l59 -37q-34 -56 -68 -110.5t-72 -101t-86.5 -79t-105.5 -32.5q-54 0 -86 40.5t-32 100.5q5 49 39 155l151 449 q25 81 25 94q0 29 -9 37q0 12 -20 12h-6q-49 -22 -158 -213z"/>
<glyph glyph-name="ntilde" horiz-adv-x="1149" unicode="ñ" d="M395 1229q10 13 47 61t69.5 80.5t69 53t74.5 20.5q46 0 90 -15.5t107.5 -44t91.5 -36.5q9 -4 19 -5.5t16 -3.5q34 3 67.5 27t83.5 78l62 -47q-65 -92 -123.5 -149t-132.5 -68q-36 5 -63.5 16t-86 39.5t-96 40.5t-76.5 12q-32 0 -66.5 -24t-88.5 -84zM348 328 q39 67 85 141.5t94 150.5t94 148q48 83 78 129t78.5 86.5t107.5 40.5q38 0 66 -20.5t42.5 -54.5t14.5 -77q0 -61 -21.5 -141t-58.5 -186l-113 -330q0 -2 -4.5 -16t-7.5 -22.5t-5.5 -19t-4.5 -22.5q0 -29 22 -35q4 5 21.5 12t23.5 13q79 77 152 207l59 -33 q-36 -56 -88 -135.5t-111.5 -132.5t-132.5 -56q-47 0 -79 34t-35 100q7 65 26 135q21 56 64 183t63 187l33 99q25 67 25 102q0 53 -35 53q-17 0 -25 -4q-23 -16 -56.5 -66.5t-87 -140.5t-108.5 -178l-293 -479h-151l235 680q11 23 22 67t11 64q0 61 -29 61q-28 0 -59 -49 q-69 -87 -84 -118l-51 -76l-57 30q111 187 189 276t151 89q53 0 82.5 -49t29.5 -107q-3 -93 -50 -222.5t-126 -313.5z"/>
<glyph glyph-name="ograve" horiz-adv-x="969" unicode="ò" d="M748 1128l-289 224q-3 3 -21 17.5t-32.5 29t-25 30.5t-13.5 31q0 32 19 56t52 24q42 0 71.5 -29t78.5 -92l194 -252zM227 260q0 -15 -8 -59q6 -135 129 -158q81 8 134.5 71t105.5 162q60 121 98.5 257t38.5 260q0 40 -13.5 77.5t-40.5 61.5t-67 24q-63 0 -129 -63 q-35 -38 -69 -91.5t-69.5 -137t-63 -181t-46.5 -223.5zM55 365q26 146 88 271t137 208t148 129q86 51 180 51q80 0 146 -40.5t104.5 -116.5t38.5 -179q0 -130 -51.5 -264.5t-143.5 -243.5t-206 -164q-78 -36 -156 -36q-120 0 -205 91t-88 226q8 44 8 68z"/>
<glyph glyph-name="oacute" horiz-adv-x="969" unicode="ó" d="M528 1124l-36 39l204 256q10 14 35.5 46.5t49.5 51.5t50 19q35 0 55.5 -19t20.5 -53q0 -31 -22.5 -57.5t-61.5 -54.5zM227 260q0 -15 -8 -59q6 -135 129 -158q81 8 134.5 71t105.5 162q60 121 98.5 257t38.5 260q0 40 -13.5 77.5t-40.5 61.5t-67 24q-63 0 -129 -63 q-35 -38 -69 -91.5t-69.5 -137t-63 -181t-46.5 -223.5zM55 365q26 146 88 271t137 208t148 129q86 51 180 51q80 0 146 -40.5t104.5 -116.5t38.5 -179q0 -130 -51.5 -264.5t-143.5 -243.5t-206 -164q-78 -36 -156 -36q-120 0 -205 91t-88 226q8 44 8 68z"/>
<glyph glyph-name="ocircumflex" horiz-adv-x="969" unicode="ô" d="M731 1376l-270 -252l-53 56l268 305q29 32 45.5 45.5t42.5 13.5q64 0 88 -133l63 -256l-75 -31zM227 260q0 -15 -8 -59q6 -135 129 -158q81 8 134.5 71t105.5 162q60 121 98.5 257t38.5 260q0 40 -13.5 77.5t-40.5 61.5t-67 24q-63 0 -129 -63q-35 -38 -69 -91.5 t-69.5 -137t-63 -181t-46.5 -223.5zM55 365q26 146 88 271t137 208t148 129q86 51 180 51q80 0 146 -40.5t104.5 -116.5t38.5 -179q0 -130 -51.5 -264.5t-143.5 -243.5t-206 -164q-78 -36 -156 -36q-120 0 -205 91t-88 226q8 44 8 68z"/>
<glyph glyph-name="otilde" horiz-adv-x="969" unicode="õ" d="M299 1225q24 32 53.5 70.5t62 71t69 53t75.5 20.5q45 0 88.5 -15.5t108.5 -44t92 -37.5q4 -2 17 -4t18 -4q34 3 67.5 27t83.5 78l62 -47q-65 -92 -123.5 -149t-132.5 -68q-36 5 -63.5 16t-86 39.5t-96 40.5t-76.5 12q-32 0 -67 -23.5t-89 -84.5zM227 260q0 -15 -8 -59 q6 -135 129 -158q81 8 134.5 71t105.5 162q60 121 98.5 257t38.5 260q0 40 -13.5 77.5t-40.5 61.5t-67 24q-63 0 -129 -63q-35 -38 -69 -91.5t-69.5 -137t-63 -181t-46.5 -223.5zM55 365q26 146 88 271t137 208t148 129q86 51 180 51q80 0 146 -40.5t104.5 -116.5t38.5 -179 q0 -130 -51.5 -264.5t-143.5 -243.5t-206 -164q-78 -36 -156 -36q-120 0 -205 91t-88 226q8 44 8 68z"/>
<glyph glyph-name="odieresis" horiz-adv-x="969" unicode="ö" d="M797 1335q0 48 33.5 80.5t78.5 32.5q46 0 78.5 -32.5t32.5 -80.5q0 -46 -33 -80t-78 -34q-44 0 -78 34t-34 80zM385 1335q0 48 31.5 80.5t79.5 32.5q47 0 79.5 -32.5t32.5 -80.5q0 -46 -33 -80t-79 -34q-47 0 -79 33.5t-32 80.5zM227 260q0 -15 -8 -59q6 -135 129 -158 q81 8 134.5 71t105.5 162q60 121 98.5 257t38.5 260q0 40 -13.5 77.5t-40.5 61.5t-67 24q-63 0 -129 -63q-35 -38 -69 -91.5t-69.5 -137t-63 -181t-46.5 -223.5zM55 365q26 146 88 271t137 208t148 129q86 51 180 51q80 0 146 -40.5t104.5 -116.5t38.5 -179 q0 -130 -51.5 -264.5t-143.5 -243.5t-206 -164q-78 -36 -156 -36q-120 0 -205 91t-88 226q8 44 8 68z"/>
<glyph glyph-name="oslash" horiz-adv-x="969" unicode="ø" d="M219 164q3 -52 36.5 -85t80.5 -36q80 7 135 70q51 54 100.5 152t87 217t58.5 245zM223 285l494 559q-9 55 -41.5 83.5t-79.5 28.5q-58 0 -113 -49t-105.5 -145t-90.5 -220t-64 -257zM88 131q-31 76 -37 162q3 97 39 209.5t94 214.5q54 90 121.5 158.5t144 108.5t150.5 40 q114 0 201 -88l96 108l55 -49l-104 -118q37 -83 37 -189q0 -108 -39.5 -224.5t-110.5 -219.5q-87 -125 -194 -194.5t-213 -69.5q-113 0 -197 88l-90 -101l-57 49z"/>
<glyph glyph-name="ugrave" horiz-adv-x="1153" unicode="ù" d="M844 1124l-289 224q-3 3 -21 17.5t-32.5 29t-25 30.5t-13.5 31q0 32 19 56t53 24q43 0 71.5 -29t77.5 -92l195 -252zM793 655q-42 -69 -67.5 -111t-60.5 -100t-51.5 -85t-72.5 -123q-77 -121 -140.5 -188.5t-152.5 -67.5q-57 0 -94 42.5t-37 106.5q0 42 16.5 102 t40 124.5t41.5 113.5l109 307l10 38l10 38q0 20 -25 20q-22 0 -43 -28q-41 -30 -71 -71.5t-76 -117.5l-61 45q65 96 109 156t105.5 114t120.5 54q53 -3 85 -47.5t32 -99.5q0 -47 -24 -121q-22 -73 -97 -271t-75 -200q-38 -108 -43 -142q7 -21 18 -30q2 0 25 -9q34 11 45 21 q26 25 64.5 82t96.5 154t95 159l290 484h152q-23 -71 -61.5 -178.5t-89.5 -251.5t-81.5 -241t-54.5 -194q7 -26 25 -30q6 0 10 -5q30 6 66 52q21 26 50.5 68.5t29.5 47.5l51 80l59 -37q-205 -340 -346 -340q-54 0 -81.5 41.5t-27.5 100.5q5 52 22 112.5t44.5 135.5t59 151 t55.5 135z"/>
<glyph glyph-name="uacute" horiz-adv-x="1153" unicode="ú" d="M616 1124l-36 39l204 256q46 61 73 89t63 28q34 0 54.5 -19t20.5 -53q0 -31 -22.5 -57.5t-61.5 -54.5zM793 655q-42 -69 -67.5 -111t-60.5 -100t-51.5 -85t-72.5 -123q-77 -121 -140.5 -188.5t-152.5 -67.5q-57 0 -94 42.5t-37 106.5q0 42 16.5 102t40 124.5t41.5 113.5 l109 307l10 38l10 38q0 20 -25 20q-22 0 -43 -28q-41 -30 -71 -71.5t-76 -117.5l-61 45q65 96 109 156t105.5 114t120.5 54q53 -3 85 -47.5t32 -99.5q0 -47 -24 -121q-22 -73 -97 -271t-75 -200q-38 -108 -43 -142q7 -21 18 -30q2 0 25 -9q34 11 45 21q26 25 64.5 82 t96.5 154t95 159l290 484h152q-23 -71 -61.5 -178.5t-89.5 -251.5t-81.5 -241t-54.5 -194q7 -26 25 -30q6 0 10 -5q30 6 66 52q21 26 50.5 68.5t29.5 47.5l51 80l59 -37q-205 -340 -346 -340q-54 0 -81.5 41.5t-27.5 100.5q5 52 22 112.5t44.5 135.5t59 151t55.5 135z"/>
<glyph glyph-name="ucircumflex" horiz-adv-x="1153" unicode="û" d="M782 1376l-270 -252l-53 56l268 305q10 11 25 26.5t29.5 24t33.5 8.5q64 0 88 -133l64 -256l-76 -31zM793 655q-42 -69 -67.5 -111t-60.5 -100t-51.5 -85t-72.5 -123q-77 -121 -140.5 -188.5t-152.5 -67.5q-57 0 -94 42.5t-37 106.5q0 42 16.5 102t40 124.5t41.5 113.5 l109 307l10 38l10 38q0 20 -25 20q-22 0 -43 -28q-41 -30 -71 -71.5t-76 -117.5l-61 45q65 96 109 156t105.5 114t120.5 54q53 -3 85 -47.5t32 -99.5q0 -47 -24 -121q-22 -73 -97 -271t-75 -200q-38 -108 -43 -142q7 -21 18 -30q2 0 25 -9q34 11 45 21q26 25 64.5 82 t96.5 154t95 159l290 484h152q-23 -71 -61.5 -178.5t-89.5 -251.5t-81.5 -241t-54.5 -194q7 -26 25 -30q6 0 10 -5q30 6 66 52q21 26 50.5 68.5t29.5 47.5l51 80l59 -37q-205 -340 -346 -340q-54 0 -81.5 41.5t-27.5 100.5q5 52 22 112.5t44.5 135.5t59 151t55.5 135z"/>
<glyph glyph-name="udieresis" horiz-adv-x="1153" unicode="ü" d="M893 1335q0 48 33.5 80.5t79.5 32.5q45 0 77.5 -32.5t32.5 -80.5q0 -46 -33 -80t-77 -34q-45 0 -79 34t-34 80zM481 1335q0 48 31.5 80.5t79.5 32.5q47 0 80 -32t33 -81q0 -31 -16 -57.5t-42 -41.5t-55 -15q-47 0 -79 33.5t-32 80.5zM793 655q-42 -69 -67.5 -111 t-60.5 -100t-51.5 -85t-72.5 -123q-77 -121 -140.5 -188.5t-152.5 -67.5q-57 0 -94 42.5t-37 106.5q0 42 16.5 102t40 124.5t41.5 113.5l109 307l10 38l10 38q0 20 -25 20q-22 0 -43 -28q-41 -30 -71 -71.5t-76 -117.5l-61 45q65 96 109 156t105.5 114t120.5 54 q53 -3 85 -47.5t32 -99.5q0 -47 -24 -121q-22 -73 -97 -271t-75 -200q-38 -108 -43 -142q7 -21 18 -30q2 0 25 -9q34 11 45 21q26 25 64.5 82t96.5 154t95 159l290 484h152q-23 -71 -61.5 -178.5t-89.5 -251.5t-81.5 -241t-54.5 -194q7 -26 25 -30q6 0 10 -5q30 6 66 52 q21 26 50.5 68.5t29.5 47.5l51 80l59 -37q-205 -340 -346 -340q-54 0 -81.5 41.5t-27.5 100.5q5 52 22 112.5t44.5 135.5t59 151t55.5 135z"/>
<glyph glyph-name="ydieresis" horiz-adv-x="815" unicode="ÿ" d="M600 1331q0 48 33.5 80.5t79.5 32.5q45 0 77.5 -32.5t32.5 -80.5q0 -46 -33 -80t-77 -34q-45 0 -79 34t-34 80zM188 1331q0 49 32 81t79 32t80 -32t33 -81q0 -31 -16 -57.5t-42 -41.5t-55 -15q-46 0 -78.5 33.5t-32.5 80.5zM365 29l-134 739q-1 7 -5 29.5t-10.5 36.5 t-18.5 14q-24 0 -41 -39q-6 -12 -26.5 -67.5t-33.5 -86.5l-63 21q84 224 160 305q41 43 88 43q82 0 110 -168l109 -612q7 15 51.5 95.5t71.5 136t44 112t17 112.5q0 41 -25.5 111.5t-25.5 103.5q0 47 31 78t88 31q39 -9 61 -38.5t31 -92.5q0 -122 -54 -265.5t-147 -324.5 q-110 -214 -211 -348.5t-192 -218.5q-151 -127 -277 -127q-55 0 -91 26.5t-36 71.5t38.5 75t88.5 30q31 0 75 -10.5t71 -10.5q45 3 90.5 41t107.5 121z"/>
<glyph glyph-name="Gbreve" horiz-adv-x="1477" unicode="Ğ" d="M707 1927l67 29q44 -76 112 -113.5t152 -40.5q94 3 188.5 45t164.5 109l51 -45q-54 -75 -124.5 -131t-148.5 -86t-151 -31q-113 3 -196 69t-115 195zM1327 1083q-24 108 -73 187t-119 124t-148 46q-80 0 -157 -37.5t-146.5 -109.5t-128.5 -173q-56 -95 -100 -210.5 t-69 -231.5t-34 -238q6 -121 43 -204q42 -86 115.5 -130t157.5 -47q104 4 193 55t140.5 137.5t51.5 192.5q0 101 -164 101l18 67h570l-17 -67q-102 0 -158.5 -58.5t-80.5 -167.5l-80 -286q-25 4 -76 4q-73 0 -198.5 -29t-182.5 -33q-181 0 -303 76.5t-181 207.5t-61 294 q8 78 8 106q19 166 96.5 322t198 279.5t260 193.5t275.5 70q62 0 104.5 -7.5t91 -22t60.5 -17.5q12 -5 27 -11.5t27.5 -10t29.5 -3.5q54 0 92 47l10 -416h-92z"/>
<glyph glyph-name="gbreve" horiz-adv-x="928" unicode="ğ" d="M240 1456l67 29q44 -76 112 -113.5t152 -40.5q94 3 188.5 45t164.5 109l51 -45q-54 -75 -124.5 -131t-148.5 -86t-151 -31q-112 3 -195.5 70t-115.5 194zM289 537q0 -83 30 -127.5t80 -49.5q126 15 185 139t59 265q-1 87 -32.5 127.5t-82.5 40.5q-41 0 -100 -39 q-59 -49 -99 -155t-40 -201zM252 12q-125 -47 -178.5 -99.5t-53.5 -96.5q4 -63 88 -95t216 -32q104 3 177.5 41.5t73.5 97.5q0 45 -28.5 75.5t-97.5 53.5q-40 16 -112 33t-85 22zM109 51q-60 16 -94.5 34t-34.5 58q0 37 28 66q18 21 100 79.5t97 71.5q-81 63 -88 199 q5 113 59 221t148 176t208 68q106 0 193 -72q18 15 47 38.5t66.5 43t72.5 19.5q50 0 77.5 -29.5t27.5 -67.5q0 -35 -27 -59.5t-74 -24.5q-20 0 -43 10.5t-41 10.5q-13 0 -47 -21q27 -53 27 -141q0 -83 -29 -162.5t-82 -144t-127 -104.5t-161 -44q-68 9 -119 27 q-60 -37 -74 -76q8 -17 33 -26q39 -17 147 -45t177.5 -55.5t118 -80.5t48.5 -141q0 -73 -46 -136t-141 -102.5t-241 -43.5q-137 0 -240 28t-160.5 73.5t-66.5 96.5q0 51 27.5 97t87.5 87t146 72z"/>
<glyph glyph-name="Idotaccent" horiz-adv-x="739" unicode="İ" d="M559 1806q0 48 31.5 80.5t79.5 32.5q47 0 79.5 -32.5t32.5 -80.5q0 -46 -33 -80t-79 -34q-47 0 -79 33.5t-32 80.5zM209 299l235 885q27 87 27 139q0 58 -37.5 83.5t-130.5 25.5l16 67h580l-18 -67q-110 0 -151.5 -53.5t-78.5 -178.5l-231 -885q-28 -91 -33 -147 q3 -53 41 -76.5t127 -23.5l-14 -68h-582l21 68q112 0 155 57t74 174z"/>
<glyph glyph-name="dotlessi" horiz-adv-x="641" unicode="ı" d="M76 696q26 42 48.5 79t47.5 71t55 69q100 109 176 109q49 0 77 -35t28 -90q0 -41 -16 -119q-12 -44 -46 -148.5t-75.5 -228.5t-73.5 -210q-12 -43 -12 -62q0 -27 30 -27q31 9 76 64q66 87 113 172l59 -37q-34 -56 -68 -110.5t-72 -101t-86.5 -79t-105.5 -32.5 q-54 0 -86 40.5t-32 100.5q5 49 39 155l151 449q25 81 25 94q0 29 -9 37q0 12 -20 12h-6q-49 -22 -158 -213z"/>
<glyph glyph-name="OE" horiz-adv-x="2195" unicode="Œ" d="M1321 1499h887l45 -354l-88 -25q-42 115 -94 181.5t-129 98.5t-193 32q-123 0 -168.5 -62t-85.5 -211l-84 -323h82q90 0 150 14t107.5 60.5t74.5 133.5h92l-158 -587h-94q10 65 10 102q0 70 -30.5 109.5t-83 53t-125.5 13.5h-56l-100 -383q-7 -33 -19 -79.5t-14 -75.5 q3 -64 49 -96.5t160 -32.5q190 3 321.5 84t278.5 247l64 -34l-172 -365h-957q-52 0 -169.5 -12.5t-180.5 -12.5q-144 0 -257 77.5t-176.5 212t-64.5 294.5q11 178 74.5 348.5t178.5 312t271.5 223t340.5 81.5q78 0 150.5 -12.5t162.5 -12.5zM1092 428l176 651l8.5 42.5 t7 39.5t4.5 47q0 71 -39.5 123.5t-104 80.5t-136.5 28q-127 0 -238 -77t-194 -207t-136 -288q-78 -228 -84 -432q3 -168 77.5 -269t234.5 -108q208 0 298 104t126 265z"/>
<glyph glyph-name="oe" horiz-adv-x="1444" unicode="œ" d="M1296 311l52 -30q-79 -130 -186.5 -215.5t-237.5 -85.5q-80 0 -146 38.5t-106 116.5q-71 -71 -153 -115.5t-167 -44.5q-91 0 -157 44.5t-101 121t-35 162.5q0 74 23.5 158t69 171t104.5 161q53 68 115.5 120.5t130.5 81.5t135 29q176 0 252 -176q85 81 163.5 128.5 t168.5 47.5q55 0 98.5 -23.5t67.5 -66t24 -98.5q0 -42 -15 -87t-51 -96.5t-90 -97.5q-67 -61 -166 -115.5t-245 -107.5q-11 -47 -17 -105q0 -73 38.5 -114.5t95.5 -44.5q181 20 335 243zM856 408q169 69 299 196q121 124 121 236q0 39 -18.5 65.5t-57.5 26.5 q-44 0 -98.5 -43.5t-102.5 -116.5q-96 -150 -143 -364zM633 956q-78 0 -176 -133q-41 -57 -85.5 -142t-76.5 -170.5t-50 -168.5t-18 -149q0 -62 31.5 -106t89.5 -44q87 0 184 129q59 80 112.5 197t84.5 228t31 183t-31 124t-96 52z"/>
<glyph glyph-name="Scedilla" horiz-adv-x="1163" unicode="Ş" d="M629 -23l-51 -90q62 0 106.5 -35.5t44.5 -99.5q0 -59 -35.5 -99t-91 -60.5t-108.5 -20.5q-63 0 -116 24.5t-69 63.5q0 9 -8 33q6 55 76 55q22 -5 33.5 -24.5t20 -48.5t19.5 -42.5t35 -13.5q35 0 64 20.5t47 53.5t18 67t-21.5 57.5t-66.5 26.5q-9 -2 -30 -5t-31 -7l88 148 q-70 5 -108 20t-111 47.5t-101 32.5q-8 0 -24 -4q-41 -12 -62.5 -34t-33.5 -62h-33l12 460h88q34 -151 143.5 -253.5t260.5 -114.5q81 2 150.5 39.5t110 104t40.5 149.5q0 78 -31.5 133t-76 87.5t-131.5 80.5t-114 65q-73 49 -122.5 93t-82 106.5t-32.5 146.5q0 29 2 43 q8 107 66.5 199t156 148t207.5 57q53 0 81.5 -9t110.5 -37.5t130 -33.5q61 6 96 55l31 -420h-80q-36 144 -127.5 250.5t-225.5 106.5q-104 0 -183 -64.5t-85 -167.5q0 -51 18.5 -93t58 -80t89 -70t131.5 -80q93 -51 156.5 -108t101 -136.5t37.5 -183.5q-1 -133 -60.5 -238 t-160.5 -167t-217 -71z"/>
<glyph glyph-name="scedilla" horiz-adv-x="725" unicode="ş" d="M276 -20l-34 -93q64 0 107.5 -35.5t43.5 -99.5q0 -59 -35.5 -99t-91 -60.5t-108.5 -20.5q-63 0 -116 24.5t-69 63.5q0 9 -8 33q6 55 76 55q22 -5 33.5 -24.5t20 -48t19 -42.5t36.5 -14q35 0 64 20.5t47 53t18 67.5q0 34 -22 57.5t-67 26.5q-9 -2 -30 -5t-31 -7l86 152 q-98 14 -169.5 62t-78.5 122q0 55 28 88t68 33q37 0 67.5 -27t41.5 -78q29 -109 131 -116q158 26 158 176q-5 42 -32.5 77.5t-68.5 71t-88 76.5q-74 68 -115 128.5t-44 133.5q11 81 55.5 148.5t118 106t170.5 38.5q71 -6 126.5 -32.5t88.5 -68.5t33 -92q0 -45 -27.5 -69 t-65.5 -27q-24 8 -32 8q-35 13 -72.5 77.5t-55.5 86t-67 21.5q-55 0 -76.5 -35.5t-36.5 -104.5q1 -31 17 -61.5t32.5 -49.5t53 -52.5t69.5 -61.5q81 -62 129 -131t48 -168q-6 -84 -56.5 -150t-127.5 -100t-161 -34z"/>
<glyph glyph-name="florin" d="M549 872h-164l27 111h180q46 100 102 196t115 164q151 181 283 181q37 0 76 -17t63 -48t24 -70q0 -31 -22 -52t-57 -24q-22 4 -74 35.5t-86 31.5q-73 0 -139 -108q-45 -78 -109 -289h176l-29 -111h-172l-176 -485q-13 -37 -46 -134t-74 -189.5t-87 -163.5 q-71 -116 -145 -174t-174 -58q-72 6 -111 43t-39 88q5 29 28 50t56 22q16 -2 43 -15t49.5 -24.5t40 -18t35.5 -6.5q59 0 113 93q24 49 48.5 130t57 209t57 219.5t42.5 141.5z" unicode="ƒ"/>
<glyph glyph-name="circumflex" horiz-adv-x="811" unicode="ˆ" d="M651 1376l-270 -252l-53 56l268 305q29 32 45.5 45.5t42.5 13.5q64 0 88 -133l64 -256l-76 -31z"/>
<glyph glyph-name="breve" horiz-adv-x="1040" unicode="˘" d="M520 1456l68 29q43 -75 112 -113t152 -41q94 3 188.5 45.5t163.5 108.5l51 -45q-40 -57 -90 -103t-104.5 -77t-113.5 -48.5t-116 -19.5q-112 3 -195.5 70t-115.5 194z"/>
<glyph glyph-name="ring" horiz-adv-x="659" unicode="˚" d="M449 1352q0 -44 30.5 -74.5t73.5 -30.5q45 0 75.5 30.5t30.5 74.5t-31 74t-75 30q-42 0 -73 -30t-31 -74zM377 1352q0 46 24 88t64.5 67t87.5 25q48 0 89 -25t65 -67t24 -88q0 -49 -24 -91t-65.5 -66t-88.5 -24q-46 0 -87 24t-65 66t-24 91z"/>
<glyph glyph-name="tilde" horiz-adv-x="1053" unicode="˜" d="M340 1225q24 32 53.5 70.5t62 71t69 53t75.5 20.5q45 0 88.5 -15.5t108.5 -44t92 -37.5q4 -2 17 -4t18 -4q34 3 67.5 27t83.5 78l62 -47q-65 -92 -123.5 -149t-132.5 -68q-36 5 -63.5 16t-86 39.5t-96 40.5t-76.5 12q-32 0 -67 -23.5t-89 -84.5z"/>
<glyph glyph-name="emdash" horiz-adv-x="1024" unicode="–" d="M41 612h1024l-41 -155h-1024z"/>
<glyph glyph-name="endash" horiz-adv-x="2048" unicode="—" d="M41 612h2044h6l-43 -155h-2044h-4z"/>
<glyph glyph-name="quoteleft" horiz-adv-x="424" unicode="‘" d="M424 1243q0 -19 8.5 -32.5t29 -37t31.5 -43t11 -43.5q0 -52 -36 -83t-91 -31q-45 0 -81 36t-36 103q0 89 54 169t127.5 138t158.5 105l29 -51q-74 -41 -137 -113q-68 -75 -68 -117z"/>
<glyph glyph-name="quoteright" horiz-adv-x="424" unicode="’" d="M377 1251q0 17 -6.5 25t-26.5 33q-46 33 -51 100q35 115 131 115q46 0 81.5 -36.5t35.5 -103.5q0 -131 -103.5 -236.5t-236.5 -174.5l-29 47q74 41 135 113q32 31 51 62.5t19 55.5z"/>
<glyph glyph-name="quotedblleft" horiz-adv-x="752" unicode="“" d="M752 1243q4 -18 15 -34.5t28.5 -39t26.5 -40t9 -42.5q0 -51 -36 -82.5t-90 -31.5q-44 0 -80.5 36.5t-36.5 102.5q0 89 54 169t127.5 138t158.5 105l28 -51q-70 -39 -137 -113t-67 -117zM424 1243q0 -19 8.5 -32.5t29 -37t31.5 -43t11 -43.5q0 -52 -36 -83t-91 -31 q-45 0 -81 36t-36 103q0 89 54 169t127.5 138t158.5 105l29 -51q-74 -41 -137 -113q-68 -75 -68 -117z"/>
<glyph glyph-name="quotedblright" horiz-adv-x="752" unicode="”" d="M377 1247q0 18 -8.5 30t-24.5 32q-46 33 -51 100q16 50 41.5 80.5t73.5 30.5q36 0 67 -19t48.5 -50.5t17.5 -70.5q0 -129 -103.5 -233.5t-236.5 -173.5l-29 47q74 41 135 113q70 67 70 114zM705 1247q0 18 -8.5 30t-24.5 32q-42 36 -47 92q18 61 38.5 90t75.5 29t92 -42 t37 -98q0 -129 -103.5 -233.5t-236.5 -173.5l-28 47q68 36 137 113q68 68 68 114z"/>
<glyph glyph-name="quotedblbase" horiz-adv-x="752" unicode="„" d="M41 -55q-4 22 -16.5 38.5t-31 38.5t-26.5 38.5t-8 35.5q0 51 39 85t90 34q43 0 80 -37t37 -102q0 -90 -54 -171t-127.5 -138t-158.5 -103l-29 47q89 60 135 113q70 77 70 121zM369 -55q0 25 -37 55q-42 40 -47 96q16 57 45 88t86 31q45 0 80.5 -37.5t35.5 -101.5 q0 -130 -105 -238t-234 -174l-29 47q40 26 76 56.5t59 56.5q70 77 70 121z"/>
<glyph glyph-name="bullet" horiz-adv-x="1255" unicode="•" d="M252 752q0 98 50.5 184.5t137 137t185.5 50.5q98 0 186.5 -51t140.5 -137t52 -184q0 -101 -51.5 -187.5t-139.5 -137t-188 -50.5q-74 0 -143 29.5t-119.5 80t-80.5 120.5t-30 145z"/>
<glyph glyph-name="guilsinglleft" horiz-adv-x="596" unicode="‹" d="M461 193l-58 -29l-235 356l424 352l37 -49l-281 -303z"/>
<glyph glyph-name="guilsinglright" horiz-adv-x="596" unicode="›" d="M487 449l-151 335q43 15 92 56l168 -391l-332 -381q-22 38 -63 57z"/>
</font>
</defs>
</svg>
