<?xml version="1.0" encoding="UTF-8" standalone="no"?>
<!DOCTYPE svg  PUBLIC '-//W3C//DTD SVG 1.1//EN'  'http://www.w3.org/Graphics/SVG/1.1/DTD/svg11.dtd'>
<svg xmlns="http://www.w3.org/2000/svg">
<defs>
<font id="CenturionOldPlain-Regular" horiz-adv-x="1024">
<font-face underline-position="-75" font-weight="400" descent="-410" panose-1="2 11 5 0 0 0 0 0 0 0" units-per-em="2048" unicode-range="U+0020-203A" bbox="-168 -453 2152 2064" x-height="1004" underline-thickness="50" font-family="CenturionOldPlain" ascent="1638" cap-height="1499"/>
<missing-glyph horiz-adv-x="2048"/>
<glyph glyph-name=".notdef" horiz-adv-x="2048"/>
<glyph glyph-name=".null" horiz-adv-x="0"/>
<glyph glyph-name="nonmarkingreturn" horiz-adv-x="0"/>
<glyph glyph-name="space" horiz-adv-x="512" unicode=" "/>
<glyph glyph-name="exclam" horiz-adv-x="541" unicode="!" d="M285 -20q-61 0 -101.5 39.5t-40.5 93.5q0 56 40.5 95.5t101.5 39.5q60 0 97.5 -39.5t37.5 -95.5q0 -54 -37.5 -93.5t-97.5 -39.5zM324 420h-101v332q0 76 -9.5 152t-25.5 176.5t-24 165.5t-8 134q0 60 35.5 104t89.5 44q61 0 91.5 -50.5t30.5 -117.5q0 -16 -5 -45t-7 -43 q-10 -67 -27.5 -167t-28.5 -190t-11 -167v-328z"/>
<glyph glyph-name="quotedbl" horiz-adv-x="811" unicode='&quot;' d="M545 752l-41 565q0 7 -2 39t-2 53q0 43 23 79t65 36q43 0 63.5 -39.5t20.5 -83.5q0 -15 -2 -46t-2 -42l-52 -557q0 -33 -8 -65t-33 -32q-16 0 -26 29q0 4 -2 32t-2 32zM160 752l-39 565q-2 10 -4 44t-4 48q0 41 24 78t64 37q39 0 63.5 -36t24.5 -77q0 -12 -4 -47t-4 -51 l-54 -557q0 -6 -2 -35t-2 -33q-14 -29 -30 -29q-19 0 -29 29q-4 8 -4 64z"/>
<glyph glyph-name="numbersign" d="M403 612h209l31 277h-207zM193 0l63 483h-240v129h260l31 277h-227v127h244l63 469h129l-63 -469h206l66 469h131l-68 -469h228v-127h-244l-33 -277h230v-129h-244l-66 -483h-127l64 483h-209l-63 -483h-131z" unicode="#"/>
<glyph glyph-name="dollar" d="M532 -16v-240h-112v240q-81 2 -168.5 44t-144 115t-56.5 164q0 67 29.5 114.5t87.5 47.5q49 0 77 -23.5t31 -68.5q0 -30 -25.5 -81t-27.5 -99q0 -72 52.5 -105.5t144.5 -44.5q109 0 196 34t137.5 97.5t51.5 140.5q0 103 -73 165.5t-200 115.5q-166 76 -254.5 127 t-151.5 135t-63 209q0 94 53.5 186t137.5 154t166 74v207h112v-207q68 -6 132.5 -30.5t118 -66.5t85.5 -99.5t35 -125.5q0 -135 -106 -135q-44 0 -77 28.5t-36 71.5q8 18 14.5 53.5t6.5 61.5q0 57 -35 92t-87 50.5t-108 15.5q-65 0 -129 -36t-106.5 -95t-46.5 -125 q0 -71 29.5 -123t78 -86.5t135.5 -73.5t96 -43q96 -40 161.5 -73t125 -81t96.5 -115.5t37 -158.5q0 -116 -55.5 -209t-152 -145.5t-212.5 -52.5z" unicode="$"/>
<glyph glyph-name="percent" horiz-adv-x="1184" unicode="%" d="M324 721q-128 3 -208 109t-83 270q0 104 34.5 189.5t96.5 136t143 51.5h4q85 0 150 -47.5t100 -133t35 -196.5q-1 -102 -36 -190t-96 -138.5t-140 -50.5zM311 780q62 0 102 92t40 228q0 138 -41 226.5t-109 88.5q-41 -1 -73.5 -43t-51 -115.5t-18.5 -156.5 q1 -84 22.5 -159.5t55.5 -117.5t73 -43zM952 1468h113l-789 -1468h-133zM1176 356q0 -74 -17.5 -142.5t-52 -125.5t-87 -92.5t-120.5 -36.5q-87 0 -153.5 57.5t-100 146t-33.5 185.5q1 90 37 180.5t101.5 148t148.5 58.5q86 0 149 -52t95.5 -137.5t32.5 -180.5v-9zM1049 348 q0 109 -33 214.5t-113 105.5q-50 -1 -82.5 -59t-47.5 -134t-17 -123q0 -105 36 -216t115 -111q48 7 79.5 61.5t45 123.5t17.5 138z"/>
<glyph glyph-name="ampersand" horiz-adv-x="1616" unicode="&amp;" d="M403 809l80 47q-29 64 -47 107.5t-31.5 94t-13.5 97.5q0 106 49 190t135.5 131.5t196.5 47.5q62 0 124.5 -17t110.5 -49.5t76.5 -80t28.5 -105.5q0 -128 -125 -225t-295 -175q85 -150 131 -228t115 -179t141 -189q70 88 110 186t40 210q-5 93 -49 115t-148 22v63h547v-63 q-96 0 -147 -41q-18 -15 -36 -45t-37 -71t-28 -60q-12 -33 -33.5 -90t-44.5 -106.5t-52 -94.5t-73 -92q111 -96 228 -96q60 0 106 24t103 72l47 -49q-88 -88 -178.5 -138.5t-194.5 -50.5q-74 0 -135 32.5t-121 92.5q-203 -121 -412 -121q-86 0 -175.5 28t-165 81.5 t-120 128.5t-47.5 164q0 74 28.5 135.5t77.5 113.5t99.5 89.5t134.5 93.5zM516 788q-103 -46 -161 -128.5t-58 -190.5q0 -106 53 -199t145.5 -147.5t204.5 -54.5q142 0 236 75q-95 107 -213 288t-207 357zM659 936q117 48 202.5 122t90.5 181q0 43 -21.5 93.5t-65.5 83 t-105 32.5h-4q-89 0 -141 -59.5t-52 -141.5q4 -103 96 -311z"/>
<glyph glyph-name="quotesingle" horiz-adv-x="432" unicode="&apos;" d="M125 961q-7 -4 -17 -5.5t-16 -3.5q-13 0 -20 21q10 32 61 86t70.5 80t19.5 73q0 23 -26 35q-61 31 -81 50t-20 75q0 57 32.5 96t90.5 39q51 0 89.5 -24.5t58.5 -65t20 -86.5q0 -83 -45.5 -159.5t-118.5 -135.5q-69 -64 -98 -75z"/>
<glyph glyph-name="parenleft" horiz-adv-x="809" unicode="(" d="M809 1595l47 -63q-117 -88 -194.5 -188.5t-118.5 -211t-56.5 -235.5t-17.5 -293q0 -174 41 -333.5t124.5 -298t205.5 -244.5l-68 -52q-108 69 -198.5 161t-162 212.5t-110.5 261t-39 293.5q0 55 2 84q12 142 40.5 256.5t89.5 226t163.5 218.5t251.5 206z"/>
<glyph glyph-name="parenright" horiz-adv-x="809" unicode=")" d="M8 1595q196 -132 312 -275t168 -296t65 -336q2 -26 2 -80q0 -159 -40 -300.5t-109 -258t-161 -210.5t-204 -163l-66 52q122 106 206.5 245.5t125.5 298t41 332.5q-2 170 -18 294t-57 234.5t-118.5 211t-195.5 188.5z"/>
<glyph glyph-name="asterisk" d="M483 1145q-4 44 -13 118.5t-9 112.5q0 109 71 109q46 0 61 -27.5t19 -77.5q0 -34 -15 -120.5t-17 -114.5q58 36 136 67t124 31q33 0 48 -11t15 -40q0 -62 -94 -96q-52 -14 -126.5 -21.5t-86.5 -9.5q40 -39 85 -83.5t74 -87.5t29 -85q0 -45 -57 -61q-52 17 -87 59 t-54.5 83.5t-53.5 125.5q-32 -83 -47 -116.5t-53 -80.5q-56 -67 -104 -67q-27 0 -41.5 22.5t-14.5 56.5q1 36 26 68.5t76 81.5t79 84q-47 5 -92.5 10t-89 18t-74 40t-37.5 71q0 27 18 35t45 8q32 0 80 -13t97 -37t83 -52z" unicode="*"/>
<glyph glyph-name="plus" d="M453 63v420h-406v129h406v404h127v-404h403v-129h-403v-420h-127z" unicode="+"/>
<glyph glyph-name="comma" horiz-adv-x="512" unicode="," d="M156 -315q-9 -4 -27 -4q-14 0 -20 22q15 30 59 76t67.5 78t24.5 75q0 25 -33 39q-9 5 -34.5 19.5t-37 26t-18 32t-6.5 47.5q0 59 32.5 97t92.5 38q72 0 118 -52.5t46 -123.5q0 -81 -46 -158.5t-118 -136.5q-81 -69 -100 -75z"/>
<glyph glyph-name="hyphen" horiz-adv-x="483" unicode="-" d="M0 600h461v-147h-461v147z"/>
<glyph glyph-name="period" horiz-adv-x="512" unicode="." d="M256 -25q-53 0 -90 40.5t-37 93.5q0 50 37 88.5t90 38.5q34 0 64 -17.5t47.5 -46.5t17.5 -63q0 -54 -38 -94t-91 -40z"/>
<glyph glyph-name="slash" horiz-adv-x="1079" unicode="/" d="M881 1573h139l-815 -1778h-146z"/>
<glyph glyph-name="zero" d="M532 -20q-128 0 -236 101.5t-170.5 274.5t-62.5 375q0 205 60 378.5t166 276t235 103.5q127 0 232.5 -106.5t166 -281t60.5 -370.5q0 -145 -34 -279.5t-96.5 -241.5t-144.5 -168t-176 -62zM532 43q90 1 146 97t82 251t28 340q0 290 -62.5 487t-197.5 197h-4 q-134 -3 -199 -191t-65 -493q0 -148 15.5 -270t49.5 -218t85 -148t122 -52z" unicode="0"/>
<glyph glyph-name="one" d="M180 0v68q109 0 163.5 12t86 66.5t31.5 172.5v701q0 108 -22.5 153t-77.5 56.5t-193 13.5v70q272 0 407 176h66v-1204q0 -101 36.5 -148.5t89.5 -58t140 -10.5v-68h-727z" unicode="1"/>
<glyph glyph-name="two" d="M205 160h207q204 0 276 20q65 19 110 69.5t87 149.5l59 -14l-92 -385h-780l-17 100q70 118 140.5 211t146 176t154 169t137.5 163q102 136 102 301q0 82 -31.5 151.5t-91 108.5t-141.5 39q-77 -3 -131.5 -47.5t-67.5 -120.5q4 -22 30 -77.5t26 -90.5q0 -43 -32 -70.5 t-77 -35.5q-40 4 -73.5 29.5t-45.5 85.5q-4 16 -4 49q0 89 59.5 170t155.5 129.5t197 48.5q103 0 205 -50.5t166.5 -143.5t64.5 -212q-7 -84 -39 -151t-81.5 -123t-93.5 -93t-171 -141q-74 -63 -120 -106.5t-104 -118t-130 -190.5z" unicode="2"/>
<glyph glyph-name="three" d="M555 784q171 -26 281 -131t110 -254q0 -30 -2 -47q-14 -117 -86.5 -201.5t-179 -127.5t-221.5 -43q-91 0 -168.5 21.5t-134.5 65.5t-78 101q-11 36 -17 76q12 42 21 71.5t28.5 49.5t59.5 20q50 0 81.5 -36.5t31.5 -88.5q0 -59 -9 -84q4 -48 49 -87.5t128 -45.5 q98 0 160.5 55.5t90 139.5t27.5 178q0 76 -22 150.5t-72.5 123.5t-128.5 49q-26 0 -71 -7t-60 -7q-76 0 -76 59q0 56 84 56q25 0 64 -8.5t55 -8.5q78 3 129 99t51 223q-7 112 -59 189t-146 81q-79 0 -128 -37t-58 -102q8 -58 8 -84q0 -51 -26 -84t-66 -33q-50 0 -88 31 t-41 94q4 17 4 37q15 75 77 131.5t154.5 86.5t200.5 30q98 -6 181.5 -47.5t136.5 -115.5t59 -167q0 -101 -57.5 -180.5t-136 -128t-140.5 -62.5z" unicode="3"/>
<glyph glyph-name="four" d="M567 1171l-415 -710h415v710zM51 461l608 1028h93v-1028h225v-96h-225v-105q3 -111 30 -151.5t125 -40.5v-68h-516v68q83 0 121.5 20t46.5 56t8 112v109h-516v96z" unicode="4"/>
<glyph glyph-name="five" d="M297 1317l-33 -473q77 51 143.5 75.5t145.5 24.5q93 0 169.5 -37t130 -100.5t84.5 -149.5t32 -178q0 -132 -64.5 -248.5t-176.5 -186t-249 -69.5q-80 0 -171.5 35.5t-153.5 102.5t-62 155q0 61 28.5 100.5t84.5 39.5q44 0 75 -33.5t31 -77.5q0 -26 -7 -64.5t-7 -52.5 q0 -63 48.5 -100t115.5 -37q82 1 141.5 40.5t97 102t55 137t17.5 152.5q0 99 -31.5 186t-97.5 141t-164 54q-155 -6 -252 -143l-67 30l45 721h684l-29 -147h-563z" unicode="5"/>
<glyph glyph-name="six" d="M563 819q-72 0 -138.5 -51.5t-143.5 -175.5q0 -214 53.5 -381.5t210.5 -167.5q95 0 152.5 69.5t80.5 167t23 195.5q0 95 -27 173.5t-81 124.5t-130 46zM276 713q93 101 171 154t182 53q108 0 192 -61t129 -157.5t45 -201.5q-1 -129 -58.5 -252t-158 -198t-229.5 -75 q-146 3 -251 91.5t-159.5 240t-54.5 334.5q0 289 117 522q74 144 185.5 235t256.5 91q61 0 131 -25.5t118 -72.5t48 -111q0 -48 -33.5 -80.5t-83.5 -32.5q-47 0 -65 29.5t-33 92.5t-41.5 96.5t-87.5 33.5q-85 -1 -147 -79.5t-100 -194t-55.5 -235t-17.5 -197.5z" unicode="6"/>
<glyph glyph-name="seven" d="M160 1464h801l12 -116q-96 -148 -175.5 -290t-142 -293.5t-97 -306.5t-34.5 -319q0 -73 -21.5 -118.5t-86.5 -45.5q-56 4 -82.5 39.5t-26.5 89.5q0 227 205 621q30 60 64.5 120.5t90.5 155.5t105 178t88 148h-407q-82 0 -135.5 -15.5t-98.5 -74t-84 -180.5l-59 14z" unicode="7"/>
<glyph glyph-name="eight" d="M680 823q82 -38 150.5 -99t110.5 -140.5t42 -167.5q-3 -131 -66.5 -231.5t-170 -155t-234.5 -54.5q-111 0 -214.5 48.5t-166.5 137.5t-63 204q0 88 50 162t126.5 127.5t163.5 88.5q-116 55 -189 140t-76 200q0 114 53.5 206.5t147 146t209.5 53.5q71 -2 139 -26.5 t122 -68.5t86 -104.5t32 -130.5q0 -77 -35 -137t-83.5 -101t-133.5 -98zM469 713q-104 -55 -162.5 -143.5t-58.5 -196.5q1 -89 38 -166t104.5 -120.5t154.5 -43.5q81 0 146.5 42t103.5 113t41 154q0 77 -34.5 131.5t-83.5 90t-148 87t-101 52.5zM608 856q82 52 127 128 t45 165q0 74 -30 136t-85.5 98t-127.5 36q-71 0 -127.5 -35t-88.5 -94.5t-32 -130.5q0 -97 98.5 -176.5t220.5 -126.5z" unicode="8"/>
<glyph glyph-name="nine" d="M496 641q71 2 139 55t145 176q0 127 -19.5 248t-77.5 208t-167 87q-96 0 -154.5 -68.5t-82 -167t-23.5 -192.5q1 -92 29 -173t81.5 -127t129.5 -46zM784 752q-82 -96 -167.5 -151.5t-188.5 -55.5q-106 0 -189.5 58t-130.5 152.5t-49 196.5q4 10 4 11v2q0 131 57 251 t161 194.5t231 74.5q110 0 197.5 -52t147 -142.5t90 -210.5t30.5 -257q0 -136 -31 -270t-90 -254q-69 -140 -183.5 -232t-260.5 -92q-57 0 -127 25t-118.5 71t-49.5 109q0 50 33.5 83.5t85.5 33.5q50 -1 68.5 -33.5t33.5 -94.5t40.5 -94t86.5 -32q109 1 181 130t105 298.5 t33 280.5z" unicode="9"/>
<glyph glyph-name="colon" horiz-adv-x="512" unicode=":" d="M256 768q-54 0 -90.5 37.5t-36.5 91.5t36.5 90.5t90.5 36.5q36 0 65 -16t46.5 -45.5t17.5 -65.5q0 -37 -17.5 -66.5t-46.5 -46t-65 -16.5zM256 -25q-53 0 -90 40.5t-37 93.5q0 50 37 88.5t90 38.5q34 0 64 -17.5t47.5 -46.5t17.5 -63q0 -54 -38 -94t-91 -40z"/>
<glyph glyph-name="semicolon" horiz-adv-x="512" unicode=";" d="M131 -311l-22 30q82 85 115 125.5t36 87.5q0 34 -37 56q-48 21 -73 51t-25 82q0 53 37.5 88t89.5 35q48 0 82.5 -26.5t51.5 -70t17 -92.5q0 -106 -82 -209.5t-190 -156.5zM260 768q-53 0 -91 37t-38 92q0 34 17.5 63.5t47.5 46.5t64 17q54 0 92.5 -37.5t38.5 -89.5 q0 -55 -38 -92t-93 -37z"/>
<glyph glyph-name="less" d="M952 915l-764 -362l764 -360v-113l-880 424v100l880 420v-109z" unicode="&lt;"/>
<glyph glyph-name="equal" d="M80 471h864v-115h-864v115zM80 752h864v-119h-864v119z" unicode="="/>
<glyph glyph-name="greater" d="M72 193l764 360l-764 362v109l880 -420v-100l-880 -424v113z" unicode="&gt;"/>
<glyph glyph-name="question" horiz-adv-x="809" unicode="?" d="M424 104q0 -51 -37 -90t-90 -39q-50 0 -89.5 39.5t-39.5 89.5q0 54 37 93t92 39q54 0 90.5 -39t36.5 -93zM324 688v-280h-84v444h63q89 0 154 36t98 101t33 152q0 57 -15.5 117.5t-51 103.5t-89.5 43q-53 -1 -83.5 -37t-61.5 -73.5t-82 -39.5q-46 0 -76 29t-33 76 q0 79 71 120t161 44q84 0 159.5 -35.5t130.5 -96t86 -140t31 -165.5q0 -128 -51 -217t-145.5 -135t-214.5 -47z"/>
<glyph glyph-name="at" horiz-adv-x="1745" unicode="@" d="M1065 952q2 13 2 52q0 59 -30 100t-93 41q-111 -5 -195 -156t-133 -342q-21 -72 -28 -151q3 -65 35 -97t94 -43q70 3 130.5 69.5t100.5 186.5zM928 412q-118 -112 -252 -115q-113 10 -177 90.5t-67 200.5q18 117 49 220.5t86 194t141.5 146t202.5 55.5q70 0 127.5 -28.5 t73.5 -92.5l33 97h172l-209 -625q-36 -101 -41 -147q0 -37 57 -43q13 4 31 4q66 12 128.5 55.5t113 114.5t78.5 162.5t28 191.5q-4 162 -91.5 286.5t-221.5 189.5t-272 65q-35 0 -54 -2q-131 -12 -246 -67t-198.5 -147t-129.5 -216t-46 -267q4 -174 84.5 -319.5t215 -236 t292.5 -107.5q45 0 63 -4q174 3 329.5 87t256.5 257h88q-49 -117 -123 -198t-168.5 -134.5t-193.5 -78t-195 -24.5q-45 0 -66 3q-124 12 -243 71.5t-218 161.5t-156.5 239t-57.5 296q0 157 57.5 299.5t159 249t237.5 166.5t287 61q174 0 333.5 -74t259 -216t105.5 -335 q0 -150 -62.5 -284.5t-174.5 -221.5t-254 -100q-68 3 -115.5 33.5t-56.5 85.5z"/>
<glyph glyph-name="A" horiz-adv-x="1348" unicode="A" d="M-59 0v68q87 0 149.5 59t110.5 201l391 1171l192 53l408 -1224q36 -102 68 -155t71 -76.5t96 -28.5v-68h-604v68q70 0 111 5.5t63.5 23.5t22.5 55q0 36 -12 75l-105 318h-522l-92 -273q-20 -79 -21 -88q3 -65 53 -90.5t144 -25.5v-68h-524zM877 637l-234 686l-231 -686 h465z"/>
<glyph glyph-name="B" horiz-adv-x="1405" unicode="B" d="M461 760v-504q0 -76 23 -118.5t57 -56.5t84 -18q29 5 121 16t149 31.5t104 69.5q80 76 80 240q-6 135 -74.5 210t-178.5 102.5t-263 27.5h-102zM461 827h151q91 0 161 15.5t125 52.5t86.5 100.5t31.5 157.5q-8 147 -116.5 213t-256.5 66q-107 0 -144.5 -44.5 t-37.5 -154.5v-406zM68 0v68q74 0 113 17t57 69.5t18 156.5v893q0 101 -22 150t-61 63.5t-105 14.5v67h540q621 0 621 -350q0 -166 -127.5 -251.5t-308.5 -104.5v-9q125 -5 244.5 -46t199.5 -126t80 -213q0 -108 -54.5 -186t-140.5 -124t-189.5 -67.5t-205.5 -21.5h-659z "/>
<glyph glyph-name="C" horiz-adv-x="1405" unicode="C" d="M92 700q0 141 51 288t142 268.5t211 194.5t252 73q60 -4 104 -17.5t97 -29.5t87 -17q82 8 148 43l137 -370l-53 -25q-99 119 -187 191.5t-168 104.5t-157 32q-61 0 -109 -13q-101 -30 -171.5 -115.5t-107 -215t-36.5 -287.5v-49q2 -109 34.5 -224t95.5 -212.5t159 -156.5 t219 -59q135 0 253 83.5t207 244.5l43 -29q-56 -122 -145.5 -218.5t-207.5 -150.5t-251 -54q-116 0 -230.5 46t-205.5 130q-50 53 -85.5 108t-64 125t-44.5 148t-17 163z"/>
<glyph glyph-name="D" horiz-adv-x="1565" unicode="D" d="M461 315q0 -152 43 -199.5t168 -47.5q238 0 385.5 164.5t150.5 506.5q0 235 -59.5 387.5t-184 229t-313.5 76.5q-76 0 -115.5 -15t-57 -62t-17.5 -147v-893zM63 68q94 0 134.5 29.5t49.5 83t9 167.5l4 873q0 92 -22.5 137t-64 59.5t-110.5 14.5v67h621q150 0 286.5 -44.5 t242 -132t168 -223.5t63.5 -311q0 -225 -75.5 -381t-196 -244t-258.5 -125.5t-271 -37.5h-580v68z"/>
<glyph glyph-name="E" horiz-adv-x="1348" unicode="E" d="M68 68q120 0 156 55.5t36 165.5v71v840q0 100 -20.5 149.5t-61 66t-110.5 16.5v67h1073l143 -350l-51 -29q-13 13 -45.5 56.5t-71 87.5t-72.5 71q-57 47 -132.5 72t-190.5 25h-74q-87 0 -126 -18.5t-49.5 -59t-10.5 -125.5v-414h155q101 0 182.5 56t86.5 200h55v-588h-59 q0 120 -45.5 179t-100.5 72.5t-119 13.5h-155v-500q0 -81 21 -119.5t58.5 -49.5t110.5 -11h62q123 0 204.5 26t135 70.5t123.5 133t92 114.5l49 -25l-150 -387h-1099v68z"/>
<glyph glyph-name="F" horiz-adv-x="1239" unicode="F" d="M63 68q125 0 161 59t36 184v889q0 100 -20.5 149.5t-61 66t-110.5 16.5v67h1073l143 -350l-51 -29q-13 13 -45.5 56.5t-71 87.5t-72.5 71q-57 47 -132.5 72t-190.5 25h-74q-87 0 -126 -18.5t-49.5 -59t-10.5 -125.5v-414h155q101 0 182.5 56t86.5 200h55v-588h-59 q0 120 -45.5 179t-100.5 72.5t-119 13.5h-155v-445q0 -65 8.5 -107t32 -70.5t69.5 -43t117 -14.5v-68h-625v68z"/>
<glyph glyph-name="G" horiz-adv-x="1507" unicode="G" d="M1292 37q-39 14 -92 14q-39 0 -87.5 -10.5t-120 -29.5t-118.5 -27.5t-102 -8.5q-122 3 -236.5 42t-212.5 127t-156.5 230.5t-62.5 342.5q0 196 79.5 382.5t226.5 305.5t333 119q52 0 150.5 -18.5t138.5 -20.5q88 7 160 47l135 -383l-59 -29q-203 336 -475 336 q-117 0 -217.5 -83t-165 -246.5t-74.5 -391.5q0 -171 52.5 -326.5t160 -257t262.5 -108.5q122 19 193.5 59t91.5 142q16 65 16 147q0 66 -4 92q-11 75 -61 98t-162 23v64h583v-64q-101 -3 -138.5 -54.5t-37.5 -146.5v-366z"/>
<glyph glyph-name="H" horiz-adv-x="1565" unicode="H" d="M461 815h639v338q0 116 -14.5 173.5t-56 81.5t-122.5 24v67h588v-67q-86 0 -126.5 -23.5t-54.5 -80.5t-14 -175v-805q0 -120 14 -178t54 -80t127 -22v-68h-588v68q85 0 125.5 22.5t54 80t13.5 177.5v377h-639v-385q0 -116 15 -173t54.5 -78t120.5 -21v-68h-583v68 q81 0 120.5 20.5t53.5 76.5t14 179l4 809q0 86 -8 139.5t-28 83.5t-56.5 43t-99.5 13v67h583v-67q-84 0 -123.5 -23.5t-53 -80.5t-13.5 -175v-338z"/>
<glyph glyph-name="I" horiz-adv-x="700" unicode="I" d="M461 340q0 -116 15 -173t54.5 -78t120.5 -21v-68h-583v68q81 0 120.5 20.5t53.5 76.5t14 179l4 809q0 86 -8 139.5t-28 83.5t-56.5 43t-99.5 13v67h583v-67q-84 0 -123.5 -23.5t-53 -80.5t-13.5 -175v-813z"/>
<glyph glyph-name="J" horiz-adv-x="809" unicode="J" d="M135 1499h604v-67q-82 0 -121.5 -19t-56 -71.5t-16.5 -161.5v-920q0 -131 -53 -253.5t-155 -198.5t-237 -76q-82 0 -135 39t-53 104q0 56 36 90.5t89 34.5q45 0 74 -21.5t53 -74.5q38 -68 76 -68q59 0 79 64q21 79 21 188v1108q0 110 -26.5 161.5t-67 63t-111.5 11.5v67z "/>
<glyph glyph-name="K" horiz-adv-x="1456" unicode="K" d="M465 713q58 60 148 151.5t195.5 196.5t195.5 194q53 55 53 101q0 76 -164 76v67h571v-67q-87 -6 -165.5 -44.5t-143 -94.5t-124 -119t-138.5 -146l-92 -92l403 -617q64 -97 113 -150t101 -77t122 -24v-68h-633v68q98 0 135 9.5t37 39.5q0 31 -43 99t-88 136l-293 436 l-190 -196v-252q0 -116 15 -173t54.5 -78t120.5 -21v-68h-583v68q81 0 120.5 20.5t53.5 76.5t14 179v809q0 118 -14 175t-53.5 80.5t-120.5 23.5v67h583v-67q-81 0 -121.5 -23.5t-54.5 -81.5t-14 -174v-440z"/>
<glyph glyph-name="L" horiz-adv-x="1184" unicode="L" d="M1217 399l55 -22l-139 -377h-1065v68q87 0 127.5 22t54.5 80t14 178v805q0 122 -12.5 177t-53 78.5t-130.5 23.5v67h596v-67q-69 0 -106.5 -12.5t-57 -43.5t-25.5 -80t-6 -143v-846q0 -101 11.5 -147t56.5 -68.5t151 -23.5q136 0 228 35t162.5 107t138.5 189z"/>
<glyph glyph-name="M" horiz-adv-x="1939" unicode="M" d="M1665 1153v-805q0 -120 14 -178t53 -80t123 -22v-68h-591v68q87 0 127.5 22t54.5 80t14 178v991h-8l-508 -1339h-76l-503 1348h-9v-1000q0 -120 14 -178t54 -80t125 -22v-68h-481v68q87 0 127.5 22t54.5 80t14 178v805q0 116 -14.5 174t-56.5 81.5t-125 23.5v67h444 l449 -1192l450 1192h444v-67q-81 0 -121.5 -23.5t-54.5 -81.5t-14 -174z"/>
<glyph glyph-name="N" horiz-adv-x="1565" unicode="N" d="M424 1499l793 -1114v768q0 114 -13.5 173t-53.5 82.5t-122 23.5v67h475v-67q-82 0 -122.5 -24t-54 -81.5t-13.5 -173.5v-1153h-70l-887 1247v-899q0 -116 14 -174q13 -58 54 -82q40 -24 121 -24v-68h-477v68q81 0 122 24.5t55.5 83t14.5 172.5v805q0 116 -14.5 173.5 t-56 81.5t-121.5 24v67h356z"/>
<glyph glyph-name="O" horiz-adv-x="1565" unicode="O" d="M780 43q110 4 190.5 63t130.5 159.5t73 222.5t26 264q0 136 -25.5 262t-77 225t-132.5 158t-189 59q-166 0 -263.5 -111t-135 -269.5t-37.5 -323.5q2 -187 49 -349.5t145.5 -261t245.5 -98.5zM784 -20q-207 0 -361.5 103.5t-236.5 280.5t-82 388q0 157 48.5 297.5 t137 245.5t213 165.5t269.5 63.5q151 0 273.5 -61.5t209.5 -168t134 -247.5t47 -295q0 -210 -78 -384t-226.5 -278t-347.5 -110z"/>
<glyph glyph-name="P" horiz-adv-x="1239" unicode="P" d="M659 68v-68h-583v68q74 0 113 17t57 69.5t18 156.5v893q0 101 -21.5 150t-60 63.5t-106.5 14.5v67h649h39q121 0 230.5 -43.5t177 -131.5t67.5 -216q0 -107 -43 -193q-69 -119 -220.5 -164.5t-311.5 -45.5h-195v-406q0 -114 26 -163.5t58.5 -57.5t105.5 -10zM469 772h98 q151 0 252.5 34.5t155 117t53.5 225.5q-6 150 -105.5 216.5t-254.5 66.5q-115 0 -157 -45t-42 -154v-461z"/>
<glyph glyph-name="Q" horiz-adv-x="1565" unicode="Q" d="M440 264q13 77 72.5 118.5t138.5 41.5q113 0 216.5 -69.5t172.5 -174.5q61 73 95.5 161.5t48.5 189t16 221.5q0 136 -25.5 262t-77 225t-132.5 158t-189 59q-127 0 -212.5 -67t-135 -176.5t-69 -227.5t-19.5 -233q0 -313 100 -488zM553 129q38 -41 93.5 -62t121.5 -24 q84 6 152 33q-38 129 -95 200t-145 80q-76 0 -122.5 -36.5t-49.5 -92.5q8 -58 45 -98zM104 752q11 215 94.5 389.5t231 276.5t342.5 106q145 0 268 -60.5t211.5 -167.5t136.5 -248.5t48 -295.5q0 -97 -18.5 -196t-55.5 -184.5t-98.5 -162t-143.5 -129.5q26 -74 88 -137.5 t131 -63.5q54 0 113 29l29 -43q-49 -49 -122.5 -81t-141.5 -32q-182 0 -269 252q-88 -24 -188 -24q-145 0 -266.5 62.5t-209.5 172t-134 247.5t-46 290z"/>
<glyph glyph-name="R" horiz-adv-x="1296" unicode="R" d="M651 68v-68h-583v68q74 0 113 17t57 69.5t18 156.5v893q0 101 -22 150t-61 63.5t-105 14.5v67h612q90 0 184.5 -20t174.5 -64.5t129 -116t49 -170.5q0 -101 -54 -183t-143.5 -131.5t-188.5 -61.5l285 -512q48 -82 71 -112t64 -45t117 -15v-68h-340l-420 731h-147v-432 q0 -114 26 -163.5t58.5 -57.5t105.5 -10zM461 801h143q168 0 281.5 89.5t113.5 258.5q-4 90 -56.5 153.5t-136 96.5t-173.5 33q-107 0 -139.5 -42t-32.5 -151v-438z"/>
<glyph glyph-name="S" horiz-adv-x="1133" unicode="S" d="M51 377l62 26q118 -157 243 -249.5t285 -110.5q94 1 162.5 45.5t102.5 111.5t34 140q-6 106 -66.5 170.5t-168.5 110.5q-42 18 -128.5 46t-136 45t-102.5 42.5t-102 60.5q-69 50 -103 123.5t-37 161.5q6 91 35 180q27 70 83.5 124.5t135 86.5t166.5 33q54 0 159 -28 t134 -32q71 7 98 39l137 -362l-61 -29q-32 57 -82.5 121t-108.5 113.5t-126 79.5t-138 30q-74 0 -137 -33t-100.5 -93t-38.5 -130q0 -104 59 -165.5t172 -110.5q64 -25 154.5 -52.5t145 -46.5t124.5 -57q109 -65 155 -159.5t46 -231.5q-4 -73 -37 -143.5t-91.5 -128 t-142 -92t-182.5 -38.5q-73 0 -178.5 29t-148.5 29q-72 0 -127 -58z"/>
<glyph glyph-name="T" horiz-adv-x="1296" unicode="T" d="M756 1204v-856q0 -124 14 -179.5t59 -78t144 -22.5v-68h-633v68q75 0 116 12t62 42.5t28 80.5t7 145v856v88q0 69 -23 104.5t-90 35.5q-99 0 -187.5 -44t-157.5 -118t-124 -170l-51 20l143 379h1049h135l146 -379l-54 -20q-77 147 -200 239.5t-271 92.5q-68 0 -90 -36.5 t-26 -111.5q4 -29 4 -80z"/>
<glyph glyph-name="U" horiz-adv-x="1507" unicode="U" d="M1192 571v582q0 116 -13 174t-51.5 81.5t-119.5 23.5v67h469v-67q-67 0 -103.5 -12.5t-54.5 -41.5t-24.5 -81t-6.5 -144v-645q0 -175 -57.5 -294.5t-176.5 -179t-298 -59.5q-240 0 -380 126t-140 364v688q0 121 -12.5 179t-50 79t-118.5 21v67h582v-67 q-92 -3 -131.5 -25.5t-52.5 -77.5t-13 -176v-582q0 -153 28.5 -264.5t110.5 -179.5t236 -68q158 0 241.5 72t109.5 181.5t26 258.5z"/>
<glyph glyph-name="V" horiz-adv-x="1348" unicode="V" d="M651 0l-450 1309q-28 81 -68 102t-133 21h-43v67h623v-67q-90 0 -129.5 -14t-42.5 -70q5 -33 24 -97l311 -915l285 805q43 120 43 190q0 101 -172 101v67h512v-67q-51 0 -86.5 -8t-65 -31.5t-58 -72.5t-56.5 -128l-424 -1192h-70z"/>
<glyph glyph-name="W" horiz-adv-x="1939" unicode="W" d="M956 1112l-327 -1112h-70l-323 1149q-29 108 -52 160t-77.5 87.5t-149.5 35.5v67h584v-67q-82 0 -116.5 -16.5t-37.5 -63.5q6 -49 37 -135l231 -832l252 866q-37 181 -202 181v67h587v-67h-80q-48 0 -74.5 -17.5t-29.5 -71.5q2 -10 3.5 -17t4 -20t3.5 -19.5t5 -22.5 l248 -879l240 832q20 78 20 114q0 42 -15 63t-41.5 29t-58 8.5t-61.5 0.5v67h533v-67q-106 0 -166 -47t-82.5 -101t-69.5 -197l-332 -1087h-63z"/>
<glyph glyph-name="X" horiz-adv-x="1296" unicode="X" d="M721 836l315 -539q65 -110 128.5 -169.5t166.5 -59.5v-68h-604v68q83 0 118.5 15t35.5 48q0 53 -72 166l-209 346l-219 -340q-54 -82 -62 -151q4 -49 44.5 -66.5t111.5 -17.5v-68h-518v68q66 0 112 15t76 41t54.5 60.5t72.5 112.5l277 430l-273 457q-66 107 -96 147.5 t-85 70.5t-138 30v67h602v-67q-77 0 -108.5 -13.5t-34.5 -46.5q4 -45 88 -180l160 -272l167 260q89 132 89 180q0 39 -34 55.5t-114 16.5v67h504v-67q-78 0 -131.5 -26.5t-89 -68t-90.5 -125.5z"/>
<glyph glyph-name="Y" horiz-adv-x="1296" unicode="Y" d="M580 575l-383 676q-61 110 -114 145.5t-126 35.5v67h596v-67q-99 0 -138 -11t-42 -53q6 -37 43 -104l309 -537l270 506q33 68 33 110q0 89 -131 89h-37v67h508v-67q-89 0 -144 -36t-104 -128l-340 -621v-340q0 -75 10.5 -121t34 -72.5t60.5 -36t92 -9.5v-68h-596v68 q91 0 135 36t54 88t10 136v247z"/>
<glyph glyph-name="Z" horiz-adv-x="1184" unicode="Z" d="M289 68h270q94 0 192.5 30t193.5 104.5t159 196.5l72 -22l-148 -377h-1020l907 1432h-180q-153 0 -255 -33.5t-176 -102.5t-148 -184l-60 25l131 362h965z"/>
<glyph glyph-name="bracketleft" horiz-adv-x="809" unicode="[" d="M461 1493v-1657h211v-80h-379v1817h379v-80h-211z"/>
<glyph glyph-name="backslash" horiz-adv-x="512" unicode="\" d="M537 0l-705 1516h143l705 -1516h-143z"/>
<glyph glyph-name="bracketright" horiz-adv-x="809" unicode="]" d="M365 1493h-209v80h381v-1817h-381v80h209v1657z"/>
<glyph glyph-name="asciicircum" d="M885 621l-361 763l-385 -763h-106l438 878h96l424 -878h-106z" unicode="^"/>
<glyph glyph-name="underscore" d="M0 -129h1024v-156h-1024v156z" unicode="_"/>
<glyph glyph-name="grave" horiz-adv-x="592" unicode="`" d="M387 1104l-63 96q-21 32 -55.5 76t-53.5 72q-63 95 -63 133q3 16 23 27.5t44 11.5q44 0 69.5 -32.5t39.5 -82.5l96 -281z"/>
<glyph glyph-name="a" horiz-adv-x="973" unicode="a" d="M641 121q-175 -141 -317 -141q-115 0 -185.5 64.5t-70.5 178.5q13 295 569 381v135q0 91 -35 154t-115 63q-57 0 -102 -39t-57 -98q-14 -61 -37.5 -86t-67.5 -33q-108 0 -114 88q4 17 4 31q10 71 73.5 117.5t146.5 67t154 20.5q142 0 235 -65.5t93 -202.5v-529 q0 -111 62 -118q48 7 84 55l26 -43q-90 -141 -207 -141q-57 0 -96 36.5t-43 104.5zM637 537q-98 -17 -183.5 -59t-137.5 -103t-52 -131q3 -73 43 -115t105 -45q120 7 225 121v332z"/>
<glyph glyph-name="b" horiz-adv-x="1133" unicode="b" d="M356 129l-143 -141h-25v1251q0 77 -16 108.5t-43 37.5t-113 12v59l353 117v-684q138 131 290 131q119 0 208 -77t135.5 -196.5t46.5 -246.5q-5 -122 -56 -242.5t-144.5 -199t-215.5 -78.5q-144 0 -277 149zM373 805v-617q55 -48 97.5 -72t100.5 -32q95 10 156.5 71.5 t90.5 149t34 191.5q0 97 -31.5 195t-95 161t-154.5 63q-55 0 -98.5 -25t-99.5 -85z"/>
<glyph glyph-name="c" horiz-adv-x="973" unicode="c" d="M920 272l28 -28q-61 -91 -132 -150.5t-147 -86.5t-153 -27q-130 0 -236 70.5t-165 187.5t-60 245q2 17 4 49t4 48q23 122 95.5 223.5t179 161t229.5 59.5q92 0 168 -27.5t124 -73t56 -100.5q0 -48 -29 -81.5t-81 -36.5q0 2 -1.5 3t-2.5 1q-40 0 -65.5 24.5t-42.5 60 t-40 81t-49 61.5q-33 20 -92 20q-132 0 -188 -128t-60 -283q0 -99 27.5 -187.5t76.5 -153.5t107 -91q48 -22 121 -29q176 6 324 188z"/>
<glyph glyph-name="d" horiz-adv-x="1133" unicode="d" d="M764 117q-148 -137 -285 -137q-127 0 -216 77t-133 198t-46 245q0 121 42.5 242.5t130 201.5t212.5 80q142 0 295 -131v346q0 75 -15.5 106.5t-45 38.5t-115.5 13v59l356 117v-1325q0 -86 8.5 -120.5t36 -48.5t94.5 -20v-59h-319v117zM764 809q-58 56 -111.5 91.5 t-124.5 35.5q-87 0 -142 -68t-80 -169t-25 -203q2 -97 23.5 -193t76.5 -163t151 -77q69 7 122 40t110 90v616z"/>
<glyph glyph-name="e" d="M285 641h475v35q0 111 -59 195.5t-164 84.5q-78 0 -136 -46t-87 -118.5t-29 -150.5zM272 563q0 -112 25 -212t73 -169t109 -94q43 -16 109 -25q98 5 189 55.5t147 133.5l37 -33q-50 -84 -114.5 -137t-137.5 -77.5t-156 -24.5q-141 0 -251.5 71.5t-173 192.5t-62.5 260 q0 39 2 59q17 122 80 228t164 169.5t225 63.5q86 0 163.5 -33.5t136 -93.5t94 -146.5t38.5 -187.5h-697z" unicode="e"/>
<glyph glyph-name="f" horiz-adv-x="592" unicode="f" d="M385 1004h244v-68h-244v-655q0 -111 10.5 -153t51.5 -55.5t149 -13.5v-59h-588v59q91 0 132.5 13.5t53 46.5t11.5 108v54v655h-197v68h197q0 195 59 301q32 57 81.5 107.5t107.5 81t118 30.5q55 0 98.5 -29t43.5 -80q0 -27 -13.5 -47.5t-35 -32.5t-48.5 -12 q-22 0 -36 7.5t-40 29t-44 31.5t-39 10q-47 0 -59.5 -45t-12.5 -113v-239z"/>
<glyph glyph-name="g" horiz-adv-x="1133" unicode="g" d="M731 643q0 113 -50 213t-153 100q-54 0 -96 -28.5t-67 -74t-37.5 -98.5t-12.5 -104q0 -113 55 -199.5t162 -86.5q72 0 117 41t63.5 105t18.5 132zM629 143q80 -16 139 -30.5t114.5 -40t92.5 -70t37 -111.5q0 -102 -80 -159t-190 -77t-218 -20q-174 0 -341 44t-167 165 q0 50 31 86t79 59.5t107 41.5t91 28q-32 11 -61.5 22t-64.5 29t-58 42.5t-23 52.5q0 102 180 151q-80 44 -126.5 126t-49.5 173q4 109 60 192.5t148 128t203 44.5q82 0 154 -23t123 -69q41 46 93.5 75t105.5 29q50 0 83 -26t33 -82q0 -37 -25 -67t-59 -30q-25 0 -40.5 9.5 t-37 30t-38 30.5t-39.5 10q-19 0 -41 -18q80 -100 80 -230q0 -108 -57.5 -190t-151 -127.5t-199.5 -48.5q-86 7 -160 31q-24 -8 -41.5 -21t-17.5 -35q3 -44 131 -71q34 -8 115.5 -30t85.5 -24zM709 -43l-277 80q-103 -34 -169 -73t-66 -111q0 -50 45.5 -83t121.5 -48 t160 -15q165 3 248.5 31.5t83.5 97.5q0 49 -42.5 76t-104.5 45z"/>
<glyph glyph-name="h" horiz-adv-x="1184" unicode="h" d="M377 780v-499q0 -82 2.5 -116.5t15 -57t37.5 -31t84 -17.5v-59h-457v59q72 9 99 25.5t33 55t6 141.5v927q0 88 -12.5 124.5t-44.5 47t-115 17.5v59l352 117v-709q90 79 183 117.5t179 38.5q44 0 88 -8q89 -23 130.5 -107.5t41.5 -249.5v-383q0 -107 6 -143t31 -48 t101 -22v-59h-457v59q75 10 99 22t30 48t6 143v383q0 146 -43 203t-117 57q-70 0 -136.5 -36t-141.5 -99z"/>
<glyph glyph-name="i" horiz-adv-x="541" unicode="i" d="M248 1247q-56 0 -95.5 42.5t-39.5 99.5q0 53 39 94t96 41q56 0 96.5 -40.5t40.5 -94.5q0 -57 -40.5 -99.5t-96.5 -42.5zM43 59q65 11 90 20.5t38 36.5t13 85v526q0 66 -15 96t-40.5 37.5t-77.5 7.5v52l314 120v-827q0 -71 14 -101.5t37 -37.5t88 -15v-59h-461v59z"/>
<glyph glyph-name="j" horiz-adv-x="483" unicode="j" d="M231 1247q-55 0 -95 42.5t-40 99.5q0 53 40 94t95 41q37 0 68.5 -18.5t50.5 -50.5t19 -66q0 -57 -40.5 -99.5t-97.5 -42.5zM360 143v-75q0 -207 -49 -287q-40 -68 -110.5 -115.5t-157.5 -50.5q-58 0 -102.5 33.5t-44.5 91.5q0 43 33.5 75.5t78.5 32.5q40 0 52 -16 t29.5 -60t41.5 -57h8q41 0 41 80v37v895q0 66 -15 96t-40.5 37.5t-77.5 7.5v52l313 120v-897z"/>
<glyph glyph-name="k" horiz-adv-x="1133" unicode="k" d="M369 213q0 -72 15 -102t38.5 -37t89.5 -15v-59h-465v59q58 7 86.5 17t41.5 41t13 98v1049q0 81 -37.5 105t-109.5 24h-25v63l353 117v-1098l286 289q62 62 62 108q0 34 -27.5 53t-77.5 19v60h475v-60q-80 -3 -144.5 -40t-123.5 -95l-190 -180l282 -406q65 -92 108.5 -128 t117.5 -36v-59h-490v59q109 0 109 54q0 39 -47 110l-205 289l-135 -127v-172z"/>
<glyph glyph-name="l" horiz-adv-x="541" unicode="l" d="M377 213q0 -72 15 -102t38.5 -37t89.5 -15v-59h-465v59q58 7 87 17.5t42 41t13 97.5v1049q0 81 -37 105t-113 24h-22v63l352 117v-1360z"/>
<glyph glyph-name="m" horiz-adv-x="1729" unicode="m" d="M948 836q92 90 176.5 139t184.5 49q90 0 146.5 -46t81 -120t24.5 -162v-424q0 -103 8.5 -141.5t35 -51.5t95.5 -20v-59h-457v59q74 10 99.5 24t31.5 50t6 139v383q0 114 -28 185t-119 71q-76 0 -146 -39t-122 -104v-496q0 -107 6 -143t30 -48t99 -22v-59h-453v59 q56 7 80.5 14t36.5 25.5t16 54t4 119.5v383q0 256 -155 256q-144 0 -264 -143v-487q0 -82 2.5 -116.5t15 -57t37.5 -31t84 -17.5v-59h-461v59q70 8 98 21t35.5 44t7.5 103v49v396q0 95 -7.5 133t-33.5 50.5t-92 12.5v52l314 120v-204q64 84 151 134t184 50q84 0 149.5 -49.5 t98.5 -134.5z"/>
<glyph glyph-name="n" horiz-adv-x="1133" unicode="n" d="M365 780v-499q0 -103 6 -141.5t32 -55t97 -25.5v-59h-457v59q70 8 98 21t35.5 45t7.5 106v50v387q0 95 -7.5 134t-34.5 52.5t-91 13.5v52l314 120v-176q58 70 146.5 113t176.5 43q76 0 137.5 -32t89.5 -91q37 -73 37 -201v-424q0 -70 4 -112.5t16 -61t34.5 -25.5 t80.5 -14v-59h-458v59q74 10 101 23.5t34.5 50t7.5 139.5v383q0 108 -36.5 184t-131.5 76q-62 0 -109.5 -31t-129.5 -104z"/>
<glyph glyph-name="o" horiz-adv-x="1079" unicode="o" d="M541 43q81 6 136.5 72t82 170t28.5 219q0 118 -25.5 220.5t-81.5 167t-140 64.5q-102 0 -159 -73.5t-77 -176t-20 -202.5q3 -184 68 -322.5t188 -138.5zM545 -25q-124 0 -232.5 68t-174 186t-66.5 254q4 9 4 17q1 146 65 266.5t170 189t230 68.5q92 0 176 -41t145 -112 t96.5 -165.5t36.5 -197.5q0 -147 -59 -266.5t-163 -190t-228 -76.5z"/>
<glyph glyph-name="p" horiz-adv-x="1079" unicode="p" d="M348 -152q0 -69 15 -98t40.5 -36t88.5 -13v-61h-463v61q58 5 85.5 14t40.5 38.5t13 99.5v878q0 91 -30 114t-105 23v52l315 120v-147q70 63 140.5 97t152.5 34q123 0 210.5 -79t132 -202t44.5 -256q-6 -128 -56.5 -245t-144 -189.5t-219.5 -72.5q-66 0 -128 28.5 t-132 95.5v-256zM348 184q47 -42 71.5 -61.5t65.5 -38t86 -21.5q10 3 30 5t28 4q81 20 127 95.5t63 170t17 186.5q0 66 -13 135t-44 132.5t-81.5 102t-122.5 38.5q-41 0 -85 -15.5t-80 -43t-62 -62.5v-627z"/>
<glyph glyph-name="q" horiz-adv-x="1133" unicode="q" d="M784 -152v265q-142 -138 -309 -138q-123 0 -212.5 77t-135.5 195t-51 240q0 128 49.5 252.5t142.5 204.5t215 80q179 0 293 -135l164 178h21v-1210q0 -72 12 -102t40 -39.5t91 -14.5v-61h-463v61q61 6 87 13t41 36t15 98zM784 188v623q-105 104 -229 104 q-96 0 -160.5 -61t-95.5 -153t-31 -185q0 -149 49 -282.5t170 -161.5q23 0 54 -9q78 4 130.5 37t112.5 88z"/>
<glyph glyph-name="r" horiz-adv-x="809" unicode="r" d="M360 709v-437q0 -107 6 -143t30.5 -48t99.5 -22v-59h-453v59q76 10 100.5 22t30.5 48t6 143v449q0 62 -8.5 91t-37 42.5t-91.5 13.5v52l317 120v-243q83 105 165 174t171 69q52 0 87.5 -33.5t35.5 -86.5q0 -52 -28.5 -83.5t-77.5 -31.5q-20 0 -34.5 5.5t-45.5 20.5 t-48 22t-40 7q-89 0 -185 -151z"/>
<glyph glyph-name="s" horiz-adv-x="915" unicode="s" d="M713 1040l118 -335l-47 -25q-98 128 -189.5 202t-203.5 74q-63 0 -111.5 -40.5t-48.5 -100.5q0 -52 34.5 -87t99.5 -64q38 -16 152.5 -53.5t186.5 -72t122.5 -97t50.5 -152.5q-3 -87 -52 -158.5t-125.5 -113.5t-158.5 -42q-32 0 -103 25t-110 25q-31 0 -61.5 -13 t-53.5 -37l-129 349l45 24q74 -115 196 -210t228 -95q47 0 88 22.5t65.5 61.5t24.5 86q0 60 -41.5 99t-118.5 69q-25 10 -139 47t-180 69t-111 89.5t-45 144.5q0 83 45.5 151t120 105t154.5 37q45 0 112 -16.5t93 -16.5q48 0 92 49z"/>
<glyph glyph-name="t" horiz-adv-x="633" unicode="t" d="M168 936h-148v47q73 33 129 91.5t89.5 132.5t42.5 153h67v-356h289v-68h-289v-625q0 -26 -4 -47q4 -82 27 -129t94 -47q56 0 96 26t82 74l37 -41q-143 -166 -303 -172q-121 0 -165 81t-44 216v664z"/>
<glyph glyph-name="u" horiz-adv-x="1133" unicode="u" d="M756 231v469q0 81 -13 119q-9 26 -34.5 37.5t-83.5 11.5v52l311 120v-751q0 -106 6.5 -147.5t35.5 -59.5t101 -23v-59h-319v147q-153 -167 -332 -167q-76 0 -137.5 35t-93.5 102q-33 57 -33 198v402q0 59 -8.5 89.5t-39 47.5t-87.5 18v43l315 121v-680q0 -120 29.5 -192 t130.5 -80q71 11 128.5 47t123.5 100z"/>
<glyph glyph-name="v" horiz-adv-x="973" unicode="v" d="M520 252l185 479q22 82 22 117q0 47 -29 70t-102 26v60h403v-60q-55 0 -89.5 -32t-57 -87t-41.5 -100l-287 -725h-96l-311 784q-14 38 -25 63.5t-26.5 47t-38.5 35t-56 14.5v60h457v-60q-71 0 -101.5 -19t-33.5 -61q6 -42 31 -108z"/>
<glyph glyph-name="w" horiz-adv-x="1456" unicode="w" d="M739 651l-247 -651h-52l-293 797q-27 80 -62.5 113.5t-104.5 33.5v60h419v-60q-38 0 -65.5 -11.5t-30.5 -51.5q4 -13 12 -45l189 -543l188 504q-43 147 -176 147v60h436v-60q-58 0 -85.5 -12t-30.5 -47q7 -30 16 -58l184 -524l185 490q8 36 8 55q0 96 -150 96v60h410v-60 q-120 0 -180 -168l-277 -776h-63z"/>
<glyph glyph-name="x" horiz-adv-x="1079" unicode="x" d="M604 537l215 -273q15 -16 49.5 -57.5t70.5 -74.5t72.5 -53t75.5 -20v-59h-475v59q101 0 101 41q0 21 -41 72l-185 223l-159 -202q-23 -28 -29 -64q3 -34 44 -52t101 -18v-59h-452v59q63 9 114 44t90.5 78t100.5 118l135 172l-248 313q-117 156 -200 160v60h487v-60 q-63 0 -91.5 -12.5t-31.5 -38.5q4 -30 47 -92l150 -185l131 168q45 51 45 97q0 63 -117 63v60h432v-60q-84 0 -130 -38t-122 -130z"/>
<glyph glyph-name="y" d="M537 256l176 449q39 105 39 147q0 48 -33.5 70t-114.5 22v60h436v-60q-66 0 -108.5 -34.5t-67.5 -86.5t-63 -159l-297 -732q-54 -147 -121 -232t-186 -85q-75 0 -118 40.5t-46 96.5q3 44 32 74.5t78 30.5q50 0 93 -45q14 -12 22 -19t17.5 -11.5t21.5 -4.5q60 0 94 98 l53 141l-297 748q-13 36 -26.5 70t-31.5 58.5t-45.5 38t-72.5 13.5v60h465v-60q-67 0 -96.5 -15t-32.5 -52q7 -42 29 -93z" unicode="y"/>
<glyph glyph-name="z" horiz-adv-x="915" unicode="z" d="M264 59h96q106 0 189 23t155 90t132 193l63 -25l-119 -340h-772l664 944h-84q-169 0 -268 -71.5t-173 -213.5l-55 33l121 312h715z"/>
<glyph glyph-name="braceleft" horiz-adv-x="809" unicode="{" d="M487 391v-350q0 -100 41 -157t144 -81v-8q-138 0 -212 33t-101 99.5t-27 181.5v344q0 100 -39.5 151.5t-149.5 71.5v4q79 21 119.5 50t55 73t14.5 117v340q0 115 27.5 182.5t100.5 99t212 31.5v-4q-105 -26 -145 -80.5t-40 -157.5v-387q0 -76 -14.5 -126.5t-59 -85.5 t-128.5 -52v-4q124 -19 163 -89t39 -196z"/>
<glyph glyph-name="bar" horiz-adv-x="512" unicode="|" d="M184 0v1573h144v-1573h-144z"/>
<glyph glyph-name="braceright" horiz-adv-x="809" unicode="}" d="M311 973v354q0 97 -40.5 154.5t-141.5 79.5v8q139 0 212 -31.5t100.5 -100t27.5 -182.5v-340q0 -102 37.5 -153.5t148.5 -73.5v-4q-114 -29 -150 -80t-36 -155v-345q0 -115 -28 -182.5t-101 -99t-211 -31.5v8q71 17 111 47.5t55.5 76t15.5 114.5v383q0 77 15 127.5 t59 85.5t131 51v4q-85 14 -130 53.5t-60 97t-15 134.5z"/>
<glyph glyph-name="asciitilde" d="M68 461q44 76 71.5 114.5t73 71.5t102.5 33q51 0 101 -18t120 -53t104 -48.5t77 -19.5q58 10 94 46t70 101l75 -63q-45 -76 -71 -113t-68 -66.5t-100 -29.5q-62 0 -131.5 35t-139 69.5t-131.5 34.5q-60 0 -99 -43.5t-77 -116.5z" unicode="~"/>
<glyph glyph-name="nonbreakingspace" horiz-adv-x="1536" unicode=" "/>
<glyph glyph-name="exclamdown" horiz-adv-x="541" unicode="¡" d="M281 768q-53 0 -91 37t-38 92t38 91t91 36q50 0 88.5 -36.5t38.5 -90.5t-38.5 -91.5t-88.5 -37.5zM311 664l13 -291q2 -43 8.5 -110.5t15.5 -133.5t22.5 -150.5t20.5 -134.5q2 -13 9.5 -50.5t7.5 -65.5q-3 -57 -36.5 -94.5t-90.5 -41.5q-55 0 -90 41.5t-35 98.5 q0 92 10 153t38 224t32 231l12 324h63z"/>
<glyph glyph-name="cent" d="M520 223q-127 11 -223.5 84.5t-147.5 185t-51 228.5q0 29 2 43q9 95 39 179t81 150t128 110t172 57v256h92v-248q65 0 142 -26t131.5 -73.5t58.5 -107.5q0 -51 -31.5 -84.5t-81.5 -36.5q-45 11 -68 39t-45 78.5t-44 83t-62 47.5q-30 12 -71 12q-93 0 -147.5 -67.5 t-75.5 -163.5t-21 -185q0 -140 39.5 -240t111 -153t164.5 -59q114 0 189 49t143 131l33 -29q-64 -105 -161.5 -174t-203.5 -86v-266h-92v266z" unicode="¢"/>
<glyph glyph-name="sterling" d="M332 160q-99 92 -176 92q-44 0 -74.5 -30.5t-30.5 -74.5q3 -46 41 -75t84 -29q49 3 93 33.5t63 83.5zM453 256q54 -30 98.5 -53t107 -45t117.5 -23q56 6 96 25q47 25 71.5 75.5t33.5 137.5h67q0 -155 -77 -274t-219 -119q-92 0 -176.5 40.5t-186.5 108.5 q-43 -68 -95.5 -108.5t-121.5 -40.5q-76 0 -130 45t-54 122q0 85 63 137t150 52q27 0 54.5 -6t60 -16.5t53.5 -16.5q0 65 -13 135.5t-32 135t-31 104.5h-205v96h172q-60 182 -68 319q6 111 57.5 202t140 143.5t202.5 52.5q84 0 166.5 -38t136 -104.5t57.5 -154.5 q0 -59 -30.5 -93.5t-77.5 -37.5q-91 11 -105 114q8 58 8 93q0 46 -20.5 82t-56.5 56.5t-82 20.5q-69 0 -116.5 -38t-70.5 -97.5t-28 -128.5q1 -40 11.5 -99t28.5 -138t35 -154h367v-96h-342q14 -68 20.5 -111.5t6.5 -89.5q0 -103 -43 -215z" unicode="£"/>
<glyph glyph-name="currency" d="M492 1100q-93 0 -176.5 -48t-132 -130t-48.5 -179q0 -94 48.5 -176t130.5 -131t178 -49q97 0 180 46.5t131.5 127.5t48.5 178q0 100 -47 182t-130.5 130.5t-182.5 48.5zM29 336l106 113q-103 119 -110 290q6 176 110 305l-106 105l59 59l109 -104q130 104 295 104 q82 0 160 -26.5t141 -77.5l106 104l62 -59l-109 -105q51 -55 80 -134t29 -167q0 -78 -28 -153.5t-81 -140.5l109 -113l-62 -55l-106 106q-120 -103 -301 -111q-175 8 -295 111l-109 -106z" unicode="¤"/>
<glyph glyph-name="yen" d="M743 948h226v-104h-264l-64 -172h328v-105h-348v-268q0 -78 5 -117t21.5 -64t55 -37.5t106.5 -12.5v-68h-582v68q92 0 131 19t50.5 62t11.5 140v278h-361v105h332l-63 172h-269v104h230l-70 189q-42 117 -94.5 187t-149.5 73v67h461v-67q-52 0 -74.5 -17.5t-25.5 -56.5 q3 -25 41 -135l176 -483l172 483q10 32 16.5 55.5t10.5 42t4 35.5q0 71 -101 76v67h398v-67q-63 0 -108.5 -38.5t-73.5 -90.5t-60 -131z" unicode="¥"/>
<glyph glyph-name="brokenbar" horiz-adv-x="356" unicode="¦" d="M176 0v1565h164v-1565h-164z"/>
<glyph glyph-name="section" d="M373 893q-115 -95 -121 -188q6 -88 113 -173q35 -29 88.5 -61.5t141 -82t110.5 -64.5q88 91 88 172q0 69 -50 129t-127 106q-36 26 -93 60.5t-87 53.5t-63 48zM332 920q-136 119 -144 276q6 96 56.5 170.5t132 114t178.5 39.5q57 0 121.5 -17t120 -52t89.5 -84.5 t34 -111.5q0 -116 -109 -135q-36 3 -62 24t-32 56q0 8 -4 17q22 94 22 110q0 64 -55.5 100.5t-124.5 36.5q-95 0 -167.5 -51t-72.5 -141q0 -64 33.5 -114.5t78 -84.5t126.5 -86q121 -70 193 -119t129 -125.5t57 -171.5q0 -88 -50.5 -163t-117.5 -119q77 -58 122.5 -141 t45.5 -168q0 -108 -62.5 -190.5t-163 -126.5t-206.5 -44q-93 0 -181.5 41t-145 116t-56.5 173q0 62 34.5 98.5t79.5 36.5q43 0 74 -30t31 -74q0 -30 -15 -79t-18 -65q6 -79 66.5 -117t142.5 -38q69 0 132 24t104 71.5t45 114.5q0 93 -58.5 163t-167.5 135t-200.5 119 t-143.5 108q-92 92 -98 225q3 79 52.5 152t154.5 127z" unicode="§"/>
<glyph glyph-name="dieresis" horiz-adv-x="973" unicode="¨" d="M831 1260q0 -47 -33 -79t-77 -32q-48 0 -80.5 32.5t-32.5 78.5q0 48 31.5 82t77.5 34q50 0 82 -34t32 -82zM377 1260q0 -48 -34 -79.5t-79 -31.5q-43 0 -77.5 32.5t-34.5 78.5q0 32 15 58.5t41 42t56 15.5q31 0 57 -15.5t41 -41.5t15 -59z"/>
<glyph glyph-name="copyright" horiz-adv-x="1636" unicode="©" d="M1149 1163v-243h-66q-5 71 -34.5 124t-81.5 82t-123 29q-101 0 -170.5 -52.5t-103 -139t-33.5 -191.5q0 -162 85 -284.5t238 -122.5q91 0 162 49t94 110l60 -16q-29 -70 -88.5 -121t-134.5 -76.5t-152 -25.5q-132 0 -232 61t-154.5 167.5t-54.5 238.5q0 102 33.5 191 t95 151.5t148 96.5t190.5 34q81 0 164.5 -17t157.5 -45zM823 59q184 0 340 94t246 253t90 346q0 185 -94 345.5t-252.5 253.5t-341.5 93t-338.5 -93.5t-246.5 -253.5t-91 -345t93.5 -345t252.5 -254t342 -94zM809 -25q-154 0 -290.5 60.5t-242 170t-163.5 250.5t-58 296 q0 154 57.5 295t161.5 249t242.5 168t294.5 60q158 0 298.5 -58.5t248 -165t166.5 -247.5t59 -301t-60 -302.5t-167.5 -249t-249 -166t-297.5 -59.5z"/>
<glyph glyph-name="ordfeminine" horiz-adv-x="696" unicode="ª" d="M420 1272v80q0 56 -20 94.5t-72 38.5q-84 0 -113 -92q-5 -34 -22 -50t-54 -16q-26 0 -44.5 17t-18.5 40q0 48 40 80t96.5 46t106.5 14q114 0 168 -39q38 -28 46 -59.5t8 -86.5v-278q0 -34 7 -57t32 -23q26 0 53 27l14 -25q-57 -86 -135 -86q-38 0 -61.5 24t-26.5 62 q-51 -40 -102.5 -63t-112.5 -23q-69 0 -117.5 41t-48.5 106q0 107 105.5 152.5t271.5 75.5zM420 1032v201q-54 -8 -109 -31t-93 -60t-38 -85q0 -33 11.5 -50.5t34.5 -27t46 -18.5q105 16 148 71zM43 748v67h541v-67h-541z"/>
<glyph glyph-name="guillemotleft" horiz-adv-x="973" unicode="«" d="M500 877l28 -33l-231 -324l231 -315l-28 -29l-412 344zM860 877l25 -33l-230 -324l230 -315l-25 -29l-411 344z"/>
<glyph glyph-name="logicalnot" d="M944 756v-576h-121v457h-743v119h864z" unicode="¬"/>
<glyph glyph-name="registered" horiz-adv-x="1636" unicode="®" d="M700 801h35q135 0 208 37.5t73 160.5q0 93 -58 141t-149 48q-71 0 -90 -13.5t-19 -78.5v-295zM700 752v-256q0 -61 5.5 -85t25.5 -29t78 -5v-41h-356v41q22 1 42.5 1.5t34 6t19.5 18.5t6 41v693q0 35 -28.5 45t-73.5 10v47h358q144 0 248 -48t104 -175q0 -64 -35 -117.5 t-90.5 -85t-117.5 -33.5v-8q66 -11 110 -70.5t82 -148.5q18 -40 32.5 -70t30.5 -52.5t39 -38t54 -15.5v-41h-60q-20 0 -37 -4q-13 1 -38.5 4t-43.5 8t-32 16q-30 22 -47.5 62t-44.5 115q-21 51 -40 94t-37.5 67t-53.5 39t-91 15h-43zM809 59q141 0 267.5 54t220.5 148 t148 220.5t54 270.5q0 142 -52 269t-145 221.5t-218.5 148t-268.5 53.5q-185 0 -342.5 -93.5t-249.5 -254.5t-92 -344q0 -187 90.5 -346t247 -253t340.5 -94zM809 -25q-206 0 -380.5 105t-276 283t-101.5 385q0 206 101.5 385t275.5 285t381 106q157 0 297.5 -57.5t249 -164 t168 -247.5t59.5 -299q0 -159 -59.5 -301.5t-167.5 -250.5t-249.5 -168.5t-297.5 -60.5z"/>
<glyph glyph-name="plusminus" d="M944 0h-864v121h864v-121zM80 688h373v336h118v-336h373v-121h-373v-336h-118v336h-373v121z" unicode="±"/>
<glyph glyph-name="twosuperior" horiz-adv-x="696" unicode="²" d="M164 688h147q150 0 201 12q48 14 80.5 44t58.5 87l45 -8l-63 -231h-565l-9 59q47 67 102.5 129.5t106.5 109t104.5 96.5t98.5 101q38 41 58 87t20 90q0 80 -52 132t-137 52q-53 0 -95 -27t-52 -73q2 -13 20.5 -47.5t18.5 -57.5q0 -35 -39 -55q-3 0 -37 -8q-74 8 -84 67 q-4 20 -4 33q0 55 41.5 103t109.5 77t138 29q67 0 141.5 -27t126 -83.5t51.5 -135.5q-6 -50 -29 -89.5t-59.5 -73.5t-87.5 -70t-100 -70q-81 -57 -131 -103.5t-125 -148.5z"/>
<glyph glyph-name="threesuperior" horiz-adv-x="696" unicode="³" d="M416 1067q121 -12 196.5 -81.5t75.5 -176.5q-14 -81 -67 -126.5t-113.5 -63.5t-163.5 -39q-94 3 -166.5 35t-97.5 81q-6 24 -12 43q14 47 25.5 65.5t49.5 18.5q35 0 57.5 -19.5t22.5 -51.5q0 -26 -8 -52q4 -28 36 -50t89 -25q95 0 146 65t51 158q0 73 -41.5 132.5 t-110.5 59.5q-17 0 -51 -4t-49 -4q-54 0 -54 35q0 37 62 37q7 -1 24.5 -4t35 -5.5t24.5 -2.5q55 3 91 59.5t36 132.5q-6 68 -42 115t-102 53q-81 0 -124 -47q-9 -22 -9 -37q0 -10 2 -26t2 -25q0 -33 -18.5 -53.5t-44.5 -20.5q-32 0 -58.5 19t-29.5 55q63 176 305 176 q108 -6 183 -60.5t79 -140.5q0 -63 -40 -110.5t-95 -76.5t-96 -38z"/>
<glyph glyph-name="acute" horiz-adv-x="592" unicode="´" d="M268 1104l-37 20l101 281q15 54 37.5 84.5t66.5 30.5q29 0 48.5 -13.5t19.5 -38.5q0 -33 -60 -120q-69 -94 -108 -148z"/>
<glyph glyph-name="mu" horiz-adv-x="1133" unicode="µ" d="M756 0v143q-77 -75 -148 -121.5t-155 -46.5q-33 0 -88 17q0 -54 13 -150.5t13 -117.5q0 -51 -22.5 -87t-79.5 -36h-4q-106 0 -113 131q4 16 4 45q9 57 17.5 143t11.5 189q-45 60 -45 247v365q0 61 -7.5 90.5t-35 43t-88.5 13.5v52l315 120v-737q0 -92 40.5 -153.5 t127.5 -61.5q68 0 118.5 35.5t125.5 107.5v490q0 61 -7.5 90.5t-35 43t-88.5 13.5v52l311 120v-759q0 -108 6.5 -146t33 -52t103.5 -24v-59h-323z"/>
<glyph glyph-name="paragraph" horiz-adv-x="1348" unicode="¶" d="M584 713v719q-128 0 -194 -47t-88 -125q-21 -78 -21 -195q0 -352 264 -352h39zM977 1432h-213v-1725h213v1725zM584 -104v747h-97q-121 1 -223 45t-161 138q-60 94 -60 235q3 99 30 179t81 139q54 58 135 89t190 31h848v-67q-89 0 -121 -12t-42 -50t-9 -141v-1321 q-1 -107 9 -145t40 -47t123 -9v-67h-950v67h59q80 1 108 11t34 44t6 134z"/>
<glyph glyph-name="cedilla" horiz-adv-x="700" unicode="¸" d="M352 -121q79 0 129.5 -36t50.5 -99q0 -56 -37.5 -101t-93.5 -70.5t-108 -25.5q-132 0 -146 66q10 20 17.5 26.5t32.5 12.5q13 -4 43 -18.5t44.5 -19.5t34.5 -5q46 0 85.5 29t39.5 73q0 52 -44.5 71t-88.5 34q-27 -4 -92 -29l-14 25l180 188h64z"/>
<glyph glyph-name="onesuperior" horiz-adv-x="696" unicode="¹" d="M117 596v41q80 0 117.5 7t59 38t21.5 102v420q0 64 -18.5 92.5t-57.5 35.5t-130 7v41q101 3 170 28t120 81h58v-725q0 -59 25 -86.5t63 -34t102 -6.5v-41h-530z"/>
<glyph glyph-name="ordmasculine" horiz-adv-x="696" unicode="º" d="M352 897q-80 0 -150.5 40.5t-114 109.5t-44.5 153q2 2 3 4.5t1 3.5q3 132 92 224t209 92q79 0 147 -42t108 -114t40 -156q0 -88 -38 -159t-105.5 -112t-147.5 -44zM348 936q80 6 120.5 85t43.5 191q0 109 -39.5 189t-124.5 80q-89 0 -126.5 -82.5t-37.5 -186.5 q3 -110 44.5 -193t119.5 -83zM76 815h545v-67h-545v67z"/>
<glyph glyph-name="guillemotright" horiz-adv-x="973" unicode="»" d="M475 877l410 -357l-410 -344l-26 29l231 315l-231 324zM117 877l411 -357l-411 -344l-29 29l227 315l-227 324z"/>
<glyph glyph-name="onequarter" horiz-adv-x="1540" unicode="¼" d="M365 -4l776 1493h110l-780 -1489zM1247 700l-332 -424h332v424zM836 276l485 613h72v-613h180v-57h-180v-63q2 -46 10 -70t33.5 -34.5t83.5 -10.5v-41h-412v41q66 0 96 11.5t36.5 33.5t6.5 70v63h-411v57zM33 596v41q80 0 119.5 7t61.5 39t22 101v420q0 64 -19 92.5 t-57.5 35.5t-130.5 7v41q101 3 170 28t120 81h58v-725q0 -59 25 -86.5t63 -34t102 -6.5v-41h-534z"/>
<glyph glyph-name="onehalf" horiz-adv-x="1540" unicode="½" d="M340 -4l780 1493h109l-780 -1489zM33 596v41q80 0 119.5 7t61.5 39t22 101v420q0 64 -19 92.5t-57.5 35.5t-130.5 7v41q101 3 170 28t120 81h58v-725q0 -59 25 -86.5t63 -34t102 -6.5v-41h-534zM1008 96h147q150 0 201 13q47 12 80 42.5t59 88.5l45 -9l-67 -231h-562 l-8 59q50 74 102 131.5t111.5 112t109.5 101t91 92.5q76 85 76 176q0 52 -24 94t-68.5 66t-100.5 24q-55 -3 -94 -28.5t-49 -71.5q2 -10 10 -25.5t13.5 -25.5t10.5 -25t5 -29q0 -30 -20 -42.5t-60 -20.5q-69 8 -84 67q-4 22 -4 29q0 43 25 82t66 67.5t95 46t107 17.5 q66 0 141 -27t126.5 -83t51.5 -136q-6 -50 -29 -89.5t-58.5 -73t-65 -54.5t-123.5 -86q-81 -57 -131 -103.5t-125 -148.5z"/>
<glyph glyph-name="threequarters" horiz-adv-x="1540" unicode="¾" d="M387 1067q78 -8 140.5 -41.5t97 -88.5t34.5 -128q-13 -82 -65 -127t-114 -63.5t-165 -38.5q-94 3 -166.5 35t-97.5 81q-10 41 -10 43q5 25 11.5 43t21 29.5t43.5 11.5q33 0 56.5 -19.5t23.5 -51.5q0 -29 -9 -52q6 -29 36.5 -50.5t86.5 -24.5q68 0 112.5 31t64.5 81 t20 111q0 73 -40.5 132.5t-111.5 59.5q-16 0 -49 -4t-51 -4q-51 0 -51 35q0 37 59 37q8 -1 25 -4t34 -5.5t25 -2.5q55 3 91 59.5t36 132.5q-5 67 -42 114.5t-101 53.5q-110 0 -131 -88q4 -16 4 -55q0 -31 -18.5 -48.5t-47.5 -17.5q-30 0 -57.5 19t-30.5 55q61 176 309 176 q105 -6 180 -61t81 -140q0 -63 -40.5 -110.5t-95.5 -76.5t-98 -38zM801 276l483 613h72v-613h180v-57h-180v-63q2 -46 10 -70t33.5 -34.5t81.5 -10.5v-41h-410v41q67 0 97 11.5t37 33.5t7 70v63h-411v57zM1212 700l-331 -424h331v424zM387 -4l780 1493h109l-780 -1489z"/>
<glyph glyph-name="questiondown" horiz-adv-x="809" unicode="¿" d="M403 899q0 51 40.5 88t93.5 37q47 0 84.5 -37.5t37.5 -87.5q0 -54 -36 -92.5t-86 -38.5q-55 0 -94.5 38.5t-39.5 92.5zM504 428v236h84v-400h-64q-135 0 -207.5 -78.5t-72.5 -210.5q0 -96 36.5 -180t114.5 -84q45 1 70 21t49 55t48 54t67 20q27 0 51 -13t37.5 -36.5 t13.5 -55.5q0 -78 -68.5 -118.5t-162.5 -45.5q-84 0 -158.5 34.5t-132 98.5t-87.5 142t-30 162q0 128 51 217t145.5 135t215.5 47z"/>
<glyph glyph-name="Agrave" horiz-adv-x="1348" unicode="À" d="M768 1645l-63 96q-21 32 -55.5 76t-53.5 71q-64 99 -64 133q4 16 24 27.5t44 11.5q74 0 109 -114l96 -281zM-59 0v68q87 0 149.5 59t110.5 201l391 1171l192 53l408 -1224q36 -102 68 -155t71 -76.5t96 -28.5v-68h-604v68q70 0 111 5.5t63.5 23.5t22.5 55q0 36 -12 75 l-105 318h-522l-92 -273q-20 -79 -21 -88q3 -65 53 -90.5t144 -25.5v-68h-524zM877 637l-234 686l-231 -686h465z"/>
<glyph glyph-name="Aacute" horiz-adv-x="1348" unicode="Á" d="M649 1604l-37 20l101 281q15 54 37.5 84t66.5 30q28 0 48 -13.5t20 -37.5q0 -34 -60 -121q-51 -68 -108 -147zM-59 0v68q87 0 149.5 59t110.5 201l391 1171l192 53l408 -1224q36 -102 68 -155t71 -76.5t96 -28.5v-68h-604v68q70 0 111 5.5t63.5 23.5t22.5 55q0 36 -12 75 l-105 318h-522l-92 -273q-20 -79 -21 -88q3 -65 53 -90.5t144 -25.5v-68h-524zM877 637l-234 686l-231 -686h465z"/>
<glyph glyph-name="Acircumflex" horiz-adv-x="1348" unicode="Â" d="M684 1855l-197 -260l-36 29l133 295q17 48 37 72.5t63 27.5q64 0 98 -100l138 -295l-41 -29zM-59 0v68q87 0 149.5 59t110.5 201l391 1171l192 53l408 -1224q36 -102 68 -155t71 -76.5t96 -28.5v-68h-604v68q70 0 111 5.5t63.5 23.5t22.5 55q0 36 -12 75l-105 318h-522 l-92 -273q-20 -79 -21 -88q3 -65 53 -90.5t144 -25.5v-68h-524zM877 637l-234 686l-231 -686h465z"/>
<glyph glyph-name="Atilde" horiz-adv-x="1348" unicode="Ã" d="M311 1679q36 79 89.5 136t123.5 57q40 0 80 -10.5t86.5 -28.5t83 -29.5t70.5 -15.5q66 6 108 84h60q-32 -87 -91.5 -138.5t-105.5 -54.5q-37 0 -69 7.5t-90.5 27.5t-101.5 30.5t-83 10.5q-62 0 -96 -76h-64zM-59 0v68q87 0 149.5 59t110.5 201l391 1171l192 53l408 -1224 q36 -102 68 -155t71 -76.5t96 -28.5v-68h-604v68q70 0 111 5.5t63.5 23.5t22.5 55q0 36 -12 75l-105 318h-522l-92 -273q-20 -79 -21 -88q3 -65 53 -90.5t144 -25.5v-68h-524zM877 637l-234 686l-231 -686h465z"/>
<glyph glyph-name="Adieresis" horiz-adv-x="1348" unicode="Ä" d="M1020 1759q0 -46 -33 -78t-78 -32q-47 0 -79.5 32.5t-32.5 77.5q0 48 31.5 82.5t76.5 34.5q51 0 83 -34.5t32 -82.5zM565 1759q0 -47 -33.5 -78.5t-78.5 -31.5q-44 0 -78.5 32.5t-34.5 77.5q0 48 32.5 82.5t80.5 34.5t80 -34.5t32 -82.5zM-59 0v68q87 0 149.5 59 t110.5 201l391 1171l192 53l408 -1224q36 -102 68 -155t71 -76.5t96 -28.5v-68h-604v68q70 0 111 5.5t63.5 23.5t22.5 55q0 36 -12 75l-105 318h-522l-92 -273q-20 -79 -21 -88q3 -65 53 -90.5t144 -25.5v-68h-524zM877 637l-234 686l-231 -686h465z"/>
<glyph glyph-name="Aring" horiz-adv-x="1348" unicode="Å" d="M793 1804q0 52 -35.5 89.5t-85.5 37.5q-47 0 -84 -37t-37 -86q0 -50 35.5 -87.5t85.5 -37.5t85.5 35.5t35.5 85.5zM872 1804q0 -81 -59.5 -138.5t-140.5 -57.5q-85 0 -141 57t-56 139q0 56 26 102.5t70.5 73.5t100.5 27t101.5 -27.5t72 -74.5t26.5 -101zM-59 0v68 q87 0 149.5 59t110.5 201l391 1171l192 53l408 -1224q36 -102 68 -155t71 -76.5t96 -28.5v-68h-604v68q70 0 111 5.5t63.5 23.5t22.5 55q0 36 -12 75l-105 318h-522l-92 -273q-20 -79 -21 -88q3 -65 53 -90.5t144 -25.5v-68h-524zM877 637l-234 686l-231 -686h465z"/>
<glyph glyph-name="AE" horiz-adv-x="2103" unicode="Æ" d="M981 641v770h-4l-436 -770h440zM981 545h-498q-65 -117 -94 -169.5t-55 -109t-27 -86.5q0 -64 52.5 -85.5t127.5 -26.5v-68h-546v68q64 0 118 32.5t93.5 81.5t73.5 108.5t59 104.5l344 617q24 44 58.5 104.5t59 116t25.5 90.5q0 63 -46.5 84t-121.5 25v67h1256l145 -350 l-53 -29q-80 107 -128 160.5t-103.5 88t-127.5 49t-188 14.5q-83 0 -126.5 -8.5t-63.5 -32t-25.5 -66.5t-5.5 -125v-385h84q93 0 159 15.5t105 54.5q65 56 72 186h61v-588h-66q0 77 -15.5 127t-47.5 82q-40 33 -90 44.5t-123 11.5h-55h-84v-472q0 -91 13.5 -132.5 t57.5 -58.5t138 -17q166 1 258 32t153 90.5t189 217.5l47 -21l-152 -387h-1095v68q61 0 95 11t49.5 32t27.5 61q12 33 12 180q4 68 4 193z"/>
<glyph glyph-name="Ccedilla" horiz-adv-x="1405" unicode="Ç" d="M717 -20q-74 1 -148 22.5t-141 60t-125 93.5q-50 53 -85.5 108t-64 125t-44.5 148t-17 163q0 141 51 288t142 268.5t211 194.5t252 73q60 -4 104 -17.5t97 -29.5t87 -17q82 8 148 43l137 -370l-53 -25q-99 119 -187 191.5t-168 104.5t-157 32q-61 0 -109 -13 q-101 -30 -171.5 -115.5t-107 -215t-36.5 -287.5v-49q2 -109 34.5 -224t95.5 -212.5t159 -156.5t219 -59q135 0 253 83.5t207 244.5l43 -29q-65 -152 -209 -283.5t-350 -139.5l-79 -101q80 0 128 -36t48 -103q0 -54 -36.5 -99t-91 -69.5t-110.5 -24.5q-130 0 -143 66 q9 21 15 27t30 12q9 -2 56.5 -22.5t70.5 -20.5q45 0 85 28.5t40 73.5q0 38 -19 56t-48 27t-66 22q-28 -4 -93 -29l-16 25z"/>
<glyph glyph-name="Egrave" horiz-adv-x="1348" unicode="È" d="M768 1645l-63 96q-21 32 -55.5 76t-53.5 71q-64 99 -64 133q4 16 24 27.5t44 11.5q74 0 109 -114l96 -281zM68 68q120 0 156 55.5t36 165.5v71v840q0 100 -20.5 149.5t-61 66t-110.5 16.5v67h1073l143 -350l-51 -29q-13 13 -45.5 56.5t-71 87.5t-72.5 71 q-57 47 -132.5 72t-190.5 25h-74q-87 0 -126 -18.5t-49.5 -59t-10.5 -125.5v-414h155q101 0 182.5 56t86.5 200h55v-588h-59q0 120 -45.5 179t-100.5 72.5t-119 13.5h-155v-500q0 -81 21 -119.5t58.5 -49.5t110.5 -11h62q123 0 204.5 26t135 70.5t123.5 133t92 114.5l49 -25 l-150 -387h-1099v68z"/>
<glyph glyph-name="Eacute" horiz-adv-x="1348" unicode="É" d="M649 1645l-37 20l101 281q15 54 37.5 84t66.5 30q28 0 48 -13.5t20 -37.5q0 -34 -60 -121q-51 -68 -108 -147zM68 68q120 0 156 55.5t36 165.5v71v840q0 100 -20.5 149.5t-61 66t-110.5 16.5v67h1073l143 -350l-51 -29q-13 13 -45.5 56.5t-71 87.5t-72.5 71 q-57 47 -132.5 72t-190.5 25h-74q-87 0 -126 -18.5t-49.5 -59t-10.5 -125.5v-414h155q101 0 182.5 56t86.5 200h55v-588h-59q0 120 -45.5 179t-100.5 72.5t-119 13.5h-155v-500q0 -81 21 -119.5t58.5 -49.5t110.5 -11h62q123 0 204.5 26t135 70.5t123.5 133t92 114.5l49 -25 l-150 -387h-1099v68z"/>
<glyph glyph-name="Ecircumflex" horiz-adv-x="1348" unicode="Ê" d="M682 1851l-197 -260l-36 29l133 295q17 48 37 72.5t63 27.5q64 0 98 -100l138 -295l-41 -29zM68 68q120 0 156 55.5t36 165.5v71v840q0 100 -20.5 149.5t-61 66t-110.5 16.5v67h1073l143 -350l-51 -29q-13 13 -45.5 56.5t-71 87.5t-72.5 71q-57 47 -132.5 72t-190.5 25 h-74q-87 0 -126 -18.5t-49.5 -59t-10.5 -125.5v-414h155q101 0 182.5 56t86.5 200h55v-588h-59q0 120 -45.5 179t-100.5 72.5t-119 13.5h-155v-500q0 -81 21 -119.5t58.5 -49.5t110.5 -11h62q123 0 204.5 26t135 70.5t123.5 133t92 114.5l49 -25l-150 -387h-1099v68z"/>
<glyph glyph-name="Edieresis" horiz-adv-x="1348" unicode="Ë" d="M1028 1755q0 -46 -33 -78t-77 -32q-48 0 -80.5 32.5t-32.5 77.5q0 48 31.5 82.5t76.5 34.5q51 0 83 -34.5t32 -82.5zM573 1755q0 -47 -33.5 -78.5t-78.5 -31.5q-44 0 -78.5 32.5t-34.5 77.5q0 48 32.5 82.5t80.5 34.5t80 -34.5t32 -82.5zM68 68q120 0 156 55.5t36 165.5 v71v840q0 100 -20.5 149.5t-61 66t-110.5 16.5v67h1073l143 -350l-51 -29q-13 13 -45.5 56.5t-71 87.5t-72.5 71q-57 47 -132.5 72t-190.5 25h-74q-87 0 -126 -18.5t-49.5 -59t-10.5 -125.5v-414h155q101 0 182.5 56t86.5 200h55v-588h-59q0 120 -45.5 179t-100.5 72.5 t-119 13.5h-155v-500q0 -81 21 -119.5t58.5 -49.5t110.5 -11h62q123 0 204.5 26t135 70.5t123.5 133t92 114.5l49 -25l-150 -387h-1099v68z"/>
<glyph glyph-name="Igrave" horiz-adv-x="700" unicode="Ì" d="M438 1649l-63 96q-21 32 -55.5 76t-53.5 71q-63 97 -63 133q3 17 23 28t44 11q74 0 109 -114l96 -281zM461 340q0 -116 15 -173t54.5 -78t120.5 -21v-68h-583v68q81 0 120.5 20.5t53.5 76.5t14 179l4 809q0 86 -8 139.5t-28 83.5t-56.5 43t-99.5 13v67h583v-67 q-84 0 -123.5 -23.5t-53 -80.5t-13.5 -175v-813z"/>
<glyph glyph-name="Iacute" horiz-adv-x="700" unicode="Í" d="M324 1599l-37 21l100 281q15 54 37.5 84t67.5 30q27 0 47 -13.5t20 -37.5q0 -32 -59 -121q-88 -118 -109 -147zM461 340q0 -116 15 -173t54.5 -78t120.5 -21v-68h-583v68q81 0 120.5 20.5t53.5 76.5t14 179l4 809q0 86 -8 139.5t-28 83.5t-56.5 43t-99.5 13v67h583v-67 q-84 0 -123.5 -23.5t-53 -80.5t-13.5 -175v-813z"/>
<glyph glyph-name="Icircumflex" horiz-adv-x="700" unicode="Î" d="M360 1855l-196 -260l-37 29l133 295q12 32 22.5 51.5t28.5 33.5t49 15q38 0 60.5 -26.5t38.5 -73.5l137 -295l-41 -29zM461 340q0 -116 15 -173t54.5 -78t120.5 -21v-68h-583v68q81 0 120.5 20.5t53.5 76.5t14 179l4 809q0 86 -8 139.5t-28 83.5t-56.5 43t-99.5 13v67 h583v-67q-84 0 -123.5 -23.5t-53 -80.5t-13.5 -175v-813z"/>
<glyph glyph-name="Idieresis" horiz-adv-x="700" unicode="Ï" d="M696 1755q0 -46 -33 -78t-77 -32q-48 0 -80.5 32.5t-32.5 77.5q0 48 31.5 82.5t77.5 34.5q50 0 82 -34.5t32 -82.5zM242 1755q0 -47 -34 -78.5t-79 -31.5q-44 0 -78.5 33.5t-34.5 76.5q0 47 32.5 82t80.5 35t80.5 -34t32.5 -83zM461 340q0 -116 15 -173t54.5 -78 t120.5 -21v-68h-583v68q81 0 120.5 20.5t53.5 76.5t14 179l4 809q0 86 -8 139.5t-28 83.5t-56.5 43t-99.5 13v67h583v-67q-84 0 -123.5 -23.5t-53 -80.5t-13.5 -175v-813z"/>
<glyph glyph-name="Ntilde" horiz-adv-x="1565" unicode="Ñ" d="M420 1683q36 79 89.5 136t123.5 57q59 0 164.5 -39.5t154.5 -44.5q65 6 109 84h59q-32 -85 -90.5 -136.5t-105.5 -56.5q-52 0 -111.5 19t-119.5 38t-113 19q-62 0 -97 -76h-63zM424 1499l793 -1114v768q0 114 -13.5 173t-53.5 82.5t-122 23.5v67h475v-67 q-82 0 -122.5 -24t-54 -81.5t-13.5 -173.5v-1153h-70l-887 1247v-899q0 -116 14 -174q13 -58 54 -82q40 -24 121 -24v-68h-477v68q81 0 122 24.5t55.5 83t14.5 172.5v805q0 116 -14.5 173.5t-56 81.5t-121.5 24v67h356z"/>
<glyph glyph-name="Ograve" horiz-adv-x="1565" unicode="Ò" d="M831 1645l-63 96q-21 32 -55.5 76t-53.5 71q-63 100 -63 133q3 17 23.5 28t44.5 11q75 0 108 -114l96 -281zM780 43q110 4 190.5 63t130.5 159.5t73 222.5t26 264q0 136 -25.5 262t-77 225t-132.5 158t-189 59q-166 0 -263.5 -111t-135 -269.5t-37.5 -323.5 q2 -187 49 -349.5t145.5 -261t245.5 -98.5zM784 -20q-207 0 -361.5 103.5t-236.5 280.5t-82 388q0 157 48.5 297.5t137 245.5t213 165.5t269.5 63.5q151 0 273.5 -61.5t209.5 -168t134 -247.5t47 -295q0 -210 -78 -384t-226.5 -278t-347.5 -110z"/>
<glyph glyph-name="Oacute" horiz-adv-x="1565" unicode="Ó" d="M756 1645l-37 20l100 281q18 56 39 85t66 29q27 0 47 -13.5t20 -37.5q0 -35 -59 -121q-88 -118 -109 -147zM780 43q110 4 190.5 63t130.5 159.5t73 222.5t26 264q0 136 -25.5 262t-77 225t-132.5 158t-189 59q-166 0 -263.5 -111t-135 -269.5t-37.5 -323.5 q2 -187 49 -349.5t145.5 -261t245.5 -98.5zM784 -20q-207 0 -361.5 103.5t-236.5 280.5t-82 388q0 157 48.5 297.5t137 245.5t213 165.5t269.5 63.5q151 0 273.5 -61.5t209.5 -168t134 -247.5t47 -295q0 -210 -78 -384t-226.5 -278t-347.5 -110z"/>
<glyph glyph-name="Ocircumflex" horiz-adv-x="1565" unicode="Ô" d="M788 1855l-196 -260l-37 29l133 295q12 32 22.5 51.5t28.5 33.5t49 15q38 0 60.5 -26.5t38.5 -73.5l137 -295l-41 -29zM780 43q110 4 190.5 63t130.5 159.5t73 222.5t26 264q0 136 -25.5 262t-77 225t-132.5 158t-189 59q-166 0 -263.5 -111t-135 -269.5t-37.5 -323.5 q2 -187 49 -349.5t145.5 -261t245.5 -98.5zM784 -20q-207 0 -361.5 103.5t-236.5 280.5t-82 388q0 157 48.5 297.5t137 245.5t213 165.5t269.5 63.5q151 0 273.5 -61.5t209.5 -168t134 -247.5t47 -295q0 -210 -78 -384t-226.5 -278t-347.5 -110z"/>
<glyph glyph-name="Otilde" horiz-adv-x="1565" unicode="Õ" d="M420 1683q36 79 89.5 136t123.5 57q59 0 164.5 -39.5t154.5 -44.5q65 6 109 84h59q-32 -85 -90.5 -136.5t-105.5 -56.5q-52 0 -111.5 19t-119.5 38t-113 19q-62 0 -97 -76h-63zM780 43q110 4 190.5 63t130.5 159.5t73 222.5t26 264q0 136 -25.5 262t-77 225t-132.5 158 t-189 59q-166 0 -263.5 -111t-135 -269.5t-37.5 -323.5q2 -187 49 -349.5t145.5 -261t245.5 -98.5zM784 -20q-207 0 -361.5 103.5t-236.5 280.5t-82 388q0 157 48.5 297.5t137 245.5t213 165.5t269.5 63.5q151 0 273.5 -61.5t209.5 -168t134 -247.5t47 -295q0 -210 -78 -384 t-226.5 -278t-347.5 -110z"/>
<glyph glyph-name="Odieresis" horiz-adv-x="1565" unicode="Ö" d="M1128 1759q0 -46 -33 -78t-77 -32q-48 0 -80.5 32.5t-32.5 77.5q0 48 31.5 82.5t77.5 34.5q50 0 82 -34.5t32 -82.5zM674 1759q0 -47 -34 -78.5t-79 -31.5q-43 0 -77.5 32.5t-34.5 77.5q0 48 32.5 82.5t79.5 34.5q48 0 80.5 -34t32.5 -83zM780 43q110 4 190.5 63 t130.5 159.5t73 222.5t26 264q0 136 -25.5 262t-77 225t-132.5 158t-189 59q-166 0 -263.5 -111t-135 -269.5t-37.5 -323.5q2 -187 49 -349.5t145.5 -261t245.5 -98.5zM784 -20q-207 0 -361.5 103.5t-236.5 280.5t-82 388q0 157 48.5 297.5t137 245.5t213 165.5t269.5 63.5 q151 0 273.5 -61.5t209.5 -168t134 -247.5t47 -295q0 -210 -78 -384t-226.5 -278t-347.5 -110z"/>
<glyph glyph-name="Oslash" horiz-adv-x="1565" unicode="Ø" d="M432 311q48 -109 143.5 -188.5t225.5 -79.5q137 1 231.5 106.5t139.5 269.5t45 341q0 102 -14.5 191t-39.5 157zM403 395l730 801q-64 148 -162 204t-195 56q-104 -3 -184.5 -63.5t-131.5 -160.5t-77 -229t-27 -260q6 -190 47 -348zM268 248q-69 93 -107 226t-38 276 q0 41 2 61q8 134 54 257t128.5 224.5t199 163.5t257.5 68q133 0 254.5 -47t224.5 -160l184 203l58 -60l-189 -205q79 -105 117.5 -243t38.5 -281q0 -182 -74 -351.5t-214 -278.5t-328 -121q-8 0 -22 -1t-26 -2q-110 0 -199 30.5t-153 75t-117 101.5l-184 -200l-55 53z"/>
<glyph glyph-name="Ugrave" horiz-adv-x="1507" unicode="Ù" d="M848 1604l-64 96q-17 26 -53 73t-55 74q-64 99 -64 133q3 17 23.5 28t44.5 11q75 0 108 -114l97 -281zM1192 571v582q0 116 -13 174t-51.5 81.5t-119.5 23.5v67h469v-67q-67 0 -103.5 -12.5t-54.5 -41.5t-24.5 -81t-6.5 -144v-645q0 -175 -57.5 -294.5t-176.5 -179 t-298 -59.5q-240 0 -380 126t-140 364v688q0 121 -12.5 179t-50 79t-118.5 21v67h582v-67q-92 -3 -131.5 -25.5t-52.5 -77.5t-13 -176v-582q0 -153 28.5 -264.5t110.5 -179.5t236 -68q158 0 241.5 72t109.5 181.5t26 258.5z"/>
<glyph glyph-name="Uacute" horiz-adv-x="1507" unicode="Ú" d="M725 1604l-37 20l100 281q18 56 39 85t66 29q28 0 48 -13.5t20 -37.5q0 -34 -60 -121q-80 -107 -108 -147zM1192 571v582q0 116 -13 174t-51.5 81.5t-119.5 23.5v67h469v-67q-67 0 -103.5 -12.5t-54.5 -41.5t-24.5 -81t-6.5 -144v-645q0 -175 -57.5 -294.5t-176.5 -179 t-298 -59.5q-240 0 -380 126t-140 364v688q0 121 -12.5 179t-50 79t-118.5 21v67h582v-67q-92 -3 -131.5 -25.5t-52.5 -77.5t-13 -176v-582q0 -153 28.5 -264.5t110.5 -179.5t236 -68q158 0 241.5 72t109.5 181.5t26 258.5z"/>
<glyph glyph-name="Ucircumflex" horiz-adv-x="1507" unicode="Û" d="M762 1851l-197 -260l-37 29l134 295q17 48 37 72.5t63 27.5q64 0 98 -100l137 -295l-41 -29zM1192 571v582q0 116 -13 174t-51.5 81.5t-119.5 23.5v67h469v-67q-67 0 -103.5 -12.5t-54.5 -41.5t-24.5 -81t-6.5 -144v-645q0 -175 -57.5 -294.5t-176.5 -179t-298 -59.5 q-240 0 -380 126t-140 364v688q0 121 -12.5 179t-50 79t-118.5 21v67h582v-67q-92 -3 -131.5 -25.5t-52.5 -77.5t-13 -176v-582q0 -153 28.5 -264.5t110.5 -179.5t236 -68q158 0 241.5 72t109.5 181.5t26 258.5z"/>
<glyph glyph-name="Udieresis" horiz-adv-x="1507" unicode="Ü" d="M1104 1759q0 -46 -33 -78t-78 -32q-47 0 -79.5 32.5t-32.5 77.5q0 48 31.5 82.5t76.5 34.5q51 0 83 -34.5t32 -82.5zM649 1759q0 -47 -33.5 -78.5t-78.5 -31.5q-44 0 -78.5 32.5t-34.5 77.5q0 48 32.5 82.5t80.5 34.5t80 -34.5t32 -82.5zM1192 571v582q0 116 -13 174 t-51.5 81.5t-119.5 23.5v67h469v-67q-67 0 -103.5 -12.5t-54.5 -41.5t-24.5 -81t-6.5 -144v-645q0 -175 -57.5 -294.5t-176.5 -179t-298 -59.5q-240 0 -380 126t-140 364v688q0 121 -12.5 179t-50 79t-118.5 21v67h582v-67q-92 -3 -131.5 -25.5t-52.5 -77.5t-13 -176v-582 q0 -153 28.5 -264.5t110.5 -179.5t236 -68q158 0 241.5 72t109.5 181.5t26 258.5z"/>
<glyph glyph-name="germandbls" horiz-adv-x="1184" unicode="ß" d="M43 59q88 7 112.5 34.5t24.5 119.5v854q0 107 29.5 190.5t85 141.5t135 90t178.5 35q83 0 168 -24.5t141 -78.5t56 -141q0 -103 -96 -184q-105 -81 -105 -144q9 -61 131 -217q113 -142 163 -222t58 -177q0 -139 -85 -239.5t-238 -116.5q-80 0 -157 30t-125.5 84 t-49.5 125q4 14 11 39t15.5 38.5t25 22.5t46.5 9q97 0 97 -140q0 -79 42.5 -112t98.5 -33q47 6 82.5 32.5t54.5 66t19 85.5q0 97 -57 189.5t-152 204.5q-152 184 -152 264q3 36 29 69.5t76 77.5q83 79 83 201q0 86 -48 151.5t-136 71.5q-119 0 -181.5 -96.5t-62.5 -323.5 v-1036h-317v59z"/>
<glyph glyph-name="agrave" horiz-adv-x="973" unicode="à" d="M535 1147l-64 96q-21 32 -55.5 76t-53.5 72q-63 98 -63 133q3 17 23.5 28t44.5 11q75 0 108 -115l96 -281zM641 121q-175 -141 -317 -141q-115 0 -185.5 64.5t-70.5 178.5q13 295 569 381v135q0 91 -35 154t-115 63q-57 0 -102 -39t-57 -98q-14 -61 -37.5 -86t-67.5 -33 q-108 0 -114 88q4 17 4 31q10 71 73.5 117.5t146.5 67t154 20.5q142 0 235 -65.5t93 -202.5v-529q0 -111 62 -118q48 7 84 55l26 -43q-90 -141 -207 -141q-57 0 -96 36.5t-43 104.5zM637 537q-98 -17 -183.5 -59t-137.5 -103t-52 -131q3 -73 43 -115t105 -45q120 7 225 121 v332z"/>
<glyph glyph-name="aacute" horiz-adv-x="973" unicode="á" d="M461 1104l-37 20l100 281q18 56 39 85.5t66 29.5q27 0 47 -13t20 -39q0 -34 -59 -120q-20 -28 -55 -75t-54 -73zM641 121q-175 -141 -317 -141q-115 0 -185.5 64.5t-70.5 178.5q13 295 569 381v135q0 91 -35 154t-115 63q-57 0 -102 -39t-57 -98q-14 -61 -37.5 -86 t-67.5 -33q-108 0 -114 88q4 17 4 31q10 71 73.5 117.5t146.5 67t154 20.5q142 0 235 -65.5t93 -202.5v-529q0 -111 62 -118q48 7 84 55l26 -43q-90 -141 -207 -141q-57 0 -96 36.5t-43 104.5zM637 537q-98 -17 -183.5 -59t-137.5 -103t-52 -131q3 -73 43 -115t105 -45 q120 7 225 121v332z"/>
<glyph glyph-name="acircumflex" horiz-adv-x="973" unicode="â" d="M494 1356l-197 -260l-37 28l133 295q12 32 22.5 51.5t30.5 34t48 15.5q37 0 59.5 -27t38.5 -74l137 -295l-41 -28zM641 121q-175 -141 -317 -141q-115 0 -185.5 64.5t-70.5 178.5q13 295 569 381v135q0 91 -35 154t-115 63q-57 0 -102 -39t-57 -98q-14 -61 -37.5 -86 t-67.5 -33q-108 0 -114 88q4 17 4 31q10 71 73.5 117.5t146.5 67t154 20.5q142 0 235 -65.5t93 -202.5v-529q0 -111 62 -118q48 7 84 55l26 -43q-90 -141 -207 -141q-57 0 -96 36.5t-43 104.5zM637 537q-98 -17 -183.5 -59t-137.5 -103t-52 -131q3 -73 43 -115t105 -45 q120 7 225 121v332z"/>
<glyph glyph-name="atilde" horiz-adv-x="973" unicode="ã" d="M123 1188q85 192 213 192q40 0 78 -10t83 -26.5t85.5 -29.5t72.5 -18q65 6 109 84h59q-32 -85 -90.5 -137t-105.5 -55q-52 0 -111.5 19t-119.5 38t-113 19q-62 0 -97 -76h-63zM641 121q-175 -141 -317 -141q-115 0 -185.5 64.5t-70.5 178.5q13 295 569 381v135 q0 91 -35 154t-115 63q-57 0 -102 -39t-57 -98q-14 -61 -37.5 -86t-67.5 -33q-108 0 -114 88q4 17 4 31q10 71 73.5 117.5t146.5 67t154 20.5q142 0 235 -65.5t93 -202.5v-529q0 -111 62 -118q48 7 84 55l26 -43q-90 -141 -207 -141q-57 0 -96 36.5t-43 104.5zM637 537 q-98 -17 -183.5 -59t-137.5 -103t-52 -131q3 -73 43 -115t105 -45q120 7 225 121v332z"/>
<glyph glyph-name="adieresis" horiz-adv-x="973" unicode="ä" d="M831 1260q0 -47 -33 -79t-77 -32q-48 0 -80.5 32.5t-32.5 78.5q0 48 31.5 82t77.5 34q50 0 82 -34t32 -82zM377 1260q0 -48 -34 -79.5t-79 -31.5q-43 0 -77.5 32.5t-34.5 78.5q0 32 15 58.5t41 42t56 15.5q31 0 57 -15.5t41 -41.5t15 -59zM641 121q-175 -141 -317 -141 q-115 0 -185.5 64.5t-70.5 178.5q13 295 569 381v135q0 91 -35 154t-115 63q-57 0 -102 -39t-57 -98q-14 -61 -37.5 -86t-67.5 -33q-108 0 -114 88q4 17 4 31q10 71 73.5 117.5t146.5 67t154 20.5q142 0 235 -65.5t93 -202.5v-529q0 -111 62 -118q48 7 84 55l26 -43 q-90 -141 -207 -141q-57 0 -96 36.5t-43 104.5zM637 537q-98 -17 -183.5 -59t-137.5 -103t-52 -131q3 -73 43 -115t105 -45q120 7 225 121v332z"/>
<glyph glyph-name="aring" horiz-adv-x="973" unicode="å" d="M604 1309q0 51 -35.5 89t-85.5 38q-48 0 -84.5 -38.5t-36.5 -84.5q0 -49 35.5 -87t85.5 -38t85.5 35.5t35.5 85.5zM684 1309q0 -54 -27 -99t-73.5 -71.5t-100.5 -26.5q-84 0 -140 57t-56 140q0 84 56.5 143t139.5 59q55 0 101.5 -27.5t73 -74.5t26.5 -100zM641 121 q-175 -141 -317 -141q-115 0 -185.5 64.5t-70.5 178.5q13 295 569 381v135q0 91 -35 154t-115 63q-57 0 -102 -39t-57 -98q-14 -61 -37.5 -86t-67.5 -33q-108 0 -114 88q4 17 4 31q10 71 73.5 117.5t146.5 67t154 20.5q142 0 235 -65.5t93 -202.5v-529q0 -111 62 -118 q48 7 84 55l26 -43q-90 -141 -207 -141q-57 0 -96 36.5t-43 104.5zM637 537q-98 -17 -183.5 -59t-137.5 -103t-52 -131q3 -73 43 -115t105 -45q120 7 225 121v332z"/>
<glyph glyph-name="ae" horiz-adv-x="1565" unicode="æ" d="M713 172q-69 -80 -158 -135t-207 -62q-70 0 -134 30t-103 86t-39 128q3 181 161 256t408 125v117q0 239 -145 239q-131 0 -168 -147q-15 -58 -43.5 -83.5t-75.5 -25.5q-39 0 -67.5 27.5t-28.5 69.5q4 79 66 129.5t149.5 74t158.5 23.5q95 0 172.5 -28.5t120.5 -118.5 q42 68 123.5 107.5t171.5 39.5q120 0 216.5 -68t151.5 -176t60 -221h-688q0 -184 56.5 -308t152.5 -163q53 -17 117 -25q92 4 175.5 51.5t147.5 129.5l35 -29q-73 -120 -182 -177.5t-230 -57.5q-116 0 -212 49.5t-162 142.5zM684 236q-22 48 -34.5 128.5t-12.5 167.5 q-47 -8 -112 -31.5t-123 -59.5t-96 -87t-38 -110q0 -78 43 -117.5t109 -42.5q149 17 264 152zM819 629h490q0 54 -13.5 113.5t-41 106.5t-74.5 77t-109 30q-121 0 -181 -98t-71 -229z"/>
<glyph glyph-name="ccedilla" horiz-adv-x="973" unicode="ç" d="M496 -20q-95 0 -177 43.5t-140.5 116.5t-90.5 164t-33 179q2 17 4 49t4 48q23 122 95.5 223.5t179 161t229.5 59.5q92 0 168 -27.5t124 -73t56 -100.5q0 -48 -29 -81.5t-81 -36.5q0 2 -1.5 3t-2.5 1q-40 0 -65.5 24.5t-42.5 60t-40 81t-49 61.5q-33 20 -92 20 q-132 0 -188 -128t-60 -283q0 -113 35.5 -215t111.5 -170.5t185 -79.5q169 7 324 192l28 -28q-37 -58 -85 -107.5t-95 -80.5t-99 -50.5t-102 -25.5l-84 -101q84 0 132.5 -36t48.5 -103q0 -83 -75.5 -138t-160.5 -55q-130 0 -143 66q9 21 15.5 27t27.5 12q11 -3 58 -23 t71 -20q44 0 83.5 29t39.5 73q0 37 -19 55t-48 28t-64 22q-26 -4 -93 -29l-20 25z"/>
<glyph glyph-name="egrave" d="M606 1145l-63 96q-21 32 -55.5 76t-53.5 72q-63 95 -63 133q3 17 23 28t44 11q44 0 69.5 -32.5t39.5 -82.5l96 -281zM285 641h475v35q0 111 -59 195.5t-164 84.5q-78 0 -136 -46t-87 -118.5t-29 -150.5zM272 563q0 -112 25 -212t73 -169t109 -94q43 -16 109 -25 q98 5 189 55.5t147 133.5l37 -33q-50 -84 -114.5 -137t-137.5 -77.5t-156 -24.5q-141 0 -251.5 71.5t-173 192.5t-62.5 260q0 39 2 59q17 122 80 228t164 169.5t225 63.5q86 0 163.5 -33.5t136 -93.5t94 -146.5t38.5 -187.5h-697z" unicode="è"/>
<glyph glyph-name="eacute" d="M487 1104l-36 20l100 281q15 54 37.5 84.5t66.5 30.5q29 0 48.5 -13.5t19.5 -38.5q0 -31 -59 -120q-20 -28 -55 -75t-54 -73zM285 641h475v35q0 111 -59 195.5t-164 84.5q-78 0 -136 -46t-87 -118.5t-29 -150.5zM272 563q0 -112 25 -212t73 -169t109 -94q43 -16 109 -25 q98 5 189 55.5t147 133.5l37 -33q-50 -84 -114.5 -137t-137.5 -77.5t-156 -24.5q-141 0 -251.5 71.5t-173 192.5t-62.5 260q0 39 2 59q17 122 80 228t164 169.5t225 63.5q86 0 163.5 -33.5t136 -93.5t94 -146.5t38.5 -187.5h-697z" unicode="é"/>
<glyph glyph-name="ecircumflex" d="M520 1360l-196 -260l-37 28l133 295q11 31 21.5 51t29 34.5t49.5 15.5q64 0 98 -101l138 -295l-41 -28zM285 641h475v35q0 111 -59 195.5t-164 84.5q-78 0 -136 -46t-87 -118.5t-29 -150.5zM272 563q0 -112 25 -212t73 -169t109 -94q43 -16 109 -25q98 5 189 55.5 t147 133.5l37 -33q-50 -84 -114.5 -137t-137.5 -77.5t-156 -24.5q-141 0 -251.5 71.5t-173 192.5t-62.5 260q0 39 2 59q17 122 80 228t164 169.5t225 63.5q86 0 163.5 -33.5t136 -93.5t94 -146.5t38.5 -187.5h-697z" unicode="ê"/>
<glyph glyph-name="edieresis" d="M856 1264q0 -47 -33 -79t-78 -32q-47 0 -79.5 32.5t-32.5 78.5q0 48 31.5 82t76.5 34q51 0 83 -34t32 -82zM401 1264q0 -48 -33.5 -79.5t-78.5 -31.5q-44 0 -78.5 32.5t-34.5 78.5q0 32 15 58.5t41 42t57 15.5q48 0 80 -34t32 -82zM285 641h475v35q0 111 -59 195.5 t-164 84.5q-78 0 -136 -46t-87 -118.5t-29 -150.5zM272 563q0 -112 25 -212t73 -169t109 -94q43 -16 109 -25q98 5 189 55.5t147 133.5l37 -33q-50 -84 -114.5 -137t-137.5 -77.5t-156 -24.5q-141 0 -251.5 71.5t-173 192.5t-62.5 260q0 39 2 59q17 122 80 228t164 169.5 t225 63.5q86 0 163.5 -33.5t136 -93.5t94 -146.5t38.5 -187.5h-697z" unicode="ë"/>
<glyph glyph-name="igrave" horiz-adv-x="541" unicode="ì" d="M362 1145l-63 96q-21 32 -55.5 76t-53.5 72q-63 98 -63 133q3 17 23.5 28t44.5 11q75 0 108 -115l96 -281zM43 59q65 11 90 20.5t38 36.5t13 85v526q0 66 -15 96t-40.5 37.5t-77.5 7.5v52l314 120v-827q0 -71 14 -101.5t37 -37.5t88 -15v-59h-461v59z"/>
<glyph glyph-name="iacute" horiz-adv-x="541" unicode="í" d="M244 1108l-37 20l100 281q18 56 39 85.5t66 29.5q28 0 47.5 -13.5t19.5 -37.5q0 -35 -59 -121q-20 -28 -55 -75t-54 -73zM43 59q65 11 90 20.5t38 36.5t13 85v526q0 66 -15 96t-40.5 37.5t-77.5 7.5v52l314 120v-827q0 -71 14 -101.5t37 -37.5t88 -15v-59h-461v59z"/>
<glyph glyph-name="icircumflex" horiz-adv-x="541" unicode="î" d="M276 1356l-196 -260l-37 28l133 295q21 53 38.5 75.5t61.5 25.5q38 0 60.5 -27t38.5 -74l137 -295l-41 -28zM43 59q65 11 90 20.5t38 36.5t13 85v526q0 66 -15 96t-40.5 37.5t-77.5 7.5v52l314 120v-827q0 -71 14 -101.5t37 -37.5t88 -15v-59h-461v59z"/>
<glyph glyph-name="idieresis" horiz-adv-x="541" unicode="ï" d="M618 1260q0 -47 -33 -79t-77 -32q-48 0 -80.5 32.5t-32.5 78.5q0 48 31.5 82t77.5 34q50 0 82 -34t32 -82zM164 1260q0 -48 -34 -79.5t-79 -31.5q-43 0 -77.5 32.5t-34.5 78.5q0 32 15 58.5t41 42t56 15.5q31 0 57 -15.5t41 -41.5t15 -59zM43 59q65 11 90 20.5t38 36.5 t13 85v526q0 66 -15 96t-40.5 37.5t-77.5 7.5v52l314 120v-827q0 -71 14 -101.5t37 -37.5t88 -15v-59h-461v59z"/>
<glyph glyph-name="ntilde" horiz-adv-x="1133" unicode="ñ" d="M176 1188q36 79 89.5 135.5t123.5 56.5q40 0 80 -10.5t77 -24.5t82.5 -29t80.5 -20q64 6 108 84h60q-33 -86 -91.5 -137.5t-105.5 -54.5q-37 0 -69 7.5t-90.5 27.5t-101.5 30.5t-83 10.5q-62 0 -96 -76h-64zM365 780v-499q0 -103 6 -141.5t32 -55t97 -25.5v-59h-457v59 q70 8 98 21t35.5 45t7.5 106v50v387q0 95 -7.5 134t-34.5 52.5t-91 13.5v52l314 120v-176q58 70 146.5 113t176.5 43q76 0 137.5 -32t89.5 -91q37 -73 37 -201v-424q0 -70 4 -112.5t16 -61t34.5 -25.5t80.5 -14v-59h-458v59q74 10 101 23.5t34.5 50t7.5 139.5v383 q0 108 -36.5 184t-131.5 76q-62 0 -109.5 -31t-129.5 -104z"/>
<glyph glyph-name="ograve" horiz-adv-x="1079" unicode="ò" d="M592 1145l-64 96q-17 26 -53 73t-55 75q-64 97 -64 133q3 17 23.5 28t44.5 11q75 0 108 -115l97 -281zM541 43q81 6 136.5 72t82 170t28.5 219q0 118 -25.5 220.5t-81.5 167t-140 64.5q-102 0 -159 -73.5t-77 -176t-20 -202.5q3 -184 68 -322.5t188 -138.5zM545 -25 q-124 0 -232.5 68t-174 186t-66.5 254q4 9 4 17q1 146 65 266.5t170 189t230 68.5q92 0 176 -41t145 -112t96.5 -165.5t36.5 -197.5q0 -147 -59 -266.5t-163 -190t-228 -76.5z"/>
<glyph glyph-name="oacute" horiz-adv-x="1079" unicode="ó" d="M512 1104l-37 20l100 281q18 56 39 85.5t66 29.5q29 0 48.5 -13.5t19.5 -38.5q0 -33 -60 -120q-20 -28 -55 -75t-53 -73zM541 43q81 6 136.5 72t82 170t28.5 219q0 118 -25.5 220.5t-81.5 167t-140 64.5q-102 0 -159 -73.5t-77 -176t-20 -202.5q3 -184 68 -322.5 t188 -138.5zM545 -25q-124 0 -232.5 68t-174 186t-66.5 254q4 9 4 17q1 146 65 266.5t170 189t230 68.5q92 0 176 -41t145 -112t96.5 -165.5t36.5 -197.5q0 -147 -59 -266.5t-163 -190t-228 -76.5z"/>
<glyph glyph-name="ocircumflex" horiz-adv-x="1079" unicode="ô" d="M545 1356l-197 -260l-37 28l133 295q12 32 22.5 51.5t30.5 34t48 15.5q64 0 98 -101l137 -295l-41 -28zM541 43q81 6 136.5 72t82 170t28.5 219q0 118 -25.5 220.5t-81.5 167t-140 64.5q-102 0 -159 -73.5t-77 -176t-20 -202.5q3 -184 68 -322.5t188 -138.5zM545 -25 q-124 0 -232.5 68t-174 186t-66.5 254q4 9 4 17q1 146 65 266.5t170 189t230 68.5q92 0 176 -41t145 -112t96.5 -165.5t36.5 -197.5q0 -147 -59 -266.5t-163 -190t-228 -76.5z"/>
<glyph glyph-name="otilde" horiz-adv-x="1079" unicode="õ" d="M176 1184q36 79 89.5 135.5t123.5 56.5q40 0 80 -10.5t77 -24.5t82.5 -29t80.5 -20q64 6 108 84h60q-33 -86 -91.5 -137.5t-105.5 -54.5q-37 0 -69 7.5t-90.5 27.5t-101.5 30.5t-83 10.5q-62 0 -96 -76h-64zM541 43q81 6 136.5 72t82 170t28.5 219q0 118 -25.5 220.5 t-81.5 167t-140 64.5q-102 0 -159 -73.5t-77 -176t-20 -202.5q3 -184 68 -322.5t188 -138.5zM545 -25q-124 0 -232.5 68t-174 186t-66.5 254q4 9 4 17q1 146 65 266.5t170 189t230 68.5q92 0 176 -41t145 -112t96.5 -165.5t36.5 -197.5q0 -147 -59 -266.5t-163 -190 t-228 -76.5z"/>
<glyph glyph-name="odieresis" horiz-adv-x="1079" unicode="ö" d="M887 1264q0 -47 -33 -79t-78 -32q-47 0 -79.5 32.5t-32.5 78.5q0 48 31.5 82t76.5 34q51 0 83 -34t32 -82zM432 1264q0 -48 -34 -79.5t-79 -31.5q-43 0 -77.5 32.5t-34.5 78.5q0 32 15 58.5t41 42t56 15.5q31 0 57 -15.5t41 -41.5t15 -59zM541 43q81 6 136.5 72t82 170 t28.5 219q0 118 -25.5 220.5t-81.5 167t-140 64.5q-102 0 -159 -73.5t-77 -176t-20 -202.5q3 -184 68 -322.5t188 -138.5zM545 -25q-124 0 -232.5 68t-174 186t-66.5 254q4 9 4 17q1 146 65 266.5t170 189t230 68.5q92 0 176 -41t145 -112t96.5 -165.5t36.5 -197.5 q0 -147 -59 -266.5t-163 -190t-228 -76.5z"/>
<glyph glyph-name="oslash" horiz-adv-x="1079" unicode="ø" d="M324 223q40 -85 88.5 -132.5t119.5 -47.5q86 4 142 79.5t81 186t25 223.5q0 90 -16 164zM299 311l440 473q-72 172 -202 172q-78 0 -134.5 -63.5t-88 -170.5t-33.5 -230q2 -33 6.5 -75.5t11.5 -105.5zM164 168q-81 97 -88 307q8 134 58.5 261t147.5 207.5t238 80.5 q105 0 189 -41t127 -94l129 135l55 -55l-131 -142q44 -64 69 -153.5t25 -181.5q0 -97 -32 -188.5t-92 -165t-145 -117t-186 -46.5q-82 0 -167 37.5t-146 100.5l-119 -133l-55 53z"/>
<glyph glyph-name="ugrave" horiz-adv-x="1133" unicode="ù" d="M575 1108l-63 96q-21 32 -55.5 76t-53.5 72q-63 98 -63 133q3 17 23.5 28t44.5 11q75 0 108 -115l96 -281zM756 231v469q0 81 -13 119q-9 26 -34.5 37.5t-83.5 11.5v52l311 120v-751q0 -106 6.5 -147.5t35.5 -59.5t101 -23v-59h-319v147q-153 -167 -332 -167 q-76 0 -137.5 35t-93.5 102q-33 57 -33 198v402q0 59 -8.5 89.5t-39 47.5t-87.5 18v43l315 121v-680q0 -120 29.5 -192t130.5 -80q71 11 128.5 47t123.5 100z"/>
<glyph glyph-name="uacute" horiz-adv-x="1133" unicode="ú" d="M541 1108l-37 20l100 281q18 56 39 85.5t66 29.5q28 0 47.5 -13.5t19.5 -37.5q0 -35 -59 -121q-20 -28 -55 -75t-54 -73zM756 231v469q0 81 -13 119q-9 26 -34.5 37.5t-83.5 11.5v52l311 120v-751q0 -106 6.5 -147.5t35.5 -59.5t101 -23v-59h-319v147 q-153 -167 -332 -167q-76 0 -137.5 35t-93.5 102q-33 57 -33 198v402q0 59 -8.5 89.5t-39 47.5t-87.5 18v43l315 121v-680q0 -120 29.5 -192t130.5 -80q71 11 128.5 47t123.5 100z"/>
<glyph glyph-name="ucircumflex" horiz-adv-x="1133" unicode="û" d="M520 1352l-196 -260l-37 28l133 295q17 48 37 73t63 28q64 0 98 -101l138 -295l-41 -28zM756 231v469q0 81 -13 119q-9 26 -34.5 37.5t-83.5 11.5v52l311 120v-751q0 -106 6.5 -147.5t35.5 -59.5t101 -23v-59h-319v147q-153 -167 -332 -167q-76 0 -137.5 35t-93.5 102 q-33 57 -33 198v402q0 59 -8.5 89.5t-39 47.5t-87.5 18v43l315 121v-680q0 -120 29.5 -192t130.5 -80q71 11 128.5 47t123.5 100z"/>
<glyph glyph-name="udieresis" horiz-adv-x="1133" unicode="ü" d="M911 1260q0 -47 -33 -79t-77 -32q-48 0 -80.5 32.5t-32.5 78.5q0 48 31.5 82t77.5 34q50 0 82 -34t32 -82zM457 1260q0 -48 -34 -79.5t-79 -31.5q-44 0 -78.5 33.5t-34.5 77.5q0 47 32.5 81.5t80.5 34.5q31 0 57 -15.5t41 -41.5t15 -59zM756 231v469q0 81 -13 119 q-9 26 -34.5 37.5t-83.5 11.5v52l311 120v-751q0 -106 6.5 -147.5t35.5 -59.5t101 -23v-59h-319v147q-153 -167 -332 -167q-76 0 -137.5 35t-93.5 102q-33 57 -33 198v402q0 59 -8.5 89.5t-39 47.5t-87.5 18v43l315 121v-680q0 -120 29.5 -192t130.5 -80q71 11 128.5 47 t123.5 100z"/>
<glyph glyph-name="ydieresis" d="M856 1260q0 -47 -33 -79t-78 -32q-47 0 -79.5 32.5t-32.5 78.5q0 48 31.5 82t76.5 34q51 0 83 -34t32 -82zM401 1260q0 -48 -33.5 -79.5t-78.5 -31.5q-44 0 -78.5 32.5t-34.5 78.5q0 32 15 58.5t41 42t57 15.5q48 0 80 -34t32 -82zM537 256l176 449q39 105 39 147 q0 48 -33.5 70t-114.5 22v60h436v-60q-66 0 -108.5 -34.5t-67.5 -86.5t-63 -159l-297 -732q-54 -147 -121 -232t-186 -85q-75 0 -118 40.5t-46 96.5q3 44 32 74.5t78 30.5q50 0 93 -45q14 -12 22 -19t17.5 -11.5t21.5 -4.5q60 0 94 98l53 141l-297 748q-13 36 -26.5 70 t-31.5 58.5t-45.5 38t-72.5 13.5v60h465v-60q-67 0 -96.5 -15t-32.5 -52q7 -42 29 -93z" unicode="ÿ"/>
<glyph glyph-name="Gbreve" horiz-adv-x="1507" unicode="Ğ" d="M430 1980l57 25q88 -92 165.5 -119.5t170.5 -27.5q69 0 143.5 38t143.5 109l57 -25q-35 -71 -96.5 -132.5t-134.5 -96.5t-145 -35q-103 3 -197 68.5t-164 195.5zM1292 37q-39 14 -92 14q-39 0 -87.5 -10.5t-120 -29.5t-118.5 -27.5t-102 -8.5q-122 3 -236.5 42 t-212.5 127t-156.5 230.5t-62.5 342.5q0 196 79.5 382.5t226.5 305.5t333 119q52 0 150.5 -18.5t138.5 -20.5q88 7 160 47l135 -383l-59 -29q-203 336 -475 336q-117 0 -217.5 -83t-165 -246.5t-74.5 -391.5q0 -171 52.5 -326.5t160 -257t262.5 -108.5q122 19 193.5 59 t91.5 142q16 65 16 147q0 66 -4 92q-11 75 -61 98t-162 23v64h583v-64q-101 -3 -138.5 -54.5t-37.5 -146.5v-366z"/>
<glyph glyph-name="gbreve" horiz-adv-x="1133" unicode="ğ" d="M158 1427l57 25q88 -92 165.5 -119.5t170.5 -27.5q69 0 143.5 38t143.5 109l57 -25q-57 -113 -162 -188.5t-215 -75.5q-102 3 -196 68.5t-164 195.5zM731 643q0 113 -50 213t-153 100q-54 0 -96 -28.5t-67 -74t-37.5 -98.5t-12.5 -104q0 -113 55 -199.5t162 -86.5 q72 0 117 41t63.5 105t18.5 132zM629 143q80 -16 139 -30.5t114.5 -40t92.5 -70t37 -111.5q0 -102 -80 -159t-190 -77t-218 -20q-174 0 -341 44t-167 165q0 50 31 86t79 59.5t107 41.5t91 28q-32 11 -61.5 22t-64.5 29t-58 42.5t-23 52.5q0 102 180 151q-80 44 -126.5 126 t-49.5 173q4 109 60 192.5t148 128t203 44.5q82 0 154 -23t123 -69q41 46 93.5 75t105.5 29q50 0 83 -26t33 -82q0 -37 -25 -67t-59 -30q-25 0 -40.5 9.5t-37 30t-38 30.5t-39.5 10q-19 0 -41 -18q80 -100 80 -230q0 -108 -57.5 -190t-151 -127.5t-199.5 -48.5 q-86 7 -160 31q-24 -8 -41.5 -21t-17.5 -35q3 -44 131 -71q34 -8 115.5 -30t85.5 -24zM709 -43l-277 80q-103 -34 -169 -73t-66 -111q0 -50 45.5 -83t121.5 -48t160 -15q165 3 248.5 31.5t83.5 97.5q0 49 -42.5 76t-104.5 45z"/>
<glyph glyph-name="Idotaccent" horiz-adv-x="700" unicode="İ" d="M494 1772q0 -48 -34 -79.5t-79 -31.5q-44 0 -78.5 33.5t-34.5 77.5q0 32 15 58.5t41 42t57 15.5q30 0 56 -15.5t41.5 -43t15.5 -57.5zM461 340q0 -116 15 -173t54.5 -78t120.5 -21v-68h-583v68q81 0 120.5 20.5t53.5 76.5t14 179l4 809q0 86 -8 139.5t-28 83.5t-56.5 43 t-99.5 13v67h583v-67q-84 0 -123.5 -23.5t-53 -80.5t-13.5 -175v-813z"/>
<glyph glyph-name="dotlessi" horiz-adv-x="541" unicode="ı" d="M43 59q65 11 90 20.5t38 36.5t13 85v526q0 66 -15 96t-40.5 37.5t-77.5 7.5v52l314 120v-827q0 -71 14 -101.5t37 -37.5t88 -15v-59h-461v59z"/>
<glyph glyph-name="OE" horiz-adv-x="2212" unicode="Œ" d="M1092 324v880q0 105 -61 178.5t-200 73.5q-129 0 -224 -61.5t-152 -163t-84 -228t-27 -255.5q16 -705 479 -705q142 0 205.5 83.5t63.5 197.5zM1141 1499h831l144 -350l-52 -29q-96 130 -159 191t-152 91t-237 30q-83 0 -126.5 -8.5t-64 -31.5t-27 -66.5t-6.5 -125.5 v-385h84q111 0 180.5 19.5t111 75.5t48.5 161h60v-588h-64q0 95 -26 150.5t-71.5 79.5t-98.5 29.5t-140 5.5h-84v-472q0 -88 14 -131t59 -60t138 -17q165 0 256 29t154 91.5t186 219.5l53 -21l-151 -387h-873q-61 0 -168 -12.5t-163 -12.5q-159 0 -287.5 64t-218.5 177 t-136 255t-46 293q0 155 48.5 293.5t139.5 243.5t221 164t291 59q63 0 169 -12.5t163 -12.5z"/>
<glyph glyph-name="oe" horiz-adv-x="1729" unicode="œ" d="M973 633h487q0 76 -24.5 150.5t-77.5 123.5t-133 49q-125 0 -184 -95.5t-68 -227.5zM885 852q68 84 159 128t185 44q121 0 216.5 -65t150.5 -171.5t61 -224.5h-688q0 -388 198 -475q33 -14 113 -25q97 4 184.5 53.5t151.5 131.5l33 -29q-69 -123 -176 -181t-230 -58 q-217 0 -366 172q-64 -76 -148.5 -121t-183.5 -56q-123 0 -232 67t-174.5 182t-66.5 245q4 14 4 31q6 140 69.5 261t167.5 192t228 71q99 0 192 -49t152 -123zM541 43q81 6 136.5 72t82 170t28.5 219q0 118 -25.5 220t-82.5 167t-143 65q-138 0 -195 -132.5t-57 -319.5 q5 -88 20.5 -167t47.5 -147t78.5 -107.5t109.5 -39.5z"/>
<glyph glyph-name="Scedilla" horiz-adv-x="1133" unicode="Ş" d="M676 -20l-84 -101q83 0 131.5 -36t48.5 -103q0 -83 -74.5 -138t-160.5 -55q-130 0 -144 66q11 23 17 28.5t26 10.5q11 -3 58 -23t71 -20q45 0 84 29t39 73q0 37 -19 55t-48 28t-64 22q-30 -4 -92 -29l-21 25l160 168q-58 4 -145.5 28.5t-130.5 24.5q-72 0 -127 -58 l-150 402l62 26q118 -157 243 -249.5t285 -110.5q94 1 162.5 45.5t102.5 111.5t34 140q-6 106 -66.5 170.5t-168.5 110.5q-42 18 -128.5 46t-136 45t-102.5 42.5t-102 60.5q-69 50 -103 123.5t-37 161.5q6 91 35 180q27 70 83.5 124.5t135 86.5t166.5 33q54 0 159 -28 t134 -32q71 7 98 39l137 -362l-61 -29q-32 57 -82.5 121t-108.5 113.5t-126 79.5t-138 30q-74 0 -137 -33t-100.5 -93t-38.5 -130q0 -104 59 -165.5t172 -110.5q64 -25 154.5 -52.5t145 -46.5t124.5 -57q109 -65 155 -159.5t46 -231.5q-5 -73 -36.5 -141t-89 -124.5 t-134.5 -91t-172 -40.5z"/>
<glyph glyph-name="scedilla" horiz-adv-x="915" unicode="ş" d="M557 -25l-80 -96q84 0 132 -36.5t48 -102.5q0 -83 -74.5 -138t-160.5 -55q-130 0 -143 66q9 21 15.5 27t27.5 12q11 -3 58 -23t71 -20q44 0 83 29t39 73q0 52 -44 71t-87 34q-25 -4 -92 -29l-20 25l164 170q-14 3 -75 23t-91 20q-31 0 -61.5 -13t-53.5 -37l-129 349 l45 24q74 -115 196 -210t228 -95q47 0 88 22.5t65.5 61.5t24.5 86q0 60 -41.5 99t-118.5 69q-25 10 -139 47t-180 69t-111 89.5t-45 144.5q0 83 45.5 151t120 105t154.5 37q45 0 112 -16.5t93 -16.5q48 0 92 49l118 -335l-47 -25q-98 128 -189.5 202t-203.5 74 q-63 0 -111.5 -40.5t-48.5 -100.5q0 -52 34.5 -87t99.5 -64q38 -16 152.5 -53.5t186.5 -72t122.5 -97t50.5 -152.5q-3 -83 -48.5 -153t-119.5 -113t-152 -48z"/>
<glyph glyph-name="florin" d="M692 983h176l-20 -106h-172l-180 -713q-26 -113 -71 -225t-124 -191.5t-192 -79.5q-60 0 -114 33.5t-54 89.5q0 34 21 57t54 23q24 0 44 -10t47 -28t45.5 -26t40.5 -8q80 0 114 160q17 52 38.5 166.5t42.5 242t44 262t47 247.5h-164l17 106h184q21 79 60.5 173t95.5 171 q39 56 86 100t102.5 70.5t108.5 26.5q38 0 78.5 -14.5t67 -44t26.5 -68.5q0 -40 -22 -64t-58 -24q-30 0 -56.5 20t-54 40t-57.5 20q-49 -3 -84.5 -50t-56.5 -108.5t-35.5 -130t-24.5 -117.5z" unicode="ƒ"/>
<glyph glyph-name="circumflex" horiz-adv-x="752" unicode="ˆ" d="M385 1356l-197 -260l-36 28l133 295q17 48 37 73t63 28q64 0 98 -101l138 -295l-41 -28z"/>
<glyph glyph-name="breve" d="M152 1427l57 25q88 -92 165.5 -119.5t170.5 -27.5q69 0 143 37.5t143 109.5l58 -25q-57 -113 -162.5 -188.5t-214.5 -75.5q-102 3 -196 68.5t-164 195.5z" unicode="˘"/>
<glyph glyph-name="ring" horiz-adv-x="700" unicode="˚" d="M469 1309q0 51 -35.5 89t-85.5 38q-48 0 -84.5 -38.5t-36.5 -84.5q0 -49 35.5 -87t85.5 -38t85.5 35.5t35.5 85.5zM549 1309q0 -54 -27 -99t-73.5 -71.5t-100.5 -26.5q-84 0 -140 57t-56 140q0 84 56.5 143t139.5 59q55 0 101.5 -27.5t73 -74.5t26.5 -100z"/>
<glyph glyph-name="tilde" d="M152 1184q33 78 87.5 135t125.5 57q59 0 165.5 -39t153.5 -45q65 6 109 84h59q-32 -85 -90.5 -136.5t-106.5 -55.5q-37 0 -69 7.5t-90.5 27.5t-101.5 30.5t-83 10.5q-61 0 -96 -76h-63z" unicode="˜"/>
<glyph glyph-name="emdash" d="M0 600h1024v-147h-1024v147z" unicode="–"/>
<glyph glyph-name="endash" horiz-adv-x="2048" unicode="—" d="M0 600h2044h4v-147h-2044h-4v147z"/>
<glyph glyph-name="quoteleft" horiz-adv-x="432" unicode="‘" d="M348 1524l25 -35q-56 -51 -103.5 -107.5t-50.5 -101.5q0 -38 41 -59q46 -23 69.5 -48t26.5 -81q0 -47 -32.5 -87t-87.5 -40q-74 0 -115.5 55.5t-44.5 132.5l3 6t1 3v1q3 109 78 199t190 162z"/>
<glyph glyph-name="quoteright" horiz-adv-x="432" unicode="’" d="M125 961q-7 -4 -17 -5.5t-16 -3.5q-13 0 -20 21q10 32 61 86t70.5 80t19.5 73q0 23 -26 35q-61 31 -81 50t-20 75q0 57 32.5 96t90.5 39q51 0 89.5 -24.5t58.5 -65t20 -86.5q0 -83 -45.5 -159.5t-118.5 -135.5q-69 -64 -98 -75z"/>
<glyph glyph-name="quotedblleft" horiz-adv-x="809" unicode="“" d="M727 1524l25 -35q-60 -52 -106 -107.5t-46 -101.5q2 0 -4 -12q5 -34 45 -47q44 -24 67.5 -49.5t26.5 -79.5q0 -47 -33.5 -87t-89.5 -40q-48 0 -83.5 26.5t-54.5 70.5t-21 91l3 6t1 3v1q1 72 40.5 142t98.5 124t131 95zM348 1524l25 -35q-56 -51 -103.5 -107.5 t-50.5 -101.5q0 -38 41 -59q46 -23 69.5 -48t26.5 -81q0 -47 -32.5 -87t-87.5 -40q-74 0 -115.5 55.5t-44.5 132.5l3 6t1 3v1q3 109 78 199t190 162z"/>
<glyph glyph-name="quotedblright" horiz-adv-x="809" unicode="”" d="M100 961l-24 34q58 56 103 111t48 98q0 22 -9.5 35t-29.5 25q-48 24 -70.5 48.5t-25.5 76.5q0 47 33 87.5t90 43.5q49 0 85.5 -27t54.5 -71.5t18 -94.5q0 -109 -81 -206.5t-192 -159.5zM475 961l-22 34q71 64 111 112t40 105q0 31 -41 52q-49 28 -71 50.5t-23 74.5 q0 47 33 87.5t90 43.5q74 0 115 -57.5t41 -135.5q0 -108 -81 -206t-192 -160z"/>
<glyph glyph-name="quotedblbase" horiz-adv-x="809" unicode="„" d="M100 -324l-24 35q146 121 151 209q0 38 -39 55q-48 26 -70.5 51.5t-25.5 77.5q0 48 33 88.5t90 43.5q54 0 89 -30t52 -75.5t17 -93.5q-3 -107 -84 -203.5t-189 -157.5zM475 -324l-18 35q64 58 105.5 111t41.5 110q0 29 -37 43q-24 12 -46.5 29t-35.5 40t-14 60 q0 49 32.5 89t88.5 43q55 0 90 -30t50.5 -75t15.5 -94q-3 -109 -83 -204.5t-190 -156.5z"/>
<glyph glyph-name="bullet" horiz-adv-x="1348" unicode="•" d="M676 377q-100 0 -187.5 50t-138.5 136.5t-51 184.5q0 101 51 188t138.5 137.5t187.5 50.5q99 0 185.5 -50.5t137 -137.5t50.5 -188q0 -98 -50.5 -184.5t-137 -136.5t-185.5 -50z"/>
<glyph glyph-name="guilsinglleft" horiz-adv-x="592" unicode="‹" d="M500 877l28 -33l-231 -324l231 -315l-28 -29l-412 344z"/>
<glyph glyph-name="guilsinglright" horiz-adv-x="592" unicode="›" d="M117 877l411 -357l-411 -344l-29 29l227 315l-227 324z"/>
</font>
</defs>
</svg>
