<?xml version="1.0" encoding="UTF-8" standalone="no"?>
<!DOCTYPE svg  PUBLIC '-//W3C//DTD SVG 1.1//EN'  'http://www.w3.org/Graphics/SVG/1.1/DTD/svg11.dtd'>
<svg xmlns="http://www.w3.org/2000/svg">
<defs>
<font id="BrodyD-Regular" horiz-adv-x="1024">
<font-face underline-position="-102" font-weight="400" descent="-410" panose-1="3 8 8 2 4 4 7 3 3 4" units-per-em="2048" unicode-range="U+0020-F000" bbox="-244 -358 1472 1801" x-height="853" underline-thickness="150" font-family="BrodyD" ascent="1638" cap-height="1366"/>
<missing-glyph horiz-adv-x="2048"/>
<glyph glyph-name=".notdef" horiz-adv-x="2048"/>
<glyph glyph-name="glyph1" horiz-adv-x="0"/>
<glyph glyph-name="glyph2" horiz-adv-x="2048"/>
<glyph glyph-name="space" horiz-adv-x="550" unicode=" "/>
<glyph glyph-name="exclam" horiz-adv-x="488" unicode="!" d="M181 238q1 0 12 -4q4 -2 8 -2q3 0 46 17q7 3 50 -24q58 -36 58 -114q0 -44 -43 -85t-90 -41q-50 0 -84 34.5t-34 85.5q0 47 21 80q12 18 30 35.5t26 17.5zM305 317h-22q-4 0 -19 -5q-8 -3 -15 -3q-18 0 -31 18q-7 9 -23 10q-53 0 -53 105l6 346l1 253l7 140q0 9 -3 19 q-9 28 -9 29q0 14 28 32q17 10 19 10l29 -6q2 0 11 9q4 4 5 4l31 -6q1 0 38 12q6 2 12 2q9 0 44 -23q11 -8 36 -47l-1 -21q0 -4 3 -11q8 -19 8 -20q0 -5 -10 -21q-10 -14 -11.5 -25t-7.5 -82q-1 -21 -15 -85q-19 -96 -31 -206.5t-19 -274.5l-4 -81q5 -46 5 -52q0 -20 -9 -20 z"/>
<glyph glyph-name="quotedbl" horiz-adv-x="679" unicode='&quot;' d="M424 1345l25 -3l32 -2l42 -12q29 -4 34.5 -6t9.5 -10q6 -11 6 -30q0 -44 -4 -86q-4 -48 -4 -50l2 -79v-108l1 -35q0 -26 -4.5 -35t-18.5 -9q-4 0 -35 7l-28 1q-50 9 -58.5 13.5t-8.5 24.5q0 13 3 47q2 16 2 31t-6 102l-1 57l-1 73l1 18v12q0 14 -3 38q-2 11 -2 20 q0 17 16 21zM125 1345l25 -3l32 -2l43 -12q29 -4 34.5 -6t9.5 -10q6 -11 6 -29q0 -46 -9 -137l2 -79v-108l1 -35q0 -44 -23 -44q-4 0 -35 7l-28 1q-49 9 -57.5 13.5t-8.5 24.5q0 17 2 47q1 14 1 31q0 14 -5 102l-1 57l-1 73l2 33q1 9 -4 35q-2 11 -2 21q0 16 16 20z"/>
<glyph glyph-name="numbersign" horiz-adv-x="1092" unicode="#" d="M475 794q-17 -66 -34 -123q-26 -88 -30 -123q19 1 106 6q34 2 99 4q12 42 54 230q-90 2 -195 6zM503 920q18 0 90 5q34 2 110 4l5 21q18 79 64 292q-3 14 -3 15q2 17 28.5 33.5t53.5 16.5q34 0 58 -38q20 -31 20 -50q0 -3 -3 -13q-11 -42 -46 -196q-14 -61 -19 -82h11 q7 0 66 -13q49 9 76 14q17 3 36 3q40 0 40 -22q0 -2 -4 -15q-2 -7 -2 -16q0 -15 -5 -19q-4 -3 -5 -19q-2 -54 -40 -54q-10 0 -45 2q-8 1 -23 1q-7 0 -97 -2h-40q-17 -68 -32 -117q-26 -85 -29 -114h31q54 -1 66 -1q38 0 73 2q27 2 39 2q37 0 37 -19v-7q0 -39 -11 -45 q-3 -2 -4 -16q-5 -57 -43 -57q-5 0 -43 2q-8 1 -22 1q-10 0 -112 -1q-23 -1 -40 -1q-13 -57 -46 -200q-31 -135 -32 -162q-1 -26 -9 -35t-31 -11q-7 -1 -15 -1q-32 0 -62 11q-17 6 -30 27.5t-13 44.5q0 13 21 72q3 9 26 135q4 21 30 120q-77 1 -100 2q-75 3 -94 4l-23 -103 q-51 -219 -56 -266q-1 -26 -9 -35t-31 -11q-7 -1 -15 -1q-32 0 -62 11q-17 6 -30 27.5t-13 45.5q0 12 21 71q4 11 26 135q1 10 32 127q-31 -1 -47 -2q-40 -4 -45 -4l-54 2l-48 -6q-28 0 -28 40q0 25 15 67q10 30 30 29l45 -2l76 9q1 0 36 -6q11 -2 53 -5q33 120 58 249 q-36 0 -62 -2q-44 -4 -57 -4l-43 1l-47 -5q-28 0 -28 42q0 25 11.5 54.5t23.5 34.5q23 11 102 11q18 0 65 -5q31 -4 64 -5q5 18 13 51l37 170q23 78 23 81l-4 45q-1 12 28.5 27t54.5 15q34 0 58 -38q19 -30 19 -50q0 -3 -3 -13q-12 -47 -46 -197q-15 -62 -21 -89z"/>
<glyph glyph-name="dollar" horiz-adv-x="807" unicode="$" d="M450 219q47 0 76 14q16 7 35 8q7 1 8.5 5t2.5 28q9 18 9 29q0 70 -61 123q-59 51 -61 51q-8 0 -10.5 -16t-7.5 -108l6 -58q0 -2 -3 -21q-2 -13 -2 -23q0 -9 2.5 -20.5t5.5 -11.5zM358 1143q-5 2 -26.5 -14t-33.5 -30q-55 -63 -55 -136q0 -25 13 -54.5t31 -45.5 q40 -34 47 -49q10 -14 18 -15q10 -1 10 23q0 2 -5 57l2 27q1 12 1 30q0 23 -1 49q-1 27 -1 48q0 14 8 56q4 53 -8 54zM463 1126l-3 -55q0 -21 -1 -37q-3 -77 -5 -104q-4 -48 -4 -54q0 -137 4 -145l76 -53q100 -61 129 -84t57 -64q57 -82 57 -166q0 -40 -37 -105l-56 -97 q-8 -10 -48 -44.5t-61 -48.5q-47 -32 -104 -39q-21 -2 -25 -8.5t-7 -40.5q0 -4 4 -17q6 -21 6 -24q3 -12 15 -43q3 -7 -17 -17.5t-35 -10.5q-11 0 -39 18q-19 3 -24.5 8.5t-5.5 22.5q0 7 1 15q2 28 2 29q0 42 -3.5 51.5t-19.5 12.5q-139 24 -214 116q-37 45 -61 91.5 t-24 71.5q0 12 5.5 17t29.5 15q10 5 9 37q-1 38 24 38q14 0 18 -3t11 -23q21 -10 24.5 -13.5t11.5 -22.5q18 -45 75 -84t106 -39q10 0 12 18t3 125l1 78q5 73 5 78q0 16 -22 29q-18 11 -55 42q-73 43 -98 63t-57 60q-36 46 -46.5 68t-19.5 74q-9 47 -9 80q0 70 26 133.5 t69 101.5q28 25 95.5 62.5t82.5 37.5l40 -1q9 0 9 12q0 8 -3 17q-9 30 -9 41q0 17 21 35.5t40 18.5q17 0 32 -24t15 -51q0 -4 -1 -14q-2 -10 -2 -17q0 -13 19 -13q22 -1 41 -9q33 -14 45 -14q4 0 14 4q8 3 10 3q15 0 42 -22q18 -15 24 -61q7 -50 10 -62.5t31 -90.5 q25 -89 25 -93q0 -12 -5 -16t-35 -12q-7 0 -33 -21q-24 -19 -41 -19q-3 0 -15 3q-14 5 -30 6q-23 3 -26 9.5t-39 116.5q-22 79 -37 123z"/>
<glyph glyph-name="percent" horiz-adv-x="1099" unicode="%" d="M864 705l-12 -6q-23 -12 -24 -34q-1 -3 -6 -14q-11 -23 -19 -66t-12 -100l-5 -28v-33l-6 -91q-1 -13 7 -85t11 -85q7 -24 18.5 -47.5t15.5 -22.5l12 4q18 4 28.5 23.5t21.5 73.5q24 115 24 224q0 185 -22 237q-20 49 -32 50zM815 777q7 0 13 -1l15 -3l18 3h15q12 3 16 3 q19 0 31 -6t42 -30q48 -30 71 -128q16 -65 17 -111q3 -95 3 -123q0 -43 -12 -117.5t-24 -105.5q-16 -41 -26 -54.5t-51 -49.5q-25 -31 -37 -38q-36 -23 -71 -23q-62 0 -114 53q-10 8 -15.5 17t-28.5 55q-32 65 -32 237q0 69 17 200l2 17q24 107 24 127q0 2 -5 9l3 19 q1 17 5.5 20t30.5 7l10 3l18 3q48 16 65 17zM861 1371q51 0 51 -67q0 -11 -38 -86l-78 -158q-36 -71 -90 -195q-45 -103 -92 -190q-54 -99 -74 -160q-8 -25 -46 -95q-47 -86 -118 -240q-55 -118 -75 -157q-7 -16 -9 -44q-1 -16 -3 -32q-2 -22 -35 -22q-18 0 -26.5 5.5 t-33.5 34.5q-21 23 -21 32q0 14 42 84q17 28 68 147q16 44 125 254q106 202 139 290q31 75 33.5 80.5t63.5 124.5q69 144 112 231q28 59 32.5 73t10.5 53q3 37 59 37h3zM262 1208l-12 -7q-23 -11 -24 -32q-1 -3 -6 -15q-11 -24 -19 -67t-12 -99l-5 -28v-33l-6 -91 q-1 -13 7 -85t11 -85q7 -24 18.5 -47.5t15.5 -22.5l12 4q18 4 28 23.5t22 73.5q24 114 24 224q0 184 -22 237q-20 49 -32 50zM213 1280q7 0 13 -1q15 -3 16 -3l17 2l15 1q12 3 16 3q19 0 31 -6t42 -30q48 -30 71 -128q16 -65 17 -111q3 -95 3 -123q0 -43 -12 -117.5 t-24 -105.5q-16 -41 -26 -54.5t-51 -49.5q-25 -31 -37 -38q-36 -23 -71 -23q-62 0 -114 53q-9 8 -14.5 17t-29.5 55q-32 65 -32 237q0 69 17 200l2 17q24 107 24 127q0 2 -5 9l3 19q1 17 5.5 20t30.5 7l10 3l18 3q48 16 65 17z"/>
<glyph glyph-name="ampersand" horiz-adv-x="942" unicode="&amp;" d="M440 867q54 39 84 94q46 85 46 153q0 14 -16 55q-7 18 -23 29q-11 20 -14 23t-12 3q-20 0 -52.5 -6t-39.5 -12q-16 -11 -20 -17.5t-12 -32.5q0 -1 -9 -23q-12 -30 -12 -66q0 -40 9 -64t45 -84q7 -11 11 -28q2 -7 15 -24zM402 578q-123 -137 -123 -255q0 -65 32.5 -121.5 t70.5 -56.5q11 0 23 5q21 9 41 11q28 2 94 77q37 43 37 53q0 6 -22 45l-32 66l-49 69l-51 81zM776 548q10 0 25 -22q4 -7 11 -7q3 0 19 3q3 1 7 1q19 0 21 -28q29 -29 29 -37q0 -41 -14.5 -70.5t-60.5 -84.5q-9 -10 -9 -16q0 -4 39 -82l19 -32q-10 -29 -12 -52 q-4 -34 -36 -58q-17 -12 -19 -15t-8 -27q-6 -22 -25 -22q-11 0 -35 18q-4 3 -9 29l-12 25q-25 62 -33 62q-7 0 -21 -23q-44 -67 -152 -102q-47 -15 -76 -15q-12 0 -24 3q-16 5 -18 5q-6 0 -33 -9q-12 -4 -23 -4q-60 0 -140 78q-119 116 -119 238q0 130 79 285q18 34 75 91 q50 61 50 66q0 7 -17 27q-21 24 -64 163q-21 71 -21 111q0 47 16.5 97t40.5 75q17 17 19 24q3 12 3.5 12.5t18.5 4.5l18 7q21 1 43 15q19 13 27 15t53 7l80 9q108 -5 131 -9.5t51 -26.5q19 -15 65 -101q31 -57 31 -61l-25 -105q-2 -82 -173 -284q-20 -19 -20 -30q0 -4 8 -17 q48 -70 104 -162q42 -69 52 -69q12 0 29 60q12 40 35 40z"/>
<glyph glyph-name="quotesingle" horiz-adv-x="380" unicode="&apos;" d="M125 1345l25 -3l32 -2l43 -12q29 -4 34.5 -6t9.5 -10q6 -11 6 -29q0 -46 -9 -137l2 -79v-108l1 -35q0 -44 -23 -44q-4 0 -35 7l-28 1q-49 9 -57.5 13.5t-8.5 24.5q0 17 2 47q1 14 1 31q0 14 -5 102l-1 57l-1 73l2 33q1 9 -4 35q-2 11 -2 21q0 16 16 20z"/>
<glyph glyph-name="parenleft" horiz-adv-x="548" unicode="(" d="M359 1412l38 -7l14 -1l18 -8l11 7q7 5 17 5q7 0 13 -3q17 -6 22 -6q1 0 7 2q12 5 20 5q15 0 15 -13q0 -18 -27.5 -62t-58.5 -76q-8 -7 -46 -84t-58 -125q-36 -85 -47 -140t-20 -192q-7 -106 -7 -178q0 -261 143 -511q54 -94 54 -106q0 -20 -18 -20q-1 0 -9 2q-4 1 -8 1 q-3 0 -22 -3q-6 -1 -12 -1q-15 0 -45 14q-2 1 -6 1t-25 -11q-4 -3 -10 -3q-10 0 -18 7q-23 19 -42 52t-111 213q-3 33 -15 69q-51 155 -51 361q0 89 16 204.5t41 197.5q36 125 73 184q75 119 77 127q13 52 18 60.5t29 22.5q22 13 30 15z"/>
<glyph glyph-name="parenright" horiz-adv-x="548" unicode=")" d="M73 1411q3 0 35 -9q20 9 29 9q27 0 30 -1q11 -4 29 -4l12 -8q23 13 29 13q25 0 43 -21t35 -71q4 -9 85 -182q24 -50 50.5 -191.5t26.5 -215.5q0 -28 -27 -175q-34 -255 -39.5 -277.5t-66.5 -154.5q-49 -125 -55.5 -137t-46.5 -49q-29 -28 -34 -31t-30 -7q-38 -8 -47 -8 q-39 0 -69 15l-6 3l-35 -5q-7 -1 -7 16q0 12 26 32q32 24 42.5 41t21.5 60q4 15 63 127q42 83 78.5 254.5t36.5 291.5q0 168 -41.5 313t-118.5 245q-52 69 -61 82.5t-9 24.5q0 20 21 20z"/>
<glyph glyph-name="asterisk" horiz-adv-x="792" unicode="*" d="M378 809q-25 -9 -29 -9q-23 0 -24 21l1 10l1 28l4 47q-8 64 -13 64q-3 0 -14 -12q-23 -27 -65 -47q-21 -7 -22 -7.5t-27 -21.5q-14 19 -27 55q-12 30 -40 59q-5 5 -5 14q0 15 20 27t88 38q17 6 17 11q0 4 -16 12q-18 9 -24 15q-27 21 -42 28q-12 5 -22.5 16.5t-10.5 20.5 q0 7 9 20q18 27 30 62q4 11 21 17q12 13 18 13t38 -24q56 -27 66 -39q17 -25 20 -25q11 0 10 21q0 4 -1 8q-9 36 -10 49q-1 9 1 34v6v12q-1 8 -1 10q0 9 13 18.5t25 9.5q8 0 29 -8q7 -3 10 -3q5 0 28 7q8 3 16 3q30 0 32 -52q0 -25 1 -31q1 -21 1 -32q0 -6 -2 -15 q-3 -15 -2 -17q2 -2 19 2.5t24 8.5q6 3 27 25q10 11 52 21q1 0 27 -41l18 -32q25 -37 25 -43q0 -13 -6.5 -18t-26.5 -8l-46 -33q-44 -15 -44 -20q0 -1 32 -29l32 -9l22 -14q29 -14 34 -18t5 -13q0 -13 -38 -46q-12 -12 -25 -63l-5 -11l-12 5l-20 -2q-2 0 -22 22q-3 4 -36 22 q-13 8 -44 45q0 -32 -3 -69l1 -20l-8 -45q0 -5 3 -19q1 -3 1 -5q1 -16 -11 -16h-2l-14 1l-31 1z"/>
<glyph glyph-name="plus" horiz-adv-x="792" unicode="+" d="M322 715v22v21q-1 153 -3 181q-1 21 -1 33q0 34 25 34h3l36 -2l20 2l24 -1l28 1q22 -1 22 -24q0 -9 -2 -37q-1 -8 -1 -18v-24q1 -45 1 -84q0 -45 -1 -102h48q149 1 180 3q25 1 31 1q34 0 34 -24q0 -4 -5 -40l-1 -20q-3 -23 -4 -36q-4 -40 -31 -38q-40 3 -53 3 q-9 0 -103 -2q-22 0 -98 2q0 -30 -2 -102l4 -94l-1 -23q0 -8 4 -32q2 -9 2 -17q0 -12 -7 -15t-37 -4l-25 -1l-36 4q-38 0 -47 5t-9 28q0 32 10 145q-4 69 -4 107q-39 1 -51 1q-55 1 -70 1l-85 -3l-23 1q-9 0 -33 -4q-9 -2 -16 -2q-18 0 -17 17l2 28l1 24l9 36q4 39 10 47.5 t29 8.5q31 0 143 -10q2 0 55 2q16 1 45 1z"/>
<glyph glyph-name="comma" horiz-adv-x="433" unicode="," d="M149 231l43 -2q2 0 34 6q9 1 18 1q26 0 50 -22q59 -54 59 -101q0 -25 -12.5 -83.5t-24.5 -89.5q-20 -52 -51.5 -84.5t-61.5 -32.5q-25 0 -25 18q0 11 19 40q23 35 23 84q0 12 -5.5 15t-37.5 8q-33 3 -40.5 5.5t-20.5 15.5q-35 34 -35 71q0 43 23 93.5t45 57.5z"/>
<glyph glyph-name="hyphen" horiz-adv-x="462" unicode="-" d="M349 369h-26l-52 -3l-86 6l-73 -3l-31 1q-11 0 -38 -5q-12 -2 -21 -2q-22 0 -20 20l3 32l1 42l10 55q4 37 5.5 44.5t9.5 12.5q12 9 33 9q47 0 134 -9l80 4l107 3l42 1q38 0 38 -27q0 -7 -6 -48l-1 -36q-5 -73 -7 -78q-5 -23 -31 -23q-10 0 -45 3q-10 1 -26 1z"/>
<glyph glyph-name="period" horiz-adv-x="433" unicode="." d="M163 230q6 0 43 -5l53 9q20 0 56 -40.5t36 -60.5q0 -4 -10 -32q-3 -3 -7 -37q-3 -24 -8.5 -34.5t-29.5 -35.5q-43 -43 -76 -43q-14 0 -52 13q-38 11 -46 15t-17 18q-23 35 -23 81q0 54 41 122q11 19 18 24.5t22 5.5z"/>
<glyph glyph-name="slash" horiz-adv-x="818" unicode="/" d="M727 1363q51 0 51 -69q0 -12 -38 -89l-78 -163q-36 -73 -90 -201q-44 -105 -92 -195q-54 -103 -74 -166q-8 -26 -46 -98q-47 -90 -118 -247q-55 -122 -75 -163q-7 -16 -9 -44q-1 -17 -3 -33q-1 -23 -34 -23q-19 0 -27.5 5.5t-33.5 35.5q-21 24 -21 33q0 14 42 86 q17 30 68 152q15 43 125 262q105 208 139 299q31 78 33.5 83.5t63.5 128.5q111 237 143 310q7 17 12 58q3 38 62 38z"/>
<glyph glyph-name="zero" horiz-adv-x="790" unicode="0" d="M419 1177q-3 1 -43 -21q-26 -14 -29 -52q0 -4 -7 -20q-8 -20 -41 -163q-4 -16 -10 -109l-8 -44l-1 -55l-9 -145q-1 -21 11.5 -139t17.5 -138q13 -47 33.5 -86t30.5 -36l24 7q23 5 30 12.5t24 41.5q29 60 50.5 200.5t21.5 274.5q0 158 -8.5 248.5t-27.5 135.5 q-22 55 -32.5 70.5t-26.5 17.5zM338 1271q10 0 18 -1q28 -4 29 -4l28 3l25 2q19 4 24 4q28 0 46 -9t65 -47q25 -16 34.5 -26t29.5 -45q20 -32 32.5 -74t36.5 -152q9 -42 9 -277q0 -68 -19 -187.5t-38 -168.5q-25 -65 -40.5 -85.5t-81.5 -78.5q-40 -48 -58 -60 q-55 -35 -108 -35q-57 0 -127 39q-16 9 -50 44l-18 15l-34 68q-28 55 -33.5 70t-12.5 53q-20 113 -20 285q0 112 27 320l3 26q39 171 39 207q0 8 -9 19l6 24q2 22 6.5 25.5t42.5 8.5l18 6l26 4q77 26 104 27z"/>
<glyph glyph-name="one" horiz-adv-x="790" unicode="1" d="M491 96l8 -8q9 -28 9 -58q0 -15 -34 -25l-12 -4l-20 4q-33 3 -42 10t-30 43q-5 10 -8 11.5t-19 1.5q-17 0 -38 21q-7 5 -7 44v28l1 17q0 3 -3 15q-16 58 -16 234q0 86 20 402l1 125l2 59q0 11 -2.5 15t-19.5 19q-12 11 -12 22q0 8 7 24q11 27 27 115q11 66 22 68 q1 0 6 -2q8 -3 23 -3q25 0 74 19q17 7 32 7q11 0 22 -13q7 -8 24 -15q34 -34 34 -42q0 -5 -15 -38q-6 -15 -9 -66q-13 -103 -15 -197q-1 -46 -8 -217q-5 -107 -5 -147l2 -330q0 -112 1 -139z"/>
<glyph glyph-name="two" horiz-adv-x="790" unicode="2" d="M630 25q-8 0 -60 -12l-43 6l-31 4q-37 8 -47 8q-23 0 -54 -6q-90 -16 -115 -16q-33 0 -71 10q-23 6 -32 7h-4q-40 0 -39 72v17q0 11 -1.5 13t-13.5 8q-17 7 -17 31q0 19 19 37q28 29 120 200t142 287q71 166 95 246t24 149q0 31 -5 41.5t-30 30.5q-20 18 -29 18 q-18 0 -35 -25t-46 -96q-4 -8 -19 -41q-20 -45 -42.5 -117t-22.5 -92q0 -6 3 -14q5 -12 5 -15t-13 -18.5t-16 -15.5l-39 3q-3 0 -15 -7q-17 -10 -28 -10q-21 0 -52 58q-27 53 -27 64q0 6 18 68l38 120q32 126 33.5 131.5t21.5 45.5q3 6 3 17q1 20 2 21.5t21 11.5l11 6 q19 -10 22 -10q4 0 25 12q8 5 68.5 14.5t83.5 9.5q66 0 108 -22q82 -32 118 -83.5t36 -137.5q0 -226 -120 -408q-28 -44 -34 -75q-1 -11 -54 -97q-60 -96 -63 -108q-39 -82 -47 -93q-10 -15 -11 -18.5t-1 -22.5v-22l33 11l59 -9q2 0 43 12q23 5 118 5q25 1 29 1q17 0 17 -19 l-1 -27l3 -19q-14 -32 -10 -43q1 -2 19 -22q8 -10 8 -23q0 -41 -24 -50q-3 -2 -34 -2z"/>
<glyph glyph-name="three" horiz-adv-x="790" unicode="3" d="M182 454l52 -1q5 0 14 3t16 3q16 0 16 -15q0 -3 -4 -13q-2 -5 -2 -9t18 -30l-3 -9q-3 -7 -3 -17q0 -92 45 -170q6 -10 32.5 -32.5t32.5 -22.5q20 0 48 82q33 97 33 222q0 79 -8 112q-13 52 -30 52h-1l-106 -9q-7 -1 -31 23t-22 30l9 31q1 31 7 31l27 -1q5 0 25.5 9.5 t28.5 15.5q33 23 55 109.5t22 189.5q0 74 -11 101.5t-47 42.5l-18 9q-13 0 -26 -28.5t-41 -117.5q-42 -135 -42 -148v-7q5 -40 5 -42q0 -22 -24 -22q-10 0 -21 3q-19 6 -25 6t-17 -4q-28 -11 -41 -11q-20 0 -41 25.5t-21 49.5q0 16 28 124l31 116q32 87 33 100q7 51 31 51 q10 0 19 -13q6 -8 7 -8l25 10q2 2 16 3q17 2 51 12q19 5 90 5q108 0 185.5 -73.5t77.5 -174.5q0 -17 -4 -32l-5 -22l1 -35q0 -7 -22.5 -71.5t-34.5 -93.5q-11 -25 -42 -51q-2 -2 -8.5 -17.5t-5.5 -18.5q3 -8 38 -26q42 -21 75.5 -109t33.5 -178q0 -31 -10 -62.5t-47 -118.5 q-13 -31 -23 -42t-57 -48l-24 -22q-54 -35 -64 -39q-16 -2 -17 -2.5t-8 -11.5q-26 -27 -88 -27h-9q-16 0 -23 -1q-46 -6 -47 -6q-16 1 -68 35q-12 8 -21.5 20t-54.5 77q-21 31 -23 38l-7 27l-16 57l-7 61q-5 41 -6 47l-2 8q4 19 67 44q24 24 34 27z"/>
<glyph glyph-name="four" horiz-adv-x="790" unicode="4" d="M439 1120q-16 0 -20 -36q-19 -117 -104 -369q-40 -110 -44 -152q-5 -40 -7.5 -50t-15.5 -39v-2q0 -13 28 -13q38 0 70 4q13 2 16 2l46 -3q4 0 16 9t12 11l-9 46q0 1 6 13q8 16 8 50q0 7 -2 65q-1 21 -1 40q0 11 5 174l3 74l6 57l4 70q3 20 3 23q0 9 -6.5 17.5t-13.5 8.5z M628 272q-2 -19 -3 -28q-7 -48 -7 -50q4 -82 5 -91q1 -8 3 -10.5t13 -8.5q9 -5 9 -26q0 -12 -3.5 -15t-23.5 -9l-40 -24l-20 -2l-21 -6q-3 0 -26 15.5t-30 23.5q-14 17 -20 17q-1 0 -7 -3q-8 -5 -16 -5t-15.5 7.5t-6.5 13.5l8 40l3 76l3 73q-1 17 -21 17l-82 -4 q-63 0 -84 -5q-33 -9 -34 -9l-56 10q-33 6 -35.5 7t-8.5 9q-13 18 -18 63q-6 49 -9 57t-24 28q-11 10 -11 23q0 35 24 87q19 49 116 364l56 197q38 121 40 129q10 60 33 60q2 0 12 -3q15 -5 59 -5q8 0 40 10q2 1 5 1l33 -1q4 0 24 2q14 1 31 1q36 0 48 -13q15 -15 16 -15 l19 3l13 -6q23 -3 28 -6t5 -14q0 -10 -5 -23q-17 -39 -17 -357v-36q-14 -190 -14 -233q0 -24 3 -36q7 -29 7 -31l-7 -60q-1 -10 55 -12q29 -2 29 -17q0 -2 -8 -30q-1 -5 -1 -9q0 -8 9 -30l5 -39l4 -26q0 -7 -8.5 -17.5t-15.5 -12.5q-6 -1 -31 -2q-29 0 -29 -4z"/>
<glyph glyph-name="five" horiz-adv-x="790" unicode="5" d="M269 352q11 0 19 -45q11 -67 35 -102q28 -40 49 -40q17 0 21 14q1 4 23 27q14 5 26 72q6 39 18 90q12 53 12 77q0 96 -35 145q-8 12 -28.5 23t-32.5 11q-21 0 -51 -28.5t-41 -59.5q-2 -6 -12 -19.5t-12 -13.5l-31 3l-31 -4q-16 0 -34 19.5t-18 37.5t5 50q3 36 6 250 q1 100 4 130q8 67 8 76l-3 94q0 3 3 14q7 24 7 26l-3 41q0 6 27 24q18 14 22.5 16.5t14.5 2.5h14q31 -1 35 -1q231 0 270 3h11q7 0 16 -3.5t9 -6.5l-6 -35q0 -3 12 -8q37 -15 37 -85q0 -10 -10 -24q-4 -39 -16 -39q-1 0 -20 9q-7 3 -19 3q-69 0 -99 -6q-21 -4 -24 -4l-58 2 q-31 0 -31 -180v-24q1 -34 1 -57q0 -18 -3 -43q-1 -10 -1 -17q0 -12 11 -12q5 0 45 12q26 8 53 8q50 0 96 -31t75 -85q38 -70 38 -172q0 -46 -12 -106q-2 -64 -7 -84.5t-30 -70.5q-29 -55 -35.5 -63.5t-54.5 -49.5q-53 -50 -75.5 -63t-72.5 -23q-35 -13 -48 -13 q-61 0 -118.5 51t-83.5 127q-19 55 -23 63q-10 18 -10 24q0 3 8 26q0 2 4 20q5 18 8 17l42 -13q26 3 29 3q6 0 12 -1q16 -2 19 -2q17 0 33 15q8 8 11 8z"/>
<glyph glyph-name="six" horiz-adv-x="790" unicode="6" d="M413 645q-42 0 -94 -37q-16 -12 -20.5 -45.5t-4.5 -149.5q0 -91 25 -172q25 -77 43 -80l25 -2l18 -3q31 5 61.5 102.5t30.5 190.5q0 57 -6 110q-3 29 -10.5 42.5t-28.5 25.5q-27 17 -39 18zM312 747q15 6 19 6l20 -1l52 17l18 2l63 13q7 0 17 -7q13 -10 14 -10l25 1 q7 0 22 -16q13 -12 56 -40l22 -29q19 -20 27 -36.5t20 -63.5q21 -79 21 -133q0 -33 -35 -170q-7 -28 -20 -54t-40 -63q-35 -49 -97 -89q-83 -53 -122 -53q-9 0 -62 14q-15 4 -27 6q-44 7 -80 40t-59 87q-1 2 -15 23q-18 26 -37 120.5t-19 154.5l2 89l-2 72l8 80l4 87 q9 51 25 140q8 46 16 65l10 27q4 9 11 39q22 99 34 122q4 12 6 17q3 13 20 28q15 38 24 36l25 -5h11l14 -3l30 11l19 -2l49 11l37 -4l67 -6l29 4q4 1 22 -14t25 -25q9 -12 11.5 -13.5t19.5 -3.5q6 -1 11 -20q6 -26 13 -47q25 -82 25 -121q0 -28 -14 -68t-24 -40q-1 0 -7 3 q-3 2 -4 2l-20 -8q-22 -4 -39 -15q-13 -9 -27 -9q-13 0 -17.5 6t-12.5 35q-3 11 -28 107l-6 76q-20 40 -25 46.5t-19 6.5q-17 0 -23.5 -7.5t-12.5 -36.5q-1 -6 -7 -21q-17 -40 -41.5 -152t-24.5 -149z"/>
<glyph glyph-name="seven" horiz-adv-x="790" unicode="7" d="M377 34q-4 -1 -16 -12q-11 -10 -18 -10t-19 8t-16 16l-11 19l-16 3q-11 2 -13 8t-4 35q-1 12 -23 55q-7 13 -7 39q0 80 19 194.5t50 220.5q65 217 71 285q9 113 29 148q4 6 4 8q0 13 -22 13l-64 -8l-30 -6l-27 1l-23 -1q-1 0 -15 6q-12 4 -22 4q-5 0 -35 -3q-6 -1 -9 -1 q-10 0 -18 14q-32 55 -32 63l7 88v14q0 11 -5 38q1 4 28 9q18 6 22 6q6 0 19 -13l14 -6q24 -14 31 -16.5t27 -2.5q31 0 120 15q159 27 161 28q10 4 11 4l28 -8q38 -7 38 -12l-3 -29q0 -3 19 -16q13 -7 26 -34q16 -34 22 -44q6 -11 6 -15q-1 -5 -12 -19q-12 -15 -47 -116 q-8 -21 -17 -40q-16 -33 -18.5 -42t-39.5 -152l-17 -88l-14 -48q-44 -192 -48 -207q-3 -11 -5 -48l-21 -169l3 -71l-5 -39l3 -34q0 -12 -14 -16q-9 -2 -19 -14q-3 -3 -6 -3z"/>
<glyph glyph-name="eight" horiz-adv-x="790" unicode="8" d="M406 1194q-45 0 -87 -47q-25 -28 -24 -47l1 -16l-4 -61q0 -19 15.5 -56.5t33.5 -61.5q29 -40 42 -40t43 44t54 98q18 42 28 54q15 19 15 31q0 8 -7 19q-3 1 -14 33q-4 9 -23 18q-22 22 -33.5 26.5t-39.5 5.5zM397 571q-4 1 -54 -64q-15 -20 -47 -90.5t-32 -83.5 q0 -40 5.5 -76t20.5 -47l14 -23l14 -18l11 -16l14 -6q30 -19 38 -22t27 -3q43 0 76 48q45 65 45 152q0 76 -68 167q-55 73 -64 82zM520 752q17 -23 106 -130q37 -45 64 -122.5t27 -138.5q0 -36 -3 -46.5t-17 -26.5q-3 -4 -15 -51q-7 -39 -84 -132q-30 -36 -53.5 -50.5 t-60.5 -20.5l-30 -11l-45 -4l-56 -8q-2 0 -107 22q-21 4 -31.5 12.5t-54.5 53.5q-53 55 -63 76q-22 48 -22 106q0 75 34 192q13 45 22.5 63t29.5 39l14 20q69 89 69 101q0 10 -21 28q-35 30 -64.5 74t-43.5 86q-13 22 -15 29.5t-2 29.5q0 83 20 139.5t71 114.5q28 32 42 44 q3 3 31 6q8 0 33 10q69 30 119 30q109 0 162 -39q23 -18 29 -18q5 0 9 3l12 9q1 0 11 -7q7 -5 19 -5q5 0 10 1q45 8 46 8q5 0 23 -17q26 -12 25 -25l-2 -30q15 -14 15 -21q0 -8 -17 -22q-7 -7 -46 -60l-50 -81l-68 -102q-49 -90 -72 -129z"/>
<glyph glyph-name="nine" horiz-adv-x="790" unicode="9" d="M408 1199q-36 -16 -43.5 -23.5t-15.5 -34.5q-1 -4 -8 -20q-13 -32 -28.5 -127t-15.5 -144q0 -64 12 -170q2 -16 16 -34q23 -37 37 -48t37 -11q20 0 30.5 9t42.5 56q12 17 14 33t3 93l-4 48l4 46l-1 33l-1 34l-9 64l-4 59q-12 67 -16 83q-6 20 -21 36.5t-29 17.5zM410 31 q-15 -10 -22 -10q-11 0 -25 2q-38 6 -56 6h-6q-15 -2 -16 -2l-18 4l-13 -1q-5 0 -75 79q-18 19 -42.5 84.5t-24.5 89.5q0 16 11 30.5t23 14.5q2 0 8 -2q6 -3 7 -3l21 16q74 26 82 26q14 0 15 -47l21 -49q9 -34 25 -56q5 -5 33.5 -25.5t32.5 -20.5q22 0 58.5 116.5 t36.5 186.5q0 31 -24 31q-6 0 -32 -18q-4 -4 -37 -14.5t-36 -9.5q-59 13 -66 14q-10 2 -44 22q-26 4 -33 7.5t-24 19.5q-58 53 -82.5 124.5t-24.5 187.5q0 61 7 95t49 179q11 38 26 64q2 3 6 27q3 20 27 34q47 30 55 29l20 -2q4 0 75 18q11 3 14 3t88 -4l57 -15 q22 0 35.5 -11t70.5 -79q44 -51 68 -186q20 -107 20 -175q0 -8 -2 -59q0 -15 -1 -35q-1 -118 -7.5 -182t-27.5 -178q-11 -61 -17.5 -79.5t-22.5 -40.5q-6 -8 -20 -53q-10 -29 -17 -39t-41 -37q-59 -53 -76 -62q-31 -16 -37 -16z"/>
<glyph glyph-name="colon" horiz-adv-x="433" unicode=":" d="M168 671q7 0 11 -1l32 -3l53 9h2q17 0 53.5 -40.5t36.5 -60.5q0 -4 -10 -32q-3 -3 -7 -37q-3 -24 -8.5 -34.5t-29.5 -35.5q-43 -43 -76 -43q-14 0 -52 13q-38 11 -46 15t-17 18q-23 35 -23 81q0 53 41 121q11 19 18 24.5t22 5.5zM163 230q6 0 43 -5l53 9q20 0 56 -40.5 t36 -60.5q0 -4 -10 -32q-3 -3 -7 -37q-3 -24 -8.5 -34.5t-29.5 -35.5q-43 -43 -76 -43q-14 0 -52 13q-38 11 -46 15t-17 18q-23 35 -23 81q0 54 41 122q11 19 18 24.5t22 5.5z"/>
<glyph glyph-name="semicolon" horiz-adv-x="433" unicode=";" d="M173 671q6 0 11 -1q30 -3 32 -3l53 9h2q17 0 53.5 -40.5t36.5 -60.5q0 -4 -10 -32q-3 -2 -7 -37q-3 -24 -8.5 -34.5t-29.5 -35.5q-43 -43 -76 -43q-14 0 -52 13q-38 11 -46 15t-17 18q-23 35 -23 81q0 53 41 121q11 19 18.5 24.5t21.5 5.5zM149 231l43 -2q2 0 34 6 q9 1 18 1q26 0 50 -22q59 -54 59 -101q0 -25 -12.5 -83.5t-24.5 -89.5q-20 -52 -51.5 -84.5t-61.5 -32.5q-25 0 -25 18q0 11 19 40q23 35 23 84q0 12 -5.5 15t-37.5 8q-33 3 -40.5 5.5t-20.5 15.5q-35 34 -35 71q0 43 23 93.5t45 57.5z"/>
<glyph glyph-name="less" d="M955 1195v-192l-682 -320l682 -320v-192l-887 430v165z" unicode="&lt;"/>
<glyph glyph-name="equal" horiz-adv-x="792" unicode="=" d="M367 579h62l92 1q147 1 180 3q22 1 34 1q31 0 31 -22q0 -6 -5 -42l-1 -20q-6 -55 -10 -64.5t-22 -9.5q-8 0 -36 2q-8 1 -19 1h-23q-60 -2 -87 -2q-22 0 -58 1q-70 2 -233 3l-72 2l-83 -4l-14 1h-9q-9 0 -33 -4q-9 -2 -16 -2q-18 0 -17 17l2 27l1 25l9 36q4 39 10 47.5 t29 8.5q32 0 68 -3q78 -7 79 -7q73 4 141 4zM367 852h62l92 1q150 1 180 3q22 1 34 1q31 0 31 -23q0 -5 -5 -41l-1 -20q-6 -55 -10 -64.5t-22 -9.5q-5 0 -36 2q-7 1 -19 1q-10 0 -110 -2q-13 0 -58 1q-68 2 -233 3l-72 2l-83 -4h-14l-9 1q-10 0 -33 -4q-9 -2 -16 -2 q-18 0 -17 17l2 28l1 24l9 36q4 39 10 47.5t29 8.5q32 0 68 -3q77 -7 79 -7q70 4 141 4z"/>
<glyph glyph-name="greater" d="M69 1195l887 -429v-165l-887 -430v192l682 320l-682 320v192z" unicode="&gt;"/>
<glyph glyph-name="question" horiz-adv-x="764" unicode="?" d="M315 264l28 -4l16 2l18 -4q28 9 33 9q30 0 67 -46q35 -42 35 -58q0 -10 -12 -38q-1 -2 -14 -52q-7 -27 -12.5 -33.5t-44.5 -31.5q-25 -23 -47 -23q-19 0 -62 16q-40 10 -47.5 14t-14.5 18q-13 30 -13 91q0 18 4 28.5t28 54.5q19 43 23 49t15 8zM379 376q-10 -10 -15 -16 q-11 -12 -13 -11l-24 13q-30 11 -40 22t-10 32q0 14 13 63q0 2 3 41q3 61 22 101t137 236q63 177 63 184q0 30 -17 81q-4 23 -23 48t-32 25q-12 0 -25 -5q-15 -5 -18 -5l-35 2q-3 0 -57 -49q-15 -14 -37.5 -71t-32.5 -107q-9 -50 -13 -60q-4 -9 -4 -12q0 -12 18 -22 q14 -7 14 -10t-7 -8q-13 -10 -14 -12t-9 -27q-4 -13 -17.5 -24t-26.5 -11q-11 0 -29 10q-25 13 -45 13q-51 30 -62 45.5t-11 55.5q0 86 67 279q20 59 35.5 76t49.5 17q11 0 35 -14l26 11l50 13q44 18 60.5 21.5t61.5 3.5q40 0 64 -8t124 -54q47 -21 66 -39.5t38 -62.5 q22 -52 22 -110t-11.5 -91t-65.5 -134l-9 -20q-67 -89 -80.5 -108.5t-26.5 -47.5q-66 -139 -66 -184q0 -12 2 -28q1 -7 1 -12t-11 -19q-5 -4 -5 -24q1 -34 -20 -34q-11 0 -34 22q-14 11 -26 25z"/>
<glyph glyph-name="at" horiz-adv-x="1387" unicode="@" d="M733 969q-16 1 -31 -30q-8 -15 -16 -27q-12 -22 -69 -196q-34 -104 -34 -182q0 -44 8.5 -71.5t22.5 -27.5q9 0 20 17q15 23 18 25q20 19 23 28q2 5 16 33q29 77 32 102l7 21l5 35q6 11 7 27q0 13 8 38q18 53 22 89q10 35 10 47q0 23 -6 43q-2 10 -5.5 12t-20.5 5 q-13 11 -17 12zM732 465q-15 -21 -60 -92q-8 -12 -38.5 -40t-46.5 -37q-21 -13 -38 -13q-44 0 -87 44q-51 51 -51 157q0 75 31 218t60 205q19 39 84 114q12 14 60.5 34.5t69.5 20.5q37 0 84 -51q8 -9 13 -10l14 2q2 1 7 1q16 -17 27 -20.5t50 -4.5q32 -1 46.5 -11t18.5 -36 q9 -12 9 -16q0 -6 -9 -19q-8 -12 -9 -15t-1 -25q2 -4 -7 -27q-18 -47 -22.5 -63.5t-21.5 -109.5q-17 -57 -17 -100q0 -90 37 -113q9 -6 43.5 -19t40.5 -13q20 0 59.5 45.5t63.5 95.5q14 32 26 99t12 119q0 136 -49 211q-43 66 -98 127t-85 76q-26 14 -107 37t-98 23h-3 l-79 -11q-96 -10 -118.5 -17t-63.5 -39q-30 -24 -97 -93.5t-79 -89.5q-26 -42 -52.5 -114.5t-29.5 -108.5q-10 -101 -10 -179q0 -32 3.5 -47t22.5 -70q30 -96 43 -126t46 -76q52 -73 76.5 -90.5t172.5 -88.5q58 -28 69.5 -30.5t79.5 -3.5h28q13 0 114 24q74 17 97 29 q9 4 102 85l78 66q19 59 26 63.5t89 8.5l38 5q12 -6 12 -29q0 -38 -87 -130q-63 -67 -221 -155q-41 -23 -125 -41.5t-146 -18.5q-134 0 -326 82q-59 24 -102.5 59.5t-113.5 113.5q-59 67 -83 113.5t-49 144.5q-28 110 -28 167q0 64 24.5 164t52.5 153q52 98 108 153 q75 72 136.5 109t156.5 66q136 42 250 42q72 0 96.5 -5t97.5 -35q68 -24 84.5 -31.5t44.5 -26.5q97 -67 135 -104.5t80 -108.5q34 -56 41.5 -75t12.5 -61q12 -84 12 -121q0 -53 -19.5 -124t-46.5 -116q-45 -73 -124 -135q-104 -82 -143 -82q-4 0 -7 1l-64 13 q-120 19 -156 39.5t-67 87.5z"/>
<glyph glyph-name="A" horiz-adv-x="962" unicode="A" d="M473 1219q-6 0 -24 -70q-4 -20 -19 -148q-18 -83 -24 -120q-22 -146 -39 -213q-7 -27 -7 -51q0 -39 18 -40q2 0 12 5q20 10 45 10l90 -2q23 0 32.5 9.5t9.5 30.5q0 44 -3 89q-4 57 -4 58l7 137q-5 84 -5 112q0 34 1 73q1 20 1 35q0 62 -52 68q-17 3 -39 17zM720 1248h5 q11 -1 40 -25t29 -32q0 -2 -4 -11q-23 -54 -23 -331q0 -78 8 -141q11 -87 10 -105q0 -29 10 -43q10 -16 12 -16l19 3q5 1 9 -19q4 -18 13 -29q9 -12 9 -17q0 -4 -6 -13q-6 -8 -13 -22q-6 -12 -8.5 -14t-21.5 -6q-6 -1 -6 -16q0 -21 8 -49q4 -17 23 -116q14 -74 27.5 -104 t34.5 -33q12 -2 13.5 -3.5t3.5 -16.5l11 -24q0 -6 -9.5 -14.5t-15.5 -8.5q-19 0 -24 -2.5t-24 -17.5q-32 -26 -56 -26q-13 0 -43.5 9.5t-48.5 18.5l-19 -1q-17 0 -40 28q-22 26 -21 30l8 51q0 1 -5 17q-3 15 -28 195q-4 26 -7 30.5t-17 4.5q-15 0 -80 -8q-72 -9 -103 -9 q-15 0 -48 6q-9 2 -17 2q-35 0 -66 -106q-21 -73 -41.5 -115t-56.5 -84q-20 -29 -30.5 -37t-25.5 -8q-21 0 -59 19q-18 9 -24 9q-2 0 -19 -5q-8 -2 -16 -2q-39 0 -39 27q0 8 64 101q12 24 76 194q16 43 77.5 297.5t75.5 335.5q40 232 61 273q9 19 24 69q2 7 28 19.5t37 12.5 q5 0 24 -13q11 -8 22 -8q10 0 22 4q32 9 38 9q1 0 107 -22q21 -4 28.5 -9.5t29.5 -32.5q32 -25 58 -50z"/>
<glyph glyph-name="B" horiz-adv-x="1016" unicode="B" d="M370 210q7 3 10 3q5 0 29 -23q8 -8 39.5 -18t48.5 -10q42 0 93 29t91 75q73 84 73 182q0 59 -36 96q-47 50 -151 50q-96 0 -197 -30q-3 -47 -3 -103l1 -55q0 -38 -1 -50q-3 -79 -3 -87q0 -14 6 -59zM344 1109q18 -9 28 -13q31 -13 42 -31q13 -23 13 -30q0 -4 -9 -15 q-14 -17 -18.5 -45t-16.5 -178q-2 -27 26 -27t91 24t110 53q67 41 115 112.5t48 131.5q0 46 -35 67q-18 10 -57 20t-62 10q-54 0 -179 -48q-48 -12 -96 -31zM737 709q14 -13 19.5 -16.5t52.5 -25.5q67 -31 110.5 -105.5t43.5 -158.5q0 -78 -51 -183q-21 -44 -31 -57t-48 -49 q-34 -32 -36 -32l-24 -5q-4 -1 -42 -30q-22 -17 -90 -31.5t-126 -14.5q-48 0 -89 26q-38 24 -56 34q-13 -105 -36 -105q-7 0 -14 4l-22 11l-28 -3q-32 9 -48 9t-28 7q-10 7 -24.5 23t-14.5 21q0 1 4 17q2 7 2 16q0 14 -4 28q-9 34 -9 40q0 5 5 23q6 21 6 26v131l13 228 q2 189 2.5 195.5t13.5 138.5q7 66 7 130q0 52 -29 52q-10 0 -59 -22q-66 -22 -83 -35.5t-20 -45.5q-44 19 -51.5 24.5t-7.5 20.5q0 26 16 85q-29 35 -29 47q0 25 73 66t209 93q199 76 369 76q93 0 157.5 -40t86.5 -112q61 -61 85.5 -111.5t24.5 -112.5q0 -129 -106 -207 q-73 -53 -94 -70z"/>
<glyph glyph-name="C" horiz-adv-x="932" unicode="C" d="M608 1223q-11 0 -32 16q-14 10 -36 10q-23 0 -33.5 -6t-43.5 -39q-21 -21 -34.5 -48t-55.5 -133q-29 -74 -36.5 -105t-25.5 -142q-15 -96 -15 -136q0 -23 15 -134q8 -78 12.5 -94.5t33.5 -77.5l13 -30l27 -19q48 -56 66 -67q44 -28 97 -28q68 0 141 60q87 72 113 118 q30 52 40 52q29 0 43 -16q25 -27 25 -38q0 -32 -38 -99t-85 -117q-52 -57 -108 -99q-10 -7 -55 -19q-71 -26 -89 -30.5t-54 -4.5q-78 0 -120 18t-104 77q-119 114 -157 208q-46 113 -46 283q0 269 94 495q58 138 146 216t187 78q24 0 122 -17q63 -9 92.5 -20t75.5 -44 q55 -38 55 -69q0 -23 -3 -52q-3 -35 -3 -43q0 -146 8 -188q2 -13 2 -20q0 -14 -16 -29q-28 -28 -47 -28q-2 0 -10 3q-34 -13 -46 -13t-51 29q-6 4 -28 4q-15 1 -18.5 4t-5.5 20q0 3 -3 19t-7 107l7 149q0 7 -9 39z"/>
<glyph glyph-name="D" horiz-adv-x="1061" unicode="D" d="M371 1131q12 -13 36 -25l9 -14q27 -26 27 -33q0 -6 -8 -18q-20 -29 -27 -62t-10 -106q-9 -230 -12 -291q-8 -169 -8 -228l2 -140v-29q13 -5 41 -28q6 -5 17 -5q41 0 112 61.5t119 138.5q40 65 55.5 108t40.5 160q24 116 24 122l-8 128q0 55 -1 67t-6 28q-40 121 -61 148 q-22 29 -62 47.5t-80 18.5q-90 0 -200 -48zM377 56q-8 -19 -10 -25q-18 -48 -51 -48q-11 0 -42 17l-31 4l-19 11l-30 14q-3 2 -23 57q-12 35 -12 76q0 18 7 225q4 192 5 210t18 194l4 157l10 79q0 13 -8.5 27.5t-16.5 14.5q-5 0 -18 -11q-4 -8 -45 -25q-37 -16 -55.5 -31.5 t-38.5 -48.5q-9 -14 -14 -14q-8 0 -31 28q-23 29 -23 55q0 5 2 30q1 12 1 28q0 13 -2.5 16t-16.5 8q-18 7 -18 28q0 16 30 32q14 7 57 33q274 164 504 164q263 0 392 -203q111 -173 111 -393q0 -171 -80 -376q-43 -110 -81 -168t-99 -108q-49 -41 -72 -55t-59 -26 q-40 -17 -53 -17q-9 0 -24 7q-42 -17 -57 -17q-17 0 -59 24q-26 15 -52 27z"/>
<glyph glyph-name="E" horiz-adv-x="837" unicode="E" d="M407 1115q-8 -25 -8.5 -29t-4.5 -67q-10 -161 -17 -190q-4 -9 -4 -14q0 -23 30 -23q13 0 105 13q86 12 188 12q38 0 38 -51q0 -9 -14 -47q-4 -13 -4 -28q0 -23 13 -65q5 -16 5 -28q0 -30 -30 -30q-11 0 -75 19q-9 3 -22 3q-58 0 -122 -17q-33 -8 -40 -8l-61 3 q-8 0 -15.5 -23.5t-7.5 -50.5l1 -110q-1 -90 -1 -146q20 -2 96 -2q102 -13 129 -13q43 0 127 13q10 2 18 2q13 0 17 -9q1 -2 17 -100q0 -2 -8 -15q-11 -19 -11 -28q0 -6 15 -33q2 -5 2 -11q0 -13 -12.5 -22.5t-29.5 -9.5q-19 0 -33 1h-20q-12 0 -81 -12q-17 -3 -34 -3 q-20 0 -103 17q-134 14 -171 16q-69 2 -89 5t-31 14q-19 19 -19 82q0 98 9 322l7 175l8 92l2 105l8 127q-1 161 -4 166q-5 9 -21 9q-9 0 -29 -2q-14 -1 -31 -1q-29 0 -29 14q0 3 5 9q14 18 14 24t-14 28q-19 29 -19 57v5l2 38q0 33 5 43t22 10q9 0 23 -4q38 -12 88 -12 q21 0 140 6t130 8q104 16 111 16q2 0 31 -3q19 -1 51 -2q100 -1 114 -19q4 -7 4 -46q0 -2 5 -20q4 -14 4 -26t-4 -20q-7 -14 -7 -15t15 -24q6 -8 6 -20q0 -16 -4.5 -24t-22.5 -23l-18 -15q-3 0 -10 5q-22 17 -30 20t-36 3q-14 0 -81 3h-25q-21 0 -80 -17q-25 -6 -72 -7z"/>
<glyph glyph-name="F" horiz-adv-x="753" unicode="F" d="M363 43q-9 -9 -14 -12q-15 -11 -29 -26q-4 -5 -27 -5q-11 0 -33 12q-1 0 -18 2t-36.5 15.5t-25.5 26.5q-11 23 -11 23.5t-16 10.5q-5 4 -14.5 15.5t-9.5 13.5l9 46q0 1 -4 16q-2 9 -2 27q0 163 25 342q2 44 16 426l2 108q2 15 2 25q0 9 -11 16t-24 7l-68 -1q-13 0 -13 10 q0 9 9 23q7 10 7 14t-9 19q-5 6 -14.5 33t-8.5 32l4 31q0 37 2 44q8 20 23 20q10 0 41 -12q19 -7 50 -7q47 0 111 4q99 6 123 6q50 1 121 13q29 5 71 5q26 0 44 -3q28 -4 33 -4l32 1q11 0 13 -24q3 -26 11 -42q10 -20 10 -27q0 -9 -12 -32q-5 -10 -5 -13q0 -6 11 -22 q11 -15 11 -31q0 -12 -4 -16.5t-26 -20.5l-14 -14l-16 14q-12 10 -114 10q-8 0 -44 -10q-49 -13 -92 -16q-33 -1 -32 -8l9 -43q0 -1 -5 -13q-4 -3 -4 -35q0 -31 -13 -132q-9 -69 -9 -90q0 -4 4 -17l-3 -15q0 -8 39 -8q4 0 44 9l71 5l57 10l33 -2l27 2q17 0 23 -6.5t15 -33.5 l4 -13l-7 -18l2 -3q4 -8 4 -12q0 -8 -12 -29q-11 -20 -11 -39q0 -13 20 -40q10 -13 10 -25q0 -8 -7 -16t-15 -8q-6 0 -27 9q-16 7 -42 7q-76 0 -126 -13q-34 -9 -42 -9l-64 2q-11 0 -11 -46q0 -8 -2 -76q-1 -32 -1 -56q0 -109 10 -203q3 -31 5.5 -39t15.5 -27q6 -9 6 -21 q0 -23 -20 -23l-7 1z"/>
<glyph glyph-name="G" horiz-adv-x="983" unicode="G" d="M903 496q5 -28 5 -37q0 -62 -51 -166t-117 -176q-42 -46 -63.5 -60.5t-63.5 -24.5l-32 -11l-38 -5l-70 -13q-1 0 -114 18q-38 6 -56 19t-88 83l-33 28l-21 42q-29 50 -37 71.5t-29 101.5q-23 86 -23 155q0 326 109 574q25 57 26 62q17 45 20 50.5t37 43.5q17 19 32 56 q12 32 17 30l26 -9l28 3q56 4 109 19q33 9 47 9h3l75 -4q56 -2 82 -10q55 -20 68 -36q10 -13 11.5 -13.5t20.5 -0.5q2 0 16.5 -8t18.5 -11q8 -7 8 -17l-1 -45q0 -17 22 -98q10 -34 18 -119q4 -45 10 -79q1 -5 1 -10q0 -10 -21 -14q-11 -4 -32 -24q-2 -4 -17 -6 q-22 -3 -37 -12q-4 -3 -9 -3q-10 0 -41 24q-55 19 -59 28l-19 44q0 2 5 13q7 16 7 29q0 14 -6 40q-8 38 -17 125q-11 76 -49 76q-4 0 -9 -1l-14 10l-20 -6q-32 -8 -41.5 -15.5t-31.5 -41.5q-61 -95 -91 -177t-48 -199q-19 -134 -19 -266q0 -118 32 -227q17 -58 30 -79.5 t51 -53.5t55 -32q33 0 75 35t73 89q29 50 38 73.5t22 86.5l12 60q0 18 -18 18q-25 0 -76 -18q-4 -1 -13 -1q-7 0 -18 1q-15 1 -25 1q-14 0 -24 -2q-15 -3 -20 -3q-17 0 -31.5 23.5t-14.5 50.5q0 10 19 24q10 8 10 18q0 5 -7 26q-5 15 -5 45q0 18 5 27q21 -11 24 -11l16 1h47 l42 10l53 -3q9 0 34 5q31 7 41 7q106 0 140.5 -7.5t34.5 -29.5v-11q-1 -9 -1 -19q0 -24 12 -53q9 -20 9 -33q0 -25 -4 -33.5t-22 -20.5z"/>
<glyph glyph-name="H" horiz-adv-x="1042" unicode="H" d="M367 503q-9 -59 -19 -241q-9 -138 -10 -142.5t-9 -30.5q-1 -33 -2 -36t-19 -25q-15 -28 -23 -36t-39 -30q-24 -17 -41 -17q-5 0 -31 7q-4 1 -16 1q-16 1 -26.5 11t-11.5 27q0 4 2 17v4q0 8 -3 11t-19 9q-24 10 -24 30q0 12 29 29q10 7 26 79q11 51 12 56t3 63l6 48l6 99 q5 49 5 58q0 19 -4.5 22.5t-29.5 4.5q-5 0 -8 16q-4 22 -17 45q-10 17 -10 29q0 10 7 35q4 13 4 33q0 12 7 11l38 -3h1q32 0 32 265q0 19 -1 48v39q0 41 5 72q4 26 4 38q0 6 -8 20q-16 -8 -18 -8q-13 0 -13 22q0 42 12 61.5t59 54.5q72 25 74 25q4 0 18 -8l17 -9q2 0 22 -12 q17 -9 25 -10q20 -4 23 -6t8 -17q2 -7 10 -21q15 -24 15 -34q0 -8 -2.5 -10t-18.5 -6q-12 -3 -16.5 -37.5t-7.5 -164.5q-1 -18 -4 -93q-2 -51 -2 -83v-19q0 -41 -6 -51q-3 -7 -3 -9q0 -21 33 -21q14 0 50 9q42 10 145 21q20 2 26 10.5t6 32.5q0 55 7 95q11 64 11.5 72 t0.5 74q0 8 6 36q8 34 8 43l-4 68q11 58 11 64q0 11 -20 29q-3 3 -3 13q0 19 10 39t19 20q5 0 30 -18l26 5q78 15 99 26q19 13 21 13q38 -6 45 -8t10 -10q11 -26 11 -52q0 -5 -18 -18q-8 -6 -19 -46.5t-11 -66.5v-55q-1 -19 -26 -185q-13 -84 -13 -104q0 -56 12 -68 q9 -10 50 -9q17 0 22 -2q6 -3 12 -12.5t6 -15.5q0 -4 -6 -23q-4 -10 -4 -21q0 -13 2.5 -18t18.5 -21q16 -17 16 -45q0 -12 -8.5 -24.5t-15.5 -10.5l-31 8l-50 -1l-23 1q-10 -4 -12.5 -21.5t-9.5 -119.5l7 -46q0 -83 2 -100t13 -35q7 -12 24 -25t24 -13l46 18q37 25 45 25 q10 0 18.5 -9t8.5 -20q0 -6 -10 -27q-1 -41 -7 -51t-59 -56l-38 -33l-52 -20q-39 -21 -53 -21q-38 0 -79 30.5t-61 73.5q-25 55 -25 262q0 8 2 51q1 30 1 50q0 40 -7.5 52t-31.5 12q-10 0 -89 -10q-58 -5 -78 -10q-25 -6 -49 -12z"/>
<glyph glyph-name="I" horiz-adv-x="547" unicode="I" d="M261 1366q3 0 39 -9q71 -3 85 -7t33 -27q10 -13 11 -17.5t1 -33.5l3 -36q0 -6 -19 -46q-17 -26 -20 -125q-3 -101 -8 -142q-4 -31 -4 -37l2 -60q-13 -112 -16 -209q0 -25 -5 -112q-1 -26 -1 -39q0 -25 3 -46q6 -48 6 -55l-1 -43l6 -27l-2 -45q0 -3 21 -145l7 -32 q-1 -13 -30 -36l-13 -13l-28 -8l-47 -18q-2 0 -10 5q-17 9 -41 17l-20 13q-28 15 -47 36q-8 10 -16 16q-27 26 -27 43q0 11 8 24q10 16 10 18l-1 26q0 3 4 19q3 12 3 21q0 10 -1 30q-2 20 -2 79q0 29 2 115l3 121l8 79v124l11 90q0 88 9 170q7 51 7 86q0 62 -23 99 q-13 20 -13 27q0 30 4 40q6 17 48 44q40 26 60 26h1z"/>
<glyph glyph-name="J" horiz-adv-x="738" unicode="J" d="M-21 308q13 0 37 -22q93 -90 216 -90q66 0 98.5 51t47.5 178q7 59 24.5 356t17.5 365q0 39 -3.5 54t-26.5 66q-5 11 -5 17q0 32 43 61q46 31 62 31q3 0 11 -1q39 -5 93 -5q34 0 51.5 -23.5t18.5 -68.5l3 -27q0 -9 -9 -38q-11 -33 -13.5 -54.5t-25.5 -285.5l-2 -189 l-2 -84q-5 -252 -8 -282.5t-27 -72.5q-23 -39 -36 -54t-45 -38q-7 -4 -29 -27q-23 -24 -32 -25q-20 -7 -22 -8.5t-9 -13.5q-14 -24 -60 -57t-63 -33h-2l-34 4q-130 6 -202 69q-21 18 -98 118q-19 25 -19 37q0 9 14 36q8 34 15 44.5t21 11.5z"/>
<glyph glyph-name="K" horiz-adv-x="1017" unicode="K" d="M639 752q15 0 18 -5.5t24 -79.5q22 -118 32 -156t47 -148q17 -51 35.5 -71.5t48.5 -20.5q15 0 47.5 23.5t57.5 52.5q23 28 34 28q14 0 14 -19q0 -3 -1 -8q-2 -19 -2 -24q0 -11 10 -20q13 -12 13 -16q0 -1 -32 -56q-36 -60 -117 -118.5t-129 -58.5q-87 0 -149 107 q-35 61 -50 110t-55 228q-23 105 -55 105q-18 0 -43.5 -32.5t-25.5 -54.5q0 -11 2 -35q1 -31 2 -234q-4 -126 -7 -133q-40 -95 -44 -96q-55 -19 -61 -19q-9 0 -36 29q-24 9 -27 12t-23 30q-3 4 -15 4l-27 -1q-19 40 -19 46q0 13 23 60q13 28 13 72q0 41 -2 82q-3 67 -3 72 q0 48 5.5 192.5t8.5 151.5q7 25 7 28l-9 50l7 63l13 151l8 86l-8 53q-5 54 -15 79q-11 24 -11 31q0 10 4 14.5t27 22.5q37 39 43 39q4 0 15 -5q11 -4 21 -4q18 0 49 4q16 2 30 2q17 0 25.5 -4.5t41.5 -30.5l8 -28l8 -26l-6 -22l5 -31q0 -4 -10 -22q-8 -23 -25 -204l-8 -103 q-11 -50 -11 -62q0 -11 9.5 -30.5t14.5 -19.5t19 20q6 9 30 35q171 215 232 300q70 99 82 111q32 39 32 64q0 4 -3 10q-4 7 -4 9q0 9 37 18l11 3l21 -3q1 0 34 12q7 2 13 2q4 0 33 -7q37 -6 42.5 -14t18.5 -73q4 -20 21 -36q14 -12 14 -15l-3 -16l1 -22q-1 -10 -39 -20 q-13 -9 -104 -119l-84 -101q-122 -139 -149 -170v-18z"/>
<glyph glyph-name="L" horiz-adv-x="889" unicode="L" d="M365 219q53 14 79 14q7 0 132 -11l48 -4q47 0 93 34.5t77 92.5q23 44 43 44q9 0 20.5 -20t11.5 -35q0 -7 -8 -22q-6 -16 -59 -150q-24 -74 -36.5 -88t-70.5 -32q-11 -3 -48 -16q-79 -30 -156 -30q-133 0 -217 34q-20 8 -22 7l-46 -24l-41 -20q-23 -14 -28 -14 q-7 0 -72 19q-33 6 -45.5 11.5t-45.5 30.5q-9 7 -12.5 20t-3.5 44q0 13 15 62q5 32 10.5 38t17.5 5.5t15 -0.5q21 0 64 6q37 5 57 5q7 0 24 -1q41 86 58.5 240t17.5 364v68v32q0 100 6 151.5t31 114.5q12 32 17.5 40t31.5 34q50 51 61.5 60.5t32.5 15.5q31 10 60 10 q44 0 104 -33q29 10 109 23q18 -6 50 -25q13 -7 27 -10q13 -3 15 -6.5t13 -43.5l-3 -50l8 -76l7 -79q21 -99 21 -120q0 -41 -11 -61q-7 -12 -7 -13l1 -22q0 -8 -18 -26q-5 -4 -42 -17q-35 -16 -40 -16t-25 14q-14 10 -26 14q-15 -7 -20 -7q-14 0 -13 10l5 47q0 4 -10 26 q-7 25 -25 186q-11 99 -23 147q-6 25 -41 25q-19 0 -29 -23.5t-19 -86.5q-11 -79 -15 -101q-17 -119 -17 -171q0 -12 3 -78q1 -33 1 -66q0 -63 -8 -191t-13 -154q-7 -30 -40 -87q-19 -34 -31 -59z"/>
<glyph glyph-name="M" horiz-adv-x="1403" unicode="M" d="M1258 282l59 29q12 6 13 6q8 0 7 -8l-4 -39q16 -32 19 -32l27 3l4 -21q-2 -15 -27 -43q-13 -16 -19 -27q-13 -29 -14.5 -30t-43.5 -19q-49 -32 -61.5 -37.5t-35.5 -5.5q-95 0 -145 96t-50 279q0 112 29 287q23 136 33 213q-22 -51 -25 -68q-10 -38 -11 -41.5t-32 -66.5 l-1 -24q-10 -22 -16 -64q-4 -25 -36 -91q-21 -41 -67.5 -169.5t-68.5 -204.5q-28 -94 -42.5 -121t-38.5 -27q-9 0 -54 33q-10 9 -50 26q-28 12 -37 26t-9 46q0 21 13 85l2 78l13 89l6 120l20 155q17 143 26 201q-26 -74 -82 -236q-163 -458 -162 -652q-2 -15 -20 -30 l-12 -13q-55 -15 -69 -15q-21 0 -46 38q-11 16 -48 42q-18 15 -23 57q-2 15 -3.5 17.5t-24.5 28.5q-14 16 -14 68q0 97 13 337t20 288q18 111 18 140q0 10 -3 39q-8 -4 -12 -4q-10 0 -17.5 16t-6.5 36q1 13 13 51q5 13 5 18l-3 82q0 8 12 31q14 29 15.5 36t9.5 60 q2 17 16 21.5t66 4.5l69 8q44 -5 46.5 -5.5t18.5 -20.5q43 -32 43 -57q0 -9 -16 -36q-18 -21 -25 -117q-5 -58 -24 -215q-18 -150 -36 -398q-7 -87 -7 -133q34 120 41 141t79 225l67 215l45 134q24 89 32.5 105.5t34.5 26.5q57 21 88 21q8 0 24 -8q15 -7 47 -9 q11 -1 35 -25.5t23 -34.5l-2 -28l10 -27l-15 -23q-6 -12 -21 -114q-17 -110 -27 -208q-12 -110 -24 -187q-8 -54 -14 -113q28 64 55 142q16 46 86 238q97 268 110 320l7 32q4 17 4 20l-5 45q-1 7 11 39q3 6 7.5 9t32.5 18l51 33l18 2l42 4q30 0 72 -44q11 -12 19 -17 q25 -16 29.5 -21t7.5 -19q4 -15 4 -27q0 -16 -21 -47q-8 -12 -38.5 -148t-37.5 -189q-2 -16 -17.5 -177.5t-15.5 -167.5q0 -201 24 -221q29 -24 38 -35z"/>
<glyph glyph-name="N" horiz-adv-x="1040" unicode="N" d="M717 1061q-30 -41 -46.5 -77.5t-129.5 -320.5q-108 -301 -179 -594q-15 -59 -22.5 -71t-33.5 -14l-28 -3l-25 5l-25 -8q-5 0 -24 24t-24 37q-13 32 -15 34.5t-26 12.5q-12 5 -12 33l4 77l6 105l11 191q10 262 12.5 295t18.5 132q5 28 5 48q0 11 -8 31q-9 -6 -14 -6 q-15 0 -16 25q-24 20 -24 37q0 11 8 30q12 29 14 38.5t6 64.5q1 13 17 46q22 48 22 66q3 20 6.5 23.5t21.5 4.5q4 -3 40 14q27 12 51 12q13 0 25 -8q28 -19 29 -19q28 6 32 6q10 0 14 -3t19 -21q17 -19 19.5 -25.5t2.5 -24.5q0 -26 -23 -107q-33 -115 -51 -273t-37 -490 q28 74 119 352q117 285 166 378q67 127 75 150q28 71 48 93.5t56 22.5q23 0 32.5 -3.5t42.5 -24.5q37 -13 46.5 -17.5t26.5 -18.5q5 -5 7 -11t8 -37q9 -50 9 -53q0 -14 -13 -14q-6 0 -13 1q-13 -30 -18.5 -52t-26.5 -123q-53 -251 -62 -313t-9 -169q0 -257 68 -257 q28 0 55 29q23 24 30 24q12 0 12 -15q0 -5 -2 -10l-5 -16l1 -17q-11 -24 -11 -31q0 -14 6 -20t25 -11q9 -3 9 -14q0 -13 -7.5 -22t-50.5 -51q-22 -20 -29.5 -24.5t-32.5 -9.5q-2 -1 -34 -23q-29 -20 -71 -20q-84 0 -127.5 92t-43.5 271q0 124 12.5 214t56.5 294 q16 73 24 129z"/>
<glyph glyph-name="O" horiz-adv-x="974" unicode="O" d="M582 1222h-6l-18 -2q-52 -1 -57.5 -2.5t-22.5 -19.5q-73 -79 -98 -238q-2 -11 -3.5 -13t-17.5 -7q-4 -2 -21 -90q-30 -159 -30 -306q0 -115 14 -212q4 -25 20.5 -74.5t29.5 -76.5q12 -23 28 -21l29 4q38 0 44 2.5t29 24.5q46 12 60 31q27 36 59.5 109t50.5 137 q30 108 30 285q0 157 -29 294q-11 47 -19 65.5t-46 83.5q-13 23 -14.5 24.5t-11.5 1.5zM245 1292q5 0 25 -11q7 -4 8 -4l30 7l13 -2q3 0 11 14q9 17 33 28t58 16q85 30 116 30q88 0 170 -55t123 -139q32 -68 52.5 -181.5t20.5 -222.5q0 -241 -51 -402q-16 -49 -41 -99.5 t-41 -66.5q-19 -17 -19.5 -18t-25.5 -42q-32 -21 -34.5 -23t-25.5 -34q-13 -18 -20.5 -23t-68.5 -37q-62 -33 -86 -33q-52 0 -129 29t-127 68q-19 14 -54 57.5t-44 64.5q-16 35 -40.5 137t-22.5 128l9 150v24q0 166 62 430q14 58 14 69l-2 64q0 12 19 40q9 21 11 22t57 15z "/>
<glyph glyph-name="P" horiz-adv-x="922" unicode="P" d="M378 1127q18 -7 32.5 -20t14.5 -22q0 -2 -14 -24q-4 -11 -17 -141q-15 -179 -15 -205q0 -34 27 -34q31 0 84 28.5t102 72.5q75 67 109.5 134t34.5 148q0 32 -2.5 41.5t-17.5 33.5q-13 22 -18 27t-22 11q-40 14 -74 14q-62 0 -224 -64zM180 1068q-3 0 -9 -4q-9 -6 -41 -16 q-20 -6 -24.5 -9t-26.5 -25q-8 -8 -15 -8q-8 0 -25 12t-27 25t-14 35q-3 16 -4 18t-18 25q-24 38 -24 40q0 14 214 114q84 39 114 49t115 28q90 18 148 18q91 0 160 -39t101 -108q11 -25 14 -29t26 -27q23 -21 46 -90t23 -117q0 -43 -20.5 -107.5t-50.5 -114.5 q-31 -52 -65 -84t-119 -90q-47 -33 -71.5 -43t-58.5 -11q-17 -1 -39 -14q-8 -4 -17 -4q-4 0 -38 9q-25 3 -26 3t-10 14q-7 9 -13 9q-7 0 -13 -11.5t-5 -23.5l5 -96l1 -82q8 -177 8.5 -179.5t23.5 -36.5q2 -4 2 -13q0 -32 -26 -52q-26 -39 -61 -39q-25 0 -48 14t-35 37 q-11 20 -16 23.5t-31 10.5q-20 6 -36 21.5t-16 28.5q0 6 19 17q3 2 3 10q0 6 -1 14q-3 25 -3 44q0 58 5 142q7 102 10 208q6 192 22 425q2 22 2 48q0 31 -15 31z"/>
<glyph glyph-name="Q" horiz-adv-x="993" unicode="Q" d="M547 1234h-2q-47 0 -91 -76q-46 -79 -54 -143q-3 -30 -7 -36.5t-23 -14.5l-7 -24q-22 -69 -26.5 -85t-8.5 -43q-30 -217 -30 -289q0 -118 17 -226q8 -51 37 -99t52 -48q10 0 34 13q9 5 12 5l18 -6q4 -1 8 -1q45 0 90 60.5t76 164.5q25 79 42 217t17 254q0 35 -18 146 q-17 104 -24 126.5t-36 55.5q-43 49 -75 49h-1zM644 75q90 -2 132 -10q22 -4 26 -7.5t10 -24.5q34 -25 39 -31t11 -31q10 -41 20 -57q8 -15 8 -26q0 -16 -13 -16q-5 0 -15 7q-30 21 -53 21t-67 -13q-41 -12 -189 -34q-178 -43 -231 -43q-21 0 -33 5.5t-37 26.5 q-29 26 -34 48q-3 17 -18 28q-35 26 -35 43q0 7 9 16t16 9l67 -5q5 -1 50 18q64 17 110 28q-33 12 -104 28q-29 7 -47 31q-12 15 -30 22q-25 5 -66 67q-20 31 -26 41q-51 72 -60 106t-13 167l-3 101l13 83l-1 55q0 34 21 109q86 317 86 362q0 5 -1 6l3 19q-5 19 -5 24 q0 8 19 24q32 32 36 31l20 -3q45 11 53 11q7 0 16 -2q8 -1 10 -1q14 0 48 32q21 19 30 18l29 -2q39 14 54 14q70 0 107.5 -5t59.5 -17q77 -41 108 -70t62 -89q83 -160 83 -412q0 -107 -17 -258q-5 -42 -24 -68q-11 -15 -14.5 -28.5t-13.5 -74.5q-6 -39 -45.5 -107 t-77.5 -106q-34 -32 -83 -60z"/>
<glyph glyph-name="R" horiz-adv-x="1030" unicode="R" d="M386 1137q41 -17 41 -39q0 -5 -18 -25q-1 -2 -1 -14q1 -4 -4 -33q-12 -63 -12 -153v-21q0 -81 -7 -86q-6 -21 -6 -32q0 -14 13 -27t27 -13q13 0 125 54q54 26 111 86t89 124q38 79 38 130q0 49 -32.5 81.5t-81.5 32.5q-59 0 -165 -22q-44 -10 -56 -13.5t-37 -18.5 q-7 -4 -24 -11zM179 1073q-16 -10 -59 -28l-27 -27q-21 -22 -41 -22t-33 23t-13 59q0 33 10 55q4 11 4 13q0 5 -9 23q-3 7 -3 13q0 9 16 16q25 11 64 41q9 7 190 82q54 23 151.5 40t173.5 17q116 0 170 -58q9 -9 51 -65q17 -24 41 -48q52 -55 67 -73q39 -46 39 -101 q0 -44 -20 -114t-44 -112q-17 -29 -64 -84.5t-61 -63.5q-34 -19 -40.5 -24t-15.5 -22l-12 -16q0 -3 11 -14q14 -15 20 -69q18 -106 93 -213q29 -50 40 -60q32 -25 44 -25q3 0 18 7q25 11 44 11q9 0 9 -11q0 -2 -1 -5q-5 -26 -5 -27q1 -8 27 -13q4 -1 4 -13q0 -41 -59 -82.5 t-118 -41.5q-57 0 -114 39t-98 107q-11 19 -64.5 154.5t-57.5 152.5q-12 67 -28 66l-19 -1l-26 1q-21 0 -36.5 -17.5t-15.5 -41.5v-12q1 -39 1 -79q0 -25 -1 -39q-7 -84 -7 -86l9 -79l-9 -46q2 -8 15 -23q7 -7 7 -9l-1 -23q0 -3 8 -11q20 -19 20 -31q0 -7 -4 -12l-4 -6 l11 -22l-16 -10l-26 -13q-62 -14 -64 -14q-10 0 -62 35q-12 8 -15 12t-8 20q-3 7 -47 26q-13 6 -27 23.5t-14 28.5q0 3 7 19q8 20 8 45l-4 103l11 203l1 114q13 94 13 114q0 12 -6 104q-1 22 -1 45q0 46 8 109q4 30 4 50q0 11 -10 36z"/>
<glyph glyph-name="S" horiz-adv-x="915" unicode="S" d="M500 1219q-4 0 -32 -5q-23 3 -26 3q-39 0 -95 -57q-60 -62 -60 -136q0 -53 30.5 -96t110.5 -102q80 -60 282 -193q69 -45 110 -116.5t41 -145.5q0 -30 -8 -50t-49 -97q-36 -65 -54 -87t-64 -57q-103 -78 -245 -78q-173 0 -275 100q-42 41 -77 106t-35 102q0 14 25 30 q18 11 18 22q0 1 -3 11q-1 5 -1 12q0 34 30 34q18 0 24 -15q4 -10 4.5 -10t13.5 -5q10 -5 19 -32q6 -16 37 -46t65 -53q80 -51 193 -51q63 0 98 14q31 12 49 13q12 2 13.5 4t3.5 25l19 90q1 6 -96 93q-52 47 -82.5 69t-122.5 79q-173 108 -227 196q-53 85 -53 195 q0 124 55.5 205t174.5 132q35 15 58 19.5t126 15.5q100 -11 119 -21q16 -11 17 -11l43 12q2 1 19 -12.5t23 -19.5q14 -15 18 -49q8 -53 11 -64.5t30 -94.5q33 -104 33 -107q2 -26 -37 -32q-14 -3 -40 -29q-20 -19 -42 -19q-12 0 -25 3q-22 4 -27 5q-18 1 -24 9.5t-28 64.5 q-10 27 -35 121q-20 74 -17 75q0 20 -6 25.5t-27 5.5z"/>
<glyph glyph-name="T" horiz-adv-x="691" unicode="T" d="M250 1117l-61 -1l-75 3q-3 0 -38 -7q-9 -2 -17 -2q-17 0 -16 17l2 27q-10 23 -10 33q-1 28 -1.5 30.5t-10.5 19.5q-17 29 -17 63q0 11 2.5 14.5t17.5 15.5q25 18 29 18l77 -6q4 0 78 14q23 4 73 4l63 -1q38 0 86 2q76 3 125 3q56 0 85 -12q13 -5 17 -34q3 -24 12 -53 q7 -22 7 -31q0 -18 -16 -54l-2 -6l4 -31q0 -4 -9 -14t-12 -10q-1 0 -23 8q-6 2 -13 2q-8 0 -20 -1q-34 -3 -57 -5q-25 -2 -32.5 -10t-7.5 -33q0 -12 -12 -74q-6 -34 -11 -189q-22 -176 -22 -235q0 -159 11 -309.5t25 -186.5q4 -10 5 -17q1 -10 -2.5 -13t-23.5 -11 q-8 -3 -13 -11q-8 -12 -10 -13.5t-16 -1.5q-14 -2 -35 -20q-6 -5 -14 -5q-9 0 -24 12t-39 16l-21 17l-30 15l-18 27q-27 21 -31.5 26t-4.5 17q0 9 13 32q8 0 8 48q0 191 13 427q10 194 12 260q4 145 12 155q6 27 6 52q0 15 -18 19z"/>
<glyph glyph-name="U" horiz-adv-x="1083" unicode="U" d="M680 329q-7 -22 -10 -34q-9 -30 -10.5 -33.5t-29.5 -42.5q-71 -116 -83 -129.5t-68 -46.5q-48 -41 -77 -41q-39 0 -92.5 27.5t-87.5 65.5q-93 103 -93 386q0 72 26 334q14 168 14 172q0 10 -12.5 38.5t-23.5 42.5q-10 13 -10 19q0 1 3 8q9 20 9 50q1 17 18 64 q12 26 14 82q2 76 40 76q4 0 30 -12q5 -2 15 -2q9 0 19 2q57 8 73 8q35 0 61.5 -25t26.5 -58q0 -13 -3 -21q-3 -9 -3 -11q0 -4 8 -17q6 -10 6 -20q0 -9 -21 -30q-2 -2 -4 -18q-1 -9 -8 -41q-12 -56 -31.5 -311t-19.5 -359q0 -106 34 -153q37 -51 81 -51q13 0 33 22q1 1 14 4 q30 8 58.5 54t41.5 109q32 145 63.5 380.5t31.5 326.5q0 50 -8 80q-1 6 -1 7t15 48q8 18 8 26q0 3 -1 6q-2 14 -2 16q1 6 11.5 14.5t17.5 8.5q10 0 27 -10q53 -32 81 -32q5 0 33 5q12 2 22 2q19 0 38 -19t18 -36l-4 -46l5 -40q0 -3 -7 -22q-4 -12 -27 -106 q-29 -110 -34 -240q-4 -116 -13 -153q-5 -18 -5 -19l3 -66q-12 -73 -12 -88q0 -101 22 -162t58 -61q10 0 21 7q12 7 20 7q9 0 9 -8q0 -4 -5 -15q-3 -5 -3 -10q0 -9 25 -40l2 -18q1 -12 1 -17q1 -7 1 -8q0 -10 -30.5 -32.5t-64.5 -35.5q-11 -8 -17 -12q-28 -19 -58 -19 q-43 0 -82.5 31.5t-59.5 82.5q-6 14 -37 159z"/>
<glyph glyph-name="V" horiz-adv-x="962" unicode="V" d="M785 468q-6 -59 -25.5 -107.5t-69.5 -129.5q-80 -132 -152 -156q-26 -9 -33 -13t-21 -22q-31 -38 -72 -38q-20 0 -31.5 4.5t-60.5 32.5q-63 28 -91 64q-50 65 -81 161t-31 187q0 58 21 405q19 122 19 174q0 11 -2.5 14.5t-17.5 12.5q-3 2 -9 22q-1 5 -6 15q-6 13 -6 20 q0 6 8 25q7 14 14 60q8 52 14 68q4 12 4 15l-2 40q0 5 20 12q37 12 47 17q33 14 38 14h1l90 -20q62 -12 64.5 -14.5t17.5 -82.5q-2 -67 -4 -73t-27 -18l8 -55q0 -7 -19 -36q-9 -13 -13.5 -39.5t-4.5 -63.5v-6q0 -55 -17 -239q-10 -108 -10 -201q0 -186 52 -262 q17 -24 48.5 -49.5t45.5 -25.5q19 0 57 30q23 19 45 64q29 61 34 69q22 42 27.5 58.5t14.5 73.5q15 92 15 114q0 23 -13 85q-29 141 -29 222l1 133l-9 55q-10 69 -11 71q-4 13 -4 16q0 18 24 46q31 36 40 53q31 53 47 53q1 0 43 -10l27 -6l36 9q15 -3 27 -99t12 -218v-24 v-68q0 -45 -10 -112l-10 -70q-13 -53 -13 -59q0 -40 16 -90q4 -11 21 -25q8 -7 8 -20q0 -12 -4.5 -15.5t-30.5 -11.5q-4 -22 -13 -31t-28 -9l-15 2z"/>
<glyph glyph-name="W" horiz-adv-x="1385" unicode="W" d="M1229 550q-27 -103 -80 -222q-30 -71 -38 -83t-35 -28q-6 -3 -23 -37q-23 -46 -70 -78q-76 -52 -110 -52q-41 0 -97 43.5t-80 93.5q-22 46 -45 164q-33 -82 -51.5 -114.5t-69.5 -96.5q-87 -108 -105 -126t-38 -19q-2 0 -16 3q-11 3 -21 3q-7 0 -60 -15q-5 2 -44 22 q-18 9 -32 27t-42 65q-13 24 -14.5 28.5t-18.5 96.5q-23 109 -21 135l6 101q4 148 6 172t23 199q8 63 8 105q0 3 -1 29v41q0 18 4 27l5 10l-20 22l-10 40q-7 13 -7 20q0 17 14 49q9 18 13 68q3 42 15 69q3 7 3 8l-5 41q-1 9 18 9q6 0 17 -1q9 -1 18 -1t58 10l29 -1 q43 -1 58 -6t27 -22q51 -73 51 -75l-22 -45q0 -7 2 -21q1 -7 1 -15q0 -12 -18 -30q-2 -2 -2 -15q0 -9 -5 -38q-15 -88 -18 -146q-8 -131 -10 -151t-13 -77l-2 -58q-15 -189 -15 -211q0 -147 27 -208q8 -17 26 -35t29 -18q20 0 60 55t59 107q20 57 57 306q14 97 18 138.5 t13 194.5l5 73l-7 43l1 40l-3 23q2 15 26 36q7 6 39 7q11 0 44 10q21 6 39 6q10 0 43 -13.5t58 -27.5q12 -7 15 -17.5t12 -68.5q-4 -26 -6 -44q-1 -7 -20 -21q-15 -10 -15 -62q1 -5 1 -13q0 -34 -12 -105q-16 -94 -16 -150q0 -44 8 -167t13 -149q29 -159 99 -159 q28 0 45.5 26.5t62.5 138.5q60 148 60 235q0 24 -8 79q-7 49 -16 158t-10 160q-2 92 -3 109q-5 43 -5 66q0 33 9.5 46t56.5 46q27 32 39 40t34 8q10 0 16 -3.5t33 -25.5q30 -19 36 -24.5t11 -18.5q2 -7 22 -76q0 -7 -7 -31q-9 -31 -20 -142q-8 -85 -29 -167 q-21 -84 -21 -106q0 -11 8 -50q21 -94 22 -95q17 -19 17 -24q0 -9 -26 -23q-4 -2 -19 -14q-16 -12 -27 -12q-3 0 -11 2z"/>
<glyph glyph-name="X" horiz-adv-x="985" unicode="X" d="M595 702q13 -44 38 -106q66 -162 83 -182q28 -34 31.5 -40t12.5 -32q10 -32 45 -56q42 -30 56 -30q8 0 36 14q11 6 18 8q24 7 29 10q24 19 27 19q2 0 8.5 -4.5t6.5 -5.5l-8 -34l11 -12q9 -8 9 -21q0 -18 -31 -74q-8 -15 -12 -18t-19 -9q-6 -2 -19 -18 q-23 -28 -35.5 -34.5t-63.5 -15.5q-2 -1 -28 -12q-19 -9 -29 -9q-42 0 -111.5 52.5t-106.5 112.5q-16 25 -77 165q-15 35 -40 72q-51 -61 -86 -135t-80 -212q-13 -40 -31.5 -60t-43.5 -22q-22 -9 -28 -9q-17 0 -27 28q-16 44 -35 44q-6 0 -14 -3q-18 -6 -29 -6q-22 0 -22 28 q0 42 23 78l84 117l89 135q96 141 123 184q-20 44 -40 90q-37 82 -95 232q-26 65 -60 106l-16 -18q-17 -12 -20.5 -20.5t-7.5 -44.5q-2 -16 -17 -16q-14 0 -87 52q-10 7 -11 30q0 7 -4 19q-5 16 -5 22q0 10 6.5 20t47.5 61q20 20 46 104q14 46 22 55.5t47 28.5q43 25 54 29 t32 4q31 0 42 -3.5t18 -16.5q9 -17 12.5 -19.5t25.5 -9.5q2 -1 12.5 -23t9.5 -23l-17 -56q-1 -2 18 -23q8 -10 31 -100q4 -15 53 -109q15 -28 42 -103q16 -46 29 -46q8 0 18 28q3 13 32 53q19 30 133 230l53 106q21 37 23 48q3 15 5 16.5t23 6.5q9 0 24 15q16 15 36 16 q24 0 28 2l29 5l27 -2q17 0 18.5 -2.5t1.5 -33.5q0 -27 30 -74q-14 -9 -19 -12q-22 -13 -29.5 -20.5t-21.5 -33.5q-24 -38 -166 -248q-129 -174 -167 -229z"/>
<glyph glyph-name="Y" horiz-adv-x="940" unicode="Y" d="M531 780q38 63 122 225q81 144 96.5 176.5t20.5 71.5q6 38 12.5 46.5t41.5 23.5q26 25 32.5 27.5t47.5 4.5q6 1 36 5q9 1 17 1q17 0 20.5 -7.5t3.5 -41.5q0 -7 17 -33q8 -12 8 -20q0 -11 -47 -52q-8 -8 -36 -68q-10 -22 -31 -56q-31 -49 -86 -164q0 -1 -30 -38 q-71 -110 -169 -290q-7 -13 -7.5 -26t-3.5 -195l9 -160q2 -79 7 -97q14 -41 14 -50q0 -18 -49 -34q-14 -5 -28 -15q-21 -16 -24 -15l-53 18q-25 6 -50 29q-40 38 -53 47q-31 24 -31 40q0 13 27 64q3 18 10 154l-2 82q8 69 8 85q0 19 -2 25l-23 40l-66 134q-54 98 -72 142 q-38 94 -52.5 121t-40.5 50l-17 -17q-15 -16 -17 -20t-4 -21q-4 -42 -22 -42t-49 26q-12 10 -26 17q-21 11 -26 18.5t-6 27.5q0 20 -1 25l-2 14q2 17 35 58q27 33 64 148q12 38 18 44.5t49 25.5q6 3 29 19q20 14 27 14h1l41 -5q16 0 25.5 -5t28.5 -26q-1 -3 41 -36 q10 -8 10 -10l-11 -60q0 -2 8 -13q23 -36 45 -117q4 -14 33 -64t109 -206z"/>
<glyph glyph-name="Z" horiz-adv-x="846" unicode="Z" d="M292 235q40 -3 52 -3q7 0 119 4q17 1 33 1q36 0 162 -17q10 -1 20 -1q22 0 46 7q27 8 44 8q25 0 30 -37q3 -25 13 -61q1 -5 1 -9q0 -12 -16 -51q-2 -4 -2 -9q0 -3 14 -18q3 -3 3 -11q0 -30 -38 -30q-7 0 -20 1q-17 1 -28 1q-19 0 -171 -16q-2 0 -44 11q-38 10 -108 14 q-43 1 -135 12q-37 4 -64 4q-21 0 -99 -26q-13 -4 -29 -4q-29 0 -56.5 18t-27.5 37q0 8 4 17q13 25 13 28q0 4 -11 21q-13 21 -13 42q0 24 13.5 47.5t61.5 82.5q30 37 47.5 66t121.5 214l79 121l91 170q63 110 89 170q22 54 38 66q12 12 12 18t-9 11t-18 4l-59 -7l-138 -10 l-140 -12q-18 3 -20 3l-75 -7q-5 -1 -14 11t-9 20q0 4 13 31q2 3 2 9q0 8 -7 32q-11 37 -11 58q0 13 2 20l4 13l-6 34q-2 12 24 12q14 0 36 -6q31 -9 68 -9q22 0 140 11q21 2 90 5q45 1 200 16q93 -10 109 -10q15 0 36 2q11 1 22 1q23 0 23 -21q0 -11 -8 -21 q-13 -17 -13 -21q0 -5 13 -19q16 -16 16 -30q0 -9 -3 -19q-3 -9 -3 -12q0 -5 5 -16q8 -16 8 -24q0 -15 -49 -92q-38 -57 -96 -167q-121 -232 -127.5 -243.5t-116.5 -201.5l-105 -188z"/>
<glyph glyph-name="bracketleft" horiz-adv-x="548" unicode="[" d="M531 -43l4 -20q0 -6 -3.5 -7.5t-22.5 -5.5q-17 -6 -20 -6q-7 0 -19 13l-14 6q-22 14 -29 16.5t-27 2.5q-18 0 -29.5 -3t-60.5 -20l-50 -12q-34 -8 -39 -10l-7 -2l-25 8q-37 7 -36 12l4 29q0 3 -18 15q-13 9 -32 47t-19 54q0 2 1 11q1 12 5 116q1 34 3 72l1 52l3 110l1 89 l5 74v17l-3 123l-2 48l-1 88q-4 153 -6 194q-1 21 -5 127q-1 18 -2 29q-1 16 -1 22v12q1 20 1 28v16q-1 15 -1 25q0 32 17 45t62 16q16 1 24 5q22 8 24 8t13 -3q8 -2 23 -2h21q15 1 16 1q6 0 66 -2h47q27 0 57 -2h14l9 -1l15 -1l14 -5q27 -5 27 -13q0 -1 -4 -20v-38l5 -39 q0 -11 -19.5 -36t-27.5 -25q-4 0 -24 2q-26 2 -38 3q-25 3 -39 3q-10 0 -25 -1q-28 -3 -44 -3q-11 0 -20 3l-5 2q-14 -1 -14 -25q0 -15 5 -39q3 -18 3 -29l-3 -250q4 -158 4 -160l-3 -411l-1 -188q-5 -11 -5 -15q0 -20 23 -20q13 0 34 8q14 6 23 6l31 -1l21 1q1 0 15 -6 q10 -4 20 -4q6 0 18 2q18 2 24 2q10 0 17 -14q19 -39 21 -41q11 -11 10 -14z"/>
<glyph glyph-name="backslash" horiz-adv-x="818" unicode="\" d="M97 1363q47 0 56 -30q1 -4 4 -33q3 -22 14 -46.5t138 -296.5q61 -123 63.5 -128.5t33.5 -83.5q33 -90 139 -299q109 -217 125 -262q39 -94 51 -118t50 -90q9 -16 9 -31q0 -8 -21 -32q-25 -30 -33.5 -35.5t-27.5 -5.5q-20 0 -26.5 5t-8.5 23q-1 9 -3 28q-1 28 -9 44 q-19 40 -74 163q-70 156 -118 247q-40 78 -59 136q-10 33 -61 128q-48 91 -92 195q-55 129 -90 201l-78 163q-38 77 -38 90q0 68 56 68z"/>
<glyph glyph-name="bracketright" horiz-adv-x="548" unicode="]" d="M240 -59q-4 0 -71 -2h-31q-18 0 -47 -1l-13 -1h-10q-17 -1 -29 -5q-8 -3 -15 -3q-11 0 -12 7l4 17q1 3 1 5v10q-1 5 -1 9q0 1 1 5q1 10 0 13q-6 28 -6 33q0 14 18.5 40.5t28.5 26.5q5 0 23 -2q29 -2 39 -3l15 -2l91 3q12 0 21 -3q5 -2 6 -2q13 1 13 25q0 17 -4 39 q-4 19 -4 28l4 251q-4 157 -4 160l3 410l1 189q5 10 5 14q0 24 -18 20l-67 -13l-26 1l-21 -1q-1 0 -15 5q-11 5 -20 5q-6 0 -19 -2q-16 -2 -23 -2q-5 0 -17 14q-23 14 -27 19t-4 17q0 6 2 13q4 15 4 57v18q-4 17 -4 20q0 6 3.5 7.5t23.5 5.5q16 6 19 6q5 0 20 -4l13 -2 q32 -5 76 -5q18 0 70 9l51 5q33 3 39 4l9 1l22 -7q37 -8 36 -12l-4 -29q0 -3 19 -16q12 -8 31.5 -46t19.5 -54q0 -2 -1 -12t-5 -115l-1 -41l-2 -32l-1 -52l-3 -109l-2 -89q-4 -77 -4 -91q0 -30 3 -123q1 -36 3 -137q4 -158 6 -193l1 -41q4 -105 5 -115q1 -12 1 -14v-8v-12 v-27l1 -45q0 -28 -18 -42t-62 -16q-16 -1 -23 -5q-21 -8 -24 -8q-4 0 -13 5q-43 23 -81 27z"/>
<glyph glyph-name="asciicircum" d="M279 730h-239l323 642h298l323 -642h-239l-233 460z" unicode="^"/>
<glyph glyph-name="underscore" d="M0 -103h1024v-150h-1024v150z" unicode="_"/>
<glyph glyph-name="grave" d="M521 1001q-54 0 -68.5 5.5t-32.5 30.5q-39 56 -74 115.5t-35 69.5q-1 5 5 12q5 6 9 6h1q49 -7 55 -7q13 0 24 1q16 2 17 2l46 -3l32 2q18 0 24.5 -14.5t28.5 -99.5q13 -65 23 -93q2 -7 2 -10q0 -18 -23 -18q-4 0 -18 1h-16z" unicode="`"/>
<glyph glyph-name="a" horiz-adv-x="735" unicode="a" d="M353 753q-18 0 -30 -33q-1 -3 -16 -31q-13 -24 -48 -164q-38 -149 -38 -235q0 -61 15 -98q14 -33 28 -33q9 0 21 19q16 26 18 28q21 21 23 31q1 6 15 36q26 86 28 113l6 24l3 40q5 12 5 26q-1 16 7 46q15 61 16 99q8 36 8 44q0 28 -10 56q-3 10 -7 12.5t-23 6.5 q-16 13 -21 13zM389 201q-18 -28 -63 -108q-8 -13 -40 -44.5t-49 -41.5q-22 -14 -41 -14q-49 0 -100 49q-71 67 -71 212q0 126 43 333q15 74 32.5 110t66.5 99q20 26 33 34t67 29q37 15 54 15q25 0 41 -9.5t55 -47.5q12 -12 17 -11q16 3 21 4q20 -20 31.5 -23.5t55.5 -4.5 q36 -1 52.5 -12t23.5 -40q11 -14 11 -19q0 -7 -8 -20q-9 -14 -9 -17l1 -38q0 -4 -6 -19q-13 -33 -17.5 -57.5t-17.5 -134.5q-12 -53 -12 -76q0 -37 8 -66q18 -65 48 -65q12 0 59.5 56.5t63.5 90.5q9 20 16 20q9 0 9 -13q0 -7 -3 -25q-2 -11 -2 -26q0 -13 1 -23q2 -15 2 -19 q0 -38 -74 -115q-25 -26 -44 -28q-2 0 -31 -26q-13 -12 -45 -20q-27 -6 -35 -10q-7 -3 -9 -3q-1 0 -64 25q-35 13 -71 99z"/>
<glyph glyph-name="b" horiz-adv-x="624" unicode="b" d="M397 215q-29 -55 -45.5 -75.5t-85.5 -86.5q-23 -29 -46 -29q-22 0 -93 19q-15 4 -23 13t-40 58q-44 70 -44 158q0 31 3 65q6 84 6 97l-1 105q0 9 8 35q3 46 20 229q17 214 18.5 227t15.5 73q2 9 2 30q0 1 13 22l-6 8q-4 6 -10 33q-11 25 -11 31q0 4 9 23q0 32 4.5 37.5 t44.5 18.5q10 4 29 18q5 4 27.5 9t34.5 5q41 0 77 -38q22 -22 21 -30l-2 -31q0 -2 5 -9q7 -9 7 -12l-1 -14l2 -16q0 -5 -21 -26q-9 -10 -14 -55q-2 -10 -13 -46q-11 -39 -31 -229q-7 -82 -34 -206q-19 -89 -19 -106q0 -48 5 -145.5t9 -115.5q13 -68 53 -68q28 0 44 66 q4 20 21 57q9 20 9 30q0 4 -5 21q-6 28 -6 120q0 132 -24 171q-20 40 -24 46q-10 12 -10 14t28 38q18 23 57 38q25 19 33 18l23 -2l16 2q15 0 54.5 -51t39.5 -71l-6 -36l-1 -24q-10 -106 -11.5 -113t-12.5 -37q-2 -2 -8 -37q-13 -76 -28 -103q-11 -24 -11 -36q0 -11 15 -30 q4 -6 8 -7t22 -1l43 -9q24 0 100 102q6 8 8 8q6 0 6 -17q0 -15 -3 -34q-1 -12 -1 -25q0 -11 1 -26q1 -10 1 -17q0 -16 -50 -57q-49 -39 -91 -39q-23 0 -39.5 10t-71.5 55z"/>
<glyph glyph-name="c" horiz-adv-x="563" unicode="c" d="M460 478q-7 0 -15 -2q-48 -15 -60 -15q-61 0 -61 177q0 34 2 58q2 37 2 55q0 22 -18 22q-20 0 -24 -31q-1 -15 -32 -127q-34 -121 -34 -281q0 -108 60 -157q31 -24 57 -24q10 0 72 21l22 22l30 20l49 50q26 23 39 42q22 34 31 34q11 0 11 -83q0 -27 -2.5 -33.5 t-18.5 -20.5q-47 -70 -80.5 -101t-76.5 -47q-15 -5 -31 -15q-26 -18 -55 -26q-68 -22 -76 -22q-23 0 -66 24q-47 16 -66.5 30t-46.5 53q-45 65 -45 148q0 222 28 336q7 27 16 71q5 29 30 85q15 33 20 62q4 18 8 20.5t29 2.5q7 0 16 4q14 6 15 6t14 -2l57 22q10 4 41 7 q8 0 34 4q14 2 21 2q27 0 52 -18q15 -11 31 -17l11 -7q27 0 35.5 -26t10.5 -123q3 -97 11 -159q1 -12 1 -20q0 -11 -6.5 -19t-12.5 -7q-26 5 -29 5z"/>
<glyph glyph-name="d" horiz-adv-x="757" unicode="d" d="M362 748q-8 1 -24 -12t-25 -27q-6 -11 -12 -45q-1 -5 -19 -45t-36.5 -147.5t-18.5 -175.5q0 -45 12.5 -73t32.5 -28q4 0 18 6l12 -1q8 0 40 85q13 32 30.5 124t20.5 140q8 112 16 135q5 13 5 17q0 13 -18.5 29.5t-33.5 17.5zM411 207q-39 -42 -80 -99q-66 -94 -131 -94 q-40 0 -72 28t-64 92q-30 60 -35 77t-5 57q0 103 9.5 166.5t41.5 176.5q29 104 71 181q6 11 29 24q42 35 53 41t34 6l55 -1l24 2q12 -1 33 -22q16 -17 37 -28q5 28 16 155l12 111v71q2 31 2 38q0 24 -14 36q-18 15 -18 19q0 3 17 26.5t26 31.5q16 17 22.5 20.5t28.5 4.5 q1 0 16 10q12 9 21 9h2l43 -4l44 3q18 0 32 -21q6 -9 15 -33t9 -29q-3 -36 -3 -60q1 -13 -12 -25q-14 -13 -15 -18l2 -11v-5q0 -7 -16 -103q-23 -133 -42.5 -337.5t-19.5 -310.5q0 -55 27 -100q29 -48 48 -48q9 0 45 41l35 32q38 57 42 57q10 0 10 -21q0 -7 -3 -23 q-2 -10 -2 -26q0 -15 2 -25t2 -11q0 -15 -30 -54t-58 -63q-29 -22 -82.5 -46.5t-76.5 -24.5q-20 0 -50.5 19t-48.5 43q-17 23 -28 65z"/>
<glyph glyph-name="e" horiz-adv-x="600" unicode="e" d="M321 795q-21 0 -61 -170q-35 -153 -35 -204q0 -11 2.5 -13t16.5 -5q4 0 14 -6q11 -6 17 -6q35 0 68.5 90t33.5 184q0 44 -12 89q-5 17 -8.5 21.5t-20.5 11.5zM116 826q22 2 25 3t74 32q33 12 104 13l64 7q25 0 60 -40q23 -26 51 -47q17 -13 33.5 -71.5t16.5 -103.5 q0 -55 -19 -112t-48 -88q-50 -54 -61 -64t-27 -19q-30 -16 -37 -16h-11q-16 -10 -27 -10q-13 0 -54 7q-12 2 -21 2q-17 0 -17 -23q0 -59 33 -101.5t78 -42.5q61 0 133 47q14 9 49 51q0 2 28 27q33 29 36 42q14 26 24 37t14 11q9 0 8 -12q0 -5 -1 -14t-1 -20q0 -12 2 -33 q1 -17 1 -31q0 -28 -32 -69t-77 -71q-27 -19 -75 -69q-20 -20 -79 -39.5t-102 -19.5q-62 0 -130 62q-42 39 -58 61q-46 65 -46 166q0 116 11.5 205.5t45.5 232.5q15 64 32 110z"/>
<glyph glyph-name="f" horiz-adv-x="512" unicode="f" d="M253 583q-10 0 -18 -24t-8 -56q0 -22 -11 -148q-7 -87 -7 -197q0 -105 7 -181q2 -25 12 -44t20 -19q14 0 40 57t36 111q12 60 12 169q0 25 -12 80l-7 47l-21 66q-17 123 -43 139zM372 576q26 -64 29.5 -77t33.5 -171l5 -22l-5 -38v-79q-1 -22 -14 -76q-11 -81 -12.5 -88 t-16.5 -37q-42 -83 -55.5 -101.5t-52.5 -50.5q-12 -9 -27 -28q-13 -16 -41 -16q-45 0 -87.5 35t-64.5 91q-14 35 -29 103.5t-15 97.5q0 122 9.5 283.5t17.5 172.5q10 13 10 17t-19 29q-12 16 -12 76q0 38 5 49.5t22 14.5q16 2 17 18q0 16 9 136l9 132l8 96q0 18 -17 38 q-10 12 -10 26q0 11 5 28q13 38 12 44q6 47 12 53t57 14l45 12l65 4l19 4q5 0 21 -22l17 -23q25 -55 25 -58q0 -17 -20 -47q-10 -14 -14 -40q-3 -22 -24 -100q-24 -93 -27 -154q-6 -105 -18 -132q-2 -6 -2 -8q0 -17 14 -14l25 6q42 1 56 5q11 3 22 3q24 0 42 -15.5t18 -36.5 q0 -2 -4 -16q-1 -6 -1 -9q0 -27 2 -33.5t15 -13.5q22 -15 22 -39q0 -38 -23 -38h-9q-12 1 -14 1q-14 0 -35 -6z"/>
<glyph glyph-name="g" horiz-adv-x="680" unicode="g" d="M324 736q-28 -36 -60 -143q-9 -30 -30 -137t-21 -123q0 -18 7.5 -61.5t11.5 -52.5q4 -8 17.5 -17.5t20.5 -9.5q1 0 5 1q63 96 80 246q9 75 14 100q8 43 13 123l5 26q0 10 -12.5 27t-19.5 17h-17zM372 204q-102 -134 -182 -134q-35 0 -104 54q-34 26 -47 56t-13 83 q0 183 14.5 261.5t76.5 231.5q12 28 20 49q5 13 6.5 14.5t25.5 11.5q71 38 80 38q13 0 51.5 -17.5t47.5 -26.5l5 -5l3 -3l17 17q29 13 33 13q3 0 15 -4q7 -2 14 -2q16 0 40 12q16 8 22 8q10 0 45 -23q4 -3 22 -21q5 -6 31 -19q6 -2 6 -14q0 -13 -17 -47q-14 -28 -14 -120 q-1 -53 -8 -83q-6 -23 -5 -27l7 -34l-2 -168q0 -11 7 -70q7 -53 7 -108q0 -142 -45 -246q-15 -33 -33.5 -52.5t-79.5 -65.5q-65 -58 -81 -68t-48 -10q-87 0 -146 76q-19 23 -22.5 36.5t-7.5 72.5q-3 43 -3 44q0 14 4.5 18t23.5 9l38 21q6 0 18 -44q8 -28 27.5 -44t82.5 -48 q46 -23 48 -23q26 0 32 61q2 18 2 97q0 12 -13 148q-2 22 -2 58l1 22v15z"/>
<glyph glyph-name="h" horiz-adv-x="666" unicode="h" d="M201 351q11 29 59 162l35 113q37 103 43 122.5t6 33.5q0 6 -3 13q-5 14 -5 16q0 15 41.5 34t75.5 19q8 0 41 -6q8 -1 15 -1q3 0 28 7q4 -3 33 -53q9 -16 10 -18q9 -13 9 -15l-5 -22q0 -25 -0.5 -26.5t-17.5 -25.5q-18 -27 -38 -133.5t-20 -177.5q0 -97 14 -119 q4 -6 20.5 -18.5t20.5 -12.5t46 33q14 11 60 94q8 15 16 15q9 0 9 -14q0 -5 -1 -15q-2 -14 -2 -30q0 -11 1 -21q1 -26 1 -37q0 -12 -3 -17.5t-21 -26.5q-11 -18 -29 -32q-3 -1 -20 -18q-79 -82 -151 -82q-64 0 -107 59.5t-43 149.5q0 38 25 173q1 9 1 12l-3 11l-17 -18 l-33 -102l-44 -119l-17 -68l-10 -41q-11 -113 -13.5 -121.5t-22.5 -10.5q-6 -1 -13 -4q-30 -15 -35 -15q-14 0 -49 34q-29 15 -36 23t-13 34q-15 64 -15 182q0 54 3 90q8 106 8 110l-6 131q0 1 4 33q3 26 7 230q3 189 26 291q3 14 3 21q0 12 -7 24q-7 11 -7 13l4 23l-3 16 q0 2 3 7q2 5 2 6l-7 52q-2 17 78 28q7 1 48 10q18 4 34 4q24 0 31 -6.5t16 -34.5q1 -3 10 -13q31 -39 32 -69l2 -18q0 -5 -7 -18q-1 -1 -1 -15q-1 -12 -13 -29q-2 -3 -9 -32q-7 -21 -10 -31q-15 -134 -35 -292l-10 -131q-4 -65 -12 -164q-8 -108 -8 -116l1 -24v-16z"/>
<glyph glyph-name="i" horiz-adv-x="382" unicode="i" d="M196 996l-34 -3q-13 0 -41 18.5t-44 38.5q-23 28 -23 58q0 33 24 81q15 30 38 36q8 2 44 13l30 -5q32 -4 40 -7t21 -17q24 -23 26.5 -28.5t7.5 -38.5q7 -30 7 -37q0 -11 -11 -28q-17 -24 -20 -31q-17 -34 -24.5 -43t-19.5 -8zM196 99l-30 -3q-21 0 -53.5 29t-53.5 66 q-34 58 -34 124q0 39 4 85q8 95 8 129q0 31 6 64q2 62 3.5 73.5t12.5 59.5q5 23 5 37q0 18 -3 23.5t-17 16.5l3 11q1 4 1 15q0 5 11 13.5t17 7.5l23 -3q2 0 16 9q22 17 76 17q16 0 32 -18q23 -26 60 -54q12 -10 12 -21t-19 -41q-10 -19 -14 -78q-2 -20 -22 -125 q-16 -80 -16 -151q0 -138 54 -138q20 0 45 23.5t43 57.5q26 53 33 53q11 0 11 -23v-8q0 -7 -2 -18q-2 -9 -2 -14l1 -55q0 -5 -14 -30l-8 -16l-20 -21l-8 -10l-19 -14l-37 -37l-21 -11q-40 -26 -57 -26z"/>
<glyph glyph-name="j" horiz-adv-x="382" unicode="j" d="M163 1227q27 0 43 -10t34 -38q20 -26 23.5 -32.5t3.5 -19.5q0 -39 -8 -61t-30 -44q-8 -9 -20 -20q-28 -30 -44 -28l-35 5q-28 1 -36.5 4t-32.5 19q-29 20 -38 34.5t-9 41.5q0 49 12 71q14 28 58.5 53t76.5 25h2zM58 33q-26 -33 -69 -107q-24 -40 -27 -51 q-22 -92 -22 -102q0 -13 11.5 -25.5t23.5 -12.5q39 0 65 65.5t26 163.5q0 15 -8 69zM240 188q5 -59 5 -198q0 -31 -17 -85q-8 -33 -12 -41.5t-19 -27.5q-83 -104 -132 -141t-103 -37q-45 0 -74.5 44t-29.5 113q0 54 35.5 128t117.5 194q15 21 16 42l-2 20v84l-6 152l11 153 q7 151 7 155q0 6 -11 26q-8 13 -8 41q0 12 6 16.5t35 16.5q37 19 46.5 22.5t29.5 3.5q21 0 27 -2t19 -12q14 -12 61 -25q22 -6 22 -25q0 -15 -4 -37q-7 -43 -21 -192.5t-14 -189.5q0 -26 9 -86q33 12 43 15q18 7 51 28l37 12q25 9 31 9q12 0 12 -20v-16q-1 -13 -1 -20 q0 -10 2 -16q2 -10 2 -13q0 -15 -40 -21q-86 -25 -131 -70z"/>
<glyph glyph-name="k" horiz-adv-x="707" unicode="k" d="M378 733q-13 2 -42 -21.5t-49 -53.5q-44 -64 -63 -120q-8 -22 -8 -58q0 -22 23 -22q5 0 30.5 6.5t30.5 8.5q11 7 44 48t45 64q21 41 21 96q0 46 -32 52zM453 437q18 -92 36 -125q31 -60 84 -60q26 0 36.5 7t47.5 51l31 33q28 43 33 43q13 0 13 -30q0 -5 -1 -71 q0 -13 -3.5 -19t-23.5 -29q-37 -55 -76 -71q-65 -53 -85.5 -62.5t-68.5 -9.5q-31 0 -50.5 7.5t-58.5 33.5q-25 17 -55.5 82t-33.5 105q-4 57 -13 57q-3 0 -19 -6l-13 -3q-15 -10 -26 -14q-1 -25 -2 -111l-3 -110q0 -30 3 -42t21 -54v-3q0 -12 -7.5 -15.5t-34.5 -5.5 q-2 -1 -12 -11q-13 -14 -27 -14q-24 0 -44 20q-3 3 -25 27l-15 15q-32 0 -32 39q0 6 2 14q2 12 2 14q0 7 -6 31q-4 18 -4 38l3 92q3 226 10.5 389t22.5 338q6 65 6 141q0 51 -5 70t-24 35l3 21q6 33 7 35t17 11q16 10 25 23q8 13 10 14t49 10l20 2l22 3q1 0 14 -2 q8 -1 19 -1q29 0 34 -5t15 -45q2 -7 10 -17t8 -12l-8 -36l4 -6q7 -8 7 -14q0 -5 -6 -11q-11 -10 -11.5 -11.5t-0.5 -24.5q-2 -13 -9 -75q-29 -217 -40 -401q29 31 76 93q29 38 67.5 54t103.5 16q82 0 112 -52q8 -15 17 -50t9 -55v-30q0 -31 -8 -56q-23 -77 -58 -122.5 t-91 -71.5z"/>
<glyph glyph-name="l" horiz-adv-x="504" unicode="l" d="M207 547q127 193 127 439q0 32 -11 161q-9 94 -35 94q-29 0 -52 -248q-29 -305 -29 -446zM210 386q-3 -30 -3 -45q0 -56 26 -103q29 -55 70 -55q12 0 25 9q11 7 28 9q16 1 88 79q26 28 31.5 36t26.5 50q10 19 18 19q11 0 11 -15q0 -6 -3 -20l4 -45v-6q0 -24 -2.5 -33.5 t-14.5 -28.5q-33 -55 -36 -59.5t-41 -44.5q-51 -66 -68.5 -79.5t-59.5 -21.5l-82 -16q-25 1 -75.5 30.5t-71.5 54.5t-40 78.5t-22 96.5q-2 33 -2 436q0 68 21 243.5t34 223.5q18 63 18 84l-1 34q0 15 6.5 20.5t32.5 15.5q77 31 100 31q8 0 79 -10q15 -1 15.5 -1t8.5 -9 q4 -4 34 -17q53 -22 82 -168q16 -79 16 -143q0 -146 -64 -305.5t-189 -324.5z"/>
<glyph glyph-name="m" horiz-adv-x="998" unicode="m" d="M356 512q-8 -29 -24 -50l-42 -141q-42 -104 -54 -148q-13 -52 -23 -87q-7 -25 -7 -39q0 -5 2 -17q2 -11 2 -19q0 -6 -7 -17q-8 -16 -16 -19.5t-38 -3.5t-40 6t-27 36l-22 -2q-18 0 -29 34t-11 90q0 235 8 295q16 131 16 141l-5 108q7 48 7 54q0 8 -4 15q-10 20 -10 21 q0 2 23 43q14 26 27 26q6 0 13 -6q9 -8 11 -8l13 3l17 -7l35 2q7 0 22 -11q22 -6 30 -16q12 -16 34 -35q3 -3 3 -7q0 -3 -14 -18q-4 -27 -16 -93l-10 -143q-22 -160 -24 -202q32 90 77 207q49 126 54 158q16 66 24.5 78.5t42.5 18.5q9 1 47 20q12 6 14 5l34 -19 q52 -28 51 -36q-3 -16 -3 -20q0 -6 12 -34q1 -3 1 -8q0 -6 -2 -15q-37 -183 -38 -327q16 35 60 170q73 219 79.5 241.5t11.5 54.5q4 32 10 42q8 15 8 16v22q0 10 3 9l34 -7q1 0 15 7q5 2 98 16q11 -1 17 -7.5t33 -42.5l17 -20l6 -19q16 -25 16 -32q0 -15 -25 -48 q-2 -1 -41 -178q-22 -100 -22 -163q0 -109 37 -140q25 -21 36 -21q5 0 49 25q17 10 47 60q10 16 17 16q11 0 10 -10l-2 -26q0 -56 -1 -64t-11 -24q-24 -35 -50 -50q-2 -1 -17 -18q-24 -27 -73.5 -50.5t-81.5 -23.5q-33 0 -69 33t-52 78q-23 63 -23 140q0 40 6 73 q16 89 16 106q0 7 -5 33q-34 -68 -47 -104.5t-54 -177.5q-36 -107 -36 -138l2 -61l-14 -26v-13q0 -13 -13 -13q-8 0 -17 5q-24 13 -36 17q-21 8 -22.5 9.5t-27.5 31.5q-11 11 -33 11q-13 1 -22 22t-9 50q0 120 9 200q15 140 15 145q0 6 -2 31z"/>
<glyph glyph-name="n" horiz-adv-x="702" unicode="n" d="M192 230q29 72 59 158q33 92 87 242q32 90 37 135q6 41 7.5 45.5t13.5 11.5q1 0 20 21q15 14 87 42l10 -4l17 -5l28 -27q35 -21 48.5 -34t12.5 -25l-14 -26l-8 -40q-44 -148 -50 -174t-13 -117q-1 -13 -1 -22q-5 -54 -5 -91q0 -42 19.5 -71t48.5 -29q44 0 91 65 q26 36 32 36q12 0 11 -20l-1 -25l-1 -43q-30 -65 -33 -69.5t-24 -18.5q-15 -10 -50 -46q-53 -55 -109 -55q-71 0 -109 41q-24 26 -41 78q-15 47 -15 82v8q8 127 12 141q11 30 11 47q0 20 -12 20q-13 0 -29 -72q-7 -28 -39 -102q-30 -69 -39 -105q-25 -91 -34 -107 q-7 -14 -7 -18q0 -1 8 -27q1 -4 1 -6q0 -12 -17 -27q-22 -21 -27 -21l-27 1q-29 0 -33 2t-13 17q-9 17 -12 17l-25 -1q-25 0 -35 35q-8 25 -8 115l-2 98l4 83q0 47 5 88q10 85 10 119l-2 105q0 38 13 57q5 8 5 9l-16 35l4 11l7 19q33 32 42 32q5 0 32 -13q5 -2 13 -2 q19 0 39 9q14 7 20 7q16 0 44 -34t28 -54q0 -9 -13 -38q-15 -35 -22 -127q0 -20 -19 -136q-16 -109 -22 -200z"/>
<glyph glyph-name="o" horiz-adv-x="651" unicode="o" d="M420 374q17 44 19.5 56t3.5 66l1 37q0 32 -12 83t-25 73q-8 -42 -8 -75q0 -11 6 -129q5 -82 15 -111zM387 244q-19 18 -21 41q0 2 -9 11q-10 11 -35.5 129t-25.5 156q0 28 5 53q6 30 6 49q0 35 -13 35q-25 0 -48 -139t-23 -289q0 -71 19 -123t45 -52q35 0 59 39 q14 23 41 90zM457 184q-41 -78 -55 -95q-32 -41 -85 -72q-37 -22 -46 -22h-1l-64 10l-30 -2q-18 0 -47.5 22.5t-51.5 54.5q-50 70 -50 196q0 93 13.5 209t30.5 167q29 88 31 105q5 48 18 60q15 13 23 12l21 -2l17 3l21 -9q1 0 16 7q6 3 34 3h28q20 0 21 0.5t24 19.5 q13 10 26 10q31 0 83 -15q46 -13 78 -109q27 -79 27 -140t-30 -204q-13 -67 -19 -117q9 -10 11 -13q10 -15 12.5 -16.5t22.5 -1.5l42 -10q18 0 82 84q6 7 7 7q11 -5 11 -29l-1 -31q-1 -40 -3.5 -49.5t-17.5 -23.5q-50 -48 -109 -48q-38 0 -90 39z"/>
<glyph glyph-name="p" horiz-adv-x="657" unicode="p" d="M213 183q25 -11 32 -17t8 -6l19 6l16 -7q2 0 7 8q2 4 15 21q21 26 26 45t11 91l10 66l1 43l2 90l1 61q-1 22 -15 41.5t-28 19.5q-24 0 -62 -77q-20 -42 -23.5 -56t-4.5 -48q-1 -12 -8 -90q-6 -66 -7 -191zM227 681q13 26 52 76q9 13 12 30q2 11 46.5 22.5t81.5 11.5 q23 0 33.5 -6t40.5 -34q16 -15 29 -22q52 -95 52 -278q0 -90 -10 -134.5t-52 -146.5l-9 -23l-43 -45l-22 -28l-25 -17q-15 -11 -33 -24q-21 -16 -22 -16l-37 6l-12 -3q-9 -2 -21 -2q-30 0 -46 8t-21 8t-12.5 -7t-6.5 -10l12 -30l-9 -65l2 -38l2 -77q6 -45 7 -86q0 -12 9 -29 q6 -31 6 -32q0 -8 -23 -19q-33 -21 -39 -21q-26 0 -43 26q-9 13 -9.5 13.5t-32.5 13.5q-11 6 -38 48q-6 10 -8 26.5t-18 178.5l5 109l-3 227l11 271l-1 124q14 111 14 123q0 15 -2 37q-2 18 -2 26q0 12 3 27q2 12 2 19q0 12 -15 23q-4 2 -4 7q0 12 22 18q18 5 28 11 q40 22 48 23q1 0 21 -5q12 -2 54 -2q23 0 37 -19q30 -42 30 -50q0 -5 -8 -17q-9 -14 -10 -18t-3 -32q0 -6 -11 -49q-11 -46 -11 -97q0 -9 2 -31z"/>
<glyph glyph-name="q" horiz-adv-x="676" unicode="q" d="M343 734q-8 0 -30 -40t-34 -76q-16 -48 -37.5 -164.5t-21.5 -154.5q0 -14 10 -72q3 -16 14 -27t25 -11q33 0 60 96q26 94 31.5 124.5t13.5 119.5q6 55 13 96q5 30 6 51q2 31 -27 44q-12 6 -13 7q-8 7 -10 7zM354 157q-19 -21 -28 -32q-31 -34 -45 -36q-23 -7 -25.5 -9 t-11.5 -13q-7 -10 -26 -10q-90 0 -161 92q-30 40 -30 96q0 121 5 174t21 115q26 95 29 118q5 38 6.5 42.5t35.5 60.5q22 56 39 70t74 22l28 5l40 -13q35 -10 49 -21q15 -13 23 -14q11 -1 22 4q8 4 12 42q2 18 17 18q4 0 11 -4q11 -7 13 -7l64 9q2 0 16 -14q11 -12 16 -15 t40 -15q13 -8 20 -66l1 -10q0 -1 -10 -11q-4 -4 -4 -5l10 -79q1 -8 -20 -46q-22 -42 -22 -155q0 -28 1 -61q1 -20 1 -43q0 -79 -13 -199q-10 -93 -10 -115q0 -89 12 -193t23 -124q14 -26 14 -38q0 -20 -27 -20q-6 0 -30 11q-1 0 -20 -11q-8 -5 -20 -5q-21 0 -43 17 q-18 14 -22.5 21.5t-12.5 39.5q-11 36 -37 46q-9 4 -17.5 68.5t-8.5 129.5l5 142z"/>
<glyph glyph-name="r" horiz-adv-x="573" unicode="r" d="M160 601q-6 -21 -11 -85q-3 -35 -26.5 -106.5t-42.5 -106.5q-40 -71 -43 -78q-11 -28 -21 -28q-9 0 -9 13q0 8 4 30q1 9 1 20q0 22 -1 41v24q0 14 10 52q7 25 11 75q8 93 13 94q6 24 6 29q0 18 -20 65q-15 33 -14 47l3 66l2 51l5 74l-1 20q0 6 2.5 9t18.5 14l25 21 q38 22 39 22q4 0 13 -7q8 -6 24 -8q27 -3 32.5 -9t5.5 -32q0 -9 -10 -29q-2 -7 -12 -73q4 -11 4 -12l-1 -15q-1 -9 22 -9q32 0 65 15.5t51 38.5q6 9 12 11.5t34 6.5q8 -1 22 -14q18 -15 27.5 -19.5t48.5 -16.5q16 -5 30 -25l13 -19q-30 -37 -33 -49q-10 -50 -14 -60 q-4 -12 -6 -31q-11 -30 -13 -42v-28q0 -13 -12 -50q-2 -49 -8 -87t-6 -78q0 -65 15 -85.5t66 -24.5l20 -4q8 1 26 31q29 33 31 36t21 36q7 14 12 14q10 0 10 -20l-1 -47q0 -48 -3 -59t-19 -30q-51 -59 -107.5 -102.5t-82.5 -43.5q-17 0 -54 13t-52 25q-33 26 -56 66 q-30 54 -30 87q0 77 3 118t13 89l23 126q10 33 10 35q0 8 -10 20t-17 12q-3 0 -15 -7q-14 -8 -43 -7z"/>
<glyph glyph-name="s" horiz-adv-x="546" unicode="s" d="M82 293q21 10 43 26q25 19 35 19q5 0 6 -20l7 -16l-6 -22q-19 -71 -19 -75q0 -22 30 -55.5t49 -33.5q11 0 31.5 14t32.5 30q18 24 18 62q0 31 -2.5 41t-14.5 33q-12 21 -19 61l-33 79l-15 64l-14 38q-5 85 -13 85q-7 0 -19 -67l-24 -76q-36 -111 -73 -187zM37 206 q-9 -10 -23 -19l-22 -27q-44 -41 -49 -42q-13 -2 -13 13v31v39q-1 20 40 63q21 22 40 60q8 15 10 31q2 11 11 43q65 240 65 272l-1 61q0 10 6 24q7 17 7 19l-7 55q-1 5 43 12q5 1 27 18q32 26 47 25l18 -2l43 3l20 -3q38 -5 46 -14q13 -15 13 -39l-1 -74q0 -26 24 -83 q22 -54 24 -75q4 -32 6.5 -36.5t27.5 -35.5q16 -19 31.5 -79t15.5 -101q0 -117 -44 -191q-28 -46 -58 -70t-118 -68q-32 -17 -50 -28q-33 -21 -45 -21q-14 0 -50 24.5t-51 43.5q-15 20 -25.5 57t-10.5 67q0 18 3 47z"/>
<glyph glyph-name="t" horiz-adv-x="451" unicode="t" d="M252 587q-27 -197 -27 -260q0 -69 19 -115t47 -46t70 37t76 91q21 35 35 35q8 0 7 -8l-1 -12v-37l-1 -26l2 -37q-1 -10 -34 -43l-12 -19l-25 -30q-21 -30 -26.5 -34.5t-36.5 -18.5q-3 1 -26 -19q-32 -28 -52.5 -37t-51.5 -9q-39 0 -60 10t-57 44q-44 42 -61 73t-17 71 q0 102 7.5 207t16.5 137q11 36 11 59q0 11 -17 26q-10 8 -10 29q0 14 5 28q6 14 6 18t-5 16q-7 18 -7 50q0 28 10 37.5t40 10.5q7 3 11 51l16 103q11 116 11 121q0 11 -13 18q-9 5 -9 14q0 11 29 29q10 20 22 28q35 24 36 26q25 22 36 22q1 0 9 -3q7 -3 29 -6q21 -4 27 -7 t26 -22q11 -11 27 -19q25 -11 25 -24q0 -7 -17 -34q-27 -44 -54 -199q-15 -87 -15 -99q0 -7 7 -9t48 -5q27 -2 34.5 -6t10.5 -18q6 -19 7 -21q12 -28 12 -33q0 -6 -26 -28q-6 -5 -6 -14q0 -14 17 -28q18 -15 18 -34q0 -34 -23 -34q-9 0 -20 4q-24 7 -38 7q-19 0 -62 -8z"/>
<glyph glyph-name="u" horiz-adv-x="713" unicode="u" d="M391 203q-72 -128 -110 -165q-19 -19 -49 -32.5t-51 -13.5q-14 0 -28 9q-11 7 -36 9q-22 3 -71 118q-21 50 -21 108q0 147 13 210q7 36 7 37l-1 92q0 36 14 60q10 18 9 20l-12 39l3 33v73q0 17 22 38.5t39 21.5q4 0 17 -4q11 -2 19 -2q23 0 40 16q8 7 9 7l22 -12l11 -3 q40 -45 46.5 -54t6.5 -19q0 -16 -7 -32q-7 -15 -7 -17l2 -26q0 -2 -7 -12q-16 -22 -18 -92q0 -15 -26 -181q-10 -69 -10 -139q0 -69 16 -101q14 -30 28 -30q16 0 34 34q37 68 39 75q19 61 29 150q14 123 15 131q14 85 14 129q0 5 -2 12l-4 14l1 25q-12 18 -12 27q0 18 10 33 q14 23 23 22l24 -3q27 0 45 -5q27 -8 40 -8q2 0 37 4q7 1 12 1q15 0 14 -8l-2 -30q0 -5 23 -38q5 -8 5 -16t-16 -28q-3 -4 -5 -51q-2 -13 -19 -94q-17 -84 -17 -136l-7 -86q0 -36 23 -75.5t44 -39.5q41 0 105 128q10 20 14 20q10 0 12 -23q0 -1 -1 -108q0 -13 -29 -43 q-17 -20 -44 -40q-12 -9 -20 -17q-28 -28 -29.5 -29t-38.5 -20q-30 -15 -42 -15q-51 0 -85.5 35.5t-59.5 116.5z"/>
<glyph glyph-name="v" horiz-adv-x="634" unicode="v" d="M448 208q-14 -22 -20 -34q-39 -66 -53.5 -85t-42.5 -40q-76 -56 -123 -56q-22 0 -73 27q-13 7 -34 39q-2 3 -9 13q-32 41 -50.5 94.5t-18.5 102.5q0 15 24 300l11 104q0 17 -7 28q-15 24 -15 26t3 9q6 12 6 17l-3 57q0 2 11 15.5t16 17.5q7 6 32 7q14 0 30 8q18 9 26 9 q9 0 37 -35q3 -7 27 -19q25 -14 32 -22t15 -31q3 -9 15 -18q2 -2 2 -7t-11 -31l-10 -51q-41 -136 -41 -358q0 -67 15 -105q8 -21 22.5 -39.5t23.5 -18.5t37 31t35 50q9 21 23 83.5t14 81.5q0 8 -5 34q-12 70 -12 137q0 27 2 49q7 71 7 75l-2 101q13 62 13 63q8 9 33 25 t30 16h1l32 -15q44 -20 57.5 -34t13.5 -40l-1 -21l-7 -118q-27 -208 -37 -244q-24 -64 -25 -75q0 -10 -4 -31q-1 -3 15 -22.5t19 -19.5l28 1l17 -2q17 0 66 61q7 9 11 9q16 0 16 -49q0 -70 -17 -84q-5 -4 -50 -20t-50 -16q-10 0 -24 8q-16 9 -27 12q-8 2 -46 30z"/>
<glyph glyph-name="w" horiz-adv-x="939" unicode="w" d="M402 212q-66 -131 -106 -169q-21 -20 -55 -39.5t-48 -19.5q-10 0 -38 10t-35 17q-34 31 -61 89q-19 41 -22 50.5t-4 28.5q-9 35 -9 55q0 212 30 449q2 11 2 20q0 6 -13 40l2 15l2 21l3 19q0 6 -5 22q-3 8 -3 16q-1 26 10 25l43 -4q2 0 13 8q34 24 57 24t56 -27t39 -51 q3 -9 18 -21q13 -9 13 -20q0 -5 -30 -66q1 -26 1 -39q0 -39 -19 -139q-2 -10 -4 -48q-7 -119 -13 -151q-7 -46 -7 -76q0 -16 13 -41q6 -10 10 -28q4 -22 23 -22q30 0 58 74.5t40 186.5q11 91 19 137q8 42 8 52q0 53 -1.5 67.5t-8.5 29.5q-4 7 -4 16q0 22 5.5 31.5t24.5 16.5 q5 2 24 15q30 18 61 18q21 0 43 -23l16 -6l17 -15q29 -15 30.5 -16.5t5.5 -13.5q4 -16 5 -17q7 -14 7 -19q0 -7 -20 -16q-4 -1 -4 -17q0 -27 -18 -160q-17 -118 -17 -160q0 -67 16 -112q21 -61 46 -61q11 0 33.5 27t32.5 55q22 55 22 159q0 44 -7 74q-7 33 -7 40l3 28v12 q0 4 -5 77q0 4 10 29q9 20 14 64q21 106 25 111q1 1 61 27q4 0 21 -14t24 -22q6 -7 17 -34l17 -38l-6 -30l-9 -86l-24 -128l-25 -136q-22 -50 -22 -67q0 -23 24.5 -44t51.5 -21q41 0 78 55q7 12 11 12q8 0 8 -18q0 -11 -2 -25q-1 -7 -1 -11q0 -12 2 -32q1 -10 1 -20 q0 -17 -18 -29q-39 -26 -40 -26h-18l-30 -5q-11 0 -49.5 20t-53.5 33q-14 -19 -42 -66q-25 -43 -84 -97q-16 -16 -85 -16q-60 0 -90.5 40t-53.5 146z"/>
<glyph glyph-name="x" horiz-adv-x="612" unicode="x" d="M298 578q11 24 60 93q61 99 71.5 117.5t10.5 32.5q0 2 -1 4l-2 10q18 15 19 15l24 -8l44 2q20 0 43 -30q24 -32 24 -47q0 -11 -36 -37q-52 -44 -129 -175q-32 -52 -50 -71t-18 -28t31 -81.5t42 -87.5q21 -30 64 -46q31 -12 35 -12q16 1 38.5 26t37.5 59q13 28 24 28 q9 0 9 -13q0 -5 -3 -33q-1 -5 -1 -11q0 -7 1 -13q3 -27 3 -29q0 -42 -87 -133q-29 -29 -42 -35.5t-46 -7.5l-35 -9q-2 0 -30.5 8.5t-37.5 11.5q-32 13 -70 69t-51 110q-6 22 -15 22q-8 0 -78 -123q-44 -78 -55 -133q-3 -11 -14 -22l-14 -15q-2 0 -9 7q-8 8 -26 9 q-16 1 -16 14l2 47q0 4 -8 19q-10 17 -10 24q0 16 23 48q6 5 41 72q30 58 81 137q11 18 11 28q0 6 -7 20q-24 52 -47 134q-22 80 -31 80q-13 0 -28 -46q-6 -20 -25 -20q-17 0 -26 24q-12 30 -12 41q0 10 15 46q6 15 15.5 56t10.5 57q2 35 8.5 43.5t31.5 11.5q6 1 41 31 q16 15 29 15q14 0 42 -19q17 -11 34 -20q15 -8 19 -14.5t6 -25.5q6 -36 35 -124l23 -81z"/>
<glyph glyph-name="y" horiz-adv-x="669" unicode="y" d="M369 169q-98 -130 -181 -130q-51 0 -67 6t-47 36q-55 55 -55 140q0 159 29 403q1 4 1 8q0 9 -11 23q-5 7 -4 12l8 32l7 43q-13 23 -13 28q0 15 12 21t60 12l47 8q25 -1 71 -42q10 -9 12.5 -13.5t8.5 -23.5q0 -1 24 -18q20 -14 17 -28l-3 -12l-21 3q-5 1 -7 -25 q3 -3 -17 -95q-5 -27 -7 -65q-14 -48 -19 -90t-5 -109q0 -55 31 -91q18 -21 26 -21t68 78q23 28 31 231q4 105 15 161q5 43 14 74q8 28 8 47q0 15 -5 35q-2 11 -2 18q0 14 5 13l36 -9q1 0 10 9q7 6 32 17.5t33 11.5q23 0 55 -25.5t32 -44.5q0 -4 -1 -9q-4 -21 -4 -22 q4 -26 4 -32q0 -10 -7 -29q-10 -34 -31 -244l-5 -155l-4 -103l8 -214q0 -10 -16.5 -74t-23.5 -82q-11 -25 -48 -55q-23 -18 -65 -61q-50 -50 -68.5 -62.5t-42.5 -12.5q-57 0 -130 66q-75 68 -75 117q0 20 16 42q7 10 16 33q5 17 22 17q12 0 16 -7t17 -47q4 -14 27.5 -37.5 t34.5 -26.5q56 -13 59 -13q31 0 54 60.5t23 141.5q0 26 -3 124l-1 34z"/>
<glyph glyph-name="z" horiz-adv-x="624" unicode="z" d="M468 20q-3 0 -20 -5q-16 -4 -28 -4q-38 0 -93 10q-88 17 -150 17q-35 0 -99 -17q-6 -2 -17 -2q-23 0 -39.5 11t-16.5 27q0 13 19 32q4 4 4 16q0 15 -22 48q-8 13 -8 20q0 13 11 26.5t76 82.5q171 189 226 293q21 37 33 51q10 11 10 16q0 8 -11 14.5t-25 6.5q-20 0 -83 -5 t-71 -8q-67 -19 -91 -19q-19 0 -19 18q0 5 18 34q2 3 2 6q0 6 -10 14q-10 9 -10 12l2 35q0 2 -6 17q-4 11 -4 24q0 39 40 39q9 0 27 -1h15q14 0 128 9q59 4 94 9q42 6 48 6l98 -7l63 1q34 0 34 -30q0 -10 -4 -19q-8 -17 -8 -22q0 -6 1 -12q3 -11 3 -14q0 -7 -6 -17 q-3 -5 -3 -7q0 -5 7 -13q8 -7 8 -12q0 -10 -9.5 -23t-66.5 -80l-94 -132q-85 -113 -172 -228q-13 -12 -13 -17q0 -7 14.5 -13.5t33.5 -6.5l47 1q15 0 45 -3q52 -5 88 -5q27 0 54 8q14 4 24 4q31 0 29 -29q-1 -11 -29 -41q-11 -12 -11 -20q0 -6 7 -15q17 -21 17 -29 q0 -3 -5 -10t-5 -9l1 -17q0 -3 -9 -12t-12 -9z"/>
<glyph glyph-name="braceleft" horiz-adv-x="548" unicode="{" d="M505 1436q20 0 33 -13.5t13 -36.5q0 -1 -1 -21v-6q0 -9 13 -24q13 -16 13 -35q0 -31 -54 -44q-67 -16 -96.5 -36t-40.5 -57q-14 -48 -17.5 -74.5t-4.5 -99.5l-7 -56q-10 -102 -28.5 -141t-78.5 -83q-15 -12 -17 -22q-1 -8 6 -12t53 -19q30 -10 38.5 -25.5t21.5 -88.5 q1 -5 18 -56q17 -50 17 -106v-24q-1 -34 -1 -64q0 -27 17 -93q5 -83 16 -104t59 -34q19 -5 34 -29q27 -44 26 -46l-31 -50q-24 -44 -33 -54t-26 -10q-20 0 -34 15q-10 11 -50 27q-8 5 -63 56q-27 23 -54 99q-14 39 -19 50q-16 34 -17 37t-7 39q-17 63 -20 80.5t-3 58.5l1 84 q0 98 -15 131q-11 22 -21.5 29.5t-40.5 12.5q-30 6 -61 20q-27 12 -27 55q0 53 12 88q4 12 9 14t31 4q21 1 45 22q35 30 41.5 47t19.5 114l12 48l7 126q27 75 36 108q21 74 56 100q61 47 100 57q27 8 30 9t30 20q48 12 60 13z"/>
<glyph glyph-name="bar" d="M378 1365h269v-1706h-269v1706z" unicode="|"/>
<glyph glyph-name="braceright" horiz-adv-x="548" unicode="}" d="M44 1436q6 0 60 -13q27 -19 30 -20t30 -9q16 -4 50.5 -24.5t56.5 -38.5q29 -24 48 -94q9 -33 36 -108l8 -126l11 -48q13 -94 20.5 -113t40.5 -48q25 -21 45 -22q27 -2 32.5 -5.5t10.5 -21.5q9 -32 9 -79q0 -27 -7 -38.5t-28 -20.5q-27 -11 -53 -16q-48 -8 -62.5 -40.5 t-14.5 -130.5v-29q1 -31 1 -57q0 -42 -3 -59t-20 -80q-6 -36 -7 -39t-17 -37q-5 -11 -19 -50q-29 -79 -67 -112q-41 -37 -45.5 -40t-37.5 -17q-7 -2 -17 -13q-14 -15 -34 -15q-17 0 -26 10t-32 54l-32 50q0 6 17.5 32.5t26.5 34.5q7 6 48 17q22 6 31 32.5t13 96.5 q17 67 17 90l-2 95q0 53 17 102q18 53 29 118q6 37 49 52q47 15 54 19t5 14q-2 9 -17 20q-58 41 -77.5 81.5t-29.5 142.5l-7 56q-1 73 -5.5 103.5t-19.5 80.5q-11 53 -134 83q-54 12 -54 44q0 19 13 35q13 15 13 30q0 41 9 55t37 16z"/>
<glyph glyph-name="asciitilde" horiz-adv-x="1365" unicode="~" d="M324 1146l-133 109q40 93 86 153q87 113 210 113q72 0 227 -70q128 -58 176 -58q82 0 156 133l133 -109q-48 -107 -92 -161q-86 -107 -205 -107q-36 0 -75 12.5t-140 56.5q-141 61 -189 61q-44 0 -78.5 -29.5t-75.5 -103.5z"/>
<glyph glyph-name="nbspace" horiz-adv-x="550" unicode=""/>
<glyph glyph-name="exclamdown" horiz-adv-x="488" unicode="" d="M266 1285q50 0 84 -34.5t34 -84.5q0 -46 -21 -80q-11 -18 -29.5 -35.5t-26.5 -17.5q-1 0 -12 4q-4 1 -8 1q-3 0 -46 -16q-7 -3 -50 24q-58 35 -58 113q0 44 43 84.5t90 41.5zM183 953h22q4 0 19 5q8 3 15 3q18 0 31 -18q7 -9 23 -10q53 0 53 -105l-6 -346l-1 -253 l-7 -140q0 -9 3 -19q9 -28 9 -29q0 -14 -28 -32q-18 -10 -19 -10l-29 6q-2 0 -11 -9q-4 -4 -5 -4l-31 6q-1 0 -38 -12q-6 -2 -12 -2q-9 0 -44 23q-11 8 -36 47l1 21q0 4 -3 11q-8 19 -8 20q0 5 10 21q10 14 11.5 25t7.5 82q1 21 15 85q20 98 31.5 207.5t18.5 273.5l4 81 q-5 46 -5 52q0 20 9 20z"/>
<glyph glyph-name="cent" horiz-adv-x="651" unicode="" d="M285 869q-22 -22 -29 -39.5t-14 -70.5q-3 -20 -11.5 -116t-8.5 -106q0 -63 15 -101q6 -16 19 -30.5t21 -14.5q13 0 13 24q0 2 -1 21q-3 77 -3 179l3 124l-1 40q-1 49 -3 90zM373 891q-3 -35 -3 -55q0 -12 1 -26q2 -21 2 -22l-1 -38q0 -22 3 -72q2 -27 2 -51q0 -16 -3 -67 q-2 -43 -2 -81l1 -117v-16q9 -2 15 -2q9 0 47 27l40 26l26 27q50 51 63 67q32 42 37 42q9 0 10.5 -8.5t2.5 -61.5l2 -41q-2 -9 -23 -29l-24 -40l-16 -16l-29 -32l-26 -20l-28 -21l-56 -27q-35 -24 -35 -25l2 -42q0 -20 8 -38q19 -35 19 -48q0 -29 -28 -29q-20 0 -38 11 q-21 12 -28 13q-20 4 -25 8.5t-5 20.5q0 5 1 22v52h-12q-14 0 -70.5 21.5t-77.5 35.5q-48 30 -79 114q-5 15 -6 41t-2 170v15q0 12 8 68l4 53q15 49 24 115q5 35 11.5 53.5t41.5 101.5q5 25 10 44l31 -6q2 0 9 6q14 11 23 11l33 -1q3 0 52 19q3 22 3 38q0 35 -21 72 q-2 2 -2 7q0 6 5 9t33 16q1 1 3 1q7 0 28 -5.5t26 -9.5q19 -14 19 -59q0 -13 -3 -21q-6 -16 -6 -17q1 -8 28 -19q4 -2 34 -20q5 -3 24 -13q43 -23 49.5 -48t9.5 -171q1 -68 7 -70q9 -27 9 -43q0 -10 -3.5 -12t-20.5 -3l-36 -3q-5 0 -15.5 14t-15.5 28q-3 7 -8 47l-15 43 q-11 56 -11 56.5t-8 7.5q-13 10 -25 23z"/>
<glyph glyph-name="sterling" horiz-adv-x="867" unicode="" d="M322 212q72 24 116 24q21 0 60 -6q86 -13 101 -13q107 0 176 138q27 54 49 54q10 0 13.5 -5t12.5 -33l13 -38q-1 -5 -11 -20q-24 -34 -36.5 -68t-30.5 -116q-11 -49 -158 -94q-83 -26 -148 -26q-45 0 -127.5 12.5t-104.5 23.5q-21 9 -28 9q-10 0 -31 -13q-50 -32 -73 -32 q-19 0 -61 14.5t-55 26.5q-27 23 -27 63q0 43 11.5 74t27.5 32q2 0 38 -7q6 -1 23 -1q55 0 70.5 9.5t24.5 49.5q7 36 12 56q9 33 24 148l8 59q-1 12 -4 12l-30 -1l-44 -3l-27 -3q-15 3 -15 24q0 9 13 74l-1 24q-1 32 -1.5 35t-13.5 13q-3 2 -3 7q0 9 12.5 16.5t28.5 7.5 q17 0 36 -2q16 -2 28 -2q28 0 28 19l-2 64q0 4 3 27q2 21 3 152q0 27 20.5 92.5t35.5 86.5q10 14 69 67q56 51 115 51q48 0 85 -26q16 -12 19 -11l25 7q79 15 87 15q14 0 40 -23q42 -12 51.5 -22.5t9.5 -45.5l-1 -54q0 -98 25 -220q2 -8 2 -17q0 -8 -9 -29q-7 -19 -11 -23.5 t-23 -12.5q-54 -23 -68 -23q-11 0 -22 9q-13 12 -15 12l-34 -4q-2 0 -5.5 8.5t-3.5 15.5v16q1 11 1 21q0 28 -15 108q-17 109 -22 130t-21 36q-23 25 -60 25q-39 0 -53.5 -63.5t-14.5 -237.5q0 -109 8 -137q4 -16 41 -16l111 1q25 0 45 -6q26 -8 25 -12l-12 -50q0 -1 8 -10 q8 -10 7 -16l-2 -23l8 -36q0 -11 -26.5 -25.5t-45.5 -14.5q-13 0 -60 10q-16 3 -20 3q-47 0 -76 -4q-11 -2 -14 -8.5t-3 -29.5q0 -171 -101 -299z"/>
<glyph glyph-name="currency" horiz-adv-x="790" unicode="" d="M496 555q19 14 32 29q5 19 20 53q9 20 9 50q0 57 -35.5 90t-96.5 33q-28 0 -39 -3t-44 -20q-39 -18 -46.5 -24t-16.5 -22q-20 -41 -20 -102q0 -37 7.5 -53.5t29.5 -32.5q46 -33 96 -33q48 0 104 35zM525 384q-97 -22 -150 -22q-56 0 -111.5 20t-85.5 51q-11 11 -16 11 q-4 0 -14 -9q-17 -17 -26 -25q-31 -29 -42 -51q-21 -49 -44 -49q-21 0 -39 31l-14 6q-25 10 -25 40q0 11 10 21.5t72 65.5q65 50 65 61q0 2 -5 11q-15 31 -15 71q0 79 24 148t61 97q20 16 20 21l-16 23l-17 25q-29 35 -29 44q0 11 37 48q9 8 22 25q17 20 28 20q4 0 30 -17 q12 -8 14 -11t3 -14q0 -35 9 -62q7 -22 11 -22q7 0 18 5q41 21 95 21q74 0 135.5 -17.5t87.5 -45.5q6 -6 8 -6q3 0 10 12q14 22 74.5 66.5t77.5 44.5q14 0 37 -33t23 -53q0 -13 -8 -18t-50 -21q-21 -7 -60 -35.5t-39 -35.5l1 -4q28 -61 28 -134q0 -58 -15.5 -120.5 t-36.5 -85.5q-18 -21 -50 -46q27 -25 32 -29t37 -20q7 -3 20.5 -18t13.5 -20q0 -16 -37 -30q-61 -22 -70 -22q-23 0 -49 36q-19 27 -40 51z"/>
<glyph glyph-name="yen" horiz-adv-x="1055" unicode="" d="M573 740q29 45 44 72t76 143q76 136 90.5 166t20.5 70q6 35 12.5 43.5t38.5 22.5q24 22 32.5 25t44.5 5q6 0 33 3q10 1 18 1q15 0 18 -6.5t4 -36.5q-4 -5 15 -33q8 -13 8 -20q0 -10 -43 -49q-10 -10 -35 -63q-14 -30 -30 -55q-31 -48 -34 -55q-38 -82 -43 -90.5 t-34 -51.5q20 -4 39 -4q6 0 42 1h41q49 0 63 -4t14 -20q0 -1 -6 -19q-1 -4 -1 -7q0 -7 12 -39q2 -6 2 -16q0 -39 -25 -50t-112 -11q-15 0 -71 3h-88h-9q-9 -4 -39 -61.5t-30 -71.5v-29q0 -31 7 -41.5t26 -10.5q11 0 42 7q14 4 36 4q15 0 68 -2q90 -2 126 -2q37 0 37 -22 q0 -4 -7 -21q-2 -5 -2 -10q0 -6 15 -26q5 -6 5 -43q0 -11 -24 -27q-12 -8 -24.5 -9.5t-77.5 -1.5q-72 -3 -87 -3q-9 0 -55 2q-37 2 -63 2q-23 0 -23 -8q0 -1 1 -3q6 -11 6 -30l-1 -86q0 -45 6 -66q14 -44 14 -50q0 -10 -7.5 -14.5t-39.5 -16.5q-10 -3 -27 -15 q-20 -14 -24 -14h-1l-47 16q-32 9 -53 30q-76 74 -76 90q0 6 9 20q14 22 17 30t4 28q1 7 4 78q-2 15 -20 15q-19 0 -53 -6q-26 -5 -57 -5q-39 0 -81 3q-41 3 -59 3q-14 0 -36 -2h-10q-13 0 -13 32q0 23 3 34q4 14 4 15q0 3 -12 28q-7 16 -7 26q0 11 12 19.5t27 8.5l95 -2 q3 0 52 3q21 1 47 1q33 0 86 -3h15q22 0 22 22t-31 76q-46 78 -47 95q-4 14 -17 14h-15q-39 -3 -88 -3q-25 0 -40 1q-50 2 -53 2l-47 -1q-29 0 -29 17q0 1 2 8q0 1 2 34q0 1 -4 30l4 27q0 3 -12 14q-10 10 -10 19q0 16 31 16q15 0 43 -2q19 -1 54 -1q40 0 67 11.5t27 28.5 q0 11 -42 55q-31 45 -42 57q-25 -18 -35 -18q-5 0 -34 7q-49 2 -57 10q-12 12 -12 47q0 19 5 32t36 73q7 14 25 74q10 35 16 40.5t50 24.5q43 28 62 28q29 0 46.5 -7t35.5 -27q5 -5 38 -34q8 -7 8 -8l-10 -57q0 -2 7 -12q16 -24 22.5 -40t20.5 -74q4 -13 31 -58 q32 -54 86 -162q16 -34 39 -77z"/>
<glyph glyph-name="brokenbar" d="M378 314h269v-655h-269v655zM378 1365h269v-710h-269v710z" unicode=""/>
<glyph glyph-name="section" horiz-adv-x="915" unicode="" d="M635 325q59 44 59 106q0 55 -30.5 95t-110.5 88q-170 103 -275 175q-32 -57 -32 -96q0 -78 69 -144t320 -224zM767 226q84 -90 84 -187q0 -35 -7 -55t-34 -66q-38 -62 -65.5 -90.5t-72.5 -50.5q-96 -48 -229 -48q-186 0 -290 105q-40 40 -74 106t-34 103q0 14 26 30 q16 11 17 23q0 1 -2 10q-1 6 -1 11q0 35 29 35q19 0 26 -18q3 -10 3.5 -10.5t13.5 -6.5q10 -5 19 -36q5 -19 35.5 -53.5t63.5 -59.5q83 -62 207 -62q50 0 84 12q31 12 49 13q12 1 13 3t5 25l19 88q1 6 -100 88q-56 46 -88 67.5t-130 76.5q-176 101 -234 180.5t-58 218.5 q0 78 20.5 129.5t75.5 111.5q-48 82 -48 176q0 113 56.5 185.5t178.5 115.5q33 12 55.5 15.5t122.5 12.5q105 -12 125 -23q16 -11 17 -11l44 11q1 0 18 -13.5t23 -19.5q14 -16 18 -49q6 -54 9 -65t28 -95q32 -106 32 -109q0 -24 -38 -29q-14 -3 -41 -28q-20 -19 -41 -19 q-12 0 -26 3q-21 5 -26 6q-22 2 -26 12q-17 40 -25 103q-14 102 -24 102h-1q-24 42 -24 53q-1 21 -2 23.5t-11 6.5q-6 2 -27 10l-25 -4l-31 3q-21 0 -67 -24q-85 -45 -85 -159q0 -61 27 -96.5t119 -95.5q85 -56 300 -179q56 -32 102 -87q56 -68 56 -154q0 -29 -8.5 -53 t-42.5 -85q-54 -97 -83 -133z"/>
<glyph glyph-name="dieresis" d="M343 1235q13 0 45 -7.5t46 -13.5q21 -10 25.5 -18t8.5 -42q9 -31 9 -38q0 -11 -30 -70q-12 -24 -26.5 -32.5t-43.5 -8.5q-35 0 -46.5 4.5t-36.5 26.5q-47 42 -47 68q0 34 26 85q22 44 70 46zM646 1234q53 0 96 -24q25 -14 32 -64q7 -30 7 -33q0 -11 -16 -37 q-5 -8 -17 -34q-10 -21 -27 -29.5t-51 -8.5q-24 0 -41 7q-29 12 -53.5 44t-24.5 57q0 20 12 50t27 47q21 24 56 25z" unicode=""/>
<glyph glyph-name="copyright" horiz-adv-x="1526" unicode="" d="M840 990q-7 1 -24 11q-5 4 -23 4q-24 0 -43 -19t-51 -77q-25 -44 -34 -70.5t-21 -92.5q-13 -65 -13 -91q0 -12 10 -77q6 -43 9 -52.5t24 -46.5l9 -16l18 -10q33 -33 53 -42.5t56 -9.5q46 0 98 34.5t89 90.5q7 10 17 10q3 0 26 -7q23 -23 23 -31q0 -25 -23.5 -62 t-61.5 -72q-40 -39 -61.5 -52.5t-52.5 -20.5q-67 -21 -102 -21q-65 0 -112.5 25.5t-111.5 94.5q-74 80 -74 233q0 195 87.5 333.5t210.5 138.5q17 0 87 -10q43 -6 62.5 -12t55.5 -28q38 -22 38 -45q0 -11 -2 -33t-2 -43q0 -60 5 -91q2 -10 2 -15q0 -11 -15.5 -25t-27.5 -14 q-5 0 -12 1q-22 -8 -31 -8q-10 0 -21 7q-16 11 -18 11.5t-16 0.5q-13 1 -16 4t-5 19q0 1 -2 11q-5 19 -5 75q0 3 1 10q4 53 4 57q0 5 -4 23zM785 1259q-241 0 -401 -153q-99 -95 -148 -221q-39 -100 -39 -204q0 -100 36.5 -200t101.5 -176q76 -91 184 -143q116 -56 244 -56 q213 0 388 160q102 94 142 195q36 89 36 222q0 254 -121 395q-152 178 -423 181zM758 1392q308 0 521 -224q193 -202 193 -474q0 -169 -107 -381q-54 -107 -108.5 -155.5t-183.5 -103.5q-193 -84 -369 -84q-287 0 -466 235q-80 104 -128 232q-57 149 -57 268q0 173 91 350 q18 34 38.5 54.5t88.5 73.5q163 126 257 166.5t230 42.5z"/>
<glyph glyph-name="ordfeminine" horiz-adv-x="652" unicode="" d="M312 988q-6 0 -12 -13q-1 -3 -10 -19q-18 -29 -39 -110t-21 -119q0 -70 25 -70q7 0 23 24q14 8 16 14q1 4 10 22q19 51 20 65l4 14l2 25q3 7 3 15q1 11 5 26q11 38 12 58q5 21 5 26q0 18 -5 25t-21 10q-15 7 -17 7zM340 663q-9 -12 -38 -56q-15 -23 -45.5 -44t-48.5 -21 q-37 0 -73 32q-49 43 -49 134q0 61 20 152.5t40 121.5q28 42 51 60q14 12 48 23.5t55 11.5q23 0 47 -21q19 -18 25 -18q1 0 8 1h7q12 -11 21 -13.5t39 -2.5q47 -1 53 -26q3 -10 10 -17q1 -1 1 -6q0 -10 -12 -26l1 -20q0 -4 -4 -13q-14 -34 -24 -112q-9 -31 -9 -46 q0 -27 10 -46.5t24 -19.5q8 0 38.5 30.5t41.5 50.5q11 18 16 18q10 0 10 -15q0 -5 -1 -17q-1 -7 -1 -16v-12q1 -10 1 -13q0 -21 -31.5 -55t-52.5 -36q-3 0 -19 -13q-13 -10 -33 -14q-19 -3 -23 -5q-8 -3 -9 -3l-47 15q-21 7 -47 57z"/>
<glyph glyph-name="guillemotleft" horiz-adv-x="818" unicode="" d="M380 816q6 0 31 -28q11 -11 45 -31q7 -4 7 -11q0 -6 -46 -63l-34 -38l-27 -41q-97 -108 -97 -139q0 -13 43.5 -87.5t75.5 -116.5q52 -67 52 -91q0 -18 -44 -41q-19 -9 -40 -27q-39 -33 -56 -33q-13 0 -19 8l-18 37l-42 66l-39 66q-104 143 -104 175q0 26 64 99 q155 184 187 231q8 13 32 34q20 30 29 31zM668 815q8 0 32 -26q37 -31 43.5 -37t6.5 -12q0 -17 -86 -109q-47 -51 -47 -54l-11 -16q-11 -14 -24 -40q-33 -40 -33 -53q0 -33 134 -229q40 -58 40 -73q0 -9 -8.5 -15.5t-57.5 -35.5q-12 -7 -45 -32q-19 -14 -32 -14 q-9 0 -14.5 7t-30.5 48l-37 50q-51 93 -87 141q-53 69 -53 104q0 15 10.5 31t71.5 95l42 50l59 74q56 62 66 80q6 12 34 37q14 27 27 29z"/>
<glyph glyph-name="logicalnot" d="M694 0v353h-626v235h887v-588h-261z" unicode=""/>
<glyph glyph-name="sfthyphen" horiz-adv-x="462" unicode="" d="M349 369h-26l-52 -3l-86 6l-73 -3l-31 1q-11 0 -38 -5q-12 -2 -21 -2q-22 0 -20 20l3 32l1 42l10 55q4 37 5.5 44.5t9.5 12.5q12 9 33 9q47 0 134 -9l80 4l107 3l42 1q38 0 38 -27q0 -7 -6 -48l-1 -36q-5 -73 -7 -78q-5 -23 -31 -23q-10 0 -45 3q-10 1 -26 1z"/>
<glyph glyph-name="registered" horiz-adv-x="1526" unicode="" d="M697 949q13 -14 13 -24q0 -5 -13 -18q-1 0 -1 -6q0 -2 -3 -18q-7 -46 -7 -82v-16q1 -52 -5 -55q-5 -10 -5 -13q0 -6 7.5 -12.5t15.5 -6.5q21 0 74.5 26t83.5 52q36 30 62 73t26 72q0 23 -20.5 41t-46.5 18q-49 0 -102.5 -9t-78.5 -22zM533 903l-13 -6q-26 -10 -41 -23 q-19 -16 -33 -16q-36 0 -36 58q0 23 6 33q3 5 3 6q0 2 -6 11q-3 5 -3 9q0 14 32 25l24 16q10 7 132 50q97 34 229 34q81 0 120 -38q7 -6 36 -39q9 -10 28 -27q45 -39 59 -59.5t14 -47.5q0 -38 -18.5 -85t-46.5 -78q-33 -38 -50 -51.5t-47 -26.5q-10 -4 -10 -12q0 -2 3 -8 q5 -11 13 -44q17 -62 65 -122q33 -45 52 -45q2 0 11 4q15 7 30 7q14 0 14 -13q0 -3 -4 -19q7 1 8 1q12 0 12 -19q0 -28 -41 -54.5t-85 -26.5q-89 0 -150 92q-9 14 -44.5 91t-39.5 91q-7 32 -15 31l-13 -1l-18 1q-32 0 -32 -33q0 -129 -3 -152q-2 -17 -2 -28q0 -9 11 -20 q4 -5 4 -8l-1 -15q0 -1 6 -4q10 -4 11 -7t1 -25l5 -16q0 -7 -29 -18t-48 -11q-10 0 -33.5 14t-26.5 22l-5 11l-16 -1q-7 0 -25.5 19t-18.5 26q0 5 4 17q6 16 6 29l-2 55l7 119l1 68q9 55 9 66v15q-4 58 -4 60q6 90 6 107q0 9 -2 11zM785 1259q-241 0 -401 -153 q-99 -95 -148 -221q-39 -100 -39 -204q0 -100 36.5 -200t101.5 -176q76 -91 184 -143q116 -56 244 -56q213 0 388 160q102 94 142 195q36 89 36 222q0 254 -121 395q-152 178 -423 181zM758 1392q308 0 521 -224q193 -202 193 -474q0 -169 -107 -381q-54 -107 -108.5 -155.5 t-183.5 -103.5q-193 -84 -369 -84q-287 0 -466 235q-80 104 -128 232q-57 149 -57 268q0 173 91 350q18 34 38.5 54.5t88.5 73.5q163 126 257 166.5t230 42.5z"/>
<glyph glyph-name="overscore" d="M0 1618h1024v-150h-1024v150z" unicode=""/>
<glyph glyph-name="degree" d="M519 1245q-80 0 -132 -50q-62 -59 -62 -141q0 -70 45 -124q56 -66 141 -66q74 0 129 53q59 57 59 127q0 17 -15 71t-25 70q-35 59 -140 60zM509 1374q139 0 235 -101q87 -91 87 -214q0 -76 -48 -171q-24 -48 -48.5 -70t-83.5 -47q-87 -38 -166 -38q-129 0 -210 106 q-37 49 -60 111t-23 114q0 78 41 158q16 31 106 94q50 34 83.5 45.5t86.5 12.5z" unicode=""/>
<glyph glyph-name="plusminus" horiz-adv-x="792" unicode="" d="M367 156h62l92 1q147 1 180 3q22 1 34 1q31 0 31 -22q0 -6 -5 -42l-1 -20q-6 -55 -10 -64.5t-22 -9.5q-8 0 -36 2q-8 1 -19 1h-23q-60 -2 -87 -2q-22 0 -58 1q-70 2 -233 3l-72 2l-83 -4l-14 1h-9q-9 0 -33 -4q-9 -2 -16 -2q-18 0 -17 17l2 27l1 25l9 36q4 39 10 47.5 t29 8.5q32 0 68 -3q78 -7 79 -7q73 4 141 4zM322 715v22v21q-1 153 -3 180q-1 22 -1 34q0 34 25 34h3l36 -2l20 2l24 -1l28 1q22 -1 22 -24q0 -9 -2 -37q-1 -8 -1 -18v-24q1 -45 1 -84q0 -45 -1 -102h48q147 1 180 3q24 1 31 1q34 0 34 -24q0 -4 -5 -40l-1 -20 q-3 -23 -4 -37q-3 -39 -31 -37q-40 3 -53 3q-9 0 -103 -2q-22 0 -98 2q0 -30 -2 -102l4 -94l-1 -23q0 -8 4 -32q2 -9 2 -17q0 -12 -7 -15t-37 -4l-25 -1l-36 4q-38 0 -47 5t-9 28q0 32 10 145q-4 69 -4 107l-25 1h-26l-70 1l-85 -3l-23 1q-9 0 -33 -4q-9 -2 -16 -2 q-18 0 -17 17l2 28l1 24l9 36q4 39 10 47.5t29 8.5q31 0 143 -10q2 0 55 2q16 1 45 1z"/>
<glyph glyph-name="twosuperior" horiz-adv-x="500" unicode="" d="M394 561l-37 -8l-27 4l-19 2q-23 5 -29 5q-13 0 -32 -3q-56 -10 -72 -10q-21 0 -46 6q-14 3 -19 4q-27 -1 -34 37q-1 24 -1 25t-14 12q-5 4 -5 14q0 15 15 29q22 21 81 129.5t101 203.5q52 119 52 185q0 17 -4.5 22.5t-29.5 19.5q-6 0 -13 -11.5t-40 -79.5 q-11 -23 -25 -65.5t-14 -52.5q0 -3 1 -7q4 -10 4 -11q-13 -19 -17 -22.5t-15 -3.5q-15 0 -25 -3q-20 -7 -23 -7q-11 0 -32.5 31.5t-21.5 47.5q0 4 12 43l23 70q20 78 24 86q11 22 11 24q4 21 5 21l23 12l20 -6l8 7q2 2 42.5 7.5t55.5 5.5q43 0 70 -14q100 -36 100 -135 q0 -135 -77 -246q-15 -24 -19 -42q-1 -7 -35 -59q-30 -47 -69 -118q-8 -14 -8 -19q0 -6 8 -6t19 2q18 3 113 8h27q23 0 22 -18l-1 -14l1 -16q0 -3 -4 -10q-2 -5 -2 -6q0 -4 9 -14q8 -8 8 -19q0 -30 -21 -36z"/>
<glyph glyph-name="threesuperior" horiz-adv-x="500" unicode="" d="M117 828l31 -1q3 0 9 1q7 2 13 2q19 0 17 -10l-3 -16q8 -14 8 -20v-7q-2 -16 -2 -19q0 -12 9 -41.5t17 -43.5q3 -5 17 -16.5t17 -11.5q11 0 28 59q15 47 15 108q0 93 -19 93h-1l-64 -6q-5 -1 -22.5 15.5t-16.5 21.5l6 23q0 22 8 22l18 -1q8 -1 23 8.5t22 19.5 q31 51 31 157q0 59 -15 72q-13 10 -23 9q-9 -1 -35 -79q-26 -79 -26 -84v-4q4 -24 4 -29q-2 -17 -24 -17q-7 0 -15 2q-10 3 -13 3t-9 -2q-17 -6 -28 -6q-15 0 -30.5 17t-15.5 34q0 11 18 75l19 70q20 55 22 66q5 26 27 26q5 0 19 -11l8 4q3 2 13 2q9 1 30 7q12 4 59 4 q69 0 119.5 -45.5t50.5 -107.5q0 -10 -3 -22q-3 -11 -3 -15l1 -9q-27 -86 -35 -104t-31 -39q-6 -6 -5 -11q1 -4 20 -11q27 -10 49.5 -65.5t22.5 -109.5q0 -25 -23 -80q-17 -40 -23 -49.5t-22 -21.5q-20 -15 -36 -29q-24 -17 -43 -24q-8 -3 -30 -18q-9 -5 -46 -6 q-10 0 -14 -1q-29 -3 -30 -3q-12 1 -47 22q-10 6 -39 46l-23 32l-6 21q-18 61 -18 100q0 12 1.5 15t12.5 9q4 2 17 8l13 5q16 15 24 17z"/>
<glyph glyph-name="acute" d="M538 1235l32 -1l45 2q1 0 18 -2q11 -1 24 -1q6 0 54 7h1q4 0 10 -6t5 -12q0 -18 -94 -162q-24 -38 -39 -48.5t-45 -10.5h-48q-12 -1 -19 -1q-22 0 -22 18q0 4 2 10q10 29 23 93q23 91 27.5 100.5t25.5 13.5z" unicode=""/>
<glyph glyph-name="mu" horiz-adv-x="713" unicode="" d="M392 203q-16 -28 -21 -38q-57 -106 -85 -130q-36 -31 -61 -31q-11 0 -30 11q-2 -25 -2 -30q0 -89 2 -119.5t10 -65.5q0 -3 3 -49q1 -13 14 -29q11 -32 11 -33q0 -6 -24 -18q-32 -21 -38 -21q-26 0 -44 26q-9 13 -9.5 13.5t-31.5 13.5q-11 4 -39 48q-6 10 -9.5 39 t-17.5 190l2 85l2 136l3 75l1 34q9 128 19 171l-2 93q0 37 14 61q10 18 9 20l-12 39l3 33v73q0 17 22 38.5t39 21.5q4 0 17 -3q11 -3 19 -3q23 0 40 16q8 8 9 7l22 -12l11 -3q53 -59 53 -73q0 -16 -7 -32q-7 -14 -7 -16l2 -27q0 -1 -8 -12q-15 -21 -17 -92q-1 -14 -26 -180 q-10 -69 -10 -139q0 -69 15 -101q15 -30 29 -30q15 0 34 34q37 68 39 75q19 61 29 149q13 121 15 132q14 85 14 128q0 5 -2 12q-4 14 -4 15l1 24q-12 18 -12 27q0 18 10 33q14 23 23 22l24 -3q27 0 45 -5q27 -8 40 -8q3 0 37 4q7 1 12 1q15 0 14 -8l-2 -30q0 -5 23 -38 q5 -8 5 -15q0 -9 -16 -29q-3 -4 -5 -51q-2 -12 -19 -94q-17 -84 -17 -136l-7 -86q0 -37 23 -76t44 -39q18 0 29 10.5t47 64.5q45 48 48 48q4 0 7 -11l-1 -34v-43q-29 -72 -73 -101q-11 -8 -20 -17q-28 -28 -29.5 -29t-38.5 -19q-30 -16 -42 -16q-51 0 -85.5 36t-59.5 116z "/>
<glyph glyph-name="paragraph" horiz-adv-x="1133" unicode="" d="M369 522q-86 28 -130 54.5t-96 81.5t-74.5 112.5t-22.5 135.5q0 92 27 149q16 32 30 46.5t82 69.5q87 75 102.5 84.5t95.5 32.5q116 50 139.5 58t48.5 7l109 -6l131 15h3q15 0 93 -8.5t90 -10.5q41 -10 59.5 -29t26.5 -59q10 -48 27 -89q3 -7 3 -15q0 -28 -34 -28l-69 2 q-24 0 -36.5 -37t-63.5 -261q-49 -213 -75 -430t-26 -407q0 -77 11 -133q7 -32 7 -55q0 -18 -27 -18q-50 0 -84 34t-48 97q-14 62 -14 181q0 197 48 485q46 268 84 403q24 87 24 107q0 39 -53 39q-5 0 -59 -5q-28 -2 -36 -9.5t-15 -36.5q-4 -18 -18 -69 q-145 -565 -145 -1021q0 -81 12 -136q6 -31 6 -53q0 -16 -15 -16q-26 0 -74 29q-39 23 -48 39.5t-22 85.5q-12 62 -12 90l4 90l3 157l15 93q5 76 16 154z"/>
<glyph glyph-name="middot" horiz-adv-x="749" unicode="" d="M321 503q6 0 43 -5l53 9q20 0 56 -40.5t36 -60.5q0 -4 -10 -32q-3 -2 -7 -37q-3 -24 -8.5 -34.5t-29.5 -35.5q-43 -43 -76 -43q-14 0 -52 13q-38 11 -46 15t-17 18q-23 35 -23 81q0 54 41 122q11 19 18 24.5t22 5.5z"/>
<glyph glyph-name="cedilla" d="M546 -47q50 -5 67.5 -21t17.5 -57q0 -43 -19.5 -81t-54.5 -62q-39 -33 -53.5 -38t-84.5 -13q-37 -6 -41 -6q-45 0 -45 42q0 25 31 47l16 12q13 10 18 9l22 -3l21 5q42 11 47 15q19 15 19 47q0 16 -4 19t-28 7l-20 3q-21 -6 -24 -6q-9 0 -10.5 4.5t-3.5 29.5q0 1 1 4 q6 18 9 41q8 40 10 56q32 9 50 9h6l23 -2l26 2h2q13 0 13 -13q0 -19 -11 -50z" unicode=""/>
<glyph glyph-name="onesuperior" horiz-adv-x="500" unicode="" d="M323 608q5 -19 5 -37q0 -9 -12 -17t-20 -8h-4l-14 3q-31 1 -42 21q-8 16 -18 18q-22 4 -29 13t-7 32v16l1 10q0 2 -2 7q-10 37 -10 137q0 53 12 241q1 88 2 105v6q0 5 -10 12q-11 7 -11 17q0 7 5 19q7 16 16 66q11 45 18 45q4 0 9 -1q10 -2 16 -2q15 0 40 11q11 5 14 5 q15 0 40.5 -18.5t25.5 -30.5q0 -4 -10 -25q-3 -7 -5 -37q-17 -139 -17 -463q0 -32 1 -61q2 -30 2 -42q0 -10 -1 -23q-1 -6 -1 -9q0 -6 6 -10z"/>
<glyph glyph-name="ordmasculine" horiz-adv-x="594" unicode="" d="M362 786q16 34 16 77q0 37 -26 98q-13 -39 -13 -62q0 -79 23 -113zM333 696q-5 13 -5 21q0 6 -7 6q-15 2 -17 55q0 14 -18 67q-9 27 -9 53q0 16 6 31q5 14 5 23q0 17 -16 17q-17 0 -32.5 -76.5t-15.5 -166.5q0 -27 8 -58q7 -22 14.5 -29.5t23.5 -7.5q20 0 32.5 13 t30.5 52zM388 653q-4 -7 -9 -15q-28 -44 -59 -65q-43 -30 -59 -30h-2l-45 6l-20 -1q-34 0 -73 50q-34 43 -34 120q0 54 9.5 122.5t20.5 98.5q20 54 21 60q9 51 32 51h1l15 -1l14 1l12 -5l9 4l25 2l15 2q2 0 6 -2q6 -2 7 -2q5 0 19 11q11 9 23 9q28 0 53 -8.5t35 -21.5 q18 -21 31.5 -62t13.5 -72q0 -40 -21 -121q-9 -39 -13 -62q6 -7 8 -9q3 -6 4 -6l16 1l29 -7q5 0 20.5 14t31.5 32q6 8 10 8q11 0 11 -29q0 -40 -3 -47q-7 -18 -36 -33t-56 -15t-62 22z"/>
<glyph glyph-name="guillemotright" horiz-adv-x="818" unicode="" d="M241 816q13 0 19 -8l18 -37l42 -66l39 -66q104 -143 104 -175q0 -26 -64 -99q-155 -184 -188 -231q-7 -13 -31 -34q-21 -31 -29 -31q-5 0 -31 28q-11 11 -45 30q-7 5 -7 12q0 6 46 63l34 38l27 41q97 108 97 139q0 12 -43.5 87t-75.5 117q-52 68 -52 91q0 18 44 41 q17 8 40 27q42 33 55 33h1zM528 816q10 -1 15.5 -8t30.5 -48l36 -49q52 -94 88 -142q52 -69 52 -103q0 -16 -10.5 -31.5t-71.5 -95.5l-42 -50l-59 -74q-56 -62 -65 -80q-7 -12 -35 -37q-16 -29 -27 -29q-8 0 -32 26q-37 31 -43.5 37t-6.5 12q0 17 86 109q47 51 47 54 q6 9 11 17q11 13 25 39q32 40 32 54q0 32 -133 229q-40 58 -40 72q0 9 8 15.5t58 36.5q12 7 45 32q21 15 28 15q2 0 3 -1z"/>
<glyph glyph-name="onequarter" horiz-adv-x="1261" unicode="" d="M998 660q-2 -1 -8 -35q-11 -54 -62 -199q-27 -69 -27 -95q0 -31 -8 -33l-8 -9q0 -4 13 -4q8 0 41 2h29q19 0 19 10l-3 82q0 8 5 50q3 10 3 65v30q0 31 6 75l3 41q1 6 1 8q0 11 -4 12zM1124 582v-85q0 -10 -7 -89q-2 -26 -2 -50q0 -12 2 -18l7 -19l-8 -33l8 -2 q48 -4 46 -12q-6 -28 -6 -30t5 -14l6 -41q0 -26 -48 -26q-4 0 -10 -46l2 -38l-2 -12l8 -5q10 -5 10 -20q0 -11 -3 -14t-18 -7l-26 -14l-14 -2l-18 -4q-2 0 -37 25l-4 8l-26 -5q-2 0 -7.5 9t-4.5 12l5 25l2 42l3 37q-4 9 -9 9l-48 -2q-39 -1 -51 -3q-21 -5 -22 -5 q-63 10 -69 17q-12 16 -17 68q-1 8 -13 19q-10 8 -10 19q0 20 16 55q11 28 71 213q47 152 59 191q8 41 28 41q3 0 11 -2q23 -6 34 -3q25 7 44 7l19 1h20q30 0 35 -9l4 -7l11 2l12 -4q26 -3 26 -18q0 -6 -4 -17q-8 -19 -10 -144zM899 1398q14 2 25 2q20 0 26 -8q7 -11 7 -74 q0 -9 -38 -85l-78 -163l-32 -66q-93 -198 -150 -304q-52 -96 -73 -151q-11 -27 -46 -99q-47 -93 -121 -251.5t-80 -177.5q-9 -31 -19 -41t-31 -10q-74 0 -74 62q0 24 6.5 39t39.5 71q13 23 68 152q20 48 125 247q53 100 139 286q29 62 96 198l89 191q50 99 55 119 q8 34 19.5 45.5t46.5 17.5zM282 608q5 -19 5 -37q0 -9 -12 -17t-20 -8h-4l-14 3q-31 1 -42 21q-8 15 -18 18q-22 4 -29 13t-7 32v16l1 10q0 2 -2 7q-10 37 -10 137q0 53 12 241q1 88 2 105v6q0 5 -10 12q-11 7 -11 17q0 7 5 19q7 16 16 66q11 45 18 45q4 0 9 -1q10 -2 16 -2 q15 0 40 11q11 5 14 5q15 0 40.5 -18.5t25.5 -30.5q0 -4 -10 -25q-3 -7 -5 -37q-17 -139 -17 -463q0 -32 1 -61q2 -30 2 -42q0 -9 -1 -23q-1 -6 -1 -10q0 -5 6 -9z"/>
<glyph glyph-name="onehalf" horiz-adv-x="1261" unicode="" d="M1128 15l-37 -7l-27 3l-19 3q-23 4 -29 4q-13 0 -32 -3q-56 -10 -72 -10q-21 0 -46 6q-14 3 -19 4q-27 -2 -34 37q-1 24 -1 25t-14 12q-5 4 -5 14q0 15 15 29q21 21 80.5 130t101.5 204q52 119 52 185q0 17 -4.5 22.5t-29.5 19.5q-11 0 -41 -67q-11 -24 -12 -24 q-11 -24 -25 -66t-14 -53q0 -2 1 -6q4 -11 4 -12q-13 -20 -17 -23t-15 -3q-14 0 -25 -3q-19 -7 -23 -7q-11 0 -32.5 31.5t-21.5 47.5q0 4 12 43l23 70q21 78 24 86q11 22 11 24l4 21l24 12l20 -6q1 0 8 7q3 2 42.5 8t54.5 6q44 0 71 -14q100 -37 100 -136q0 -134 -77 -245 q-15 -24 -19 -42q-1 -7 -35 -60q-30 -47 -69 -118q-8 -14 -8 -19q0 -6 8 -6t19 2q18 3 113 7l27 1q23 0 22 -18l-1 -14l1 -16q0 -3 -4 -10q-2 -5 -2 -6q0 -4 9 -14q8 -8 8 -19q0 -30 -21 -36q-1 0 -24 -1zM913 1398q14 2 25 2q20 0 26 -8q7 -11 7 -74q0 -9 -38 -85l-78 -163 l-32 -66q-93 -198 -150 -304q-52 -96 -73 -151q-11 -27 -46 -99q-47 -93 -121 -251.5t-80 -177.5q-9 -31 -19 -41t-31 -10q-74 0 -74 62q0 24 6.5 39t39.5 71q13 23 68 152q20 48 125 247q53 100 139 286q29 62 96 198l89 191q50 99 55 119q8 34 19.5 45.5t46.5 17.5z M296 608q5 -19 5 -37q0 -9 -12 -17t-20 -8h-4l-14 3q-31 1 -42 21q-8 15 -18 18q-22 4 -29 13t-7 32v16l1 10q0 2 -2 7q-10 37 -10 137q0 53 12 241q1 88 2 105v6q0 5 -10 12q-11 7 -11 17q0 7 5 19q7 16 16 66q11 45 18 45q4 0 9 -1q10 -2 16 -2q15 0 40 11q11 5 14 5 q15 0 40.5 -18.5t25.5 -30.5q0 -4 -10 -25q-3 -7 -5 -37q-17 -139 -17 -463q0 -32 1 -61q2 -30 2 -42q0 -9 -1 -23q-1 -6 -1 -10q0 -5 6 -9z"/>
<glyph glyph-name="threequarters" horiz-adv-x="1261" unicode="" d="M1038 660q-2 -1 -8 -35q-11 -57 -62 -199q-27 -68 -27 -95q0 -30 -8 -33l-8 -9q0 -4 13 -4q8 0 41 2h29q19 0 19 10l-3 82q0 9 5 50q3 8 3 95q0 31 5 75l3 41q2 5 2 8q1 11 -4 12zM1164 582v-85q0 -15 -7 -89q-2 -26 -2 -50q0 -11 2 -18q7 -18 7 -19l-8 -33l8 -2 q43 -3 46 -12q0 -1 -6 -26v-4t5 -14l3 -24l3 -17q0 -26 -48 -26q-4 -1 -10 -46l2 -38l-2 -12q0 -1 8 -5q10 -5 10 -20q0 -11 -3 -14t-18 -7l-26 -14l-14 -2l-18 -4q-2 0 -37 25l-4 8l-26 -5q-2 0 -7.5 9t-4.5 12l5 25l2 42l3 37q-4 9 -9 9l-48 -2q-38 -1 -51 -3 q-21 -5 -22 -5q-47 8 -55.5 10t-12.5 7q-13 16 -18 68q-1 8 -13 19q-10 8 -10 19q0 20 16 55q11 28 71 213q38 125 59 191q8 41 28 41q3 0 10 -2q24 -6 35 -3q25 7 44 7l19 1h20q30 0 35 -9l4 -7l11 2l11 -4q27 -3 27 -18q0 -6 -4 -17q-8 -19 -10 -144zM967 1398q14 2 25 2 q20 0 26 -8q7 -11 7 -74q0 -9 -38 -85l-78 -163l-32 -66q-95 -201 -150 -304q-52 -97 -73 -151q-11 -27 -47 -99q-46 -93 -120 -251.5t-80 -177.5q-9 -31 -19 -41t-31 -10q-74 0 -74 62q0 24 6.5 39.5t39.5 70.5q13 23 68 152q20 47 125 247q50 94 139 286q28 61 96 198 q45 95 89 191q50 99 55 119q8 34 19.5 45.5t46.5 17.5zM144 828l31 -1q3 0 9 1q7 2 13 2q19 0 17 -10l-3 -16q8 -14 8 -20v-7q-2 -16 -2 -19q0 -12 9 -41.5t17 -43.5q3 -5 17 -16.5t17 -11.5q11 0 28 59q15 47 15 108q0 93 -19 93h-1l-64 -6q-5 -1 -22.5 15.5t-16.5 21.5 l6 23q0 22 8 22l18 -1q8 -1 23 8.5t22 19.5q31 51 31 157q0 59 -15 72q-13 10 -23 9q-9 -1 -35 -79q-26 -79 -26 -84v-4q4 -24 4 -29q-2 -17 -24 -17q-7 0 -15 2q-10 3 -13 3t-9 -2q-17 -6 -28 -6q-15 0 -30.5 17t-15.5 34q0 11 18 75l19 70q20 55 22 66q5 26 27 26 q5 0 19 -11l8 4q3 2 13 2q9 1 30 7q12 4 59 4q69 0 119.5 -45.5t50.5 -107.5q0 -10 -3 -22q-3 -11 -3 -15l1 -9q-27 -86 -35 -104t-31 -39q-6 -6 -5 -11q1 -4 20 -11q27 -10 49.5 -65.5t22.5 -109.5q0 -25 -23 -80q-17 -40 -23 -49.5t-22 -21.5q-20 -15 -36 -29 q-24 -17 -43 -24q-8 -3 -30 -18q-9 -5 -46 -6q-10 0 -14 -1q-29 -3 -30 -3q-12 1 -47 22q-10 6 -39 46l-23 32l-6 21q-18 61 -18 100q0 12 1.5 15t12.5 9q4 2 17 8l13 5q16 15 24 17z"/>
<glyph glyph-name="questiondown" horiz-adv-x="764" unicode="" d="M382 1305q19 0 62 -16q40 -10 47.5 -14t14.5 -18q13 -30 13 -91q0 -18 -4 -28.5t-28 -54.5q-19 -44 -24 -51t-14 -6l-28 5l-16 -3l-18 4q-28 -9 -33 -9q-30 0 -67 46q-35 42 -35 58q0 10 12 38q1 2 14 52q7 27 12.5 33.5t44.5 31.5q18 16 24.5 19t22.5 4zM385 914 q9 10 15 16q11 12 13 11l24 -13q30 -11 40 -22t10 -32q0 -13 -13 -63q0 -2 -2 -41q-4 -61 -23 -101t-138 -236q-63 -177 -63 -184q0 -30 17 -81q4 -23 23 -48t33 -25q12 0 24 5q16 5 19 5l34 -2q3 0 57 49q16 14 38.5 71t32.5 108q9 49 13 60q4 9 4 12q0 12 -19 22 q-14 7 -14 10q0 2 7 8q14 10 15 11.5t8 27.5q4 13 17.5 24t26.5 11q12 0 29 -10q25 -13 46 -13q51 -31 62 -46t11 -55q0 -87 -67 -279q-20 -60 -36 -77t-49 -17q-11 0 -36 15l-26 -12l-49 -13q-44 -18 -60.5 -21.5t-61.5 -3.5q-40 0 -64.5 8t-124.5 54q-47 21 -65.5 39.5 t-37.5 62.5q-23 52 -23 110q0 57 11.5 90t65.5 135l10 20q67 89 80.5 108.5t26.5 47.5q66 139 66 184q0 12 -2 27q-1 8 -1 13t11 19q5 4 5 24q-1 34 20 34q10 0 34 -22q14 -11 26 -25z"/>
<glyph glyph-name="Agrave" horiz-adv-x="962" unicode="" d="M473 1219q-6 0 -24 -70q-4 -20 -19 -148q-18 -83 -24 -120q-22 -146 -39 -213q-7 -27 -7 -51q0 -39 18 -40q2 0 12 5q20 10 45 10l90 -2q23 0 32.5 9.5t9.5 30.5q0 44 -3 89q-4 57 -4 58l7 137q-5 84 -5 112q0 34 1 73q1 20 1 35q0 62 -52 68q-17 3 -39 17zM720 1248h5 q11 -1 40 -25t29 -32q0 -2 -4 -11q-23 -54 -23 -331q0 -78 8 -141q11 -87 10 -105q0 -29 10 -43q10 -16 12 -16l19 3q5 1 9 -19q4 -18 13 -29q9 -12 9 -17q0 -4 -6 -13q-6 -8 -13 -22q-6 -12 -8.5 -14t-21.5 -6q-6 -1 -6 -16q0 -21 8 -49q4 -17 23 -116q14 -74 27.5 -104 t34.5 -33q12 -2 13.5 -3.5t3.5 -16.5l11 -24q0 -6 -9.5 -14.5t-15.5 -8.5q-19 0 -24 -2.5t-24 -17.5q-32 -26 -56 -26q-13 0 -43.5 9.5t-48.5 18.5l-19 -1q-17 0 -40 28q-22 26 -21 30l8 51q0 1 -5 17q-3 15 -28 195q-4 26 -7 30.5t-17 4.5q-15 0 -80 -8q-72 -9 -103 -9 q-15 0 -48 6q-9 2 -17 2q-35 0 -66 -106q-21 -73 -41.5 -115t-56.5 -84q-20 -29 -30.5 -37t-25.5 -8q-21 0 -59 19q-18 9 -24 9q-2 0 -19 -5q-8 -2 -16 -2q-39 0 -39 27q0 8 64 101q12 24 76 194q16 43 77.5 297.5t75.5 335.5q40 232 61 273q9 19 24 69q2 7 28 19.5t37 12.5 q5 0 24 -13q11 -8 22 -8q10 0 22 4q32 9 38 9q1 0 107 -22q21 -4 28.5 -9.5t29.5 -32.5q32 -25 58 -50zM599 1520q-54 0 -68.5 5t-32.5 31q-39 56 -74 115.5t-35 69.5q-1 5 5 12q5 6 9 6h1q49 -7 55 -7q13 0 24 1q15 1 17 1l46 -2l32 2q18 0 24.5 -14.5t28.5 -99.5 q13 -65 23 -93q2 -7 2 -10q0 -18 -23 -18q-4 0 -18 1h-16z"/>
<glyph glyph-name="Aacute" horiz-adv-x="962" unicode="" d="M473 1219q-6 0 -24 -70q-4 -20 -19 -148q-18 -83 -24 -120q-22 -146 -39 -213q-7 -27 -7 -51q0 -39 18 -40q2 0 12 5q20 10 45 10l90 -2q23 0 32.5 9.5t9.5 30.5q0 44 -3 89q-4 57 -4 58l7 137q-5 84 -5 112q0 34 1 73q1 20 1 35q0 62 -52 68q-17 3 -39 17zM720 1248h5 q11 -1 40 -25t29 -32q0 -2 -4 -11q-23 -54 -23 -331q0 -78 8 -141q11 -87 10 -105q0 -29 10 -43q10 -16 12 -16l19 3q5 1 9 -19q4 -18 13 -29q9 -12 9 -17q0 -4 -6 -13q-6 -8 -13 -22q-6 -12 -8.5 -14t-21.5 -6q-6 -1 -6 -16q0 -21 8 -49q4 -17 23 -116q14 -74 27.5 -104 t34.5 -33q12 -2 13.5 -3.5t3.5 -16.5l11 -24q0 -6 -9.5 -14.5t-15.5 -8.5q-19 0 -24 -2.5t-24 -17.5q-32 -26 -56 -26q-13 0 -43.5 9.5t-48.5 18.5l-19 -1q-17 0 -40 28q-22 26 -21 30l8 51q0 1 -5 17q-3 15 -28 195q-4 26 -7 30.5t-17 4.5q-15 0 -80 -8q-72 -9 -103 -9 q-15 0 -48 6q-9 2 -17 2q-35 0 -66 -106q-21 -73 -41.5 -115t-56.5 -84q-20 -29 -30.5 -37t-25.5 -8q-21 0 -59 19q-18 9 -24 9q-2 0 -19 -5q-8 -2 -16 -2q-39 0 -39 27q0 8 64 101q12 24 76 194q16 43 77.5 297.5t75.5 335.5q40 232 61 273q9 19 24 69q2 7 28 19.5t37 12.5 q5 0 24 -13q11 -8 22 -8q10 0 22 4q32 9 38 9q1 0 107 -22q21 -4 28.5 -9.5t29.5 -32.5q32 -25 58 -50zM548 1754l32 -2l45 2q3 0 18 -1q11 -1 24 -1q7 0 54 6q5 0 10.5 -6t5.5 -12q0 -13 -36 -69q-18 -30 -36 -59q-39 -63 -55.5 -77.5t-50.5 -14.5h-48q-12 -1 -19 -1 q-22 0 -22 18q0 4 2 10q10 29 23 93q23 91 27.5 101t25.5 13z"/>
<glyph glyph-name="Acircumflex" horiz-adv-x="962" unicode="" d="M473 1219q-6 0 -24 -70q-4 -20 -19 -148q-18 -83 -24 -120q-22 -146 -39 -213q-7 -27 -7 -51q0 -39 18 -40q2 0 12 5q20 10 45 10l90 -2q23 0 32.5 9.5t9.5 30.5q0 44 -3 89q-4 57 -4 58l7 137q-5 84 -5 112q0 34 1 73q1 20 1 35q0 62 -52 68q-17 3 -39 17zM720 1248h5 q11 -1 40 -25t29 -32q0 -2 -4 -11q-23 -54 -23 -331q0 -78 8 -141q11 -87 10 -105q0 -29 10 -43q10 -16 12 -16l19 3q5 1 9 -19q4 -18 13 -29q9 -12 9 -17q0 -4 -6 -13q-6 -8 -13 -22q-6 -12 -8.5 -14t-21.5 -6q-6 -1 -6 -16q0 -21 8 -49q4 -17 23 -116q14 -74 27.5 -104 t34.5 -33q12 -2 13.5 -3.5t3.5 -16.5l11 -24q0 -6 -9.5 -14.5t-15.5 -8.5q-19 0 -24 -2.5t-24 -17.5q-32 -26 -56 -26q-13 0 -43.5 9.5t-48.5 18.5l-19 -1q-17 0 -40 28q-22 26 -21 30l8 51q0 1 -5 17q-3 15 -28 195q-4 26 -7 30.5t-17 4.5q-15 0 -80 -8q-72 -9 -103 -9 q-15 0 -48 6q-9 2 -17 2q-35 0 -66 -106q-21 -73 -41.5 -115t-56.5 -84q-20 -29 -30.5 -37t-25.5 -8q-21 0 -59 19q-18 9 -24 9q-2 0 -19 -5q-8 -2 -16 -2q-39 0 -39 27q0 8 64 101q12 24 76 194q16 43 77.5 297.5t75.5 335.5q40 232 61 273q9 19 24 69q2 7 28 19.5t37 12.5 q5 0 24 -13q11 -8 22 -8q10 0 22 4q32 9 38 9q1 0 107 -22q21 -4 28.5 -9.5t29.5 -32.5q32 -25 58 -50zM495 1632q-11 0 -41 -51q-27 -44 -37 -55q-9 -10 -21 -10h-2l-45 5l-38 -1q-29 0 -29 21t48 79q29 34 48 59q35 47 50.5 58.5t41.5 11.5l57 -1h44t48.5 -12.5 t52.5 -64.5q47 -66 51 -63q39 -36 39 -55t-11 -26q-9 -6 -100 -7l-45 -1q-32 0 -46 8.5t-23 34.5t-23 48q-12 22 -19 22z"/>
<glyph glyph-name="Atilde" horiz-adv-x="962" unicode="" d="M473 1219q-6 0 -24 -70q-4 -20 -19 -148q-18 -83 -24 -120q-22 -146 -39 -213q-7 -27 -7 -51q0 -39 18 -40q2 0 12 5q20 10 45 10l90 -2q23 0 32.5 9.5t9.5 30.5q0 44 -3 89q-4 57 -4 58l7 137q-5 84 -5 112q0 34 1 73q1 20 1 35q0 62 -52 68q-17 3 -39 17zM720 1248h5 q11 -1 40 -25t29 -32q0 -2 -4 -11q-23 -54 -23 -331q0 -78 8 -141q11 -87 10 -105q0 -29 10 -43q10 -16 12 -16l19 3q5 1 9 -19q4 -18 13 -29q9 -12 9 -17q0 -4 -6 -13q-6 -8 -13 -22q-6 -12 -8.5 -14t-21.5 -6q-6 -1 -6 -16q0 -21 8 -49q4 -17 23 -116q14 -74 27.5 -104 t34.5 -33q12 -2 13.5 -3.5t3.5 -16.5l11 -24q0 -6 -9.5 -14.5t-15.5 -8.5q-19 0 -24 -2.5t-24 -17.5q-32 -26 -56 -26q-13 0 -43.5 9.5t-48.5 18.5l-19 -1q-17 0 -40 28q-22 26 -21 30l8 51q0 1 -5 17q-3 15 -28 195q-4 26 -7 30.5t-17 4.5q-15 0 -80 -8q-72 -9 -103 -9 q-15 0 -48 6q-9 2 -17 2q-35 0 -66 -106q-21 -73 -41.5 -115t-56.5 -84q-20 -29 -30.5 -37t-25.5 -8q-21 0 -59 19q-18 9 -24 9q-2 0 -19 -5q-8 -2 -16 -2q-39 0 -39 27q0 8 64 101q12 24 76 194q16 43 77.5 297.5t75.5 335.5q40 232 61 273q9 19 24 69q2 7 28 19.5t37 12.5 q5 0 24 -13q11 -8 22 -8q10 0 22 4q32 9 38 9q1 0 107 -22q21 -4 28.5 -9.5t29.5 -32.5q32 -25 58 -50zM414 1594q-9 0 -27 -11t-29 -23q-21 -23 -30 -23q-14 0 -28.5 17.5t-14.5 34.5q0 27 48 99q44 65 99 65q46 0 141 -40q66 -27 120 -27q19 0 26.5 5t35.5 33q8 9 17 9 q15 0 27 -10.5t12 -23.5q0 -37 -10.5 -62t-39.5 -58q-53 -61 -132 -61q-41 0 -60 6t-74 38q-67 30 -81 32z"/>
<glyph glyph-name="Adieresis" horiz-adv-x="962" unicode="" d="M353 1753q13 0 44.5 -7.5t46.5 -13.5q21 -10 25.5 -18t8.5 -42q9 -31 9 -38q0 -12 -30 -70q-12 -24 -26.5 -32.5t-43.5 -8.5q-34 0 -44.5 4t-38.5 27q-47 38 -47 68q0 35 26 85q22 44 70 46zM656 1753q54 0 96 -24q25 -14 32 -65q7 -29 7 -32q0 -11 -16 -37 q-5 -8 -17 -34q-10 -21 -27 -29.5t-51 -8.5q-24 0 -41 7q-28 12 -53 44t-25 57q0 20 12 50t27 47q21 24 56 25zM473 1219q-6 0 -24 -70q-4 -20 -19 -148q-18 -83 -24 -120q-22 -146 -39 -213q-7 -27 -7 -51q0 -39 18 -40q2 0 12 5q20 10 45 10l90 -2q23 0 32.5 9.5t9.5 30.5 q0 44 -3 89q-4 57 -4 58l7 137q-5 84 -5 112q0 34 1 73q1 20 1 35q0 62 -52 68q-17 3 -39 17zM720 1248h5q11 -1 40 -25t29 -32q0 -2 -4 -11q-23 -54 -23 -331q0 -78 8 -141q11 -87 10 -105q0 -29 10 -43q10 -16 12 -16l19 3q5 1 9 -19q4 -18 13 -29q9 -12 9 -17 q0 -4 -6 -13q-6 -8 -13 -22q-6 -12 -8.5 -14t-21.5 -6q-6 -1 -6 -16q0 -21 8 -49q4 -17 23 -116q14 -74 27.5 -104t34.5 -33q12 -2 13.5 -3.5t3.5 -16.5l11 -24q0 -6 -9.5 -14.5t-15.5 -8.5q-19 0 -24 -2.5t-24 -17.5q-32 -26 -56 -26q-13 0 -43.5 9.5t-48.5 18.5l-19 -1 q-17 0 -40 28q-22 26 -21 30l8 51q0 1 -5 17q-3 15 -28 195q-4 26 -7 30.5t-17 4.5q-15 0 -80 -8q-72 -9 -103 -9q-15 0 -48 6q-9 2 -17 2q-35 0 -66 -106q-21 -73 -41.5 -115t-56.5 -84q-20 -29 -30.5 -37t-25.5 -8q-21 0 -59 19q-18 9 -24 9q-2 0 -19 -5q-8 -2 -16 -2 q-39 0 -39 27q0 8 64 101q12 24 76 194q16 43 77.5 297.5t75.5 335.5q40 232 61 273q9 19 24 69q2 7 28 19.5t37 12.5q5 0 24 -13q11 -8 22 -8q10 0 22 4q32 9 38 9q1 0 107 -22q21 -4 28.5 -9.5t29.5 -32.5q32 -25 58 -50z"/>
<glyph glyph-name="Aring" horiz-adv-x="962" unicode="" d="M473 1219q-6 0 -24 -70q-4 -20 -19 -148q-18 -83 -24 -120q-22 -146 -39 -213q-7 -27 -7 -51q0 -39 18 -40q2 0 12 5q20 10 45 10l90 -2q23 0 32.5 9.5t9.5 30.5q0 44 -3 89q-4 57 -4 58l7 137q-5 84 -5 112q0 34 1 73q1 20 1 35q0 62 -52 68q-17 3 -39 17zM720 1248h5 q11 -1 40 -25t29 -32q0 -2 -4 -11q-23 -54 -23 -331q0 -78 8 -141q11 -87 10 -105q0 -29 10 -43q10 -16 12 -16l19 3q5 1 9 -19q4 -18 13 -29q9 -12 9 -17q0 -4 -6 -13q-6 -8 -13 -22q-6 -12 -8.5 -14t-21.5 -6q-6 -1 -6 -16q0 -21 8 -49q4 -17 23 -116q14 -74 27.5 -104 t34.5 -33q12 -2 13.5 -3.5t3.5 -16.5l11 -24q0 -6 -9.5 -14.5t-15.5 -8.5q-19 0 -24 -2.5t-24 -17.5q-32 -26 -56 -26q-13 0 -43.5 9.5t-48.5 18.5l-19 -1q-17 0 -40 28q-22 26 -21 30l8 51q0 1 -5 17q-3 15 -28 195q-4 26 -7 30.5t-17 4.5q-15 0 -80 -8q-72 -9 -103 -9 q-15 0 -48 6q-9 2 -17 2q-35 0 -66 -106q-21 -73 -41.5 -115t-56.5 -84q-20 -29 -30.5 -37t-25.5 -8q-21 0 -59 19q-18 9 -24 9q-2 0 -19 -5q-8 -2 -16 -2q-39 0 -39 27q0 8 64 101q12 24 76 194q16 43 77.5 297.5t75.5 335.5q40 232 61 273q9 19 24 69q2 7 28 19.5t37 12.5 q5 0 24 -13q11 -8 22 -8q10 0 22 4q32 9 38 9q1 0 107 -22q21 -4 28.5 -9.5t29.5 -32.5q32 -25 58 -50zM539 1717q-18 0 -32 -32.5t-14 -73.5q0 -62 30 -62q21 0 36.5 27.5t15.5 63.5q0 77 -35 77h-1zM494 1799h40l35 2q43 0 85 -54q36 -47 36 -92v-7q-2 -35 -15 -72.5 t-28 -53.5q-58 -59 -116 -59q-65 0 -107 43t-42 111t51 145q25 36 61 37z"/>
<glyph glyph-name="AE" horiz-adv-x="1345" unicode="" d="M573 1220q-11 2 -19 -48l-27 -87l-19 -115q-28 -101 -29 -106t-5 -63l-10 -32q3 -13 18 -13q10 0 26 5q73 14 122 14q12 0 22 -1q25 -2 31.5 9t5.5 53q0 29 3 113.5t6 118.5q1 9 1 11q0 59 -35 81q-1 1 -10 18t-18 21t-42 6q-2 0 -12 9q-6 6 -9 6zM946 238l13 -1l69 -4 l102 -11q4 0 103 14q12 2 19 2q12 0 15.5 -8t11.5 -52q7 -38 7 -42q0 -8 -14 -34q-4 -8 -4 -16q0 -5 12 -33q2 -4 2 -9q0 -12 -11.5 -24t-23.5 -12l-62 1q-5 0 -24 -3q-41 -7 -84 -7q-40 0 -156 19q-7 1 -17 1q-29 0 -90 -14q-20 -4 -28 -4q-19 0 -68 19q-17 7 -24 15 q-46 55 -46 66q0 9 3 19q11 33 11 51q0 11 -2 88q3 203 16 274q1 9 1 16q0 13 -15 13q-1 0 -114 -15q-41 -7 -50 -7q-26 0 -51 6q-11 3 -15 3q-18 0 -26 -10t-22 -50q-8 -25 -59 -165q-56 -153 -71.5 -187t-50.5 -74q-22 -25 -32 -31t-33 -6q-32 0 -46 7q-37 18 -40 18 q-1 0 -15 -4q-11 -4 -22 -4q-38 0 -38 26q0 18 27 49q49 56 71.5 101t66.5 177q118 356 173 567q87 335 105 376q5 11 27.5 22.5t38.5 11.5q14 0 24 -12q9 -11 16 -11t15 2q58 14 67 14q11 0 44 -10q60 -19 87 -19h5l120 9q100 4 157 14q29 5 33 5q112 0 179 -6 q55 -6 55 -31l-1 -37q0 -5 3 -18q5 -18 5 -30q0 -6 -2 -12q-4 -13 -4 -14q0 -5 8 -18q9 -14 9 -25q0 -17 -16.5 -41.5t-28.5 -24.5q-4 0 -13 8q-15 13 -22 15.5t-37 3.5q-54 3 -126 3q-18 0 -42 -10q-36 -16 -43 -16l-47 2q-8 0 -10.5 -12t-5.5 -73q-13 -169 -16 -192 q-4 -11 -4 -17q0 -9 8.5 -17t19.5 -8q13 0 34 4q38 8 118 15.5t121 7.5q56 0 56 -43q0 -23 -9 -56q-8 -27 -8 -48q0 -16 8 -35q12 -31 12 -44q0 -26 -34 -26q-8 0 -76 14q-15 3 -38 3q-37 0 -83 -10q-54 -12 -68 -12q-11 0 -27 2q-10 1 -18 1q-29 0 -29 -60l1 -70l-2 -104 l2 -71q-1 -8 -1 -12q-1 -17 11 -16z"/>
<glyph glyph-name="Ccedilla" horiz-adv-x="932" unicode="" d="M608 1223q-11 0 -32 16q-14 10 -36 10q-23 0 -33.5 -6t-43.5 -39q-21 -21 -34.5 -48t-55.5 -133q-29 -74 -36.5 -105t-25.5 -142q-15 -96 -15 -136q0 -23 15 -134q8 -78 12.5 -94.5t33.5 -77.5l13 -30l27 -19q48 -56 66 -67q44 -28 97 -28q68 0 141 60q87 73 113 118 q30 52 40 52q29 0 43 -16q25 -27 25 -38q0 -32 -38 -99t-85 -117q-54 -58 -108 -99q-10 -7 -55 -19q-58 -21 -81 -29q-12 -4 -16 -23q-3 -11 -8 -27q50 -5 67 -21t17 -57q0 -43 -19.5 -81t-53.5 -62q-40 -33 -54 -38t-84 -13q-37 -6 -41 -6q-45 0 -45 42q0 25 30 47l17 12 q13 10 17 9l23 -3l20 5q42 11 47 14q19 15 19 47q0 16 -4 19t-28 7l-19 3q-21 -5 -25 -5q-8 0 -10 4.5t-3 30.5l7 21l3 23q7 37 7 41q0 16 -36 21q-31 4 -91.5 56.5t-117.5 123.5q-108 136 -108 390q0 269 94 495q58 138 146 216t187 78q24 0 122 -17q63 -9 92.5 -20 t75.5 -44q33 -23 44 -37t11 -32q0 -23 -3 -52q-3 -35 -3 -43q0 -145 8 -188q2 -13 2 -20q0 -14 -16 -29q-28 -28 -47 -28q-2 0 -10 3q-34 -13 -46 -13t-51 29q-6 4 -28 4q-15 1 -18.5 4t-5.5 20q0 3 -3 19t-7 108l7 148q0 8 -9 39z"/>
<glyph glyph-name="Egrave" horiz-adv-x="837" unicode="" d="M407 1115q-8 -25 -8.5 -29t-4.5 -67q-10 -161 -17 -190q-4 -9 -4 -14q0 -23 30 -23q13 0 105 13q86 12 188 12q38 0 38 -51q0 -9 -14 -47q-4 -13 -4 -28q0 -23 13 -65q5 -16 5 -28q0 -30 -30 -30q-11 0 -75 19q-9 3 -22 3q-58 0 -122 -17q-33 -8 -40 -8l-61 3 q-8 0 -15.5 -23.5t-7.5 -50.5l1 -110q-1 -90 -1 -146q20 -2 96 -2q102 -13 129 -13q43 0 127 13q10 2 18 2q13 0 17 -9q1 -2 17 -100q0 -2 -8 -15q-11 -19 -11 -28q0 -6 15 -33q2 -5 2 -11q0 -13 -12.5 -22.5t-29.5 -9.5q-19 0 -33 1h-20q-12 0 -81 -12q-17 -3 -34 -3 q-20 0 -103 17q-134 14 -171 16q-69 2 -89 5t-31 14q-19 19 -19 82q0 98 9 322l7 175l8 92l2 105l8 127q-1 161 -4 166q-5 9 -21 9q-9 0 -29 -2q-14 -1 -31 -1q-29 0 -29 14q0 3 5 9q14 18 14 24t-14 28q-19 29 -19 57v5l2 38q0 33 5 43t22 10q9 0 23 -4q38 -12 88 -12 q21 0 140 6t130 8q104 16 111 16q2 0 31 -3q19 -1 51 -2q100 -1 114 -19q4 -7 4 -46q0 -2 5 -20q4 -14 4 -26t-4 -20q-7 -14 -7 -15t15 -24q6 -8 6 -20q0 -16 -4.5 -24t-22.5 -23l-18 -15q-3 0 -10 5q-22 17 -30 20t-36 3q-14 0 -81 3h-25q-21 0 -80 -17q-25 -6 -72 -7z M455 1520q-54 0 -68.5 5t-32.5 31q-39 56 -74 115.5t-35 69.5q-1 5 5 12q5 6 9 6h1q49 -7 55 -7q13 0 24 1q15 1 17 1l46 -2l32 2q18 0 24.5 -14.5t28.5 -99.5q13 -65 23 -93q2 -7 2 -10q0 -18 -23 -18q-4 0 -18 1h-16z"/>
<glyph glyph-name="Eacute" horiz-adv-x="837" unicode="" d="M407 1115q-8 -25 -8.5 -29t-4.5 -67q-10 -161 -17 -190q-4 -9 -4 -14q0 -23 30 -23q13 0 105 13q86 12 188 12q38 0 38 -51q0 -9 -14 -47q-4 -13 -4 -28q0 -23 13 -65q5 -16 5 -28q0 -30 -30 -30q-11 0 -75 19q-9 3 -22 3q-58 0 -122 -17q-33 -8 -40 -8l-61 3 q-8 0 -15.5 -23.5t-7.5 -50.5l1 -110q-1 -90 -1 -146q20 -2 96 -2q102 -13 129 -13q43 0 127 13q10 2 18 2q13 0 17 -9q1 -2 17 -100q0 -2 -8 -15q-11 -19 -11 -28q0 -6 15 -33q2 -5 2 -11q0 -13 -12.5 -22.5t-29.5 -9.5q-19 0 -33 1h-20q-12 0 -81 -12q-17 -3 -34 -3 q-20 0 -103 17q-134 14 -171 16q-69 2 -89 5t-31 14q-19 19 -19 82q0 98 9 322l7 175l8 92l2 105l8 127q-1 161 -4 166q-5 9 -21 9q-9 0 -29 -2q-14 -1 -31 -1q-29 0 -29 14q0 3 5 9q14 18 14 24t-14 28q-19 29 -19 57v5l2 38q0 33 5 43t22 10q9 0 23 -4q38 -12 88 -12 q21 0 140 6t130 8q104 16 111 16q2 0 31 -3q19 -1 51 -2q100 -1 114 -19q4 -7 4 -46q0 -2 5 -20q4 -14 4 -26t-4 -20q-7 -14 -7 -15t15 -24q6 -8 6 -20q0 -16 -4.5 -24t-22.5 -23l-18 -15q-3 0 -10 5q-22 17 -30 20t-36 3q-14 0 -81 3h-25q-21 0 -80 -17q-25 -6 -72 -7z M445 1754l32 -2l45 2q3 0 18 -1q11 -1 24 -1q7 0 54 6q5 0 10.5 -6t5.5 -12q0 -13 -36 -69q-18 -30 -36 -59q-39 -63 -55.5 -77.5t-50.5 -14.5h-48q-12 -1 -19 -1q-22 0 -22 18q0 4 2 10q10 29 23 93q23 91 27.5 101t25.5 13z"/>
<glyph glyph-name="Ecircumflex" horiz-adv-x="837" unicode="" d="M407 1115q-8 -25 -8.5 -29t-4.5 -67q-10 -161 -17 -190q-4 -9 -4 -14q0 -23 30 -23q13 0 105 13q86 12 188 12q38 0 38 -51q0 -9 -14 -47q-4 -13 -4 -28q0 -23 13 -65q5 -16 5 -28q0 -30 -30 -30q-11 0 -75 19q-9 3 -22 3q-58 0 -122 -17q-33 -8 -40 -8l-61 3 q-8 0 -15.5 -23.5t-7.5 -50.5l1 -110q-1 -90 -1 -146q20 -2 96 -2q102 -13 129 -13q43 0 127 13q10 2 18 2q13 0 17 -9q1 -2 17 -100q0 -2 -8 -15q-11 -19 -11 -28q0 -6 15 -33q2 -5 2 -11q0 -13 -12.5 -22.5t-29.5 -9.5q-19 0 -33 1h-20q-12 0 -81 -12q-17 -3 -34 -3 q-20 0 -103 17q-134 14 -171 16q-69 2 -89 5t-31 14q-19 19 -19 82q0 98 9 322l7 175l8 92l2 105l8 127q-1 161 -4 166q-5 9 -21 9q-9 0 -29 -2q-14 -1 -31 -1q-29 0 -29 14q0 3 5 9q14 18 14 24t-14 28q-19 29 -19 57v5l2 38q0 33 5 43t22 10q9 0 23 -4q38 -12 88 -12 q21 0 140 6t130 8q104 16 111 16q2 0 31 -3q19 -1 51 -2q100 -1 114 -19q4 -7 4 -46q0 -2 5 -20q4 -14 4 -26t-4 -20q-7 -14 -7 -15t15 -24q6 -8 6 -20q0 -16 -4.5 -24t-22.5 -23l-18 -15q-3 0 -10 5q-22 17 -30 20t-36 3q-14 0 -81 3h-25q-21 0 -80 -17q-25 -6 -72 -7z M447 1632q-11 0 -41 -51q-27 -44 -37 -55q-9 -10 -21 -10h-2l-45 5l-38 -1q-29 0 -29 21t48 79q29 34 48 59q35 47 50.5 58.5t41.5 11.5l57 -1h44t48.5 -12.5t52.5 -64.5q47 -66 51 -63q39 -36 39 -55t-11 -26q-9 -6 -100 -7l-45 -1q-32 0 -46 8.5t-23 34.5t-23 48 q-12 22 -19 22z"/>
<glyph glyph-name="Edieresis" horiz-adv-x="837" unicode="" d="M407 1115q-8 -25 -8.5 -29t-4.5 -67q-10 -161 -17 -190q-4 -9 -4 -14q0 -23 30 -23q13 0 105 13q86 12 188 12q38 0 38 -51q0 -9 -14 -47q-4 -13 -4 -28q0 -23 13 -65q5 -16 5 -28q0 -30 -30 -30q-11 0 -75 19q-9 3 -22 3q-58 0 -122 -17q-33 -8 -40 -8l-61 3 q-8 0 -15.5 -23.5t-7.5 -50.5l1 -110q-1 -90 -1 -146q20 -2 96 -2q102 -13 129 -13q43 0 127 13q10 2 18 2q13 0 17 -9q1 -2 17 -100q0 -2 -8 -15q-11 -19 -11 -28q0 -6 15 -33q2 -5 2 -11q0 -13 -12.5 -22.5t-29.5 -9.5q-19 0 -33 1h-20q-12 0 -81 -12q-17 -3 -34 -3 q-20 0 -103 17q-134 14 -171 16q-69 2 -89 5t-31 14q-19 19 -19 82q0 98 9 322l7 175l8 92l2 105l8 127q-1 161 -4 166q-5 9 -21 9q-9 0 -29 -2q-14 -1 -31 -1q-29 0 -29 14q0 3 5 9q14 18 14 24t-14 28q-19 29 -19 57v5l2 38q0 33 5 43t22 10q9 0 23 -4q38 -12 88 -12 q21 0 140 6t130 8q104 16 111 16q2 0 31 -3q19 -1 51 -2q100 -1 114 -19q4 -7 4 -46q0 -2 5 -20q4 -14 4 -26t-4 -20q-7 -14 -7 -15t15 -24q6 -8 6 -20q0 -16 -4.5 -24t-22.5 -23l-18 -15q-3 0 -10 5q-22 17 -30 20t-36 3q-14 0 -81 3h-25q-21 0 -80 -17q-25 -6 -72 -7z M277 1753q13 0 45 -7.5t46 -13.5q21 -10 25.5 -18t8.5 -42q9 -31 9 -38q0 -11 -30 -70q-12 -24 -26.5 -32.5t-43.5 -8.5q-34 0 -44.5 4t-38.5 27q-47 38 -47 68q0 35 26 85q22 44 70 46zM580 1753q53 0 96 -24q25 -14 32 -65q7 -29 7 -32q0 -11 -16 -37q-5 -8 -17 -34 q-10 -21 -27 -29.5t-51 -8.5q-24 0 -41 7q-29 12 -53.5 44t-24.5 57q0 20 12 50t27 47q21 24 56 25z"/>
<glyph glyph-name="Igrave" horiz-adv-x="547" unicode="" d="M261 1366q3 0 39 -9q71 -3 85 -7t33 -27q10 -13 11 -17.5t1 -33.5l3 -36q0 -6 -19 -46q-17 -26 -20 -125q-3 -101 -8 -142q-4 -31 -4 -37l2 -60q-13 -112 -16 -209q0 -25 -5 -112q-1 -26 -1 -39q0 -25 3 -46q6 -48 6 -55l-1 -43l6 -27l-2 -45q0 -3 21 -145l7 -32 q-1 -13 -30 -36l-13 -13l-28 -8l-47 -18q-2 0 -10 5q-17 9 -41 17l-20 13q-28 15 -47 36q-8 10 -16 16q-27 26 -27 43q0 11 8 24q10 16 10 18l-1 26q0 3 4 19q3 12 3 21q0 10 -1 30q-2 20 -2 79q0 29 2 115l3 121l8 79v124l11 90q0 88 9 170q7 51 7 86q0 62 -23 99 q-13 20 -13 27q0 30 4 40q6 17 48 44q40 26 60 26h1zM351 1520q-54 0 -68.5 5t-32.5 31q-39 56 -74 115.5t-35 69.5q-1 5 5 12q5 6 9 6h1q49 -7 55 -7q13 0 24 1q15 1 17 1l46 -2l32 2q18 0 24.5 -14.5t28.5 -99.5q13 -65 23 -93q2 -7 2 -10q0 -18 -23 -18q-4 0 -18 1h-16z "/>
<glyph glyph-name="Iacute" horiz-adv-x="547" unicode="" d="M261 1366q3 0 39 -9q71 -3 85 -7t33 -27q10 -13 11 -17.5t1 -33.5l3 -36q0 -6 -19 -46q-17 -26 -20 -125q-3 -101 -8 -142q-4 -31 -4 -37l2 -60q-13 -112 -16 -209q0 -25 -5 -112q-1 -26 -1 -39q0 -25 3 -46q6 -48 6 -55l-1 -43l6 -27l-2 -45q0 -3 21 -145l7 -32 q-1 -13 -30 -36l-13 -13l-28 -8l-47 -18q-2 0 -10 5q-17 9 -41 17l-20 13q-28 15 -47 36q-8 10 -16 16q-27 26 -27 43q0 11 8 24q10 16 10 18l-1 26q0 3 4 19q3 12 3 21q0 10 -1 30q-2 20 -2 79q0 29 2 115l3 121l8 79v124l11 90q0 88 9 170q7 51 7 86q0 62 -23 99 q-13 20 -13 27q0 30 4 40q6 17 48 44q40 26 60 26h1zM300 1754l32 -2l45 2q3 0 18 -1q11 -1 24 -1q7 0 54 6q5 0 10.5 -6t5.5 -12q0 -13 -36 -69q-18 -30 -36 -59q-39 -63 -55.5 -77.5t-50.5 -14.5h-48q-12 -1 -19 -1q-22 0 -22 18q0 4 2 10q10 29 23 93q23 91 27.5 101 t25.5 13z"/>
<glyph glyph-name="Icircumflex" horiz-adv-x="547" unicode="" d="M261 1366q3 0 39 -9q71 -3 85 -7t33 -27q10 -13 11 -17.5t1 -33.5l3 -36q0 -6 -19 -46q-17 -26 -20 -125q-3 -101 -8 -142q-4 -31 -4 -37l2 -60q-13 -112 -16 -209q0 -25 -5 -112q-1 -26 -1 -39q0 -25 3 -46q6 -48 6 -55l-1 -43l6 -27l-2 -45q0 -3 21 -145l7 -32 q-1 -13 -30 -36l-13 -13l-28 -8l-47 -18q-2 0 -10 5q-17 9 -41 17l-20 13q-28 15 -47 36q-8 10 -16 16q-27 26 -27 43q0 11 8 24q10 16 10 18l-1 26q0 3 4 19q3 12 3 21q0 10 -1 30q-2 20 -2 79q0 29 2 115l3 121l8 79v124l11 90q0 88 9 170q7 51 7 86q0 62 -23 99 q-13 20 -13 27q0 30 4 40q6 17 48 44q40 26 60 26h1zM261 1632q-11 0 -41 -51q-27 -44 -37 -55q-9 -10 -21 -10h-2l-45 5l-38 -1q-29 0 -29 21t48 79q29 34 48 59q35 47 50.5 58.5t41.5 11.5l57 -1h44t48.5 -12.5t52.5 -64.5q47 -66 51 -63q39 -36 39 -55t-11 -26 q-9 -6 -100 -7l-45 -1q-32 0 -46 8.5t-23 34.5t-23 48q-12 22 -19 22z"/>
<glyph glyph-name="Idieresis" horiz-adv-x="547" unicode="" d="M261 1366q3 0 39 -9q71 -3 85 -7t33 -27q10 -13 11 -17.5t1 -33.5l3 -36q0 -6 -19 -46q-17 -26 -20 -125q-3 -101 -8 -142q-4 -31 -4 -37l2 -60q-13 -112 -16 -209q0 -25 -5 -112q-1 -26 -1 -39q0 -25 3 -46q6 -48 6 -55l-1 -43l6 -27l-2 -45q0 -3 21 -145l7 -32 q-1 -13 -30 -36l-13 -13l-28 -8l-47 -18q-2 0 -10 5q-17 9 -41 17l-20 13q-28 15 -47 36q-8 10 -16 16q-27 26 -27 43q0 11 8 24q10 16 10 18l-1 26q0 3 4 19q3 12 3 21q0 10 -1 30q-2 20 -2 79q0 29 2 115l3 121l8 79v124l11 90q0 88 9 170q7 51 7 86q0 62 -23 99 q-13 20 -13 27q0 30 4 40q6 17 48 44q40 26 60 26h1zM113 1743q15 0 46 -7t45 -14q21 -10 25.5 -17.5t8.5 -41.5q9 -31 9 -38q0 -12 -30 -69q-12 -24 -26.5 -32.5t-43.5 -8.5q-34 0 -45.5 4.5t-35.5 26.5q-47 42 -47 68q0 32 26 84q21 43 68 45zM401 1741q53 0 95 -24 q25 -14 32 -63q6 -29 6 -33q0 -10 -16 -36q-5 -8 -17 -33q-10 -22 -26.5 -30t-50.5 -8q-24 0 -40 7q-28 11 -52.5 43t-24.5 57q0 20 12 49.5t27 46.5q20 23 55 24z"/>
<glyph glyph-name="Eth" horiz-adv-x="1060" unicode="" d="M372 1131q12 -16 35 -24l10 -14q28 -30 28 -35t-10 -18q-17 -21 -24 -53t-13 -122q19 -3 32 -3h21q45 2 50 2q41 0 41 -31q0 -10 -4 -25q-5 -26 -8 -108q-2 -52 -29 -52q-7 0 -20 2q-22 1 -93 2q-2 -59 -8 -206q-2 -39 -2 -129q0 -73 3 -131q12 -8 16 -11q31 -23 40 -23 q62 0 150 95t133 211q21 54 46 165t23 140l-9 105q0 58 -1 70t-6 28q-34 111 -60 146q-22 28 -61 47t-77 19q-94 0 -203 -47zM377 56q-8 -20 -10 -27q-17 -47 -51 -47q-11 0 -42 17l-30 4l-21 12q-22 10 -26.5 13t-8.5 14q-18 44 -23 68.5t-5 66.5l7 211q3 197 9 261 q-32 1 -39 1q-12 0 -19 -2q-14 -3 -16 -3q-24 0 -24 29l2 18l6 64l8 42l-1 30q0 18 17 25.5t61 7.5q7 0 21 -1q-1 32 -1 48q0 24 10 103q1 5 1 13q0 16 -7.5 30t-15.5 14q-5 0 -19 -11q-10 -10 -45 -25t-54.5 -31t-38.5 -46q-10 -17 -16 -17q-14 0 -38 40q-15 24 -15 48 q0 12 2 25q2 17 2 31q0 15 -16 21q-22 8 -22 32q0 14 26 27q12 7 62 36q277 163 502 163q132 0 226.5 -48.5t163.5 -152.5q112 -169 112 -404q0 -123 -41.5 -265t-112.5 -264q-42 -72 -153 -153q-30 -22 -40 -27t-41 -14q-41 -18 -54 -18q-8 0 -24 8q-37 -17 -57 -17 q-19 0 -59 23q-26 16 -52 27z"/>
<glyph glyph-name="Ntilde" horiz-adv-x="1040" unicode="" d="M717 1061q-30 -41 -46.5 -77.5t-129.5 -320.5q-108 -301 -179 -594q-15 -59 -22.5 -71t-33.5 -14l-28 -3l-25 5l-25 -8q-5 0 -24 24t-24 37q-13 32 -15 34.5t-26 12.5q-12 5 -12 33l4 77l6 105l11 191q10 262 12.5 295t18.5 132q5 28 5 48q0 11 -8 31q-9 -6 -14 -6 q-15 0 -16 25q-24 20 -24 37q0 11 8 30q12 29 14 38.5t6 64.5q1 13 17 46q22 48 22 66q3 20 6.5 23.5t21.5 4.5q4 -3 40 14q27 12 51 12q13 0 25 -8q28 -19 29 -19q28 6 32 6q10 0 14 -3t19 -21q17 -19 19.5 -25.5t2.5 -24.5q0 -26 -23 -107q-33 -115 -51 -273t-37 -490 q28 74 119 352q117 285 166 378q67 127 75 150q28 71 48 93.5t56 22.5q23 0 32.5 -3.5t42.5 -24.5q37 -13 46.5 -17.5t26.5 -18.5q5 -5 7 -11t8 -37q9 -50 9 -53q0 -14 -13 -14q-6 0 -13 1q-13 -30 -18.5 -52t-26.5 -123q-53 -251 -62 -313t-9 -169q0 -257 68 -257 q28 0 55 29q23 24 30 24q12 0 12 -15q0 -5 -2 -10l-5 -16l1 -17q-11 -24 -11 -31q0 -14 6 -20t25 -11q9 -3 9 -14q0 -13 -7.5 -22t-50.5 -51q-22 -20 -29.5 -24.5t-32.5 -9.5q-2 -1 -34 -23q-29 -20 -71 -20q-84 0 -127.5 92t-43.5 271q0 124 12.5 214t56.5 294 q16 73 24 129zM453 1594q-9 0 -27 -11t-29 -23q-21 -23 -30 -23q-14 0 -28.5 17.5t-14.5 34.5q0 27 48 99q44 65 99 65q46 0 141 -40q66 -27 120 -27q19 0 26.5 5t35.5 33q8 9 17 9q15 0 27 -10.5t12 -23.5q0 -37 -10.5 -62t-39.5 -58q-53 -61 -132 -61q-41 0 -60 6t-74 38 q-67 30 -81 32z"/>
<glyph glyph-name="Ograve" horiz-adv-x="974" unicode="" d="M582 1222h-6l-18 -2q-52 -1 -57.5 -2.5t-22.5 -19.5q-73 -79 -98 -238q-2 -11 -3.5 -13t-17.5 -7q-4 -2 -21 -90q-30 -159 -30 -306q0 -115 14 -212q4 -25 20.5 -74.5t29.5 -76.5q12 -23 28 -21l29 4q38 0 44 2.5t29 24.5q46 12 60 31q27 36 59.5 109t50.5 137 q30 108 30 285q0 157 -29 294q-11 47 -19 65.5t-46 83.5q-13 23 -14.5 24.5t-11.5 1.5zM245 1292q5 0 25 -11q7 -4 8 -4l30 7l13 -2q3 0 11 14q9 17 33 28t58 16q85 30 116 30q88 0 170 -55t123 -139q32 -68 52.5 -181.5t20.5 -222.5q0 -241 -51 -402q-16 -49 -41 -99.5 t-41 -66.5q-19 -17 -19.5 -18t-25.5 -42q-32 -21 -34.5 -23t-25.5 -34q-13 -18 -20.5 -23t-68.5 -37q-62 -33 -86 -33q-52 0 -129 29t-127 68q-19 14 -54 57.5t-44 64.5q-16 35 -40.5 137t-22.5 128l9 150v24q0 166 62 430q14 58 14 69l-2 64q0 12 19 40q9 21 11 22t57 15z M564 1520q-54 0 -68.5 5t-32.5 31q-39 56 -74 115.5t-35 69.5q-1 5 5 12q5 6 9 6h1q49 -7 55 -7q13 0 24 1q15 1 17 1l46 -2l32 2q18 0 24.5 -14.5t28.5 -99.5q13 -65 23 -93q2 -7 2 -10q0 -18 -23 -18q-4 0 -18 1h-16z"/>
<glyph glyph-name="Oacute" horiz-adv-x="974" unicode="" d="M582 1222h-6l-18 -2q-52 -1 -57.5 -2.5t-22.5 -19.5q-73 -79 -98 -238q-2 -11 -3.5 -13t-17.5 -7q-4 -2 -21 -90q-30 -159 -30 -306q0 -115 14 -212q4 -25 20.5 -74.5t29.5 -76.5q12 -23 28 -21l29 4q38 0 44 2.5t29 24.5q46 12 60 31q27 36 59.5 109t50.5 137 q30 108 30 285q0 157 -29 294q-11 47 -19 65.5t-46 83.5q-13 23 -14.5 24.5t-11.5 1.5zM245 1292q5 0 25 -11q7 -4 8 -4l30 7l13 -2q3 0 11 14q9 17 33 28t58 16q85 30 116 30q88 0 170 -55t123 -139q32 -68 52.5 -181.5t20.5 -222.5q0 -241 -51 -402q-16 -49 -41 -99.5 t-41 -66.5q-19 -17 -19.5 -18t-25.5 -42q-32 -21 -34.5 -23t-25.5 -34q-13 -18 -20.5 -23t-68.5 -37q-62 -33 -86 -33q-52 0 -129 29t-127 68q-19 14 -54 57.5t-44 64.5q-16 35 -40.5 137t-22.5 128l9 150v24q0 166 62 430q14 58 14 69l-2 64q0 12 19 40q9 21 11 22t57 15z M486 1754l32 -2l45 2q3 0 18 -1q11 -1 24 -1q7 0 54 6q5 0 10.5 -6t5.5 -12q0 -13 -36 -69q-18 -30 -36 -59q-39 -63 -55.5 -77.5t-50.5 -14.5h-48q-12 -1 -19 -1q-22 0 -22 18q0 4 2 10q10 29 23 93q23 91 27.5 101t25.5 13z"/>
<glyph glyph-name="Ocircumflex" horiz-adv-x="974" unicode="" d="M582 1222h-6l-18 -2q-52 -1 -57.5 -2.5t-22.5 -19.5q-73 -79 -98 -238q-2 -11 -3.5 -13t-17.5 -7q-4 -2 -21 -90q-30 -159 -30 -306q0 -115 14 -212q4 -25 20.5 -74.5t29.5 -76.5q12 -23 28 -21l29 4q38 0 44 2.5t29 24.5q46 12 60 31q27 36 59.5 109t50.5 137 q30 108 30 285q0 157 -29 294q-11 47 -19 65.5t-46 83.5q-13 23 -14.5 24.5t-11.5 1.5zM245 1292q5 0 25 -11q7 -4 8 -4l30 7l13 -2q3 0 11 14q9 17 33 28t58 16q85 30 116 30q88 0 170 -55t123 -139q32 -68 52.5 -181.5t20.5 -222.5q0 -241 -51 -402q-16 -49 -41 -99.5 t-41 -66.5q-19 -17 -19.5 -18t-25.5 -42q-32 -21 -34.5 -23t-25.5 -34q-13 -18 -20.5 -23t-68.5 -37q-62 -33 -86 -33q-52 0 -129 29t-127 68q-19 14 -54 57.5t-44 64.5q-16 35 -40.5 137t-22.5 128l9 150v24q0 166 62 430q14 58 14 69l-2 64q0 12 19 40q9 21 11 22t57 15z M488 1632q-11 0 -41 -51q-27 -44 -37 -55q-9 -10 -21 -10h-2l-45 5l-38 -1q-29 0 -29 21t48 79q29 34 48 59q35 47 50.5 58.5t41.5 11.5l57 -1h44t48.5 -12.5t52.5 -64.5q47 -66 51 -63q39 -36 39 -55t-11 -26q-9 -6 -100 -7l-45 -1q-32 0 -46 8.5t-23 34.5t-23 48 q-12 22 -19 22z"/>
<glyph glyph-name="Otilde" horiz-adv-x="974" unicode="" d="M582 1222h-6l-18 -2q-52 -1 -57.5 -2.5t-22.5 -19.5q-73 -79 -98 -238q-2 -11 -3.5 -13t-17.5 -7q-4 -2 -21 -90q-30 -159 -30 -306q0 -115 14 -212q4 -25 20.5 -74.5t29.5 -76.5q12 -23 28 -21l29 4q38 0 44 2.5t29 24.5q46 12 60 31q27 36 59.5 109t50.5 137 q30 108 30 285q0 157 -29 294q-11 47 -19 65.5t-46 83.5q-13 23 -14.5 24.5t-11.5 1.5zM245 1292q5 0 25 -11q7 -4 8 -4l30 7l13 -2q3 0 11 14q9 17 33 28t58 16q85 30 116 30q88 0 170 -55t123 -139q32 -68 52.5 -181.5t20.5 -222.5q0 -241 -51 -402q-16 -49 -41 -99.5 t-41 -66.5q-19 -17 -19.5 -18t-25.5 -42q-32 -21 -34.5 -23t-25.5 -34q-13 -18 -20.5 -23t-68.5 -37q-62 -33 -86 -33q-52 0 -129 29t-127 68q-19 14 -54 57.5t-44 64.5q-16 35 -40.5 137t-22.5 128l9 150v24q0 166 62 430q14 58 14 69l-2 64q0 12 19 40q9 21 11 22t57 15z M352 1594q-9 0 -27 -11t-29 -23q-21 -23 -30 -23q-14 0 -28.5 17.5t-14.5 34.5q0 27 48 99q44 65 99 65q46 0 141 -40q66 -27 120 -27q19 0 26.5 5t35.5 33q8 9 17 9q15 0 27 -10.5t12 -23.5q0 -37 -10.5 -62t-39.5 -58q-53 -61 -132 -61q-41 0 -60 6t-74 38q-67 30 -81 32z "/>
<glyph glyph-name="Odieresis" horiz-adv-x="974" unicode="" d="M582 1222h-6l-18 -2q-52 -1 -57.5 -2.5t-22.5 -19.5q-73 -79 -98 -238q-2 -11 -3.5 -13t-17.5 -7q-4 -2 -21 -90q-30 -159 -30 -306q0 -115 14 -212q4 -25 20.5 -74.5t29.5 -76.5q12 -23 28 -21l29 4q38 0 44 2.5t29 24.5q46 12 60 31q27 36 59.5 109t50.5 137 q30 108 30 285q0 157 -29 294q-11 47 -19 65.5t-46 83.5q-13 23 -14.5 24.5t-11.5 1.5zM245 1292q5 0 25 -11q7 -4 8 -4l30 7l13 -2q3 0 11 14q9 17 33 28t58 16q85 30 116 30q88 0 170 -55t123 -139q32 -68 52.5 -181.5t20.5 -222.5q0 -241 -51 -402q-16 -49 -41 -99.5 t-41 -66.5q-19 -17 -19.5 -18t-25.5 -42q-32 -21 -34.5 -23t-25.5 -34q-13 -18 -20.5 -23t-68.5 -37q-62 -33 -86 -33q-52 0 -129 29t-127 68q-19 14 -54 57.5t-44 64.5q-16 35 -40.5 137t-22.5 128l9 150v24q0 166 62 430q14 58 14 69l-2 64q0 12 19 40q9 21 11 22t57 15z M317 1753q13 0 45 -7.5t46 -13.5q21 -10 25.5 -18t8.5 -42q9 -31 9 -38q0 -11 -30 -70q-12 -24 -26.5 -32.5t-43.5 -8.5q-34 0 -44.5 4t-38.5 27q-47 38 -47 68q0 35 26 85q22 44 70 46zM620 1753q53 0 96 -24q25 -14 32 -65q7 -29 7 -32q0 -11 -16 -37q-5 -8 -17 -34 q-10 -21 -27 -29.5t-51 -8.5q-24 0 -41 7q-29 12 -53.5 44t-24.5 57q0 20 12 50t27 47q21 24 56 25z"/>
<glyph glyph-name="multiply" horiz-adv-x="792" unicode="" d="M397 537l-36 -36q-117 -119 -137 -142q-38 -43 -53 -43q-11 0 -45 34l-15 12q-45 43 -45 49q0 13 39 47l33 33q55 57 132 132l19 19l-17 17l-17 17q-117 115 -142 138q-43 38 -43 53q0 11 35 45l12 15l17 18q24 27 31 27q13 0 48 -39q4 -5 33 -33q64 -62 151 -152 q13 13 37 36q74 74 101 103q16 18 35 35q8 7 23 30q14 20 27 20q7 0 32 -22l19 -15l23 -29q22 -20 26 -25t4 -11q0 -15 -70 -79q-46 -37 -105 -99q-19 -20 -48 -50q7 -6 37 -38q63 -65 74 -75q45 -42 64 -62q7 -7 30 -23q20 -14 20 -25q0 -9 -22 -34l-16 -19l-28 -22 q-27 -31 -36 -31q-15 0 -79 71q-38 47 -99 104z"/>
<glyph glyph-name="Oslash" horiz-adv-x="969" unicode="" d="M301 516q10 17 28 51q0 2 23 33q25 33 60 97q9 16 23 38q48 76 82 137l134 214q-29 70 -37 83q-33 54 -34 54l-28 -3q-1 0 -12 3q-6 1 -13 1q-27 0 -44.5 -12t-41.5 -48q-35 -52 -60 -143q-12 -42 -12 -43l2 -26q0 -3 -23 -16q-6 -6 -15 -65q-27 -154 -29.5 -181.5 t-2.5 -111.5v-62zM313 339q4 -30 37 -119q14 -39 21 -48.5t20 -9.5q3 0 18 2h24q21 0 29 3t24 17q14 11 45 18q19 4 59 80.5t61 146.5q16 52 30.5 165.5t14.5 181.5q0 23 -9 74q0 52 -9 85l-42 -71l-78 -125l-68 -114l-26 -40q-12 -24 -30 -52zM824 1169q30 -80 52 -187.5 t22 -177.5q0 -184 -35 -359q-15 -74 -46.5 -147t-60.5 -99q-14 -13 -15 -15t-17 -32q-1 -3 -24 -19q-16 -12 -59 -67q-5 -6 -91 -50q-43 -21 -74 -21q-77 0 -196 61q-55 29 -94 78l-27 -40q-27 -40 -31 -82q-3 -23 -9 -30t-24 -7q-23 0 -36 10t-29 41q-15 22 -15 28 q0 10 53 90l56 81q-13 45 -35 160.5t-21 134.5l7 116l-4 38l11 72q12 146 17.5 181t27.5 120q21 80 21 111q0 11 -1 25q-1 17 -1 29q0 13 2.5 18t17.5 24l7 18l24 9l26 11q1 0 9 -4q19 -11 41 -11q4 0 17 6l19 -4q3 0 7 10q11 23 25.5 31t63.5 19q71 23 86.5 27t37.5 4 q125 0 233 -106q24 42 30 64q9 34 19.5 44t37.5 10q24 0 41.5 -16t17.5 -39q0 -20 -6 -32.5t-44 -67.5q-25 -44 -34 -58z"/>
<glyph glyph-name="Ugrave" horiz-adv-x="1083" unicode="" d="M680 329q-7 -22 -10 -34q-9 -30 -10.5 -33.5t-29.5 -42.5q-71 -116 -83 -129.5t-68 -46.5q-48 -41 -77 -41q-39 0 -92.5 27.5t-87.5 65.5q-93 103 -93 386q0 72 26 334q14 168 14 172q0 10 -12.5 38.5t-23.5 42.5q-10 13 -10 19q0 1 3 8q9 20 9 50q1 17 18 64 q12 26 14 82q2 76 40 76q4 0 30 -12q5 -2 15 -2q9 0 19 2q57 8 73 8q35 0 61.5 -25t26.5 -58q0 -13 -3 -21q-3 -9 -3 -11q0 -4 8 -17q6 -10 6 -20q0 -9 -21 -30q-2 -2 -4 -18q-1 -9 -8 -41q-12 -56 -31.5 -311t-19.5 -359q0 -106 34 -153q37 -51 81 -51q13 0 33 22q1 1 14 4 q30 8 58.5 54t41.5 109q32 145 63.5 380.5t31.5 326.5q0 50 -8 80q-1 6 -1 7t15 48q8 18 8 26q0 3 -1 6q-2 14 -2 16q1 6 11.5 14.5t17.5 8.5q10 0 27 -10q53 -32 81 -32q5 0 33 5q12 2 22 2q19 0 38 -19t18 -36l-4 -46l5 -40q0 -3 -7 -22q-4 -12 -27 -106 q-29 -110 -34 -240q-4 -116 -13 -153q-5 -18 -5 -19l3 -66q-12 -73 -12 -88q0 -101 22 -162t58 -61q10 0 21 7q12 7 20 7q9 0 9 -8q0 -4 -5 -15q-3 -5 -3 -10q0 -9 25 -40l2 -18q1 -12 1 -17q1 -7 1 -8q0 -10 -30.5 -32.5t-64.5 -35.5q-11 -8 -17 -12q-28 -19 -58 -19 q-43 0 -82.5 31.5t-59.5 82.5q-6 14 -37 159zM619 1520q-54 0 -68.5 5t-32.5 31q-39 56 -74 115.5t-35 69.5q-1 5 5 12q5 6 9 6h1q49 -7 55 -7q13 0 24 1q15 1 17 1l46 -2l32 2q18 0 24.5 -14.5t28.5 -99.5q13 -65 23 -93q2 -7 2 -10q0 -18 -23 -18q-4 0 -18 1h-16z"/>
<glyph glyph-name="Uacute" horiz-adv-x="1083" unicode="" d="M680 329q-7 -22 -10 -34q-9 -30 -10.5 -33.5t-29.5 -42.5q-71 -116 -83 -129.5t-68 -46.5q-48 -41 -77 -41q-39 0 -92.5 27.5t-87.5 65.5q-93 103 -93 386q0 72 26 334q14 168 14 172q0 10 -12.5 38.5t-23.5 42.5q-10 13 -10 19q0 1 3 8q9 20 9 50q1 17 18 64 q12 26 14 82q2 76 40 76q4 0 30 -12q5 -2 15 -2q9 0 19 2q57 8 73 8q35 0 61.5 -25t26.5 -58q0 -13 -3 -21q-3 -9 -3 -11q0 -4 8 -17q6 -10 6 -20q0 -9 -21 -30q-2 -2 -4 -18q-1 -9 -8 -41q-12 -56 -31.5 -311t-19.5 -359q0 -106 34 -153q37 -51 81 -51q13 0 33 22q1 1 14 4 q30 8 58.5 54t41.5 109q32 145 63.5 380.5t31.5 326.5q0 50 -8 80q-1 6 -1 7t15 48q8 18 8 26q0 3 -1 6q-2 14 -2 16q1 6 11.5 14.5t17.5 8.5q10 0 27 -10q53 -32 81 -32q5 0 33 5q12 2 22 2q19 0 38 -19t18 -36l-4 -46l5 -40q0 -3 -7 -22q-4 -12 -27 -106 q-29 -110 -34 -240q-4 -116 -13 -153q-5 -18 -5 -19l3 -66q-12 -73 -12 -88q0 -101 22 -162t58 -61q10 0 21 7q12 7 20 7q9 0 9 -8q0 -4 -5 -15q-3 -5 -3 -10q0 -9 25 -40l2 -18q1 -12 1 -17q1 -7 1 -8q0 -10 -30.5 -32.5t-64.5 -35.5q-11 -8 -17 -12q-28 -19 -58 -19 q-43 0 -82.5 31.5t-59.5 82.5q-6 14 -37 159zM568 1754l32 -2l45 2q3 0 18 -1q11 -1 24 -1q7 0 54 6q5 0 10.5 -6t5.5 -12q0 -13 -36 -69q-18 -30 -36 -59q-39 -63 -55.5 -77.5t-50.5 -14.5h-48q-12 -1 -19 -1q-22 0 -22 18q0 4 2 10q10 29 23 93q23 91 27.5 101t25.5 13z "/>
<glyph glyph-name="Ucircumflex" horiz-adv-x="1083" unicode="" d="M680 329q-7 -22 -10 -34q-9 -30 -10.5 -33.5t-29.5 -42.5q-71 -116 -83 -129.5t-68 -46.5q-48 -41 -77 -41q-39 0 -92.5 27.5t-87.5 65.5q-93 103 -93 386q0 72 26 334q14 168 14 172q0 10 -12.5 38.5t-23.5 42.5q-10 13 -10 19q0 1 3 8q9 20 9 50q1 17 18 64 q12 26 14 82q2 76 40 76q4 0 30 -12q5 -2 15 -2q9 0 19 2q57 8 73 8q35 0 61.5 -25t26.5 -58q0 -13 -3 -21q-3 -9 -3 -11q0 -4 8 -17q6 -10 6 -20q0 -9 -21 -30q-2 -2 -4 -18q-1 -9 -8 -41q-12 -56 -31.5 -311t-19.5 -359q0 -106 34 -153q37 -51 81 -51q13 0 33 22q1 1 14 4 q30 8 58.5 54t41.5 109q32 145 63.5 380.5t31.5 326.5q0 50 -8 80q-1 6 -1 7t15 48q8 18 8 26q0 3 -1 6q-2 14 -2 16q1 6 11.5 14.5t17.5 8.5q10 0 27 -10q53 -32 81 -32q5 0 33 5q12 2 22 2q19 0 38 -19t18 -36l-4 -46l5 -40q0 -3 -7 -22q-4 -12 -27 -106 q-29 -110 -34 -240q-4 -116 -13 -153q-5 -18 -5 -19l3 -66q-12 -73 -12 -88q0 -101 22 -162t58 -61q10 0 21 7q12 7 20 7q9 0 9 -8q0 -4 -5 -15q-3 -5 -3 -10q0 -9 25 -40l2 -18q1 -12 1 -17q1 -7 1 -8q0 -10 -30.5 -32.5t-64.5 -35.5q-11 -8 -17 -12q-28 -19 -58 -19 q-43 0 -82.5 31.5t-59.5 82.5q-6 14 -37 159zM543 1632q-11 0 -41 -51q-27 -44 -37 -55q-9 -10 -21 -10h-2l-45 5l-38 -1q-29 0 -29 21t48 79q29 34 48 59q35 47 50.5 58.5t41.5 11.5l57 -1h44t48.5 -12.5t52.5 -64.5q47 -66 51 -63q39 -36 39 -55t-11 -26q-9 -6 -100 -7 l-45 -1q-32 0 -46 8.5t-23 34.5t-23 48q-12 22 -19 22z"/>
<glyph glyph-name="Udieresis" horiz-adv-x="1083" unicode="" d="M680 329q-7 -22 -10 -34q-9 -30 -10.5 -33.5t-29.5 -42.5q-71 -116 -83 -129.5t-68 -46.5q-48 -41 -77 -41q-39 0 -92.5 27.5t-87.5 65.5q-93 103 -93 386q0 72 26 334q14 168 14 172q0 10 -12.5 38.5t-23.5 42.5q-10 13 -10 19q0 1 3 8q9 20 9 50q1 17 18 64 q12 26 14 82q2 76 40 76q4 0 30 -12q5 -2 15 -2q9 0 19 2q57 8 73 8q35 0 61.5 -25t26.5 -58q0 -13 -3 -21q-3 -9 -3 -11q0 -4 8 -17q6 -10 6 -20q0 -9 -21 -30q-2 -2 -4 -18q-1 -9 -8 -41q-12 -56 -31.5 -311t-19.5 -359q0 -106 34 -153q37 -51 81 -51q13 0 33 22q1 1 14 4 q30 8 58.5 54t41.5 109q32 145 63.5 380.5t31.5 326.5q0 50 -8 80q-1 6 -1 7t15 48q8 18 8 26q0 3 -1 6q-2 14 -2 16q1 6 11.5 14.5t17.5 8.5q10 0 27 -10q53 -32 81 -32q5 0 33 5q12 2 22 2q19 0 38 -19t18 -36l-4 -46l5 -40q0 -3 -7 -22q-4 -12 -27 -106 q-29 -110 -34 -240q-4 -116 -13 -153q-5 -18 -5 -19l3 -66q-12 -73 -12 -88q0 -101 22 -162t58 -61q10 0 21 7q12 7 20 7q9 0 9 -8q0 -4 -5 -15q-3 -5 -3 -10q0 -9 25 -40l2 -18q1 -12 1 -17q1 -7 1 -8q0 -10 -30.5 -32.5t-64.5 -35.5q-11 -8 -17 -12q-28 -19 -58 -19 q-43 0 -82.5 31.5t-59.5 82.5q-6 14 -37 159zM393 1753q13 0 45 -7.5t46 -13.5q21 -10 25.5 -18t8.5 -42q9 -31 9 -38q0 -11 -30 -70q-12 -24 -26.5 -32.5t-43.5 -8.5q-34 0 -44.5 4t-38.5 27q-47 38 -47 68q0 35 26 85q22 44 70 46zM696 1753q53 0 96 -24q25 -14 32 -65 q7 -29 7 -32q0 -11 -16 -37q-5 -8 -17 -34q-10 -21 -27 -29.5t-51 -8.5q-24 0 -41 7q-29 12 -53.5 44t-24.5 57q0 20 12 50t27 47q21 24 56 25z"/>
<glyph glyph-name="Yacute" horiz-adv-x="940" unicode="" d="M531 780q38 63 122 225q81 144 96.5 176.5t20.5 71.5q6 38 12.5 46.5t41.5 23.5q26 25 32.5 27.5t47.5 4.5q6 1 36 5q9 1 17 1q17 0 20.5 -7.5t3.5 -41.5q0 -7 17 -33q8 -12 8 -20q0 -11 -47 -52q-8 -8 -36 -68q-10 -22 -31 -56q-31 -49 -86 -164q0 -1 -30 -38 q-71 -110 -169 -290q-7 -13 -7.5 -26t-3.5 -195l9 -160q2 -79 7 -97q14 -41 14 -50q0 -18 -49 -34q-14 -5 -28 -15q-21 -16 -24 -15l-53 18q-25 6 -50 29q-40 38 -53 47q-31 24 -31 40q0 13 27 64q3 18 10 154l-2 82q8 69 8 85q0 19 -2 25l-23 40l-66 134q-54 98 -72 142 q-38 94 -52.5 121t-40.5 50l-17 -17q-15 -16 -17 -20t-4 -21q-4 -42 -22 -42t-49 26q-12 10 -26 17q-21 11 -26 18.5t-6 27.5q0 20 -1 25l-2 14q2 17 35 58q27 33 64 148q12 38 18 44.5t49 25.5q6 3 29 19q20 14 27 14h1l41 -5q16 0 25.5 -5t28.5 -26q-1 -3 41 -36 q10 -8 10 -10l-11 -60q0 -2 8 -13q23 -36 45 -117q4 -14 33 -64t109 -206zM523 1754l32 -2l45 2q3 0 18 -1q11 -1 24 -1q7 0 54 6q5 0 10.5 -6t5.5 -12q0 -13 -36 -69q-18 -30 -36 -59q-39 -63 -55.5 -77.5t-50.5 -14.5h-48q-12 -1 -19 -1q-22 0 -22 18q0 4 2 10 q10 29 23 93q23 91 27.5 101t25.5 13z"/>
<glyph glyph-name="Thorn" horiz-adv-x="922" unicode="" d="M416 870q-11 -10 -11 -12l5 -81q0 -3 -6 -22q-7 -26 -10 -108q0 -12 -12 -145q-3 -32 -3 -54q0 -40 27 -40q31 0 83.5 28.5t102.5 72.5q75 67 109.5 134t34.5 147q0 32 -2.5 41.5t-17.5 33.5q-12 22 -17.5 26.5t-22.5 11.5q-40 14 -73 14q-48 0 -117 -23t-70 -24z M202 1020q9 78 9 111q0 63 -23 98q-13 19 -13 28q0 28 5.5 40t27.5 28q35 27 48.5 34t31.5 7q5 0 39 -9q72 -2 86 -6t32 -28q10 -13 11 -17.5t2 -32.5l2 -36q0 -6 -19 -47q-14 -30 -19 -106q72 12 126 12q87 0 156 -39.5t99 -107.5q12 -25 15 -29t26 -26t46 -91t23 -116 q0 -86 -52 -186.5t-125 -154.5q-83 -63 -125.5 -85t-81.5 -24q-18 -1 -40 -14q-7 -4 -16 -4q-5 0 -38 9q-25 3 -26 3t-11 14q-6 9 -12 9q-13 0 -13 -19l6 -44l8 -67q20 -30 20 -39q0 -31 -26 -52q-26 -39 -61 -39q-25 0 -48 14t-35 37q-11 20 -16 23.5t-31 10.5 q-20 6 -36 21.5t-16 28.5q0 6 19 17q3 2 3 10q0 6 -1 14q-3 29 -3 53q0 87 22 313q18 180 18 228q0 31 -15 31q-3 0 -9 -4q-11 -7 -42 -16q-20 -6 -24 -9t-27 -25q-8 -8 -15 -8q-8 0 -24.5 12t-26.5 25q-11 13 -15 35q-3 16 -4 18t-18 25q-24 37 -24 40q0 8 76 48.5 t174 83.5z"/>
<glyph glyph-name="germandbls" horiz-adv-x="677" unicode="" d="M417 837q94 -23 134.5 -106.5t40.5 -252.5q0 -111 -18.5 -189.5t-63.5 -156.5q-75 -131 -158 -131q-41 0 -71 52.5t-30 123.5q0 25 11 41.5t27 16.5q6 0 20 -6q16 -7 27 -7q76 0 76 267q0 92 -7 132q-18 109 -76 109q-12 0 -36 -6q-7 -1 -12 -1q-12 0 -11 13l4 58 q3 54 7 62t34 32q25 19 37.5 42t23.5 71q12 54 12 72q0 21 -10 65q-13 59 -51 59q-14 0 -21.5 -10.5t-21.5 -50.5q-25 -62 -28 -80.5t-13 -188.5l-13 -151l-6 -128q-13 -100 -14 -125q-8 -270 -8 -272l3 -42l3 -67q2 -29 2 -31q0 -26 -13.5 -35t-52.5 -9q-19 0 -28 5.5 t-24 25.5q-9 8 -39 9q-13 1 -21.5 41t-8.5 107q0 195 4 251q9 139 11 189q-20 8 -20 30q0 8 1 18q2 16 2 18l-4 62q-1 14 32 21q14 4 14 24l-1 70q0 16 9 84.5t15 94.5q24 116 121 203q71 64 154 64q66 0 106 -31.5t64 -101.5q17 -50 17 -96q0 -15 -7 -44 q-35 -157 -124 -214z"/>
<glyph glyph-name="agrave" horiz-adv-x="735" unicode="" d="M353 753q-18 0 -30 -33q-1 -3 -16 -31q-13 -24 -48 -164q-38 -149 -38 -235q0 -61 15 -98q14 -33 28 -33q9 0 21 19q16 26 18 28q21 21 23 31q1 6 15 36q26 86 28 113l6 24l3 40q5 12 5 26q-1 16 7 46q15 61 16 99q8 36 8 44q0 28 -10 56q-3 10 -7 12.5t-23 6.5 q-16 13 -21 13zM389 201q-18 -28 -63 -108q-8 -13 -40 -44.5t-49 -41.5q-22 -14 -41 -14q-49 0 -100 49q-71 67 -71 212q0 126 43 333q15 74 32.5 110t66.5 99q20 26 33 34t67 29q37 15 54 15q25 0 41 -9.5t55 -47.5q12 -12 17 -11q16 3 21 4q20 -20 31.5 -23.5t55.5 -4.5 q36 -1 52.5 -12t23.5 -40q11 -14 11 -19q0 -7 -8 -20q-9 -14 -9 -17l1 -38q0 -4 -6 -19q-13 -33 -17.5 -57.5t-17.5 -134.5q-12 -53 -12 -76q0 -37 8 -66q18 -65 48 -65q12 0 59.5 56.5t63.5 90.5q9 20 16 20q9 0 9 -13q0 -7 -3 -25q-2 -11 -2 -26q0 -13 1 -23q2 -15 2 -19 q0 -38 -74 -115q-25 -26 -44 -28q-2 0 -31 -26q-13 -12 -45 -20q-27 -6 -35 -10q-7 -3 -9 -3q-1 0 -64 25q-35 13 -71 99zM376 1001q-54 0 -68.5 5.5t-32.5 30.5q-39 56 -74 115.5t-35 69.5q-1 5 5 12q5 6 9 6h1q49 -7 55 -7q13 0 24 1q16 2 17 2l46 -3l32 2 q18 0 24.5 -14.5t28.5 -99.5q13 -65 23 -93q2 -7 2 -10q0 -18 -23 -18q-4 0 -18 1h-16z"/>
<glyph glyph-name="aacute" horiz-adv-x="735" unicode="" d="M353 753q-18 0 -30 -33q-1 -3 -16 -31q-13 -24 -48 -164q-38 -149 -38 -235q0 -61 15 -98q14 -33 28 -33q9 0 21 19q16 26 18 28q21 21 23 31q1 6 15 36q26 86 28 113l6 24l3 40q5 12 5 26q-1 16 7 46q15 61 16 99q8 36 8 44q0 28 -10 56q-3 10 -7 12.5t-23 6.5 q-16 13 -21 13zM389 201q-18 -28 -63 -108q-8 -13 -40 -44.5t-49 -41.5q-22 -14 -41 -14q-49 0 -100 49q-71 67 -71 212q0 126 43 333q15 74 32.5 110t66.5 99q20 26 33 34t67 29q37 15 54 15q25 0 41 -9.5t55 -47.5q12 -12 17 -11q16 3 21 4q20 -20 31.5 -23.5t55.5 -4.5 q36 -1 52.5 -12t23.5 -40q11 -14 11 -19q0 -7 -8 -20q-9 -14 -9 -17l1 -38q0 -4 -6 -19q-13 -33 -17.5 -57.5t-17.5 -134.5q-12 -53 -12 -76q0 -37 8 -66q18 -65 48 -65q12 0 59.5 56.5t63.5 90.5q9 20 16 20q9 0 9 -13q0 -7 -3 -25q-2 -11 -2 -26q0 -13 1 -23q2 -15 2 -19 q0 -38 -74 -115q-25 -26 -44 -28q-2 0 -31 -26q-13 -12 -45 -20q-27 -6 -35 -10q-7 -3 -9 -3q-1 0 -64 25q-35 13 -71 99zM393 1235l32 -1l45 2q1 0 18 -2q11 -1 24 -1q6 0 54 7h1q4 0 10 -6t5 -12q0 -18 -94 -162q-24 -38 -39 -48.5t-45 -10.5h-48q-12 -1 -19 -1 q-22 0 -22 18q0 4 2 10q10 29 23 93q23 91 27.5 100.5t25.5 13.5z"/>
<glyph glyph-name="acircumflex" horiz-adv-x="735" unicode="" d="M353 753q-18 0 -30 -33q-1 -3 -16 -31q-13 -24 -48 -164q-38 -149 -38 -235q0 -61 15 -98q14 -33 28 -33q9 0 21 19q16 26 18 28q21 21 23 31q1 6 15 36q26 86 28 113l6 24l3 40q5 12 5 26q-1 16 7 46q15 61 16 99q8 36 8 44q0 28 -10 56q-3 10 -7 12.5t-23 6.5 q-16 13 -21 13zM389 201q-18 -28 -63 -108q-8 -13 -40 -44.5t-49 -41.5q-22 -14 -41 -14q-49 0 -100 49q-71 67 -71 212q0 126 43 333q15 74 32.5 110t66.5 99q20 26 33 34t67 29q37 15 54 15q25 0 41 -9.5t55 -47.5q12 -12 17 -11q16 3 21 4q20 -20 31.5 -23.5t55.5 -4.5 q36 -1 52.5 -12t23.5 -40q11 -14 11 -19q0 -7 -8 -20q-9 -14 -9 -17l1 -38q0 -4 -6 -19q-13 -33 -17.5 -57.5t-17.5 -134.5q-12 -53 -12 -76q0 -37 8 -66q18 -65 48 -65q12 0 59.5 56.5t63.5 90.5q9 20 16 20q9 0 9 -13q0 -7 -3 -25q-2 -11 -2 -26q0 -13 1 -23q2 -15 2 -19 q0 -38 -74 -115q-25 -26 -44 -28q-2 0 -31 -26q-13 -12 -45 -20q-27 -6 -35 -10q-7 -3 -9 -3q-1 0 -64 25q-35 13 -71 99zM354 1114q-11 0 -41 -51q-27 -45 -37 -56q-9 -10 -21 -10h-2l-45 5l-38 -1q-29 0 -29 21t48 78q29 35 48 60q35 47 50.5 58.5t41.5 11.5l77 -1 q8 0 24 1h12q21 0 38.5 -15t50.5 -62q35 -49 51 -64q39 -36 39 -54q0 -20 -11 -27q-9 -6 -100 -7l-45 -1q-32 0 -46 8.5t-23 34.5q-9 25 -22.5 48t-19.5 23z"/>
<glyph glyph-name="atilde" horiz-adv-x="735" unicode="" d="M353 753q-18 0 -30 -33q-1 -3 -16 -31q-13 -24 -48 -164q-38 -149 -38 -235q0 -61 15 -98q14 -33 28 -33q9 0 21 19q16 26 18 28q21 21 23 31q1 6 15 36q26 86 28 113l6 24l3 40q5 12 5 26q-1 16 7 46q15 61 16 99q8 36 8 44q0 28 -10 56q-3 10 -7 12.5t-23 6.5 q-16 13 -21 13zM389 201q-18 -28 -63 -108q-8 -13 -40 -44.5t-49 -41.5q-22 -14 -41 -14q-49 0 -100 49q-71 67 -71 212q0 126 43 333q15 74 32.5 110t66.5 99q20 26 33 34t67 29q37 15 54 15q25 0 41 -9.5t55 -47.5q12 -12 17 -11q16 3 21 4q20 -20 31.5 -23.5t55.5 -4.5 q36 -1 52.5 -12t23.5 -40q11 -14 11 -19q0 -7 -8 -20q-9 -14 -9 -17l1 -38q0 -4 -6 -19q-13 -33 -17.5 -57.5t-17.5 -134.5q-12 -53 -12 -76q0 -37 8 -66q18 -65 48 -65q12 0 59.5 56.5t63.5 90.5q9 20 16 20q9 0 9 -13q0 -7 -3 -25q-2 -11 -2 -26q0 -13 1 -23q2 -15 2 -19 q0 -38 -74 -115q-25 -26 -44 -28q-2 0 -31 -26q-13 -12 -45 -20q-27 -6 -35 -10q-7 -3 -9 -3q-1 0 -64 25q-35 13 -71 99zM294 1075q-9 0 -27 -11t-29 -23q-21 -23 -30 -23q-14 0 -28.5 17.5t-14.5 34.5q0 27 48 99q44 65 99 65q46 0 141 -39q66 -28 120 -28q19 0 26.5 5 t35.5 33q8 9 17 9q15 0 27 -10.5t12 -23.5q0 -37 -10.5 -62t-39.5 -58q-53 -61 -132 -61q-41 0 -60 6t-74 38q-67 30 -81 32z"/>
<glyph glyph-name="adieresis" horiz-adv-x="735" unicode="" d="M353 753q-18 0 -30 -33q-1 -3 -16 -31q-13 -24 -48 -164q-38 -149 -38 -235q0 -61 15 -98q14 -33 28 -33q9 0 21 19q16 26 18 28q21 21 23 31q1 6 15 36q26 86 28 113l6 24l3 40q5 12 5 26q-1 16 7 46q15 61 16 99q8 36 8 44q0 28 -10 56q-3 10 -7 12.5t-23 6.5 q-16 13 -21 13zM389 201q-18 -28 -63 -108q-8 -13 -40 -44.5t-49 -41.5q-22 -14 -41 -14q-49 0 -100 49q-71 67 -71 212q0 126 43 333q15 74 32.5 110t66.5 99q20 26 33 34t67 29q37 15 54 15q25 0 41 -9.5t55 -47.5q12 -12 17 -11q16 3 21 4q20 -20 31.5 -23.5t55.5 -4.5 q36 -1 52.5 -12t23.5 -40q11 -14 11 -19q0 -7 -8 -20q-9 -14 -9 -17l1 -38q0 -4 -6 -19q-13 -33 -17.5 -57.5t-17.5 -134.5q-12 -53 -12 -76q0 -37 8 -66q18 -65 48 -65q12 0 59.5 56.5t63.5 90.5q9 20 16 20q9 0 9 -13q0 -7 -3 -25q-2 -11 -2 -26q0 -13 1 -23q2 -15 2 -19 q0 -38 -74 -115q-25 -26 -44 -28q-2 0 -31 -26q-13 -12 -45 -20q-27 -6 -35 -10q-7 -3 -9 -3q-1 0 -64 25q-35 13 -71 99zM238 1235q13 0 45 -7.5t46 -13.5q21 -10 25.5 -18t8.5 -42q9 -31 9 -38q0 -11 -30 -70q-12 -24 -26.5 -32.5t-43.5 -8.5q-35 0 -46.5 4.5t-36.5 26.5 q-47 42 -47 68q0 34 26 85q22 44 70 46zM541 1234q53 0 96 -24q25 -14 32 -64q7 -30 7 -33q0 -11 -16 -37q-5 -8 -17 -34q-10 -21 -27 -29.5t-51 -8.5q-24 0 -41 7q-29 12 -53.5 44t-24.5 57q0 20 12 50t27 47q21 24 56 25z"/>
<glyph glyph-name="aring" horiz-adv-x="735" unicode="" d="M353 753q-18 0 -30 -33q-1 -3 -16 -31q-13 -24 -48 -164q-38 -149 -38 -235q0 -61 15 -98q14 -33 28 -33q9 0 21 19q16 26 18 28q21 21 23 31q1 6 15 36q26 86 28 113l6 24l3 40q5 12 5 26q-1 16 7 46q15 61 16 99q8 36 8 44q0 28 -10 56q-3 10 -7 12.5t-23 6.5 q-16 13 -21 13zM389 201q-18 -28 -63 -108q-8 -13 -40 -44.5t-49 -41.5q-22 -14 -41 -14q-49 0 -100 49q-71 67 -71 212q0 126 43 333q15 74 32.5 110t66.5 99q20 26 33 34t67 29q37 15 54 15q25 0 41 -9.5t55 -47.5q12 -12 17 -11q16 3 21 4q20 -20 31.5 -23.5t55.5 -4.5 q36 -1 52.5 -12t23.5 -40q11 -14 11 -19q0 -7 -8 -20q-9 -14 -9 -17l1 -38q0 -4 -6 -19q-13 -33 -17.5 -57.5t-17.5 -134.5q-12 -53 -12 -76q0 -37 8 -66q18 -65 48 -65q12 0 59.5 56.5t63.5 90.5q9 20 16 20q9 0 9 -13q0 -7 -3 -25q-2 -11 -2 -26q0 -13 1 -23q2 -15 2 -19 q0 -38 -74 -115q-25 -26 -44 -28q-2 0 -31 -26q-13 -12 -45 -20q-27 -6 -35 -10q-7 -3 -9 -3q-1 0 -64 25q-35 13 -71 99zM370 1199q-18 0 -32 -33t-14 -73q0 -63 30 -63q21 0 36.5 28t15.5 63q0 78 -35 78h-1zM325 1281l40 -1l35 2q43 0 85 -54q36 -47 36 -92v-7 q-2 -35 -15 -72.5t-28 -53.5q-58 -59 -116 -59q-65 0 -107 43.5t-42 110.5q0 69 51 146q25 37 61 37z"/>
<glyph glyph-name="ae" horiz-adv-x="975" unicode="" d="M694 787q-17 0 -31 -58q0 -3 -19 -66q-16 -49 -31 -147q-5 -26 -6 -35q-8 -44 -8 -54q0 -20 26 -30l19 -8q29 0 55 46q48 85 48 243q0 39 -10 71q-5 15 -8 19t-17 10q-14 9 -18 9zM332 467q-40 0 -68 -40q-20 -30 -36.5 -80t-16.5 -83l4 -90q1 -34 12 -55t28 -21 q21 0 47 20.5t38 45.5q47 101 47 210q0 41 -4.5 53.5t-23.5 23.5q-18 15 -27 16zM524 800q10 4 19 20q14 26 45.5 38t89.5 16l66 5q22 0 36.5 -9.5t77.5 -66.5q25 -23 42.5 -77t17.5 -109q0 -32 -12 -84t-25 -74q-4 -7 -62 -79q-17 -21 -49.5 -44t-43.5 -22l-13 1 q-26 -11 -31 -11q-11 0 -25 4q-26 7 -45 7q-9 0 -15 -5.5t-5 -11.5l6 -27q8 -47 11.5 -57t14.5 -22q37 -41 88 -41q44 0 84 21.5t86 70.5q61 64 93 111q6 10 11 10q13 0 13 -42q0 -13 1 -76q0 -12 -4.5 -18t-63.5 -81q-123 -97 -141 -110q-75 -51 -145 -51q-55 0 -117 40 q-57 37 -79 70q-15 22 -22 22q-5 0 -17 -14q-56 -67 -96 -91.5t-92 -24.5q-74 0 -120 50q-84 89 -84 240q0 106 79 210q59 78 182 78q73 0 112 -36q10 -9 12 -9q7 0 19 54l3 40q10 47 10 59q0 31 -19 59q-3 5 -18.5 12t-21.5 7q-13 0 -31 -25q-6 -8 -33 -84q-12 -31 -26 -39 t-57 -8h-29q-16 0 -26 5q-8 4 -9 4l-42 -11q-1 -1 -4 7.5t-3 13.5q0 11 27 77q36 89 46 107.5t32 38.5q51 45 125 45q92 0 177 -83z"/>
<glyph glyph-name="ccedilla" horiz-adv-x="563" unicode="" d="M207 5q-18 12 -54 24q-31 10 -64 49.5t-48 84.5q-14 39 -14 86q0 222 28 336q7 27 16 71q5 30 30 85q15 34 20 62q4 18 8 20.5t29 2.5q7 0 16 4q14 6 15 6l14 -2q1 0 57 22q0 3 41 7q11 1 34 4q14 2 21 2q27 0 52 -18q15 -11 31 -17l11 -7q27 0 35.5 -25.5t10.5 -123.5 q3 -97 11 -159q1 -12 1 -20q0 -11 -6.5 -19t-12.5 -7q-26 5 -29 5q-7 0 -15 -2q-53 -15 -60 -15q-61 0 -61 177q0 34 2 58q2 36 2 55q0 22 -18 22q-20 0 -24 -31q-1 -15 -32 -127q-34 -122 -34 -282q0 -108 60 -156q31 -25 57 -25q10 0 72 21l22 23l30 19l49 51q26 23 39 42 q22 34 31 34q11 0 11 -83q0 -27 -2.5 -33.5t-18.5 -20.5q-43 -63 -50 -71.5t-45 -39.5q-33 -26 -62 -37q-14 -5 -31 -16q-30 -19 -53 -27q-2 -8 -3 -29q0 -4 -10 -32q50 -5 67.5 -21t17.5 -57q0 -43 -19.5 -81t-54.5 -62q-40 -33 -54 -38t-84 -13q-37 -6 -41 -6 q-45 0 -45 42q0 25 31 47l16 12q13 10 18 9l22 -3l21 5q42 11 47 14q19 15 19 47q0 16 -4 19t-28 7l-20 3q-21 -5 -24 -5q-9 0 -10.5 4.5t-3.5 29.5q0 1 1 4q6 15 9 41q8 39 10 54z"/>
<glyph glyph-name="egrave" horiz-adv-x="600" unicode="" d="M321 795q-21 0 -61 -170q-35 -153 -35 -204q0 -11 2.5 -13t16.5 -5q4 0 14 -6q11 -6 17 -6q35 0 68.5 90t33.5 184q0 44 -12 89q-5 17 -8.5 21.5t-20.5 11.5zM116 826q22 2 25 3t74 32q33 12 104 13l64 7q25 0 60 -40q23 -26 51 -47q17 -13 33.5 -71.5t16.5 -103.5 q0 -55 -19 -112t-48 -88q-50 -54 -61 -64t-27 -19q-30 -16 -37 -16h-11q-16 -10 -27 -10q-13 0 -54 7q-12 2 -21 2q-17 0 -17 -23q0 -59 33 -101.5t78 -42.5q61 0 133 47q14 9 49 51q0 2 28 27q33 29 36 42q14 26 24 37t14 11q9 0 8 -12q0 -5 -1 -14t-1 -20q0 -12 2 -33 q1 -17 1 -31q0 -28 -32 -69t-77 -71q-27 -19 -75 -69q-20 -20 -79 -39.5t-102 -19.5q-62 0 -130 62q-42 39 -58 61q-46 65 -46 166q0 116 11.5 205.5t45.5 232.5q15 64 32 110zM336 1001q-54 0 -68.5 5.5t-32.5 30.5q-39 56 -74 115.5t-35 69.5q-1 5 5 12q5 6 9 6h1 q49 -7 55 -7q13 0 24 1q16 2 17 2l46 -3l32 2q18 0 24.5 -14.5t28.5 -99.5q13 -65 23 -93q2 -7 2 -10q0 -18 -23 -18q-4 0 -18 1h-16z"/>
<glyph glyph-name="eacute" horiz-adv-x="600" unicode="" d="M321 795q-21 0 -61 -170q-35 -153 -35 -204q0 -11 2.5 -13t16.5 -5q4 0 14 -6q11 -6 17 -6q35 0 68.5 90t33.5 184q0 44 -12 89q-5 17 -8.5 21.5t-20.5 11.5zM116 826q22 2 25 3t74 32q33 12 104 13l64 7q25 0 60 -40q23 -26 51 -47q17 -13 33.5 -71.5t16.5 -103.5 q0 -55 -19 -112t-48 -88q-50 -54 -61 -64t-27 -19q-30 -16 -37 -16h-11q-16 -10 -27 -10q-13 0 -54 7q-12 2 -21 2q-17 0 -17 -23q0 -59 33 -101.5t78 -42.5q61 0 133 47q14 9 49 51q0 2 28 27q33 29 36 42q14 26 24 37t14 11q9 0 8 -12q0 -5 -1 -14t-1 -20q0 -12 2 -33 q1 -17 1 -31q0 -28 -32 -69t-77 -71q-27 -19 -75 -69q-20 -20 -79 -39.5t-102 -19.5q-62 0 -130 62q-42 39 -58 61q-46 65 -46 166q0 116 11.5 205.5t45.5 232.5q15 64 32 110zM353 1235l32 -1l45 2q1 0 18 -2q11 -1 24 -1q6 0 54 7h1q4 0 10 -6t5 -12q0 -18 -94 -162 q-24 -38 -39 -48.5t-45 -10.5h-48q-12 -1 -19 -1q-22 0 -22 18q0 4 2 10q10 29 23 93q23 91 27.5 100.5t25.5 13.5z"/>
<glyph glyph-name="ecircumflex" horiz-adv-x="600" unicode="" d="M321 795q-21 0 -61 -170q-35 -153 -35 -204q0 -11 2.5 -13t16.5 -5q4 0 14 -6q11 -6 17 -6q35 0 68.5 90t33.5 184q0 44 -12 89q-5 17 -8.5 21.5t-20.5 11.5zM116 826q22 2 25 3t74 32q33 12 104 13l64 7q25 0 60 -40q23 -26 51 -47q17 -13 33.5 -71.5t16.5 -103.5 q0 -55 -19 -112t-48 -88q-50 -54 -61 -64t-27 -19q-30 -16 -37 -16h-11q-16 -10 -27 -10q-13 0 -54 7q-12 2 -21 2q-17 0 -17 -23q0 -59 33 -101.5t78 -42.5q61 0 133 47q14 9 49 51q0 2 28 27q33 29 36 42q14 26 24 37t14 11q9 0 8 -12q0 -5 -1 -14t-1 -20q0 -12 2 -33 q1 -17 1 -31q0 -28 -32 -69t-77 -71q-27 -19 -75 -69q-20 -20 -79 -39.5t-102 -19.5q-62 0 -130 62q-42 39 -58 61q-46 65 -46 166q0 116 11.5 205.5t45.5 232.5q15 64 32 110zM300 1114q-11 0 -41 -51q-27 -45 -37 -56q-9 -10 -21 -10h-2l-45 5l-38 -1q-29 0 -29 21t48 78 q29 35 48 60q35 47 50.5 58.5t41.5 11.5l77 -1q8 0 24 1h12q21 0 38.5 -15t50.5 -62q35 -49 51 -64q39 -36 39 -54q0 -20 -11 -27q-9 -6 -100 -7l-45 -1q-32 0 -46 8.5t-23 34.5q-9 25 -22.5 48t-19.5 23z"/>
<glyph glyph-name="edieresis" horiz-adv-x="600" unicode="" d="M321 795q-21 0 -61 -170q-35 -153 -35 -204q0 -11 2.5 -13t16.5 -5q4 0 14 -6q11 -6 17 -6q35 0 68.5 90t33.5 184q0 44 -12 89q-5 17 -8.5 21.5t-20.5 11.5zM116 826q22 2 25 3t74 32q33 12 104 13l64 7q25 0 60 -40q23 -26 51 -47q17 -13 33.5 -71.5t16.5 -103.5 q0 -55 -19 -112t-48 -88q-50 -54 -61 -64t-27 -19q-30 -16 -37 -16h-11q-16 -10 -27 -10q-13 0 -54 7q-12 2 -21 2q-17 0 -17 -23q0 -59 33 -101.5t78 -42.5q61 0 133 47q14 9 49 51q0 2 28 27q33 29 36 42q14 26 24 37t14 11q9 0 8 -12q0 -5 -1 -14t-1 -20q0 -12 2 -33 q1 -17 1 -31q0 -28 -32 -69t-77 -71q-27 -19 -75 -69q-20 -20 -79 -39.5t-102 -19.5q-62 0 -130 62q-42 39 -58 61q-46 65 -46 166q0 116 11.5 205.5t45.5 232.5q15 64 32 110zM157 1235q13 0 45 -7.5t46 -13.5q21 -10 25.5 -18t8.5 -42q9 -31 9 -38q0 -11 -30 -70 q-12 -24 -26.5 -32.5t-43.5 -8.5q-35 0 -46.5 4.5t-36.5 26.5q-47 42 -47 68q0 34 26 85q22 44 70 46zM460 1234q53 0 96 -24q25 -14 32 -64q7 -30 7 -33q0 -11 -16 -37q-5 -8 -17 -34q-10 -21 -27 -29.5t-51 -8.5q-24 0 -41 7q-29 12 -53.5 44t-24.5 57q0 20 12 50t27 47 q21 24 56 25z"/>
<glyph glyph-name="igrave" horiz-adv-x="382" unicode="" d="M196 99l-30 -3q-21 0 -53.5 29t-53.5 66q-34 58 -34 124q0 39 4 85q8 95 8 129q0 31 6 64q2 62 3.5 73.5t12.5 59.5q5 23 5 37q0 18 -3 23.5t-17 16.5l3 11q1 4 1 15q0 5 11 13.5t17 7.5l23 -3q2 0 16 9q22 17 76 17q16 0 32 -18q23 -26 60 -54q12 -10 12 -21t-19 -41 q-10 -19 -14 -78q-2 -20 -22 -125q-16 -80 -16 -151q0 -138 54 -138q20 0 45 23.5t43 57.5q26 53 33 53q11 0 11 -23v-8q0 -7 -2 -18q-2 -9 -2 -14l1 -55q0 -5 -14 -30l-8 -16l-20 -21l-8 -10l-19 -14l-37 -37l-21 -11q-40 -26 -57 -26zM199 1001q-54 0 -68.5 5.5 t-32.5 30.5q-39 56 -74 115.5t-35 69.5q-1 5 5 12q5 6 9 6h1q49 -7 55 -7q13 0 24 1q16 2 17 2l46 -3l32 2q18 0 24.5 -14.5t28.5 -99.5q13 -65 23 -93q2 -7 2 -10q0 -18 -23 -18q-4 0 -18 1h-16z"/>
<glyph glyph-name="iacute" horiz-adv-x="382" unicode="" d="M196 99l-30 -3q-21 0 -53.5 29t-53.5 66q-34 58 -34 124q0 39 4 85q8 95 8 129q0 31 6 64q2 62 3.5 73.5t12.5 59.5q5 23 5 37q0 18 -3 23.5t-17 16.5l3 11q1 4 1 15q0 5 11 13.5t17 7.5l23 -3q2 0 16 9q22 17 76 17q16 0 32 -18q23 -26 60 -54q12 -10 12 -21t-19 -41 q-10 -19 -14 -78q-2 -20 -22 -125q-16 -80 -16 -151q0 -138 54 -138q20 0 45 23.5t43 57.5q26 53 33 53q11 0 11 -23v-8q0 -7 -2 -18q-2 -9 -2 -14l1 -55q0 -5 -14 -30l-8 -16l-20 -21l-8 -10l-19 -14l-37 -37l-21 -11q-40 -26 -57 -26zM217 1235l32 -1l45 2q1 0 18 -2 q11 -1 24 -1q6 0 54 7h1q4 0 10 -6t5 -12q0 -18 -94 -162q-24 -38 -39 -48.5t-45 -10.5h-48q-12 -1 -19 -1q-22 0 -22 18q0 4 2 10q10 29 23 93q23 91 27.5 100.5t25.5 13.5z"/>
<glyph glyph-name="icircumflex" horiz-adv-x="382" unicode="" d="M196 99l-30 -3q-21 0 -53.5 29t-53.5 66q-34 58 -34 124q0 39 4 85q8 95 8 129q0 31 6 64q2 62 3.5 73.5t12.5 59.5q5 23 5 37q0 18 -3 23.5t-17 16.5l3 11q1 4 1 15q0 5 11 13.5t17 7.5l23 -3q2 0 16 9q22 17 76 17q16 0 32 -18q23 -26 60 -54q12 -10 12 -21t-19 -41 q-10 -19 -14 -78q-2 -20 -22 -125q-16 -80 -16 -151q0 -138 54 -138q20 0 45 23.5t43 57.5q26 53 33 53q11 0 11 -23v-8q0 -7 -2 -18q-2 -9 -2 -14l1 -55q0 -5 -14 -30l-8 -16l-20 -21l-8 -10l-19 -14l-37 -37l-21 -11q-40 -26 -57 -26zM164 1114q-11 0 -41 -51 q-27 -45 -37 -56q-9 -10 -21 -10h-2l-45 5l-38 -1q-29 0 -29 21t48 78q29 35 48 60q35 47 50.5 58.5t41.5 11.5l77 -1q8 0 24 1h12q21 0 38.5 -15t50.5 -62q35 -49 51 -64q39 -36 39 -54q0 -20 -11 -27q-9 -6 -100 -7l-45 -1q-32 0 -46 8.5t-23 34.5q-9 25 -22.5 48 t-19.5 23z"/>
<glyph glyph-name="idieresis" horiz-adv-x="382" unicode="" d="M196 99l-30 -3q-21 0 -53.5 29t-53.5 66q-34 58 -34 124q0 39 4 85q8 95 8 129q0 31 6 64q2 62 3.5 73.5t12.5 59.5q5 23 5 37q0 18 -3 23.5t-17 16.5l3 11q1 4 1 15q0 5 11 13.5t17 7.5l23 -3q2 0 16 9q22 17 76 17q16 0 32 -18q23 -26 60 -54q12 -10 12 -21t-19 -41 q-10 -19 -14 -78q-2 -20 -22 -125q-16 -80 -16 -151q0 -138 54 -138q20 0 45 23.5t43 57.5q26 53 33 53q11 0 11 -23v-8q0 -7 -2 -18q-2 -9 -2 -14l1 -55q0 -5 -14 -30l-8 -16l-20 -21l-8 -10l-19 -14l-37 -37l-21 -11q-40 -26 -57 -26zM26 1224q14 0 44.5 -7t45.5 -14 q20 -9 24.5 -17t8.5 -41q9 -31 9 -38q0 -11 -29 -69q-12 -23 -26.5 -31.5t-44.5 -8.5q-33 0 -44.5 4.5t-35.5 26.5q-46 41 -46 67q0 32 25 83q22 43 69 45zM323 1222q53 0 94 -23q25 -15 32 -64l6 -34q0 -7 -16 -33q-1 -1 -16 -34q-10 -21 -27 -29t-50 -8q-23 0 -40 7 q-28 11 -52 43t-24 59q0 17 12.5 46.5t26.5 45.5q20 23 54 24z"/>
<glyph glyph-name="eth" horiz-adv-x="651" unicode="" d="M310 727q-31 -2 -45 -28.5t-31 -120.5q-24 -130 -24 -287q0 -72 19 -124t45 -52q33 0 58 39q16 24 23.5 44.5t35.5 122.5q20 61 23.5 80.5t6.5 74.5q4 64 4 85q0 51 -21 107q-10 25 -36 39q-38 21 -58 20zM340 1097q-18 -13 -52 -36q-53 -43 -55 -44.5t-38 -19.5 q-8 -4 -29 -26q-8 -7 -11 -7q-6 0 -23 27t-17 36q0 22 33 55q18 25 29 36q71 66 84 80q-2 20 -4 22.5t-88 95.5q-1 1 16.5 20.5t25.5 25.5q23 20 41 20q8 0 29 -15l30 -11l13 -25q19 0 24.5 -6t29.5 -56q37 22 66 53q13 15 39 27q29 12 52 32q4 3 9 3q6 0 11 -7l9 -18l7 -16 l-4 -22l17 -21q1 -1 1 -3q0 -6 -8 -21q-3 -4 -33 -21q-7 -15 -7.5 -15.5t-23.5 -16.5q-75 -51 -84 -57q8 -6 11 -15q2 -4 58 -127l7 -39q15 -50 18 -68t7 -95q1 -23 6 -69q11 -96 11 -141q0 -108 -20 -201q-17 -79 -23 -135q-6 -53 -73 -165q-29 -48 -81 -83 q-51 -33 -65 -33h-2l-63 10l-43 -2q-19 0 -49 23t-51 53q-50 71 -50 197q0 93 13.5 208.5t30.5 166.5q29 88 31 105q5 48 18 60q15 13 23 12l21 -2l17 3l21 -9q1 0 16 7q9 3 55 3l27 1q86 -20 90.5 -22t22.5 -25q1 30 1 49q0 34 -23 145q-11 55 -51 119z"/>
<glyph glyph-name="ntilde" horiz-adv-x="702" unicode="" d="M192 230q29 72 59 158q33 92 87 242q32 90 37 135q6 41 7.5 45.5t13.5 11.5q1 0 20 21q15 14 87 42l10 -4l17 -5l28 -27q35 -21 48.5 -34t12.5 -25l-14 -26l-8 -40q-44 -148 -50 -174t-13 -117q-1 -13 -1 -22q-5 -54 -5 -91q0 -42 19.5 -71t48.5 -29q44 0 91 65 q26 36 32 36q12 0 11 -20l-1 -25l-1 -43q-30 -65 -33 -69.5t-24 -18.5q-15 -10 -50 -46q-53 -55 -109 -55q-71 0 -109 41q-24 26 -41 78q-15 47 -15 82v8q8 127 12 141q11 30 11 47q0 20 -12 20q-13 0 -29 -72q-7 -28 -39 -102q-30 -69 -39 -105q-25 -91 -34 -107 q-7 -14 -7 -18q0 -1 8 -27q1 -4 1 -6q0 -12 -17 -27q-22 -21 -27 -21l-27 1q-29 0 -33 2t-13 17q-9 17 -12 17l-25 -1q-25 0 -35 35q-8 25 -8 115l-2 98l4 83q0 47 5 88q10 85 10 119l-2 105q0 38 13 57q5 8 5 9l-16 35l4 11l7 19q33 32 42 32q5 0 32 -13q5 -2 13 -2 q19 0 39 9q14 7 20 7q16 0 44 -34t28 -54q0 -9 -13 -38q-15 -35 -22 -127q0 -20 -19 -136q-16 -109 -22 -200zM216 1075q-9 0 -27 -11t-29 -23q-21 -23 -30 -23q-14 0 -28.5 17.5t-14.5 34.5q0 27 48 99q44 65 99 65q46 0 141 -39q66 -28 120 -28q19 0 26.5 5t35.5 33 q8 9 17 9q15 0 27 -10.5t12 -23.5q0 -37 -10.5 -62t-39.5 -58q-53 -61 -132 -61q-41 0 -60 6t-74 38q-67 30 -81 32z"/>
<glyph glyph-name="ograve" horiz-adv-x="651" unicode="" d="M420 374q17 44 19.5 56t3.5 66l1 37q0 32 -12 83t-25 73q-8 -42 -8 -75q0 -11 6 -129q5 -82 15 -111zM387 244q-19 18 -21 41q0 2 -9 11q-10 11 -35.5 129t-25.5 156q0 28 5 53q6 30 6 49q0 35 -13 35q-25 0 -48 -139t-23 -289q0 -71 19 -123t45 -52q35 0 59 39 q14 23 41 90zM457 184q-41 -78 -55 -95q-32 -41 -85 -72q-37 -22 -46 -22h-1l-64 10l-30 -2q-18 0 -47.5 22.5t-51.5 54.5q-50 70 -50 196q0 93 13.5 209t30.5 167q29 88 31 105q5 48 18 60q15 13 23 12l21 -2l17 3l21 -9q1 0 16 7q6 3 34 3h28q20 0 21 0.5t24 19.5 q13 10 26 10q31 0 83 -15q46 -13 78 -109q27 -79 27 -140t-30 -204q-13 -67 -19 -117q9 -10 11 -13q10 -15 12.5 -16.5t22.5 -1.5l42 -10q18 0 82 84q6 7 7 7q11 -5 11 -29l-1 -31q-1 -40 -3.5 -49.5t-17.5 -23.5q-50 -48 -109 -48q-38 0 -90 39zM334 1001q-54 0 -68.5 5.5 t-32.5 30.5q-39 56 -74 115.5t-35 69.5q-1 5 5 12q5 6 9 6h1q49 -7 55 -7q13 0 24 1q16 2 17 2l46 -3l32 2q18 0 24.5 -14.5t28.5 -99.5q13 -65 23 -93q2 -7 2 -10q0 -18 -23 -18q-4 0 -18 1h-16z"/>
<glyph glyph-name="oacute" horiz-adv-x="651" unicode="" d="M420 374q17 44 19.5 56t3.5 66l1 37q0 32 -12 83t-25 73q-8 -42 -8 -75q0 -11 6 -129q5 -82 15 -111zM387 244q-19 18 -21 41q0 2 -9 11q-10 11 -35.5 129t-25.5 156q0 28 5 53q6 30 6 49q0 35 -13 35q-25 0 -48 -139t-23 -289q0 -71 19 -123t45 -52q35 0 59 39 q14 23 41 90zM457 184q-41 -78 -55 -95q-32 -41 -85 -72q-37 -22 -46 -22h-1l-64 10l-30 -2q-18 0 -47.5 22.5t-51.5 54.5q-50 70 -50 196q0 93 13.5 209t30.5 167q29 88 31 105q5 48 18 60q15 13 23 12l21 -2l17 3l21 -9q1 0 16 7q6 3 34 3h28q20 0 21 0.5t24 19.5 q13 10 26 10q31 0 83 -15q46 -13 78 -109q27 -79 27 -140t-30 -204q-13 -67 -19 -117q9 -10 11 -13q10 -15 12.5 -16.5t22.5 -1.5l42 -10q18 0 82 84q6 7 7 7q11 -5 11 -29l-1 -31q-1 -40 -3.5 -49.5t-17.5 -23.5q-50 -48 -109 -48q-38 0 -90 39zM351 1235l32 -1l45 2 q1 0 18 -2q11 -1 24 -1q6 0 54 7h1q4 0 10 -6t5 -12q0 -18 -94 -162q-24 -38 -39 -48.5t-45 -10.5h-48q-12 -1 -19 -1q-22 0 -22 18q0 4 2 10q10 29 23 93q23 91 27.5 100.5t25.5 13.5z"/>
<glyph glyph-name="ocircumflex" horiz-adv-x="651" unicode="" d="M420 374q17 44 19.5 56t3.5 66l1 37q0 32 -12 83t-25 73q-8 -42 -8 -75q0 -11 6 -129q5 -82 15 -111zM387 244q-19 18 -21 41q0 2 -9 11q-10 11 -35.5 129t-25.5 156q0 28 5 53q6 30 6 49q0 35 -13 35q-25 0 -48 -139t-23 -289q0 -71 19 -123t45 -52q35 0 59 39 q14 23 41 90zM457 184q-41 -78 -55 -95q-32 -41 -85 -72q-37 -22 -46 -22h-1l-64 10l-30 -2q-18 0 -47.5 22.5t-51.5 54.5q-50 70 -50 196q0 93 13.5 209t30.5 167q29 88 31 105q5 48 18 60q15 13 23 12l21 -2l17 3l21 -9q1 0 16 7q6 3 34 3h28q20 0 21 0.5t24 19.5 q13 10 26 10q31 0 83 -15q46 -13 78 -109q27 -79 27 -140t-30 -204q-13 -67 -19 -117q9 -10 11 -13q10 -15 12.5 -16.5t22.5 -1.5l42 -10q18 0 82 84q6 7 7 7q11 -5 11 -29l-1 -31q-1 -40 -3.5 -49.5t-17.5 -23.5q-50 -48 -109 -48q-38 0 -90 39zM299 1114q-11 0 -41 -51 q-27 -45 -37 -56q-9 -10 -21 -10h-2l-45 5l-38 -1q-29 0 -29 21t48 78q29 35 48 60q35 47 50.5 58.5t41.5 11.5l77 -1q8 0 24 1h12q21 0 38.5 -15t50.5 -62q35 -49 51 -64q39 -36 39 -54q0 -20 -11 -27q-9 -6 -100 -7l-45 -1q-32 0 -46 8.5t-23 34.5q-9 25 -22.5 48 t-19.5 23z"/>
<glyph glyph-name="otilde" horiz-adv-x="651" unicode="" d="M420 374q17 44 19.5 56t3.5 66l1 37q0 32 -12 83t-25 73q-8 -42 -8 -75q0 -11 6 -129q5 -82 15 -111zM387 244q-19 18 -21 41q0 2 -9 11q-10 11 -35.5 129t-25.5 156q0 28 5 53q6 30 6 49q0 35 -13 35q-25 0 -48 -139t-23 -289q0 -71 19 -123t45 -52q35 0 59 39 q14 23 41 90zM457 184q-41 -78 -55 -95q-32 -41 -85 -72q-37 -22 -46 -22h-1l-64 10l-30 -2q-18 0 -47.5 22.5t-51.5 54.5q-50 70 -50 196q0 93 13.5 209t30.5 167q29 88 31 105q5 48 18 60q15 13 23 12l21 -2l17 3l21 -9q1 0 16 7q6 3 34 3h28q20 0 21 0.5t24 19.5 q13 10 26 10q31 0 83 -15q46 -13 78 -109q27 -79 27 -140t-30 -204q-13 -67 -19 -117q9 -10 11 -13q10 -15 12.5 -16.5t22.5 -1.5l42 -10q18 0 82 84q6 7 7 7q11 -5 11 -29l-1 -31q-1 -40 -3.5 -49.5t-17.5 -23.5q-50 -48 -109 -48q-38 0 -90 39zM191 1075q-9 0 -27 -11 t-29 -23q-21 -23 -30 -23q-14 0 -28.5 17.5t-14.5 34.5q0 27 48 99q44 65 99 65q46 0 141 -39q66 -28 120 -28q19 0 26.5 5t35.5 33q8 9 17 9q15 0 27 -10.5t12 -23.5q0 -37 -10.5 -62t-39.5 -58q-53 -61 -132 -61q-41 0 -60 6t-74 38q-67 30 -81 32z"/>
<glyph glyph-name="odieresis" horiz-adv-x="651" unicode="" d="M420 374q17 44 19.5 56t3.5 66l1 37q0 32 -12 83t-25 73q-8 -42 -8 -75q0 -11 6 -129q5 -82 15 -111zM387 244q-19 18 -21 41q0 2 -9 11q-10 11 -35.5 129t-25.5 156q0 28 5 53q6 30 6 49q0 35 -13 35q-25 0 -48 -139t-23 -289q0 -71 19 -123t45 -52q35 0 59 39 q14 23 41 90zM457 184q-41 -78 -55 -95q-32 -41 -85 -72q-37 -22 -46 -22h-1l-64 10l-30 -2q-18 0 -47.5 22.5t-51.5 54.5q-50 70 -50 196q0 93 13.5 209t30.5 167q29 88 31 105q5 48 18 60q15 13 23 12l21 -2l17 3l21 -9q1 0 16 7q6 3 34 3h28q20 0 21 0.5t24 19.5 q13 10 26 10q31 0 83 -15q46 -13 78 -109q27 -79 27 -140t-30 -204q-13 -67 -19 -117q9 -10 11 -13q10 -15 12.5 -16.5t22.5 -1.5l42 -10q18 0 82 84q6 7 7 7q11 -5 11 -29l-1 -31q-1 -40 -3.5 -49.5t-17.5 -23.5q-50 -48 -109 -48q-38 0 -90 39zM156 1235q13 0 45 -7.5 t46 -13.5q21 -10 25.5 -18t8.5 -42q9 -31 9 -38q0 -11 -30 -70q-12 -24 -26.5 -32.5t-43.5 -8.5q-35 0 -46.5 4.5t-36.5 26.5q-47 42 -47 68q0 34 26 85q22 44 70 46zM459 1234q53 0 96 -24q25 -14 32 -64q7 -30 7 -33q0 -11 -16 -37q-5 -8 -17 -34q-10 -21 -27 -29.5 t-51 -8.5q-24 0 -41 7q-29 12 -53.5 44t-24.5 57q0 20 12 50t27 47q21 24 56 25z"/>
<glyph glyph-name="divide" horiz-adv-x="792" unicode="" d="M353 469h9q25 -3 26 -3l44 7q14 2 45.5 -33t30.5 -52q0 -2 -8 -26q-3 -8 -6 -30q-2 -20 -7 -29t-25 -29q-36 -36 -63 -36q-11 0 -43 10t-38.5 13.5t-13.5 14.5q-19 29 -19 67q0 44 34 101q14 25 34 25zM353 1029h9q25 -3 26 -3l44 6h2q14 0 44.5 -34t29.5 -50 q0 -2 -8 -26q-3 -8 -6 -31q-4 -32 -35 -62.5t-60 -30.5q-11 0 -43 10t-38.5 13.5t-13.5 14.5q-19 29 -19 67q0 44 34 101q14 24 34 25zM367 716h62q121 1 201 2q53 0 71 2q23 1 34 1q31 0 31 -22q0 -6 -5 -42l-1 -20q-6 -55 -10 -64.5t-22 -9.5q-5 0 -36 2q-7 1 -19 1 q-9 0 -110 -2q-14 0 -58 1q-69 2 -233 3l-72 2l-83 -4l-23 1q-9 0 -33 -4q-9 -2 -16 -2q-18 0 -17 17l2 28l1 24l9 36q4 39 10 47.5t29 8.5q32 0 68 -3q78 -7 79 -7q73 4 141 4z"/>
<glyph glyph-name="oslash" horiz-adv-x="623" unicode="" d="M228 426q20 20 57 75q2 2 22 27l42 56q12 16 40 52q26 35 26 42q0 17 -30.5 39t-54.5 22q-32 0 -47.5 -22.5t-28.5 -86.5q-26 -133 -26 -179v-15v-10zM439 557q-2 0 -5 -6q-15 -27 -36 -50q-2 -2 -15 -25q-11 -16 -113 -153q-43 -59 -45 -70q-1 -7 6 -31q11 -35 14 -45 q13 -54 43 -54q23 0 38 14t33 52q7 15 49 118q36 149 36 155l-1 43l1 42q-1 10 -5 10zM533 684q5 -65 5 -79t-8 -84l-6 -68l-19 -79q-20 -101 -33.5 -141t-46.5 -100q-38 -68 -93 -101q-45 -27 -74 -27h-5l-41 4h-4q-78 0 -119 68q-39 -43 -48 -78q-11 -44 -34 -44 q-20 0 -33 33q-7 16 -24 26q-5 3 -5 11q0 15 47 73q40 50 41 72l-2 25l-2 28l-7 60q8 85 10 118q4 89 22 173q6 29 14 79l24 76q17 78 26 91t46 13q10 0 20 -2q19 -4 23 -4t19 4q19 4 53 4q14 0 16 1t36 26q8 5 24 5q21 0 55 -8.5t45 -16.5q20 -15 42 -51q30 33 33 38.5 t9 33.5q5 23 22 24l33 -5q9 -2 21.5 -21.5t12.5 -32.5q0 -20 -27 -53q-52 -67 -68 -91z"/>
<glyph glyph-name="ugrave" horiz-adv-x="713" unicode="" d="M391 203q-72 -128 -110 -165q-19 -19 -49 -32.5t-51 -13.5q-14 0 -28 9q-11 7 -36 9q-22 3 -71 118q-21 50 -21 108q0 147 13 210q7 36 7 37l-1 92q0 36 14 60q10 18 9 20l-12 39l3 33v73q0 17 22 38.5t39 21.5q4 0 17 -4q11 -2 19 -2q23 0 40 16q8 7 9 7l22 -12l11 -3 q40 -45 46.5 -54t6.5 -19q0 -16 -7 -32q-7 -15 -7 -17l2 -26q0 -2 -7 -12q-16 -22 -18 -92q0 -15 -26 -181q-10 -69 -10 -139q0 -69 16 -101q14 -30 28 -30q16 0 34 34q37 68 39 75q19 61 29 150q14 123 15 131q14 85 14 129q0 5 -2 12l-4 14l1 25q-12 18 -12 27q0 18 10 33 q14 23 23 22l24 -3q27 0 45 -5q27 -8 40 -8q2 0 37 4q7 1 12 1q15 0 14 -8l-2 -30q0 -5 23 -38q5 -8 5 -16t-16 -28q-3 -4 -5 -51q-2 -13 -19 -94q-17 -84 -17 -136l-7 -86q0 -36 23 -75.5t44 -39.5q41 0 105 128q10 20 14 20q10 0 12 -23q0 -1 -1 -108q0 -13 -29 -43 q-17 -20 -44 -40q-12 -9 -20 -17q-28 -28 -29.5 -29t-38.5 -20q-30 -15 -42 -15q-51 0 -85.5 35.5t-59.5 116.5zM365 1001q-54 0 -68.5 5.5t-32.5 30.5q-39 56 -74 115.5t-35 69.5q-1 5 5 12q5 6 9 6h1q49 -7 55 -7q13 0 24 1q16 2 17 2l46 -3l32 2q18 0 24.5 -14.5 t28.5 -99.5q13 -65 23 -93q2 -7 2 -10q0 -18 -23 -18q-4 0 -18 1h-16z"/>
<glyph glyph-name="uacute" horiz-adv-x="713" unicode="" d="M391 203q-72 -128 -110 -165q-19 -19 -49 -32.5t-51 -13.5q-14 0 -28 9q-11 7 -36 9q-22 3 -71 118q-21 50 -21 108q0 147 13 210q7 36 7 37l-1 92q0 36 14 60q10 18 9 20l-12 39l3 33v73q0 17 22 38.5t39 21.5q4 0 17 -4q11 -2 19 -2q23 0 40 16q8 7 9 7l22 -12l11 -3 q40 -45 46.5 -54t6.5 -19q0 -16 -7 -32q-7 -15 -7 -17l2 -26q0 -2 -7 -12q-16 -22 -18 -92q0 -15 -26 -181q-10 -69 -10 -139q0 -69 16 -101q14 -30 28 -30q16 0 34 34q37 68 39 75q19 61 29 150q14 123 15 131q14 85 14 129q0 5 -2 12l-4 14l1 25q-12 18 -12 27q0 18 10 33 q14 23 23 22l24 -3q27 0 45 -5q27 -8 40 -8q2 0 37 4q7 1 12 1q15 0 14 -8l-2 -30q0 -5 23 -38q5 -8 5 -16t-16 -28q-3 -4 -5 -51q-2 -13 -19 -94q-17 -84 -17 -136l-7 -86q0 -36 23 -75.5t44 -39.5q41 0 105 128q10 20 14 20q10 0 12 -23q0 -1 -1 -108q0 -13 -29 -43 q-17 -20 -44 -40q-12 -9 -20 -17q-28 -28 -29.5 -29t-38.5 -20q-30 -15 -42 -15q-51 0 -85.5 35.5t-59.5 116.5zM382 1235l32 -1l45 2q1 0 18 -2q11 -1 24 -1q6 0 54 7h1q4 0 10 -6t5 -12q0 -18 -94 -162q-24 -38 -39 -48.5t-45 -10.5h-48q-12 -1 -19 -1q-22 0 -22 18 q0 4 2 10q10 29 23 93q23 91 27.5 100.5t25.5 13.5z"/>
<glyph glyph-name="ucircumflex" horiz-adv-x="713" unicode="" d="M391 203q-72 -128 -110 -165q-19 -19 -49 -32.5t-51 -13.5q-14 0 -28 9q-11 7 -36 9q-22 3 -71 118q-21 50 -21 108q0 147 13 210q7 36 7 37l-1 92q0 36 14 60q10 18 9 20l-12 39l3 33v73q0 17 22 38.5t39 21.5q4 0 17 -4q11 -2 19 -2q23 0 40 16q8 7 9 7l22 -12l11 -3 q40 -45 46.5 -54t6.5 -19q0 -16 -7 -32q-7 -15 -7 -17l2 -26q0 -2 -7 -12q-16 -22 -18 -92q0 -15 -26 -181q-10 -69 -10 -139q0 -69 16 -101q14 -30 28 -30q16 0 34 34q37 68 39 75q19 61 29 150q14 123 15 131q14 85 14 129q0 5 -2 12l-4 14l1 25q-12 18 -12 27q0 18 10 33 q14 23 23 22l24 -3q27 0 45 -5q27 -8 40 -8q2 0 37 4q7 1 12 1q15 0 14 -8l-2 -30q0 -5 23 -38q5 -8 5 -16t-16 -28q-3 -4 -5 -51q-2 -13 -19 -94q-17 -84 -17 -136l-7 -86q0 -36 23 -75.5t44 -39.5q41 0 105 128q10 20 14 20q10 0 12 -23q0 -1 -1 -108q0 -13 -29 -43 q-17 -20 -44 -40q-12 -9 -20 -17q-28 -28 -29.5 -29t-38.5 -20q-30 -15 -42 -15q-51 0 -85.5 35.5t-59.5 116.5zM329 1114q-11 0 -41 -51q-27 -45 -37 -56q-9 -10 -21 -10h-2l-45 5l-38 -1q-29 0 -29 21t48 78q29 35 48 60q35 47 50.5 58.5t41.5 11.5l77 -1q8 0 24 1h12 q21 0 38.5 -15t50.5 -62q35 -49 51 -64q39 -36 39 -54q0 -20 -11 -27q-9 -6 -100 -7l-45 -1q-32 0 -46 8.5t-23 34.5q-9 25 -22.5 48t-19.5 23z"/>
<glyph glyph-name="udieresis" horiz-adv-x="713" unicode="" d="M391 203q-72 -128 -110 -165q-19 -19 -49 -32.5t-51 -13.5q-14 0 -28 9q-11 7 -36 9q-22 3 -71 118q-21 50 -21 108q0 147 13 210q7 36 7 37l-1 92q0 36 14 60q10 18 9 20l-12 39l3 33v73q0 17 22 38.5t39 21.5q4 0 17 -4q11 -2 19 -2q23 0 40 16q8 7 9 7l22 -12l11 -3 q40 -45 46.5 -54t6.5 -19q0 -16 -7 -32q-7 -15 -7 -17l2 -26q0 -2 -7 -12q-16 -22 -18 -92q0 -15 -26 -181q-10 -69 -10 -139q0 -69 16 -101q14 -30 28 -30q16 0 34 34q37 68 39 75q19 61 29 150q14 123 15 131q14 85 14 129q0 5 -2 12l-4 14l1 25q-12 18 -12 27q0 18 10 33 q14 23 23 22l24 -3q27 0 45 -5q27 -8 40 -8q2 0 37 4q7 1 12 1q15 0 14 -8l-2 -30q0 -5 23 -38q5 -8 5 -16t-16 -28q-3 -4 -5 -51q-2 -13 -19 -94q-17 -84 -17 -136l-7 -86q0 -36 23 -75.5t44 -39.5q41 0 105 128q10 20 14 20q10 0 12 -23q0 -1 -1 -108q0 -13 -29 -43 q-17 -20 -44 -40q-12 -9 -20 -17q-28 -28 -29.5 -29t-38.5 -20q-30 -15 -42 -15q-51 0 -85.5 35.5t-59.5 116.5zM187 1235q13 0 45 -7.5t46 -13.5q21 -10 25.5 -18t8.5 -42q9 -31 9 -38q0 -11 -30 -70q-12 -24 -26.5 -32.5t-43.5 -8.5q-35 0 -46.5 4.5t-36.5 26.5 q-47 42 -47 68q0 34 26 85q22 44 70 46zM490 1234q53 0 96 -24q25 -14 32 -64q7 -30 7 -33q0 -11 -16 -37q-5 -8 -17 -34q-10 -21 -27 -29.5t-51 -8.5q-24 0 -41 7q-29 12 -53.5 44t-24.5 57q0 20 12 50t27 47q21 24 56 25z"/>
<glyph glyph-name="yacute" horiz-adv-x="669" unicode="" d="M369 169q-98 -130 -181 -130q-51 0 -67 6t-47 36q-55 55 -55 140q0 159 29 403q1 4 1 8q0 9 -11 23q-5 7 -4 12l8 32l7 43q-13 23 -13 28q0 15 12 21t60 12l47 8q25 -1 71 -42q10 -9 12.5 -13.5t8.5 -23.5q0 -1 24 -18q20 -14 17 -28l-3 -12l-21 3q-5 1 -7 -25 q3 -3 -17 -95q-5 -27 -7 -65q-14 -48 -19 -90t-5 -109q0 -55 31 -91q18 -21 26 -21t68 78q23 28 31 231q4 105 15 161q5 43 14 74q8 28 8 47q0 15 -5 35q-2 11 -2 18q0 14 5 13l36 -9q1 0 10 9q7 6 32 17.5t33 11.5q23 0 55 -25.5t32 -44.5q0 -4 -1 -9q-4 -21 -4 -22 q4 -26 4 -32q0 -10 -7 -29q-10 -34 -31 -244l-5 -155l-4 -103l8 -214q0 -10 -16.5 -74t-23.5 -82q-11 -25 -48 -55q-23 -18 -65 -61q-50 -50 -68.5 -62.5t-42.5 -12.5q-57 0 -130 66q-75 68 -75 117q0 20 16 42q7 10 16 33q5 17 22 17q12 0 16 -7t17 -47q4 -14 27.5 -37.5 t34.5 -26.5q56 -13 59 -13q31 0 54 60.5t23 141.5q0 26 -3 124l-1 34zM361 1235l32 -1l45 2q1 0 18 -2q11 -1 24 -1q6 0 54 7h1q4 0 10 -6t5 -12q0 -18 -94 -162q-24 -38 -39 -48.5t-45 -10.5h-48q-12 -1 -19 -1q-22 0 -22 18q0 4 2 10q10 29 23 93q23 91 27.5 100.5 t25.5 13.5z"/>
<glyph glyph-name="thorn" horiz-adv-x="657" unicode="" d="M213 183q25 -11 32 -17t8 -6l19 6l16 -7q2 0 7 8q2 4 15 21q21 26 26 44.5t11 91.5l10 65l1 43l3 151q-1 22 -15 41.5t-28 19.5q-25 0 -62 -77q-20 -42 -23.5 -56t-4.5 -48q-1 -12 -8 -89q-6 -67 -7 -191zM217 667q22 38 62 89q10 13 12 31q2 10 46 21.5t82 11.5 q23 0 33.5 -6t40.5 -33q16 -16 29 -22q52 -95 52 -278q0 -90 -10 -134.5t-52 -146.5l-9 -23l-43 -45l-22 -28l-25 -17q-15 -11 -33 -24q-21 -16 -22 -16l-37 7l-12 -3q-9 -3 -21 -3q-30 0 -46 8t-21 8t-12.5 -7t-6.5 -10l12 -30l-9 -65l2 -38l2 -77q6 -45 7 -86q0 -12 9 -29 q6 -31 6 -32q0 -8 -23 -19q-33 -21 -39 -21q-26 0 -43 26q-9 13 -9.5 13.5t-32.5 13.5q-11 6 -38 48q-6 10 -8 26.5t-18 178.5l6 126l-1 112v39q1 33 1 43q1 147 2 161q5 58 5 64l-4 104q0 2 4 31q4 27 7 229q2 184 26 291q3 14 3 22q0 11 -7 23q-7 11 -7 13l4 24l-4 16 q0 1 3 6q2 5 2 6l-6 52q-2 17 78 28q6 1 48 10q18 4 34 4q24 0 31 -6.5t16 -34.5q1 -2 10 -13q31 -38 32 -69l2 -18q0 -4 -7 -18q-1 -1 -1 -15q-1 -11 -13 -29q-2 -2 -9 -32l-11 -31l-15 -134q-25 -195 -32 -293z"/>
<glyph glyph-name="ydieresis" horiz-adv-x="669" unicode="" d="M369 169q-98 -130 -181 -130q-51 0 -67 6t-47 36q-55 55 -55 140q0 159 29 403q1 4 1 8q0 9 -11 23q-5 7 -4 12l8 32l7 43q-13 23 -13 28q0 15 12 21t60 12l47 8q25 -1 71 -42q10 -9 12.5 -13.5t8.5 -23.5q0 -1 24 -18q20 -14 17 -28l-3 -12l-21 3q-5 1 -7 -25 q3 -3 -17 -95q-5 -27 -7 -65q-14 -48 -19 -90t-5 -109q0 -55 31 -91q18 -21 26 -21t68 78q23 28 31 231q4 105 15 161q5 43 14 74q8 28 8 47q0 15 -5 35q-2 11 -2 18q0 14 5 13l36 -9q1 0 10 9q7 6 32 17.5t33 11.5q23 0 55 -25.5t32 -44.5q0 -4 -1 -9q-4 -21 -4 -22 q4 -26 4 -32q0 -10 -7 -29q-10 -34 -31 -244l-5 -155l-4 -103l8 -214q0 -10 -16.5 -74t-23.5 -82q-11 -25 -48 -55q-23 -18 -65 -61q-50 -50 -68.5 -62.5t-42.5 -12.5q-57 0 -130 66q-75 68 -75 117q0 20 16 42q7 10 16 33q5 17 22 17q12 0 16 -7t17 -47q4 -14 27.5 -37.5 t34.5 -26.5q56 -13 59 -13q31 0 54 60.5t23 141.5q0 26 -3 124l-1 34zM165 1235q13 0 45 -7.5t46 -13.5q21 -10 25.5 -18t8.5 -42q9 -31 9 -38q0 -11 -30 -70q-12 -24 -26.5 -32.5t-43.5 -8.5q-35 0 -46.5 4.5t-36.5 26.5q-47 42 -47 68q0 34 26 85q22 44 70 46zM468 1234 q53 0 96 -24q25 -14 32 -64q7 -30 7 -33q0 -11 -16 -37q-5 -8 -17 -34q-10 -21 -27 -29.5t-51 -8.5q-24 0 -41 7q-29 12 -53.5 44t-24.5 57q0 20 12 50t27 47q21 24 56 25z"/>
<glyph glyph-name="Cacute" horiz-adv-x="932" unicode="" d="M547 1754l32 -2l45 2q3 0 18 -1q11 -1 24 -1q7 0 54 6q5 0 10.5 -6t5.5 -12q0 -13 -36 -69q-18 -30 -36 -59q-39 -63 -55.5 -77.5t-50.5 -14.5h-48q-12 -1 -19 -1q-22 0 -22 18q0 4 2 10q10 29 23 93q23 91 27.5 101t25.5 13zM608 1223q-11 0 -32 16q-14 10 -36 10 q-23 0 -33.5 -6t-43.5 -39q-21 -21 -34.5 -48t-55.5 -133q-29 -74 -36.5 -105t-25.5 -142q-15 -96 -15 -136q0 -23 15 -134q8 -78 12.5 -94.5t33.5 -77.5l13 -30l27 -19q48 -56 66 -67q44 -28 97 -28q68 0 141 60q87 72 113 118q30 52 40 52q29 0 43 -16q25 -27 25 -38 q0 -32 -38 -99t-85 -117q-52 -57 -108 -99q-10 -7 -55 -19q-71 -26 -89 -30.5t-54 -4.5q-78 0 -120 18t-104 77q-119 114 -157 208q-46 113 -46 283q0 269 94 495q58 138 146 216t187 78q24 0 122 -17q63 -9 92.5 -20t75.5 -44q55 -38 55 -69q0 -23 -3 -52q-3 -35 -3 -43 q0 -146 8 -188q2 -13 2 -20q0 -14 -16 -29q-28 -28 -47 -28q-2 0 -10 3q-34 -13 -46 -13t-51 29q-6 4 -28 4q-15 1 -18.5 4t-5.5 20q0 3 -3 19t-7 107l7 149q0 7 -9 39z"/>
<glyph glyph-name="cacute" horiz-adv-x="563" unicode="" d="M322 1235l32 -1l45 2q1 0 18 -2q11 -1 24 -1q6 0 54 7h1q4 0 10 -6t5 -12q0 -18 -94 -162q-24 -38 -39 -48.5t-45 -10.5h-48q-12 -1 -19 -1q-22 0 -22 18q0 4 2 10q10 29 23 93q23 91 27.5 100.5t25.5 13.5zM460 478q-7 0 -15 -2q-48 -15 -60 -15q-61 0 -61 177 q0 34 2 58q2 37 2 55q0 22 -18 22q-20 0 -24 -31q-1 -15 -32 -127q-34 -121 -34 -281q0 -108 60 -157q31 -24 57 -24q10 0 72 21l22 22l30 20l49 50q26 23 39 42q22 34 31 34q11 0 11 -83q0 -27 -2.5 -33.5t-18.5 -20.5q-47 -70 -80.5 -101t-76.5 -47q-15 -5 -31 -15 q-26 -18 -55 -26q-68 -22 -76 -22q-23 0 -66 24q-47 16 -66.5 30t-46.5 53q-45 65 -45 148q0 222 28 336q7 27 16 71q5 29 30 85q15 33 20 62q4 18 8 20.5t29 2.5q7 0 16 4q14 6 15 6t14 -2l57 22q10 4 41 7q8 0 34 4q14 2 21 2q27 0 52 -18q15 -11 31 -17l11 -7 q27 0 35.5 -26t10.5 -123q3 -97 11 -159q1 -12 1 -20q0 -11 -6.5 -19t-12.5 -7q-26 5 -29 5z"/>
<glyph glyph-name="Ccaron" horiz-adv-x="932" unicode="" d="M649 1749l45 -5l38 1q29 0 29 -21t-48 -79q-29 -34 -48 -59q-35 -47 -50.5 -58.5t-41.5 -11.5l-77 1q-10 0 -24 -1h-11q-22 0 -40 15t-50 62q-47 66 -51 64q-39 36 -39 54q0 20 11 27q9 6 100 7l45 1q32 0 45.5 -8.5t23.5 -34.5q8 -25 22 -47q13 -22 20 -23q12 0 41 51 q24 41 34.5 52t25.5 13zM608 1223q-11 0 -32 16q-14 10 -36 10q-23 0 -33.5 -6t-43.5 -39q-21 -21 -34.5 -48t-55.5 -133q-29 -74 -36.5 -105t-25.5 -142q-15 -96 -15 -136q0 -23 15 -134q8 -78 12.5 -94.5t33.5 -77.5l13 -30l27 -19q48 -56 66 -67q44 -28 97 -28 q68 0 141 60q87 72 113 118q30 52 40 52q29 0 43 -16q25 -27 25 -38q0 -32 -38 -99t-85 -117q-52 -57 -108 -99q-10 -7 -55 -19q-71 -26 -89 -30.5t-54 -4.5q-78 0 -120 18t-104 77q-119 114 -157 208q-46 113 -46 283q0 269 94 495q58 138 146 216t187 78q24 0 122 -17 q63 -9 92.5 -20t75.5 -44q55 -38 55 -69q0 -23 -3 -52q-3 -35 -3 -43q0 -146 8 -188q2 -13 2 -20q0 -14 -16 -29q-28 -28 -47 -28q-2 0 -10 3q-34 -13 -46 -13t-51 29q-6 4 -28 4q-15 1 -18.5 4t-5.5 20q0 3 -3 19t-7 107l7 149q0 7 -9 39z"/>
<glyph glyph-name="ccaron" horiz-adv-x="563" unicode="" d="M437 1230l45 -4q48 0 57.5 -3t9.5 -18q0 -21 -48 -79q-29 -34 -48 -59q-35 -47 -50.5 -58.5t-41.5 -11.5l-45 1h-56q-32 0 -48.5 12.5t-52.5 64.5q-35 49 -51 63q-39 36 -39 54q0 20 11 27q9 6 100 7l45 1q32 0 45.5 -8.5t23.5 -34.5q9 -25 22.5 -47.5t19.5 -22.5 q12 0 41 51q24 41 34 52t26 13zM460 478q-7 0 -15 -2q-48 -15 -60 -15q-61 0 -61 177q0 34 2 58q2 37 2 55q0 22 -18 22q-20 0 -24 -31q-1 -15 -32 -127q-34 -121 -34 -281q0 -108 60 -157q31 -24 57 -24q10 0 72 21l22 22l30 20l49 50q26 23 39 42q22 34 31 34q11 0 11 -83 q0 -27 -2.5 -33.5t-18.5 -20.5q-47 -70 -80.5 -101t-76.5 -47q-15 -5 -31 -15q-26 -18 -55 -26q-68 -22 -76 -22q-23 0 -66 24q-47 16 -66.5 30t-46.5 53q-45 65 -45 148q0 222 28 336q7 27 16 71q5 29 30 85q15 33 20 62q4 18 8 20.5t29 2.5q7 0 16 4q14 6 15 6t14 -2 l57 22q10 4 41 7q8 0 34 4q14 2 21 2q27 0 52 -18q15 -11 31 -17l11 -7q27 0 35.5 -26t10.5 -123q3 -97 11 -159q1 -12 1 -20q0 -11 -6.5 -19t-12.5 -7q-26 5 -29 5z"/>
<glyph glyph-name="dmacron" horiz-adv-x="758" unicode="" d="M363 748q-8 1 -24 -12t-24 -27q-7 -10 -12 -47q-2 -6 -19 -43q-20 -43 -38.5 -147.5t-18.5 -176.5q0 -43 12.5 -70.5t31.5 -27.5q4 0 8 1q11 4 12 4l13 -1q6 0 39 85q14 36 31.5 125.5t20.5 136.5q6 110 15 135q5 13 5 18q0 12 -19 29t-33 18zM412 208q-42 -42 -81 -99 q-36 -53 -66 -74t-69 -21q-41 0 -71.5 27.5t-61.5 93.5q-29 61 -34 78t-5 56q0 99 10 165t41 178q31 110 73 182q6 10 29 24q43 35 53.5 40.5t30.5 5.5l58 -1l24 3q9 0 32 -23q17 -16 37 -27q15 78 15 137q0 15 -1.5 18t-10.5 3q-27 0 -51 -8q-12 -4 -13 -4q-40 6 -46.5 9.5 t-6.5 14.5q0 9 7 40l8 26q0 6 -10 24q-7 11 -7 20q0 28 54 28q11 0 18 -1l10 -2l26 4l21 -3q10 0 17 13.5t7 32.5q0 38 -21 58q-15 14 -15 19q0 11 42 57q16 17 22 20t27 4q3 0 17 9q15 10 23 10h1l42 -3l44 2q21 0 38.5 -29t17.5 -63q0 -4 -1 -18q-2 -11 -2 -16 q0 -20 -1 -24t-11 -20q-9 -15 -9 -30q0 -11 7.5 -15.5t32.5 -8.5q39 -6 39 -42q0 -13 -23 -36q-5 -5 -5 -12q0 -11 25 -37q6 -6 6 -13q0 -16 -42 -16q-10 0 -46 6h-8q-21 0 -21 -28q-20 -148 -38 -352q-11 -121 -11 -203q0 -50 27 -94q29 -48 48 -48q9 0 45 39l36 32 q38 56 42 56q9 0 9 -20q0 -9 -2 -24q-2 -10 -2 -25q0 -13 1 -21q2 -12 2 -14q0 -17 -25.5 -50.5t-62.5 -64.5q-27 -24 -80 -48t-77 -24q-21 0 -51 19t-48 43q-18 23 -29 65z"/>
<glyph glyph-name="Gbreve" horiz-adv-x="983" unicode="" d="M298 1746l27 -4l38 6q34 -6 38.5 -8t8.5 -11q46 -97 124 -97q91 0 114 79q11 35 41 35q6 0 32 -4l44 3q32 0 32 -21q0 -53 -45 -119q-76 -113 -213 -113q-123 0 -197 70q-32 31 -53.5 72.5t-21.5 72.5q0 35 31 39zM903 496q5 -28 5 -37q0 -62 -51 -166t-117 -176 q-42 -46 -63.5 -60.5t-63.5 -24.5l-32 -11l-38 -5l-70 -13q-1 0 -114 18q-38 6 -56 19t-88 83l-33 28l-21 42q-29 50 -37 71.5t-29 101.5q-23 86 -23 155q0 326 109 574q25 57 26 62q17 45 20 50.5t37 43.5q17 19 32 56q12 32 17 30l26 -9l28 3q56 4 109 19q33 9 47 9h3 l75 -4q56 -2 82 -10q55 -20 68 -36q10 -13 11.5 -13.5t20.5 -0.5q2 0 16.5 -8t18.5 -11q8 -7 8 -17l-1 -45q0 -17 22 -98q10 -34 18 -119q4 -45 10 -79q1 -5 1 -10q0 -10 -21 -14q-11 -4 -32 -24q-2 -4 -17 -6q-22 -3 -37 -12q-4 -3 -9 -3q-10 0 -41 24q-55 19 -59 28 l-19 44q0 2 5 13q7 16 7 29q0 14 -6 40q-8 38 -17 125q-11 76 -49 76q-4 0 -9 -1l-14 10l-20 -6q-32 -8 -41.5 -15.5t-31.5 -41.5q-61 -95 -91 -177t-48 -199q-19 -134 -19 -266q0 -118 32 -227q17 -58 30 -79.5t51 -53.5t55 -32q33 0 75 35t73 89q29 50 38 73.5t22 86.5 l12 60q0 18 -18 18q-25 0 -76 -18q-4 -1 -13 -1q-7 0 -18 1q-15 1 -25 1q-14 0 -24 -2q-15 -3 -20 -3q-17 0 -31.5 23.5t-14.5 50.5q0 10 19 24q10 8 10 18q0 5 -7 26q-5 15 -5 45q0 18 5 27q21 -11 24 -11l16 1h47l42 10l53 -3q9 0 34 5q31 7 41 7q106 0 140.5 -7.5 t34.5 -29.5v-11q-1 -9 -1 -19q0 -24 12 -53q9 -20 9 -33q0 -25 -4 -33.5t-22 -20.5z"/>
<glyph glyph-name="gbreve" horiz-adv-x="680" unicode="" d="M109 1227l27 -3l38 5q35 -7 38.5 -9.5t14.5 -29.5q14 -35 46.5 -56t70.5 -21q90 0 113 79q10 35 36 35q4 0 10 -1q25 -3 26 -3q35 4 40 4q32 0 32 -23q0 -51 -45 -119q-73 -112 -205 -112q-124 0 -198 70q-31 29 -52.5 71.5t-21.5 75.5t30 37zM324 736q-28 -36 -60 -143 q-9 -30 -30 -137t-21 -123q0 -18 7.5 -61.5t11.5 -52.5q4 -8 17.5 -17.5t20.5 -9.5q1 0 5 1q63 96 80 246q9 75 14 100q8 43 13 123l5 26q0 10 -12.5 27t-19.5 17h-17zM372 204q-102 -134 -182 -134q-35 0 -104 54q-34 26 -47 56t-13 83q0 183 14.5 261.5t76.5 231.5 q12 28 20 49q5 13 6.5 14.5t25.5 11.5q71 38 80 38q13 0 51.5 -17.5t47.5 -26.5l5 -5l3 -3l17 17q29 13 33 13q3 0 15 -4q7 -2 14 -2q16 0 40 12q16 8 22 8q10 0 45 -23q4 -3 22 -21q5 -6 31 -19q6 -2 6 -14q0 -13 -17 -47q-14 -28 -14 -120q-1 -53 -8 -83q-6 -23 -5 -27 l7 -34l-2 -168q0 -11 7 -70q7 -53 7 -108q0 -142 -45 -246q-15 -33 -33.5 -52.5t-79.5 -65.5q-65 -58 -81 -68t-48 -10q-87 0 -146 76q-19 23 -22.5 36.5t-7.5 72.5q-3 43 -3 44q0 14 4.5 18t23.5 9l38 21q6 0 18 -44q8 -28 27.5 -44t82.5 -48q46 -23 48 -23q26 0 32 61 q2 18 2 97q0 12 -13 148q-2 22 -2 58l1 22v15z"/>
<glyph glyph-name="Idot" horiz-adv-x="547" unicode="" d="M270 1753q13 0 45 -7.5t46 -13.5q21 -10 25.5 -18t8.5 -42q9 -31 9 -38q0 -11 -30 -70q-12 -24 -26.5 -32.5t-43.5 -8.5q-34 0 -44.5 4t-38.5 27q-47 38 -47 68q0 35 26 85q22 44 70 46zM261 1366q3 0 39 -9q71 -3 85 -7t33 -27q10 -13 11 -17.5t1 -33.5l3 -36 q0 -6 -19 -46q-17 -26 -20 -125q-3 -101 -8 -142q-4 -31 -4 -37l2 -60q-13 -112 -16 -209q0 -25 -5 -112q-1 -26 -1 -39q0 -25 3 -46q6 -48 6 -55l-1 -43l6 -27l-2 -45q0 -3 21 -145l7 -32q-1 -13 -30 -36l-13 -13l-28 -8l-47 -18q-2 0 -10 5q-17 9 -41 17l-20 13 q-28 15 -47 36q-8 10 -16 16q-27 26 -27 43q0 11 8 24q10 16 10 18l-1 26q0 3 4 19q3 12 3 21q0 10 -1 30q-2 20 -2 79q0 29 2 115l3 121l8 79v124l11 90q0 88 9 170q7 51 7 86q0 62 -23 99q-13 20 -13 27q0 30 4 40q6 17 48 44q40 26 60 26h1z"/>
<glyph glyph-name="dotlessi" horiz-adv-x="382" unicode="" d="M196 99l-30 -3q-21 0 -53.5 29t-53.5 66q-34 58 -34 124q0 39 4 85q8 95 8 129q0 31 6 64q2 62 3.5 73.5t12.5 59.5q5 23 5 37q0 18 -3 23.5t-17 16.5l3 11q1 4 1 15q0 5 11 13.5t17 7.5l23 -3q2 0 16 9q22 17 76 17q16 0 32 -18q23 -26 60 -54q12 -10 12 -21t-19 -41 q-10 -19 -14 -78q-2 -20 -22 -125q-16 -80 -16 -151q0 -138 54 -138q20 0 45 23.5t43 57.5q26 53 33 53q11 0 11 -23v-8q0 -7 -2 -18q-2 -9 -2 -14l1 -55q0 -5 -14 -30l-8 -16l-20 -21l-8 -10l-19 -14l-37 -37l-21 -11q-40 -26 -57 -26z"/>
<glyph glyph-name="Lslash" horiz-adv-x="889" unicode="" d="M364 214q43 20 67 20q19 0 46 -3q88 -11 125 -11q67 0 108 27.5t83 100.5q23 40 44 40q13 0 18 -17l13 -43q0 -4 -8 -18q-27 -68 -59 -147q-24 -74 -37 -89t-72 -33q-19 -6 -46 -16q-84 -30 -160 -30q-128 0 -211 35q-15 6 -18 6q-8 0 -93 -44q-28 -14 -33 -14l-84 22 q-19 5 -48.5 22t-34.5 26q-3 5 -9 64q0 4 5 19q10 32 16 64q5 19 28 19q37 0 75 5q41 6 58 6q6 0 24 -2q29 68 41 125t27 205q-12 -10 -37 -25l-41 -24q-10 2 -10 23q0 3 1 8q4 35 4 43q0 11 -4 39q-2 13 -2 19q0 34 6.5 50.5t22.5 24.5q39 19 60 35q6 93 6 122 q3 173 8 215.5t30 106.5q12 31 17 38.5t33 35.5q50 51 61.5 60.5t30.5 15.5q31 9 59 9q38 0 104 -31q81 15 139 21q18 -6 46 -22q15 -8 28 -12q17 -4 23 -19t6 -52q0 -70 6.5 -127.5t24.5 -145.5q3 -12 3 -26q0 -47 -13 -69q-5 -9 -5 -10l2 -24q0 -6 -19 -24q-4 -4 -42 -18 q-31 -15 -36 -15q-12 0 -39 20q-9 7 -13 7q-2 0 -20 -6q-3 -1 -4 -1q-13 0 -12 8l6 51q0 4 -12 29q-10 12 -14 68q-11 146 -30 245q-5 23 -16 30.5t-41 7.5t-44 -23t-17 -78q-2 -26 -17 -108t-16 -156q13 8 57 32.5t46 24.5q5 -1 6 -73l6 -25l-6 -50q-2 -37 -2 -38t-8 -8 q-18 -15 -78 -48q-23 -13 -23 -32q0 -5 2 -58l-9 -125q-5 -99 -11.5 -120.5t-67.5 -134.5z"/>
<glyph glyph-name="lslash" horiz-adv-x="502" unicode="" d="M263 1177q5 -17 5 -25q0 -9 -5 -30q-5 -26 -26 -187l-5 -45q0 -11 7 -11t17 17q19 29 52 44q27 12 28.5 13t20.5 19q3 3 9 3q18 0 18 -31q0 -6 -1 -11l-3 -18l5 -26l-1 -10l-2 -18q-10 -30 -11 -31t-92 -67q-57 -40 -63.5 -50t-6.5 -55q-8 -156 -8 -197q0 -143 21 -196 q13 -32 35 -56.5t39 -24.5q9 0 30 11q12 6 42 12q8 1 31 30q6 7 42 42q31 31 55 78q15 29 23 29q10 0 10 -16q0 -3 -3 -50q2 -33 2 -40q0 -43 -90 -149q-48 -56 -75 -80q-14 -12 -70 -24l-47 -11q-22 0 -70 19.5t-67 35.5q-40 35 -66 100.5t-26 133.5q0 32 1 72v66v22 q-1 19 -1 21q2 76 2 77q-2 19 -12 19q-5 0 -19 -19q-8 -11 -36 -36.5t-33 -25.5q-9 0 -10.5 5.5t-1.5 38.5q-3 27 -3 30q0 18 4.5 28t22.5 29q19 30 61 72q19 18 23 26t4 30q1 72 24 247q5 42 5 60l-1 115q0 12 3 21q2 8 2 9q-1 9 -20 26q-12 10 -12 18q0 16 42 61 q16 18 20 21t15 3q15 0 38 15q9 6 18 5l44 -3l39 4q18 0 32 -21q8 -11 17 -33t9 -30q0 -3 -3 -16q-2 -13 -2 -35q0 -20 -5 -28l-12 -12t-9 -10z"/>
<glyph glyph-name="OE" horiz-adv-x="1317" unicode="" d="M520 1227q-41 -9 -79 -74q-17 -30 -38.5 -93t-25.5 -98q-1 -9 -2 -10.5t-17 -10.5q-10 -6 -21 -76l-29 -199q-2 -10 -2 -85q0 -152 5.5 -211t24.5 -105q18 -44 19 -48q10 -33 21 -43.5t37 -10.5q35 0 49 5t35 25q2 2 14 6q38 11 68 72q12 25 68 188q19 57 25 110.5 t6 167.5q0 170 -12.5 262t-43.5 150q-16 28 -18 39q-8 32 -11.5 33.5t-72.5 5.5zM713 1310q23 22 44.5 27t74.5 5h20q69 0 154 16q40 7 51 6l104 -5l47 1q57 0 64 -33q1 -4 1 -38q0 -6 3 -19q5 -18 5 -24q0 -8 -6 -19q-3 -6 -3 -7t14 -25q4 -8 4 -19q0 -21 -3 -28t-17 -21 q-17 -17 -22 -17q-9 0 -29 20q-2 2 -18 2q-6 0 -79 6q-19 1 -38 1q-31 0 -116 -22q-8 -2 -41 -2q-17 -1 -21.5 -8t-4 -21t0.5 -18q0 -29 -7 -118t-12 -118q-2 -11 -2 -19q0 -18 25 -18l76 8l94 11q66 7 114 7q26 0 36.5 -14t10.5 -49q0 -12 -9 -35q-7 -19 -7 -30 q0 -24 13 -62q7 -22 7 -34q0 -28 -32 -28q-9 0 -56 13q-31 8 -51 8q-41 0 -108 -15q-33 -7 -49 -7l-48 1q-17 0 -23 -21t-6 -80q0 -11 1 -33q1 -45 1 -60q0 -25 -2 -52q-2 -41 -2 -60q0 -29 22 -29q3 0 12 2q9 3 18 3q28 0 71 -6q73 -10 142 -10q46 0 76 10q20 7 31 7 q14 0 18.5 -13.5t19.5 -92.5q0 -2 -12 -20q-9 -14 -9 -23t10 -28q6 -11 6 -16q0 -33 -32 -34l-58 -2q-104 -12 -119 -12q-23 0 -99 13q-27 4 -104.5 10.5t-103.5 6.5q-59 1 -83 18q-22 16 -30 16q-6 0 -23 -11q-30 -20 -80.5 -38t-76.5 -18q-24 0 -85.5 22.5t-111.5 50.5 q-40 22 -54.5 36t-48.5 67q-29 41 -35.5 54.5t-17.5 55.5q-34 141 -34 282q0 88 17.5 239.5t34.5 211.5q26 90 28 104t2 95q0 15 3 21t21 29l3 16l26 7q24 7 30 7q11 0 20 -5q15 -9 16 -9l23 5l15 -2q4 0 20 19q14 16 33 25t59 17q13 8 29 11.5t100 16.5h1q6 0 44 -10.5 t56 -17.5q25 -10 57 -34z"/>
<glyph glyph-name="oe" horiz-adv-x="1001" unicode="" d="M626 412q26 -22 46 -22t46 31q18 19 39.5 105.5t21.5 135.5q0 58 -8 90q-4 15 -8 19.5t-25 12.5q-10 10 -14 10q-21 0 -43 -98q-6 -26 -28 -112q-27 -109 -27 -162v-10zM435 516q15 56 15 76q0 17 -8 36q-5 13 -8 26q-12 33 -15.5 38.5t-11.5 5.5q-6 0 -8.5 -7t-9.5 -48 q11 -77 14.5 -87t31.5 -40zM299 722q-19 0 -27 -23q-52 -152 -52 -379q0 -89 20 -146.5t51 -57.5q38 0 52 43q5 19 6.5 21t11.5 10q8 12 51 141l10 56q5 19 4 20q-2 6 -19 17q-30 19 -43 42.5t-38 106.5q-21 72 -21 85q0 10 3 30q2 10 2 17q0 17 -11 17zM624 321 q-1 -14 -1 -20q0 -48 18 -90q11 -25 39 -42.5t57 -17.5q64 0 122 44.5t146 159.5q8 10 11 10q8 0 8 -80l1 -41q-5 -53 -106 -126q-45 -33 -82 -74q-16 -18 -75.5 -37t-99.5 -19q-66 0 -138 68q-37 34 -51.5 56t-29.5 64q-18 -47 -33 -63q-9 -24 -16 -31t-57 -44 q-31 -23 -34.5 -24.5t-26.5 -2.5l-102 -11q-10 -1 -45 27.5t-54 53.5q-51 65 -51 167q0 64 6.5 161.5t12.5 121.5q18 78 19 88q3 44 8 54q7 12 9 31l23 72q4 30 9 39q14 20 24 18l22 -3h20l26 -7q1 0 12 5q12 5 19 5l51 -1q4 0 25 16q24 18 42 18q3 0 25 -5l21 2q2 0 50 -21 q21 -9 51 -71q10 24 12 31q4 18 8.5 21.5t20.5 4.5q25 0 55 21q16 11 35 15l19 7l55 1l79 8q17 0 28 -8t57 -53q37 -32 45 -47q31 -60 31 -159q0 -71 -18.5 -117.5t-65.5 -95.5q-53 -58 -69 -70t-40 -12h-5l-5 1q-22 -11 -29 -11q-6 0 -40 7q-25 4 -48 6z"/>
<glyph glyph-name="Scedilla" horiz-adv-x="915" unicode="" d="M532 10q1 -7 1 -11q0 -15 -11 -46q50 -5 67 -21t17 -57q0 -43 -19.5 -81t-53.5 -62q-40 -33 -54 -38t-84 -13q-37 -6 -41 -6q-45 0 -45 42q0 25 30 47l17 12q13 10 17 9l23 -3l20 5q42 11 47 14q19 15 19 47q0 16 -4 19t-28 7l-19 3q-21 -5 -24 -5q-9 0 -10.5 4.5 t-3.5 29.5q0 1 1 4q6 17 9 41q7 37 10 52q-110 8 -186 53q-72 42 -128 137q-45 75 -45 117q0 14 25 30q18 11 18 22q0 1 -3 11q-1 5 -1 12q0 34 30 34q18 0 24 -15q4 -10 4.5 -10.5t13.5 -4.5q10 -5 19 -32q6 -17 37 -47t65 -52q80 -52 193 -52q63 0 98 14q31 12 49 13 q12 2 13.5 4t3.5 25l19 90q1 6 -96 93q-52 47 -82.5 69t-122.5 80q-173 108 -227 196q-53 85 -53 195q0 123 55.5 204.5t174.5 132.5q35 15 58 19.5t126 15.5q100 -11 119 -21q16 -11 17 -11l44 12q1 1 18 -12.5t23 -19.5q14 -15 19 -49q8 -53 10.5 -64.5t29.5 -94.5 q34 -106 34 -110q0 -23 -37 -29q-11 -2 -14 -4t-27 -25q-19 -19 -42 -19q-12 0 -25 3q-22 4 -26 5q-19 1 -25 9.5t-28 64.5q-10 27 -35 121q-19 73 -16 75q0 19 -6.5 25t-27.5 6q-4 0 -32 -5q-23 3 -26 3q-39 0 -95 -57q-60 -62 -60 -137q0 -52 30.5 -95t110.5 -102 q82 -62 282 -193q69 -45 110 -116.5t41 -146.5q0 -30 -10.5 -54.5t-74.5 -141.5q-18 -34 -63.5 -73.5t-92.5 -61.5q-34 -17 -88 -29z"/>
<glyph glyph-name="scedilla" horiz-adv-x="546" unicode="" d="M82 293q21 10 43 26q25 19 35 19q5 0 6 -20l7 -16l-6 -22q-19 -70 -19 -75q0 -22 30 -55.5t49 -33.5q11 0 31.5 14t32.5 30q18 25 18 62q0 32 -2.5 41.5t-14.5 32.5q-12 21 -19 61l-33 79l-15 64l-14 38q-5 85 -13 85q-7 0 -19 -67l-24 -76q-37 -111 -73 -187zM37 206 q-9 -10 -23 -19l-22 -27q-44 -41 -49 -42q-13 -2 -13 13v31v39q-1 20 40 63q20 22 40 60q8 15 10 31q2 11 11 43q65 240 65 272l-1 61q0 10 6 24q7 17 7 19l-7 55q-1 5 43 12q5 1 27 18q32 27 47 25l18 -2l43 3l20 -3q38 -5 46 -14q13 -15 13 -39l-1 -74q0 -26 24 -83 q22 -54 24 -75q4 -32 6.5 -36.5t27.5 -35.5q16 -19 31.5 -79t15.5 -101q0 -77 -18 -133t-57 -102q-22 -24 -41.5 -37t-117.5 -65q-2 -12 -4 -23q-3 -27 -8 -46q50 -5 67.5 -20.5t17.5 -57.5q0 -43 -19.5 -81t-54.5 -62q-40 -33 -54 -38t-84 -13q-37 -6 -41 -6q-45 0 -45 42 q0 25 31 47q12 8 16 12q13 10 18 9l22 -3l21 5q42 11 47 15q19 15 19 47q0 16 -4 19t-28 6l-20 4q-21 -5 -24 -5q-9 0 -10.5 4t-3.5 30q0 1 1 4q6 16 9 41q7 37 9 48q-49 28 -72.5 71t-23.5 106q0 14 3 43z"/>
<glyph glyph-name="Scaron" horiz-adv-x="915" unicode="" d="M500 1219q-4 0 -32 -5q-23 3 -26 3q-39 0 -95 -57q-60 -62 -60 -136q0 -53 30.5 -96t110.5 -102q80 -60 282 -193q69 -45 110 -116.5t41 -145.5q0 -30 -8 -50t-49 -97q-36 -65 -54 -87t-64 -57q-103 -78 -245 -78q-173 0 -275 100q-42 41 -77 106t-35 102q0 14 25 30 q18 11 18 22q0 1 -3 11q-1 5 -1 12q0 34 30 34q18 0 24 -15q4 -10 4.5 -10t13.5 -5q10 -5 19 -32q6 -16 37 -46t65 -53q80 -51 193 -51q63 0 98 14q31 12 49 13q12 2 13.5 4t3.5 25l19 90q1 6 -96 93q-52 47 -82.5 69t-122.5 79q-173 108 -227 196q-53 85 -53 195 q0 124 55.5 205t174.5 132q35 15 58 19.5t126 15.5q100 -11 119 -21q16 -11 17 -11l43 12q2 1 19 -12.5t23 -19.5q14 -15 18 -49q8 -53 11 -64.5t30 -94.5q33 -104 33 -107q2 -26 -37 -32q-14 -3 -40 -29q-20 -19 -42 -19q-12 0 -25 3q-22 4 -27 5q-18 1 -24 9.5t-28 64.5 q-10 27 -35 121q-20 74 -17 75q0 20 -6 25.5t-27 5.5zM585 1749l45 -5l38 1q29 0 29 -21t-48 -79q-29 -34 -48 -59q-35 -47 -50.5 -58.5t-41.5 -11.5l-77 1q-10 0 -24 -1h-11q-22 0 -40 15t-50 62q-47 66 -51 64q-39 36 -39 54q0 20 11 27q9 6 100 7l45 1q32 0 45.5 -8.5 t23.5 -34.5q8 -25 22 -47q13 -22 20 -23q12 0 41 51q24 41 34.5 52t25.5 13z"/>
<glyph glyph-name="scaron" horiz-adv-x="546" unicode="" d="M82 293q21 10 43 26q25 19 35 19q5 0 6 -20l7 -16l-6 -22q-19 -71 -19 -75q0 -22 30 -55.5t49 -33.5q11 0 31.5 14t32.5 30q18 24 18 62q0 31 -2.5 41t-14.5 33q-12 21 -19 61l-33 79l-15 64l-14 38q-5 85 -13 85q-7 0 -19 -67l-24 -76q-36 -111 -73 -187zM37 206 q-9 -10 -23 -19l-22 -27q-44 -41 -49 -42q-13 -2 -13 13v31v39q-1 20 40 63q21 22 40 60q8 15 10 31q2 11 11 43q65 240 65 272l-1 61q0 10 6 24q7 17 7 19l-7 55q-1 5 43 12q5 1 27 18q32 26 47 25l18 -2l43 3l20 -3q38 -5 46 -14q13 -15 13 -39l-1 -74q0 -26 24 -83 q22 -54 24 -75q4 -32 6.5 -36.5t27.5 -35.5q16 -19 31.5 -79t15.5 -101q0 -117 -44 -191q-28 -46 -58 -70t-118 -68q-32 -17 -50 -28q-33 -21 -45 -21q-14 0 -50 24.5t-51 43.5q-15 20 -25.5 57t-10.5 67q0 18 3 47zM401 1230l45 -4q48 0 57.5 -3t9.5 -18q0 -21 -48 -79 q-29 -34 -48 -59q-35 -47 -50.5 -58.5t-41.5 -11.5l-45 1h-56q-32 0 -48.5 12.5t-52.5 64.5q-35 49 -51 63q-39 36 -39 54q0 20 11 27q9 6 100 7l45 1q32 0 45.5 -8.5t23.5 -34.5q9 -25 22.5 -47.5t19.5 -22.5q12 0 41 51q24 41 34 52t26 13z"/>
<glyph glyph-name="Ydieresis" horiz-adv-x="940" unicode="" d="M531 780q38 63 122 225q81 144 96.5 176.5t20.5 71.5q6 38 12.5 46.5t41.5 23.5q26 25 32.5 27.5t47.5 4.5q6 1 36 5q9 1 17 1q17 0 20.5 -7.5t3.5 -41.5q0 -7 17 -33q8 -12 8 -20q0 -11 -47 -52q-8 -8 -36 -68q-10 -22 -31 -56q-31 -49 -86 -164q0 -1 -30 -38 q-71 -110 -169 -290q-7 -13 -7.5 -26t-3.5 -195l9 -160q2 -79 7 -97q14 -41 14 -50q0 -18 -49 -34q-14 -5 -28 -15q-21 -16 -24 -15l-53 18q-25 6 -50 29q-40 38 -53 47q-31 24 -31 40q0 13 27 64q3 18 10 154l-2 82q8 69 8 85q0 19 -2 25l-23 40l-66 134q-54 98 -72 142 q-38 94 -52.5 121t-40.5 50l-17 -17q-15 -16 -17 -20t-4 -21q-4 -42 -22 -42t-49 26q-12 10 -26 17q-21 11 -26 18.5t-6 27.5q0 20 -1 25l-2 14q2 17 35 58q27 33 64 148q12 38 18 44.5t49 25.5q6 3 29 19q20 14 27 14h1l41 -5q16 0 25.5 -5t28.5 -26q-1 -3 41 -36 q10 -8 10 -10l-11 -60q0 -2 8 -13q23 -36 45 -117q4 -14 33 -64t109 -206zM328 1753q13 0 45 -7.5t46 -13.5q21 -10 25.5 -18t8.5 -42q9 -31 9 -38q0 -11 -30 -70q-12 -24 -26.5 -32.5t-43.5 -8.5q-34 0 -44.5 4t-38.5 27q-47 38 -47 68q0 35 26 85q22 44 70 46zM631 1753 q53 0 96 -24q25 -14 32 -65q7 -29 7 -32q0 -11 -16 -37q-5 -8 -17 -34q-10 -21 -27 -29.5t-51 -8.5q-24 0 -41 7q-29 12 -53.5 44t-24.5 57q0 20 12 50t27 47q21 24 56 25z"/>
<glyph glyph-name="Zcaron" horiz-adv-x="846" unicode="" d="M292 235q40 -3 52 -3q7 0 119 4q17 1 33 1q36 0 162 -17q10 -1 20 -1q22 0 46 7q27 8 44 8q25 0 30 -37q3 -25 13 -61q1 -5 1 -9q0 -12 -16 -51q-2 -4 -2 -9q0 -3 14 -18q3 -3 3 -11q0 -30 -38 -30q-7 0 -20 1q-17 1 -28 1q-19 0 -171 -16q-2 0 -44 11q-38 10 -108 14 q-43 1 -135 12q-37 4 -64 4q-21 0 -99 -26q-13 -4 -29 -4q-29 0 -56.5 18t-27.5 37q0 8 4 17q13 25 13 28q0 4 -11 21q-13 21 -13 42q0 24 13.5 47.5t61.5 82.5q30 37 47.5 66t121.5 214l79 121l91 170q63 110 89 170q22 54 38 66q12 12 12 18t-9 11t-18 4l-59 -7l-138 -10 l-140 -12q-18 3 -20 3l-75 -7q-5 -1 -14 11t-9 20q0 4 13 31q2 3 2 9q0 8 -7 32q-11 37 -11 58q0 13 2 20l4 13l-6 34q-2 12 24 12q14 0 36 -6q31 -9 68 -9q22 0 140 11q21 2 90 5q45 1 200 16q93 -10 109 -10q15 0 36 2q11 1 22 1q23 0 23 -21q0 -11 -8 -21 q-13 -17 -13 -21q0 -5 13 -19q16 -16 16 -30q0 -9 -3 -19q-3 -9 -3 -12q0 -5 5 -16q8 -16 8 -24q0 -15 -49 -92q-38 -57 -96 -167q-121 -232 -127.5 -243.5t-116.5 -201.5l-105 -188zM578 1749l45 -5l38 1q29 0 29 -21t-48 -79q-29 -34 -48 -59q-35 -47 -50.5 -58.5 t-41.5 -11.5l-77 1q-10 0 -24 -1h-11q-22 0 -40 15t-50 62q-47 66 -51 64q-39 36 -39 54q0 20 11 27q9 6 100 7l45 1q32 0 45.5 -8.5t23.5 -34.5q8 -25 22 -47q13 -22 20 -23q12 0 41 51q24 41 34.5 52t25.5 13z"/>
<glyph glyph-name="zcaron" horiz-adv-x="624" unicode="" d="M468 20q-3 0 -20 -5q-16 -4 -28 -4q-38 0 -93 10q-88 17 -150 17q-35 0 -99 -17q-6 -2 -17 -2q-23 0 -39.5 11t-16.5 27q0 13 19 32q4 4 4 16q0 15 -22 48q-8 13 -8 20q0 13 11 26.5t76 82.5q171 189 226 293q21 37 33 51q10 11 10 16q0 8 -11 14.5t-25 6.5q-20 0 -83 -5 t-71 -8q-67 -19 -91 -19q-19 0 -19 18q0 5 18 34q2 3 2 6q0 6 -10 14q-10 9 -10 12l2 35q0 2 -6 17q-4 11 -4 24q0 39 40 39q9 0 27 -1h15q14 0 128 9q59 4 94 9q42 6 48 6l98 -7l63 1q34 0 34 -30q0 -10 -4 -19q-8 -17 -8 -22q0 -6 1 -12q3 -11 3 -14q0 -7 -6 -17 q-3 -5 -3 -7q0 -5 7 -13q8 -7 8 -12q0 -10 -9.5 -23t-66.5 -80l-94 -132q-85 -113 -172 -228q-13 -12 -13 -17q0 -7 14.5 -13.5t33.5 -6.5l47 1q15 0 45 -3q52 -5 88 -5q27 0 54 8q14 4 24 4q31 0 29 -29q-1 -11 -29 -41q-11 -12 -11 -20q0 -6 7 -15q17 -21 17 -29 q0 -3 -5 -10t-5 -9l1 -17q0 -3 -9 -12t-12 -9zM440 1230l45 -4q48 0 57.5 -3t9.5 -18q0 -21 -48 -79q-29 -34 -48 -59q-35 -47 -50.5 -58.5t-41.5 -11.5l-45 1h-56q-32 0 -48.5 12.5t-52.5 64.5q-35 49 -51 63q-39 36 -39 54q0 20 11 27q9 6 100 7l45 1q32 0 45.5 -8.5 t23.5 -34.5q9 -25 22.5 -47.5t19.5 -22.5q12 0 41 51q24 41 34 52t26 13z"/>
<glyph glyph-name="florin" horiz-adv-x="938" unicode="" d="M263 598q-6 -3 -7 -3l-24 7h-45t-10 -9q-7 -7 -10 -7q-11 0 -12 35l-9 28q0 3 10 15q15 17 15 33q0 2 -2 13q-2 8 -2 13q0 4 10 32q0 1 -9 11q-6 6 -6 11q0 19 19 19l38 -1l29 4q54 0 67.5 6t16.5 31q9 65 39.5 164.5t56.5 147.5q30 56 61.5 82.5t100.5 55.5l56 27l39 4 l23 7l39 -3h34l38 -24l24 -10l43 -29l22 -3l14 -8q13 -4 15.5 -7.5t4.5 -19.5q10 -107 10 -142q0 -79 -25 -79q-8 0 -28 17q-8 8 -13 8q-6 0 -16 -9q-16 -15 -29 -15q-5 0 -10 2l-18 7q-22 -11 -27 -11q-17 0 -17 16l9 49l4 48q2 21 2 39q0 14 -10.5 30.5t-20.5 16.5 q-1 0 -23 -12q-2 -1 -27 -6q-39 -8 -85 -83t-57 -148q-6 -45 -13 -58q-17 -33 -16 -36l6 -48q0 -2 -12 -11q13 2 16 2q4 0 53 -4q9 -1 23 -1q45 0 68 3q19 2 28 2q20 0 20 -12q0 -6 -13 -14q-9 -6 -9 -7q19 -39 19 -45q0 -10 -5 -18l-12 -19l9 -26q2 -4 2 -6 q0 -18 -30.5 -33t-64.5 -15q-14 0 -86 10q-37 5 -53 5t-21.5 -20.5t-19.5 -132.5q-12 -85 -78 -326q-39 -150 -86 -279q-17 -43 -23.5 -52t-29.5 -17q-18 -7 -36 -40q-18 -32 -25 -40t-29 -21q-28 -17 -50 -17q-11 0 -20 5q-19 11 -20 11l-21 -8q-6 -2 -12 -2q-23 0 -23 17 q0 10 26 41q27 33 71 154.5t56 199.5q17 105 33 109q11 16 10 19l-5 27l12 27l-10 65q-1 9 35 68q15 5 27 116q2 19 11 77z"/>
<glyph glyph-name="circumflex" d="M485 1114q-11 0 -41 -51q-27 -45 -37 -56q-9 -10 -21 -10h-2l-45 5l-38 -1q-29 0 -29 21t48 78q29 35 48 60q35 47 50.5 58.5t41.5 11.5l77 -1q8 0 24 1h12q21 0 38.5 -15t50.5 -62q35 -49 51 -64q39 -36 39 -54q0 -20 -11 -27q-9 -6 -100 -7l-45 -1q-32 0 -46 8.5 t-23 34.5q-9 25 -22.5 48t-19.5 23z" unicode=""/>
<glyph glyph-name="caron" d="M639 1230l45 -4q48 0 57.5 -3t9.5 -18q0 -21 -48 -79q-29 -34 -48 -59q-35 -47 -50.5 -58.5t-41.5 -11.5l-45 1h-56q-32 0 -48.5 12.5t-52.5 64.5q-35 49 -51 63q-39 36 -39 54q0 20 11 27q9 6 100 7l45 1q32 0 45.5 -8.5t23.5 -34.5q9 -25 22.5 -47.5t19.5 -22.5 q12 0 41 51q24 41 34 52t26 13z" unicode=""/>
<glyph glyph-name="macron" d="M630 1031q-20 0 -38 -1q-51 -3 -55 -3q-10 0 -121 10q-12 1 -19 1q-74 0 -94 -6t-29 -6q-25 0 -25 27q0 13 5 30q13 40 14 51q2 37 4 45t11 14q15 10 42 10q23 0 48 -4q30 -4 34 -4l35 2l96 1l77 2l48 -1l80 5h3q28 0 28 -34q0 -20 -5 -50q-4 -21 -7 -62q-2 -31 -42 -31 q-13 0 -29 1q-40 3 -61 3z" unicode=""/>
<glyph glyph-name="breve" d="M281 1227l27 -3l38 5q35 -7 38.5 -9.5t14.5 -29.5q14 -35 46.5 -56t70.5 -21q90 0 113 79q10 35 36 35q4 0 10 -1q25 -3 26 -3q35 4 40 4q32 0 32 -23q0 -51 -45 -119q-73 -112 -205 -112q-124 0 -198 70q-31 29 -52.5 71.5t-21.5 75.5t30 37z" unicode=""/>
<glyph glyph-name="dotaccent" d="M496 1235q13 0 45 -7.5t46 -13.5q21 -10 25.5 -18t8.5 -42q9 -31 9 -38q0 -11 -30 -70q-12 -24 -26.5 -32.5t-43.5 -8.5q-34 0 -44.5 4t-38.5 27q-47 38 -47 68q0 35 26 85q22 44 70 46z" unicode=""/>
<glyph glyph-name="ring" d="M515 1199q-18 0 -32 -33t-14 -73q0 -63 30 -63q21 0 36.5 28t15.5 63q0 78 -35 78h-1zM470 1281l40 -1l35 2q43 0 85 -54q36 -47 36 -92v-7q-2 -35 -15 -72.5t-28 -53.5q-58 -59 -116 -59q-65 0 -107 43.5t-42 110.5q0 69 51 146q25 37 61 37z" unicode=""/>
<glyph glyph-name="ogonek" d="M664 -139q10 0 15.5 -12t5.5 -34q0 -11 -27 -36q-57 -51 -135 -51q-125 0 -125 119q0 26 22 68t51 71q24 25 35.5 30t44.5 5q8 0 38 4h11q32 0 32 -13q0 -4 -20 -26q-67 -72 -67 -104q0 -34 54 -34q19 0 41 8q14 5 24 5z" unicode=""/>
</font>
</defs>
</svg>
